<svg width="3107" height="1579" xmlns="http://www.w3.org/2000/svg" xmlns:xlink="http://www.w3.org/1999/xlink" xml:space="preserve" overflow="hidden"><defs><clipPath id="clip0"><rect x="3895" y="294" width="3107" height="1579"/></clipPath><clipPath id="clip1"><rect x="3894" y="293" width="3108" height="1580"/></clipPath><clipPath id="clip2"><rect x="3894" y="293" width="3108" height="1580"/></clipPath><clipPath id="clip3"><rect x="3894" y="293" width="3108" height="1580"/></clipPath><clipPath id="clip4"><rect x="4292" y="589" width="2621" height="1061"/></clipPath><clipPath id="clip5"><rect x="4292" y="589" width="2621" height="1061"/></clipPath><clipPath id="clip6"><rect x="4292" y="589" width="2621" height="1061"/></clipPath><clipPath id="clip7"><rect x="3894" y="293" width="3108" height="1580"/></clipPath><clipPath id="clip8"><rect x="3894" y="293" width="3108" height="1580"/></clipPath><clipPath id="clip9"><rect x="3894" y="293" width="3108" height="1580"/></clipPath><clipPath id="clip10"><rect x="3894" y="293" width="3108" height="1580"/></clipPath><clipPath id="clip11"><rect x="3894" y="293" width="3108" height="1580"/></clipPath><clipPath id="clip12"><rect x="3894" y="293" width="3108" height="1580"/></clipPath><clipPath id="clip13"><rect x="3894" y="293" width="3108" height="1580"/></clipPath><clipPath id="clip14"><rect x="3894" y="293" width="3108" height="1580"/></clipPath><clipPath id="clip15"><rect x="3894" y="293" width="3108" height="1580"/></clipPath><clipPath id="clip16"><rect x="3894" y="293" width="3108" height="1580"/></clipPath><clipPath id="clip17"><rect x="3894" y="293" width="3108" height="1580"/></clipPath><clipPath id="clip18"><rect x="3894" y="293" width="3108" height="1580"/></clipPath><clipPath id="clip19"><rect x="3894" y="293" width="3108" height="1580"/></clipPath><clipPath id="clip20"><rect x="3894" y="293" width="3108" height="1580"/></clipPath><clipPath id="clip21"><rect x="3894" y="293" width="3108" height="1580"/></clipPath><clipPath id="clip22"><rect x="3894" y="293" width="3108" height="1580"/></clipPath><clipPath id="clip23"><rect x="3894" y="293" width="3108" height="1580"/></clipPath><clipPath id="clip24"><rect x="3894" y="293" width="3108" height="1580"/></clipPath><clipPath id="clip25"><rect x="3894" y="293" width="3108" height="1580"/></clipPath><clipPath id="clip26"><rect x="3894" y="293" width="3108" height="1580"/></clipPath><clipPath id="clip27"><rect x="3894" y="293" width="3108" height="1580"/></clipPath><clipPath id="clip28"><rect x="3894" y="293" width="3108" height="1580"/></clipPath><clipPath id="clip29"><rect x="3894" y="293" width="3108" height="1580"/></clipPath><clipPath id="clip30"><rect x="3894" y="293" width="3108" height="1580"/></clipPath></defs><g clip-path="url(#clip0)" transform="translate(-3895 -294)"><rect x="3895" y="294" width="3107" height="1579" fill="#FFFFFF"/><g clip-path="url(#clip1)"><path d="M4379.64 589.5 4379.64 1647.5M4467.65 589.5 4467.65 1647.5M4554.65 589.5 4554.65 1647.5M4641.65 589.5 4641.65 1647.5M4816.66 589.5 4816.66 1647.5M4903.66 589.5 4903.66 1647.5M4990.66 589.5 4990.66 1647.5M5077.67 589.5 5077.67 1647.5M5252.67 589.5 5252.67 1647.5M5339.68 589.5 5339.68 1647.5M5426.68 589.5 5426.68 1647.5M5514.68 589.5 5514.68 1647.5M5688.69 589.5 5688.69 1647.5M5776.69 589.5 5776.69 1647.5M5863.69 589.5 5863.69 1647.5M5950.7 589.5 5950.7 1647.5M6125.7 589.5 6125.7 1647.5M6212.7 589.5 6212.7 1647.5M6299.71 589.5 6299.71 1647.5M6386.71 589.5 6386.71 1647.5M6561.72 589.5 6561.72 1647.5M6648.72 589.5 6648.72 1647.5M6735.72 589.5 6735.72 1647.5M6823.72 589.5 6823.72 1647.5" stroke="#F2F2F2" stroke-width="3.4375" stroke-linejoin="round" stroke-miterlimit="10" fill="none"/></g><g clip-path="url(#clip2)"><path d="M4728.66 589.5 4728.66 1647.5M5165.67 589.5 5165.67 1647.5M5601.68 589.5 5601.68 1647.5M6037.7 589.5 6037.7 1647.5M6474.71 589.5 6474.71 1647.5M6910.5 589.5 6910.5 1647.5" stroke="#D9D9D9" stroke-width="3.4375" stroke-linejoin="round" stroke-miterlimit="10" fill="none"/></g><g clip-path="url(#clip3)"><path d="M4292.5 1647.5 6910.5 1647.5M4292.5 1541.55 6910.5 1541.55M4292.5 1435.55 6910.5 1435.55M4292.5 1330.54 6910.5 1330.54M4292.5 1224.54 6910.5 1224.54M4292.5 1118.54 6910.5 1118.54M4292.5 1012.53 6910.5 1012.53M4292.5 906.53 6910.5 906.53M4292.5 800.526 6910.5 800.526M4292.5 695.523 6910.5 695.523M4292.5 589.5 6910.5 589.5" stroke="#F2F2F2" stroke-width="3.4375" stroke-linejoin="round" stroke-miterlimit="10" fill="none"/></g><g clip-path="url(#clip4)"><path d="M4960.16 1584.05 4293 1584.05 4293 1499.05 4960.16 1499.05ZM5011.16 1372.04 4293 1372.04 4293 1288.04 5011.16 1288.04ZM5069.17 1161.04 4293 1161.04 4293 1076.04 5069.17 1076.04ZM5122.17 949.031 4293 949.031 4293 864.028 5122.17 864.028ZM4834.16 737.024 4293 737.024 4293 653.021 4834.16 653.021Z" fill="#D9D9D9"/></g><g clip-path="url(#clip5)"><path d="M5628.18 1584.05 4960.16 1584.05 4960.16 1499.05 5628.18 1499.05ZM5729.19 1372.04 5011.16 1372.04 5011.16 1288.04 5729.19 1288.04ZM5846.19 1161.04 5069.17 1161.04 5069.17 1076.04 5846.19 1076.04ZM5951.2 949.031 5122.17 949.031 5122.17 864.028 5951.2 864.028ZM5375.18 737.024 4834.16 737.024 4834.16 653.021 5375.18 653.021Z" fill="#BFBFBF"/></g><g clip-path="url(#clip6)"><path d="M6910.23 1584.05 5628.18 1584.05 5628.18 1499.05 6910.23 1499.05ZM6910.23 1372.04 5729.19 1372.04 5729.19 1288.04 6910.23 1288.04ZM6910.23 1161.04 5846.19 1161.04 5846.19 1076.04 6910.23 1076.04ZM6910.23 949.031 5951.2 949.031 5951.2 864.028 6910.23 864.028ZM6910.23 737.024 5375.18 737.024 5375.18 653.021 6910.23 653.021Z" fill="#A5A5A5"/></g><g clip-path="url(#clip7)"><path d="M0 0 0.000360892 1058" stroke="#D9D9D9" stroke-width="3.4375" stroke-linejoin="round" stroke-miterlimit="10" fill="none" fill-rule="evenodd" transform="matrix(1 0 0 -1 4292.5 1647.5)"/></g><g clip-path="url(#clip8)"><text font-family="LM Roman 10,LM Roman 10_MSFontService,sans-serif" font-weight="400" font-size="41" transform="matrix(1 0 0 1 4282.52 1724)">0</text></g><g clip-path="url(#clip9)"><text font-family="LM Roman 10,LM Roman 10_MSFontService,sans-serif" font-weight="400" font-size="41" transform="matrix(1 0 0 1 4698.18 1724)">500</text></g><g clip-path="url(#clip10)"><text font-family="LM Roman 10,LM Roman 10_MSFontService,sans-serif" font-weight="400" font-size="41" transform="matrix(1 0 0 1 5124.15 1724)">1000</text></g><g clip-path="url(#clip11)"><text font-family="LM Roman 10,LM Roman 10_MSFontService,sans-serif" font-weight="400" font-size="41" transform="matrix(1 0 0 1 5560.43 1724)">1500</text></g><g clip-path="url(#clip12)"><text font-family="LM Roman 10,LM Roman 10_MSFontService,sans-serif" font-weight="400" font-size="41" transform="matrix(1 0 0 1 5996.71 1724)">2000</text></g><g clip-path="url(#clip13)"><text font-family="LM Roman 10,LM Roman 10_MSFontService,sans-serif" font-weight="400" font-size="41" transform="matrix(1 0 0 1 6432.99 1724)">2500</text></g><g clip-path="url(#clip14)"><text font-family="LM Roman 10,LM Roman 10_MSFontService,sans-serif" font-weight="400" font-size="41" transform="matrix(1 0 0 1 6869.27 1724)">3000</text></g><g clip-path="url(#clip15)"><text font-family="LM Roman 10,LM Roman 10_MSFontService,sans-serif" font-weight="400" font-size="41" transform="matrix(1 0 0 1 4039.89 1554)">SQL Server</text></g><g clip-path="url(#clip16)"><text font-family="LM Roman 10,LM Roman 10_MSFontService,sans-serif" font-weight="400" font-size="41" transform="matrix(1 0 0 1 4107.7 1343)">MySQL</text></g><g clip-path="url(#clip17)"><text font-family="LM Roman 10,LM Roman 10_MSFontService,sans-serif" font-weight="400" font-size="41" transform="matrix(1 0 0 1 4031.18 1131)">PostgreSQL</text></g><g clip-path="url(#clip18)"><text font-family="LM Roman 10,LM Roman 10_MSFontService,sans-serif" font-weight="400" font-size="41" transform="matrix(1 0 0 1 4121.49 919)">SQLite</text></g><g clip-path="url(#clip19)"><text font-family="LM Roman 10,LM Roman 10_MSFontService,sans-serif" font-weight="400" font-size="41" transform="matrix(1 0 0 1 4064.75 708)">MongoDB</text></g><g clip-path="url(#clip20)"><text font-family="LM Roman 10,LM Roman 10_MSFontService,sans-serif" font-weight="700" font-size="46" transform="matrix(1 0 0 1 5316.44 1812)">Czas odpowiedzi (ms)</text></g><g clip-path="url(#clip21)"><text font-family="LM Roman 10,LM Roman 10_MSFontService,sans-serif" font-weight="700" font-size="46" transform="matrix(6.12323e-17 -1 1 6.12323e-17 3985.64 1313)">System bazodanowy</text></g><g clip-path="url(#clip22)"><text font-family="LM Roman 10,LM Roman 10_MSFontService,sans-serif" font-weight="400" font-size="64" transform="matrix(1 0 0 1 4844.28 400)">Wskaźnik wydajności APDEX </text></g><g clip-path="url(#clip23)"><text font-family="LM Roman 10,LM Roman 10_MSFontService,sans-serif" font-weight="400" font-size="64" transform="matrix(1 0 0 1 5717.52 400)">-</text></g><g clip-path="url(#clip24)"><text font-family="LM Roman 10,LM Roman 10_MSFontService,sans-serif" font-weight="400" font-size="64" transform="matrix(1 0 0 1 5760.24 400)">API .NET</text></g><g clip-path="url(#clip25)"><rect x="4861" y="483" width="26" height="26.0001" fill="#D9D9D9"/></g><g clip-path="url(#clip26)"><text font-family="LM Roman 10,LM Roman 10_MSFontService,sans-serif" font-weight="400" font-size="41" transform="matrix(1 0 0 1 4898.68 509)">Obszar satysfakcji</text></g><g clip-path="url(#clip27)"><rect x="5297" y="483" width="26" height="26.0001" fill="#BFBFBF"/></g><g clip-path="url(#clip28)"><text font-family="LM Roman 10,LM Roman 10_MSFontService,sans-serif" font-weight="400" font-size="41" transform="matrix(1 0 0 1 5334.68 509)">Obszar tolerancji</text></g><g clip-path="url(#clip29)"><rect x="5713" y="483" width="26" height="26.0001" fill="#A5A5A5"/></g><g clip-path="url(#clip30)"><text font-family="LM Roman 10,LM Roman 10_MSFontService,sans-serif" font-weight="400" font-size="41" transform="matrix(1 0 0 1 5750.9 509)">Obszar frustracji</text></g></g></svg>