<svg width="3107" height="1579" xmlns="http://www.w3.org/2000/svg" xmlns:xlink="http://www.w3.org/1999/xlink" xml:space="preserve" overflow="hidden"><defs><clipPath id="clip0"><rect x="3881" y="2936" width="3107" height="1579"/></clipPath><clipPath id="clip1"><rect x="3880" y="2935" width="3108" height="1580"/></clipPath><clipPath id="clip2"><rect x="3880" y="2935" width="3108" height="1580"/></clipPath><clipPath id="clip3"><rect x="3880" y="2935" width="3108" height="1580"/></clipPath><clipPath id="clip4"><rect x="4279" y="3231" width="2621" height="1061"/></clipPath><clipPath id="clip5"><rect x="4279" y="3231" width="2621" height="1061"/></clipPath><clipPath id="clip6"><rect x="4279" y="3231" width="2621" height="1061"/></clipPath><clipPath id="clip7"><rect x="3880" y="2935" width="3108" height="1580"/></clipPath><clipPath id="clip8"><rect x="3880" y="2935" width="3108" height="1580"/></clipPath><clipPath id="clip9"><rect x="3880" y="2935" width="3108" height="1580"/></clipPath><clipPath id="clip10"><rect x="3880" y="2935" width="3108" height="1580"/></clipPath><clipPath id="clip11"><rect x="3880" y="2935" width="3108" height="1580"/></clipPath><clipPath id="clip12"><rect x="3880" y="2935" width="3108" height="1580"/></clipPath><clipPath id="clip13"><rect x="3880" y="2935" width="3108" height="1580"/></clipPath><clipPath id="clip14"><rect x="3880" y="2935" width="3108" height="1580"/></clipPath><clipPath id="clip15"><rect x="3880" y="2935" width="3108" height="1580"/></clipPath><clipPath id="clip16"><rect x="3880" y="2935" width="3108" height="1580"/></clipPath><clipPath id="clip17"><rect x="3880" y="2935" width="3108" height="1580"/></clipPath><clipPath id="clip18"><rect x="3880" y="2935" width="3108" height="1580"/></clipPath><clipPath id="clip19"><rect x="3880" y="2935" width="3108" height="1580"/></clipPath><clipPath id="clip20"><rect x="3880" y="2935" width="3108" height="1580"/></clipPath><clipPath id="clip21"><rect x="3880" y="2935" width="3108" height="1580"/></clipPath><clipPath id="clip22"><rect x="3880" y="2935" width="3108" height="1580"/></clipPath><clipPath id="clip23"><rect x="3880" y="2935" width="3108" height="1580"/></clipPath><clipPath id="clip24"><rect x="3880" y="2935" width="3108" height="1580"/></clipPath><clipPath id="clip25"><rect x="3880" y="2935" width="3108" height="1580"/></clipPath><clipPath id="clip26"><rect x="3880" y="2935" width="3108" height="1580"/></clipPath><clipPath id="clip27"><rect x="3880" y="2935" width="3108" height="1580"/></clipPath><clipPath id="clip28"><rect x="3880" y="2935" width="3108" height="1580"/></clipPath><clipPath id="clip29"><rect x="3880" y="2935" width="3108" height="1580"/></clipPath><clipPath id="clip30"><rect x="3880" y="2935" width="3108" height="1580"/></clipPath></defs><g clip-path="url(#clip0)" transform="translate(-3881 -2936)"><rect x="3881" y="2936" width="3107" height="1579" fill="#FFFFFF"/><g clip-path="url(#clip1)"><path d="M4366.64 3231.5 4366.64 4289.5M4453.65 3231.5 4453.65 4289.5M4540.65 3231.5 4540.65 4289.5M4627.65 3231.5 4627.65 4289.5M4802.66 3231.5 4802.66 4289.5M4889.66 3231.5 4889.66 4289.5M4976.66 3231.5 4976.66 4289.5M5064.67 3231.5 5064.67 4289.5M5238.67 3231.5 5238.67 4289.5M5325.67 3231.5 5325.67 4289.5M5413.68 3231.5 5413.68 4289.5M5500.68 3231.5 5500.68 4289.5M5675.69 3231.5 5675.69 4289.5M5762.69 3231.5 5762.69 4289.5M5849.69 3231.5 5849.69 4289.5M5936.7 3231.5 5936.7 4289.5M6111.7 3231.5 6111.7 4289.5M6198.7 3231.5 6198.7 4289.5M6285.71 3231.5 6285.71 4289.5M6373.71 3231.5 6373.71 4289.5M6547.71 3231.5 6547.71 4289.5M6634.72 3231.5 6634.72 4289.5M6722.72 3231.5 6722.72 4289.5M6809.72 3231.5 6809.72 4289.5" stroke="#F2F2F2" stroke-width="3.4375" stroke-linejoin="round" stroke-miterlimit="10" fill="none"/></g><g clip-path="url(#clip2)"><path d="M4715.66 3231.5 4715.66 4289.5M5151.67 3231.5 5151.67 4289.5M5587.68 3231.5 5587.68 4289.5M6024.7 3231.5 6024.7 4289.5M6460.71 3231.5 6460.71 4289.5M6896.5 3231.5 6896.5 4289.5" stroke="#D9D9D9" stroke-width="3.4375" stroke-linejoin="round" stroke-miterlimit="10" fill="none"/></g><g clip-path="url(#clip3)"><path d="M4279.5 4289.5 6896.5 4289.5M4279.5 4183.64 6896.5 4183.64M4279.5 4077.63 6896.5 4077.63M4279.5 3971.63 6896.5 3971.63M4279.5 3865.63 6896.5 3865.63M4279.5 3760.62 6896.5 3760.62M4279.5 3654.62 6896.5 3654.62M4279.5 3548.62 6896.5 3548.62M4279.5 3442.61 6896.5 3442.61M4279.5 3336.61 6896.5 3336.61M4279.5 3231.5 6896.5 3231.5" stroke="#F2F2F2" stroke-width="3.4375" stroke-linejoin="round" stroke-miterlimit="10" fill="none"/></g><g clip-path="url(#clip4)"><path d="M4900.16 4226.14 4279 4226.14 4279 4141.14 4900.16 4141.14ZM4800.16 4014.13 4279 4014.13 4279 3929.13 4800.16 3929.13ZM4839.16 3802.12 4279 3802.12 4279 3718.12 4839.16 3718.12ZM5008.16 3591.12 4279 3591.12 4279 3506.12 5008.16 3506.12ZM4721.15 3379.11 4279 3379.11 4279 3294.11 4721.15 3294.11Z" fill="#D9D9D9"/></g><g clip-path="url(#clip5)"><path d="M5521.18 4226.14 4900.16 4226.14 4900.16 4141.14 5521.18 4141.14ZM5321.17 4014.13 4800.16 4014.13 4800.16 3929.13 5321.17 3929.13ZM5399.18 3802.12 4839.16 3802.12 4839.16 3718.12 5399.18 3718.12ZM5738.19 3591.12 5008.16 3591.12 5008.16 3506.12 5738.19 3506.12ZM5164.17 3379.11 4721.15 3379.11 4721.15 3294.11 5164.17 3294.11Z" fill="#BFBFBF"/></g><g clip-path="url(#clip6)"><path d="M6897.23 4226.14 5521.18 4226.14 5521.18 4141.14 6897.23 4141.14ZM6897.23 4014.13 5321.17 4014.13 5321.17 3929.13 6897.23 3929.13ZM6897.23 3802.12 5399.18 3802.12 5399.18 3718.12 6897.23 3718.12ZM6897.23 3591.12 5738.19 3591.12 5738.19 3506.12 6897.23 3506.12ZM6897.23 3379.11 5164.17 3379.11 5164.17 3294.11 6897.23 3294.11Z" fill="#A5A5A5"/></g><g clip-path="url(#clip7)"><path d="M0 0 0.000360892 1058" stroke="#D9D9D9" stroke-width="3.4375" stroke-linejoin="round" stroke-miterlimit="10" fill="none" fill-rule="evenodd" transform="matrix(1 0 0 -1 4279.5 4289.5)"/></g><g clip-path="url(#clip8)"><text font-family="LM Roman 10,LM Roman 10_MSFontService,sans-serif" font-weight="400" font-size="41" transform="matrix(1 0 0 1 4268.78 4366)">0</text></g><g clip-path="url(#clip9)"><text font-family="LM Roman 10,LM Roman 10_MSFontService,sans-serif" font-weight="400" font-size="41" transform="matrix(1 0 0 1 4684.43 4366)">500</text></g><g clip-path="url(#clip10)"><text font-family="LM Roman 10,LM Roman 10_MSFontService,sans-serif" font-weight="400" font-size="41" transform="matrix(1 0 0 1 5110.4 4366)">1000</text></g><g clip-path="url(#clip11)"><text font-family="LM Roman 10,LM Roman 10_MSFontService,sans-serif" font-weight="400" font-size="41" transform="matrix(1 0 0 1 5546.68 4366)">1500</text></g><g clip-path="url(#clip12)"><text font-family="LM Roman 10,LM Roman 10_MSFontService,sans-serif" font-weight="400" font-size="41" transform="matrix(1 0 0 1 5982.96 4366)">2000</text></g><g clip-path="url(#clip13)"><text font-family="LM Roman 10,LM Roman 10_MSFontService,sans-serif" font-weight="400" font-size="41" transform="matrix(1 0 0 1 6419.24 4366)">2500</text></g><g clip-path="url(#clip14)"><text font-family="LM Roman 10,LM Roman 10_MSFontService,sans-serif" font-weight="400" font-size="41" transform="matrix(1 0 0 1 6855.52 4366)">3000</text></g><g clip-path="url(#clip15)"><text font-family="LM Roman 10,LM Roman 10_MSFontService,sans-serif" font-weight="400" font-size="41" transform="matrix(1 0 0 1 4026.14 4196)">SQL Server</text></g><g clip-path="url(#clip16)"><text font-family="LM Roman 10,LM Roman 10_MSFontService,sans-serif" font-weight="400" font-size="41" transform="matrix(1 0 0 1 4093.95 3984)">MySQL</text></g><g clip-path="url(#clip17)"><text font-family="LM Roman 10,LM Roman 10_MSFontService,sans-serif" font-weight="400" font-size="41" transform="matrix(1 0 0 1 4017.43 3773)">PostgreSQL</text></g><g clip-path="url(#clip18)"><text font-family="LM Roman 10,LM Roman 10_MSFontService,sans-serif" font-weight="400" font-size="41" transform="matrix(1 0 0 1 4107.74 3561)">SQLite</text></g><g clip-path="url(#clip19)"><text font-family="LM Roman 10,LM Roman 10_MSFontService,sans-serif" font-weight="400" font-size="41" transform="matrix(1 0 0 1 4051 3349)">MongoDB</text></g><g clip-path="url(#clip20)"><text font-family="LM Roman 10,LM Roman 10_MSFontService,sans-serif" font-weight="700" font-size="46" transform="matrix(1 0 0 1 5302.69 4453)">Czas odpowiedzi (ms)</text></g><g clip-path="url(#clip21)"><text font-family="LM Roman 10,LM Roman 10_MSFontService,sans-serif" font-weight="700" font-size="46" transform="matrix(6.12323e-17 -1 1 6.12323e-17 3971.89 3955)">System bazodanowy</text></g><g clip-path="url(#clip22)"><text font-family="LM Roman 10,LM Roman 10_MSFontService,sans-serif" font-weight="400" font-size="64" transform="matrix(1 0 0 1 4801.12 3042)">Wskaźnik wydajności APDEX </text></g><g clip-path="url(#clip23)"><text font-family="LM Roman 10,LM Roman 10_MSFontService,sans-serif" font-weight="400" font-size="64" transform="matrix(1 0 0 1 5674.36 3042)">-</text></g><g clip-path="url(#clip24)"><text font-family="LM Roman 10,LM Roman 10_MSFontService,sans-serif" font-weight="400" font-size="64" transform="matrix(1 0 0 1 5717.08 3042)">API NodeJS</text></g><g clip-path="url(#clip25)"><rect x="4847" y="3125" width="26" height="26.0002" fill="#D9D9D9"/></g><g clip-path="url(#clip26)"><text font-family="LM Roman 10,LM Roman 10_MSFontService,sans-serif" font-weight="400" font-size="41" transform="matrix(1 0 0 1 4884.93 3150)">Obszar satysfakcji</text></g><g clip-path="url(#clip27)"><rect x="5283" y="3125" width="26" height="26.0002" fill="#BFBFBF"/></g><g clip-path="url(#clip28)"><text font-family="LM Roman 10,LM Roman 10_MSFontService,sans-serif" font-weight="400" font-size="41" transform="matrix(1 0 0 1 5320.93 3150)">Obszar tolerancji</text></g><g clip-path="url(#clip29)"><rect x="5699" y="3125" width="27" height="26.0002" fill="#A5A5A5"/></g><g clip-path="url(#clip30)"><text font-family="LM Roman 10,LM Roman 10_MSFontService,sans-serif" font-weight="400" font-size="41" transform="matrix(1 0 0 1 5737.15 3150)">Obszar frustracji</text></g></g></svg>