<svg width="2723" height="1408" xmlns="http://www.w3.org/2000/svg" xmlns:xlink="http://www.w3.org/1999/xlink" xml:space="preserve" overflow="hidden"><defs><clipPath id="clip0"><rect x="2090" y="514" width="2723" height="1408"/></clipPath><clipPath id="clip1"><rect x="2090" y="513" width="2722" height="1408"/></clipPath><clipPath id="clip2"><rect x="2090" y="513" width="2722" height="1408"/></clipPath><clipPath id="clip3"><rect x="2406" y="825" width="2359" height="817"/></clipPath><clipPath id="clip4"><rect x="2406" y="825" width="2359" height="817"/></clipPath><clipPath id="clip5"><rect x="2406" y="825" width="2359" height="814"/></clipPath><clipPath id="clip6"><rect x="2406" y="825" width="2359" height="814"/></clipPath><clipPath id="clip7"><rect x="2406" y="825" width="2359" height="814"/></clipPath><clipPath id="clip8"><rect x="2406" y="825" width="2359" height="814"/></clipPath><clipPath id="clip9"><rect x="2406" y="825" width="2359" height="814"/></clipPath><clipPath id="clip10"><rect x="2406" y="825" width="2359" height="814"/></clipPath><clipPath id="clip11"><rect x="2406" y="825" width="2359" height="814"/></clipPath><clipPath id="clip12"><rect x="2406" y="825" width="2359" height="814"/></clipPath><clipPath id="clip13"><rect x="2406" y="825" width="2359" height="814"/></clipPath><clipPath id="clip14"><rect x="2406" y="825" width="2359" height="814"/></clipPath><clipPath id="clip15"><rect x="2406" y="825" width="2359" height="814"/></clipPath><clipPath id="clip16"><rect x="2406" y="825" width="2359" height="814"/></clipPath><clipPath id="clip17"><rect x="2090" y="513" width="2722" height="1408"/></clipPath><clipPath id="clip18"><rect x="2090" y="513" width="2722" height="1408"/></clipPath><clipPath id="clip19"><rect x="2090" y="513" width="2722" height="1408"/></clipPath><clipPath id="clip20"><rect x="2090" y="513" width="2722" height="1408"/></clipPath><clipPath id="clip21"><rect x="2090" y="513" width="2722" height="1408"/></clipPath><clipPath id="clip22"><rect x="2090" y="513" width="2722" height="1408"/></clipPath><clipPath id="clip23"><rect x="2090" y="513" width="2722" height="1408"/></clipPath><clipPath id="clip24"><rect x="2090" y="513" width="2722" height="1408"/></clipPath><clipPath id="clip25"><rect x="2090" y="513" width="2722" height="1408"/></clipPath><clipPath id="clip26"><rect x="2090" y="513" width="2722" height="1408"/></clipPath><clipPath id="clip27"><rect x="2090" y="513" width="2722" height="1408"/></clipPath><clipPath id="clip28"><rect x="2090" y="513" width="2722" height="1408"/></clipPath><clipPath id="clip29"><rect x="2090" y="513" width="2722" height="1408"/></clipPath><clipPath id="clip30"><rect x="2090" y="513" width="2722" height="1408"/></clipPath><clipPath id="clip31"><rect x="2090" y="513" width="2722" height="1408"/></clipPath><clipPath id="clip32"><rect x="2090" y="513" width="2722" height="1408"/></clipPath><clipPath id="clip33"><rect x="2090" y="513" width="2722" height="1408"/></clipPath><clipPath id="clip34"><rect x="2090" y="513" width="2722" height="1408"/></clipPath><clipPath id="clip35"><rect x="2090" y="513" width="2722" height="1408"/></clipPath><clipPath id="clip36"><rect x="2090" y="513" width="2722" height="1408"/></clipPath><clipPath id="clip37"><rect x="2090" y="513" width="2722" height="1408"/></clipPath><clipPath id="clip38"><rect x="2090" y="513" width="2722" height="1408"/></clipPath><clipPath id="clip39"><rect x="2090" y="513" width="2722" height="1408"/></clipPath><clipPath id="clip40"><rect x="2090" y="513" width="2722" height="1408"/></clipPath><clipPath id="clip41"><rect x="2090" y="513" width="2722" height="1408"/></clipPath><clipPath id="clip42"><rect x="2090" y="513" width="2722" height="1408"/></clipPath><clipPath id="clip43"><rect x="2090" y="513" width="2722" height="1408"/></clipPath></defs><g clip-path="url(#clip0)" transform="translate(-2090 -514)"><rect x="2090" y="514" width="2723" height="1408" fill="#FFFFFF"/><g clip-path="url(#clip1)"><path d="M2406.5 1558.55 4762.5 1558.55M2406.5 1476.55 4762.5 1476.55M2406.5 1395.55 4762.5 1395.55M2406.5 1313.54 4762.5 1313.54M2406.5 1232.54 4762.5 1232.54M2406.5 1150.54 4762.5 1150.54M2406.5 1069.54 4762.5 1069.54M2406.5 987.533 4762.5 987.533M2406.5 906.53 4762.5 906.53M2406.5 825.5 4762.5 825.5" stroke="#D9D9D9" stroke-width="3.4375" stroke-linejoin="round" stroke-miterlimit="10" fill="none"/></g><g clip-path="url(#clip2)"><path d="M2406.5 825.5 2406.5 1639.5M2799.59 825.5 2799.59 1639.5M3191.6 825.5 3191.6 1639.5M3584.62 825.5 3584.62 1639.5M3976.63 825.5 3976.63 1639.5M4369.64 825.5 4369.64 1639.5M4762.5 825.5 4762.5 1639.5" stroke="#D9D9D9" stroke-width="3.4375" stroke-linejoin="round" stroke-miterlimit="10" fill="none"/></g><g clip-path="url(#clip3)"><path d="M2503.08 1624.05 2591.08 1624.05 2591.08 1640 2503.08 1640ZM2896.09 1617.05 2984.1 1617.05 2984.1 1640 2896.09 1640ZM3288.11 1600.05 3376.11 1600.05 3376.11 1640 3288.11 1640ZM3681.12 1571.05 3769.12 1571.05 3769.12 1640 3681.12 1640ZM4073.13 1510.05 4161.14 1510.05 4161.14 1640 4073.13 1640ZM4466.15 1319.04 4554.15 1319.04 4554.15 1640 4466.15 1640Z" fill="#D9D9D9"/></g><g clip-path="url(#clip4)"><path d="M2615.09 1258.04 2703.09 1258.04 2703.09 1640 2615.09 1640ZM3007.1 1248.04 3095.1 1248.04 3095.1 1640 3007.1 1640ZM3400.11 1232.04 3488.11 1232.04 3488.11 1640 3400.11 1640ZM3793.12 1161.04 3881.13 1161.04 3881.13 1640 3793.12 1640ZM4185.14 1108.04 4273.14 1108.04 4273.14 1640 4185.14 1640ZM4578.15 987.032 4666.15 987.032 4666.15 1640 4578.15 1640Z" fill="#A6A6A6"/></g><g clip-path="url(#clip5)"><path d="M2547.58 1624.5 2547.58 1622.5M2536.5 1622.5 2557.5 1622.5" stroke="#595959" stroke-width="3.4375" stroke-linejoin="round" stroke-miterlimit="10" fill="none"/></g><g clip-path="url(#clip6)"><path d="M2939.6 1617.5 2939.6 1613.5M2929.5 1613.5 2950.5 1613.5" stroke="#595959" stroke-width="3.4375" stroke-linejoin="round" stroke-miterlimit="10" fill="none"/></g><g clip-path="url(#clip7)"><path d="M3332.61 1600.5 3332.61 1595.5M3322.5 1595.5 3342.5 1595.5" stroke="#595959" stroke-width="3.4375" stroke-linejoin="round" stroke-miterlimit="10" fill="none"/></g><g clip-path="url(#clip8)"><path d="M3724.62 1571.5 3724.62 1564.5M3714.5 1564.5 3735.5 1564.5" stroke="#595959" stroke-width="3.4375" stroke-linejoin="round" stroke-miterlimit="10" fill="none"/></g><g clip-path="url(#clip9)"><path d="M4117.64 1509.5 4117.64 1494.5M4107.5 1494.5 4127.5 1494.5" stroke="#595959" stroke-width="3.4375" stroke-linejoin="round" stroke-miterlimit="10" fill="none"/></g><g clip-path="url(#clip10)"><path d="M4509.65 1319.5 4509.65 1291.5M4499.5 1291.5 4520.5 1291.5" stroke="#595959" stroke-width="3.4375" stroke-linejoin="round" stroke-miterlimit="10" fill="none"/></g><g clip-path="url(#clip11)"><path d="M2658.59 1258.5 2658.59 1237.5M2648.5 1237.5 2669.5 1237.5" stroke="#595959" stroke-width="3.4375" stroke-linejoin="round" stroke-miterlimit="10" fill="none"/></g><g clip-path="url(#clip12)"><path d="M3051.6 1247.5 3051.6 1227.5M3041.5 1227.5 3061.5 1227.5" stroke="#595959" stroke-width="3.4375" stroke-linejoin="round" stroke-miterlimit="10" fill="none"/></g><g clip-path="url(#clip13)"><path d="M3443.61 1232.5 3443.61 1212.5M3433.5 1212.5 3454.5 1212.5" stroke="#595959" stroke-width="3.4375" stroke-linejoin="round" stroke-miterlimit="10" fill="none"/></g><g clip-path="url(#clip14)"><path d="M3836.63 1160.5 3836.63 1120.5M3826.5 1120.5 3846.5 1120.5" stroke="#595959" stroke-width="3.4375" stroke-linejoin="round" stroke-miterlimit="10" fill="none"/></g><g clip-path="url(#clip15)"><path d="M4229.64 1108.5 4229.64 1042.5M4218.5 1042.5 4239.5 1042.5" stroke="#595959" stroke-width="3.4375" stroke-linejoin="round" stroke-miterlimit="10" fill="none"/></g><g clip-path="url(#clip16)"><path d="M4621.65 987.5 4621.65 899.5M4611.5 899.5 4632.5 899.5" stroke="#595959" stroke-width="3.4375" stroke-linejoin="round" stroke-miterlimit="10" fill="none"/></g><g clip-path="url(#clip17)"><path d="M2406.5 1639.5 4762.5 1639.5" stroke="#D9D9D9" stroke-width="3.4375" stroke-linejoin="round" stroke-miterlimit="10" fill="none" fill-rule="evenodd"/></g><g clip-path="url(#clip18)"><text font-family="LM Roman 10,LM Roman 10_MSFontService,sans-serif" font-weight="700" font-size="55" transform="matrix(1 0 0 1 2315.23 1656)">0</text></g><g clip-path="url(#clip19)"><text font-family="LM Roman 10,LM Roman 10_MSFontService,sans-serif" font-weight="700" font-size="55" transform="matrix(1 0 0 1 2283.6 1575)">50</text></g><g clip-path="url(#clip20)"><text font-family="LM Roman 10,LM Roman 10_MSFontService,sans-serif" font-weight="700" font-size="55" transform="matrix(1 0 0 1 2251.98 1493)">100</text></g><g clip-path="url(#clip21)"><text font-family="LM Roman 10,LM Roman 10_MSFontService,sans-serif" font-weight="700" font-size="55" transform="matrix(1 0 0 1 2251.98 1412)">150</text></g><g clip-path="url(#clip22)"><text font-family="LM Roman 10,LM Roman 10_MSFontService,sans-serif" font-weight="700" font-size="55" transform="matrix(1 0 0 1 2251.98 1331)">200</text></g><g clip-path="url(#clip23)"><text font-family="LM Roman 10,LM Roman 10_MSFontService,sans-serif" font-weight="700" font-size="55" transform="matrix(1 0 0 1 2251.98 1249)">250</text></g><g clip-path="url(#clip24)"><text font-family="LM Roman 10,LM Roman 10_MSFontService,sans-serif" font-weight="700" font-size="55" transform="matrix(1 0 0 1 2251.98 1168)">300</text></g><g clip-path="url(#clip25)"><text font-family="LM Roman 10,LM Roman 10_MSFontService,sans-serif" font-weight="700" font-size="55" transform="matrix(1 0 0 1 2251.98 1086)">350</text></g><g clip-path="url(#clip26)"><text font-family="LM Roman 10,LM Roman 10_MSFontService,sans-serif" font-weight="700" font-size="55" transform="matrix(1 0 0 1 2251.98 1005)">400</text></g><g clip-path="url(#clip27)"><text font-family="LM Roman 10,LM Roman 10_MSFontService,sans-serif" font-weight="700" font-size="55" transform="matrix(1 0 0 1 2251.98 923)">450</text></g><g clip-path="url(#clip28)"><text font-family="LM Roman 10,LM Roman 10_MSFontService,sans-serif" font-weight="700" font-size="55" transform="matrix(1 0 0 1 2251.98 842)">500</text></g><g clip-path="url(#clip29)"><text font-family="LM Roman 10,LM Roman 10_MSFontService,sans-serif" font-weight="700" font-size="55" transform="matrix(1 0 0 1 2555.72 1743)">100</text></g><g clip-path="url(#clip30)"><text font-family="LM Roman 10,LM Roman 10_MSFontService,sans-serif" font-weight="700" font-size="55" transform="matrix(1 0 0 1 2948.25 1743)">200</text></g><g clip-path="url(#clip31)"><text font-family="LM Roman 10,LM Roman 10_MSFontService,sans-serif" font-weight="700" font-size="55" transform="matrix(1 0 0 1 3340.78 1743)">500</text></g><g clip-path="url(#clip32)"><text font-family="LM Roman 10,LM Roman 10_MSFontService,sans-serif" font-weight="700" font-size="55" transform="matrix(1 0 0 1 3717.5 1743)">1000</text></g><g clip-path="url(#clip33)"><text font-family="LM Roman 10,LM Roman 10_MSFontService,sans-serif" font-weight="700" font-size="55" transform="matrix(1 0 0 1 4110.03 1743)">2000</text></g><g clip-path="url(#clip34)"><text font-family="LM Roman 10,LM Roman 10_MSFontService,sans-serif" font-weight="700" font-size="55" transform="matrix(1 0 0 1 4502.57 1743)">5000</text></g><g clip-path="url(#clip35)"><text font-family="LM Roman 10,LM Roman 10_MSFontService,sans-serif" font-weight="400" font-size="64" transform="matrix(6.12323e-17 -1 1 6.12323e-17 2182.63 1563)">Czas odpowiedzi (ms)</text></g><g clip-path="url(#clip36)"><text font-family="LM Roman 10,LM Roman 10_MSFontService,sans-serif" font-weight="400" font-size="64" transform="matrix(1 0 0 1 2960.84 1873)">Liczba pozyskiwanych encji bazodanowych</text></g><g clip-path="url(#clip37)"><text font-family="LM Roman 10,LM Roman 10_MSFontService,sans-serif" font-weight="400" font-size="73" transform="matrix(1 0 0 1 2442.94 631)">Uśredniony czas realizacji operacji asynchronicznych względem </text></g><g clip-path="url(#clip38)"><text font-family="LM Roman 10,LM Roman 10_MSFontService,sans-serif" font-weight="400" font-size="73" transform="matrix(1 0 0 1 2929.6 735)">zminnej liczby pobieranych encji</text></g><g clip-path="url(#clip39)"><rect x="2425.5" y="849.5" width="611" height="187" stroke="#D9D9D9" stroke-width="3.4375" stroke-linejoin="round" stroke-miterlimit="10" fill="#FFFFFF"/></g><g clip-path="url(#clip40)"><rect x="2459" y="879" width="35" height="35.0001" fill="#D9D9D9"/></g><g clip-path="url(#clip41)"><text fill="#595959" font-family="LM Roman 10,LM Roman 10_MSFontService,sans-serif" font-weight="400" font-size="55" transform="matrix(1 0 0 1 2509.55 914)">JavaScript \ NodeJS</text></g><g clip-path="url(#clip42)"><rect x="2459" y="972" width="35" height="34.9997" fill="#A6A6A6"/></g><g clip-path="url(#clip43)"><text fill="#595959" font-family="LM Roman 10,LM Roman 10_MSFontService,sans-serif" font-weight="400" font-size="55" transform="matrix(1 0 0 1 2509.55 1007)">C# \ .NET</text></g></g></svg>