<svg width="3483" height="1702" xmlns="http://www.w3.org/2000/svg" xmlns:xlink="http://www.w3.org/1999/xlink" xml:space="preserve" overflow="hidden"><defs><clipPath id="clip0"><rect x="2835" y="268" width="3483" height="1702"/></clipPath><clipPath id="clip1"><rect x="2835" y="268" width="3482" height="1701"/></clipPath><clipPath id="clip2"><rect x="2835" y="268" width="3482" height="1701"/></clipPath><clipPath id="clip3"><rect x="3303" y="502" width="2724" height="1003"/></clipPath><clipPath id="clip4"><rect x="3303" y="502" width="2724" height="1003"/></clipPath><clipPath id="clip5"><rect x="2835" y="268" width="3482" height="1701"/></clipPath><clipPath id="clip6"><rect x="2835" y="268" width="3482" height="1701"/></clipPath><clipPath id="clip7"><rect x="2835" y="268" width="3482" height="1701"/></clipPath><clipPath id="clip8"><rect x="2835" y="268" width="3482" height="1701"/></clipPath><clipPath id="clip9"><rect x="3303" y="502" width="2724" height="1003"/></clipPath><clipPath id="clip10"><rect x="3303" y="502" width="2724" height="1003"/></clipPath><clipPath id="clip11"><rect x="2835" y="268" width="3482" height="1701"/></clipPath><clipPath id="clip12"><rect x="2835" y="268" width="3482" height="1701"/></clipPath><clipPath id="clip13"><rect x="2835" y="268" width="3482" height="1701"/></clipPath><clipPath id="clip14"><rect x="2835" y="268" width="3482" height="1701"/></clipPath><clipPath id="clip15"><rect x="2835" y="268" width="3482" height="1701"/></clipPath><clipPath id="clip16"><rect x="2835" y="268" width="3482" height="1701"/></clipPath><clipPath id="clip17"><rect x="2835" y="268" width="3482" height="1701"/></clipPath><clipPath id="clip18"><rect x="2835" y="268" width="3482" height="1701"/></clipPath><clipPath id="clip19"><rect x="2835" y="268" width="3482" height="1701"/></clipPath><clipPath id="clip20"><rect x="2835" y="268" width="3482" height="1701"/></clipPath><clipPath id="clip21"><rect x="2835" y="268" width="3482" height="1701"/></clipPath><clipPath id="clip22"><rect x="2835" y="268" width="3482" height="1701"/></clipPath><clipPath id="clip23"><rect x="2835" y="268" width="3482" height="1701"/></clipPath><clipPath id="clip24"><rect x="2835" y="268" width="3482" height="1701"/></clipPath><clipPath id="clip25"><rect x="2835" y="268" width="3482" height="1701"/></clipPath><clipPath id="clip26"><rect x="2835" y="268" width="3482" height="1701"/></clipPath><clipPath id="clip27"><rect x="2835" y="268" width="3482" height="1701"/></clipPath><clipPath id="clip28"><rect x="2835" y="268" width="3482" height="1701"/></clipPath><clipPath id="clip29"><rect x="2835" y="268" width="3482" height="1701"/></clipPath><clipPath id="clip30"><rect x="2835" y="268" width="3482" height="1701"/></clipPath><clipPath id="clip31"><rect x="2835" y="268" width="3482" height="1701"/></clipPath><clipPath id="clip32"><rect x="2835" y="268" width="3482" height="1701"/></clipPath><clipPath id="clip33"><rect x="2835" y="268" width="3482" height="1701"/></clipPath><clipPath id="clip34"><rect x="2835" y="268" width="3482" height="1701"/></clipPath><clipPath id="clip35"><rect x="2835" y="268" width="3482" height="1701"/></clipPath><clipPath id="clip36"><rect x="2835" y="268" width="3482" height="1701"/></clipPath><clipPath id="clip37"><rect x="2835" y="268" width="3482" height="1701"/></clipPath><clipPath id="clip38"><rect x="2835" y="268" width="3482" height="1701"/></clipPath><clipPath id="clip39"><rect x="2835" y="268" width="3482" height="1701"/></clipPath><clipPath id="clip40"><rect x="2835" y="268" width="3482" height="1701"/></clipPath><clipPath id="clip41"><rect x="2835" y="268" width="3482" height="1701"/></clipPath><clipPath id="clip42"><rect x="2835" y="268" width="3482" height="1701"/></clipPath><clipPath id="clip43"><rect x="2835" y="268" width="3482" height="1701"/></clipPath><clipPath id="clip44"><rect x="2835" y="268" width="3482" height="1701"/></clipPath><clipPath id="clip45"><rect x="2835" y="268" width="3482" height="1701"/></clipPath><clipPath id="clip46"><rect x="2835" y="268" width="3482" height="1701"/></clipPath><clipPath id="clip47"><rect x="2835" y="268" width="3482" height="1701"/></clipPath><clipPath id="clip48"><rect x="2835" y="268" width="3482" height="1701"/></clipPath><clipPath id="clip49"><rect x="2835" y="268" width="3482" height="1701"/></clipPath><clipPath id="clip50"><rect x="2835" y="268" width="3482" height="1701"/></clipPath><clipPath id="clip51"><rect x="2835" y="268" width="3482" height="1701"/></clipPath><clipPath id="clip52"><rect x="2835" y="268" width="3482" height="1701"/></clipPath><clipPath id="clip53"><rect x="2835" y="268" width="3482" height="1701"/></clipPath><clipPath id="clip54"><rect x="2835" y="268" width="3482" height="1701"/></clipPath></defs><g clip-path="url(#clip0)" transform="translate(-2835 -268)"><rect x="2836" y="268" width="3482" height="1702" fill="#FFFFFF"/><g clip-path="url(#clip1)"><path d="M3303.5 1335.54 6024.5 1335.54M3303.5 1168.54 6024.5 1168.54M3303.5 1002.53 6024.5 1002.53M3303.5 835.528 6024.5 835.528M3303.5 669.522 6024.5 669.522M3303.5 502.5 6024.5 502.5" stroke="#D9D9D9" stroke-width="3.4375" stroke-linejoin="round" stroke-miterlimit="10" fill="none"/></g><g clip-path="url(#clip2)"><path d="M3348.61 502.5 3348.61 1501.5M3394.61 502.5 3394.61 1501.5M3439.61 502.5 3439.61 1501.5M3484.61 502.5 3484.61 1501.5M3530.62 502.5 3530.62 1501.5M3575.62 502.5 3575.62 1501.5M3620.62 502.5 3620.62 1501.5M3666.62 502.5 3666.62 1501.5M3711.62 502.5 3711.62 1501.5M3756.62 502.5 3756.62 1501.5M3802.62 502.5 3802.62 1501.5M3847.63 502.5 3847.63 1501.5M3892.63 502.5 3892.63 1501.5M3938.63 502.5 3938.63 1501.5M3983.63 502.5 3983.63 1501.5M4028.63 502.5 4028.63 1501.5M4074.63 502.5 4074.63 1501.5M4119.64 502.5 4119.64 1501.5M4165.64 502.5 4165.64 1501.5M4210.64 502.5 4210.64 1501.5M4255.64 502.5 4255.64 1501.5M4301.64 502.5 4301.64 1501.5M4346.64 502.5 4346.64 1501.5M4391.64 502.5 4391.64 1501.5M4437.65 502.5 4437.65 1501.5M4482.65 502.5 4482.65 1501.5M4527.65 502.5 4527.65 1501.5M4573.65 502.5 4573.65 1501.5M4618.65 502.5 4618.65 1501.5M4663.65 502.5 4663.65 1501.5M4709.65 502.5 4709.65 1501.5M4754.66 502.5 4754.66 1501.5M4799.66 502.5 4799.66 1501.5M4845.66 502.5 4845.66 1501.5M4890.66 502.5 4890.66 1501.5M4935.66 502.5 4935.66 1501.5M4981.66 502.5 4981.66 1501.5M5026.67 502.5 5026.67 1501.5M5071.67 502.5 5071.67 1501.5M5117.67 502.5 5117.67 1501.5M5162.67 502.5 5162.67 1501.5M5207.67 502.5 5207.67 1501.5M5253.67 502.5 5253.67 1501.5M5298.67 502.5 5298.67 1501.5M5343.68 502.5 5343.68 1501.5M5389.68 502.5 5389.68 1501.5M5434.68 502.5 5434.68 1501.5M5479.68 502.5 5479.68 1501.5M5525.68 502.5 5525.68 1501.5M5570.68 502.5 5570.68 1501.5M5615.68 502.5 5615.68 1501.5M5661.69 502.5 5661.69 1501.5M5706.69 502.5 5706.69 1501.5M5751.69 502.5 5751.69 1501.5M5797.69 502.5 5797.69 1501.5M5842.69 502.5 5842.69 1501.5M5887.69 502.5 5887.69 1501.5M5933.69 502.5 5933.69 1501.5M5978.7 502.5 5978.7 1501.5M6024.5 502.5 6024.5 1501.5" stroke="#D9D9D9" stroke-width="3.4375" stroke-linejoin="round" stroke-miterlimit="10" fill="none"/></g><g clip-path="url(#clip3)"><path d="M4904.16 1485.05 4922.16 1485.05 4922.16 1502 4904.16 1502ZM4949.16 1469.05 4967.16 1469.05 4967.16 1502 4949.16 1502ZM4995.16 1469.05 5013.16 1469.05 5013.16 1502 4995.16 1502ZM5040.17 1435.05 5058.17 1435.05 5058.17 1502 5040.17 1502ZM5085.17 1402.05 5103.17 1402.05 5103.17 1502 5085.17 1502ZM5131.17 1369.04 5149.17 1369.04 5149.17 1502 5131.17 1502ZM5176.17 1352.04 5194.17 1352.04 5194.17 1502 5176.17 1502ZM5221.17 1335.04 5240.17 1335.04 5240.17 1502 5221.17 1502ZM5267.17 1319.04 5285.17 1319.04 5285.17 1502 5267.17 1502ZM5312.17 1302.04 5330.17 1302.04 5330.17 1502 5312.17 1502ZM5357.18 1219.04 5376.18 1219.04 5376.18 1502 5357.18 1502ZM5403.18 1285.04 5421.18 1285.04 5421.18 1502 5403.18 1502ZM5448.18 1269.04 5466.18 1269.04 5466.18 1502 5448.18 1502ZM5493.18 1235.04 5512.18 1235.04 5512.18 1502 5493.18 1502ZM5539.18 1219.04 5557.18 1219.04 5557.18 1502 5539.18 1502ZM5584.18 1185.04 5602.18 1185.04 5602.18 1502 5584.18 1502ZM5629.18 1102.04 5648.19 1102.04 5648.19 1502 5629.18 1502ZM5675.19 1185.04 5693.19 1185.04 5693.19 1502 5675.19 1502ZM5720.19 1135.04 5738.19 1135.04 5738.19 1502 5720.19 1502ZM5765.19 1185.04 5784.19 1185.04 5784.19 1502 5765.19 1502ZM5811.19 1119.04 5829.19 1119.04 5829.19 1502 5811.19 1502ZM5856.19 1085.04 5874.19 1085.04 5874.19 1502 5856.19 1502ZM5901.19 1069.04 5920.19 1069.04 5920.19 1502 5901.19 1502ZM5947.2 1069.04 5965.2 1069.04 5965.2 1502 5947.2 1502ZM5992.2 1035.03 6010.2 1035.03 6010.2 1502 5992.2 1502Z" fill="#A6A6A6"/></g><g clip-path="url(#clip4)"><path d="M4451.15 1485.05 4469.15 1485.05 4469.15 1502 4451.15 1502ZM4496.15 1469.05 4514.15 1469.05 4514.15 1502 4496.15 1502ZM4541.15 1469.05 4559.15 1469.05 4559.15 1502 4541.15 1502ZM4587.15 1402.05 4605.15 1402.05 4605.15 1502 4587.15 1502ZM4632.15 1419.05 4650.15 1419.05 4650.15 1502 4632.15 1502ZM4677.15 1385.05 4695.15 1385.05 4695.15 1502 4677.15 1502ZM4723.16 1369.04 4741.16 1369.04 4741.16 1502 4723.16 1502ZM4768.16 1352.04 4786.16 1352.04 4786.16 1502 4768.16 1502ZM4813.16 1335.04 4831.16 1335.04 4831.16 1502 4813.16 1502ZM4859.16 1302.04 4877.16 1302.04 4877.16 1502 4859.16 1502ZM4904.16 1285.04 4922.16 1285.04 4922.16 1485.05 4904.16 1485.05ZM4949.16 1269.04 4967.16 1269.04 4967.16 1469.05 4949.16 1469.05ZM4995.16 1335.04 5013.16 1335.04 5013.16 1469.05 4995.16 1469.05ZM5040.17 1269.04 5058.17 1269.04 5058.17 1435.05 5040.17 1435.05ZM5085.17 1219.04 5103.17 1219.04 5103.17 1402.05 5085.17 1402.05ZM5131.17 1219.04 5149.17 1219.04 5149.17 1369.04 5131.17 1369.04ZM5176.17 1185.04 5194.17 1185.04 5194.17 1352.04 5176.17 1352.04ZM5221.17 1102.04 5240.17 1102.04 5240.17 1335.04 5221.17 1335.04ZM5267.17 1135.04 5285.17 1135.04 5285.17 1319.04 5267.17 1319.04ZM5312.17 1085.04 5330.17 1085.04 5330.17 1302.04 5312.17 1302.04ZM5357.18 1069.04 5376.18 1069.04 5376.18 1219.04 5357.18 1219.04ZM5403.18 1019.03 5421.18 1019.03 5421.18 1285.04 5403.18 1285.04ZM5448.18 1019.03 5466.18 1019.03 5466.18 1269.04 5448.18 1269.04ZM5493.18 969.032 5512.18 969.032 5512.18 1235.04 5493.18 1235.04ZM5539.18 919.03 5557.18 919.03 5557.18 1219.04 5539.18 1219.04ZM5584.18 869.029 5602.18 869.029 5602.18 1185.04 5584.18 1185.04ZM5629.18 936.031 5648.19 936.031 5648.19 1102.04 5629.18 1102.04ZM5675.19 952.031 5693.19 952.031 5693.19 1185.04 5675.19 1185.04ZM5720.19 802.026 5738.19 802.026 5738.19 1135.04 5720.19 1135.04ZM5765.19 802.026 5784.19 802.026 5784.19 1185.04 5765.19 1185.04ZM5811.19 719.024 5829.19 719.024 5829.19 1119.04 5811.19 1119.04ZM5856.19 786.026 5874.19 786.026 5874.19 1085.04 5856.19 1085.04ZM5901.19 786.026 5920.19 786.026 5920.19 1069.04 5901.19 1069.04ZM5947.2 736.024 5965.2 736.024 5965.2 1069.04 5947.2 1069.04ZM5992.2 702.023 6010.2 702.023 6010.2 1035.03 5992.2 1035.03Z" fill="#D9D9D9"/></g><g clip-path="url(#clip5)"><path d="M0 0 0.000360892 999" stroke="#BFBFBF" stroke-width="3.4375" stroke-linejoin="round" stroke-miterlimit="10" fill="none" fill-rule="evenodd" transform="matrix(1 0 0 -1 6024.5 1501.5)"/></g><g clip-path="url(#clip6)"><path d="M6024.5 1501.5 6055.5 1501.5M6024.5 1335.54 6055.5 1335.54M6024.5 1168.54 6055.5 1168.54M6024.5 1002.53 6055.5 1002.53M6024.5 835.528 6055.5 835.528M6024.5 669.522 6055.5 669.522M6024.5 502.5 6055.5 502.5" stroke="#BFBFBF" stroke-width="3.4375" stroke-linejoin="round" stroke-miterlimit="10" fill="none"/></g><g clip-path="url(#clip7)"><path d="M0 0 0.000360892 999" stroke="#BFBFBF" stroke-width="3.4375" stroke-linejoin="round" stroke-miterlimit="10" fill="none" fill-rule="evenodd" transform="matrix(1 0 0 -1 3303.5 1501.5)"/></g><g clip-path="url(#clip8)"><path d="M3303.5 1501.5 6024.5 1501.5" stroke="#BFBFBF" stroke-width="3.4375" stroke-linejoin="round" stroke-miterlimit="10" fill="none" fill-rule="evenodd"/></g><g clip-path="url(#clip9)"><path d="M3326.5 1484.5 3371.61 1480.55 3416.61 1473.55 3462.61 1468.55 3507.62 1464.55 3552.62 1461.55 3598.62 1461.55 3643.62 1455.55 3688.62 1445.55 3734.62 1444.55 3779.62 1425.55 3824.63 1409.55 3870.63 1339.54 3915.63 1312.54 3960.63 1282.54 4006.63 1280.54 4051.63 1269.54 4096.63 1269.54 4142.64 1240.54 4187.64 1229.54 4233.64 1215.54 4278.64 1197.54 4323.64 1191.54 4369.64 1169.54 4414.65 1167.54 4459.65 1159.54 4505.65 1152.54 4550.65 1142.54 4595.65 1140.54 4641.65 1120.54 4686.65 1119.54 4731.66 1118.54 4777.66 1118.54 4822.66 1111.54 4867.66 1105.54 4913.66 1103.54 4958.66 1071.54 5003.66 1071.54 5049.67 1043.53 5094.67 1035.53 5139.67 1026.53 5185.67 1017.53 5230.67 1012.53 5275.67 1012.53 5321.67 1010.53 5366.68 999.533 5411.68 963.532 5457.68 957.532 5502.68 947.531 5547.68 933.531 5593.68 922.53 5638.69 868.529 5683.69 813.527 5729.69 652.522 5774.69 573.519 5819.69 571.519 5865.69 570.519 5910.69 569.519 5955.7 552.518 6001.5 551.5" stroke="#4472C4" stroke-width="6.875" stroke-linecap="round" stroke-linejoin="round" stroke-miterlimit="10" fill="none"/></g><g clip-path="url(#clip10)"><path d="M3326.5 1490.5 3371.61 1480.55 3416.61 1467.55 3462.61 1446.55 3507.62 1446.55 3552.62 1444.55 3598.62 1436.55 3643.62 1407.55 3688.62 1366.54 3734.62 1365.54 3779.62 1359.54 3824.63 1336.54 3870.63 1327.54 3915.63 1321.54 3960.63 1316.54 4006.63 1296.54 4051.63 1291.54 4096.63 1291.54 4142.64 1286.54 4187.64 1261.54 4233.64 1244.54 4278.64 1243.54 4323.64 1233.54 4369.64 1224.54 4414.65 1223.54 4459.65 1217.54 4505.65 1212.54 4550.65 1203.54 4595.65 1200.54 4641.65 1186.54 4686.65 1162.54 4731.66 1111.54 4777.66 1109.54 4822.66 1091.54 4867.66 1116.54 4913.66 1099.54 4958.66 1071.54 5003.66 1081.54 5049.67 1080.54 5094.67 1070.54 5139.67 1087.54 5185.67 1093.54 5230.67 1092.54 5275.67 1091.54 5321.67 1084.54 5366.68 1083.54 5411.68 1082.54 5457.68 1074.54 5502.68 1069.54 5547.68 1051.53 5593.68 1012.53 5638.69 1000.53 5683.69 977.532 5729.69 939.531 5774.69 933.531 5819.69 924.531 5865.69 911.53 5910.69 904.53 5955.7 891.529 6001.5 830.5" stroke="#ED7D31" stroke-width="6.875" stroke-linecap="round" stroke-linejoin="round" stroke-miterlimit="10" fill="none"/></g><g clip-path="url(#clip11)"><text font-family="LM Roman 10,LM Roman 10_MSFontService,sans-serif" font-weight="700" font-size="83" transform="matrix(1 0 0 1 6114.12 1527)">0%</text></g><g clip-path="url(#clip12)"><text font-family="LM Roman 10,LM Roman 10_MSFontService,sans-serif" font-weight="700" font-size="83" transform="matrix(1 0 0 1 6114.12 1361)">10%</text></g><g clip-path="url(#clip13)"><text font-family="LM Roman 10,LM Roman 10_MSFontService,sans-serif" font-weight="700" font-size="83" transform="matrix(1 0 0 1 6114.12 1194)">20%</text></g><g clip-path="url(#clip14)"><text font-family="LM Roman 10,LM Roman 10_MSFontService,sans-serif" font-weight="700" font-size="83" transform="matrix(1 0 0 1 6114.12 1027)">30%</text></g><g clip-path="url(#clip15)"><text font-family="LM Roman 10,LM Roman 10_MSFontService,sans-serif" font-weight="700" font-size="83" transform="matrix(1 0 0 1 6114.12 861)">40%</text></g><g clip-path="url(#clip16)"><text font-family="LM Roman 10,LM Roman 10_MSFontService,sans-serif" font-weight="700" font-size="83" transform="matrix(1 0 0 1 6114.12 694)">50%</text></g><g clip-path="url(#clip17)"><text font-family="LM Roman 10,LM Roman 10_MSFontService,sans-serif" font-weight="700" font-size="83" transform="matrix(1 0 0 1 6114.12 528)">60%</text></g><g clip-path="url(#clip18)"><text font-family="LM Roman 10,LM Roman 10_MSFontService,sans-serif" font-weight="700" font-size="83" transform="matrix(1 0 0 1 3166.19 1527)">0</text></g><g clip-path="url(#clip19)"><text font-family="LM Roman 10,LM Roman 10_MSFontService,sans-serif" font-weight="700" font-size="83" transform="matrix(1 0 0 1 3023.88 1361)">1000</text></g><g clip-path="url(#clip20)"><text font-family="LM Roman 10,LM Roman 10_MSFontService,sans-serif" font-weight="700" font-size="83" transform="matrix(1 0 0 1 3023.88 1194)">2000</text></g><g clip-path="url(#clip21)"><text font-family="LM Roman 10,LM Roman 10_MSFontService,sans-serif" font-weight="700" font-size="83" transform="matrix(1 0 0 1 3023.88 1027)">3000</text></g><g clip-path="url(#clip22)"><text font-family="LM Roman 10,LM Roman 10_MSFontService,sans-serif" font-weight="700" font-size="83" transform="matrix(1 0 0 1 3023.88 861)">4000</text></g><g clip-path="url(#clip23)"><text font-family="LM Roman 10,LM Roman 10_MSFontService,sans-serif" font-weight="700" font-size="83" transform="matrix(1 0 0 1 3023.88 694)">5000</text></g><g clip-path="url(#clip24)"><text font-family="LM Roman 10,LM Roman 10_MSFontService,sans-serif" font-weight="700" font-size="83" transform="matrix(1 0 0 1 3023.88 528)">6000</text></g><g clip-path="url(#clip25)"><text font-family="LM Roman 10,LM Roman 10_MSFontService,sans-serif" font-weight="700" font-size="83" transform="matrix(0.707107 -0.707107 0.707107 0.707107 3283.38 1697)">10</text></g><g clip-path="url(#clip26)"><text font-family="LM Roman 10,LM Roman 10_MSFontService,sans-serif" font-weight="700" font-size="83" transform="matrix(0.707107 -0.707107 0.707107 0.707107 3431.2 1731)">340</text></g><g clip-path="url(#clip27)"><text font-family="LM Roman 10,LM Roman 10_MSFontService,sans-serif" font-weight="700" font-size="83" transform="matrix(0.707107 -0.707107 0.707107 0.707107 3612.55 1731)">680</text></g><g clip-path="url(#clip28)"><text font-family="LM Roman 10,LM Roman 10_MSFontService,sans-serif" font-weight="700" font-size="83" transform="matrix(0.707107 -0.707107 0.707107 0.707107 3760.37 1764)">1020</text></g><g clip-path="url(#clip29)"><text font-family="LM Roman 10,LM Roman 10_MSFontService,sans-serif" font-weight="700" font-size="83" transform="matrix(0.707107 -0.707107 0.707107 0.707107 3941.73 1764)">1360</text></g><g clip-path="url(#clip30)"><text font-family="LM Roman 10,LM Roman 10_MSFontService,sans-serif" font-weight="700" font-size="83" transform="matrix(0.707107 -0.707107 0.707107 0.707107 4123.08 1764)">1700</text></g><g clip-path="url(#clip31)"><text font-family="LM Roman 10,LM Roman 10_MSFontService,sans-serif" font-weight="700" font-size="83" transform="matrix(0.707107 -0.707107 0.707107 0.707107 4304.44 1764)">2040</text></g><g clip-path="url(#clip32)"><text font-family="LM Roman 10,LM Roman 10_MSFontService,sans-serif" font-weight="700" font-size="83" transform="matrix(0.707107 -0.707107 0.707107 0.707107 4485.8 1764)">2380</text></g><g clip-path="url(#clip33)"><text font-family="LM Roman 10,LM Roman 10_MSFontService,sans-serif" font-weight="700" font-size="83" transform="matrix(0.707107 -0.707107 0.707107 0.707107 4667.16 1764)">2720</text></g><g clip-path="url(#clip34)"><text font-family="LM Roman 10,LM Roman 10_MSFontService,sans-serif" font-weight="700" font-size="83" transform="matrix(0.707107 -0.707107 0.707107 0.707107 4848.51 1764)">3060</text></g><g clip-path="url(#clip35)"><text font-family="LM Roman 10,LM Roman 10_MSFontService,sans-serif" font-weight="700" font-size="83" transform="matrix(0.707107 -0.707107 0.707107 0.707107 5029.87 1764)">3400</text></g><g clip-path="url(#clip36)"><text font-family="LM Roman 10,LM Roman 10_MSFontService,sans-serif" font-weight="700" font-size="83" transform="matrix(0.707107 -0.707107 0.707107 0.707107 5211.23 1764)">3740</text></g><g clip-path="url(#clip37)"><text font-family="LM Roman 10,LM Roman 10_MSFontService,sans-serif" font-weight="700" font-size="83" transform="matrix(0.707107 -0.707107 0.707107 0.707107 5392.58 1764)">4080</text></g><g clip-path="url(#clip38)"><text font-family="LM Roman 10,LM Roman 10_MSFontService,sans-serif" font-weight="700" font-size="83" transform="matrix(0.707107 -0.707107 0.707107 0.707107 5573.94 1764)">4420</text></g><g clip-path="url(#clip39)"><text font-family="LM Roman 10,LM Roman 10_MSFontService,sans-serif" font-weight="700" font-size="83" transform="matrix(0.707107 -0.707107 0.707107 0.707107 5755.3 1764)">4760</text></g><g clip-path="url(#clip40)"><text font-family="LM Roman 10,LM Roman 10_MSFontService,sans-serif" font-weight="400" font-size="83" transform="matrix(6.12323e-17 -1 1 6.12323e-17 2941.21 1558)">Średni czas odpowiedzi (ms)</text></g><g clip-path="url(#clip41)"><text font-family="LM Roman 10,LM Roman 10_MSFontService,sans-serif" font-weight="400" font-size="83" transform="matrix(1 0 0 1 3882.38 1939)">Liczba współbieżnie działających wątków</text></g><g clip-path="url(#clip42)"><text font-family="LM Roman 10,LM Roman 10_MSFontService,sans-serif" font-weight="700" font-size="78" transform="matrix(1 0 0 1 3292.91 398)">Interfejs API: </text></g><g clip-path="url(#clip43)"><text font-family="LM Roman 10,LM Roman 10_MSFontService,sans-serif" font-weight="400" font-size="78" transform="matrix(1 0 0 1 3865.6 398)">C# .NET API</text></g><g clip-path="url(#clip44)"><text font-family="LM Roman 10,LM Roman 10_MSFontService,sans-serif" font-weight="700" font-size="78" transform="matrix(1 0 0 1 4367.65 398)">. Punkt końcowy: </text></g><g clip-path="url(#clip45)"><text font-family="LM Roman 10,LM Roman 10_MSFontService,sans-serif" font-weight="400" font-size="78" transform="matrix(1 0 0 1 5083.41 398)">POST /API/PRODUCTS</text></g><g clip-path="url(#clip46)"><rect x="3326.5" y="526.5" width="1484" height="401" stroke="#BFBFBF" stroke-width="3.4375" stroke-linejoin="round" stroke-miterlimit="10" fill="#FFFFFF"/></g><g clip-path="url(#clip47)"><rect x="3358" y="555" width="88" height="44" fill="#D9D9D9"/></g><g clip-path="url(#clip48)"><text font-family="LM Roman 10,LM Roman 10_MSFontService,sans-serif" font-weight="400" font-size="69" transform="matrix(1 0 0 1 3455.28 598)">Procent niepoprawnych odpowiedzi</text></g><g clip-path="url(#clip49)"><rect x="3358" y="655" width="88" height="44" fill="#A6A6A6"/></g><g clip-path="url(#clip50)"><text font-family="LM Roman 10,LM Roman 10_MSFontService,sans-serif" font-weight="400" font-size="69" transform="matrix(1 0 0 1 3455.28 698)">Procent niepoprawnych odpowiedzi - CQRS</text></g><g clip-path="url(#clip51)"><path d="M3358.5 777.5 3446.5 777.5" stroke="#4472C4" stroke-width="6.875" stroke-linecap="round" stroke-linejoin="round" stroke-miterlimit="10" fill="none" fill-rule="evenodd"/></g><g clip-path="url(#clip52)"><text font-family="LM Roman 10,LM Roman 10_MSFontService,sans-serif" font-weight="400" font-size="69" transform="matrix(1 0 0 1 3455.28 799)">SQL Server</text></g><g clip-path="url(#clip53)"><path d="M3358.5 877.5 3446.5 877.5" stroke="#ED7D31" stroke-width="6.875" stroke-linecap="round" stroke-linejoin="round" stroke-miterlimit="10" fill="none" fill-rule="evenodd"/></g><g clip-path="url(#clip54)"><text font-family="LM Roman 10,LM Roman 10_MSFontService,sans-serif" font-weight="400" font-size="69" transform="matrix(1 0 0 1 3455.28 899)">SQL Server - CQRS</text></g></g></svg>