<svg width="2883" height="1363" xmlns="http://www.w3.org/2000/svg" xmlns:xlink="http://www.w3.org/1999/xlink" xml:space="preserve" overflow="hidden"><defs><clipPath id="clip0"><rect x="5438" y="1581" width="2883" height="1363"/></clipPath><clipPath id="clip1"><rect x="5438" y="1581" width="2882" height="1363"/></clipPath><clipPath id="clip2"><rect x="5438" y="1581" width="2882" height="1363"/></clipPath><clipPath id="clip3"><rect x="5438" y="1581" width="2882" height="1363"/></clipPath><clipPath id="clip4"><rect x="5438" y="1581" width="2882" height="1363"/></clipPath><clipPath id="clip5"><rect x="5818" y="1899" width="2405" height="651"/></clipPath><clipPath id="clip6"><rect x="5438" y="1581" width="2882" height="1363"/></clipPath><clipPath id="clip7"><rect x="5438" y="1581" width="2882" height="1363"/></clipPath><clipPath id="clip8"><rect x="5438" y="1581" width="2882" height="1363"/></clipPath><clipPath id="clip9"><rect x="5438" y="1581" width="2882" height="1363"/></clipPath><clipPath id="clip10"><rect x="5438" y="1581" width="2882" height="1363"/></clipPath><clipPath id="clip11"><rect x="5438" y="1581" width="2882" height="1363"/></clipPath><clipPath id="clip12"><rect x="5438" y="1581" width="2882" height="1363"/></clipPath><clipPath id="clip13"><rect x="5438" y="1581" width="2882" height="1363"/></clipPath><clipPath id="clip14"><rect x="5438" y="1581" width="2882" height="1363"/></clipPath><clipPath id="clip15"><rect x="5438" y="1581" width="2882" height="1363"/></clipPath><clipPath id="clip16"><rect x="5438" y="1581" width="2882" height="1363"/></clipPath><clipPath id="clip17"><rect x="5438" y="1581" width="2882" height="1363"/></clipPath><clipPath id="clip18"><rect x="5438" y="1581" width="2882" height="1363"/></clipPath><clipPath id="clip19"><rect x="5438" y="1581" width="2882" height="1363"/></clipPath><clipPath id="clip20"><rect x="5438" y="1581" width="2882" height="1363"/></clipPath><clipPath id="clip21"><rect x="5438" y="1581" width="2882" height="1363"/></clipPath><clipPath id="clip22"><rect x="5438" y="1581" width="2882" height="1363"/></clipPath><clipPath id="clip23"><rect x="5438" y="1581" width="2882" height="1363"/></clipPath><clipPath id="clip24"><rect x="5438" y="1581" width="2882" height="1363"/></clipPath><clipPath id="clip25"><rect x="5438" y="1581" width="2882" height="1363"/></clipPath><clipPath id="clip26"><rect x="5438" y="1581" width="2882" height="1363"/></clipPath><clipPath id="clip27"><rect x="5438" y="1581" width="2882" height="1363"/></clipPath><clipPath id="clip28"><rect x="5438" y="1581" width="2882" height="1363"/></clipPath><clipPath id="clip29"><rect x="5438" y="1581" width="2882" height="1363"/></clipPath><clipPath id="clip30"><rect x="5438" y="1581" width="2882" height="1363"/></clipPath><clipPath id="clip31"><rect x="5438" y="1581" width="2882" height="1363"/></clipPath><clipPath id="clip32"><rect x="5438" y="1581" width="2882" height="1363"/></clipPath><clipPath id="clip33"><rect x="5438" y="1581" width="2882" height="1363"/></clipPath><clipPath id="clip34"><rect x="5438" y="1581" width="2882" height="1363"/></clipPath><clipPath id="clip35"><rect x="5438" y="1581" width="2882" height="1363"/></clipPath><clipPath id="clip36"><rect x="5438" y="1581" width="2882" height="1363"/></clipPath><clipPath id="clip37"><rect x="5438" y="1581" width="2882" height="1363"/></clipPath><clipPath id="clip38"><rect x="5438" y="1581" width="2882" height="1363"/></clipPath><clipPath id="clip39"><rect x="5438" y="1581" width="2882" height="1363"/></clipPath><clipPath id="clip40"><rect x="5438" y="1581" width="2882" height="1363"/></clipPath><clipPath id="clip41"><rect x="5438" y="1581" width="2882" height="1363"/></clipPath><clipPath id="clip42"><rect x="5438" y="1581" width="2882" height="1363"/></clipPath><clipPath id="clip43"><rect x="5438" y="1581" width="2882" height="1363"/></clipPath><clipPath id="clip44"><rect x="5438" y="1581" width="2882" height="1363"/></clipPath><clipPath id="clip45"><rect x="5438" y="1581" width="2882" height="1363"/></clipPath><clipPath id="clip46"><rect x="5438" y="1581" width="2882" height="1363"/></clipPath></defs><g clip-path="url(#clip0)" transform="translate(-5438 -1581)"><rect x="5439" y="1581" width="2882" height="1363" fill="#FFFFFF"/><g clip-path="url(#clip1)"><path d="M5818.5 2534.58 8220.5 2534.58M5818.5 2521.58 8220.5 2521.58M5818.5 2508.58 8220.5 2508.58M5818.5 2495.58 8220.5 2495.58M5818.5 2469.58 8220.5 2469.58M5818.5 2456.58 8220.5 2456.58M5818.5 2443.58 8220.5 2443.58M5818.5 2430.58 8220.5 2430.58M5818.5 2404.58 8220.5 2404.58M5818.5 2391.58 8220.5 2391.58M5818.5 2378.58 8220.5 2378.58M5818.5 2365.58 8220.5 2365.58M5818.5 2339.58 8220.5 2339.58M5818.5 2326.58 8220.5 2326.58M5818.5 2313.58 8220.5 2313.58M5818.5 2300.58 8220.5 2300.58M5818.5 2275.57 8220.5 2275.57M5818.5 2262.57 8220.5 2262.57M5818.5 2249.57 8220.5 2249.57M5818.5 2236.57 8220.5 2236.57M5818.5 2210.57 8220.5 2210.57M5818.5 2197.57 8220.5 2197.57M5818.5 2184.57 8220.5 2184.57M5818.5 2171.57 8220.5 2171.57M5818.5 2145.57 8220.5 2145.57M5818.5 2132.57 8220.5 2132.57M5818.5 2119.57 8220.5 2119.57M5818.5 2106.57 8220.5 2106.57M5818.5 2080.57 8220.5 2080.57M5818.5 2067.57 8220.5 2067.57M5818.5 2054.57 8220.5 2054.57M5818.5 2041.57 8220.5 2041.57M5818.5 2015.57 8220.5 2015.57M5818.5 2002.57 8220.5 2002.57M5818.5 1989.57 8220.5 1989.57M5818.5 1976.57 8220.5 1976.57M5818.5 1950.56 8220.5 1950.56M5818.5 1937.56 8220.5 1937.56M5818.5 1924.56 8220.5 1924.56M5818.5 1911.56 8220.5 1911.56" stroke="#F2F2F2" stroke-width="3.4375" stroke-linejoin="round" stroke-miterlimit="10" fill="none"/></g><g clip-path="url(#clip2)"><path d="M5818.5 2482.58 8220.5 2482.58M5818.5 2417.58 8220.5 2417.58M5818.5 2352.58 8220.5 2352.58M5818.5 2287.58 8220.5 2287.58M5818.5 2223.57 8220.5 2223.57M5818.5 2158.57 8220.5 2158.57M5818.5 2093.57 8220.5 2093.57M5818.5 2028.57 8220.5 2028.57M5818.5 1963.56 8220.5 1963.56M5818.5 1899.5 8220.5 1899.5" stroke="#D9D9D9" stroke-width="3.4375" stroke-linejoin="round" stroke-miterlimit="10" fill="none"/></g><g clip-path="url(#clip3)"><rect x="5818.5" y="1899.5" width="2402" height="648" stroke="#D9D9D9" stroke-width="3.4375" stroke-linejoin="round" stroke-miterlimit="10" fill="none"/></g><g clip-path="url(#clip4)"><path d="M5818.5 2547.5 8220.5 2547.5" stroke="#D9D9D9" stroke-width="3.4375" stroke-linejoin="round" stroke-miterlimit="10" fill="none" fill-rule="evenodd"/></g><g clip-path="url(#clip5)"><path d="M5818.5 2354.58 5819.69 2385.58 5820.69 2352.58 5821.69 2428.58 5822.69 2432.58 5823.69 2432.58 5823.69 2432.58 5824.69 2392.58 5825.69 2354.58 5826.69 2508.58 5827.69 2431.58 5828.69 2509.58 5829.69 2209.57 5829.69 2489.58 5830.69 2432.58 5831.69 2392.58 5832.69 2392.58 5833.69 2509.58 5834.69 2509.58 5835.69 2509.58 5835.69 2509.58 5836.69 2509.58 5837.69 2353.58 5838.69 2432.58 5839.69 2346.58 5840.69 2354.58 5841.69 2508.58 5842.69 2509.58 5842.69 2355.58 5843.69 2333.58 5844.69 2393.58 5845.69 2354.58 5846.69 2432.58 5847.69 2508.58 5848.69 2392.58 5848.69 2509.58 5849.69 2509.58 5850.69 2349.58 5851.69 2392.58 5852.69 2508.58 5853.69 2431.58 5854.69 2410.58 5854.69 2348.58 5855.69 2509.58 5856.69 2508.58 5857.69 2506.58 5858.69 2391.58 5859.69 2392.58 5860.69 2393.58 5861.69 2509.58 5861.69 2352.58 5862.69 2389.58 5863.69 2506.58 5864.69 2391.58 5865.69 2392.58 5866.69 2508.58 5867.69 2509.58 5867.69 2431.58 5868.69 2336.58 5869.69 2433.58 5870.69 2432.58 5871.69 2414.58 5872.69 2509.58 5873.69 2381.58 5873.69 2509.58 5874.69 2506.58 5875.69 2429.58 5876.69 2487.58 5877.69 2415.58 5878.69 2387.58 5879.69 2498.58 5880.69 2416.58 5880.69 2508.58 5881.69 2509.58 5882.69 2509.58 5883.69 2389.58 5884.69 2389.58 5885.69 2509.58 5886.69 2508.58 5886.69 2498.58 5887.69 2390.58 5888.69 2373.58 5889.69 2166.57 5890.69 2509.58 5891.69 2509.58 5892.69 2342.58 5892.69 2509.58 5893.69 2508.58 5894.69 2508.58 5895.69 2331.58 5896.69 2508.58 5897.69 2508.58 5898.69 2508.58 5899.69 2509.58 5899.69 2509.58 5900.69 2354.58 5901.69 2354.58 5902.69 2432.58 5903.69 2429.58 5904.69 2509.58 5905.69 2369.58 5905.69 2392.58 5906.69 2379.58 5907.69 2427.58 5908.69 2509.58 5909.69 2431.58 5910.69 2388.58 5911.69 2392.58 5911.69 2391.58 5912.69 2508.58 5913.69 2407.58 5914.69 2319.58 5915.69 2364.58 5916.69 2509.58 5917.69 2384.58 5918.69 2504.58 5918.69 2432.58 5919.69 2351.58 5920.69 2353.58 5921.69 2389.58 5922.69 2509.58 5923.69 2490.58 5924.69 2391.58 5924.69 2506.58 5925.69 2392.58 5926.69 2505.58 5927.69 2186.57 5928.69 2502.58 5929.69 2499.58 5930.69 2493.58 5930.69 2353.58 5931.69 2414.58 5932.69 2414.58 5933.69 2429.58 5934.69 2423.58 5935.69 2350.58 5936.69 2390.58 5936.69 2386.58 5937.69 2508.58 5938.69 2350.58 5939.69 2461.58 5940.69 2506.58 5941.69 2362.58 5942.69 2364.58 5943.69 2362.58 5943.69 2508.58 5944.69 2391.58 5945.7 2509.58 5946.7 2341.58 5947.7 2490.58 5948.7 2509.58 5949.7 2509.58 5949.7 2471.58 5950.7 2359.58 5951.7 2390.58 5952.7 2345.58 5953.7 2486.58 5954.7 2314.58 5955.7 2488.58 5955.7 2288.58 5956.7 2499.58 5957.7 2368.58 5958.7 2423.58 5959.7 2509.58 5960.7 2324.58 5961.7 2322.58 5962.7 2508.58 5962.7 2506.58 5963.7 2377.58 5964.7 2395.58 5965.7 2348.58 5966.7 2508.58 5967.7 2387.58 5968.7 2347.58 5968.7 2394.58 5969.7 2509.58 5970.7 2414.58 5971.7 2426.58 5972.7 2385.58 5973.7 2345.58 5974.7 2381.58 5974.7 2385.58 5975.7 2333.58 5976.7 2508.58 5977.7 2508.58 5978.7 2509.58 5979.7 2508.58 5980.7 2509.58 5981.7 2508.58 5981.7 2366.58 5982.7 2378.58 5983.7 2369.58 5984.7 2439.58 5985.7 2301.58 5986.7 2509.58 5987.7 2429.58 5987.7 2429.58 5988.7 2508.58 5989.7 2271.57 5990.7 2431.58 5991.7 2389.58 5992.7 2430.58 5993.7 2430.58 5993.7 2328.58 5994.7 2502.58 5995.7 2492.58 5996.7 2389.58 5997.7 2509.58 5998.7 2509.58 5999.7 2508.58 6000.7 2508.58 6000.7 2332.58 6001.7 2432.58 6002.7 2390.58 6003.7 2351.58 6004.7 2506.58 6005.7 2273.57 6006.7 2432.58 6006.7 2432.58 6007.7 2508.58 6008.7 2391.58 6009.7 2352.58 6010.7 2432.58 6011.7 2432.58 6012.7 2428.58 6012.7 2411.58 6013.7 2508.58 6014.7 2509.58 6015.7 2431.58 6016.7 2390.58 6017.7 2431.58 6018.7 2508.58 6018.7 2432.58 6019.7 2390.58 6020.7 2508.58 6021.7 2430.58 6022.7 2508.58 6023.7 2432.58 6024.7 2431.58 6025.7 2508.58 6025.7 2508.58 6026.7 2354.58 6027.7 2508.58 6028.7 2354.58 6029.7 2355.58 6030.7 2391.58 6031.7 2392.58 6031.7 2391.58 6032.7 2347.58 6033.7 2391.58 6034.7 2422.58 6035.7 2431.58 6036.7 2351.58 6037.7 2509.58 6037.7 2509.58 6038.7 2509.58 6039.7 2509.58 6040.7 2354.58 6041.7 2509.58 6042.7 2354.58 6043.7 2353.58 6044.7 2353.58 6044.7 2432.58 6045.7 2509.58 6046.7 2509.58 6047.7 2508.58 6048.7 2509.58 6049.7 2508.58 6050.7 2425.58 6050.7 2393.58 6051.7 2393.58 6052.7 2432.58 6053.7 2509.58 6054.7 2392.58 6055.7 2354.58 6056.7 2350.58 6056.7 2508.58 6057.7 2427.58 6058.7 2509.58 6059.7 2393.58 6060.7 2508.58 6061.7 2392.58 6062.7 2508.58 6063.7 2508.58 6063.7 2354.58 6064.7 2355.58 6065.7 2349.58 6066.7 2352.58 6067.7 2350.58 6068.7 2392.58 6069.7 2346.58 6069.7 2432.58 6070.7 2430.58 6071.7 2383.58 6072.7 2508.58 6073.7 2508.58 6074.7 2508.58 6075.7 2386.58 6075.7 2509.58 6076.7 2432.58 6077.7 2508.58 6078.7 2508.58 6079.7 2352.58 6080.7 2509.58 6081.7 2509.58 6082.7 2321.58 6082.7 2351.58 6083.7 2390.58 6084.7 2508.58 6085.7 2432.58 6086.7 2432.58 6087.7 2508.58 6088.7 2508.58 6088.7 2509.58 6089.7 2393.58 6090.7 2392.58 6091.7 2498.58 6092.7 2392.58 6093.7 2508.58 6094.7 2430.58 6094.7 2354.58 6095.7 2391.58 6096.7 2509.58 6097.7 2388.58 6098.7 2390.58 6099.7 2432.58 6100.7 2392.58 6101.7 2508.58 6101.7 2392.58 6102.7 2354.58 6103.7 2393.58 6104.7 2391.58 6105.7 2351.58 6106.7 2462.58 6107.7 2459.58 6107.7 2507.58 6108.7 2505.58 6109.7 2301.58 6110.7 2322.58 6111.7 2290.58 6112.7 2426.58 6113.7 2506.58 6113.7 2422.58 6114.7 2425.58 6115.7 2418.58 6116.7 2508.58 6117.7 2509.58 6118.7 2348.58 6119.7 2347.58 6119.7 2390.58 6120.7 2386.58 6121.7 2385.58 6122.7 2392.58 6123.7 2508.58 6124.7 2432.58 6125.7 2354.58 6126.7 2508.58 6126.7 2509.58 6127.7 2508.58 6128.7 2509.58 6129.7 2508.58 6130.7 2393.58 6131.7 2388.58 6132.7 2428.58 6132.7 2508.58 6133.7 2354.58 6134.7 2348.58 6135.7 2387.58 6136.7 2509.58 6137.7 2390.58 6138.7 2506.58 6138.7 2351.58 6139.7 2509.58 6140.7 2508.58 6141.7 2509.58 6142.7 2509.58 6143.7 2351.58 6144.7 2497.58 6145.7 2507.58 6145.7 2427.58 6146.7 2420.58 6147.7 2508.58 6148.7 2508.58 6149.7 2329.58 6150.7 2350.58 6151.7 2392.58 6151.7 2329.58 6152.7 2509.58 6153.7 2508.58 6154.7 2393.58 6155.7 2508.58 6156.7 2354.58 6157.7 2508.58 6157.7 2392.58 6158.7 2509.58 6159.7 2508.58 6160.7 2508.58 6161.7 2431.58 6162.7 2429.58 6163.7 2390.58 6164.7 2508.58 6164.7 2509.58 6165.7 2509.58 6166.7 2352.58 6167.7 2508.58 6168.7 2352.58 6169.7 2392.58 6170.7 2430.58 6170.7 2392.58 6171.7 2508.58 6172.7 2348.58 6173.7 2354.58 6174.7 2508.58 6175.7 2509.58 6176.7 2509.58 6176.7 2508.58 6177.7 2509.58 6178.7 2509.58 6179.7 2508.58 6180.7 2432.58 6181.7 2432.58 6182.7 2432.58 6183.7 2509.58 6183.7 2508.58 6184.7 2508.58 6185.7 2508.58 6186.7 2430.58 6187.7 2354.58 6188.7 2509.58 6189.7 2037.57 6189.7 2388.58 6190.7 2432.58 6191.7 2432.58 6192.7 2507.58 6193.7 2509.58 6194.7 2407.58 6195.7 2392.58 6195.7 2393.58 6196.7 2508.58 6197.7 2353.58 6198.7 2354.58 6199.7 2509.58 6200.7 2238.57 6201.7 2509.58 6202.7 2393.58 6202.7 2432.58 6203.7 2354.58 6204.7 2354.58 6205.7 2360.58 6206.7 2392.58 6207.7 2509.58 6208.7 2393.58 6208.7 2508.58 6209.7 2354.58 6210.7 2392.58 6211.7 2353.58 6212.7 2509.58 6213.7 2509.58 6214.7 2429.58 6214.7 2432.58 6215.7 2509.58 6216.7 2354.58 6217.7 2432.58 6218.7 2353.58 6219.7 2190.57 6220.7 2508.58 6220.7 2430.58 6221.7 2432.58 6222.7 2432.58 6223.7 2507.58 6224.7 2392.58 6225.7 2507.58 6226.7 2392.58 6227.7 2508.58 6227.7 2509.58 6228.7 2351.58 6229.7 2508.58 6230.7 2508.58 6231.7 2432.58 6232.7 2427.58 6233.7 2492.58 6233.7 2408.58 6234.7 2485.58 6235.7 2286.58 6236.7 2506.58 6237.7 2342.58 6238.7 2402.58 6239.7 2508.58 6239.7 2342.58 6240.7 2508.58 6241.7 2391.58 6242.71 2335.58 6243.71 2430.58 6244.71 2432.58 6245.71 2509.58 6246.71 2509.58 6246.71 2392.58 6247.71 2508.58 6248.71 2509.58 6249.71 2508.58 6250.71 2353.58 6251.71 2507.58 6252.71 2383.58 6252.71 2390.58 6253.71 2430.58 6254.71 2431.58 6255.71 2367.58 6256.71 2432.58 6257.71 2509.58 6258.71 2432.58 6258.71 2353.58 6259.71 2508.58 6260.71 2420.58 6261.71 2506.58 6262.71 2354.58 6263.71 2341.58 6264.71 2508.58 6265.71 2432.58 6265.71 2508.58 6266.71 2508.58 6267.71 2508.58 6268.71 2432.58 6269.71 2432.58 6270.71 2508.58 6271.71 2432.58 6271.71 2508.58 6272.71 2351.58 6273.71 2432.58 6274.71 2508.58 6275.71 2383.58 6276.71 2508.58 6277.71 2392.58 6277.71 2393.58 6278.71 2508.58 6279.71 2508.58 6280.71 2354.58 6281.71 2508.58 6282.71 2508.58 6283.71 2354.58 6284.71 2508.58 6284.71 2509.58 6285.71 2392.58 6286.71 2432.58 6287.71 2354.58 6288.71 2432.58 6289.71 2508.58 6290.71 2353.58 6290.71 2354.58 6291.71 2509.58 6292.71 2353.58 6293.71 2378.58 6294.71 2392.58 6295.71 2508.58 6296.71 2392.58 6296.71 2508.58 6297.71 2507.58 6298.71 2392.58 6299.71 2388.58 6300.71 2507.58 6301.71 2350.58 6302.71 2508.58 6303.71 2412.58 6303.71 2505.58 6304.71 2350.58 6305.71 2392.58 6306.71 2353.58 6307.71 2399.58 6308.71 2346.58 6309.71 2431.58 6309.71 2508.58 6310.71 2392.58 6311.71 2430.58 6312.71 2427.58 6313.71 2294.58 6314.71 2508.58 6315.71 2509.58 6315.71 2507.58 6316.71 2509.58 6317.71 2508.58 6318.71 2508.58 6319.71 2508.58 6320.71 2509.58 6321.71 2386.58 6321.71 2432.58 6322.71 2432.58 6323.71 2423.58 6324.71 2420.58 6325.71 2350.58 6326.71 2330.58 6327.71 2509.58 6328.71 2332.58 6328.71 2508.58 6329.71 2345.58 6330.71 2373.58 6331.71 2387.58 6332.71 2373.58 6333.71 2417.58 6334.71 2413.58 6334.71 2475.58 6335.71 2477.58 6336.71 2472.58 6337.71 2472.58 6338.71 2507.58 6339.71 2503.58 6340.71 2357.58 6340.71 2418.58 6341.71 2418.58 6342.71 2421.58 6343.71 2347.58 6344.71 2343.58 6345.71 2409.58 6346.71 2347.58 6347.71 2508.58 6347.71 2508.58 6348.71 2500.58 6349.71 2392.58 6350.71 2387.58 6351.71 2392.58 6352.71 2428.58 6353.71 2501.58 6353.71 2508.58 6354.71 2505.58 6355.71 2508.58 6356.71 2352.58 6357.71 2342.58 6358.71 2508.58 6359.71 2431.58 6359.71 2431.58 6360.71 2431.58 6361.71 2508.58 6362.71 2508.58 6363.71 2415.58 6364.71 2354.58 6365.71 2347.58 6366.71 2508.58 6366.71 2364.58 6367.71 2389.58 6368.71 2379.58 6369.71 2429.58 6370.71 2380.58 6371.71 2508.58 6372.71 2509.58 6372.71 2432.58 6373.71 2431.58 6374.71 2508.58 6375.71 2509.58 6376.71 2509.58 6377.71 2509.58 6378.71 2351.58 6378.71 2393.58 6379.71 2427.58 6380.71 2347.58 6381.71 2378.58 6382.71 2340.58 6383.71 2418.58 6384.71 2432.58 6385.71 2341.58 6385.71 2508.58 6386.71 2508.58 6387.71 2509.58 6388.71 2491.58 6389.71 2382.58 6390.71 2382.58 6391.71 2508.58 6391.71 2508.58 6392.71 2371.58 6393.71 2381.58 6394.71 2507.58 6395.71 2422.58 6396.71 2509.58 6397.71 2350.58 6397.71 2428.58 6398.71 2426.58 6399.71 2432.58 6400.71 2393.58 6401.71 2345.58 6402.71 2487.58 6403.71 2379.58 6404.71 2502.58 6404.71 2332.58 6405.71 2378.58 6406.71 2372.58 6407.71 2379.58 6408.71 2380.58 6409.71 2508.58 6410.71 2509.58 6410.71 2509.58 6411.71 2430.58 6412.71 2382.58 6413.71 2508.58 6414.71 2383.58 6415.71 2504.58 6416.71 2390.58 6416.71 2393.58 6417.71 2432.58 6418.71 2349.58 6419.71 2352.58 6420.71 2429.58 6421.71 2430.58 6422.71 2344.58 6422.71 2508.58 6423.71 2509.58 6424.71 2509.58 6425.71 2507.58 6426.71 2509.58 6427.71 2509.58 6428.71 2485.58 6429.71 2346.58 6429.71 2508.58 6430.71 2509.58 6431.71 2508.58 6432.71 2508.58 6433.71 2509.58 6434.71 2430.58 6435.71 2432.58 6435.71 2432.58 6436.71 2432.58 6437.71 2509.58 6438.71 2508.58 6439.71 2354.58 6440.71 2354.58 6441.71 2393.58 6441.71 2390.58 6442.71 2388.58 6443.71 2507.58 6444.71 2431.58 6445.71 2507.58 6446.71 2509.58 6447.71 2432.58 6448.71 2508.58 6448.71 2508.58 6449.71 2509.58 6450.71 2386.58 6451.71 2503.58 6452.71 2389.58 6453.71 2392.58 6454.71 2353.58 6454.71 2347.58 6455.71 2350.58 6456.71 2355.58 6457.71 2432.58 6458.71 2393.58 6459.71 2509.58 6460.71 2353.58 6460.71 2393.58 6461.71 2419.58 6462.71 2509.58 6463.71 2388.58 6464.71 2392.58 6465.71 2350.58 6466.71 2352.58 6467.71 2508.58 6467.71 2508.58 6468.71 2432.58 6469.71 2392.58 6470.71 2390.58 6471.71 2354.58 6472.71 2352.58 6473.71 2352.58 6473.71 2508.58 6474.71 2508.58 6475.71 2392.58 6476.71 2354.58 6477.71 2508.58 6478.71 2508.58 6479.71 2508.58 6479.71 2432.58 6480.71 2391.58 6481.71 2428.58 6482.71 2390.58 6483.71 2509.58 6484.71 2392.58 6485.71 2431.58 6486.71 2432.58 6486.71 2427.58 6487.71 2432.58 6488.71 2432.58 6489.71 2303.58 6490.71 2348.58 6491.71 2509.58 6492.71 2508.58 6492.71 2427.58 6493.71 2508.58 6494.71 2509.58 6495.71 2508.58 6496.71 2405.58 6497.71 2505.58 6498.71 2353.58 6498.71 2378.58 6499.71 2432.58 6500.71 2508.58 6501.71 2432.58 6502.71 2508.58 6503.71 2508.58 6504.71 2432.58 6505.71 2508.58 6505.71 2509.58 6506.71 2431.58 6507.71 2352.58 6508.71 2509.58 6509.71 2508.58 6510.71 2507.58 6511.71 2503.58 6511.71 2497.58 6512.71 2381.58 6513.71 2424.58 6514.71 2420.58 6515.71 2348.58 6516.71 2384.58 6517.71 2509.58 6517.71 2393.58 6518.71 2506.58 6519.71 2509.58 6520.71 2509.58 6521.71 2509.58 6522.71 2348.58 6523.71 2420.58 6523.71 2385.58 6524.71 2432.58 6525.71 2353.58 6526.71 2430.58 6527.71 2508.58 6528.71 2432.58 6529.71 2508.58 6530.71 2353.58 6530.71 2431.58 6531.71 2390.58 6532.71 2497.58 6533.71 2418.58 6534.71 2380.58 6535.71 2366.58 6536.71 2345.58 6536.71 2333.58 6537.71 2431.58 6538.71 2432.58 6539.71 2508.58 6540.71 2391.58 6541.71 2392.58 6542.71 2509.58 6542.71 2390.58 6543.71 2431.58 6544.71 2352.58 6545.71 2417.58 6546.71 2386.58 6547.71 2432.58 6548.71 2508.58 6549.71 2509.58 6549.71 2440.58 6550.71 2411.58 6551.71 2422.58 6552.71 2508.58 6553.71 2505.58 6554.71 2508.58 6555.71 2432.58 6555.71 2508.58 6556.72 2330.58 6557.72 2507.58 6558.72 2348.58 6559.72 2497.58 6560.72 2352.58 6561.72 2336.58 6561.72 2390.58 6562.72 2509.58 6563.72 2331.58 6564.72 2508.58 6565.72 2504.58 6566.72 2431.58 6567.72 2506.58 6568.72 2343.58 6568.72 2349.58 6569.72 2508.58 6570.72 2508.58 6571.72 2432.58 6572.72 2505.58 6573.72 2289.58 6574.72 2354.58 6574.72 2377.58 6575.72 2348.58 6576.72 2501.58 6577.72 2348.58 6578.72 2407.58 6579.72 2465.58 6580.72 2468.58 6580.72 2143.57 6581.72 2495.58 6582.72 2478.58 6583.72 2487.58 6584.72 2354.58 6585.72 2412.58 6586.72 2374.58 6587.72 2501.58 6587.72 2429.58 6588.72 2344.58 6589.72 2421.58 6590.72 2508.58 6591.72 2385.58 6592.72 2333.58 6593.72 2494.58 6593.72 2339.58 6594.72 2348.58 6595.72 2364.58 6596.72 2323.58 6597.72 2496.58 6598.72 2508.58 6599.72 2029.5 6599.72 2443.58 6600.72 2454.58 6601.72 2244.57 6602.72 2507.58 6603.72 2289.58 6604.72 2509.58 6605.72 2428.58 6606.72 2508.58 6606.72 2387.58 6607.72 2379.58 6608.72 2391.58 6609.72 2485.58 6610.72 2509.58 6611.72 2350.58 6612.72 2421.58 6612.72 2420.58 6613.72 2506.58 6614.72 2382.58 6615.72 2375.58 6616.72 2509.58 6617.72 2509.58 6618.72 2508.58 6618.72 2498.58 6619.72 2508.58 6620.72 2427.58 6621.72 2508.58 6622.72 2509.58 6623.72 2346.58 6624.72 2509.58 6624.72 2432.58 6625.72 2507.58 6626.72 2509.58 6627.72 2392.58 6628.72 2414.58 6629.72 2418.58 6630.72 2386.58 6631.72 2509.58 6631.72 2260.57 6632.72 2508.58 6633.72 2498.58 6634.72 2345.58 6635.72 2354.58 6636.72 2503.58 6637.72 2392.58 6637.72 2509.58 6638.72 2385.58 6639.72 2262.57 6640.72 2508.58 6641.72 2509.58 6642.72 2507.58 6643.72 2405.58 6643.72 2409.58 6644.72 2413.58 6645.72 2509.58 6646.72 2407.58 6647.72 2407.58 6648.72 2427.58 6649.72 2508.58 6650.72 2506.58 6650.72 2480.58 6651.72 2431.58 6652.72 2508.58 6653.72 2509.58 6654.72 2425.58 6655.72 2508.58 6656.72 2415.58 6656.72 2354.58 6657.72 2500.58 6658.72 2346.58 6659.72 2432.58 6660.72 2375.58 6661.72 2265.57 6662.72 2432.58 6662.72 2432.58 6663.72 2391.58 6664.72 2351.58 6665.72 2349.58 6666.72 2423.58 6667.72 2425.58 6668.72 2384.58 6669.72 2432.58 6669.72 2432.58 6670.72 2339.58 6671.72 2346.58 6672.72 2392.58 6673.72 2391.58 6674.72 2423.58 6675.72 2354.58 6675.72 2354.58 6676.72 2509.58 6677.72 2501.58 6678.72 2498.58 6679.72 2391.58 6680.72 2496.58 6681.72 2489.58 6681.72 2265.57 6682.72 2489.58 6683.72 2317.58 6684.72 2385.58 6685.72 2297.58 6686.72 2509.58 6687.72 2508.58 6688.72 2347.58 6688.72 2432.58 6689.72 2431.58 6690.72 2488.58 6691.72 2508.58 6692.72 2509.58 6693.72 2394.58 6694.72 2398.58 6694.72 2367.58 6695.72 2427.58 6696.72 2508.58 6697.72 2508.58 6698.72 2491.58 6699.72 2504.58 6700.72 2386.58 6700.72 2504.58 6701.72 2390.58 6702.72 2455.58 6703.72 2498.58 6704.72 2508.58 6705.72 2348.58 6706.72 2507.58 6707.72 2328.58 6707.72 2432.58 6708.72 2509.58 6709.72 2432.58 6710.72 2334.58 6711.72 2508.58 6712.72 2509.58 6713.72 2348.58 6713.72 2343.58 6714.72 2372.58 6715.72 2359.58 6716.72 2377.58 6717.72 2509.58 6718.72 2509.58 6719.72 2508.58 6719.72 2508.58 6720.72 2507.58 6721.72 2354.58 6722.72 2390.58 6723.72 2353.58 6724.72 2508.58 6725.72 2507.58 6725.72 2418.58 6726.72 2421.58 6727.72 2424.58 6728.72 2508.58 6729.72 2319.58 6730.72 2508.58 6731.72 2506.58 6732.72 2508.58 6732.72 2509.58 6733.72 2505.58 6734.72 2432.58 6735.72 2430.58 6736.72 2507.58 6737.72 2341.58 6738.72 2351.58 6738.72 2347.58 6739.72 2423.58 6740.72 2431.58 6741.72 2431.58 6742.72 2432.58 6743.72 2421.58 6744.72 2392.58 6744.72 2383.58 6745.72 2354.58 6746.72 2354.58 6747.72 2352.58 6748.72 2507.58 6749.72 2391.58 6750.72 2391.58 6751.72 2392.58 6751.72 2509.58 6752.72 2509.58 6753.72 2432.58 6754.72 2432.58 6755.72 2508.58 6756.72 2508.58 6757.72 2431.58 6757.72 2387.58 6758.72 2508.58 6759.72 2337.58 6760.72 2393.58 6761.72 2388.58 6762.72 2496.58 6763.72 2373.58 6763.72 2419.58 6764.72 2508.58 6765.72 2509.58 6766.72 2419.58 6767.72 2352.58 6768.72 2431.58 6769.72 2429.58 6770.72 2287.58 6770.72 2508.58 6771.72 2391.58 6772.72 2508.58 6773.72 2509.58 6774.72 2348.58 6775.72 2432.58 6776.72 2355.58 6776.72 2503.58 6777.72 2502.58 6778.72 2390.58 6779.72 2391.58 6780.72 2276.57 6781.72 2426.58 6782.72 2431.58 6782.72 2432.58 6783.72 2429.58 6784.72 2350.58 6785.72 2432.58 6786.72 2508.58 6787.72 2508.58 6788.72 2501.58 6789.72 2385.58 6789.72 2509.58 6790.72 2430.58 6791.72 2508.58 6792.72 2508.58 6793.72 2351.58 6794.72 2509.58 6795.72 2350.58 6795.72 2509.58 6796.72 2432.58 6797.72 2508.58 6798.72 2351.58 6799.72 2504.58 6800.72 2387.58 6801.72 2340.58 6801.72 2508.58 6802.72 2427.58 6803.72 2382.58 6804.72 2347.58 6805.72 2509.58 6806.72 2504.58 6807.72 2420.58 6807.72 2509.58 6808.72 2392.58 6809.72 2508.58 6810.72 2352.58 6811.72 2509.58 6812.72 2354.58 6813.72 2392.58 6814.72 2509.58 6814.72 2351.58 6815.72 2508.58 6816.72 2509.58 6817.72 2392.58 6818.72 2508.58 6819.72 2426.58 6820.72 2353.58 6820.72 2431.58 6821.72 2507.58 6822.72 2508.58 6823.72 2345.58 6824.72 2348.58 6825.72 2389.58 6826.72 2391.58 6826.72 2509.58 6827.72 2351.58 6828.72 2509.58 6829.72 2504.58 6830.72 2500.58 6831.72 2505.58 6832.72 2506.58 6833.72 2430.58 6833.72 2339.58 6834.72 2432.58 6835.72 2353.58 6836.72 2429.58 6837.72 2381.58 6838.72 2378.58 6839.72 2353.58 6839.72 2353.58 6840.72 2352.58 6841.72 2425.58 6842.72 2426.58 6843.72 2320.58 6844.72 2509.58 6845.72 2508.58 6845.72 2509.58 6846.72 2509.58 6847.72 2430.58 6848.72 2497.58 6849.72 2308.58 6850.72 2392.58 6851.72 2393.58 6852.72 2391.58 6852.72 2507.58 6853.72 2508.58 6854.72 2509.58 6855.73 2243.57 6856.73 2354.58 6857.73 2508.58 6858.73 2509.58 6858.73 2508.58 6859.73 2508.58 6860.73 2351.58 6861.73 2392.58 6862.73 2385.58 6863.73 2508.58 6864.73 2429.58 6864.73 2509.58 6865.73 2304.58 6866.73 2354.58 6867.73 2353.58 6868.73 2432.58 6869.73 2508.58 6870.73 2432.58 6871.73 2508.58 6871.73 2430.58 6872.73 2428.58 6873.73 2429.58 6874.73 2509.58 6875.73 2351.58 6876.73 2390.58 6877.73 2432.58 6877.73 2432.58 6878.73 2432.58 6879.73 2354.58 6880.73 2432.58 6881.73 2509.58 6882.73 2509.58 6883.73 2509.58 6883.73 2382.58 6884.73 2392.58 6885.73 2508.58 6886.73 2430.58 6887.73 2509.58 6888.73 2354.58 6889.73 2286.58 6890.73 2354.58 6890.73 2508.58 6891.73 2508.58 6892.73 2507.58 6893.73 2508.58 6894.73 2431.58 6895.73 2432.58 6896.73 2385.58 6896.73 2347.58 6897.73 2508.58 6898.73 2184.57 6899.73 2499.58 6900.73 2388.58 6901.73 2347.58 6902.73 2390.58 6902.73 2509.58 6903.73 2392.58 6904.73 2349.58 6905.73 2391.58 6906.73 2432.58 6907.73 2508.58 6908.73 2354.58 6908.73 2351.58 6909.73 2431.58 6910.73 2508.58 6911.73 2508.58 6912.73 2508.58 6913.73 2505.58 6914.73 2389.58 6915.73 2429.58 6915.73 2384.58 6916.73 2341.58 6917.73 2432.58 6918.73 2509.58 6919.73 2509.58 6920.73 2393.58 6921.73 2507.58 6921.73 2508.58 6922.73 2504.58 6923.73 2509.58 6924.73 2350.58 6925.73 2508.58 6926.73 2345.58 6927.73 2508.58 6927.73 2392.58 6928.73 2348.58 6929.73 2432.58 6930.73 2432.58 6931.73 2390.58 6932.73 2390.58 6933.73 2354.58 6934.73 2350.58 6934.73 2508.58 6935.73 2509.58 6936.73 2354.58 6937.73 2354.58 6938.73 2303.58 6939.73 2379.58 6940.73 2508.58 6940.73 2508.58 6941.73 2282.57 6942.73 2284.58 6943.73 2390.58 6944.73 2390.58 6945.73 2390.58 6946.73 2307.58 6946.73 2508.58 6947.73 2345.58 6948.73 2508.58 6949.73 2391.58 6950.73 2432.58 6951.73 2388.58 6952.73 2383.58 6953.73 2508.58 6953.73 2353.58 6954.73 2507.58 6955.73 2353.58 6956.73 2508.58 6957.73 2432.58 6958.73 2508.58 6959.73 2392.58 6959.73 2508.58 6960.73 2432.58 6961.73 2354.58 6962.73 2354.58 6963.73 2509.58 6964.73 2508.58 6965.73 2393.58 6965.73 2481.58 6966.73 2431.58 6967.73 2353.58 6968.73 2392.58 6969.73 2508.58 6970.73 2508.58 6971.73 2508.58 6972.73 2509.58 6972.73 2427.58 6973.73 2509.58 6974.73 2508.58 6975.73 2313.58 6976.73 2391.58 6977.73 2392.58 6978.73 2432.58 6978.73 2509.58 6979.73 2508.58 6980.73 2392.58 6981.73 2509.58 6982.73 2352.58 6983.73 2508.58 6984.73 2349.58 6984.73 2350.58 6985.73 2509.58 6986.73 2351.58 6987.73 2392.58 6988.73 2432.58 6989.73 2432.58 6990.73 2392.58 6991.73 2507.58 6991.73 2507.58 6992.73 2509.58 6993.73 2508.58 6994.73 2386.58 6995.73 2508.58 6996.73 2509.58 6997.73 2350.58 6997.73 2348.58 6998.73 2338.58 6999.73 2431.58 7000.73 2508.58 7001.73 2311.58 7002.73 2426.58 7003.73 2357.58 7003.73 2414.58 7004.73 2417.58 7005.73 2391.58 7006.73 2508.58 7007.73 2508.58 7008.73 2509.58 7009.73 2508.58 7009.73 2392.58 7010.73 2392.58 7011.73 2332.58 7012.73 2374.58 7013.73 2419.58 7014.73 2498.58 7015.73 2352.58 7016.73 2507.58 7016.73 2507.58 7017.73 2506.58 7018.73 2508.58 7019.73 2508.58 7020.73 2431.58 7021.73 2353.58 7022.73 2508.58 7022.73 2347.58 7023.73 2509.58 7024.73 2509.58 7025.73 2354.58 7026.73 2352.58 7027.73 2388.58 7028.73 2509.58 7028.73 2509.58 7029.73 2432.58 7030.73 2432.58 7031.73 2432.58 7032.73 2431.58 7033.73 2509.58 7034.73 2507.58 7035.73 2351.58 7035.73 2509.58 7036.73 2431.58 7037.73 2432.58 7038.73 2509.58 7039.73 2424.58 7040.73 2390.58 7041.73 2431.58 7041.73 2392.58 7042.73 2508.58 7043.73 2424.58 7044.73 2508.58 7045.73 2508.58 7046.73 2508.58 7047.73 2432.58 7047.73 2509.58 7048.73 2506.58 7049.73 2503.58 7050.73 2352.58 7051.73 2342.58 7052.73 2407.58 7053.73 2508.58 7054.73 2508.58 7054.73 2508.58 7055.73 2422.58 7056.73 2508.58 7057.73 2338.58 7058.73 2333.58 7059.73 2388.58 7060.73 2429.58 7060.73 2432.58 7061.73 2432.58 7062.73 2338.58 7063.73 2508.58 7064.73 2509.58 7065.73 2432.58 7066.73 2319.58 7066.73 2348.58 7067.73 2508.58 7068.73 2351.58 7069.73 2508.58 7070.73 2391.58 7071.73 2429.58 7072.73 2431.58 7073.73 2509.58 7073.73 2509.58 7074.73 2508.58 7075.73 2508.58 7076.73 2508.58 7077.73 2351.58 7078.73 2508.58 7079.73 2432.58 7079.73 2403.58 7080.73 2390.58 7081.73 2354.58 7082.73 2432.58 7083.73 2403.58 7084.73 2508.58 7085.73 2509.58 7085.73 2409.58 7086.73 2508.58 7087.73 2391.58 7088.73 2382.58 7089.73 2390.58 7090.73 2391.58 7091.73 2354.58 7092.73 2508.58 7092.73 2509.58 7093.73 2508.58 7094.73 2353.58 7095.73 2509.58 7096.73 2342.58 7097.73 2431.58 7098.73 2344.58 7098.73 2353.58 7099.73 2355.58 7100.73 2339.58 7101.73 2346.58 7102.73 2508.58 7103.73 2354.58 7104.73 2354.58 7104.73 2471.58 7105.73 2390.58 7106.73 2081.57 7107.73 2391.58 7108.73 2081.57 7109.73 2480.58 7110.73 2351.58 7110.73 2430.58 7111.73 2314.58 7112.73 2500.58 7113.73 2292.58 7114.73 2431.58 7115.73 2353.58 7116.73 2501.58 7117.73 2469.58 7117.73 2392.58 7118.73 2351.58 7119.73 2425.58 7120.73 2392.58 7121.73 2508.58 7122.73 2349.58 7123.73 2508.58 7123.73 2405.58 7124.73 2404.58 7125.73 2432.58 7126.73 2509.58 7127.73 2509.58 7128.73 2395.58 7129.73 2371.58 7129.73 2373.58 7130.73 2354.58 7131.73 2356.58 7132.73 2508.58 7133.73 2421.58 7134.73 2421.58 7135.73 2508.58 7136.73 2450.58 7136.73 2508.58 7137.73 2313.58 7138.73 2451.58 7139.73 2466.58 7140.73 2466.58 7141.73 2503.58 7142.73 2505.58 7142.73 2506.58 7143.73 2308.58 7144.73 2328.58 7145.73 2342.58 7146.73 2325.58 7147.73 2432.58 7148.73 2430.58 7148.73 2509.58 7149.73 2508.58 7150.73 2431.58 7151.73 2432.58 7152.73 2294.58 7153.73 2354.58 7154.73 2427.58 7155.73 2432.58 7155.73 2391.58 7156.73 2432.58 7157.73 2432.58 7158.73 2508.58 7159.73 2488.58 7160.73 2508.58 7161.73 2432.58 7161.73 2354.58 7162.73 2354.58 7163.73 2374.58 7164.74 2373.58 7165.74 2501.58 7166.74 2502.58 7167.74 2508.58 7167.74 2030.57 7168.74 2509.58 7169.74 2509.58 7170.74 2508.58 7171.74 2429.58 7172.74 2430.58 7173.74 2508.58 7174.74 2508.58 7174.74 2385.58 7175.74 2333.58 7176.74 2365.58 7177.74 2332.58 7178.74 2379.58 7179.74 2509.58 7180.74 2508.58 7180.74 2508.58 7181.74 2508.58 7182.74 2392.58 7183.74 2509.58 7184.74 2431.58 7185.74 2351.58 7186.74 2509.58 7186.74 2353.58 7187.74 2350.58 7188.74 2413.58 7189.74 2509.58 7190.74 2406.58 7191.74 2377.58 7192.74 2391.58 7193.74 2508.58 7193.74 2508.58 7194.74 2508.58 7195.74 2353.58 7196.74 2432.58 7197.74 2431.58 7198.74 2325.58 7199.74 2508.58 7199.74 2432.58 7200.74 2393.58 7201.74 2509.58 7202.74 2432.58 7203.74 2508.58 7204.74 2432.58 7205.74 2508.58 7205.74 2390.58 7206.74 2392.58 7207.74 2392.58 7208.74 2383.58 7209.74 2493.58 7210.74 2496.58 7211.74 2373.58 7211.74 2338.58 7212.74 2486.58 7213.74 2508.58 7214.74 2509.58 7215.74 2392.58 7216.74 2509.58 7217.74 2386.58 7218.74 2354.58 7218.74 2433.58 7219.74 2391.58 7220.74 2432.58 7221.74 2508.58 7222.74 2509.58 7223.74 2509.58 7224.74 2349.58 7224.74 2476.58 7225.74 2338.58 7226.74 2370.58 7227.74 2381.58 7228.74 2383.58 7229.74 2384.58 7230.74 2348.58 7230.74 2508.58 7231.74 2398.58 7232.74 2507.58 7233.74 2509.58 7234.74 2347.58 7235.74 2430.58 7236.74 2375.58 7237.74 2374.58 7237.74 2321.58 7238.74 2364.58 7239.74 2324.58 7240.74 2310.58 7241.74 2296.58 7242.74 2348.58 7243.74 2392.58 7243.74 2423.58 7244.74 2431.58 7245.74 2393.58 7246.74 2509.58 7247.74 2391.58 7248.74 2509.58 7249.74 2353.58 7249.74 2169.57 7250.74 2508.58 7251.74 2352.58 7252.74 2427.58 7253.74 2430.58 7254.74 2432.58 7255.74 2430.58 7256.74 2389.58 7256.74 2390.58 7257.74 2507.58 7258.74 2507.58 7259.74 2393.58 7260.74 2508.58 7261.74 2372.58 7262.74 2319.58 7262.74 2509.58 7263.74 2508.58 7264.74 2432.58 7265.74 2428.58 7266.74 2431.58 7267.74 2509.58 7268.74 2508.58 7268.74 2428.58 7269.74 2319.58 7270.74 2313.58 7271.74 2337.58 7272.74 2298.58 7273.74 2388.58 7274.74 2355.58 7275.74 2509.58 7275.74 2508.58 7276.74 2509.58 7277.74 2373.58 7278.74 2430.58 7279.74 2390.58 7280.74 2399.58 7281.74 2506.58 7281.74 2353.58 7282.74 2507.58 7283.74 2352.58 7284.74 2334.58 7285.74 2390.58 7286.74 2509.58 7287.74 2407.58 7287.74 2409.58 7288.74 2412.58 7289.74 2509.58 7290.74 2503.58 7291.74 2508.58 7292.74 2465.58 7293.74 2507.58 7294.74 2506.58 7294.74 2498.58 7295.74 2342.58 7296.74 2333.58 7297.74 2508.58 7298.74 2508.58 7299.74 2430.58 7300.74 2508.58 7300.74 2432.58 7301.74 2432.58 7302.74 2381.58 7303.74 2324.58 7304.74 2367.58 7305.74 2298.58 7306.74 2295.58 7306.74 2296.58 7307.74 2310.58 7308.74 2503.58 7309.74 2358.58 7310.74 2373.58 7311.74 2283.58 7312.74 2507.58 7312.74 2430.58 7313.74 2389.58 7314.74 2509.58 7315.74 2507.58 7316.74 2509.58 7317.74 2509.58 7318.74 2390.58 7319.74 2508.58 7319.74 2494.58 7320.74 2499.58 7321.74 2371.58 7322.74 2385.58 7323.74 2432.58 7324.74 2432.58 7325.74 2328.58 7325.74 2430.58 7326.74 2430.58 7327.74 2365.58 7328.74 2344.58 7329.74 2342.58 7330.74 2496.58 7331.74 2337.58 7331.74 2339.58 7332.74 2387.58 7333.74 2358.58 7334.74 2361.58 7335.74 2509.58 7336.74 2508.58 7337.74 2508.58 7338.74 2281.57 7338.74 2509.58 7339.74 2431.58 7340.74 2509.58 7341.74 2349.58 7342.74 2432.58 7343.74 2508.58 7344.74 2342.58 7344.74 2326.58 7345.74 2325.58 7346.74 2402.58 7347.74 2365.58 7348.74 2324.58 7349.74 2044.57 7350.74 2044.57 7350.74 2406.58 7351.74 2384.58 7352.74 2383.58 7353.74 2505.58 7354.74 2506.58 7355.74 2508.58 7356.74 2354.58 7357.74 2390.58 7357.74 2509.58 7358.74 2389.58 7359.74 2508.58 7360.74 2509.58 7361.74 2508.58 7362.74 2341.58 7363.74 2432.58 7363.74 2432.58 7364.74 2508.58 7365.74 2509.58 7366.74 2490.58 7367.74 2350.58 7368.74 2508.58 7369.74 2353.58 7369.74 2486.58 7370.74 2352.58 7371.74 2381.58 7372.74 2314.58 7373.74 2359.58 7374.74 2268.57 7375.74 2506.58 7376.74 2508.58 7376.74 2508.58 7377.74 2508.58 7378.74 2509.58 7379.74 2431.58 7380.74 2431.58 7381.74 2345.58 7382.74 2355.58 7382.74 2390.58 7383.74 2354.58 7384.74 2351.58 7385.74 2419.58 7386.74 2508.58 7387.74 2429.58 7388.74 2429.58 7388.74 2508.58 7389.74 2508.58 7390.74 2509.58 7391.74 2507.58 7392.74 2357.58 7393.74 2494.58 7394.74 2508.58 7395.74 2508.58 7395.74 2508.58 7396.74 2509.58 7397.74 2508.58 7398.74 2461.58 7399.74 2391.58 7400.74 2391.58 7401.74 2391.58 7401.74 2501.58 7402.74 2424.58 7403.74 2498.58 7404.74 2401.58 7405.74 2505.58 7406.74 2506.58 7407.74 2506.58 7407.74 2506.58 7408.74 2506.58 7409.74 2509.58 7410.74 2392.58 7411.74 2392.58 7412.74 2507.58 7413.74 2509.58 7413.74 2508.58 7414.74 2505.58 7415.74 2509.58 7416.74 2430.58 7417.74 2430.58 7418.74 2320.58 7419.74 2430.58 7420.74 2321.58 7420.74 2393.58 7421.74 2432.58 7422.74 2390.58 7423.74 2509.58 7424.74 2320.58 7425.74 2508.58 7426.74 2387.58 7426.74 2509.58 7427.74 2506.58 7428.74 2509.58 7429.74 2509.58 7430.74 2392.58 7431.74 2508.58 7432.74 2432.58 7432.74 2503.58 7433.74 2503.58 7434.74 2493.58 7435.74 2508.58 7436.74 2402.58 7437.74 2392.58 7438.74 2508.58 7439.74 2426.58 7439.74 2508.58 7440.74 2426.58 7441.74 2425.58 7442.74 2508.58 7443.74 2509.58 7444.74 2508.58 7445.74 2350.58 7445.74 2260.57 7446.74 2345.58 7447.74 2380.58 7448.74 2380.58 7449.74 2508.58 7450.74 2256.57 7451.74 2508.58 7451.74 2509.58 7452.74 2283.58 7453.74 2508.58 7454.74 2509.58 7455.74 2509.58 7456.74 2340.58 7457.74 2430.58 7458.74 2393.58 7458.74 2363.58 7459.74 2307.58 7460.74 2478.58 7461.74 2468.58 7462.75 2320.58 7463.75 2263.57 7464.75 2481.58 7464.75 2503.58 7465.75 2248.57 7466.75 2508.58 7467.75 2508.58 7468.75 2416.58 7469.75 2509.58 7470.75 2409.58 7470.75 2503.58 7471.75 2509.58 7472.75 2348.58 7473.75 2292.58 7474.75 2428.58 7475.75 2509.58 7476.75 2491.58 7477.75 2437.58 7477.75 2467.58 7478.75 2478.58 7479.75 2277.57 7480.75 2274.57 7481.75 2467.58 7482.75 2271.57 7483.75 2478.58 7483.75 2480.58 7484.75 2274.57 7485.75 2508.58 7486.75 2508.58 7487.75 2509.58 7488.75 2339.58 7489.75 2503.58 7489.75 2316.58 7490.75 2484.58 7491.75 2483.58 7492.75 2396.58 7493.75 2311.58 7494.75 2477.58 7495.75 2309.58 7495.75 2396.58 7496.75 2509.58 7497.75 2430.58 7498.75 2428.58 7499.75 2427.58 7500.75 2398.58 7501.75 2396.58 7502.75 2391.58 7502.75 2390.58 7503.75 2388.58 7504.75 2394.58 7505.75 2330.58 7506.75 2506.58 7507.75 2360.58 7508.75 2376.58 7508.75 2508.58 7509.75 2508.58 7510.75 2508.58 7511.75 2507.58 7512.75 2336.58 7513.75 2429.58 7514.75 2393.58 7514.75 2509.58 7515.75 2336.58 7516.75 2389.58 7517.75 2509.58 7518.75 2508.58 7519.75 2432.58 7520.75 2432.58 7521.75 2509.58 7521.75 2509.58 7522.75 2350.58 7523.75 2508.58 7524.75 2392.58 7525.75 2508.58 7526.75 2403.58 7527.75 2479.58 7527.75 2385.58 7528.75 2332.58 7529.75 2366.58 7530.75 2345.58 7531.75 2350.58 7532.75 2509.58 7533.75 2508.58 7533.75 2428.58 7534.75 2508.58 7535.75 2391.58 7536.75 2428.58 7537.75 2484.58 7538.75 2369.58 7539.75 2368.58 7540.75 2380.58 7540.75 2502.58 7541.75 2379.58 7542.75 2380.58 7543.75 2509.58 7544.75 2508.58 7545.75 2509.58 7546.75 2508.58 7546.75 2432.58 7547.75 2432.58 7548.75 2508.58 7549.75 2509.58 7550.75 2428.58 7551.75 2430.58 7552.75 2339.58 7552.75 2508.58 7553.75 2430.58 7554.75 2432.58 7555.75 2432.58 7556.75 2508.58 7557.75 2508.58 7558.75 2390.58 7559.75 2392.58 7559.75 2494.58 7560.75 2428.58 7561.75 2507.58 7562.75 2392.58 7563.75 2490.58 7564.75 2491.58 7565.75 2313.58 7565.75 2305.58 7566.75 2429.58 7567.75 2316.58 7568.75 2382.58 7569.75 2508.58 7570.75 2504.58 7571.75 2377.58 7571.75 2469.58 7572.75 2486.58 7573.75 2485.58 7574.75 2332.58 7575.75 2508.58 7576.75 2314.58 7577.75 2313.58 7578.75 2321.58 7578.75 2362.58 7579.75 2333.58 7580.75 2364.58 7581.75 2508.58 7582.75 2509.58 7583.75 2431.58 7584.75 2509.58 7584.75 2432.58 7585.75 2484.58 7586.75 2508.58 7587.75 2373.58 7588.75 2376.58 7589.75 2440.58 7590.75 2329.58 7590.75 2332.58 7591.75 2349.58 7592.75 2425.58 7593.75 2425.58 7594.75 2506.58 7595.75 2429.58 7596.75 2432.58 7596.75 2509.58 7597.75 2391.58 7598.75 2507.58 7599.75 2488.58 7600.75 2360.58 7601.75 2506.58 7602.75 2390.58 7603.75 2348.58 7603.75 2309.58 7604.75 2508.58 7605.75 2425.58 7606.75 2508.58 7607.75 2509.58 7608.75 2509.58 7609.75 2431.58 7609.75 2432.58 7610.75 2348.58 7611.75 2355.58 7612.75 2508.58 7613.75 2473.58 7614.75 2353.58 7615.75 2475.58 7615.75 2479.58 7616.75 2325.58 7617.75 2365.58 7618.75 2319.58 7619.75 2425.58 7620.75 2508.58 7621.75 2381.58 7622.75 2508.58 7622.75 2430.58 7623.75 2430.58 7624.75 2488.58 7625.75 2509.58 7626.75 2380.58 7627.75 2390.58 7628.75 2386.58 7628.75 2391.58 7629.75 2388.58 7630.75 2340.58 7631.75 2508.58 7632.75 2508.58 7633.75 2427.58 7634.75 2429.58 7634.75 2241.57 7635.75 2390.58 7636.75 2506.58 7637.75 2388.58 7638.75 2390.58 7639.75 2501.58 7640.75 2483.58 7641.75 2426.58 7641.75 2389.58 7642.75 2509.58 7643.75 2431.58 7644.75 2407.58 7645.75 2347.58 7646.75 2507.58 7647.75 2508.58 7647.75 2429.58 7648.75 2432.58 7649.75 2256.57 7650.75 2321.58 7651.75 2295.58 7652.75 2509.58 7653.75 2300.58 7653.75 2308.58 7654.75 2353.58 7655.75 2507.58 7656.75 2357.58 7657.75 2508.58 7658.75 2508.58 7659.75 2509.58 7660.75 2430.58 7660.75 2431.58 7661.75 2432.58 7662.75 2354.58 7663.75 2480.58 7664.75 2331.58 7665.75 2391.58 7666.75 2312.58 7666.75 2329.58 7667.75 2291.58 7668.75 2330.58 7669.75 2379.58 7670.75 2508.58 7671.75 2395.58 7672.75 2508.58 7672.75 2508.58 7673.75 2509.58 7674.75 2392.58 7675.75 2508.58 7676.75 2385.58 7677.75 2501.58 7678.75 2335.58 7679.75 2334.58 7679.75 2401.58 7680.75 2508.58 7681.75 2411.58 7682.75 2386.58 7683.75 2327.58 7684.75 2381.58 7685.75 2509.58 7685.75 2508.58 7686.75 2333.58 7687.75 2157.57 7688.75 2508.58 7689.75 2392.58 7690.75 2349.58 7691.75 2387.58 7691.75 2505.58 7692.75 2343.58 7693.75 2381.58 7694.75 2343.58 7695.75 2330.58 7696.75 2507.58 7697.75 2430.58 7697.75 2509.58 7698.75 2508.58 7699.75 2351.58 7700.75 2351.58 7701.75 2509.58 7702.75 2353.58 7703.75 2476.58 7704.75 2382.58 7704.75 2338.58 7705.75 2423.58 7706.75 2423.58 7707.75 2508.58 7708.75 2507.58 7709.75 2509.58 7710.75 2393.58 7710.75 2373.58 7711.75 2504.58 7712.75 2503.58 7713.75 2335.58 7714.75 2324.58 7715.75 2320.58 7716.75 2324.58 7716.75 2333.58 7717.75 2509.58 7718.75 2381.58 7719.75 2314.58 7720.75 2508.58 7721.75 2432.58 7722.75 2392.58 7723.75 2504.58 7723.75 2359.58 7724.75 2386.58 7725.75 2468.58 7726.75 2475.58 7727.75 2335.58 7728.75 2349.58 7729.75 2505.58 7729.75 2325.58 7730.75 2315.58 7731.75 2377.58 7732.75 2421.58 7733.75 2509.58 7734.75 2423.58 7735.75 2431.58 7735.75 2425.58 7736.75 2507.58 7737.75 2507.58 7738.75 2495.58 7739.75 2351.58 7740.75 2497.58 7741.75 2374.58 7742.75 2508.58 7742.75 2403.58 7743.75 2429.58 7744.75 2386.58 7745.75 2508.58 7746.75 2427.58 7747.75 2508.58 7748.75 2506.58 7748.75 2507.58 7749.75 2508.58 7750.75 2368.58 7751.75 2494.58 7752.75 2508.58 7753.75 2390.58 7754.75 2484.58 7754.75 2383.58 7755.75 2367.58 7756.75 2410.58 7757.75 2402.58 7758.75 2495.58 7759.75 2498.58 7760.75 2500.58 7761.75 2413.58 7761.75 2416.58 7762.75 2332.58 7763.75 2350.58 7764.75 2349.58 7765.75 2502.58 7766.75 2502.58 7767.75 2502.58 7767.75 2503.58 7768.75 2332.58 7769.75 2368.58 7770.75 2356.58 7771.75 2389.58 7772.75 2509.58 7773.75 2428.58 7773.75 2429.58 7774.75 2393.58 7775.75 2345.58 7776.75 2507.58 7777.75 2508.58 7778.76 2508.58 7779.76 2508.58 7780.76 2508.58 7780.76 2386.58 7781.76 2426.58 7782.76 2387.58 7783.76 2432.58 7784.76 2431.58 7785.76 2428.58 7786.76 2508.58 7786.76 2508.58 7787.76 2483.58 7788.76 2508.58 7789.76 2391.58 7790.76 2507.58 7791.76 2390.58 7792.76 2351.58 7792.76 2350.58 7793.76 2430.58 7794.76 2508.58 7795.76 2509.58 7796.76 2492.58 7797.76 2494.58 7798.76 2353.58 7798.76 2431.58 7799.76 2509.58 7800.76 2376.58 7801.76 2354.58 7802.76 2402.58 7803.76 2338.58 7804.76 2489.58 7805.76 2508.58 7805.76 2508.58 7806.76 2347.58 7807.76 2347.58 7808.76 2508.58 7809.76 2411.58 7810.76 2388.58 7811.76 2383.58 7811.76 2432.58 7812.76 2432.58 7813.76 2392.58 7814.76 2353.58 7815.76 2351.58 7816.76 2509.58 7817.76 2354.58 7817.76 2509.58 7818.76 2390.58 7819.76 2393.58 7820.76 2390.58 7821.76 2392.58 7822.76 2355.58 7823.76 2353.58 7824.76 2350.58 7824.76 2354.58 7825.76 2508.58 7826.76 2432.58 7827.76 2392.58 7828.76 2508.58 7829.76 2509.58 7830.76 2432.58 7830.76 2509.58 7831.76 2432.58 7832.76 2381.58 7833.76 2509.58 7834.76 2353.58 7835.76 2354.58 7836.76 2509.58 7836.76 2357.58 7837.76 2508.58 7838.76 2508.58 7839.76 2390.58 7840.76 2432.58 7841.76 2508.58 7842.76 2355.58 7843.76 2507.58 7843.76 2509.58 7844.76 2508.58 7845.76 2333.58 7846.76 2381.58 7847.76 2270.57 7848.76 2390.58 7849.76 2509.58 7849.76 2508.58 7850.76 2508.58 7851.76 2318.58 7852.76 2503.58 7853.76 2508.58 7854.76 2508.58 7855.76 2313.58 7855.76 2394.58 7856.76 2318.58 7857.76 2349.58 7858.76 2509.58 7859.76 2508.58 7860.76 2353.58 7861.76 2509.58 7862.76 2508.58 7862.76 2509.58 7863.76 2430.58 7864.76 2508.58 7865.76 2508.58 7866.76 2508.58 7867.76 2508.58 7868.76 2314.58 7868.76 2349.58 7869.76 2502.58 7870.76 2502.58 7871.76 2376.58 7872.76 2332.58 7873.76 2508.58 7874.76 2507.58 7874.76 2322.58 7875.76 2486.58 7876.76 2352.58 7877.76 2496.58 7878.76 2344.58 7879.76 2474.58 7880.76 2484.58 7881.76 2434.58 7881.76 2347.58 7882.76 2233.57 7883.76 2393.58 7884.76 2278.57 7885.76 2262.57 7886.76 2256.57 7887.76 2479.58 7887.76 2244.57 7888.76 2252.57 7889.76 2408.58 7890.76 2508.58 7891.76 2346.58 7892.76 2345.58 7893.76 2432.58 7893.76 2508.58 7894.76 2508.58 7895.76 2509.58 7896.76 2509.58 7897.76 2508.58 7898.76 2412.58 7899.76 2385.58 7899.76 2386.58 7900.76 2428.58 7901.76 2428.58 7902.76 2507.58 7903.76 2509.58 7904.76 2508.58 7905.76 2432.58 7906.76 2391.58 7906.76 2333.58 7907.76 2507.58 7908.76 2509.58 7909.76 2374.58 7910.76 2360.58 7911.76 2364.58 7912.76 2335.58 7912.76 2307.58 7913.76 2508.58 7914.76 2507.58 7915.76 2495.58 7916.76 2496.58 7917.76 2424.58 7918.76 2423.58 7918.76 2374.58 7919.76 2371.58 7920.76 2385.58 7921.76 2326.58 7922.76 2508.58 7923.76 2325.58 7924.76 2321.58 7925.76 2319.58 7925.76 2509.58 7926.76 2508.58 7927.76 2432.58 7928.76 2354.58 7929.76 2509.58 7930.76 2354.58 7931.76 2509.58 7931.76 2507.58 7932.76 2508.58 7933.76 2390.58 7934.76 2432.58 7935.76 2388.58 7936.76 2493.58 7937.76 2507.58 7937.76 2508.58 7938.76 2425.58 7939.76 2432.58 7940.76 2508.58 7941.76 2508.58 7942.76 2507.58 7943.76 2508.58 7944.76 2325.58 7944.76 2356.58 7945.76 2351.58 7946.76 2352.58 7947.76 2291.58 7948.76 2506.58 7949.76 2323.58 7950.76 2365.58 7950.76 2508.58 7951.76 2508.58 7952.76 2508.58 7953.76 2506.58 7954.76 2507.58 7955.76 2430.58 7956.76 2380.58 7956.76 2507.58 7957.76 2507.58 7958.76 2354.58 7959.76 2330.58 7960.76 2508.58 7961.76 2479.58 7962.76 2311.58 7963.76 2318.58 7963.76 2315.58 7964.76 2322.58 7965.76 2376.58 7966.76 2379.58 7967.76 2425.58 7968.76 2509.58 7969.76 2508.58 7969.76 2315.58 7970.76 2432.58 7971.76 2353.58 7972.76 2416.58 7973.76 2365.58 7974.76 2374.58 7975.76 2335.58 7975.76 2508.58 7976.76 2509.58 7977.76 2508.58 7978.76 2354.58 7979.76 2432.58 7980.76 2392.58 7981.76 2508.58 7982.76 2364.58 7982.76 2353.58 7983.76 2427.58 7984.76 2355.58 7985.76 2432.58 7986.76 2389.58 7987.76 2432.58 7988.76 2354.58 7988.76 2432.58 7989.76 2432.58 7990.76 2354.58 7991.76 2496.58 7992.76 2351.58 7993.76 2389.58 7994.76 2391.58 7994.76 2508.58 7995.76 2509.58 7996.76 2508.58 7997.76 2064.57 7998.76 2432.58 7999.76 2508.58 8000.76 2508.58 8000.76 2393.58 8001.76 2350.58 8002.76 2388.58 8003.76 2384.58 8004.76 2508.58 8005.76 2509.58 8006.76 2416.58 8007.76 2373.58 8007.76 2420.58 8008.76 2333.58 8009.76 2355.58 8010.76 2466.58 8011.76 2484.58 8012.76 2308.58 8013.76 2457.58 8013.76 2452.58 8014.76 2340.58 8015.76 2382.58 8016.76 2352.58 8017.76 2360.58 8018.76 2468.58 8019.76 2504.58 8019.76 2469.58 8020.76 2390.58 8021.76 2390.58 8022.76 2463.58 8023.76 2273.57 8024.76 2349.58 8025.76 2338.58 8026.76 2427.58 8026.76 2299.58 8027.76 2304.58 8028.76 2507.58 8029.76 2508.58 8030.76 2503.58 8031.76 2302.58 8032.76 2353.58 8032.76 2432.58 8033.76 2323.58 8034.76 2499.58 8035.76 2508.58 8036.76 2359.58 8037.76 2509.58 8038.76 2373.58 8038.76 2508.58 8039.76 2389.58 8040.76 2359.58 8041.76 2509.58 8042.76 2508.58 8043.76 2329.58 8044.76 2509.58 8045.76 2430.58 8045.76 2440.58 8046.76 2421.58 8047.76 2522.5 8048.76 2488.58 8049.76 2432.58 8050.76 2478.58 8051.76 2426.58 8051.76 2482.58 8052.76 2414.58 8053.76 2433.58 8054.76 2509.58 8055.76 2456.58 8056.76 2450.58 8057.76 2369.58 8057.76 2457.58 8058.76 2363.58 8059.76 2347.58 8060.76 2449.58 8061.76 2323.58 8062.76 2458.58 8063.76 2375.58 8064.76 2411.58 8064.76 2356.58 8065.76 2327.58 8066.76 2508.58 8067.76 2328.58 8068.76 2508.58 8069.76 2349.58 8070.76 2509.58 8070.76 2391.58 8071.76 2353.58 8072.76 2432.58 8073.76 2432.58 8074.76 2432.58 8075.76 2508.58 8076.76 2354.58 8076.76 2351.58 8077.77 2508.58 8078.77 2508.58 8079.77 2508.58 8080.77 2508.58 8081.77 2391.58 8082.77 2508.58 8083.77 2509.58 8083.77 2346.58 8084.77 2431.58 8085.77 2508.58 8086.77 2432.58 8087.77 2509.58 8088.77 2508.58 8089.77 2431.58 8089.77 2350.58 8090.77 2392.58 8091.77 2343.58 8092.77 2393.58 8093.77 2354.58 8094.77 2508.58 8095.77 2328.58 8095.77 2508.58 8096.77 2349.58 8097.77 2509.58 8098.77 2391.58 8099.77 2353.58 8100.77 2432.58 8101.77 2432.58 8101.77 2432.58 8102.77 2508.58 8103.77 2354.58 8104.77 2351.58 8105.77 2508.58 8106.77 2508.58 8107.77 2508.58 8108.77 2508.58 8108.77 2391.58 8109.77 2508.58 8110.77 2509.58 8111.77 2346.58 8112.77 2431.58 8113.77 2508.58 8114.77 2432.58 8114.77 2509.58 8115.77 2508.58 8116.77 2431.58 8117.77 2350.58 8118.77 2392.58 8119.77 2343.58 8120.77 2393.58 8120.77 2354.58 8121.77 2508.58 8122.77 2392.58 8123.77 2508.58 8124.77 2392.58 8125.77 2432.58 8126.77 2509.58 8127.77 2508.58 8127.77 2508.58 8128.77 2509.58 8129.77 2339.58 8130.77 2478.58 8131.77 2313.58 8132.77 2425.58 8133.77 2335.58 8133.77 2426.58 8134.77 2391.58 8135.77 2390.58 8136.77 2507.58 8137.77 2507.58 8138.77 2509.58 8139.77 2354.58 8139.77 2508.58 8140.77 2390.58 8141.77 2508.58 8142.77 2432.58 8143.77 2432.58 8144.77 2509.58 8145.77 2503.58 8146.77 2429.58 8146.77 2354.58 8147.77 2354.58 8148.77 2337.58 8149.77 2372.58 8150.77 2371.58 8151.77 2507.58 8152.77 2432.58 8152.77 2376.58 8153.77 2380.58 8154.77 2339.58 8155.77 2509.58 8156.77 2432.58 8157.77 2392.58 8158.77 2389.58 8158.77 2391.58 8159.77 2432.58 8160.77 2509.58 8161.77 2507.58 8162.77 2391.58 8163.77 2432.58 8164.77 2346.58 8165.77 2380.58 8165.77 2393.58 8166.77 2432.58 8167.77 2396.58 8168.77 2261.57 8169.77 2508.58 8170.77 2392.58 8171.77 2392.58 8171.77 2508.58 8172.77 2509.58 8173.77 2391.58 8174.77 2432.58 8175.77 2432.58 8176.77 2433.58 8177.77 2354.58 8177.77 2431.58 8178.77 2428.58 8179.77 2506.58 8180.77 2509.58 8181.77 2381.58 8182.77 2371.58 8183.77 2377.58 8183.77 2508.58 8184.77 2509.58 8185.77 2509.58 8186.77 2371.58 8187.77 2509.58 8188.77 2432.58 8189.77 2299.58 8190.77 2389.58 8190.77 2421.58 8191.77 2360.58 8192.77 2310.58 8193.77 2377.58 8194.77 2297.58 8195.77 2489.58 8196.77 2346.58 8196.77 2303.58 8197.77 2461.58 8198.77 2419.58 8199.77 2430.58 8200.77 2360.58 8201.77 2416.58 8202.77 2346.58 8202.77 2361.58 8203.77 2406.58 8204.77 2316.58 8205.77 2314.58 8206.77 2318.58 8207.77 2409.58 8208.77 2296.58 8209.77 2424.58 8209.77 2321.58 8210.77 2331.58 8211.77 2386.58 8212.77 2289.58 8213.77 2285.58 8214.77 2376.58 8215.77 2427.58 8215.77 2446.58 8216.77 2338.58 8217.77 2307.58 8218.77 2290.58 8219.5 2428.58" stroke="#70AD47" stroke-width="3.4375" stroke-linecap="round" stroke-linejoin="round" stroke-miterlimit="10" fill="none"/></g><g clip-path="url(#clip6)"><text font-family="LM Roman 10,LM Roman 10_MSFontService,sans-serif" font-weight="700" font-size="64" transform="matrix(1 0 0 1 5711.55 2568)">0</text></g><g clip-path="url(#clip7)"><text font-family="LM Roman 10,LM Roman 10_MSFontService,sans-serif" font-weight="700" font-size="64" transform="matrix(1 0 0 1 5637.76 2503)">200</text></g><g clip-path="url(#clip8)"><text font-family="LM Roman 10,LM Roman 10_MSFontService,sans-serif" font-weight="700" font-size="64" transform="matrix(1 0 0 1 5637.76 2438)">400</text></g><g clip-path="url(#clip9)"><text font-family="LM Roman 10,LM Roman 10_MSFontService,sans-serif" font-weight="700" font-size="64" transform="matrix(1 0 0 1 5637.76 2373)">600</text></g><g clip-path="url(#clip10)"><text font-family="LM Roman 10,LM Roman 10_MSFontService,sans-serif" font-weight="700" font-size="64" transform="matrix(1 0 0 1 5637.76 2308)">800</text></g><g clip-path="url(#clip11)"><text font-family="LM Roman 10,LM Roman 10_MSFontService,sans-serif" font-weight="700" font-size="64" transform="matrix(1 0 0 1 5600.86 2244)">1000</text></g><g clip-path="url(#clip12)"><text font-family="LM Roman 10,LM Roman 10_MSFontService,sans-serif" font-weight="700" font-size="64" transform="matrix(1 0 0 1 5600.86 2179)">1200</text></g><g clip-path="url(#clip13)"><text font-family="LM Roman 10,LM Roman 10_MSFontService,sans-serif" font-weight="700" font-size="64" transform="matrix(1 0 0 1 5600.86 2114)">1400</text></g><g clip-path="url(#clip14)"><text font-family="LM Roman 10,LM Roman 10_MSFontService,sans-serif" font-weight="700" font-size="64" transform="matrix(1 0 0 1 5600.86 2049)">1600</text></g><g clip-path="url(#clip15)"><text font-family="LM Roman 10,LM Roman 10_MSFontService,sans-serif" font-weight="700" font-size="64" transform="matrix(1 0 0 1 5600.86 1984)">1800</text></g><g clip-path="url(#clip16)"><text font-family="LM Roman 10,LM Roman 10_MSFontService,sans-serif" font-weight="700" font-size="64" transform="matrix(1 0 0 1 5600.86 1919)">2000</text></g><g clip-path="url(#clip17)"><text font-family="LM Roman 10,LM Roman 10_MSFontService,sans-serif" font-weight="700" font-size="50" transform="matrix(0.707107 -0.707107 0.707107 0.707107 5688.02 2772)">00:00:00</text></g><g clip-path="url(#clip18)"><text font-family="LM Roman 10,LM Roman 10_MSFontService,sans-serif" font-weight="700" font-size="50" transform="matrix(0.707107 -0.707107 0.707107 0.707107 5792.48 2772)">00:00:25</text></g><g clip-path="url(#clip19)"><text font-family="LM Roman 10,LM Roman 10_MSFontService,sans-serif" font-weight="700" font-size="50" transform="matrix(0.707107 -0.707107 0.707107 0.707107 5896.93 2772)">00:00:51</text></g><g clip-path="url(#clip20)"><text font-family="LM Roman 10,LM Roman 10_MSFontService,sans-serif" font-weight="700" font-size="50" transform="matrix(0.707107 -0.707107 0.707107 0.707107 6001.39 2772)">00:01:19</text></g><g clip-path="url(#clip21)"><text font-family="LM Roman 10,LM Roman 10_MSFontService,sans-serif" font-weight="700" font-size="50" transform="matrix(0.707107 -0.707107 0.707107 0.707107 6105.84 2772)">00:01:46</text></g><g clip-path="url(#clip22)"><text font-family="LM Roman 10,LM Roman 10_MSFontService,sans-serif" font-weight="700" font-size="50" transform="matrix(0.707107 -0.707107 0.707107 0.707107 6210.3 2772)">00:02:11</text></g><g clip-path="url(#clip23)"><text font-family="LM Roman 10,LM Roman 10_MSFontService,sans-serif" font-weight="700" font-size="50" transform="matrix(0.707107 -0.707107 0.707107 0.707107 6314.75 2772)">00:02:33</text></g><g clip-path="url(#clip24)"><text font-family="LM Roman 10,LM Roman 10_MSFontService,sans-serif" font-weight="700" font-size="50" transform="matrix(0.707107 -0.707107 0.707107 0.707107 6419.21 2772)">00:03:00</text></g><g clip-path="url(#clip25)"><text font-family="LM Roman 10,LM Roman 10_MSFontService,sans-serif" font-weight="700" font-size="50" transform="matrix(0.707107 -0.707107 0.707107 0.707107 6523.66 2772)">00:03:25</text></g><g clip-path="url(#clip26)"><text font-family="LM Roman 10,LM Roman 10_MSFontService,sans-serif" font-weight="700" font-size="50" transform="matrix(0.707107 -0.707107 0.707107 0.707107 6628.12 2772)">00:03:49</text></g><g clip-path="url(#clip27)"><text font-family="LM Roman 10,LM Roman 10_MSFontService,sans-serif" font-weight="700" font-size="50" transform="matrix(0.707107 -0.707107 0.707107 0.707107 6732.57 2772)">00:04:14</text></g><g clip-path="url(#clip28)"><text font-family="LM Roman 10,LM Roman 10_MSFontService,sans-serif" font-weight="700" font-size="50" transform="matrix(0.707107 -0.707107 0.707107 0.707107 6837.03 2772)">00:04:37</text></g><g clip-path="url(#clip29)"><text font-family="LM Roman 10,LM Roman 10_MSFontService,sans-serif" font-weight="700" font-size="50" transform="matrix(0.707107 -0.707107 0.707107 0.707107 6941.48 2772)">00:05:06</text></g><g clip-path="url(#clip30)"><text font-family="LM Roman 10,LM Roman 10_MSFontService,sans-serif" font-weight="700" font-size="50" transform="matrix(0.707107 -0.707107 0.707107 0.707107 7045.94 2772)">00:05:33</text></g><g clip-path="url(#clip31)"><text font-family="LM Roman 10,LM Roman 10_MSFontService,sans-serif" font-weight="700" font-size="50" transform="matrix(0.707107 -0.707107 0.707107 0.707107 7150.4 2772)">00:06:04</text></g><g clip-path="url(#clip32)"><text font-family="LM Roman 10,LM Roman 10_MSFontService,sans-serif" font-weight="700" font-size="50" transform="matrix(0.707107 -0.707107 0.707107 0.707107 7254.85 2772)">00:06:28</text></g><g clip-path="url(#clip33)"><text font-family="LM Roman 10,LM Roman 10_MSFontService,sans-serif" font-weight="700" font-size="50" transform="matrix(0.707107 -0.707107 0.707107 0.707107 7359.31 2772)">00:06:56</text></g><g clip-path="url(#clip34)"><text font-family="LM Roman 10,LM Roman 10_MSFontService,sans-serif" font-weight="700" font-size="50" transform="matrix(0.707107 -0.707107 0.707107 0.707107 7463.76 2772)">00:07:20</text></g><g clip-path="url(#clip35)"><text font-family="LM Roman 10,LM Roman 10_MSFontService,sans-serif" font-weight="700" font-size="50" transform="matrix(0.707107 -0.707107 0.707107 0.707107 7568.22 2772)">00:07:45</text></g><g clip-path="url(#clip36)"><text font-family="LM Roman 10,LM Roman 10_MSFontService,sans-serif" font-weight="700" font-size="50" transform="matrix(0.707107 -0.707107 0.707107 0.707107 7672.67 2772)">00:08:14</text></g><g clip-path="url(#clip37)"><text font-family="LM Roman 10,LM Roman 10_MSFontService,sans-serif" font-weight="700" font-size="50" transform="matrix(0.707107 -0.707107 0.707107 0.707107 7777.13 2772)">00:08:39</text></g><g clip-path="url(#clip38)"><text font-family="LM Roman 10,LM Roman 10_MSFontService,sans-serif" font-weight="700" font-size="50" transform="matrix(0.707107 -0.707107 0.707107 0.707107 7881.58 2772)">00:09:02</text></g><g clip-path="url(#clip39)"><text font-family="LM Roman 10,LM Roman 10_MSFontService,sans-serif" font-weight="700" font-size="50" transform="matrix(0.707107 -0.707107 0.707107 0.707107 7986.04 2772)">00:09:27</text></g><g clip-path="url(#clip40)"><text font-family="LM Roman 10,LM Roman 10_MSFontService,sans-serif" font-weight="400" font-size="64" transform="matrix(6.12323e-17 -1 1 6.12323e-17 5517.77 2546)">Czas przetwarzania (ms)</text></g><g clip-path="url(#clip41)"><text font-family="LM Roman 10,LM Roman 10_MSFontService,sans-serif" font-weight="400" font-size="64" transform="matrix(1 0 0 1 6696.48 2918)">Czas trwania ewaluacji</text></g><g clip-path="url(#clip42)"><text font-family="LM Roman 10,LM Roman 10_MSFontService,sans-serif" font-weight="400" font-size="73" transform="matrix(1 0 0 1 6054.59 1699)">Interfejs API: C# .NET / Metoda HTTP: POST / </text></g><g clip-path="url(#clip43)"><text font-family="LM Roman 10,LM Roman 10_MSFontService,sans-serif" font-weight="400" font-size="73" transform="matrix(1 0 0 1 6602.09 1803)">Platforma: Azure</text></g><g clip-path="url(#clip44)"><rect x="5833.5" y="1915.5" width="288" height="104" stroke="#D9D9D9" stroke-width="3.4375" stroke-linejoin="round" stroke-miterlimit="10" fill="#FFFFFF"/></g><g clip-path="url(#clip45)"><path d="M5861.5 1967.5 5949.5 1967.5" stroke="#70AD47" stroke-width="3.4375" stroke-linecap="round" stroke-linejoin="round" stroke-miterlimit="10" fill="none" fill-rule="evenodd"/></g><g clip-path="url(#clip46)"><text font-family="LM Roman 10,LM Roman 10_MSFontService,sans-serif" font-weight="400" font-size="55" transform="matrix(1 0 0 1 5959.06 1985)">POST</text></g></g></svg>