<svg width="2833" height="1362" xmlns="http://www.w3.org/2000/svg" xmlns:xlink="http://www.w3.org/1999/xlink" xml:space="preserve" overflow="hidden"><defs><clipPath id="clip0"><rect x="2329" y="138" width="2833" height="1362"/></clipPath><clipPath id="clip1"><rect x="2329" y="137" width="2832" height="1363"/></clipPath><clipPath id="clip2"><rect x="2329" y="137" width="2832" height="1363"/></clipPath><clipPath id="clip3"><rect x="2329" y="137" width="2832" height="1363"/></clipPath><clipPath id="clip4"><rect x="2329" y="137" width="2832" height="1363"/></clipPath><clipPath id="clip5"><rect x="2709" y="455" width="2355" height="652"/></clipPath><clipPath id="clip6"><rect x="2329" y="137" width="2832" height="1363"/></clipPath><clipPath id="clip7"><rect x="2329" y="137" width="2832" height="1363"/></clipPath><clipPath id="clip8"><rect x="2329" y="137" width="2832" height="1363"/></clipPath><clipPath id="clip9"><rect x="2329" y="137" width="2832" height="1363"/></clipPath><clipPath id="clip10"><rect x="2329" y="137" width="2832" height="1363"/></clipPath><clipPath id="clip11"><rect x="2329" y="137" width="2832" height="1363"/></clipPath><clipPath id="clip12"><rect x="2329" y="137" width="2832" height="1363"/></clipPath><clipPath id="clip13"><rect x="2329" y="137" width="2832" height="1363"/></clipPath><clipPath id="clip14"><rect x="2329" y="137" width="2832" height="1363"/></clipPath><clipPath id="clip15"><rect x="2329" y="137" width="2832" height="1363"/></clipPath><clipPath id="clip16"><rect x="2329" y="137" width="2832" height="1363"/></clipPath><clipPath id="clip17"><rect x="2329" y="137" width="2832" height="1363"/></clipPath><clipPath id="clip18"><rect x="2329" y="137" width="2832" height="1363"/></clipPath><clipPath id="clip19"><rect x="2329" y="137" width="2832" height="1363"/></clipPath><clipPath id="clip20"><rect x="2329" y="137" width="2832" height="1363"/></clipPath><clipPath id="clip21"><rect x="2329" y="137" width="2832" height="1363"/></clipPath><clipPath id="clip22"><rect x="2329" y="137" width="2832" height="1363"/></clipPath><clipPath id="clip23"><rect x="2329" y="137" width="2832" height="1363"/></clipPath><clipPath id="clip24"><rect x="2329" y="137" width="2832" height="1363"/></clipPath><clipPath id="clip25"><rect x="2329" y="137" width="2832" height="1363"/></clipPath><clipPath id="clip26"><rect x="2329" y="137" width="2832" height="1363"/></clipPath><clipPath id="clip27"><rect x="2329" y="137" width="2832" height="1363"/></clipPath><clipPath id="clip28"><rect x="2329" y="137" width="2832" height="1363"/></clipPath><clipPath id="clip29"><rect x="2329" y="137" width="2832" height="1363"/></clipPath><clipPath id="clip30"><rect x="2329" y="137" width="2832" height="1363"/></clipPath><clipPath id="clip31"><rect x="2329" y="137" width="2832" height="1363"/></clipPath><clipPath id="clip32"><rect x="2329" y="137" width="2832" height="1363"/></clipPath><clipPath id="clip33"><rect x="2329" y="137" width="2832" height="1363"/></clipPath><clipPath id="clip34"><rect x="2329" y="137" width="2832" height="1363"/></clipPath><clipPath id="clip35"><rect x="2329" y="137" width="2832" height="1363"/></clipPath><clipPath id="clip36"><rect x="2329" y="137" width="2832" height="1363"/></clipPath><clipPath id="clip37"><rect x="2329" y="137" width="2832" height="1363"/></clipPath><clipPath id="clip38"><rect x="2329" y="137" width="2832" height="1363"/></clipPath><clipPath id="clip39"><rect x="2329" y="137" width="2832" height="1363"/></clipPath><clipPath id="clip40"><rect x="2329" y="137" width="2832" height="1363"/></clipPath><clipPath id="clip41"><rect x="2329" y="137" width="2832" height="1363"/></clipPath><clipPath id="clip42"><rect x="2329" y="137" width="2832" height="1363"/></clipPath><clipPath id="clip43"><rect x="2329" y="137" width="2832" height="1363"/></clipPath><clipPath id="clip44"><rect x="2329" y="137" width="2832" height="1363"/></clipPath><clipPath id="clip45"><rect x="2329" y="137" width="2832" height="1363"/></clipPath><clipPath id="clip46"><rect x="2329" y="137" width="2832" height="1363"/></clipPath></defs><g clip-path="url(#clip0)" transform="translate(-2329 -138)"><rect x="2329" y="138" width="2833" height="1362" fill="#FFFFFF"/><g clip-path="url(#clip1)"><path d="M2709.5 1071.54 5061.5 1071.54M2709.5 1006.53 5061.5 1006.53M2709.5 941.531 5061.5 941.531M2709.5 876.529 5061.5 876.529M2709.5 811.527 5061.5 811.527M2709.5 747.525 5061.5 747.525M2709.5 682.523 5061.5 682.523M2709.5 617.52 5061.5 617.52M2709.5 552.518 5061.5 552.518M2709.5 487.516 5061.5 487.516" stroke="#F2F2F2" stroke-width="3.4375" stroke-linejoin="round" stroke-miterlimit="10" fill="none"/></g><g clip-path="url(#clip2)"><path d="M2709.5 1038.53 5061.5 1038.53M2709.5 973.532 5061.5 973.532M2709.5 909.53 5061.5 909.53M2709.5 844.528 5061.5 844.528M2709.5 779.526 5061.5 779.526M2709.5 714.524 5061.5 714.524M2709.5 649.521 5061.5 649.521M2709.5 584.519 5061.5 584.519M2709.5 520.517 5061.5 520.517M2709.5 455.5 5061.5 455.5" stroke="#D9D9D9" stroke-width="3.4375" stroke-linejoin="round" stroke-miterlimit="10" fill="none"/></g><g clip-path="url(#clip3)"><rect x="2709.5" y="455.5" width="2352" height="648" stroke="#D9D9D9" stroke-width="3.4375" stroke-linejoin="round" stroke-miterlimit="10" fill="none"/></g><g clip-path="url(#clip4)"><path d="M2709.5 1103.5 5061.5 1103.5" stroke="#D9D9D9" stroke-width="3.4375" stroke-linejoin="round" stroke-miterlimit="10" fill="none" fill-rule="evenodd"/></g><g clip-path="url(#clip5)"><path d="M2709.5 909.53 2710.59 1065.54 2711.59 863.529 2711.59 822.527 2712.59 782.526 2713.59 780.526 2714.59 821.527 2715.59 1065.54 2716.59 820.527 2717.59 820.527 2717.59 1027.53 2718.59 785.526 2719.59 780.526 2720.59 986.533 2721.59 825.527 2722.59 704.523 2722.59 1018.53 2723.59 1018.53 2724.59 737.524 2725.59 860.528 2726.59 985.533 2727.59 774.526 2728.59 989.533 2728.59 1065.54 2729.59 1065.54 2730.59 1065.54 2731.59 988.533 2732.59 1065.54 2733.59 989.533 2733.59 1040.53 2734.59 1039.53 2735.59 1065.54 2736.59 963.532 2737.59 822.527 2738.59 843.528 2739.59 831.527 2739.59 805.527 2740.59 885.529 2741.59 885.529 2742.59 962.532 2743.59 1059.53 2744.59 912.53 2744.59 1065.54 2745.59 860.528 2746.59 827.527 2747.59 985.533 2748.59 984.532 2749.59 829.527 2749.59 1065.54 2750.59 755.525 2751.59 937.531 2752.59 934.531 2753.59 937.531 2754.59 1052.53 2755.59 1028.53 2755.59 1055.53 2756.59 775.526 2757.59 965.532 2758.59 762.525 2759.59 764.525 2760.59 727.524 2760.59 910.53 2761.59 1065.54 2762.59 1050.53 2763.59 1059.53 2764.59 906.53 2765.59 1065.54 2766.59 867.529 2766.59 1065.54 2767.59 930.531 2768.59 886.529 2769.59 1026.53 2770.59 872.529 2771.59 1064.54 2771.59 1017.53 2772.59 1023.53 2773.59 1024.53 2774.59 1061.53 2775.59 948.531 2776.59 900.53 2777.59 988.533 2777.59 988.533 2778.59 968.532 2779.59 1028.53 2780.59 1021.53 2781.59 911.53 2782.59 911.53 2782.59 906.53 2783.59 904.53 2784.59 874.529 2785.59 859.528 2786.59 856.528 2787.59 870.529 2788.59 1016.53 2788.59 847.528 2789.59 1047.53 2790.59 1051.53 2791.59 1049.53 2792.59 913.53 2793.59 891.529 2793.59 946.531 2794.59 1061.53 2795.59 1065.54 2796.59 1064.54 2797.59 921.53 2798.59 983.532 2799.59 1018.53 2799.59 892.529 2800.59 832.528 2801.59 877.529 2802.59 872.529 2803.59 1065.54 2804.59 825.527 2804.59 824.527 2805.59 910.53 2806.59 1017.53 2807.59 887.529 2808.59 882.529 2809.59 1063.54 2810.59 1063.54 2810.59 985.533 2811.59 974.532 2812.59 1064.54 2813.59 1065.54 2814.59 1065.54 2815.59 988.533 2815.59 1065.54 2816.59 985.533 2817.59 1065.54 2818.59 1059.53 2819.59 988.533 2820.59 1060.53 2821.59 948.531 2821.59 1065.54 2822.59 1065.54 2823.59 954.531 2824.59 1065.54 2825.59 988.533 2826.59 886.529 2826.59 915.53 2827.59 915.53 2828.59 988.533 2829.59 1063.54 2830.59 1063.54 2831.59 1065.54 2831.59 1065.54 2832.59 943.531 2833.59 1065.54 2834.59 1065.54 2835.59 1061.53 2836.59 959.532 2837.59 1064.54 2837.59 1065.54 2838.59 883.529 2839.59 1065.54 2840.59 988.533 2841.59 1065.54 2842.59 1065.54 2842.59 870.529 2843.59 988.533 2844.59 987.533 2845.59 910.53 2846.59 1065.54 2847.59 900.53 2848.59 945.531 2848.59 1065.54 2849.59 1065.54 2850.59 944.531 2851.59 910.53 2852.59 988.533 2853.59 1065.54 2853.59 889.529 2854.59 988.533 2855.59 988.533 2856.59 1065.54 2857.59 949.531 2858.59 947.531 2859.59 1065.54 2859.59 948.531 2860.59 1065.54 2861.59 946.531 2862.59 1064.54 2863.59 984.532 2864.59 1065.54 2864.59 947.531 2865.59 1065.54 2866.59 976.532 2867.59 988.533 2868.59 949.531 2869.59 1065.54 2870.59 1065.54 2870.59 1065.54 2871.59 909.53 2872.59 907.53 2873.59 948.531 2874.59 1065.54 2875.59 949.531 2875.59 910.53 2876.59 1065.54 2877.59 987.533 2878.59 1065.54 2879.59 1063.54 2880.59 989.533 2881.59 1063.54 2881.59 1065.54 2882.59 1064.54 2883.59 1063.54 2884.59 909.53 2885.59 983.532 2886.59 1065.54 2886.59 859.528 2887.59 200.507 2888.59 1065.54 2889.59 850.528 2890.59 932.531 2891.6 809.527 2892.6 1065.54 2892.6 1065.54 2893.6 941.531 2894.6 1059.53 2895.6 944.531 2896.6 946.531 2897.6 1022.53 2897.6 1065.54 2898.6 947.531 2899.6 1065.54 2900.6 939.531 2901.6 948.531 2902.6 949.531 2903.6 1024.53 2903.6 911.53 2904.6 986.533 2905.6 988.533 2906.6 1065.54 2907.6 1065.54 2908.6 868.529 2908.6 910.53 2909.6 904.53 2910.6 941.531 2911.6 926.531 2912.6 1065.54 2913.6 934.531 2913.6 893.529 2914.6 891.529 2915.6 904.53 2916.6 880.529 2917.6 1065.54 2918.6 1065.54 2919.6 989.533 2919.6 843.528 2920.6 1065.54 2921.6 1065.54 2922.6 988.533 2923.6 946.531 2924.6 1065.54 2924.6 1065.54 2925.6 1064.54 2926.6 1065.54 2927.6 986.533 2928.6 942.531 2929.6 900.53 2930.6 988.533 2930.6 904.53 2931.6 987.533 2932.6 1065.54 2933.6 948.531 2934.6 1065.54 2935.6 1065.54 2935.6 1065.54 2936.6 949.531 2937.6 1065.54 2938.6 941.531 2939.6 1065.54 2940.6 1064.54 2941.6 850.528 2941.6 1065.54 2942.6 1065.54 2943.6 911.53 2944.6 1047.53 2945.6 910.53 2946.6 948.531 2946.6 978.532 2947.6 949.531 2948.6 1065.54 2949.6 888.529 2950.6 892.529 2951.6 1065.54 2952.6 898.53 2952.6 895.53 2953.6 1065.54 2954.6 989.533 2955.6 989.533 2956.6 947.531 2957.6 1065.54 2957.6 1065.54 2958.6 1059.53 2959.6 1060.53 2960.6 908.53 2961.6 905.53 2962.6 949.531 2963.6 983.532 2963.6 989.533 2964.6 1065.54 2965.6 1064.54 2966.6 988.533 2967.6 989.533 2968.6 948.531 2968.6 948.531 2969.6 947.531 2970.6 1060.53 2971.6 1061.53 2972.6 1065.54 2973.6 1065.54 2974.6 948.531 2974.6 1065.54 2975.6 1065.54 2976.6 1065.54 2977.6 1065.54 2978.6 986.533 2979.6 1065.54 2979.6 1065.54 2980.6 1056.53 2981.6 1063.54 2982.6 1065.54 2983.6 900.53 2984.6 970.532 2985.6 904.53 2985.6 945.531 2986.6 1061.53 2987.6 894.529 2988.6 906.53 2989.6 985.533 2990.6 972.532 2990.6 893.529 2991.6 938.531 2992.6 1065.54 2993.6 987.533 2994.6 989.533 2995.6 947.531 2995.6 983.532 2996.6 1063.54 2997.6 909.53 2998.6 1064.54 2999.6 1065.54 3000.6 910.53 3001.6 1064.54 3001.6 892.529 3002.6 900.53 3003.6 948.531 3004.6 986.533 3005.6 1037.53 3006.6 987.533 3006.6 929.531 3007.6 905.53 3008.6 910.53 3009.6 1065.54 3010.6 1065.54 3011.6 845.528 3012.6 1065.54 3012.6 947.531 3013.6 945.531 3014.6 944.531 3015.6 887.529 3016.6 975.532 3017.6 976.532 3017.6 988.533 3018.6 901.53 3019.6 1065.54 3020.6 1064.54 3021.6 980.532 3022.6 885.529 3023.6 946.531 3023.6 929.531 3024.6 1065.54 3025.6 1064.54 3026.6 909.53 3027.6 905.53 3028.6 1063.54 3028.6 1057.53 3029.6 903.53 3030.6 971.532 3031.6 966.532 3032.6 824.527 3033.6 987.533 3034.6 1024.53 3034.6 1063.54 3035.6 911.53 3036.6 1063.54 3037.6 1065.54 3038.6 885.529 3039.6 1065.54 3039.6 1062.53 3040.6 987.533 3041.6 1065.54 3042.6 892.529 3043.6 947.531 3044.6 1065.54 3045.6 989.533 3045.6 1065.54 3046.6 1065.54 3047.6 1065.54 3048.6 1063.54 3049.6 1064.54 3050.6 900.53 3050.6 949.531 3051.6 948.531 3052.6 943.531 3053.6 1065.54 3054.6 986.533 3055.6 841.528 3056.6 940.531 3056.6 1065.54 3057.6 1065.54 3058.6 1063.54 3059.6 947.531 3060.6 986.533 3061.6 1065.54 3061.6 947.531 3062.6 1052.53 3063.6 947.531 3064.6 1064.54 3065.6 1062.53 3066.6 1062.53 3067.6 902.53 3067.6 1061.53 3068.6 895.53 3069.6 1065.54 3070.6 1065.54 3071.6 896.53 3072.6 862.529 3072.6 901.53 3073.6 988.533 3074.6 948.531 3075.6 1065.54 3076.6 987.533 3077.6 949.531 3078.6 948.531 3078.6 949.531 3079.6 988.533 3080.6 987.533 3081.6 989.533 3082.6 910.53 3083.6 1065.54 3083.6 988.533 3084.6 1065.54 3085.6 1060.53 3086.6 910.53 3087.6 946.531 3088.6 967.532 3088.6 930.531 3089.6 923.53 3090.6 984.532 3091.6 982.532 3092.6 988.533 3093.6 1064.54 3094.6 1065.54 3094.6 882.529 3095.6 1065.54 3096.6 988.533 3097.6 1065.54 3098.6 949.531 3099.6 1065.54 3099.6 946.531 3100.6 1065.54 3101.6 943.531 3102.6 909.53 3103.6 903.53 3104.6 903.53 3105.6 988.533 3105.6 988.533 3106.6 988.533 3107.6 988.533 3108.6 989.533 3109.6 911.53 3110.6 1047.53 3110.6 910.53 3111.6 1058.53 3112.6 1061.53 3113.6 901.53 3114.6 899.53 3115.6 911.53 3116.6 1065.54 3116.6 1065.54 3117.6 986.533 3118.6 949.531 3119.6 945.531 3120.6 989.533 3121.6 1065.54 3121.6 988.533 3122.6 937.531 3123.6 1062.53 3124.6 1065.54 3125.6 1064.54 3126.6 1065.54 3127.6 1051.53 3127.6 908.53 3128.6 1055.53 3129.6 1065.54 3130.6 946.531 3131.6 948.531 3132.6 1065.54 3132.6 986.533 3133.6 1063.54 3134.6 1065.54 3135.6 1065.54 3136.6 1065.54 3137.6 1065.54 3138.6 1065.54 3138.6 1065.54 3139.6 1065.54 3140.6 931.531 3141.6 1065.54 3142.6 934.531 3143.6 877.529 3143.6 928.531 3144.6 1045.53 3145.6 1065.54 3146.6 901.53 3147.6 885.529 3148.6 1065.54 3149.6 897.53 3149.6 989.533 3150.6 1065.54 3151.6 987.533 3152.6 1065.54 3153.6 1057.53 3154.6 1063.54 3154.6 1058.53 3155.6 908.53 3156.6 902.53 3157.6 923.53 3158.6 906.53 3159.6 949.531 3160.6 981.532 3160.6 988.533 3161.6 988.533 3162.6 1065.54 3163.6 1065.54 3164.6 1059.53 3165.6 1065.54 3165.6 944.531 3166.6 1041.53 3167.6 927.531 3168.6 968.532 3169.6 904.53 3170.6 898.53 3170.6 928.531 3171.6 1065.54 3172.6 920.53 3173.6 1000.53 3174.6 898.53 3175.6 1065.54 3176.6 1065.54 3176.6 952.531 3177.6 946.531 3178.6 959.532 3179.6 949.531 3180.6 1055.53 3181.6 1064.54 3181.6 899.53 3182.6 911.53 3183.6 941.531 3184.6 904.53 3185.6 1065.54 3186.6 1065.54 3187.6 1065.54 3187.6 948.531 3188.6 940.531 3189.6 1065.54 3190.6 1065.54 3191.6 1064.54 3192.6 1057.53 3192.6 911.53 3193.6 938.531 3194.6 934.531 3195.6 900.53 3196.6 946.531 3197.61 988.533 3198.61 987.533 3198.61 988.533 3199.61 1065.54 3200.61 1063.54 3201.61 1065.54 3202.61 1065.54 3203.61 1065.54 3203.61 948.531 3204.61 1040.53 3205.61 929.531 3206.61 927.531 3207.61 924.53 3208.61 1065.54 3209.61 982.532 3209.61 890.529 3210.61 991.533 3211.61 882.529 3212.61 1063.54 3213.61 1060.53 3214.61 1062.53 3214.61 1061.53 3215.61 1056.53 3216.61 937.531 3217.61 900.53 3218.61 1063.54 3219.61 878.529 3220.61 875.529 3220.61 932.531 3221.61 1065.54 3222.61 1065.54 3223.61 1063.54 3224.61 980.532 3225.61 982.532 3225.61 1053.53 3226.61 1054.53 3227.61 897.53 3228.61 1065.54 3229.61 963.532 3230.61 906.53 3231.61 1063.54 3231.61 880.529 3232.61 948.531 3233.61 940.531 3234.61 979.532 3235.61 988.533 3236.61 979.532 3236.61 948.531 3237.61 1065.54 3238.61 952.531 3239.61 1065.54 3240.61 1065.54 3241.61 1065.54 3242.61 946.531 3242.61 925.531 3243.61 887.529 3244.61 1065.54 3245.61 905.53 3246.61 988.533 3247.61 1065.54 3247.61 1065.54 3248.61 988.533 3249.61 988.533 3250.61 1063.54 3251.61 988.533 3252.61 947.531 3252.61 929.531 3253.61 948.531 3254.61 942.531 3255.61 891.529 3256.61 878.529 3257.61 1062.53 3258.61 951.531 3258.61 1065.54 3259.61 1065.54 3260.61 984.532 3261.61 1064.54 3262.61 1065.54 3263.61 1040.53 3263.61 1065.54 3264.61 1065.54 3265.61 910.53 3266.61 1065.54 3267.61 910.53 3268.61 901.53 3269.61 1065.54 3269.61 945.531 3270.61 908.53 3271.61 988.533 3272.61 941.531 3273.61 987.533 3274.61 989.533 3274.61 1065.54 3275.61 1063.54 3276.61 1065.54 3277.61 1037.53 3278.61 1063.54 3279.61 949.531 3280.61 902.53 3280.61 926.531 3281.61 907.53 3282.61 984.532 3283.61 1058.53 3284.61 867.529 3285.61 880.529 3285.61 988.533 3286.61 909.53 3287.61 983.532 3288.61 886.529 3289.61 984.532 3290.61 1065.54 3291.61 947.531 3291.61 943.531 3292.61 890.529 3293.61 890.529 3294.61 881.529 3295.61 1065.54 3296.61 889.529 3296.61 927.531 3297.61 900.53 3298.61 969.532 3299.61 985.533 3300.61 989.533 3301.61 987.533 3302.61 1064.54 3302.61 1065.54 3303.61 909.53 3304.61 909.53 3305.61 910.53 3306.61 905.53 3307.61 897.53 3307.61 906.53 3308.61 948.531 3309.61 988.533 3310.61 987.533 3311.61 1065.54 3312.61 988.533 3313.61 986.533 3313.61 1065.54 3314.61 1062.53 3315.61 1061.53 3316.61 947.531 3317.61 941.531 3318.61 927.531 3318.61 927.531 3319.61 1065.54 3320.61 968.532 3321.61 1063.54 3322.61 982.532 3323.61 985.533 3324.61 1065.54 3324.61 1061.53 3325.61 1065.54 3326.61 988.533 3327.61 1065.54 3328.61 1050.53 3329.61 946.531 3329.61 937.531 3330.61 904.53 3331.61 895.53 3332.61 890.529 3333.61 1047.53 3334.61 917.53 3334.61 1065.54 3335.61 1065.54 3336.61 1065.54 3337.61 988.533 3338.61 988.533 3339.61 982.532 3340.61 949.531 3340.61 1056.53 3341.61 949.531 3342.61 905.53 3343.61 1063.54 3344.61 938.531 3345.61 985.533 3345.61 904.53 3346.61 942.531 3347.61 988.533 3348.61 1065.54 3349.61 988.533 3350.61 988.533 3351.61 1065.54 3351.61 1057.53 3352.61 936.531 3353.61 791.526 3354.61 907.53 3355.61 948.531 3356.61 888.529 3356.61 887.529 3357.61 973.532 3358.61 1065.54 3359.61 1065.54 3360.61 1064.54 3361.61 988.533 3362.61 1065.54 3362.61 988.533 3363.61 1065.54 3364.61 915.53 3365.61 923.53 3366.61 896.53 3367.61 887.529 3367.61 920.53 3368.61 852.528 3369.61 1063.54 3370.61 1065.54 3371.61 1065.54 3372.61 1065.54 3373.61 1065.54 3373.61 989.533 3374.61 1062.53 3375.61 947.531 3376.61 948.531 3377.61 903.53 3378.61 1065.54 3378.61 897.53 3379.61 988.533 3380.61 880.529 3381.61 886.529 3382.61 886.529 3383.61 948.531 3384.61 929.531 3384.61 988.533 3385.61 989.533 3386.61 985.533 3387.61 1065.54 3388.61 1065.54 3389.61 1064.54 3389.61 905.53 3390.61 1046.53 3391.61 945.531 3392.61 1065.54 3393.61 928.531 3394.61 978.532 3395.61 1065.54 3395.61 987.533 3396.61 987.533 3397.61 1065.54 3398.61 1065.54 3399.61 1065.54 3400.61 900.53 3400.61 1065.54 3401.61 945.531 3402.61 942.531 3403.61 936.531 3404.61 1049.53 3405.61 1065.54 3406.61 895.53 3406.61 1065.54 3407.61 892.529 3408.61 895.53 3409.61 1065.54 3410.61 1065.54 3411.61 1057.53 3411.61 988.533 3412.61 988.533 3413.61 910.53 3414.61 948.531 3415.61 1063.54 3416.61 911.53 3417.61 910.53 3417.61 907.53 3418.61 868.529 3419.61 946.531 3420.61 929.531 3421.61 910.53 3422.61 988.533 3422.61 1065.54 3423.61 1065.54 3424.61 989.533 3425.61 987.533 3426.61 1065.54 3427.61 907.53 3427.61 909.53 3428.61 944.531 3429.61 935.531 3430.61 989.533 3431.61 948.531 3432.61 982.532 3433.61 1065.54 3433.61 989.533 3434.61 940.531 3435.61 1064.54 3436.61 909.53 3437.61 1063.54 3438.61 1065.54 3438.61 949.531 3439.61 1065.54 3440.61 947.531 3441.61 1065.54 3442.61 1060.53 3443.61 948.531 3444.61 1065.54 3444.61 1063.54 3445.61 988.533 3446.61 1065.54 3447.61 980.532 3448.61 948.531 3449.61 988.533 3449.61 910.53 3450.61 1048.53 3451.61 902.53 3452.61 1065.54 3453.61 1065.54 3454.61 910.53 3455.61 1064.54 3455.61 896.53 3456.61 1065.54 3457.61 934.531 3458.61 988.533 3459.61 925.531 3460.61 1065.54 3460.61 1062.53 3461.61 1065.54 3462.61 905.53 3463.61 1061.53 3464.61 975.532 3465.61 1065.54 3466.61 946.531 3466.61 946.531 3467.61 986.533 3468.61 893.529 3469.61 988.533 3470.61 1065.54 3471.61 1063.54 3471.61 987.533 3472.61 988.533 3473.61 1065.54 3474.61 986.533 3475.61 1065.54 3476.61 942.531 3477.61 1065.54 3477.61 935.531 3478.61 1065.54 3479.61 887.529 3480.61 1065.54 3481.61 900.53 3482.61 890.529 3482.61 1065.54 3483.61 971.532 3484.61 1062.53 3485.61 1062.53 3486.61 1065.54 3487.61 988.533 3488.61 1065.54 3488.61 948.531 3489.61 1063.54 3490.61 903.53 3491.61 908.53 3492.61 911.53 3493.61 1034.53 3493.61 1065.54 3494.61 909.53 3495.61 936.531 3496.61 988.533 3497.61 986.533 3498.61 988.533 3499.61 988.533 3499.61 1064.54 3500.62 1065.54 3501.62 908.53 3502.62 1065.54 3503.62 1065.54 3504.62 907.53 3504.62 949.531 3505.62 949.531 3506.62 949.531 3507.62 948.531 3508.62 910.53 3509.62 980.532 3509.62 1056.53 3510.62 1065.54 3511.62 1064.54 3512.62 990.533 3513.62 1065.54 3514.62 1065.54 3515.62 1061.53 3515.62 944.531 3516.62 940.531 3517.62 924.53 3518.62 886.529 3519.62 949.531 3520.62 983.532 3520.62 1065.54 3521.62 1064.54 3522.62 908.53 3523.62 947.531 3524.62 909.53 3525.62 920.53 3526.62 930.531 3526.62 903.53 3527.62 933.531 3528.62 895.53 3529.62 939.531 3530.62 880.529 3531.62 949.531 3531.62 908.53 3532.62 907.53 3533.62 910.53 3534.62 911.53 3535.62 910.53 3536.62 910.53 3537.62 906.53 3537.62 910.53 3538.62 926.531 3539.62 910.53 3540.62 887.529 3541.62 888.529 3542.62 984.532 3542.62 983.532 3543.62 1065.54 3544.62 985.533 3545.62 1061.53 3546.62 908.53 3547.62 988.533 3548.62 947.531 3548.62 948.531 3549.62 881.529 3550.62 929.531 3551.62 1059.53 3552.62 870.529 3553.62 1065.54 3553.62 1065.54 3554.62 1065.54 3555.62 1065.54 3556.62 860.528 3557.62 921.53 3558.62 984.532 3559.62 1065.54 3559.62 1065.54 3560.62 1065.54 3561.62 910.53 3562.62 910.53 3563.62 909.53 3564.62 881.529 3564.62 885.529 3565.62 885.529 3566.62 860.528 3567.62 1038.53 3568.62 1058.53 3569.62 903.53 3570.62 907.53 3570.62 1065.54 3571.62 877.529 3572.62 1065.54 3573.62 988.533 3574.62 988.533 3575.62 988.533 3575.62 1065.54 3576.62 1064.54 3577.62 1064.54 3578.62 948.531 3579.62 946.531 3580.62 944.531 3581.62 939.531 3581.62 1058.53 3582.62 936.531 3583.62 1065.54 3584.62 1065.54 3585.62 972.532 3586.62 907.53 3586.62 979.532 3587.62 1064.54 3588.62 1061.53 3589.62 1065.54 3590.62 1065.54 3591.62 1065.54 3591.62 1065.54 3592.62 943.531 3593.62 914.53 3594.62 899.53 3595.62 910.53 3596.62 999.533 3597.62 1022.53 3597.62 1004.53 3598.62 1006.53 3599.62 940.531 3600.62 940.531 3601.62 904.53 3602.62 897.53 3602.62 989.533 3603.62 1058.53 3604.62-223.508 3605.62 911.53 3606.62 908.53 3607.62 896.53 3608.62 894.529 3608.62 892.529 3609.62-299.51 3610.62 987.533 3611.62 882.529 3612.62 1064.54 3613.62 1065.54 3613.62-260.509 3614.62 989.533 3615.62 1041.53 3616.62 934.531 3617.62 934.531 3618.62 987.533 3619.62 987.533 3619.62 1065.54 3620.62 975.532 3621.62 1065.54 3622.62 989.533 3623.62 988.533 3624.62 1065.54 3624.62 899.53 3625.62 987.533 3626.62 988.533 3627.62 948.531 3628.62 948.531 3629.62 945.531 3630.62 946.531 3630.62 943.531 3631.62 943.531 3632.62 1028.53 3633.62 1065.54 3634.62 859.528 3635.62 933.531 3635.62 1065.54 3636.62 898.53 3637.62 1065.54 3638.62 1065.54 3639.62 949.531 3640.62 1065.54 3641.62 1065.54 3641.62 1065.54 3642.62 1065.54 3643.62-491.516 3644.62 909.53 3645.62 906.53 3646.62 1051.53 3646.62 907.53 3647.62 892.529 3648.62 949.531 3649.62 1059.53 3650.62 968.532 3651.62 927.531 3652.62 914.53 3652.62 870.529 3653.62 975.532 3654.62 982.532 3655.62 953.531 3656.62 1065.54 3657.62 1065.54 3657.62 1061.53 3658.62 980.532 3659.62 981.532 3660.62 1063.54 3661.62 964.532 3662.62 976.532 3663.62 946.531 3663.62 987.533 3664.62 988.533 3665.62 988.533 3666.62 948.531 3667.62 943.531 3668.62 964.532 3668.62 1065.54 3669.62 1050.53 3670.62 893.529 3671.62 891.529 3672.62 936.531 3673.62 1063.54 3673.62 1062.53 3674.62 978.532 3675.62 1065.54 3676.62 1044.53 3677.62 1065.54 3678.62 973.532 3679.62 906.53 3679.62 1062.53 3680.62 1062.53 3681.62 904.53 3682.62 910.53 3683.62 902.53 3684.62 940.531 3684.62 891.529 3685.62 989.533 3686.62 1065.54 3687.62 1028.53 3688.62 926.531 3689.62 914.53 3690.62 988.533 3690.62 1065.54 3691.62 1064.54 3692.62 1050.53 3693.62 1056.53 3694.62 947.531 3695.62 949.531 3695.62 1065.54 3696.62 1063.54 3697.62 1062.53 3698.62 987.533 3699.62 988.533 3700.62 1062.53 3701.62 985.533 3701.62 986.533 3702.62 1065.54 3703.62 988.533 3704.62 988.533 3705.62 987.533 3706.62 941.531 3706.62 931.531 3707.62 921.53 3708.62 908.53 3709.62 851.528 3710.62 1058.53 3711.62 1059.53 3712.62 1065.54 3712.62 1065.54 3713.62 889.529 3714.62 1062.53 3715.62 866.529 3716.62 1065.54 3717.62 1065.54 3717.62 1065.54 3718.62 988.533 3719.62 985.533 3720.62 947.531 3721.62 1034.53 3722.62 1043.53 3723.62 1043.53 3723.62 878.529 3724.62 987.533 3725.62 987.533 3726.62 1065.54 3727.62 1065.54 3728.62 1065.54 3728.62 1062.53 3729.62 1064.54 3730.62 943.531 3731.62 908.53 3732.62 941.531 3733.62 907.53 3734.62 1065.54 3734.62 1065.54 3735.62 981.532 3736.62 1065.54 3737.62 1065.54 3738.62 1065.54 3739.62 841.528 3739.62 948.531 3740.62 926.531 3741.62 927.531 3742.62 945.531 3743.62 1024.53 3744.62 1024.53 3745.62 877.529 3745.62 871.529 3746.62 1054.53 3747.62 1054.53 3748.62 917.53 3749.62 916.53 3750.62 917.53 3750.62 843.528 3751.62 891.529 3752.62 1065.54 3753.62 1064.54 3754.62 989.533 3755.62 1061.53 3756.62 1062.53 3756.62 910.53 3757.62 1055.53 3758.62 1057.53 3759.62 891.529 3760.62 929.531 3761.62 879.529 3761.62 849.528 3762.62 844.528 3763.62 851.528 3764.62 1065.54 3765.62 1065.54 3766.62 985.533 3766.62 988.533 3767.62 1065.54 3768.62 1065.54 3769.62 1056.53 3770.62 1062.53 3771.62 962.532 3772.62 944.531 3772.62 1046.53 3773.62 1048.53 3774.62 980.532 3775.62 844.528 3776.62 887.529 3777.62 958.532 3777.62 951.531 3778.62 1065.54 3779.62 987.533 3780.62 987.533 3781.62 987.533 3782.62 985.533 3783.62 988.533 3783.62 847.528 3784.62 1065.54 3785.62 1065.54 3786.62 904.53 3787.62 901.53 3788.62 1063.54 3788.62 888.529 3789.62 1065.54 3790.62 1065.54 3791.62 905.53 3792.62 1065.54 3793.62 1065.54 3794.62 1065.54 3794.62 947.531 3795.62 922.53 3796.62 908.53 3797.62 905.53 3798.62 906.53 3799.62 1065.54 3799.62 1062.53 3800.62 988.533 3801.62 987.533 3802.62 989.533 3803.62 1055.53 3804.62 1053.53 3805.62 907.53 3805.62 1051.53 3806.62 948.531 3807.62 945.531 3808.63 969.532 3809.63 949.531 3810.63 902.53 3810.63 988.533 3811.63 984.532 3812.63 1065.54 3813.63 984.532 3814.63 780.526 3815.63 984.532 3816.63 987.533 3816.63 949.531 3817.63 949.531 3818.63 1065.54 3819.63 947.531 3820.63 1057.53 3821.63 934.531 3821.63 941.531 3822.63 1053.53 3823.63 940.531 3824.63 940.531 3825.63 1065.54 3826.63 1064.54 3827.63 1065.54 3827.63 777.526 3828.63 1065.54 3829.63 1065.54 3830.63 892.529 3831.63 776.526 3832.63 1053.53 3832.63 1065.54 3833.63 873.529 3834.63 885.529 3835.63 882.529 3836.63 883.529 3837.63 1065.54 3838.63 895.53 3838.63 1065.54 3839.63 988.533 3840.63 1065.54 3841.63 987.533 3842.63 1065.54 3843.63 1065.54 3843.63 1065.54 3844.63 1065.54 3845.63 1064.54 3846.63 949.531 3847.63 905.53 3848.63 909.53 3848.63 898.53 3849.63 1053.53 3850.63 973.532 3851.63 699.523 3852.63 955.532 3853.63 980.532 3854.63 936.531 3854.63 1065.54 3855.63 917.53 3856.63 988.533 3857.63 1046.53 3858.63 945.531 3859.63 943.531 3859.63 941.531 3860.63 948.531 3861.63 1065.54 3862.63 1065.54 3863.63 867.529 3864.63 1060.53 3865.63 1065.54 3865.63 1063.54 3866.63 1062.53 3867.63 988.533 3868.63 662.522 3869.63 1062.53 3870.63 1063.54 3870.63 1062.53 3871.63 663.522 3872.63 894.529 3873.63 944.531 3874.63 1065.54 3875.63 1065.54 3876.63 1043.53 3876.63 989.533 3877.63 988.533 3878.63 986.533 3879.63 1065.54 3880.63 1063.54 3881.63 1057.53 3881.63 910.53 3882.63 1056.53 3883.63 949.531 3884.63 1065.54 3885.63 938.531 3886.63 978.532 3887.63 984.532 3887.63 1065.54 3888.63 986.533 3889.63 1063.54 3890.63 988.533 3891.63 1065.54 3892.63 949.531 3892.63 1051.53 3893.63 1065.54 3894.63 948.531 3895.63 937.531 3896.63 934.531 3897.63 881.529 3898.63 883.529 3898.63 883.529 3899.63 891.529 3900.63 1065.54 3901.63 1064.54 3902.63 1065.54 3903.63 1065.54 3903.63 623.521 3904.63 1050.53 3905.63 1051.53 3906.63 1054.53 3907.63 1046.53 3908.63 901.53 3909.63 1065.54 3909.63 888.529 3910.63 1065.54 3911.63 890.529 3912.63 1065.54 3913.63 1065.54 3914.63 986.533 3914.63 988.533 3915.63 1048.53 3916.63 1051.53 3917.63 1055.53 3918.63 1049.53 3919.63 1052.53 3920.63 1065.54 3920.63 1065.54 3921.63 1065.54 3922.63 611.52 3923.63 946.531 3924.63 945.531 3925.63 988.533 3925.63 989.533 3926.63 946.531 3927.63 988.533 3928.63 1065.54 3929.63 1065.54 3930.63 989.533 3930.63 987.533 3931.63 988.533 3932.63 989.533 3933.63 987.533 3934.63 891.529 3935.63 1060.53 3936.63 918.53 3936.63 908.53 3937.63 1065.54 3938.63 1065.54 3939.63 1065.54 3940.63 1065.54 3941.63 1065.54 3941.63 1065.54 3942.63 1065.54 3943.63 1062.53 3944.63 1062.53 3945.63 1062.53 3946.63 913.53 3947.63 1065.54 3947.63 883.529 3948.63 849.528 3949.63 842.528 3950.63 1063.54 3951.63 1061.53 3952.63 983.532 3952.63 986.533 3953.63 852.528 3954.63 988.533 3955.63 1063.54 3956.63 1063.54 3957.63 903.53 3958.63 949.531 3958.63 1035.53 3959.63 850.528 3960.63 859.528 3961.63 860.528 3962.63 851.528 3963.63 860.528 3963.63 857.528 3964.63 855.528 3965.63 847.528 3966.63 1065.54 3967.63 1065.54 3968.63 1065.54 3969.63 1064.54 3969.63 788.526 3970.63 1065.54 3971.63 957.532 3972.63 788.526 3973.63 938.531 3974.63 1022.53 3974.63 910.53 3975.63 943.531 3976.63 906.53 3977.63 905.53 3978.63 795.526 3979.63 934.531 3980.63 933.531 3980.63 1064.54 3981.63 1065.54 3982.63 1065.54 3983.63 795.526 3984.63 1065.54 3985.63 947.531 3985.63 910.53 3986.63 906.53 3987.63 948.531 3988.63 817.527 3989.63 909.53 3990.63 904.53 3991.63 903.53 3991.63 906.53 3992.63 907.53 3993.63 988.533 3994.63 909.53 3995.63 1065.54 3996.63 988.533 3996.63 1065.54 3997.63 949.531 3998.63 948.531 3999.63 948.531 4000.63 949.531 4001.63 949.531 4002.63 986.533 4002.63 1044.53 4003.63 1059.53 4004.63 986.533 4005.63 1063.54 4006.63 947.531 4007.63 1065.54 4007.63 966.532 4008.63 761.525 4009.63 966.532 4010.63 725.524 4011.63 902.53 4012.63 1064.54 4012.63 890.529 4013.63 932.531 4014.63 890.529 4015.63 1065.54 4016.63 974.532 4017.63 975.532 4018.63 946.531 4018.63 1065.54 4019.63 1065.54 4020.63 1065.54 4021.63 1065.54 4022.63 988.533 4023.63 1064.54 4023.63 1065.54 4024.63 1065.54 4025.63 909.53 4026.63 909.53 4027.63 908.53 4028.63 911.53 4029.63 1065.54 4029.63 1065.54 4030.63 1065.54 4031.63 989.533 4032.63 985.533 4033.63 988.533 4034.63 910.53 4034.63 988.533 4035.63 987.533 4036.63 1065.54 4037.63 1064.54 4038.63 1065.54 4039.63 941.531 4040.63 989.533 4040.63 943.531 4041.63 909.53 4042.63 989.533 4043.63 1065.54 4044.63 988.533 4045.63 1063.54 4045.63 981.532 4046.63 1065.54 4047.63 1065.54 4048.63 949.531 4049.63 944.531 4050.63 979.532 4051.63 948.531 4051.63 948.531 4052.63 910.53 4053.63 910.53 4054.63 1035.53 4055.63 1063.54 4056.63 1037.53 4056.63 1065.54 4057.63 1065.54 4058.63 1038.53 4059.63 1065.54 4060.63 946.531 4061.63 1065.54 4062.63 1050.53 4062.63 1065.54 4063.63 909.53 4064.63 1038.53 4065.63 911.53 4066.63 910.53 4067.63 1065.54 4067.63 988.533 4068.63 988.533 4069.63 983.532 4070.63 948.531 4071.63 1065.54 4072.63 988.533 4073.63 1065.54 4073.63 908.53 4074.63 1065.54 4075.63 954.531 4076.63 1065.54 4077.63 949.531 4078.63 947.531 4078.63 949.531 4079.63 1058.53 4080.63 971.532 4081.63 971.532 4082.63 1018.53 4083.63 939.531 4084.63 927.531 4084.63 924.53 4085.63 893.529 4086.63 876.529 4087.63 875.529 4088.63 867.529 4089.63 860.528 4089.63 1058.53 4090.63 941.531 4091.63 1061.53 4092.63 1061.53 4093.63 921.53 4094.63 948.531 4095.63 1065.54 4095.63 1065.54 4096.63 1065.54 4097.63 1065.54 4098.63 1063.54 4099.63 986.533 4100.63 1065.54 4100.63 949.531 4101.63 944.531 4102.63 946.531 4103.63 1065.54 4104.63 909.53 4105.63 1065.54 4105.63 909.53 4106.63 941.531 4107.63 904.53 4108.63 898.53 4109.63 899.53 4110.64 949.531 4111.64 988.533 4111.64 909.53 4112.64 908.53 4113.64 1065.54 4114.64 909.53 4115.64 1063.54 4116.64 1065.54 4116.64 987.533 4117.64 949.531 4118.64 944.531 4119.64 866.529 4120.64 948.531 4121.64 907.53 4122.64 988.533 4122.64 875.529 4123.64 1065.54 4124.64 909.53 4125.64 949.531 4126.64 949.531 4127.64 946.531 4127.64 1065.54 4128.64 1065.54 4129.64 1065.54 4130.64 1064.54 4131.64 949.531 4132.64 1065.54 4133.64 1065.54 4133.64 1065.54 4134.64 910.53 4135.64 1064.54 4136.64 986.533 4137.64 1065.54 4138.64 1062.53 4138.64 911.53 4139.64 1065.54 4140.64 978.532 4141.64 1065.54 4142.64 1065.54 4143.64 902.53 4144.64 902.53 4144.64 942.531 4145.64 987.533 4146.64 980.532 4147.64 945.531 4148.64 949.531 4149.64 985.533 4149.64 1065.54 4150.64 1065.54 4151.64 1065.54 4152.64 948.531 4153.64 910.53 4154.64 978.532 4155.64 1065.54 4155.64 910.53 4156.64 910.53 4157.64 988.533 4158.64 988.533 4159.64 989.533 4160.64 953.531 4160.64 910.53 4161.64 983.532 4162.64 910.53 4163.64 910.53 4164.64 1065.54 4165.64 1065.54 4166.64 1065.54 4166.64 875.529 4167.64 941.531 4168.64 869.529 4169.64 869.529 4170.64 643.521 4171.64 852.528 4171.64 1065.54 4172.64 832.528 4173.64 1060.53 4174.64 827.527 4175.64 861.528 4176.64 825.527 4177.64 860.528 4177.64 825.527 4178.64 823.527 4179.64 985.533 4180.64 1065.54 4181.64 953.531 4182.64 1065.54 4182.64 1064.54 4183.64 1064.54 4184.64 1065.54 4185.64 1065.54 4186.64 1065.54 4187.64 945.531 4187.64 945.531 4188.64 945.531 4189.64 908.53 4190.64 900.53 4191.64 879.529 4192.64 876.529 4193.64 1021.53 4193.64 746.525 4194.64 982.532 4195.64 899.53 4196.64 564.519 4197.64 1062.53 4198.64 561.519 4198.64 1012.53 4199.64 958.532 4200.64 1063.54 4201.64 1064.54 4202.64 859.528 4203.64 1049.53 4204.64 899.53 4204.64 1047.53 4205.64 861.528 4206.64 815.527 4207.64 935.531 4208.64 834.528 4209.64 908.53 4209.64 939.531 4210.64 942.531 4211.64 939.531 4212.64 1063.54 4213.64 889.529 4214.64 1062.53 4215.64 820.527 4215.64 744.525 4216.64 860.528 4217.64 786.526 4218.64 946.531 4219.64 946.531 4220.64 1056.53 4220.64 825.527 4221.64 1065.54 4222.64 985.533 4223.64 1065.54 4224.64 839.528 4225.64 892.529 4226.64 870.529 4226.64 1063.54 4227.64 867.529 4228.64 859.528 4229.64 838.528 4230.64 830.527 4231.64 1013.53 4231.64 725.524 4232.64 986.533 4233.64 1062.53 4234.64 809.527 4235.64 808.527 4236.64 1055.53 4237.64 1015.53 4237.64 1065.54 4238.64 985.533 4239.64 1065.54 4240.64 870.529 4241.64 955.532 4242.64 1059.53 4242.64 1059.53 4243.64 1065.54 4244.64 954.531 4245.64 927.531 4246.64 930.531 4247.64 930.531 4248.64 936.531 4248.64 1065.54 4249.64 1065.54 4250.64 1065.54 4251.64 1035.53 4252.64 768.525 4253.64 1065.54 4253.64 1065.54 4254.64 948.531 4255.64 945.531 4256.64 1051.53 4257.64 1051.53 4258.64 1032.53 4259.64 1029.53 4259.64 1029.53 4260.64 1030.53 4261.64 932.531 4262.64 932.531 4263.64 964.532 4264.64 900.53 4264.64 1065.54 4265.64 1064.54 4266.64 1064.54 4267.64 979.532 4268.64 1064.54 4269.64 901.53 4269.64 918.53 4270.64 870.529 4271.64 835.528 4272.64 835.528 4273.64 896.53 4274.64 835.528 4275.64 1059.53 4275.64 1032.53 4276.64 858.528 4277.64 910.53 4278.64 1042.53 4279.64 1043.53 4280.64 1065.54 4280.64 908.53 4281.64 948.531 4282.64 1055.53 4283.64 894.529 4284.64 937.531 4285.64 925.531 4286.64 922.53 4286.64 970.532 4287.64 973.532 4288.64 1026.53 4289.64 1065.54 4290.64 986.533 4291.64 988.533 4291.64 988.533 4292.64 985.533 4293.64 1065.54 4294.64 909.53 4295.64 910.53 4296.64 884.529 4297.64 963.532 4297.64 870.529 4298.64 875.529 4299.64 1065.54 4300.64 1065.54 4301.64 911.53 4302.64 945.531 4302.64 987.533 4303.64 1062.53 4304.64 946.531 4305.64 939.531 4306.64 868.529 4307.64 1062.53 4308.64 870.529 4308.64 865.529 4309.64 895.53 4310.64 928.531 4311.64 928.531 4312.64 925.531 4313.64 906.53 4313.64 1050.53 4314.64 866.529 4315.64 978.532 4316.64 1065.54 4317.64 949.531 4318.64 1065.54 4319.64 898.53 4319.64 1065.54 4320.64 910.53 4321.64 945.531 4322.64 949.531 4323.64 946.531 4324.64 1065.54 4324.64 975.532 4325.64 1064.54 4326.64 1064.54 4327.64 1065.54 4328.64 966.532 4329.64 1065.54 4330.64 1061.53 4330.64 1056.53 4331.64 892.529 4332.64 972.532 4333.64 960.532 4334.64 1051.53 4335.64 881.529 4335.64 901.53 4336.64 1065.54 4337.64 1064.54 4338.64 1065.54 4339.64 910.53 4340.64 1065.54 4341.64 949.531 4341.64 1065.54 4342.64 1062.53 4343.64 973.532 4344.64 941.531 4345.64 1065.54 4346.64 1065.54 4346.64 901.53 4347.64 1065.54 4348.64 907.53 4349.64 1065.54 4350.64 905.53 4351.64 906.53 4351.64 1065.54 4352.64 1065.54 4353.64 941.531 4354.64 1065.54 4355.64 988.533 4356.64 1065.54 4357.64 937.531 4357.64 968.532 4358.64 967.532 4359.64 1065.54 4360.64 1065.54 4361.64 1065.54 4362.64 940.531 4362.64 1060.53 4363.64 949.531 4364.64 1056.53 4365.64 1062.53 4366.64 907.53 4367.64 909.53 4368.64 1060.53 4368.64 1056.53 4369.64 1065.54 4370.64 910.53 4371.64 909.53 4372.64 905.53 4373.64 976.532 4373.64 1065.54 4374.64 904.53 4375.64 902.53 4376.64 1058.53 4377.64 899.53 4378.64 905.53 4379.64 893.529 4379.64 1059.53 4380.64 1065.54 4381.64 880.529 4382.64 926.531 4383.64 926.531 4384.64 892.529 4384.64 895.53 4385.64 1065.54 4386.64 897.53 4387.64 893.529 4388.64 893.529 4389.64 969.532 4390.64 1065.54 4390.64 1065.54 4391.64 906.53 4392.64 946.531 4393.64 1065.54 4394.64 973.532 4395.64 979.532 4395.64 972.532 4396.64 971.532 4397.64 979.532 4398.64 989.533 4399.64 989.533 4400.64 1063.54 4401.64 1065.54 4401.64 970.532 4402.64 966.532 4403.64 925.531 4404.64 1063.54 4405.64 984.532 4406.64 1065.54 4406.64 1063.54 4407.65 1065.54 4408.65 1065.54 4409.65 1059.53 4410.65 980.532 4411.65 986.533 4412.65 946.531 4412.65 1065.54 4413.65 943.531 4414.65 937.531 4415.65 910.53 4416.65 1065.54 4417.65 1065.54 4417.65 1039.53 4418.65 944.531 4419.65 943.531 4420.65 900.53 4421.65 1065.54 4422.65 881.529 4423.65 1065.54 4423.65 1065.54 4424.65 911.53 4425.65 1063.54 4426.65 1065.54 4427.65 1063.54 4428.65 1063.54 4428.65 1065.54 4429.65 908.53 4430.65 906.53 4431.65 890.529 4432.65 988.533 4433.65 987.533 4434.65 947.531 4434.65 987.533 4435.65 988.533 4436.65 1064.54 4437.65 1065.54 4438.65 1065.54 4439.65 1060.53 4439.65 988.533 4440.65 902.53 4441.65 946.531 4442.65 945.531 4443.65 1063.54 4444.65 1059.53 4444.65 1065.54 4445.65 909.53 4446.65 908.53 4447.65 988.533 4448.65 944.531 4449.65 948.531 4450.65 948.531 4450.65 942.531 4451.65 1065.54 4452.65 882.529 4453.65 1065.54 4454.65 1065.54 4455.65 942.531 4455.65 934.531 4456.65 915.53 4457.65 1053.53 4458.65 978.532 4459.65 1050.53 4460.65 1053.53 4461.65 910.53 4461.65 949.531 4462.65 899.53 4463.65 1065.54 4464.65 1065.54 4465.65 895.53 4466.65 1062.53 4466.65 1054.53 4467.65 1065.54 4468.65 986.533 4469.65 1065.54 4470.65 937.531 4471.65 1065.54 4472.65 1065.54 4472.65 945.531 4473.65 1064.5 4474.65 1065.54 4475.65 1065.54 4476.65 1065.54 4477.65 961.532 4477.65 949.531 4478.65 943.531 4479.65 1065.54 4480.65 938.531 4481.65 1065.5 4482.65 1065.54 4483.65 1065.54 4483.65 1065.54 4484.65 1065.54 4485.65 1065.54 4486.65 945.531 4487.65 1065.54 4488.65 1065.54 4488.65 945.531 4489.65 940.531 4490.65 949.531 4491.65 908.53 4492.65 892.529 4493.65 1065.54 4494.65 944.531 4494.65 945.531 4495.65 1065.54 4496.65 1065.54 4497.65 909.53 4498.65 988.533 4499.65 1065.54 4499.65 1065.54 4500.65 1065.54 4501.65 1065.54 4502.65 988.533 4503.65 947.531 4504.65 1065.54 4505.65 948.531 4505.65 944.531 4506.65 989.533 4507.65 964.532 4508.65 1065.54 4509.65 948.531 4510.65 1065.54 4510.65 1065.54 4511.65 1065.54 4512.65 986.533 4513.65 947.531 4514.65 948.531 4515.65 946.531 4516.65 1063.54 4516.65 948.531 4517.65 1065.54 4518.65 1065.54 4519.65 905.53 4520.65 1065.54 4521.65 947.531 4521.65 910.53 4522.65 948.531 4523.65 986.533 4524.65 947.531 4525.65 942.531 4526.65 1065.54 4526.65 1065.54 4527.65 909.53 4528.65 894.529 4529.65 926.531 4530.65 899.53 4531.65 1065.54 4532.65 894.529 4532.65 911.53 4533.65 947.531 4534.65 941.531 4535.65 1065.54 4536.65 1065.54 4537.65 910.53 4537.65 1049.53 4538.65 988.533 4539.65 1063.54 4540.65 1064.54 4541.65 967.532 4542.65 989.533 4543.65 946.531 4543.65 827.527 4544.65 947.531 4545.65 946.531 4546.65 989.533 4547.65 1016.53 4548.65 1022.53 4548.65 863.529 4549.65 838.528 4550.65 867.529 4551.65 860.528 4552.65 1065.54 4553.65 946.531 4554.65 1065.54 4554.65 1065.54 4555.65 891.529 4556.65 1065.54 4557.65 1060.53 4558.65 1025.53 4559.65 951.531 4559.65 779.526 4560.65 921.53 4561.65 768.525 4562.65 1065.54 4563.65 946.531 4564.65 931.531 4565.65 929.531 4565.65 842.528 4566.65 901.53 4567.65 894.529 4568.65 987.533 4569.65 841.528 4570.65 1064.54 4570.65 1065.54 4571.65 1065.54 4572.65 907.53 4573.65 989.533 4574.65 948.531 4575.65 592.52 4576.65 1065.54 4576.65 1042.53 4577.65 1046.53 4578.65 1046.53 4579.65 910.53 4580.65 947.531 4581.65 1065.54 4581.65 934.531 4582.65 1065.54 4583.65 988.533 4584.65 1065.54 4585.65 987.533 4586.65 1065.54 4587.65 948.531 4587.65 1065.54 4588.65 1063.54 4589.65 1065.54 4590.65 946.531 4591.65 948.531 4592.65 938.531 4592.65 945.531 4593.65 888.529 4594.65 1064.54 4595.65 585.519 4596.65 978.532 4597.65 972.532 4598.65 973.532 4598.65 909.53 4599.65 939.531 4600.65 1064.54 4601.65 1065.54 4602.65 1065.54 4603.65 910.53 4603.65 1048.53 4604.65 1065.54 4605.65 943.531 4606.65 1022.53 4607.65 1065.54 4608.65 1065.54 4608.65 871.529 4609.65 1065.54 4610.65 1065.54 4611.65 1064.54 4612.65 1062.53 4613.65 1064.54 4614.65 1065.54 4614.65 1063.54 4615.65 1065.54 4616.65 1057.53 4617.65 1053.53 4618.65 895.53 4619.65 897.53 4619.65 948.531 4620.65 1064.54 4621.65 1065.54 4622.65 1065.54 4623.65 986.533 4624.65 1063.54 4625.65 1065.54 4625.65 989.533 4626.65 986.533 4627.65 1059.53 4628.65 1060.53 4629.65 949.531 4630.65 946.531 4630.65 897.53 4631.65 985.533 4632.65 988.533 4633.65 891.529 4634.65 984.532 4635.65 1063.54 4636.65 1065.54 4636.65 1063.54 4637.65 1065.54 4638.65 891.529 4639.65 910.53 4640.65 948.531 4641.65 895.53 4641.65 934.531 4642.65 899.53 4643.65 898.53 4644.65 901.53 4645.65 1064.54 4646.65 1065.54 4647.65 1065.54 4647.65 1063.54 4648.65 1065.54 4649.65 907.53 4650.65 168.506 4651.65 949.531 4652.65 949.531 4652.65 910.53 4653.65 898.53 4654.65 981.532 4655.65 978.532 4656.65 900.53 4657.65 948.531 4658.65 946.531 4658.65 947.531 4659.65 1065.54 4660.65 987.533 4661.65 988.533 4662.65 988.533 4663.65 942.531 4663.65 1065.54 4664.65 1065.54 4665.65 892.529 4666.65 938.531 4667.65 870.529 4668.65 944.531 4669.65 948.531 4669.65 1065.54 4670.65 900.53 4671.65 877.529 4672.65 1064.54 4673.65 910.53 4674.65 986.533 4674.65 1065.54 4675.65 1063.54 4676.65 1063.54 4677.65 904.53 4678.65 977.532 4679.65 977.532 4680.65 945.531 4680.65 890.529 4681.65 1063.54 4682.65 915.53 4683.65 881.529 4684.65 1065.54 4685.65 814.527 4685.65 820.527 4686.65 1065.54 4687.65 1065.54 4688.65 1057.53 4689.65 905.53 4690.65 911.53 4690.65 828.527 4691.65 948.531 4692.65 989.533 4693.65 987.533 4694.65 987.533 4695.65 821.527 4696.65 1041.53 4696.65 907.53 4697.65 1065.54 4698.65 1065.54 4699.65 1065.54 4700.65 825.527 4701.65 1065.54 4701.65 1062.53 4702.65 907.53 4703.65 1063.54 4704.65 1065.54 4705.65 986.533 4706.65 1065.54 4707.65 986.533 4707.65 988.533 4708.65 899.53 4709.65 967.532 4710.65 957.532 4711.65 944.531 4712.65 876.529 4712.65 914.53 4713.65 876.529 4714.65 1053.53 4715.65 872.529 4716.66 865.529 4717.66 1065.54 4718.66 1065.54 4718.66 1065.54 4719.66 1065.54 4720.66 987.533 4721.66 945.531 4722.66 985.533 4723.66 1065.54 4723.66 1065.54 4724.66 1051.53 4725.66 1065.54 4726.66 907.53 4727.66 988.533 4728.66 900.53 4729.66 942.531 4729.66 940.531 4730.66 1065.54 4731.66 988.533 4732.66 989.533 4733.66 989.533 4734.66 989.533 4734.66 1064.54 4735.66 949.531 4736.66 1061.53 4737.66 1060.53 4738.66 1065.54 4739.66 943.531 4740.66 1065.54 4740.66 1065.54 4741.66 945.531 4742.66 944.531 4743.66 1065.54 4744.66 1063.54 4745.66 895.53 4745.66 988.533 4746.66 1065.54 4747.66 987.533 4748.66 986.533 4749.66 1065.54 4750.66 974.532 4751.66 885.529 4751.66 1065.54 4752.66 925.531 4753.66 1057.53 4754.66 1057.53 4755.66 928.531 4756.66 923.53 4756.66 1065.54 4757.66 916.53 4758.66 1065.54 4759.66 1065.54 4760.66 941.531 4761.66 1065.54 4762.66 1062.53 4762.66 976.532 4763.66 1065.54 4764.66 890.529 4765.66 1065.54 4766.66 894.529 4767.66 936.531 4767.66 948.531 4768.66 879.529 4769.66 989.533 4770.66 1065.54 4771.66 910.53 4772.66 910.53 4773.66 904.53 4773.66 1063.54 4774.66 1065.54 4775.66 947.531 4776.66 902.53 4777.66 907.53 4778.66 1065.54 4778.66 1065.54 4779.66 938.531 4780.66 975.532 4781.66 30.5012 4782.66 970.532 4783.66 974.532 4783.66 1065.54 4784.66 975.532 4785.66 1065.54 4786.66 1065.54 4787.66 1065.54 4788.66 945.531 4789.66 946.531 4789.66 906.53 4790.66 945.531 4791.66 1065.54 4792.66 1065.54 4793.66 905.53 4794.66 989.533 4794.66 1034.53 4795.66 981.532 4796.66 942.531 4797.66 1065.54 4798.66 1063.54 4799.66 876.529 4800.66 910.53 4800.66 1063.54 4801.66 942.531 4802.66 951.531 4803.66 892.529 4804.66 988.533 4805.66 926.531 4805.66 985.533 4806.66 1065.54 4807.66 1065.54 4808.66 988.533 4809.66 945.531 4810.66 918.53 4811.66 985.533 4811.66 949.531 4812.66 1065.54 4813.66 1055.53 4814.66 948.531 4815.66 909.53 4816.66 906.53 4816.66 1065.54 4817.66 943.531 4818.66 897.53 4819.66 890.529 4820.66 986.533 4821.66 1063.54 4822.66 1065.54 4822.66 902.53 4823.66 901.53 4824.66 944.531 4825.66 910.53 4826.66 906.53 4827.66 1065.54 4827.66 909.53 4828.66 988.533 4829.66 1065.54 4830.66 988.533 4831.66 989.533 4832.66 1065.54 4833.66 883.529 4833.66 987.533 4834.66 949.531 4835.66 1065.54 4836.66 943.531 4837.66 944.531 4838.66 948.531 4838.66 1065.54 4839.66 1065.54 4840.66 1063.54 4841.66 1065.54 4842.66 986.533 4843.66 1065.54 4844.66 985.533 4844.66 897.53 4845.66 874.529 4846.66 947.531 4847.66 943.531 4848.66 904.53 4849.66 948.531 4849.66 1065.54 4850.66 986.533 4851.66 906.53 4852.66 954.531 4853.66 905.53 4854.66 958.532 4855.66 1065.54 4855.66 1065.54 4856.66 1065.54 4857.66 1065.54 4858.66 989.533 4859.66 1064.54 4860.66 907.53 4860.66 905.53 4861.66 947.531 4862.66 983.532 4863.66 982.532 4864.66 977.532 4865.66 911.53 4865.66 987.533 4866.66 909.53 4867.66 989.533 4868.66 989.533 4869.66 989.533 4870.66 949.531 4871.66 948.531 4871.66 948.531 4872.66 949.531 4873.66 1065.54 4874.66 1065.54 4875.66-256.509 4876.66 910.53 4876.66 1065.54 4877.66 1065.54 4878.66 988.533 4879.66 987.533 4880.66 1065.54 4881.66 988.533 4882.66 947.531 4882.66 1065.54 4883.66 1065.54 4884.66 907.53 4885.66 1065.54 4886.66 908.53 4887.66 944.531 4887.66 948.531 4888.66 910.53 4889.66 987.533 4890.66 1065.54 4891.66 988.533 4892.66 988.533 4893.66 987.533 4893.66 989.533 4894.66 829.527 4895.66 1065.54 4896.66 1065.54 4897.66-531.5 4898.66 1063.54 4898.66 946.531 4899.66 1063.54 4900.66 1062.53 4901.66 908.53 4902.66 964.532 4903.66 904.53 4904.66 926.531 4904.66 1063.54 4905.66 1065.54 4906.66 1045.53 4907.66 963.532 4908.66 960.532 4909.66 963.532 4909.66 966.532 4910.66 985.533 4911.66 872.529 4912.66 874.529 4913.66 867.529 4914.66 869.529 4915.66 874.529 4915.66-372.512 4916.66 882.529 4917.66 942.531 4918.66 940.531 4919.66 873.529 4920.66 1065.54 4920.66 1064.54 4921.66 1040.53 4922.66 1042.53 4923.66 908.53 4924.66 988.533 4925.66 972.532 4926.66 987.533 4926.66 988.533 4927.66 840.528 4928.66 989.533 4929.66 1065.54 4930.66 1065.54 4931.66 948.531 4931.66 1064.54 4932.66 908.53 4933.66-295.51 4934.66 1063.54 4935.66 896.53 4936.66 1064.54 4937.66 948.531 4937.66 1065.54 4938.66 946.531 4939.66 838.528 4940.66 986.533 4941.66 1063.54 4942.66 1065.54 4942.66 1065.54 4943.66 1065.54 4944.66 909.53 4945.66 910.53 4946.66 949.531 4947.66 947.531 4947.66 988.533 4948.66 910.53 4949.66 1065.54 4950.66 988.533 4951.66 1065.54 4952.66 1065.54 4953.66 1065.54 4953.66 1063.54 4954.66 1065.54 4955.66 988.533 4956.66 1065.54 4957.66 1065.54 4958.66 881.529 4958.66 1065.54 4959.66 909.53 4960.66 1065.54 4961.66 1065.54 4962.66 1065.54 4963.66 906.53 4964.66 864.529 4964.66 932.531 4965.66 1065.54 4966.66 988.533 4967.66 981.532 4968.66 1056.53 4969.66 985.533 4969.66 1065.54 4970.66 911.53 4971.66 1056.53 4972.66 1060.53 4973.66 911.53 4974.66 1065.54 4975.66 949.531 4975.66 948.531 4976.66 1065.54 4977.66 988.533 4978.66 1063.54 4979.66 989.533 4980.66 1065.54 4980.66 988.533 4981.66 1065.54 4982.66 1065.54 4983.66 984.532 4984.66 908.53 4985.66 903.53 4986.66 962.532 4986.66 890.529 4987.66 898.53 4988.66 961.532 4989.66 1064.54 4990.66 978.532 4991.66 1065.54 4991.66 883.529 4992.66 888.529 4993.66 1065.54 4994.66 1065.54 4995.66 947.531 4996.66 943.531 4997.66 1064.54 4997.66 1065.54 4998.66 907.53 4999.66 910.53 5000.66 1065.54 5001.66 907.53 5002.66 909.53 5002.66 949.531 5003.66 1065.54 5004.66 1065.54 5005.66 987.533 5006.66 988.533 5007.66 988.533 5008.66 939.531 5008.66 941.531 5009.66 909.53 5010.66 910.53 5011.66 910.53 5012.67 1065.54 5013.67 926.531 5013.67 988.533 5014.67 988.533 5015.67 1065.54 5016.67 1065.54 5017.67 987.533 5018.67 949.531 5019.67 989.533 5019.67 939.531 5020.67 1065.54 5021.67 899.53 5022.67 895.53 5023.67 903.53 5024.67 1065.54 5024.67 1065.54 5025.67 910.53 5026.67 1026.53 5027.67 988.533 5028.67 945.531 5029.67 909.53 5029.67 943.531 5030.67 1064.54 5031.67 988.533 5032.67 947.531 5033.67 877.529 5034.67 887.529 5035.67 898.53 5035.67 986.533 5036.67 948.531 5037.67 885.529 5038.67 1026.53 5039.67 910.53 5040.67 910.53 5040.67 1027.53 5041.67 811.527 5042.67 1065.54 5043.67 909.53 5044.67-412.514 5045.67 880.529 5046.67 1064.54 5046.67 947.531 5047.67 987.533 5048.67 1065.54 5049.67 1065.54 5050.67 905.53 5051.67 909.53 5051.67 948.531 5052.67 910.53 5053.67 911.53 5054.67 988.533 5055.67 988.533 5056.67 948.531 5057.67 1065.54 5057.67 949.531 5058.67 970.532 5059.67 992.533 5060.5 889.529" stroke="#4472C4" stroke-width="3.4375" stroke-linecap="round" stroke-linejoin="round" stroke-miterlimit="10" fill="none"/></g><g clip-path="url(#clip6)"><text font-family="LM Roman 10,LM Roman 10_MSFontService,sans-serif" font-weight="700" font-size="64" transform="matrix(1 0 0 1 2602.14 1124)">0</text></g><g clip-path="url(#clip7)"><text font-family="LM Roman 10,LM Roman 10_MSFontService,sans-serif" font-weight="700" font-size="64" transform="matrix(1 0 0 1 2528.35 1059)">200</text></g><g clip-path="url(#clip8)"><text font-family="LM Roman 10,LM Roman 10_MSFontService,sans-serif" font-weight="700" font-size="64" transform="matrix(1 0 0 1 2528.35 994)">400</text></g><g clip-path="url(#clip9)"><text font-family="LM Roman 10,LM Roman 10_MSFontService,sans-serif" font-weight="700" font-size="64" transform="matrix(1 0 0 1 2528.35 929)">600</text></g><g clip-path="url(#clip10)"><text font-family="LM Roman 10,LM Roman 10_MSFontService,sans-serif" font-weight="700" font-size="64" transform="matrix(1 0 0 1 2528.35 865)">800</text></g><g clip-path="url(#clip11)"><text font-family="LM Roman 10,LM Roman 10_MSFontService,sans-serif" font-weight="700" font-size="64" transform="matrix(1 0 0 1 2491.45 800)">1000</text></g><g clip-path="url(#clip12)"><text font-family="LM Roman 10,LM Roman 10_MSFontService,sans-serif" font-weight="700" font-size="64" transform="matrix(1 0 0 1 2491.45 735)">1200</text></g><g clip-path="url(#clip13)"><text font-family="LM Roman 10,LM Roman 10_MSFontService,sans-serif" font-weight="700" font-size="64" transform="matrix(1 0 0 1 2491.45 670)">1400</text></g><g clip-path="url(#clip14)"><text font-family="LM Roman 10,LM Roman 10_MSFontService,sans-serif" font-weight="700" font-size="64" transform="matrix(1 0 0 1 2491.45 605)">1600</text></g><g clip-path="url(#clip15)"><text font-family="LM Roman 10,LM Roman 10_MSFontService,sans-serif" font-weight="700" font-size="64" transform="matrix(1 0 0 1 2491.45 540)">1800</text></g><g clip-path="url(#clip16)"><text font-family="LM Roman 10,LM Roman 10_MSFontService,sans-serif" font-weight="700" font-size="64" transform="matrix(1 0 0 1 2491.45 476)">2000</text></g><g clip-path="url(#clip17)"><text font-family="LM Roman 10,LM Roman 10_MSFontService,sans-serif" font-weight="700" font-size="50" transform="matrix(0.707107 -0.707107 0.707107 0.707107 2578.6 1328)">00:00:00</text></g><g clip-path="url(#clip18)"><text font-family="LM Roman 10,LM Roman 10_MSFontService,sans-serif" font-weight="700" font-size="50" transform="matrix(0.707107 -0.707107 0.707107 0.707107 2680.9 1328)">00:00:25</text></g><g clip-path="url(#clip19)"><text font-family="LM Roman 10,LM Roman 10_MSFontService,sans-serif" font-weight="700" font-size="50" transform="matrix(0.707107 -0.707107 0.707107 0.707107 2783.19 1328)">00:00:51</text></g><g clip-path="url(#clip20)"><text font-family="LM Roman 10,LM Roman 10_MSFontService,sans-serif" font-weight="700" font-size="50" transform="matrix(0.707107 -0.707107 0.707107 0.707107 2885.49 1328)">00:01:19</text></g><g clip-path="url(#clip21)"><text font-family="LM Roman 10,LM Roman 10_MSFontService,sans-serif" font-weight="700" font-size="50" transform="matrix(0.707107 -0.707107 0.707107 0.707107 2987.79 1328)">00:01:46</text></g><g clip-path="url(#clip22)"><text font-family="LM Roman 10,LM Roman 10_MSFontService,sans-serif" font-weight="700" font-size="50" transform="matrix(0.707107 -0.707107 0.707107 0.707107 3090.08 1328)">00:02:11</text></g><g clip-path="url(#clip23)"><text font-family="LM Roman 10,LM Roman 10_MSFontService,sans-serif" font-weight="700" font-size="50" transform="matrix(0.707107 -0.707107 0.707107 0.707107 3192.38 1328)">00:02:33</text></g><g clip-path="url(#clip24)"><text font-family="LM Roman 10,LM Roman 10_MSFontService,sans-serif" font-weight="700" font-size="50" transform="matrix(0.707107 -0.707107 0.707107 0.707107 3294.67 1328)">00:03:00</text></g><g clip-path="url(#clip25)"><text font-family="LM Roman 10,LM Roman 10_MSFontService,sans-serif" font-weight="700" font-size="50" transform="matrix(0.707107 -0.707107 0.707107 0.707107 3396.97 1328)">00:03:25</text></g><g clip-path="url(#clip26)"><text font-family="LM Roman 10,LM Roman 10_MSFontService,sans-serif" font-weight="700" font-size="50" transform="matrix(0.707107 -0.707107 0.707107 0.707107 3499.26 1328)">00:03:49</text></g><g clip-path="url(#clip27)"><text font-family="LM Roman 10,LM Roman 10_MSFontService,sans-serif" font-weight="700" font-size="50" transform="matrix(0.707107 -0.707107 0.707107 0.707107 3601.56 1328)">00:04:14</text></g><g clip-path="url(#clip28)"><text font-family="LM Roman 10,LM Roman 10_MSFontService,sans-serif" font-weight="700" font-size="50" transform="matrix(0.707107 -0.707107 0.707107 0.707107 3703.85 1328)">00:04:37</text></g><g clip-path="url(#clip29)"><text font-family="LM Roman 10,LM Roman 10_MSFontService,sans-serif" font-weight="700" font-size="50" transform="matrix(0.707107 -0.707107 0.707107 0.707107 3806.15 1328)">00:05:06</text></g><g clip-path="url(#clip30)"><text font-family="LM Roman 10,LM Roman 10_MSFontService,sans-serif" font-weight="700" font-size="50" transform="matrix(0.707107 -0.707107 0.707107 0.707107 3908.44 1328)">00:05:33</text></g><g clip-path="url(#clip31)"><text font-family="LM Roman 10,LM Roman 10_MSFontService,sans-serif" font-weight="700" font-size="50" transform="matrix(0.707107 -0.707107 0.707107 0.707107 4010.74 1328)">00:06:04</text></g><g clip-path="url(#clip32)"><text font-family="LM Roman 10,LM Roman 10_MSFontService,sans-serif" font-weight="700" font-size="50" transform="matrix(0.707107 -0.707107 0.707107 0.707107 4113.03 1328)">00:06:28</text></g><g clip-path="url(#clip33)"><text font-family="LM Roman 10,LM Roman 10_MSFontService,sans-serif" font-weight="700" font-size="50" transform="matrix(0.707107 -0.707107 0.707107 0.707107 4215.33 1328)">00:06:56</text></g><g clip-path="url(#clip34)"><text font-family="LM Roman 10,LM Roman 10_MSFontService,sans-serif" font-weight="700" font-size="50" transform="matrix(0.707107 -0.707107 0.707107 0.707107 4317.62 1328)">00:07:20</text></g><g clip-path="url(#clip35)"><text font-family="LM Roman 10,LM Roman 10_MSFontService,sans-serif" font-weight="700" font-size="50" transform="matrix(0.707107 -0.707107 0.707107 0.707107 4419.92 1328)">00:07:45</text></g><g clip-path="url(#clip36)"><text font-family="LM Roman 10,LM Roman 10_MSFontService,sans-serif" font-weight="700" font-size="50" transform="matrix(0.707107 -0.707107 0.707107 0.707107 4522.21 1328)">00:08:14</text></g><g clip-path="url(#clip37)"><text font-family="LM Roman 10,LM Roman 10_MSFontService,sans-serif" font-weight="700" font-size="50" transform="matrix(0.707107 -0.707107 0.707107 0.707107 4624.51 1328)">00:08:39</text></g><g clip-path="url(#clip38)"><text font-family="LM Roman 10,LM Roman 10_MSFontService,sans-serif" font-weight="700" font-size="50" transform="matrix(0.707107 -0.707107 0.707107 0.707107 4726.8 1328)">00:09:02</text></g><g clip-path="url(#clip39)"><text font-family="LM Roman 10,LM Roman 10_MSFontService,sans-serif" font-weight="700" font-size="50" transform="matrix(0.707107 -0.707107 0.707107 0.707107 4829.1 1328)">00:09:27</text></g><g clip-path="url(#clip40)"><text font-family="LM Roman 10,LM Roman 10_MSFontService,sans-serif" font-weight="400" font-size="64" transform="matrix(6.12323e-17 -1 1 6.12323e-17 2408.36 1162)">Czas przetwarzania (ms)</text></g><g clip-path="url(#clip41)"><text font-family="LM Roman 10,LM Roman 10_MSFontService,sans-serif" font-weight="400" font-size="64" transform="matrix(1 0 0 1 3552.82 1470)">Czas trwania ewaluacji</text></g><g clip-path="url(#clip42)"><text font-family="LM Roman 10,LM Roman 10_MSFontService,sans-serif" font-weight="400" font-size="73" transform="matrix(1 0 0 1 2868.4 255)">Interfejs API: C# .NET / Metoda HTTP: DELETE / </text></g><g clip-path="url(#clip43)"><text font-family="LM Roman 10,LM Roman 10_MSFontService,sans-serif" font-weight="400" font-size="73" transform="matrix(1 0 0 1 3353.34 359)">Platforma: DigitalOcean</text></g><g clip-path="url(#clip44)"><rect x="2734.5" y="466.5" width="413" height="122" stroke="#D9D9D9" stroke-width="3.4375" stroke-linejoin="round" stroke-miterlimit="10" fill="#FFFFFF"/></g><g clip-path="url(#clip45)"><path d="M2786.5 527.5 2874.5 527.501" stroke="#4472C4" stroke-width="3.4375" stroke-linecap="round" stroke-linejoin="round" stroke-miterlimit="10" fill="none" fill-rule="evenodd"/></g><g clip-path="url(#clip46)"><text font-family="LM Roman 10,LM Roman 10_MSFontService,sans-serif" font-weight="400" font-size="55" transform="matrix(1 0 0 1 2883.37 545)">DELETE</text></g></g></svg>