<svg width="3483" height="1702" xmlns="http://www.w3.org/2000/svg" xmlns:xlink="http://www.w3.org/1999/xlink" xml:space="preserve" overflow="hidden"><defs><clipPath id="clip0"><rect x="2505" y="278" width="3483" height="1702"/></clipPath><clipPath id="clip1"><rect x="2505" y="278" width="3483" height="1702"/></clipPath><clipPath id="clip2"><rect x="2505" y="278" width="3483" height="1702"/></clipPath><clipPath id="clip3"><rect x="2948" y="499" width="2808" height="1079"/></clipPath><clipPath id="clip4"><rect x="2948" y="499" width="2808" height="1079"/></clipPath><clipPath id="clip5"><rect x="2505" y="278" width="3483" height="1702"/></clipPath><clipPath id="clip6"><rect x="2505" y="278" width="3483" height="1702"/></clipPath><clipPath id="clip7"><rect x="2505" y="278" width="3483" height="1702"/></clipPath><clipPath id="clip8"><rect x="2505" y="278" width="3483" height="1702"/></clipPath><clipPath id="clip9"><rect x="2948" y="499" width="2808" height="1079"/></clipPath><clipPath id="clip10"><rect x="2948" y="499" width="2808" height="1079"/></clipPath><clipPath id="clip11"><rect x="2505" y="278" width="3483" height="1702"/></clipPath><clipPath id="clip12"><rect x="2505" y="278" width="3483" height="1702"/></clipPath><clipPath id="clip13"><rect x="2505" y="278" width="3483" height="1702"/></clipPath><clipPath id="clip14"><rect x="2505" y="278" width="3483" height="1702"/></clipPath><clipPath id="clip15"><rect x="2505" y="278" width="3483" height="1702"/></clipPath><clipPath id="clip16"><rect x="2505" y="278" width="3483" height="1702"/></clipPath><clipPath id="clip17"><rect x="2505" y="278" width="3483" height="1702"/></clipPath><clipPath id="clip18"><rect x="2505" y="278" width="3483" height="1702"/></clipPath><clipPath id="clip19"><rect x="2505" y="278" width="3483" height="1702"/></clipPath><clipPath id="clip20"><rect x="2505" y="278" width="3483" height="1702"/></clipPath><clipPath id="clip21"><rect x="2505" y="278" width="3483" height="1702"/></clipPath><clipPath id="clip22"><rect x="2505" y="278" width="3483" height="1702"/></clipPath><clipPath id="clip23"><rect x="2505" y="278" width="3483" height="1702"/></clipPath><clipPath id="clip24"><rect x="2505" y="278" width="3483" height="1702"/></clipPath><clipPath id="clip25"><rect x="2505" y="278" width="3483" height="1702"/></clipPath><clipPath id="clip26"><rect x="2505" y="278" width="3483" height="1702"/></clipPath><clipPath id="clip27"><rect x="2505" y="278" width="3483" height="1702"/></clipPath><clipPath id="clip28"><rect x="2505" y="278" width="3483" height="1702"/></clipPath><clipPath id="clip29"><rect x="2505" y="278" width="3483" height="1702"/></clipPath><clipPath id="clip30"><rect x="2505" y="278" width="3483" height="1702"/></clipPath><clipPath id="clip31"><rect x="2505" y="278" width="3483" height="1702"/></clipPath><clipPath id="clip32"><rect x="2505" y="278" width="3483" height="1702"/></clipPath><clipPath id="clip33"><rect x="2505" y="278" width="3483" height="1702"/></clipPath><clipPath id="clip34"><rect x="2505" y="278" width="3483" height="1702"/></clipPath><clipPath id="clip35"><rect x="2505" y="278" width="3483" height="1702"/></clipPath><clipPath id="clip36"><rect x="2505" y="278" width="3483" height="1702"/></clipPath><clipPath id="clip37"><rect x="2505" y="278" width="3483" height="1702"/></clipPath><clipPath id="clip38"><rect x="2505" y="278" width="3483" height="1702"/></clipPath><clipPath id="clip39"><rect x="2505" y="278" width="3483" height="1702"/></clipPath><clipPath id="clip40"><rect x="2505" y="278" width="3483" height="1702"/></clipPath><clipPath id="clip41"><rect x="2505" y="278" width="3483" height="1702"/></clipPath><clipPath id="clip42"><rect x="2505" y="278" width="3483" height="1702"/></clipPath><clipPath id="clip43"><rect x="2505" y="278" width="3483" height="1702"/></clipPath><clipPath id="clip44"><rect x="2505" y="278" width="3483" height="1702"/></clipPath><clipPath id="clip45"><rect x="2505" y="278" width="3483" height="1702"/></clipPath><clipPath id="clip46"><rect x="2505" y="278" width="3483" height="1702"/></clipPath><clipPath id="clip47"><rect x="2505" y="278" width="3483" height="1702"/></clipPath><clipPath id="clip48"><rect x="2505" y="278" width="3483" height="1702"/></clipPath><clipPath id="clip49"><rect x="2505" y="278" width="3483" height="1702"/></clipPath><clipPath id="clip50"><rect x="2505" y="278" width="3483" height="1702"/></clipPath><clipPath id="clip51"><rect x="2505" y="278" width="3483" height="1702"/></clipPath><clipPath id="clip52"><rect x="2505" y="278" width="3483" height="1702"/></clipPath><clipPath id="clip53"><rect x="2505" y="278" width="3483" height="1702"/></clipPath><clipPath id="clip54"><rect x="2505" y="278" width="3483" height="1702"/></clipPath><clipPath id="clip55"><rect x="2505" y="278" width="3483" height="1702"/></clipPath><clipPath id="clip56"><rect x="2505" y="278" width="3483" height="1702"/></clipPath><clipPath id="clip57"><rect x="2505" y="278" width="3483" height="1702"/></clipPath><clipPath id="clip58"><rect x="2505" y="278" width="3483" height="1702"/></clipPath><clipPath id="clip59"><rect x="2505" y="278" width="3483" height="1702"/></clipPath><clipPath id="clip60"><rect x="2505" y="278" width="3483" height="1702"/></clipPath><clipPath id="clip61"><rect x="2505" y="278" width="3483" height="1702"/></clipPath></defs><g clip-path="url(#clip0)" transform="translate(-2505 -278)"><rect x="2506" y="278" width="3482" height="1702" fill="#FFFFFF"/><g clip-path="url(#clip1)"><path d="M2948.5 1421.55 5753.5 1421.55M2948.5 1267.54 5753.5 1267.54M2948.5 1114.54 5753.5 1114.54M2948.5 960.532 5753.5 960.532M2948.5 806.527 5753.5 806.527M2948.5 653.522 5753.5 653.522M2948.5 499.5 5753.5 499.5" stroke="#D9D9D9" stroke-width="3.4375" stroke-linejoin="round" stroke-miterlimit="10" fill="none"/></g><g clip-path="url(#clip2)"><path d="M2995.6 499.5 2995.6 1574.5M3041.6 499.5 3041.6 1574.5M3088.6 499.5 3088.6 1574.5M3135.6 499.5 3135.6 1574.5M3182.6 499.5 3182.6 1574.5M3228.61 499.5 3228.61 1574.5M3275.61 499.5 3275.61 1574.5M3322.61 499.5 3322.61 1574.5M3368.61 499.5 3368.61 1574.5M3415.61 499.5 3415.61 1574.5M3462.61 499.5 3462.61 1574.5M3509.62 499.5 3509.62 1574.5M3555.62 499.5 3555.62 1574.5M3602.62 499.5 3602.62 1574.5M3649.62 499.5 3649.62 1574.5M3696.62 499.5 3696.62 1574.5M3742.62 499.5 3742.62 1574.5M3789.62 499.5 3789.62 1574.5M3836.63 499.5 3836.63 1574.5M3883.63 499.5 3883.63 1574.5M3929.63 499.5 3929.63 1574.5M3976.63 499.5 3976.63 1574.5M4023.63 499.5 4023.63 1574.5M4070.63 499.5 4070.63 1574.5M4116.64 499.5 4116.64 1574.5M4163.64 499.5 4163.64 1574.5M4210.64 499.5 4210.64 1574.5M4257.64 499.5 4257.64 1574.5M4303.64 499.5 4303.64 1574.5M4350.64 499.5 4350.64 1574.5M4397.64 499.5 4397.64 1574.5M4444.65 499.5 4444.65 1574.5M4490.65 499.5 4490.65 1574.5M4537.65 499.5 4537.65 1574.5M4584.65 499.5 4584.65 1574.5M4631.65 499.5 4631.65 1574.5M4677.65 499.5 4677.65 1574.5M4724.66 499.5 4724.66 1574.5M4771.66 499.5 4771.66 1574.5M4817.66 499.5 4817.66 1574.5M4864.66 499.5 4864.66 1574.5M4911.66 499.5 4911.66 1574.5M4958.66 499.5 4958.66 1574.5M5004.66 499.5 5004.66 1574.5M5051.67 499.5 5051.67 1574.5M5098.67 499.5 5098.67 1574.5M5145.67 499.5 5145.67 1574.5M5191.67 499.5 5191.67 1574.5M5238.67 499.5 5238.67 1574.5M5285.67 499.5 5285.67 1574.5M5332.67 499.5 5332.67 1574.5M5378.68 499.5 5378.68 1574.5M5425.68 499.5 5425.68 1574.5M5472.68 499.5 5472.68 1574.5M5519.68 499.5 5519.68 1574.5M5565.68 499.5 5565.68 1574.5M5612.68 499.5 5612.68 1574.5M5659.69 499.5 5659.69 1574.5M5706.69 499.5 5706.69 1574.5M5753.5 499.5 5753.5 1574.5" stroke="#D9D9D9" stroke-width="3.4375" stroke-linejoin="round" stroke-miterlimit="10" fill="none"/></g><g clip-path="url(#clip3)"><path d="M4458.15 1552.05 4477.15 1552.05 4477.15 1575 4458.15 1575ZM4505.15 1523.05 4524.15 1523.05 4524.15 1575 4505.15 1575ZM4552.15 1515.05 4570.15 1515.05 4570.15 1575 4552.15 1575ZM4598.15 1504.05 4617.15 1504.05 4617.15 1575 4598.15 1575ZM4645.15 1448.05 4664.15 1448.05 4664.15 1575 4645.15 1575ZM4692.15 1419.05 4710.15 1419.05 4710.15 1575 4692.15 1575ZM4739.16 1412.05 4757.16 1412.05 4757.16 1575 4739.16 1575ZM4785.16 1410.05 4804.16 1410.05 4804.16 1575 4785.16 1575ZM4832.16 1378.05 4851.16 1378.05 4851.16 1575 4832.16 1575ZM4879.16 1390.05 4897.16 1390.05 4897.16 1575 4879.16 1575ZM4925.16 1368.04 4944.16 1368.04 4944.16 1575 4925.16 1575ZM4972.16 1356.04 4991.16 1356.04 4991.16 1575 4972.16 1575ZM5019.16 1325.04 5038.17 1325.04 5038.17 1575 5019.16 1575ZM5066.17 1317.04 5084.17 1317.04 5084.17 1575 5066.17 1575ZM5112.17 1329.04 5131.17 1329.04 5131.17 1575 5112.17 1575ZM5159.17 1275.04 5178.17 1275.04 5178.17 1575 5159.17 1575ZM5206.17 1249.04 5225.17 1249.04 5225.17 1575 5206.17 1575ZM5253.17 1239.04 5271.17 1239.04 5271.17 1575 5253.17 1575ZM5299.17 1231.04 5318.17 1231.04 5318.17 1575 5299.17 1575ZM5346.18 1218.04 5365.18 1218.04 5365.18 1575 5346.18 1575ZM5393.18 1211.04 5412.18 1211.04 5412.18 1575 5393.18 1575ZM5440.18 1189.04 5458.18 1189.04 5458.18 1575 5440.18 1575ZM5486.18 1260.04 5505.18 1260.04 5505.18 1575 5486.18 1575ZM5533.18 1160.04 5552.18 1160.04 5552.18 1575 5533.18 1575ZM5580.18 1281.04 5599.18 1281.04 5599.18 1575 5580.18 1575ZM5627.18 1138.04 5645.19 1138.04 5645.19 1575 5627.18 1575ZM5673.19 1084.04 5692.19 1084.04 5692.19 1575 5673.19 1575ZM5720.19 1053.03 5739.19 1053.03 5739.19 1575 5720.19 1575Z" fill="#BFBFBF"/></g><g clip-path="url(#clip4)"><path d="M3804.12 1529.05 3822.13 1529.05 3822.13 1575 3804.12 1575ZM3850.13 1513.05 3869.13 1513.05 3869.13 1575 3850.13 1575ZM3897.13 1498.05 3916.13 1498.05 3916.13 1575 3897.13 1575ZM3944.13 1483.05 3963.13 1483.05 3963.13 1575 3944.13 1575ZM3991.13 1498.05 4009.13 1498.05 4009.13 1575 3991.13 1575ZM4037.13 1483.05 4056.13 1483.05 4056.13 1575 4037.13 1575ZM4084.13 1467.05 4103.13 1467.05 4103.13 1575 4084.13 1575ZM4131.14 1467.05 4150.14 1467.05 4150.14 1575 4131.14 1575ZM4178.14 1452.05 4196.14 1452.05 4196.14 1575 4178.14 1575ZM4224.14 1437.05 4243.14 1437.05 4243.14 1575 4224.14 1575ZM4271.14 1483.05 4290.14 1483.05 4290.14 1575 4271.14 1575ZM4318.14 1406.05 4337.14 1406.05 4337.14 1575 4318.14 1575ZM4365.14 1375.05 4383.14 1375.05 4383.14 1575 4365.14 1575ZM4411.14 1344.04 4430.15 1344.04 4430.15 1575 4411.14 1575ZM4458.15 1360.04 4477.15 1360.04 4477.15 1552.05 4458.15 1552.05ZM4505.15 1289.04 4524.15 1289.04 4524.15 1523.05 4505.15 1523.05ZM4552.15 1329.04 4570.15 1329.04 4570.15 1515.05 4552.15 1515.05ZM4598.15 1298.04 4617.15 1298.04 4617.15 1504.05 4598.15 1504.05ZM4645.15 1237.04 4664.15 1237.04 4664.15 1448.05 4645.15 1448.05ZM4692.15 1268.04 4710.15 1268.04 4710.15 1419.05 4692.15 1419.05ZM4739.16 1206.04 4757.16 1206.04 4757.16 1412.05 4739.16 1412.05ZM4785.16 1222.04 4804.16 1222.04 4804.16 1410.05 4785.16 1410.05ZM4832.16 1175.04 4851.16 1175.04 4851.16 1378.05 4832.16 1378.05ZM4879.16 1099.04 4897.16 1099.04 4897.16 1390.05 4879.16 1390.05ZM4925.16 1068.04 4944.16 1068.04 4944.16 1368.04 4925.16 1368.04ZM4972.16 1053.03 4991.16 1053.03 4991.16 1356.04 4972.16 1356.04ZM5019.16 1022.03 5038.17 1022.03 5038.17 1325.04 5019.16 1325.04ZM5066.17 976.032 5084.17 976.032 5084.17 1317.04 5066.17 1317.04ZM5112.17 930.031 5131.17 930.031 5131.17 1329.04 5112.17 1329.04ZM5159.17 914.03 5178.17 914.03 5178.17 1275.04 5159.17 1275.04ZM5206.17 853.028 5225.17 853.028 5225.17 1249.04 5206.17 1249.04ZM5253.17 822.027 5271.17 822.027 5271.17 1239.04 5253.17 1239.04ZM5299.17 776.025 5318.17 776.025 5318.17 1231.04 5299.17 1231.04ZM5346.18 761.025 5365.18 761.025 5365.18 1218.04 5346.18 1218.04ZM5393.18 745.024 5412.18 745.024 5412.18 1211.04 5393.18 1211.04ZM5440.18 715.023 5458.18 715.023 5458.18 1189.04 5440.18 1189.04ZM5486.18 745.024 5505.18 745.024 5505.18 1260.04 5486.18 1260.04ZM5533.18 776.025 5552.18 776.025 5552.18 1160.04 5533.18 1160.04ZM5580.18 684.022 5599.18 684.022 5599.18 1281.04 5580.18 1281.04ZM5627.18 715.023 5645.19 715.023 5645.19 1138.04 5627.18 1138.04ZM5673.19 669.022 5692.19 669.022 5692.19 1084.04 5673.19 1084.04ZM5720.19 623.02 5739.19 623.02 5739.19 1053.03 5720.19 1053.03Z" fill="#D9D9D9"/></g><g clip-path="url(#clip5)"><path d="M0 0 0.000360892 1075" stroke="#BFBFBF" stroke-width="3.4375" stroke-linejoin="round" stroke-miterlimit="10" fill="none" fill-rule="evenodd" transform="matrix(1 0 0 -1 5753.5 1574.5)"/></g><g clip-path="url(#clip6)"><path d="M5753.5 1574.5 5777.5 1574.5M5753.5 1421.55 5777.5 1421.55M5753.5 1267.54 5777.5 1267.54M5753.5 1114.54 5777.5 1114.54M5753.5 960.532 5777.5 960.532M5753.5 806.527 5777.5 806.527M5753.5 653.522 5777.5 653.522M5753.5 499.5 5777.5 499.5" stroke="#BFBFBF" stroke-width="3.4375" stroke-linejoin="round" stroke-miterlimit="10" fill="none"/></g><g clip-path="url(#clip7)"><path d="M0 0 0.000360892 1075" stroke="#BFBFBF" stroke-width="3.4375" stroke-linejoin="round" stroke-miterlimit="10" fill="none" fill-rule="evenodd" transform="matrix(1 0 0 -1 2948.5 1574.5)"/></g><g clip-path="url(#clip8)"><path d="M2948.5 1574.5 5753.5 1574.5" stroke="#BFBFBF" stroke-width="3.4375" stroke-linejoin="round" stroke-miterlimit="10" fill="none" fill-rule="evenodd"/></g><g clip-path="url(#clip9)"><path d="M2971.5 1567.5 3018.6 1565.55 3065.6 1564.55 3111.6 1561.55 3158.6 1564.55 3205.61 1558.55 3252.61 1561.55 3298.61 1554.55 3345.61 1562.55 3392.61 1562.55 3439.61 1547.55 3485.61 1540.55 3532.62 1539.55 3579.62 1537.55 3626.62 1532.55 3672.62 1527.55 3719.62 1535.55 3766.62 1523.55 3813.63 1535.55 3859.63 1528.55 3906.63 1511.55 3953.63 1520.55 3999.63 1504.55 4046.63 1500.55 4093.63 1496.55 4140.64 1491.55 4186.64 1492.55 4233.64 1490.55 4280.64 1488.55 4327.64 1480.55 4373.64 1479.55 4420.65 1487.55 4467.65 1458.55 4514.65 1456.55 4560.65 1452.55 4607.65 1450.55 4654.65 1443.55 4701.65 1444.55 4747.66 1447.55 4794.66 1444.55 4841.66 1427.55 4888.66 1425.55 4934.66 1427.55 4981.66 1414.55 5028.67 1330.54 5075.67 1327.54 5121.67 1276.54 5168.67 1241.54 5215.67 1164.54 5262.67 1125.54 5308.67 1088.54 5355.68 948.531 5402.68 994.533 5448.68 779.526 5495.68 651.5 5542.68 935.531 5589.68 879.529 5635.69 852.528 5682.69 839.528 5729.5 812.527" stroke="#4472C4" stroke-width="6.875" stroke-linecap="round" stroke-linejoin="round" stroke-miterlimit="10" fill="none"/></g><g clip-path="url(#clip10)"><path d="M2971.5 1572.5 3018.6 1570.55 3065.6 1570.55 3111.6 1567.55 3158.6 1568.55 3205.61 1564.55 3252.61 1563.55 3298.61 1560.55 3345.61 1559.55 3392.61 1552.55 3439.61 1556.55 3485.61 1554.55 3532.62 1552.55 3579.62 1549.55 3626.62 1549.55 3672.62 1546.55 3719.62 1539.55 3766.62 1538.55 3813.63 1542.55 3859.63 1532.55 3906.63 1529.55 3953.63 1527.55 3999.63 1525.55 4046.63 1524.55 4093.63 1524.55 4140.64 1523.55 4186.64 1525.55 4233.64 1519.55 4280.64 1512.55 4327.64 1503.55 4373.64 1503.55 4420.65 1500.55 4467.65 1497.55 4514.65 1495.55 4560.65 1494.55 4607.65 1494.55 4654.65 1486.55 4701.65 1483.55 4747.66 1481.55 4794.66 1477.55 4841.66 1474.55 4888.66 1470.55 4934.66 1469.55 4981.66 1467.55 5028.67 1466.55 5075.67 1440.55 5121.67 1439.55 5168.67 1435.55 5215.67 1432.55 5262.67 1388.55 5308.67 1323.54 5355.68 1337.54 5402.68 1226.54 5448.68 1290.54 5495.68 1264.54 5542.68 1210.54 5589.68 1226.54 5635.69 1268.54 5682.69 1167.54 5729.5 1164.5" stroke="#ED7D31" stroke-width="6.875" stroke-linecap="round" stroke-linejoin="round" stroke-miterlimit="10" fill="none"/></g><g clip-path="url(#clip11)"><text font-family="LM Roman 10,LM Roman 10_MSFontService,sans-serif" font-weight="700" font-size="64" transform="matrix(1 0 0 1 5823.05 1595)">0%</text></g><g clip-path="url(#clip12)"><text font-family="LM Roman 10,LM Roman 10_MSFontService,sans-serif" font-weight="700" font-size="64" transform="matrix(1 0 0 1 5823.05 1442)">10%</text></g><g clip-path="url(#clip13)"><text font-family="LM Roman 10,LM Roman 10_MSFontService,sans-serif" font-weight="700" font-size="64" transform="matrix(1 0 0 1 5823.05 1288)">20%</text></g><g clip-path="url(#clip14)"><text font-family="LM Roman 10,LM Roman 10_MSFontService,sans-serif" font-weight="700" font-size="64" transform="matrix(1 0 0 1 5823.05 1134)">30%</text></g><g clip-path="url(#clip15)"><text font-family="LM Roman 10,LM Roman 10_MSFontService,sans-serif" font-weight="700" font-size="64" transform="matrix(1 0 0 1 5823.05 981)">40%</text></g><g clip-path="url(#clip16)"><text font-family="LM Roman 10,LM Roman 10_MSFontService,sans-serif" font-weight="700" font-size="64" transform="matrix(1 0 0 1 5823.05 827)">50%</text></g><g clip-path="url(#clip17)"><text font-family="LM Roman 10,LM Roman 10_MSFontService,sans-serif" font-weight="700" font-size="64" transform="matrix(1 0 0 1 5823.05 674)">60%</text></g><g clip-path="url(#clip18)"><text font-family="LM Roman 10,LM Roman 10_MSFontService,sans-serif" font-weight="700" font-size="64" transform="matrix(1 0 0 1 5823.05 520)">70%</text></g><g clip-path="url(#clip19)"><text font-family="LM Roman 10,LM Roman 10_MSFontService,sans-serif" font-weight="700" font-size="64" transform="matrix(1 0 0 1 2841.46 1595)">0</text></g><g clip-path="url(#clip20)"><text font-family="LM Roman 10,LM Roman 10_MSFontService,sans-serif" font-weight="700" font-size="64" transform="matrix(1 0 0 1 2730.77 1442)">2000</text></g><g clip-path="url(#clip21)"><text font-family="LM Roman 10,LM Roman 10_MSFontService,sans-serif" font-weight="700" font-size="64" transform="matrix(1 0 0 1 2730.77 1288)">4000</text></g><g clip-path="url(#clip22)"><text font-family="LM Roman 10,LM Roman 10_MSFontService,sans-serif" font-weight="700" font-size="64" transform="matrix(1 0 0 1 2730.77 1134)">6000</text></g><g clip-path="url(#clip23)"><text font-family="LM Roman 10,LM Roman 10_MSFontService,sans-serif" font-weight="700" font-size="64" transform="matrix(1 0 0 1 2730.77 981)">8000</text></g><g clip-path="url(#clip24)"><text font-family="LM Roman 10,LM Roman 10_MSFontService,sans-serif" font-weight="700" font-size="64" transform="matrix(1 0 0 1 2693.88 827)">10000</text></g><g clip-path="url(#clip25)"><text font-family="LM Roman 10,LM Roman 10_MSFontService,sans-serif" font-weight="700" font-size="64" transform="matrix(1 0 0 1 2693.88 674)">12000</text></g><g clip-path="url(#clip26)"><text font-family="LM Roman 10,LM Roman 10_MSFontService,sans-serif" font-weight="700" font-size="64" transform="matrix(1 0 0 1 2693.88 520)">14000</text></g><g clip-path="url(#clip27)"><text font-family="LM Roman 10,LM Roman 10_MSFontService,sans-serif" font-weight="700" font-size="64" transform="matrix(0.707107 -0.707107 0.707107 0.707107 2938.82 1727)">10</text></g><g clip-path="url(#clip28)"><text font-family="LM Roman 10,LM Roman 10_MSFontService,sans-serif" font-weight="700" font-size="64" transform="matrix(0.707107 -0.707107 0.707107 0.707107 3052.96 1753)">255</text></g><g clip-path="url(#clip29)"><text font-family="LM Roman 10,LM Roman 10_MSFontService,sans-serif" font-weight="700" font-size="64" transform="matrix(0.707107 -0.707107 0.707107 0.707107 3193.19 1753)">510</text></g><g clip-path="url(#clip30)"><text font-family="LM Roman 10,LM Roman 10_MSFontService,sans-serif" font-weight="700" font-size="64" transform="matrix(0.707107 -0.707107 0.707107 0.707107 3333.42 1753)">765</text></g><g clip-path="url(#clip31)"><text font-family="LM Roman 10,LM Roman 10_MSFontService,sans-serif" font-weight="700" font-size="64" transform="matrix(0.707107 -0.707107 0.707107 0.707107 3447.56 1779)">1020</text></g><g clip-path="url(#clip32)"><text font-family="LM Roman 10,LM Roman 10_MSFontService,sans-serif" font-weight="700" font-size="64" transform="matrix(0.707107 -0.707107 0.707107 0.707107 3587.79 1779)">1275</text></g><g clip-path="url(#clip33)"><text font-family="LM Roman 10,LM Roman 10_MSFontService,sans-serif" font-weight="700" font-size="64" transform="matrix(0.707107 -0.707107 0.707107 0.707107 3728.02 1779)">1530</text></g><g clip-path="url(#clip34)"><text font-family="LM Roman 10,LM Roman 10_MSFontService,sans-serif" font-weight="700" font-size="64" transform="matrix(0.707107 -0.707107 0.707107 0.707107 3868.25 1779)">1785</text></g><g clip-path="url(#clip35)"><text font-family="LM Roman 10,LM Roman 10_MSFontService,sans-serif" font-weight="700" font-size="64" transform="matrix(0.707107 -0.707107 0.707107 0.707107 4008.48 1779)">2040</text></g><g clip-path="url(#clip36)"><text font-family="LM Roman 10,LM Roman 10_MSFontService,sans-serif" font-weight="700" font-size="64" transform="matrix(0.707107 -0.707107 0.707107 0.707107 4148.71 1779)">2295</text></g><g clip-path="url(#clip37)"><text font-family="LM Roman 10,LM Roman 10_MSFontService,sans-serif" font-weight="700" font-size="64" transform="matrix(0.707107 -0.707107 0.707107 0.707107 4288.95 1779)">2550</text></g><g clip-path="url(#clip38)"><text font-family="LM Roman 10,LM Roman 10_MSFontService,sans-serif" font-weight="700" font-size="64" transform="matrix(0.707107 -0.707107 0.707107 0.707107 4429.18 1779)">2805</text></g><g clip-path="url(#clip39)"><text font-family="LM Roman 10,LM Roman 10_MSFontService,sans-serif" font-weight="700" font-size="64" transform="matrix(0.707107 -0.707107 0.707107 0.707107 4569.41 1779)">3060</text></g><g clip-path="url(#clip40)"><text font-family="LM Roman 10,LM Roman 10_MSFontService,sans-serif" font-weight="700" font-size="64" transform="matrix(0.707107 -0.707107 0.707107 0.707107 4709.64 1779)">3315</text></g><g clip-path="url(#clip41)"><text font-family="LM Roman 10,LM Roman 10_MSFontService,sans-serif" font-weight="700" font-size="64" transform="matrix(0.707107 -0.707107 0.707107 0.707107 4849.87 1779)">3570</text></g><g clip-path="url(#clip42)"><text font-family="LM Roman 10,LM Roman 10_MSFontService,sans-serif" font-weight="700" font-size="64" transform="matrix(0.707107 -0.707107 0.707107 0.707107 4990.1 1779)">3825</text></g><g clip-path="url(#clip43)"><text font-family="LM Roman 10,LM Roman 10_MSFontService,sans-serif" font-weight="700" font-size="64" transform="matrix(0.707107 -0.707107 0.707107 0.707107 5130.33 1779)">4080</text></g><g clip-path="url(#clip44)"><text font-family="LM Roman 10,LM Roman 10_MSFontService,sans-serif" font-weight="700" font-size="64" transform="matrix(0.707107 -0.707107 0.707107 0.707107 5270.56 1779)">4335</text></g><g clip-path="url(#clip45)"><text font-family="LM Roman 10,LM Roman 10_MSFontService,sans-serif" font-weight="700" font-size="64" transform="matrix(0.707107 -0.707107 0.707107 0.707107 5410.79 1779)">4590</text></g><g clip-path="url(#clip46)"><text font-family="LM Roman 10,LM Roman 10_MSFontService,sans-serif" font-weight="700" font-size="64" transform="matrix(0.707107 -0.707107 0.707107 0.707107 5551.02 1779)">4845</text></g><g clip-path="url(#clip47)"><text font-family="LM Roman 10,LM Roman 10_MSFontService,sans-serif" font-weight="400" font-size="83" transform="matrix(6.12323e-17 -1 1 6.12323e-17 2612.99 1607)">Średni czas odpowiedzi (ms)</text></g><g clip-path="url(#clip48)"><text font-family="LM Roman 10,LM Roman 10_MSFontService,sans-serif" font-weight="400" font-size="83" transform="matrix(1 0 0 1 3544.76 1950)">Liczba współbieżnie działających wątków</text></g><g clip-path="url(#clip49)"><text font-family="LM Roman 10,LM Roman 10_MSFontService,sans-serif" font-weight="700" font-size="78" transform="matrix(1 0 0 1 3032.8 401)">Interfejs API: </text></g><g clip-path="url(#clip50)"><text font-family="LM Roman 10,LM Roman 10_MSFontService,sans-serif" font-weight="400" font-size="78" transform="matrix(1 0 0 1 3605.49 401)">C# .NET API</text></g><g clip-path="url(#clip51)"><text font-family="LM Roman 10,LM Roman 10_MSFontService,sans-serif" font-weight="700" font-size="78" transform="matrix(1 0 0 1 4107.55 401)">. Punkt końcowy: </text></g><g clip-path="url(#clip52)"><text font-family="LM Roman 10,LM Roman 10_MSFontService,sans-serif" font-weight="400" font-size="78" transform="matrix(1 0 0 1 4823.3 401)">GET /API/BILLS</text></g><g clip-path="url(#clip53)"><rect x="2974.5" y="518.5" width="1111" height="436" stroke="#BFBFBF" stroke-width="3.4375" stroke-linejoin="round" stroke-miterlimit="10" fill="#FFFFFF"/></g><g clip-path="url(#clip54)"><rect x="2996" y="556" width="88" height="35.0001" fill="#D9D9D9"/></g><g clip-path="url(#clip55)"><text font-family="LM Roman 10,LM Roman 10_MSFontService,sans-serif" font-weight="400" font-size="55" transform="matrix(1 0 0 1 3093.23 590)">Procent niepoprawnych odpowiedzi</text></g><g clip-path="url(#clip56)"><rect x="2996" y="665" width="88" height="34.9997" fill="#BFBFBF"/></g><g clip-path="url(#clip57)"><text font-family="LM Roman 10,LM Roman 10_MSFontService,sans-serif" font-weight="400" font-size="50" transform="matrix(1 0 0 1 3093.23 698)">Procent niepoprawnych odpowiedzi - CQRS</text></g><g clip-path="url(#clip58)"><path d="M2995.5 791.5 3083.5 791.501" stroke="#4472C4" stroke-width="6.875" stroke-linecap="round" stroke-linejoin="round" stroke-miterlimit="10" fill="none" fill-rule="evenodd"/></g><g clip-path="url(#clip59)"><text font-family="LM Roman 10,LM Roman 10_MSFontService,sans-serif" font-weight="400" font-size="55" transform="matrix(1 0 0 1 3093.23 808)">SQL Server</text></g><g clip-path="url(#clip60)"><path d="M2995.5 900.5 3083.5 900.5" stroke="#ED7D31" stroke-width="6.875" stroke-linecap="round" stroke-linejoin="round" stroke-miterlimit="10" fill="none" fill-rule="evenodd"/></g><g clip-path="url(#clip61)"><text font-family="LM Roman 10,LM Roman 10_MSFontService,sans-serif" font-weight="400" font-size="55" transform="matrix(1 0 0 1 3093.23 917)">SQL Server - CQRS</text></g></g></svg>