<svg width="3407" height="1702" xmlns="http://www.w3.org/2000/svg" xmlns:xlink="http://www.w3.org/1999/xlink" xml:space="preserve" overflow="hidden"><defs><clipPath id="clip0"><rect x="2835" y="268" width="3407" height="1702"/></clipPath><clipPath id="clip1"><rect x="2835" y="268" width="3407" height="1701"/></clipPath><clipPath id="clip2"><rect x="2835" y="268" width="3407" height="1701"/></clipPath><clipPath id="clip3"><rect x="3241" y="489" width="2769" height="1078"/></clipPath><clipPath id="clip4"><rect x="3241" y="489" width="2769" height="1078"/></clipPath><clipPath id="clip5"><rect x="2835" y="268" width="3407" height="1701"/></clipPath><clipPath id="clip6"><rect x="2835" y="268" width="3407" height="1701"/></clipPath><clipPath id="clip7"><rect x="2835" y="268" width="3407" height="1701"/></clipPath><clipPath id="clip8"><rect x="2835" y="268" width="3407" height="1701"/></clipPath><clipPath id="clip9"><rect x="3241" y="489" width="2769" height="1078"/></clipPath><clipPath id="clip10"><rect x="3241" y="489" width="2769" height="1078"/></clipPath><clipPath id="clip11"><rect x="2835" y="268" width="3407" height="1701"/></clipPath><clipPath id="clip12"><rect x="2835" y="268" width="3407" height="1701"/></clipPath><clipPath id="clip13"><rect x="2835" y="268" width="3407" height="1701"/></clipPath><clipPath id="clip14"><rect x="2835" y="268" width="3407" height="1701"/></clipPath><clipPath id="clip15"><rect x="2835" y="268" width="3407" height="1701"/></clipPath><clipPath id="clip16"><rect x="2835" y="268" width="3407" height="1701"/></clipPath><clipPath id="clip17"><rect x="2835" y="268" width="3407" height="1701"/></clipPath><clipPath id="clip18"><rect x="2835" y="268" width="3407" height="1701"/></clipPath><clipPath id="clip19"><rect x="2835" y="268" width="3407" height="1701"/></clipPath><clipPath id="clip20"><rect x="2835" y="268" width="3407" height="1701"/></clipPath><clipPath id="clip21"><rect x="2835" y="268" width="3407" height="1701"/></clipPath><clipPath id="clip22"><rect x="2835" y="268" width="3407" height="1701"/></clipPath><clipPath id="clip23"><rect x="2835" y="268" width="3407" height="1701"/></clipPath><clipPath id="clip24"><rect x="2835" y="268" width="3407" height="1701"/></clipPath><clipPath id="clip25"><rect x="2835" y="268" width="3407" height="1701"/></clipPath><clipPath id="clip26"><rect x="2835" y="268" width="3407" height="1701"/></clipPath><clipPath id="clip27"><rect x="2835" y="268" width="3407" height="1701"/></clipPath><clipPath id="clip28"><rect x="2835" y="268" width="3407" height="1701"/></clipPath><clipPath id="clip29"><rect x="2835" y="268" width="3407" height="1701"/></clipPath><clipPath id="clip30"><rect x="2835" y="268" width="3407" height="1701"/></clipPath><clipPath id="clip31"><rect x="2835" y="268" width="3407" height="1701"/></clipPath><clipPath id="clip32"><rect x="2835" y="268" width="3407" height="1701"/></clipPath><clipPath id="clip33"><rect x="2835" y="268" width="3407" height="1701"/></clipPath><clipPath id="clip34"><rect x="2835" y="268" width="3407" height="1701"/></clipPath><clipPath id="clip35"><rect x="2835" y="268" width="3407" height="1701"/></clipPath><clipPath id="clip36"><rect x="2835" y="268" width="3407" height="1701"/></clipPath><clipPath id="clip37"><rect x="2835" y="268" width="3407" height="1701"/></clipPath><clipPath id="clip38"><rect x="2835" y="268" width="3407" height="1701"/></clipPath><clipPath id="clip39"><rect x="2835" y="268" width="3407" height="1701"/></clipPath><clipPath id="clip40"><rect x="2835" y="268" width="3407" height="1701"/></clipPath><clipPath id="clip41"><rect x="2835" y="268" width="3407" height="1701"/></clipPath><clipPath id="clip42"><rect x="2835" y="268" width="3407" height="1701"/></clipPath><clipPath id="clip43"><rect x="2835" y="268" width="3407" height="1701"/></clipPath><clipPath id="clip44"><rect x="2835" y="268" width="3407" height="1701"/></clipPath><clipPath id="clip45"><rect x="2835" y="268" width="3407" height="1701"/></clipPath><clipPath id="clip46"><rect x="2835" y="268" width="3407" height="1701"/></clipPath><clipPath id="clip47"><rect x="2835" y="268" width="3407" height="1701"/></clipPath><clipPath id="clip48"><rect x="2835" y="268" width="3407" height="1701"/></clipPath><clipPath id="clip49"><rect x="2835" y="268" width="3407" height="1701"/></clipPath><clipPath id="clip50"><rect x="2835" y="268" width="3407" height="1701"/></clipPath><clipPath id="clip51"><rect x="2835" y="268" width="3407" height="1701"/></clipPath><clipPath id="clip52"><rect x="2835" y="268" width="3407" height="1701"/></clipPath><clipPath id="clip53"><rect x="2835" y="268" width="3407" height="1701"/></clipPath><clipPath id="clip54"><rect x="2835" y="268" width="3407" height="1701"/></clipPath><clipPath id="clip55"><rect x="2835" y="268" width="3407" height="1701"/></clipPath><clipPath id="clip56"><rect x="2835" y="268" width="3407" height="1701"/></clipPath><clipPath id="clip57"><rect x="2835" y="268" width="3407" height="1701"/></clipPath><clipPath id="clip58"><rect x="2835" y="268" width="3407" height="1701"/></clipPath><clipPath id="clip59"><rect x="2835" y="268" width="3407" height="1701"/></clipPath></defs><g clip-path="url(#clip0)" transform="translate(-2835 -268)"><rect x="2836" y="268" width="3406" height="1702" fill="#FFFFFF"/><g clip-path="url(#clip1)"><path d="M3241.5 1384.55 6007.5 1384.55M3241.5 1205.54 6007.5 1205.54M3241.5 1026.53 6007.5 1026.53M3241.5 847.528 6007.5 847.528M3241.5 668.522 6007.5 668.522M3241.5 489.5 6007.5 489.5" stroke="#D9D9D9" stroke-width="3.4375" stroke-linejoin="round" stroke-miterlimit="10" fill="none"/></g><g clip-path="url(#clip2)"><path d="M3287.61 489.5 3287.61 1564.5M3333.61 489.5 3333.61 1564.5M3379.61 489.5 3379.61 1564.5M3425.61 489.5 3425.61 1564.5M3471.61 489.5 3471.61 1564.5M3517.62 489.5 3517.62 1564.5M3564.62 489.5 3564.62 1564.5M3610.62 489.5 3610.62 1564.5M3656.62 489.5 3656.62 1564.5M3702.62 489.5 3702.62 1564.5M3748.62 489.5 3748.62 1564.5M3794.62 489.5 3794.62 1564.5M3840.63 489.5 3840.63 1564.5M3886.63 489.5 3886.63 1564.5M3932.63 489.5 3932.63 1564.5M3978.63 489.5 3978.63 1564.5M4025.63 489.5 4025.63 1564.5M4071.63 489.5 4071.63 1564.5M4117.64 489.5 4117.64 1564.5M4163.64 489.5 4163.64 1564.5M4209.64 489.5 4209.64 1564.5M4255.64 489.5 4255.64 1564.5M4301.64 489.5 4301.64 1564.5M4347.64 489.5 4347.64 1564.5M4393.64 489.5 4393.64 1564.5M4439.65 489.5 4439.65 1564.5M4486.65 489.5 4486.65 1564.5M4532.65 489.5 4532.65 1564.5M4578.65 489.5 4578.65 1564.5M4624.65 489.5 4624.65 1564.5M4670.65 489.5 4670.65 1564.5M4716.65 489.5 4716.65 1564.5M4762.66 489.5 4762.66 1564.5M4808.66 489.5 4808.66 1564.5M4854.66 489.5 4854.66 1564.5M4900.66 489.5 4900.66 1564.5M4946.66 489.5 4946.66 1564.5M4993.66 489.5 4993.66 1564.5M5039.67 489.5 5039.67 1564.5M5085.67 489.5 5085.67 1564.5M5131.67 489.5 5131.67 1564.5M5177.67 489.5 5177.67 1564.5M5223.67 489.5 5223.67 1564.5M5269.67 489.5 5269.67 1564.5M5315.67 489.5 5315.67 1564.5M5361.68 489.5 5361.68 1564.5M5407.68 489.5 5407.68 1564.5M5454.68 489.5 5454.68 1564.5M5500.68 489.5 5500.68 1564.5M5546.68 489.5 5546.68 1564.5M5592.68 489.5 5592.68 1564.5M5638.69 489.5 5638.69 1564.5M5684.69 489.5 5684.69 1564.5M5730.69 489.5 5730.69 1564.5M5776.69 489.5 5776.69 1564.5M5822.69 489.5 5822.69 1564.5M5868.69 489.5 5868.69 1564.5M5915.69 489.5 5915.69 1564.5M5961.7 489.5 5961.7 1564.5M6007.5 489.5 6007.5 1564.5" stroke="#D9D9D9" stroke-width="3.4375" stroke-linejoin="round" stroke-miterlimit="10" fill="none"/></g><g clip-path="url(#clip3)"><path d="M4869.16 1546.05 4887.16 1546.05 4887.16 1564 4869.16 1564ZM4915.16 1528.05 4933.16 1528.05 4933.16 1564 4915.16 1564ZM4961.16 1528.05 4979.16 1528.05 4979.16 1564 4961.16 1564ZM5007.16 1492.05 5025.17 1492.05 5025.17 1564 5007.16 1564ZM5053.17 1457.05 5071.17 1457.05 5071.17 1564 5053.17 1564ZM5099.17 1421.05 5118.17 1421.05 5118.17 1564 5099.17 1564ZM5145.17 1403.05 5164.17 1403.05 5164.17 1564 5145.17 1564ZM5191.17 1385.05 5210.17 1385.05 5210.17 1564 5191.17 1564ZM5237.17 1367.04 5256.17 1367.04 5256.17 1564 5237.17 1564ZM5283.17 1349.04 5302.17 1349.04 5302.17 1564 5283.17 1564ZM5330.17 1260.04 5348.18 1260.04 5348.18 1564 5330.17 1564ZM5376.18 1331.04 5394.18 1331.04 5394.18 1564 5376.18 1564ZM5422.18 1313.04 5440.18 1313.04 5440.18 1564 5422.18 1564ZM5468.18 1277.04 5486.18 1277.04 5486.18 1564 5468.18 1564ZM5514.18 1260.04 5532.18 1260.04 5532.18 1564 5514.18 1564ZM5560.18 1224.04 5579.18 1224.04 5579.18 1564 5560.18 1564ZM5606.18 1134.04 5625.18 1134.04 5625.18 1564 5606.18 1564ZM5652.19 1224.04 5671.19 1224.04 5671.19 1564 5652.19 1564ZM5698.19 1170.04 5717.19 1170.04 5717.19 1564 5698.19 1564ZM5744.19 1224.04 5763.19 1224.04 5763.19 1564 5744.19 1564ZM5791.19 1152.04 5809.19 1152.04 5809.19 1564 5791.19 1564ZM5837.19 1116.04 5855.19 1116.04 5855.19 1564 5837.19 1564ZM5883.19 1098.04 5901.19 1098.04 5901.19 1564 5883.19 1564ZM5929.19 1098.04 5947.2 1098.04 5947.2 1564 5929.19 1564ZM5975.2 1063.03 5993.2 1063.03 5993.2 1564 5975.2 1564Z" fill="#A6A6A6"/></g><g clip-path="url(#clip4)"><path d="M4408.14 1546.05 4426.15 1546.05 4426.15 1564 4408.14 1564ZM4454.15 1528.05 4472.15 1528.05 4472.15 1564 4454.15 1564ZM4500.15 1528.05 4518.15 1528.05 4518.15 1564 4500.15 1564ZM4546.15 1457.05 4564.15 1457.05 4564.15 1564 4546.15 1564ZM4592.15 1475.05 4610.15 1475.05 4610.15 1564 4592.15 1564ZM4638.15 1439.05 4657.15 1439.05 4657.15 1564 4638.15 1564ZM4684.15 1421.05 4703.15 1421.05 4703.15 1564 4684.15 1564ZM4730.16 1403.05 4749.16 1403.05 4749.16 1564 4730.16 1564ZM4776.16 1385.05 4795.16 1385.05 4795.16 1564 4776.16 1564ZM4823.16 1349.04 4841.16 1349.04 4841.16 1564 4823.16 1564ZM4869.16 1331.04 4887.16 1331.04 4887.16 1546.05 4869.16 1546.05ZM4915.16 1313.04 4933.16 1313.04 4933.16 1528.05 4915.16 1528.05ZM4961.16 1385.05 4979.16 1385.05 4979.16 1528.05 4961.16 1528.05ZM5007.16 1313.04 5025.17 1313.04 5025.17 1492.05 5007.16 1492.05ZM5053.17 1260.04 5071.17 1260.04 5071.17 1457.05 5053.17 1457.05ZM5099.17 1260.04 5118.17 1260.04 5118.17 1421.05 5099.17 1421.05ZM5145.17 1224.04 5164.17 1224.04 5164.17 1403.05 5145.17 1403.05ZM5191.17 1134.04 5210.17 1134.04 5210.17 1385.05 5191.17 1385.05ZM5237.17 1170.04 5256.17 1170.04 5256.17 1367.04 5237.17 1367.04ZM5283.17 1116.04 5302.17 1116.04 5302.17 1349.04 5283.17 1349.04ZM5330.17 1098.04 5348.18 1098.04 5348.18 1260.04 5330.17 1260.04ZM5376.18 1045.03 5394.18 1045.03 5394.18 1331.04 5376.18 1331.04ZM5422.18 1045.03 5440.18 1045.03 5440.18 1313.04 5422.18 1313.04ZM5468.18 991.032 5486.18 991.032 5486.18 1277.04 5468.18 1277.04ZM5514.18 937.031 5532.18 937.031 5532.18 1260.04 5514.18 1260.04ZM5560.18 883.029 5579.18 883.029 5579.18 1224.04 5560.18 1224.04ZM5606.18 955.031 5625.18 955.031 5625.18 1134.04 5606.18 1134.04ZM5652.19 973.032 5671.19 973.032 5671.19 1224.04 5652.19 1224.04ZM5698.19 812.027 5717.19 812.027 5717.19 1170.04 5698.19 1170.04ZM5744.19 812.027 5763.19 812.027 5763.19 1224.04 5744.19 1224.04ZM5791.19 722.024 5809.19 722.024 5809.19 1152.04 5791.19 1152.04ZM5837.19 794.026 5855.19 794.026 5855.19 1116.04 5837.19 1116.04ZM5883.19 794.026 5901.19 794.026 5901.19 1098.04 5883.19 1098.04ZM5929.19 740.024 5947.2 740.024 5947.2 1098.04 5929.19 1098.04ZM5975.2 704.023 5993.2 704.023 5993.2 1063.03 5975.2 1063.03Z" fill="#D9D9D9"/></g><g clip-path="url(#clip5)"><path d="M0 0 0.000360892 1075" stroke="#BFBFBF" stroke-width="3.4375" stroke-linejoin="round" stroke-miterlimit="10" fill="none" fill-rule="evenodd" transform="matrix(1 0 0 -1 6007.5 1564.5)"/></g><g clip-path="url(#clip6)"><path d="M6007.5 1564.5 6031.5 1564.5M6007.5 1384.55 6031.5 1384.55M6007.5 1205.54 6031.5 1205.54M6007.5 1026.53 6031.5 1026.53M6007.5 847.528 6031.5 847.528M6007.5 668.522 6031.5 668.522M6007.5 489.5 6031.5 489.5" stroke="#BFBFBF" stroke-width="3.4375" stroke-linejoin="round" stroke-miterlimit="10" fill="none"/></g><g clip-path="url(#clip7)"><path d="M0 0 0.000360892 1075" stroke="#BFBFBF" stroke-width="3.4375" stroke-linejoin="round" stroke-miterlimit="10" fill="none" fill-rule="evenodd" transform="matrix(1 0 0 -1 3241.5 1564.5)"/></g><g clip-path="url(#clip8)"><path d="M3241.5 1564.5 6007.5 1564.5" stroke="#BFBFBF" stroke-width="3.4375" stroke-linejoin="round" stroke-miterlimit="10" fill="none" fill-rule="evenodd"/></g><g clip-path="url(#clip9)"><path d="M3264.5 1545.5 3310.61 1541.55 3356.61 1533.55 3402.61 1528.55 3448.61 1524.55 3494.61 1520.55 3541.62 1520.55 3587.62 1513.55 3633.62 1503.55 3679.62 1501.55 3725.62 1482.55 3771.62 1464.55 3817.63 1389.55 3863.63 1360.54 3909.63 1327.54 3955.63 1325.54 4001.63 1314.54 4048.63 1314.54 4094.63 1283.54 4140.64 1271.54 4186.64 1255.54 4232.64 1236.54 4278.64 1230.54 4324.64 1206.54 4370.64 1204.54 4416.65 1196.54 4462.65 1188.54 4509.65 1177.54 4555.65 1175.54 4601.65 1154.54 4647.65 1152.54 4693.65 1151.54 4739.66 1151.54 4785.66 1143.54 4831.66 1137.54 4877.66 1136.54 4923.66 1101.54 4970.66 1101.54 5016.66 1070.54 5062.67 1062.54 5108.67 1052.53 5154.67 1043.53 5200.67 1037.53 5246.67 1037.53 5292.67 1035.53 5338.68 1024.53 5384.68 985.532 5431.68 979.532 5477.68 968.532 5523.68 952.531 5569.68 940.531 5615.68 883.529 5661.69 823.527 5707.69 650.522 5753.69 565.519 5799.69 563.519 5845.69 562.519 5891.69 561.519 5938.69 543.518 5984.5 542.5" stroke="#4472C4" stroke-width="6.875" stroke-linecap="round" stroke-linejoin="round" stroke-miterlimit="10" fill="none"/></g><g clip-path="url(#clip10)"><path d="M3264.5 1551.5 3310.61 1540.55 3356.61 1527.55 3402.61 1504.55 3448.61 1504.55 3494.61 1502.55 3541.62 1493.55 3587.62 1462.55 3633.62 1419.55 3679.62 1417.55 3725.62 1411.55 3771.62 1386.55 3817.63 1376.55 3863.63 1369.55 3909.63 1364.54 3955.63 1343.54 4001.63 1338.54 4048.63 1337.54 4094.63 1332.54 4140.64 1305.54 4186.64 1287.54 4232.64 1286.54 4278.64 1275.54 4324.64 1266.54 4370.64 1264.54 4416.65 1258.54 4462.65 1252.54 4509.65 1243.54 4555.65 1239.54 4601.65 1224.54 4647.65 1198.54 4693.65 1144.54 4739.66 1141.54 4785.66 1123.54 4831.66 1149.54 4877.66 1130.54 4923.66 1101.54 4970.66 1111.54 5016.66 1111.54 5062.67 1100.54 5108.67 1118.54 5154.67 1125.54 5200.67 1123.54 5246.67 1122.54 5292.67 1115.54 5338.68 1114.54 5384.68 1113.54 5431.68 1104.54 5477.68 1099.54 5523.68 1080.54 5569.68 1037.53 5615.68 1025.53 5661.69 1000.53 5707.69 959.532 5753.69 953.531 5799.69 943.531 5845.69 928.531 5891.69 921.53 5938.69 907.53 5984.5 842.5" stroke="#ED7D31" stroke-width="6.875" stroke-linecap="round" stroke-linejoin="round" stroke-miterlimit="10" fill="none"/></g><g clip-path="url(#clip11)"><text font-family="LM Roman 10,LM Roman 10_MSFontService,sans-serif" font-weight="700" font-size="64" transform="matrix(1 0 0 1 6077.45 1584)">0%</text></g><g clip-path="url(#clip12)"><text font-family="LM Roman 10,LM Roman 10_MSFontService,sans-serif" font-weight="700" font-size="64" transform="matrix(1 0 0 1 6077.45 1405)">10%</text></g><g clip-path="url(#clip13)"><text font-family="LM Roman 10,LM Roman 10_MSFontService,sans-serif" font-weight="700" font-size="64" transform="matrix(1 0 0 1 6077.45 1226)">20%</text></g><g clip-path="url(#clip14)"><text font-family="LM Roman 10,LM Roman 10_MSFontService,sans-serif" font-weight="700" font-size="64" transform="matrix(1 0 0 1 6077.45 1047)">30%</text></g><g clip-path="url(#clip15)"><text font-family="LM Roman 10,LM Roman 10_MSFontService,sans-serif" font-weight="700" font-size="64" transform="matrix(1 0 0 1 6077.45 868)">40%</text></g><g clip-path="url(#clip16)"><text font-family="LM Roman 10,LM Roman 10_MSFontService,sans-serif" font-weight="700" font-size="64" transform="matrix(1 0 0 1 6077.45 689)">50%</text></g><g clip-path="url(#clip17)"><text font-family="LM Roman 10,LM Roman 10_MSFontService,sans-serif" font-weight="700" font-size="64" transform="matrix(1 0 0 1 6077.45 510)">60%</text></g><g clip-path="url(#clip18)"><text font-family="LM Roman 10,LM Roman 10_MSFontService,sans-serif" font-weight="700" font-size="64" transform="matrix(1 0 0 1 3134.56 1584)">0</text></g><g clip-path="url(#clip19)"><text font-family="LM Roman 10,LM Roman 10_MSFontService,sans-serif" font-weight="700" font-size="64" transform="matrix(1 0 0 1 3023.88 1405)">1000</text></g><g clip-path="url(#clip20)"><text font-family="LM Roman 10,LM Roman 10_MSFontService,sans-serif" font-weight="700" font-size="64" transform="matrix(1 0 0 1 3023.88 1226)">2000</text></g><g clip-path="url(#clip21)"><text font-family="LM Roman 10,LM Roman 10_MSFontService,sans-serif" font-weight="700" font-size="64" transform="matrix(1 0 0 1 3023.88 1047)">3000</text></g><g clip-path="url(#clip22)"><text font-family="LM Roman 10,LM Roman 10_MSFontService,sans-serif" font-weight="700" font-size="64" transform="matrix(1 0 0 1 3023.88 868)">4000</text></g><g clip-path="url(#clip23)"><text font-family="LM Roman 10,LM Roman 10_MSFontService,sans-serif" font-weight="700" font-size="64" transform="matrix(1 0 0 1 3023.88 689)">5000</text></g><g clip-path="url(#clip24)"><text font-family="LM Roman 10,LM Roman 10_MSFontService,sans-serif" font-weight="700" font-size="64" transform="matrix(1 0 0 1 3023.88 510)">6000</text></g><g clip-path="url(#clip25)"><text font-family="LM Roman 10,LM Roman 10_MSFontService,sans-serif" font-weight="700" font-size="64" transform="matrix(0.707107 -0.707107 0.707107 0.707107 3231.6 1716)">10</text></g><g clip-path="url(#clip26)"><text font-family="LM Roman 10,LM Roman 10_MSFontService,sans-serif" font-weight="700" font-size="64" transform="matrix(0.707107 -0.707107 0.707107 0.707107 3343.8 1742)">255</text></g><g clip-path="url(#clip27)"><text font-family="LM Roman 10,LM Roman 10_MSFontService,sans-serif" font-weight="700" font-size="64" transform="matrix(0.707107 -0.707107 0.707107 0.707107 3482.1 1742)">510</text></g><g clip-path="url(#clip28)"><text font-family="LM Roman 10,LM Roman 10_MSFontService,sans-serif" font-weight="700" font-size="64" transform="matrix(0.707107 -0.707107 0.707107 0.707107 3620.4 1742)">765</text></g><g clip-path="url(#clip29)"><text font-family="LM Roman 10,LM Roman 10_MSFontService,sans-serif" font-weight="700" font-size="64" transform="matrix(0.707107 -0.707107 0.707107 0.707107 3732.6 1769)">1020</text></g><g clip-path="url(#clip30)"><text font-family="LM Roman 10,LM Roman 10_MSFontService,sans-serif" font-weight="700" font-size="64" transform="matrix(0.707107 -0.707107 0.707107 0.707107 3870.9 1769)">1275</text></g><g clip-path="url(#clip31)"><text font-family="LM Roman 10,LM Roman 10_MSFontService,sans-serif" font-weight="700" font-size="64" transform="matrix(0.707107 -0.707107 0.707107 0.707107 4009.19 1769)">1530</text></g><g clip-path="url(#clip32)"><text font-family="LM Roman 10,LM Roman 10_MSFontService,sans-serif" font-weight="700" font-size="64" transform="matrix(0.707107 -0.707107 0.707107 0.707107 4147.49 1769)">1785</text></g><g clip-path="url(#clip33)"><text font-family="LM Roman 10,LM Roman 10_MSFontService,sans-serif" font-weight="700" font-size="64" transform="matrix(0.707107 -0.707107 0.707107 0.707107 4285.78 1769)">2040</text></g><g clip-path="url(#clip34)"><text font-family="LM Roman 10,LM Roman 10_MSFontService,sans-serif" font-weight="700" font-size="64" transform="matrix(0.707107 -0.707107 0.707107 0.707107 4424.08 1769)">2295</text></g><g clip-path="url(#clip35)"><text font-family="LM Roman 10,LM Roman 10_MSFontService,sans-serif" font-weight="700" font-size="64" transform="matrix(0.707107 -0.707107 0.707107 0.707107 4562.38 1769)">2550</text></g><g clip-path="url(#clip36)"><text font-family="LM Roman 10,LM Roman 10_MSFontService,sans-serif" font-weight="700" font-size="64" transform="matrix(0.707107 -0.707107 0.707107 0.707107 4700.67 1769)">2805</text></g><g clip-path="url(#clip37)"><text font-family="LM Roman 10,LM Roman 10_MSFontService,sans-serif" font-weight="700" font-size="64" transform="matrix(0.707107 -0.707107 0.707107 0.707107 4838.97 1769)">3060</text></g><g clip-path="url(#clip38)"><text font-family="LM Roman 10,LM Roman 10_MSFontService,sans-serif" font-weight="700" font-size="64" transform="matrix(0.707107 -0.707107 0.707107 0.707107 4977.26 1769)">3315</text></g><g clip-path="url(#clip39)"><text font-family="LM Roman 10,LM Roman 10_MSFontService,sans-serif" font-weight="700" font-size="64" transform="matrix(0.707107 -0.707107 0.707107 0.707107 5115.56 1769)">3570</text></g><g clip-path="url(#clip40)"><text font-family="LM Roman 10,LM Roman 10_MSFontService,sans-serif" font-weight="700" font-size="64" transform="matrix(0.707107 -0.707107 0.707107 0.707107 5253.85 1769)">3825</text></g><g clip-path="url(#clip41)"><text font-family="LM Roman 10,LM Roman 10_MSFontService,sans-serif" font-weight="700" font-size="64" transform="matrix(0.707107 -0.707107 0.707107 0.707107 5392.15 1769)">4080</text></g><g clip-path="url(#clip42)"><text font-family="LM Roman 10,LM Roman 10_MSFontService,sans-serif" font-weight="700" font-size="64" transform="matrix(0.707107 -0.707107 0.707107 0.707107 5530.44 1769)">4335</text></g><g clip-path="url(#clip43)"><text font-family="LM Roman 10,LM Roman 10_MSFontService,sans-serif" font-weight="700" font-size="64" transform="matrix(0.707107 -0.707107 0.707107 0.707107 5668.74 1769)">4590</text></g><g clip-path="url(#clip44)"><text font-family="LM Roman 10,LM Roman 10_MSFontService,sans-serif" font-weight="700" font-size="64" transform="matrix(0.707107 -0.707107 0.707107 0.707107 5807.04 1769)">4845</text></g><g clip-path="url(#clip45)"><text font-family="LM Roman 10,LM Roman 10_MSFontService,sans-serif" font-weight="400" font-size="83" transform="matrix(6.12323e-17 -1 1 6.12323e-17 2941.09 1558)">Średni czas odpowiedzi (ms)</text></g><g clip-path="url(#clip46)"><text font-family="LM Roman 10,LM Roman 10_MSFontService,sans-serif" font-weight="400" font-size="83" transform="matrix(1 0 0 1 3860.04 1939)">Liczba współbieżnie działających wątków</text></g><g clip-path="url(#clip47)"><text font-family="LM Roman 10,LM Roman 10_MSFontService,sans-serif" font-weight="700" font-size="78" transform="matrix(1 0 0 1 3283.32 398)">Interfejs API: </text></g><g clip-path="url(#clip48)"><text font-family="LM Roman 10,LM Roman 10_MSFontService,sans-serif" font-weight="400" font-size="78" transform="matrix(1 0 0 1 3856.01 398)">C# .NET API</text></g><g clip-path="url(#clip49)"><text font-family="LM Roman 10,LM Roman 10_MSFontService,sans-serif" font-weight="700" font-size="78" transform="matrix(1 0 0 1 4358.07 398)">. Punkt końcowy: </text></g><g clip-path="url(#clip50)"><text font-family="LM Roman 10,LM Roman 10_MSFontService,sans-serif" font-weight="400" font-size="78" transform="matrix(1 0 0 1 5073.82 398)">POST /API/PRODUCTS</text></g><g clip-path="url(#clip51)"><rect x="3268.5" y="512.5" width="1246" height="365" stroke="#BFBFBF" stroke-width="3.4375" stroke-linejoin="round" stroke-miterlimit="10" fill="#FFFFFF"/></g><g clip-path="url(#clip52)"><rect x="3358" y="541" width="88" height="35.0001" fill="#D9D9D9"/></g><g clip-path="url(#clip53)"><text font-family="LM Roman 10,LM Roman 10_MSFontService,sans-serif" font-weight="400" font-size="55" transform="matrix(1 0 0 1 3455.4 576)">Procent niepoprawnych odpowiedzi</text></g><g clip-path="url(#clip54)"><rect x="3358" y="632" width="88" height="34.9997" fill="#A6A6A6"/></g><g clip-path="url(#clip55)"><text font-family="LM Roman 10,LM Roman 10_MSFontService,sans-serif" font-weight="400" font-size="50" transform="matrix(1 0 0 1 3455.4 666)">Procent niepoprawnych odpowiedzi - CQRS</text></g><g clip-path="url(#clip56)"><path d="M3358.5 740.5 3446.5 740.5" stroke="#4472C4" stroke-width="6.875" stroke-linecap="round" stroke-linejoin="round" stroke-miterlimit="10" fill="none" fill-rule="evenodd"/></g><g clip-path="url(#clip57)"><text font-family="LM Roman 10,LM Roman 10_MSFontService,sans-serif" font-weight="400" font-size="55" transform="matrix(1 0 0 1 3455.4 758)">SQL Server</text></g><g clip-path="url(#clip58)"><path d="M3358.5 831.5 3446.5 831.5" stroke="#ED7D31" stroke-width="6.875" stroke-linecap="round" stroke-linejoin="round" stroke-miterlimit="10" fill="none" fill-rule="evenodd"/></g><g clip-path="url(#clip59)"><text font-family="LM Roman 10,LM Roman 10_MSFontService,sans-serif" font-weight="400" font-size="55" transform="matrix(1 0 0 1 3455.4 849)">SQL Server - CQRS</text></g></g></svg>