<svg width="3483" height="1702" xmlns="http://www.w3.org/2000/svg" xmlns:xlink="http://www.w3.org/1999/xlink" xml:space="preserve" overflow="hidden"><defs><clipPath id="clip0"><rect x="2505" y="278" width="3483" height="1702"/></clipPath><clipPath id="clip1"><rect x="2505" y="278" width="3483" height="1702"/></clipPath><clipPath id="clip2"><rect x="2505" y="278" width="3483" height="1702"/></clipPath><clipPath id="clip3"><rect x="3021" y="519" width="2676" height="997"/></clipPath><clipPath id="clip4"><rect x="3021" y="519" width="2676" height="997"/></clipPath><clipPath id="clip5"><rect x="2505" y="278" width="3483" height="1702"/></clipPath><clipPath id="clip6"><rect x="2505" y="278" width="3483" height="1702"/></clipPath><clipPath id="clip7"><rect x="2505" y="278" width="3483" height="1702"/></clipPath><clipPath id="clip8"><rect x="2505" y="278" width="3483" height="1702"/></clipPath><clipPath id="clip9"><rect x="3021" y="519" width="2676" height="997"/></clipPath><clipPath id="clip10"><rect x="3021" y="519" width="2676" height="997"/></clipPath><clipPath id="clip11"><rect x="2505" y="278" width="3483" height="1702"/></clipPath><clipPath id="clip12"><rect x="2505" y="278" width="3483" height="1702"/></clipPath><clipPath id="clip13"><rect x="2505" y="278" width="3483" height="1702"/></clipPath><clipPath id="clip14"><rect x="2505" y="278" width="3483" height="1702"/></clipPath><clipPath id="clip15"><rect x="2505" y="278" width="3483" height="1702"/></clipPath><clipPath id="clip16"><rect x="2505" y="278" width="3483" height="1702"/></clipPath><clipPath id="clip17"><rect x="2505" y="278" width="3483" height="1702"/></clipPath><clipPath id="clip18"><rect x="2505" y="278" width="3483" height="1702"/></clipPath><clipPath id="clip19"><rect x="2505" y="278" width="3483" height="1702"/></clipPath><clipPath id="clip20"><rect x="2505" y="278" width="3483" height="1702"/></clipPath><clipPath id="clip21"><rect x="2505" y="278" width="3483" height="1702"/></clipPath><clipPath id="clip22"><rect x="2505" y="278" width="3483" height="1702"/></clipPath><clipPath id="clip23"><rect x="2505" y="278" width="3483" height="1702"/></clipPath><clipPath id="clip24"><rect x="2505" y="278" width="3483" height="1702"/></clipPath><clipPath id="clip25"><rect x="2505" y="278" width="3483" height="1702"/></clipPath><clipPath id="clip26"><rect x="2505" y="278" width="3483" height="1702"/></clipPath><clipPath id="clip27"><rect x="2505" y="278" width="3483" height="1702"/></clipPath><clipPath id="clip28"><rect x="2505" y="278" width="3483" height="1702"/></clipPath><clipPath id="clip29"><rect x="2505" y="278" width="3483" height="1702"/></clipPath><clipPath id="clip30"><rect x="2505" y="278" width="3483" height="1702"/></clipPath><clipPath id="clip31"><rect x="2505" y="278" width="3483" height="1702"/></clipPath><clipPath id="clip32"><rect x="2505" y="278" width="3483" height="1702"/></clipPath><clipPath id="clip33"><rect x="2505" y="278" width="3483" height="1702"/></clipPath><clipPath id="clip34"><rect x="2505" y="278" width="3483" height="1702"/></clipPath><clipPath id="clip35"><rect x="2505" y="278" width="3483" height="1702"/></clipPath><clipPath id="clip36"><rect x="2505" y="278" width="3483" height="1702"/></clipPath><clipPath id="clip37"><rect x="2505" y="278" width="3483" height="1702"/></clipPath><clipPath id="clip38"><rect x="2505" y="278" width="3483" height="1702"/></clipPath><clipPath id="clip39"><rect x="2505" y="278" width="3483" height="1702"/></clipPath><clipPath id="clip40"><rect x="2505" y="278" width="3483" height="1702"/></clipPath><clipPath id="clip41"><rect x="2505" y="278" width="3483" height="1702"/></clipPath><clipPath id="clip42"><rect x="2505" y="278" width="3483" height="1702"/></clipPath><clipPath id="clip43"><rect x="2505" y="278" width="3483" height="1702"/></clipPath><clipPath id="clip44"><rect x="2505" y="278" width="3483" height="1702"/></clipPath><clipPath id="clip45"><rect x="2505" y="278" width="3483" height="1702"/></clipPath><clipPath id="clip46"><rect x="2505" y="278" width="3483" height="1702"/></clipPath><clipPath id="clip47"><rect x="2505" y="278" width="3483" height="1702"/></clipPath><clipPath id="clip48"><rect x="2505" y="278" width="3483" height="1702"/></clipPath><clipPath id="clip49"><rect x="2505" y="278" width="3483" height="1702"/></clipPath><clipPath id="clip50"><rect x="2505" y="278" width="3483" height="1702"/></clipPath><clipPath id="clip51"><rect x="2505" y="278" width="3483" height="1702"/></clipPath><clipPath id="clip52"><rect x="2505" y="278" width="3483" height="1702"/></clipPath><clipPath id="clip53"><rect x="2505" y="278" width="3483" height="1702"/></clipPath><clipPath id="clip54"><rect x="2505" y="278" width="3483" height="1702"/></clipPath><clipPath id="clip55"><rect x="2505" y="278" width="3483" height="1702"/></clipPath><clipPath id="clip56"><rect x="2505" y="278" width="3483" height="1702"/></clipPath></defs><g clip-path="url(#clip0)" transform="translate(-2505 -278)"><rect x="2506" y="278" width="3482" height="1702" fill="#FFFFFF"/><g clip-path="url(#clip1)"><path d="M3021.5 1370.55 5694.5 1370.55M3021.5 1228.54 5694.5 1228.54M3021.5 1086.54 5694.5 1086.54M3021.5 945.531 5694.5 945.531M3021.5 803.526 5694.5 803.526M3021.5 661.522 5694.5 661.522M3021.5 519.5 5694.5 519.5" stroke="#D9D9D9" stroke-width="3.4375" stroke-linejoin="round" stroke-miterlimit="10" fill="none"/></g><g clip-path="url(#clip2)"><path d="M3065.6 519.5 3065.6 1512.5M3110.6 519.5 3110.6 1512.5M3154.6 519.5 3154.6 1512.5M3199.6 519.5 3199.6 1512.5M3243.61 519.5 3243.61 1512.5M3288.61 519.5 3288.61 1512.5M3332.61 519.5 3332.61 1512.5M3377.61 519.5 3377.61 1512.5M3421.61 519.5 3421.61 1512.5M3466.61 519.5 3466.61 1512.5M3511.62 519.5 3511.62 1512.5M3555.62 519.5 3555.62 1512.5M3600.62 519.5 3600.62 1512.5M3644.62 519.5 3644.62 1512.5M3689.62 519.5 3689.62 1512.5M3733.62 519.5 3733.62 1512.5M3778.62 519.5 3778.62 1512.5M3822.63 519.5 3822.63 1512.5M3867.63 519.5 3867.63 1512.5M3912.63 519.5 3912.63 1512.5M3956.63 519.5 3956.63 1512.5M4001.63 519.5 4001.63 1512.5M4045.63 519.5 4045.63 1512.5M4090.63 519.5 4090.63 1512.5M4134.64 519.5 4134.64 1512.5M4179.64 519.5 4179.64 1512.5M4223.64 519.5 4223.64 1512.5M4268.64 519.5 4268.64 1512.5M4313.64 519.5 4313.64 1512.5M4357.64 519.5 4357.64 1512.5M4402.64 519.5 4402.64 1512.5M4446.65 519.5 4446.65 1512.5M4491.65 519.5 4491.65 1512.5M4535.65 519.5 4535.65 1512.5M4580.65 519.5 4580.65 1512.5M4624.65 519.5 4624.65 1512.5M4669.65 519.5 4669.65 1512.5M4713.65 519.5 4713.65 1512.5M4758.66 519.5 4758.66 1512.5M4803.66 519.5 4803.66 1512.5M4847.66 519.5 4847.66 1512.5M4892.66 519.5 4892.66 1512.5M4936.66 519.5 4936.66 1512.5M4981.66 519.5 4981.66 1512.5M5025.67 519.5 5025.67 1512.5M5070.67 519.5 5070.67 1512.5M5114.67 519.5 5114.67 1512.5M5159.67 519.5 5159.67 1512.5M5204.67 519.5 5204.67 1512.5M5248.67 519.5 5248.67 1512.5M5293.67 519.5 5293.67 1512.5M5337.68 519.5 5337.68 1512.5M5382.68 519.5 5382.68 1512.5M5426.68 519.5 5426.68 1512.5M5471.68 519.5 5471.68 1512.5M5515.68 519.5 5515.68 1512.5M5560.68 519.5 5560.68 1512.5M5605.68 519.5 5605.68 1512.5M5649.69 519.5 5649.69 1512.5M5694.5 519.5 5694.5 1512.5" stroke="#D9D9D9" stroke-width="3.4375" stroke-linejoin="round" stroke-miterlimit="10" fill="none"/></g><g clip-path="url(#clip3)"><path d="M4460.15 1491.05 4478.15 1491.05 4478.15 1513 4460.15 1513ZM4505.15 1465.05 4522.15 1465.05 4522.15 1513 4505.15 1513ZM4549.15 1458.05 4567.15 1458.05 4567.15 1513 4549.15 1513ZM4594.15 1447.05 4612.15 1447.05 4612.15 1513 4594.15 1513ZM4638.15 1396.05 4656.15 1396.05 4656.15 1513 4638.15 1513ZM4683.15 1369.04 4701.15 1369.04 4701.15 1513 4683.15 1513ZM4727.15 1362.04 4745.16 1362.04 4745.16 1513 4727.15 1513ZM4772.16 1361.04 4790.16 1361.04 4790.16 1513 4772.16 1513ZM4816.16 1331.04 4834.16 1331.04 4834.16 1513 4816.16 1513ZM4861.16 1342.04 4879.16 1342.04 4879.16 1513 4861.16 1513ZM4906.16 1322.04 4923.16 1322.04 4923.16 1513 4906.16 1513ZM4950.16 1310.04 4968.16 1310.04 4968.16 1513 4950.16 1513ZM4995.16 1282.04 5012.16 1282.04 5012.16 1513 4995.16 1513ZM5039.17 1274.04 5057.17 1274.04 5057.17 1513 5039.17 1513ZM5084.17 1286.04 5102.17 1286.04 5102.17 1513 5084.17 1513ZM5128.17 1235.04 5146.17 1235.04 5146.17 1513 5128.17 1513ZM5173.17 1212.04 5191.17 1212.04 5191.17 1513 5173.17 1513ZM5217.17 1203.04 5235.17 1203.04 5235.17 1513 5217.17 1513ZM5262.17 1195.04 5280.17 1195.04 5280.17 1513 5262.17 1513ZM5307.17 1183.04 5324.17 1183.04 5324.17 1513 5307.17 1513ZM5351.18 1176.04 5369.18 1176.04 5369.18 1513 5351.18 1513ZM5396.18 1156.04 5413.18 1156.04 5413.18 1513 5396.18 1513ZM5440.18 1222.04 5458.18 1222.04 5458.18 1513 5440.18 1513ZM5485.18 1129.04 5503.18 1129.04 5503.18 1513 5485.18 1513ZM5529.18 1241.04 5547.18 1241.04 5547.18 1513 5529.18 1513ZM5574.18 1109.04 5592.18 1109.04 5592.18 1513 5574.18 1513ZM5618.18 1059.03 5636.18 1059.03 5636.18 1513 5618.18 1513ZM5663.19 1030.03 5681.19 1030.03 5681.19 1513 5663.19 1513Z" fill="#BFBFBF"/></g><g clip-path="url(#clip4)"><path d="M3836.13 1470.05 3854.13 1470.05 3854.13 1513 3836.13 1513ZM3881.13 1456.05 3899.13 1456.05 3899.13 1513 3881.13 1513ZM3925.13 1442.05 3943.13 1442.05 3943.13 1513 3925.13 1513ZM3970.13 1427.05 3988.13 1427.05 3988.13 1513 3970.13 1513ZM4015.13 1442.05 4032.13 1442.05 4032.13 1513 4015.13 1513ZM4059.13 1427.05 4077.13 1427.05 4077.13 1513 4059.13 1513ZM4104.13 1413.05 4121.14 1413.05 4121.14 1513 4104.13 1513ZM4148.14 1413.05 4166.14 1413.05 4166.14 1513 4148.14 1513ZM4193.14 1399.05 4211.14 1399.05 4211.14 1513 4193.14 1513ZM4237.14 1385.05 4255.14 1385.05 4255.14 1513 4237.14 1513ZM4282.14 1427.05 4300.14 1427.05 4300.14 1513 4282.14 1513ZM4326.14 1357.04 4344.14 1357.04 4344.14 1513 4326.14 1513ZM4371.14 1328.04 4389.14 1328.04 4389.14 1513 4371.14 1513ZM4416.14 1300.04 4433.15 1300.04 4433.15 1513 4416.14 1513ZM4460.15 1314.04 4478.15 1314.04 4478.15 1491.05 4460.15 1491.05ZM4505.15 1249.04 4522.15 1249.04 4522.15 1465.05 4505.15 1465.05ZM4549.15 1286.04 4567.15 1286.04 4567.15 1458.05 4549.15 1458.05ZM4594.15 1257.04 4612.15 1257.04 4612.15 1447.05 4594.15 1447.05ZM4638.15 1200.04 4656.15 1200.04 4656.15 1396.05 4638.15 1396.05ZM4683.15 1229.04 4701.15 1229.04 4701.15 1369.04 4683.15 1369.04ZM4727.15 1172.04 4745.16 1172.04 4745.16 1362.04 4727.15 1362.04ZM4772.16 1186.04 4790.16 1186.04 4790.16 1361.04 4772.16 1361.04ZM4816.16 1144.04 4834.16 1144.04 4834.16 1331.04 4816.16 1331.04ZM4861.16 1073.04 4879.16 1073.04 4879.16 1342.04 4861.16 1342.04ZM4906.16 1044.03 4923.16 1044.03 4923.16 1322.04 4906.16 1322.04ZM4950.16 1030.03 4968.16 1030.03 4968.16 1310.04 4950.16 1310.04ZM4995.16 1002.03 5012.16 1002.03 5012.16 1282.04 4995.16 1282.04ZM5039.17 959.031 5057.17 959.031 5057.17 1274.04 5039.17 1274.04ZM5084.17 917.03 5102.17 917.03 5102.17 1286.04 5084.17 1286.04ZM5128.17 902.03 5146.17 902.03 5146.17 1235.04 5128.17 1235.04ZM5173.17 846.028 5191.17 846.028 5191.17 1212.04 5173.17 1212.04ZM5217.17 817.027 5235.17 817.027 5235.17 1203.04 5217.17 1203.04ZM5262.17 775.025 5280.17 775.025 5280.17 1195.04 5262.17 1195.04ZM5307.17 761.025 5324.17 761.025 5324.17 1183.04 5307.17 1183.04ZM5351.18 746.024 5369.18 746.024 5369.18 1176.04 5351.18 1176.04ZM5396.18 718.024 5413.18 718.024 5413.18 1156.04 5396.18 1156.04ZM5440.18 746.024 5458.18 746.024 5458.18 1222.04 5440.18 1222.04ZM5485.18 775.025 5503.18 775.025 5503.18 1129.04 5485.18 1129.04ZM5529.18 690.023 5547.18 690.023 5547.18 1241.04 5529.18 1241.04ZM5574.18 718.024 5592.18 718.024 5592.18 1109.04 5574.18 1109.04ZM5618.18 675.022 5636.18 675.022 5636.18 1059.03 5618.18 1059.03ZM5663.19 633.021 5681.19 633.021 5681.19 1030.03 5663.19 1030.03Z" fill="#D9D9D9"/></g><g clip-path="url(#clip5)"><path d="M0 0 0.000360892 993" stroke="#BFBFBF" stroke-width="3.4375" stroke-linejoin="round" stroke-miterlimit="10" fill="none" fill-rule="evenodd" transform="matrix(1 0 0 -1 5694.5 1512.5)"/></g><g clip-path="url(#clip6)"><path d="M5694.5 1512.5 5725.5 1512.5M5694.5 1370.55 5725.5 1370.55M5694.5 1228.54 5725.5 1228.54M5694.5 1086.54 5725.5 1086.54M5694.5 945.531 5725.5 945.531M5694.5 803.526 5725.5 803.526M5694.5 661.522 5725.5 661.522M5694.5 519.5 5725.5 519.5" stroke="#BFBFBF" stroke-width="3.4375" stroke-linejoin="round" stroke-miterlimit="10" fill="none"/></g><g clip-path="url(#clip7)"><path d="M0 0 0.000360892 993" stroke="#BFBFBF" stroke-width="3.4375" stroke-linejoin="round" stroke-miterlimit="10" fill="none" fill-rule="evenodd" transform="matrix(1 0 0 -1 3021.5 1512.5)"/></g><g clip-path="url(#clip8)"><path d="M3021.5 1512.5 5694.5 1512.5" stroke="#BFBFBF" stroke-width="3.4375" stroke-linejoin="round" stroke-miterlimit="10" fill="none" fill-rule="evenodd"/></g><g clip-path="url(#clip9)"><path d="M3043.5 1505.5 3087.6 1504.55 3132.6 1503.55 3176.6 1500.55 3221.61 1502.55 3266.61 1497.55 3310.61 1500.55 3355.61 1493.55 3399.61 1500.55 3444.61 1501.55 3488.61 1487.55 3533.62 1480.55 3577.62 1479.55 3622.62 1477.55 3667.62 1473.55 3711.62 1468.55 3756.62 1475.55 3800.62 1465.55 3845.63 1476.55 3889.63 1470.55 3934.63 1453.55 3978.63 1462.55 4023.63 1447.55 4067.63 1444.55 4112.63 1440.55 4157.64 1435.55 4201.64 1436.55 4246.64 1435.55 4290.64 1433.55 4335.64 1425.55 4379.64 1424.55 4424.65 1432.55 4468.65 1405.55 4513.65 1402.55 4558.65 1399.55 4602.65 1397.55 4647.65 1391.55 4691.65 1392.55 4736.66 1395.55 4780.66 1392.55 4825.66 1376.55 4869.66 1375.55 4914.66 1376.55 4959.66 1364.54 5003.66 1287.54 5048.67 1284.54 5092.67 1237.54 5137.67 1204.54 5181.67 1133.54 5226.67 1097.54 5270.67 1063.54 5315.67 934.531 5359.68 976.532 5404.68 777.526 5449.68 659.5 5493.68 921.53 5538.68 870.529 5582.68 845.528 5627.68 833.528 5672.5 808.527" stroke="#4472C4" stroke-width="6.875" stroke-linecap="round" stroke-linejoin="round" stroke-miterlimit="10" fill="none"/></g><g clip-path="url(#clip10)"><path d="M3043.5 1510.5 3087.6 1508.55 3132.6 1508.55 3176.6 1506.55 3221.61 1506.55 3266.61 1503.55 3310.61 1502.55 3355.61 1499.55 3399.61 1498.55 3444.61 1491.55 3488.61 1495.55 3533.62 1493.55 3577.62 1491.55 3622.62 1489.55 3667.62 1488.55 3711.62 1486.55 3756.62 1480.55 3800.62 1478.55 3845.63 1482.55 3889.63 1473.55 3934.63 1471.55 3978.63 1469.55 4023.63 1466.55 4067.63 1466.55 4112.63 1466.55 4157.64 1465.55 4201.64 1467.55 4246.64 1461.55 4290.64 1455.55 4335.64 1446.55 4379.64 1446.55 4424.65 1443.55 4468.65 1441.55 4513.65 1439.55 4558.65 1438.55 4602.65 1438.55 4647.65 1430.55 4691.65 1427.55 4736.66 1426.55 4780.66 1422.55 4825.66 1420.55 4869.66 1415.55 4914.66 1415.55 4959.66 1413.55 5003.66 1412.55 5048.67 1388.55 5092.67 1387.55 5137.67 1384.55 5181.67 1381.55 5226.67 1340.54 5270.67 1280.54 5315.67 1293.54 5359.68 1190.54 5404.68 1249.54 5449.68 1225.54 5493.68 1175.54 5538.68 1190.54 5582.68 1229.54 5627.68 1136.54 5672.5 1133.5" stroke="#ED7D31" stroke-width="6.875" stroke-linecap="round" stroke-linejoin="round" stroke-miterlimit="10" fill="none"/></g><g clip-path="url(#clip11)"><text font-family="LM Roman 10,LM Roman 10_MSFontService,sans-serif" font-weight="700" font-size="83" transform="matrix(1 0 0 1 5784.39 1538)">0%</text></g><g clip-path="url(#clip12)"><text font-family="LM Roman 10,LM Roman 10_MSFontService,sans-serif" font-weight="700" font-size="83" transform="matrix(1 0 0 1 5784.39 1396)">10%</text></g><g clip-path="url(#clip13)"><text font-family="LM Roman 10,LM Roman 10_MSFontService,sans-serif" font-weight="700" font-size="83" transform="matrix(1 0 0 1 5784.39 1254)">20%</text></g><g clip-path="url(#clip14)"><text font-family="LM Roman 10,LM Roman 10_MSFontService,sans-serif" font-weight="700" font-size="83" transform="matrix(1 0 0 1 5784.39 1112)">30%</text></g><g clip-path="url(#clip15)"><text font-family="LM Roman 10,LM Roman 10_MSFontService,sans-serif" font-weight="700" font-size="83" transform="matrix(1 0 0 1 5784.39 970)">40%</text></g><g clip-path="url(#clip16)"><text font-family="LM Roman 10,LM Roman 10_MSFontService,sans-serif" font-weight="700" font-size="83" transform="matrix(1 0 0 1 5784.39 828)">50%</text></g><g clip-path="url(#clip17)"><text font-family="LM Roman 10,LM Roman 10_MSFontService,sans-serif" font-weight="700" font-size="83" transform="matrix(1 0 0 1 5784.39 686)">60%</text></g><g clip-path="url(#clip18)"><text font-family="LM Roman 10,LM Roman 10_MSFontService,sans-serif" font-weight="700" font-size="83" transform="matrix(1 0 0 1 5784.39 545)">70%</text></g><g clip-path="url(#clip19)"><text font-family="LM Roman 10,LM Roman 10_MSFontService,sans-serif" font-weight="700" font-size="83" transform="matrix(1 0 0 1 2883.63 1538)">0</text></g><g clip-path="url(#clip20)"><text font-family="LM Roman 10,LM Roman 10_MSFontService,sans-serif" font-weight="700" font-size="83" transform="matrix(1 0 0 1 2741.31 1396)">2000</text></g><g clip-path="url(#clip21)"><text font-family="LM Roman 10,LM Roman 10_MSFontService,sans-serif" font-weight="700" font-size="83" transform="matrix(1 0 0 1 2741.31 1254)">4000</text></g><g clip-path="url(#clip22)"><text font-family="LM Roman 10,LM Roman 10_MSFontService,sans-serif" font-weight="700" font-size="83" transform="matrix(1 0 0 1 2741.31 1112)">6000</text></g><g clip-path="url(#clip23)"><text font-family="LM Roman 10,LM Roman 10_MSFontService,sans-serif" font-weight="700" font-size="83" transform="matrix(1 0 0 1 2741.31 970)">8000</text></g><g clip-path="url(#clip24)"><text font-family="LM Roman 10,LM Roman 10_MSFontService,sans-serif" font-weight="700" font-size="83" transform="matrix(1 0 0 1 2693.88 828)">10000</text></g><g clip-path="url(#clip25)"><text font-family="LM Roman 10,LM Roman 10_MSFontService,sans-serif" font-weight="700" font-size="83" transform="matrix(1 0 0 1 2693.88 686)">12000</text></g><g clip-path="url(#clip26)"><text font-family="LM Roman 10,LM Roman 10_MSFontService,sans-serif" font-weight="700" font-size="83" transform="matrix(1 0 0 1 2693.88 545)">14000</text></g><g clip-path="url(#clip27)"><text font-family="LM Roman 10,LM Roman 10_MSFontService,sans-serif" font-weight="700" font-size="83" transform="matrix(0.707107 -0.707107 0.707107 0.707107 3000.43 1708)">10</text></g><g clip-path="url(#clip28)"><text font-family="LM Roman 10,LM Roman 10_MSFontService,sans-serif" font-weight="700" font-size="83" transform="matrix(0.707107 -0.707107 0.707107 0.707107 3145.1 1741)">340</text></g><g clip-path="url(#clip29)"><text font-family="LM Roman 10,LM Roman 10_MSFontService,sans-serif" font-weight="700" font-size="83" transform="matrix(0.707107 -0.707107 0.707107 0.707107 3323.31 1741)">680</text></g><g clip-path="url(#clip30)"><text font-family="LM Roman 10,LM Roman 10_MSFontService,sans-serif" font-weight="700" font-size="83" transform="matrix(0.707107 -0.707107 0.707107 0.707107 3467.98 1775)">1020</text></g><g clip-path="url(#clip31)"><text font-family="LM Roman 10,LM Roman 10_MSFontService,sans-serif" font-weight="700" font-size="83" transform="matrix(0.707107 -0.707107 0.707107 0.707107 3646.19 1775)">1360</text></g><g clip-path="url(#clip32)"><text font-family="LM Roman 10,LM Roman 10_MSFontService,sans-serif" font-weight="700" font-size="83" transform="matrix(0.707107 -0.707107 0.707107 0.707107 3824.41 1775)">1700</text></g><g clip-path="url(#clip33)"><text font-family="LM Roman 10,LM Roman 10_MSFontService,sans-serif" font-weight="700" font-size="83" transform="matrix(0.707107 -0.707107 0.707107 0.707107 4002.62 1775)">2040</text></g><g clip-path="url(#clip34)"><text font-family="LM Roman 10,LM Roman 10_MSFontService,sans-serif" font-weight="700" font-size="83" transform="matrix(0.707107 -0.707107 0.707107 0.707107 4180.83 1775)">2380</text></g><g clip-path="url(#clip35)"><text font-family="LM Roman 10,LM Roman 10_MSFontService,sans-serif" font-weight="700" font-size="83" transform="matrix(0.707107 -0.707107 0.707107 0.707107 4359.04 1775)">2720</text></g><g clip-path="url(#clip36)"><text font-family="LM Roman 10,LM Roman 10_MSFontService,sans-serif" font-weight="700" font-size="83" transform="matrix(0.707107 -0.707107 0.707107 0.707107 4537.26 1775)">3060</text></g><g clip-path="url(#clip37)"><text font-family="LM Roman 10,LM Roman 10_MSFontService,sans-serif" font-weight="700" font-size="83" transform="matrix(0.707107 -0.707107 0.707107 0.707107 4715.47 1775)">3400</text></g><g clip-path="url(#clip38)"><text font-family="LM Roman 10,LM Roman 10_MSFontService,sans-serif" font-weight="700" font-size="83" transform="matrix(0.707107 -0.707107 0.707107 0.707107 4893.68 1775)">3740</text></g><g clip-path="url(#clip39)"><text font-family="LM Roman 10,LM Roman 10_MSFontService,sans-serif" font-weight="700" font-size="83" transform="matrix(0.707107 -0.707107 0.707107 0.707107 5071.9 1775)">4080</text></g><g clip-path="url(#clip40)"><text font-family="LM Roman 10,LM Roman 10_MSFontService,sans-serif" font-weight="700" font-size="83" transform="matrix(0.707107 -0.707107 0.707107 0.707107 5250.11 1775)">4420</text></g><g clip-path="url(#clip41)"><text font-family="LM Roman 10,LM Roman 10_MSFontService,sans-serif" font-weight="700" font-size="83" transform="matrix(0.707107 -0.707107 0.707107 0.707107 5428.32 1775)">4760</text></g><g clip-path="url(#clip42)"><text font-family="LM Roman 10,LM Roman 10_MSFontService,sans-serif" font-weight="400" font-size="83" transform="matrix(6.12323e-17 -1 1 6.12323e-17 2612.99 1607)">Średni czas odpowiedzi (ms)</text></g><g clip-path="url(#clip43)"><text font-family="LM Roman 10,LM Roman 10_MSFontService,sans-serif" font-weight="400" font-size="83" transform="matrix(1 0 0 1 3544.76 1950)">Liczba współbieżnie działających wątków</text></g><g clip-path="url(#clip44)"><text font-family="LM Roman 10,LM Roman 10_MSFontService,sans-serif" font-weight="700" font-size="83" transform="matrix(1 0 0 1 2961.3 406)">Interfejs API: </text></g><g clip-path="url(#clip45)"><text font-family="LM Roman 10,LM Roman 10_MSFontService,sans-serif" font-weight="400" font-size="83" transform="matrix(1 0 0 1 3567.68 406)">C# .NET API</text></g><g clip-path="url(#clip46)"><text font-family="LM Roman 10,LM Roman 10_MSFontService,sans-serif" font-weight="700" font-size="83" transform="matrix(1 0 0 1 4099.34 406)">. Punkt końcowy: </text></g><g clip-path="url(#clip47)"><text font-family="LM Roman 10,LM Roman 10_MSFontService,sans-serif" font-weight="400" font-size="83" transform="matrix(1 0 0 1 4857.17 406)">GET /API/BILLS</text></g><g clip-path="url(#clip48)"><rect x="3033.5" y="532.5" width="1464" height="473" stroke="#BFBFBF" stroke-width="3.4375" stroke-linejoin="round" stroke-miterlimit="10" fill="#FFFFFF"/></g><g clip-path="url(#clip49)"><rect x="3055" y="570" width="88" height="42.9999" fill="#D9D9D9"/></g><g clip-path="url(#clip50)"><text font-family="LM Roman 10,LM Roman 10_MSFontService,sans-serif" font-weight="400" font-size="69" transform="matrix(1 0 0 1 3152.51 613)">Procent niepoprawnych odpowiedzi</text></g><g clip-path="url(#clip51)"><rect x="3055" y="688" width="88" height="44" fill="#BFBFBF"/></g><g clip-path="url(#clip52)"><text font-family="LM Roman 10,LM Roman 10_MSFontService,sans-serif" font-weight="400" font-size="69" transform="matrix(1 0 0 1 3152.51 731)">Procent niepoprawnych odpowiedzi - CQRS</text></g><g clip-path="url(#clip53)"><path d="M3055.5 827.5 3143.5 827.5" stroke="#4472C4" stroke-width="6.875" stroke-linecap="round" stroke-linejoin="round" stroke-miterlimit="10" fill="none" fill-rule="evenodd"/></g><g clip-path="url(#clip54)"><text font-family="LM Roman 10,LM Roman 10_MSFontService,sans-serif" font-weight="400" font-size="69" transform="matrix(1 0 0 1 3152.51 849)">SQL Server</text></g><g clip-path="url(#clip55)"><path d="M3055.5 945.5 3143.5 945.501" stroke="#ED7D31" stroke-width="6.875" stroke-linecap="round" stroke-linejoin="round" stroke-miterlimit="10" fill="none" fill-rule="evenodd"/></g><g clip-path="url(#clip56)"><text font-family="LM Roman 10,LM Roman 10_MSFontService,sans-serif" font-weight="400" font-size="69" transform="matrix(1 0 0 1 3152.51 967)">SQL Server - CQRS</text></g></g></svg>