<svg width="2882" height="1362" xmlns="http://www.w3.org/2000/svg" xmlns:xlink="http://www.w3.org/1999/xlink" xml:space="preserve" overflow="hidden"><defs><clipPath id="clip0"><rect x="2358" y="138" width="2882" height="1362"/></clipPath><clipPath id="clip1"><rect x="2358" y="137" width="2882" height="1363"/></clipPath><clipPath id="clip2"><rect x="2358" y="137" width="2882" height="1363"/></clipPath><clipPath id="clip3"><rect x="2358" y="137" width="2882" height="1363"/></clipPath><clipPath id="clip4"><rect x="2358" y="137" width="2882" height="1363"/></clipPath><clipPath id="clip5"><rect x="2737" y="455" width="2405" height="652"/></clipPath><clipPath id="clip6"><rect x="2358" y="137" width="2882" height="1363"/></clipPath><clipPath id="clip7"><rect x="2358" y="137" width="2882" height="1363"/></clipPath><clipPath id="clip8"><rect x="2358" y="137" width="2882" height="1363"/></clipPath><clipPath id="clip9"><rect x="2358" y="137" width="2882" height="1363"/></clipPath><clipPath id="clip10"><rect x="2358" y="137" width="2882" height="1363"/></clipPath><clipPath id="clip11"><rect x="2358" y="137" width="2882" height="1363"/></clipPath><clipPath id="clip12"><rect x="2358" y="137" width="2882" height="1363"/></clipPath><clipPath id="clip13"><rect x="2358" y="137" width="2882" height="1363"/></clipPath><clipPath id="clip14"><rect x="2358" y="137" width="2882" height="1363"/></clipPath><clipPath id="clip15"><rect x="2358" y="137" width="2882" height="1363"/></clipPath><clipPath id="clip16"><rect x="2358" y="137" width="2882" height="1363"/></clipPath><clipPath id="clip17"><rect x="2358" y="137" width="2882" height="1363"/></clipPath><clipPath id="clip18"><rect x="2358" y="137" width="2882" height="1363"/></clipPath><clipPath id="clip19"><rect x="2358" y="137" width="2882" height="1363"/></clipPath><clipPath id="clip20"><rect x="2358" y="137" width="2882" height="1363"/></clipPath><clipPath id="clip21"><rect x="2358" y="137" width="2882" height="1363"/></clipPath><clipPath id="clip22"><rect x="2358" y="137" width="2882" height="1363"/></clipPath><clipPath id="clip23"><rect x="2358" y="137" width="2882" height="1363"/></clipPath><clipPath id="clip24"><rect x="2358" y="137" width="2882" height="1363"/></clipPath><clipPath id="clip25"><rect x="2358" y="137" width="2882" height="1363"/></clipPath><clipPath id="clip26"><rect x="2358" y="137" width="2882" height="1363"/></clipPath><clipPath id="clip27"><rect x="2358" y="137" width="2882" height="1363"/></clipPath><clipPath id="clip28"><rect x="2358" y="137" width="2882" height="1363"/></clipPath><clipPath id="clip29"><rect x="2358" y="137" width="2882" height="1363"/></clipPath><clipPath id="clip30"><rect x="2358" y="137" width="2882" height="1363"/></clipPath><clipPath id="clip31"><rect x="2358" y="137" width="2882" height="1363"/></clipPath><clipPath id="clip32"><rect x="2358" y="137" width="2882" height="1363"/></clipPath><clipPath id="clip33"><rect x="2358" y="137" width="2882" height="1363"/></clipPath><clipPath id="clip34"><rect x="2358" y="137" width="2882" height="1363"/></clipPath><clipPath id="clip35"><rect x="2358" y="137" width="2882" height="1363"/></clipPath><clipPath id="clip36"><rect x="2358" y="137" width="2882" height="1363"/></clipPath><clipPath id="clip37"><rect x="2358" y="137" width="2882" height="1363"/></clipPath><clipPath id="clip38"><rect x="2358" y="137" width="2882" height="1363"/></clipPath><clipPath id="clip39"><rect x="2358" y="137" width="2882" height="1363"/></clipPath><clipPath id="clip40"><rect x="2358" y="137" width="2882" height="1363"/></clipPath><clipPath id="clip41"><rect x="2358" y="137" width="2882" height="1363"/></clipPath><clipPath id="clip42"><rect x="2358" y="137" width="2882" height="1363"/></clipPath><clipPath id="clip43"><rect x="2358" y="137" width="2882" height="1363"/></clipPath><clipPath id="clip44"><rect x="2358" y="137" width="2882" height="1363"/></clipPath><clipPath id="clip45"><rect x="2358" y="137" width="2882" height="1363"/></clipPath><clipPath id="clip46"><rect x="2358" y="137" width="2882" height="1363"/></clipPath></defs><g clip-path="url(#clip0)" transform="translate(-2358 -138)"><rect x="2358" y="138" width="2882" height="1362" fill="#FFFFFF"/><g clip-path="url(#clip1)"><path d="M2737.5 1071.54 5139.5 1071.54M2737.5 1006.53 5139.5 1006.53M2737.5 941.531 5139.5 941.531M2737.5 876.529 5139.5 876.529M2737.5 811.527 5139.5 811.527M2737.5 747.525 5139.5 747.525M2737.5 682.523 5139.5 682.523M2737.5 617.52 5139.5 617.52M2737.5 552.518 5139.5 552.518M2737.5 487.516 5139.5 487.516" stroke="#F2F2F2" stroke-width="3.4375" stroke-linejoin="round" stroke-miterlimit="10" fill="none"/></g><g clip-path="url(#clip2)"><path d="M2737.5 1038.53 5139.5 1038.53M2737.5 973.532 5139.5 973.532M2737.5 909.53 5139.5 909.53M2737.5 844.528 5139.5 844.528M2737.5 779.526 5139.5 779.526M2737.5 714.524 5139.5 714.524M2737.5 649.521 5139.5 649.521M2737.5 584.519 5139.5 584.519M2737.5 520.517 5139.5 520.517M2737.5 455.5 5139.5 455.5" stroke="#D9D9D9" stroke-width="3.4375" stroke-linejoin="round" stroke-miterlimit="10" fill="none"/></g><g clip-path="url(#clip3)"><rect x="2737.5" y="455.5" width="2402" height="648" stroke="#D9D9D9" stroke-width="3.4375" stroke-linejoin="round" stroke-miterlimit="10" fill="none"/></g><g clip-path="url(#clip4)"><path d="M2737.5 1103.5 5139.5 1103.5" stroke="#D9D9D9" stroke-width="3.4375" stroke-linejoin="round" stroke-miterlimit="10" fill="none" fill-rule="evenodd"/></g><g clip-path="url(#clip5)"><path d="M2738.5 911.53 2738.59 907.53 2739.59 948.531 2740.59 947.531 2741.59 949.531 2742.59 1065.54 2743.59 948.531 2744.59 910.53 2744.59 946.531 2745.59 949.531 2746.59 1065.54 2747.59 947.531 2748.59 976.532 2749.59 1065.54 2750.59 1065.54 2751.59 1053.53 2751.59 988.533 2752.59 988.533 2753.59 907.53 2754.59 1064.54 2755.59 902.53 2756.59 1064.54 2757.59 949.531 2757.59 910.53 2758.59 901.53 2759.59 949.531 2760.59 948.531 2761.59 988.533 2762.59 1065.54 2763.59 1065.54 2763.59 1065.54 2764.59 1065.54 2765.59 910.53 2766.59 1065.54 2767.59 910.53 2768.59 988.533 2769.59 988.533 2770.59 988.533 2770.59 909.53 2771.59 988.533 2772.59 949.531 2773.59 1065.54 2774.59 1065.54 2775.59 1065.54 2776.59 1062.54 2776.59 1065.54 2777.59 1065.54 2778.59 988.533 2779.59 988.533 2780.59 908.53 2781.59 1065.54 2782.59 963.532 2782.59 1065.54 2783.59 1065.54 2784.59 1065.54 2785.59 1064.54 2786.59 1065.54 2787.59 958.532 2788.59 981.532 2788.59 960.532 2789.59 942.531 2790.59 1065.54 2791.59 930.531 2792.59 932.531 2793.59 940.531 2794.59 1059.53 2795.59 1065.54 2795.59 948.531 2796.59 942.531 2797.59 940.531 2798.59 1065.54 2799.59 949.531 2800.59 896.53 2801.59 1065.54 2801.59 906.53 2802.59 1055.53 2803.59 906.53 2804.59 1059.53 2805.59 939.531 2806.59 898.53 2807.59 1044.53 2807.59 879.529 2808.59 1065.54 2809.59 1065.54 2810.59 989.533 2811.59 1065.54 2812.59 988.533 2813.59 1063.54 2814.59 1065.54 2814.59 949.531 2815.59 988.533 2816.59 1065.54 2817.59 989.533 2818.59 1065.54 2819.59 910.53 2820.59 1063.54 2820.59 949.531 2821.59 986.533 2822.59 1065.54 2823.59 1065.54 2824.59 1065.54 2825.59 923.531 2826.59 949.531 2826.59 1065.54 2827.59 1063.54 2828.59 1065.54 2829.59 938.531 2830.59 933.531 2831.59 933.531 2832.59 893.53 2833.59 1046.53 2833.59 897.53 2834.59 890.529 2835.59 1038.53 2836.59 947.531 2837.59 890.529 2838.59 889.529 2839.59 1065.54 2839.59 1065.54 2840.59 988.533 2841.59 908.53 2842.59 1064.54 2843.59 1065.54 2844.59 1065.54 2845.59 988.533 2845.59 905.53 2846.59 1065.54 2847.59 969.532 2848.59 898.53 2849.59 1065.54 2850.59 1064.54 2851.59 1061.54 2852.59 1065.54 2852.59 984.532 2853.59 988.533 2854.59 948.531 2855.59 932.531 2856.59 1060.53 2857.59 866.529 2858.59 923.531 2858.59 916.53 2859.59 937.531 2860.59 986.533 2861.59 946.531 2862.59 1065.54 2863.59 1065.54 2864.59 908.53 2864.59 1059.53 2865.59 986.533 2866.59 1029.53 2867.59 958.532 2868.59 901.53 2869.59 886.529 2870.59 901.53 2871.59 874.529 2871.59 878.529 2872.59 816.527 2873.59 874.529 2874.59 956.532 2875.59 868.529 2876.59 959.532 2877.59 1065.54 2877.59 1065.54 2878.59 1051.53 2879.59 1054.53 2880.59 1023.53 2881.59 887.529 2882.59 953.531 2883.59 1065.54 2883.59 944.531 2884.59 1062.54 2885.59 954.531 2886.59 877.529 2887.59 895.53 2888.59 989.533 2889.59 988.533 2889.59 1065.54 2890.6 941.531 2891.6 949.531 2892.6 942.531 2893.6 954.531 2894.6 908.53 2895.6 944.531 2896.6 985.533 2896.6 1065.54 2897.6 1065.54 2898.6 1065.54 2899.6 923.531 2900.6 1065.54 2901.6 986.533 2902.6 1065.54 2902.6 1065.54 2903.6 1065.54 2904.6 1065.54 2905.6 1059.53 2906.6 946.531 2907.6 1063.54 2908.6 910.53 2908.6 910.53 2909.6 903.53 2910.6 947.531 2911.6 904.53 2912.6 1045.53 2913.6 930.531 2914.6 1049.53 2915.6 904.53 2915.6 1065.54 2916.6 1065.54 2917.6 949.531 2918.6 947.531 2919.6 944.531 2920.6 1063.54 2921.6 911.53 2921.6 983.532 2922.6 1063.54 2923.6 1065.54 2924.6 900.53 2925.6 910.53 2926.6 987.533 2927.6 947.531 2927.6 940.531 2928.6 949.531 2929.6 967.532 2930.6 966.532 2931.6 948.531 2932.6 940.531 2933.6 901.53 2934.6 1061.54 2934.6 940.531 2935.6 1065.54 2936.6 1065.54 2937.6 1065.54 2938.6 986.533 2939.6 948.531 2940.6 949.531 2940.6 908.53 2941.6 1065.54 2942.6 986.533 2943.6 1065.54 2944.6 910.53 2945.6 1065.54 2946.6 910.53 2946.6 910.53 2947.6 909.53 2948.6 988.533 2949.6 908.53 2950.6 982.532 2951.6 1065.54 2952.6 1065.54 2953.6 1065.54 2953.6 949.531 2954.6 947.531 2955.6 1065.54 2956.6 1065.54 2957.6 1065.54 2958.6 1065.54 2959.6 1065.54 2959.6 949.531 2960.6 1065.54 2961.6 988.533 2962.6 988.533 2963.6 1065.54 2964.6 987.533 2965.6 1065.54 2965.6 982.532 2966.6 983.532 2967.6 1064.54 2968.6 949.531 2969.6 906.53 2970.6 948.531 2971.6 948.531 2972.6 1065.54 2972.6 1065.54 2973.6 949.531 2974.6 1065.54 2975.6 1065.54 2976.6 947.531 2977.6 1065.54 2978.6 988.533 2978.6 988.533 2979.6 1065.54 2980.6 911.53 2981.6 1063.54 2982.6 910.53 2983.6 909.53 2984.6 909.53 2984.6 948.531 2985.6 981.532 2986.6 1065.54 2987.6 902.53 2988.6 911.53 2989.6 908.53 2990.6 1065.54 2990.6 1065.54 2991.6 910.53 2992.6 986.533 2993.6 988.533 2994.6 906.53 2995.6 908.53 2996.6 989.533 2997.6 988.533 2997.6 1065.54 2998.6 1065.54 2999.6 1064.54 3000.6 1065.54 3001.6 1065.54 3002.6 1065.54 3003.6 1065.54 3003.6 1065.54 3004.6 1054.53 3005.6 1065.54 3006.6 988.533 3007.6 989.533 3008.6 949.531 3009.6 1064.54 3009.6 1060.53 3010.6 987.533 3011.6 1063.54 3012.6 946.531 3013.6 907.53 3014.6 944.531 3015.6 1065.5 3016.6 1065.54 3016.6 1065.54 3017.6 949.531 3018.6 1064.54 3019.6 878.529 3020.6 947.531 3021.6 949.531 3022.6 928.531 3022.6 864.529 3023.6 860.528 3024.6 1065.54 3025.6 1064.54 3026.6 923.531 3027.6 1063.54 3028.6 979.532 3028.6 939.531 3029.6 905.53 3030.6 977.532 3031.6 975.532 3032.6 900.53 3033.6 1064.54 3034.6 1064.54 3035.6 1065.54 3035.6 1065.54 3036.6 984.532 3037.6 984.532 3038.6 985.533 3039.6 982.532 3040.6 1065.54 3041.6 1065.54 3041.6 1065.54 3042.6 905.53 3043.6 1065.54 3044.6 1065.54 3045.6 988.533 3046.6 987.533 3047.6 946.531 3047.6 988.533 3048.6 945.531 3049.6 1063.54 3050.6 1065.54 3051.6 910.53 3052.6 909.53 3053.6 1064.54 3054.6 1065.54 3054.6 1065.54 3055.6 1065.54 3056.6 931.531 3057.6 986.533 3058.6 1064.54 3059.6 1054.53 3060.6 1062.54 3060.6 989.533 3061.6 984.532 3062.6 908.53 3063.6 896.53 3064.6 893.53 3065.6 988.533 3066.6 1065.54 3066.6 898.53 3067.6 898.53 3068.6 1065.54 3069.6 988.533 3070.6 949.531 3071.6 988.533 3072.6 988.533 3073.6 948.531 3073.6 881.529 3074.6 1065.54 3075.6 1065.54 3076.6 988.533 3077.6 839.528 3078.6 904.53 3079.6 988.533 3079.6 947.531 3080.6 987.533 3081.6 989.533 3082.6 1062.54 3083.6 1065.54 3084.6 1065.54 3085.6 988.533 3085.6 910.53 3086.6 910.53 3087.6 1065.54 3088.6 949.531 3089.6 1065.54 3090.6 943.531 3091.6 909.53 3091.6 1065.54 3092.6 911.53 3093.6 1065.54 3094.6 1065.54 3095.6 1065.54 3096.6 989.533 3097.6 943.531 3098.6 795.526 3098.6 910.53 3099.6 911.53 3100.6 1065.54 3101.6 902.53 3102.6 989.533 3103.6 910.53 3104.6 988.533 3104.6 948.531 3105.6 910.53 3106.6 949.531 3107.6 949.531 3108.6 949.531 3109.6 989.533 3110.6 1065.54 3110.6 948.531 3111.6 910.53 3112.6 908.53 3113.6 1064.54 3114.6 1065.54 3115.6 988.533 3116.6 989.533 3117.6 910.53 3117.6 910.53 3118.6 907.53 3119.6 1063.54 3120.6 988.533 3121.6 944.531 3122.6 948.531 3123.6 949.531 3123.6 986.533 3124.6 1065.54 3125.6 1065.54 3126.6 918.53 3127.6 1065.54 3128.6 948.531 3129.6 941.531 3129.6 1065.54 3130.6 944.531 3131.6 989.533 3132.6 949.531 3133.6 905.53 3134.6 909.53 3135.6 988.533 3136.6 987.533 3136.6 911.53 3137.6 1065.54 3138.6 906.53 3139.6 948.531 3140.6 949.531 3141.6 988.533 3142.6 1065.54 3142.6 946.531 3143.6 1065.54 3144.6 949.531 3145.6 1065.54 3146.6 892.529 3147.6 988.533 3148.6 952.531 3148.6 1065.54 3149.6 1065.54 3150.6 976.532 3151.6 912.53 3152.6 850.528 3153.6 910.53 3154.6 988.533 3155.6 955.532 3155.6 964.532 3156.6 1065.54 3157.6 985.533 3158.6 1065.54 3159.6 881.529 3160.6 885.529 3161.6 947.531 3161.6 1065.54 3162.6 948.531 3163.6 1065.54 3164.6 948.531 3165.6 909.53 3166.6 1065.54 3167.6 949.531 3167.6 948.531 3168.6 1065.54 3169.6 1065.54 3170.6 1065.54 3171.6 988.533 3172.6 948.531 3173.6 1065.54 3174.6 1063.54 3174.6 1065.54 3175.6 1065.54 3176.6 909.53 3177.6 1065.54 3178.6 1065.54 3179.6 910.53 3180.6 910.53 3180.6 1065.54 3181.6 1065.54 3182.6 988.533 3183.6 988.533 3184.6 1065.54 3185.6 1065.54 3186.6 1065.54 3186.6 1060.53 3187.6 1065.54 3188.6 948.531 3189.6 907.53 3190.6 907.53 3191.6 1065.54 3192.6 988.533 3192.6 988.533 3193.6 903.53 3194.6 988.533 3195.6 948.531 3196.61 943.531 3197.61 948.531 3198.61 1065.54 3199.61 1054.53 3199.61 1065.54 3200.61 988.533 3201.61 1064.54 3202.61 908.53 3203.61 1065.54 3204.61 989.533 3205.61 949.531 3205.61 989.533 3206.61 988.533 3207.61 972.532 3208.61 1046.53 3209.61 1065.54 3210.61 900.53 3211.61 1062.54 3211.61 899.53 3212.61 986.533 3213.61 949.531 3214.61 949.531 3215.61 1065.54 3216.61 909.53 3217.61 1065.54 3218.61 987.533 3218.61 1063.54 3219.61 1064.54 3220.61 988.533 3221.61 1065.54 3222.61 1065.54 3223.61 1055.53 3224.61 971.532 3224.61 1056.53 3225.61 1065.54 3226.61 902.53 3227.61 910.53 3228.61 910.53 3229.61 947.531 3230.61 1065.54 3230.61 929.531 3231.61 941.531 3232.61 948.531 3233.61 910.53 3234.61 948.531 3235.61 949.531 3236.61 910.53 3237.61 1065.54 3237.61 1065.54 3238.61 910.53 3239.61 1065.54 3240.61 986.533 3241.61 1065.54 3242.61 1065.54 3243.61 1065.54 3243.61 838.528 3244.61 908.53 3245.61 1065.54 3246.61 900.53 3247.61 1065.54 3248.61 947.531 3249.61 1065.54 3249.61 883.529 3250.61 1047.53 3251.61 908.53 3252.61 888.529 3253.61 974.532 3254.61 929.531 3255.61 1030.53 3256.61 896.53 3256.61 848.528 3257.61 1058.53 3258.61 873.529 3259.61 948.531 3260.61 929.531 3261.61 955.532 3262.61 889.529 3262.61 1052.53 3263.61 967.532 3264.61 892.529 3265.61 1065.54 3266.61 1065.54 3267.61 947.531 3268.61 947.531 3268.61 1065.54 3269.61 934.531 3270.61 937.531 3271.61 896.53 3272.61 1063.54 3273.61 1065.54 3274.61 1065.54 3274.61 1061.54 3275.61 1065.54 3276.61 1061.54 3277.61 900.53 3278.61 985.533 3279.61 986.533 3280.61 560.519 3281.61 1065.54 3281.61 907.53 3282.61 901.53 3283.61 904.53 3284.61 1065.54 3285.61 885.529 3286.61 893.53 3287.61 936.531 3287.61 922.53 3288.61 948.531 3289.61 879.529 3290.61 1065.54 3291.61 1065.54 3292.61 946.531 3293.61 1065.54 3293.61 909.53 3294.61 1065.54 3295.61 1065.54 3296.61 949.531 3297.61 909.53 3298.61 967.532 3299.61 900.53 3300.61 1065.54 3300.61 979.532 3301.61 975.532 3302.61 980.532 3303.61 1062.54 3304.61 1065.54 3305.61 1060.53 3306.61 959.532 3306.61 983.532 3307.61 940.531 3308.61 933.531 3309.61 986.533 3310.61 912.53 3311.61 888.529 3312.61 888.529 3312.61 894.53 3313.61 1064.54 3314.61 907.53 3315.61 1065.54 3316.61 949.531 3317.61 988.533 3318.61 988.533 3319.61 948.531 3319.61 1061.54 3320.61 1054.53 3321.61 1053.53 3322.61 1059.53 3323.61 885.529 3324.61 881.529 3325.61 876.529 3325.61 945.531 3326.61 959.532 3327.61 1065.54 3328.61 988.533 3329.61 1065.54 3330.61 879.529 3331.61 986.533 3331.61 1064.54 3332.61 1065.54 3333.61 1061.54 3334.61 985.533 3335.61 910.53 3336.61 1065.54 3337.61 908.53 3338.61 948.531 3338.61 909.53 3339.61 988.533 3340.61 984.532 3341.61 1065.54 3342.61 1065.54 3343.61 948.531 3344.61 946.531 3344.61 1065.54 3345.61 1062.54 3346.61 1065.54 3347.61 938.531 3348.61 906.53 3349.61 886.529 3350.61 1064.54 3350.61 1065.54 3351.61 1065.54 3352.61 1065.54 3353.61 988.533 3354.61 986.533 3355.61 988.533 3356.61 988.533 3357.61 1050.53 3357.61 908.53 3358.61 949.531 3359.61 947.531 3360.61 947.531 3361.61 941.531 3362.61 942.531 3363.61 1065.54 3363.61 935.531 3364.61 1065.54 3365.61 946.531 3366.61 986.533 3367.61 898.53 3368.61 1065.54 3369.61 1060.53 3369.61 1061.54 3370.61 984.532 3371.61 908.53 3372.61 947.531 3373.61 910.53 3374.61 909.53 3375.61 910.53 3375.61 1065.54 3376.61 989.533 3377.61 988.533 3378.61 910.53 3379.61 949.531 3380.61 907.53 3381.61 947.531 3382.61 1063.54 3382.61 926.531 3383.61 907.53 3384.61 1065.54 3385.61 1065.54 3386.61 1065.54 3387.61 988.533 3388.61 903.53 3388.61 1065.54 3389.61 909.53 3390.61 947.531 3391.61 911.53 3392.61 949.531 3393.61 1065.54 3394.61 910.53 3394.61 948.531 3395.61 910.53 3396.61 988.533 3397.61 1065.54 3398.61 1065.54 3399.61 910.53 3400.61 949.531 3401.61 945.531 3401.61 902.53 3402.61 988.533 3403.61 1065.54 3404.61 1065.54 3405.61 903.53 3406.61 1065.54 3407.61 1065.54 3407.61 1065.54 3408.61 1065.54 3409.61 901.53 3410.61 986.533 3411.61 948.531 3412.61 979.532 3413.61 944.531 3413.61 895.53 3414.61 942.531 3415.61 948.531 3416.61 911.53 3417.61 988.533 3418.61 1065.54 3419.61 1065.54 3420.61 1065.54 3420.61 984.532 3421.61 947.531 3422.61 1063.54 3423.61 1065.54 3424.61 982.532 3425.61 1065.54 3426.61 979.532 3426.61 1065.54 3427.61 988.533 3428.61 939.531 3429.61 908.53 3430.61 902.53 3431.61 972.532 3432.61 909.53 3432.61 948.531 3433.61 988.533 3434.61 987.533 3435.61 947.531 3436.61 1064.54 3437.61 896.53 3438.61 1051.53 3439.61 1065.54 3439.61 949.531 3440.61 907.53 3441.61 910.53 3442.61 944.531 3443.61 1065.54 3444.61 1065.54 3445.61 1065.54 3445.61 1065.54 3446.61 1065.54 3447.61 1065.54 3448.61 847.528 3449.61 909.53 3450.61 1065.54 3451.61 1044.53 3451.61 894.53 3452.61 974.532 3453.61 950.531 3454.61 948.531 3455.61 846.528 3456.61 1062.54 3457.61 1065.54 3458.61 896.53 3458.61 949.531 3459.61 879.529 3460.61 1065.54 3461.61 948.531 3462.61 988.533 3463.61 818.527 3464.61 1065.54 3464.61 942.531 3465.61 988.533 3466.61 1065.54 3467.61 809.527 3468.61 901.53 3469.61 949.531 3470.61 1065.54 3470.61 987.533 3471.61 891.529 3472.61 931.531 3473.61 948.531 3474.61 891.529 3475.61 1065.54 3476.61 1061.54 3476.61 871.529 3477.61 1052.53 3478.61 870.529 3479.61 946.531 3480.61 970.532 3481.61 1063.54 3482.61 1065.54 3483.61 1065.54 3483.61 901.53 3484.61 985.533 3485.61 902.53 3486.61 1065.54 3487.61 909.53 3488.61 898.53 3489.61 949.531 3489.61 902.53 3490.61 1065.54 3491.61 948.531 3492.61 908.53 3493.61 890.529 3494.61 1057.53 3495.61 1058.53 3495.61 927.531 3496.61 925.531 3497.61 659.522 3498.61 932.531 3499.61 863.529 3500.62 1025.53 3501.62 1025.53 3502.62 1041.53 3502.62 869.529 3503.62 857.528 3504.62 937.531 3505.62 747.525 3506.62 900.53 3507.62 958.532 3508.62 907.53 3508.62 1064.54 3509.62 1065.54 3510.62 716.524 3511.62 947.531 3512.62 1062.54 3513.62 916.53 3514.62 941.531 3514.62 1052.53 3515.62 922.53 3516.62 1065.54 3517.62 879.529 3518.62 884.529 3519.62 1065.54 3520.62 1065.54 3521.62 1062.54 3521.62 1059.53 3522.62 988.533 3523.62 1065.54 3524.62 946.531 3525.62 909.53 3526.62 972.532 3527.62 1041.53 3527.62 903.53 3528.62 903.53 3529.62 899.53 3530.62 904.53 3531.62 979.532 3532.62 943.531 3533.62 1065.54 3533.62 964.532 3534.62 1065.54 3535.62 1065.54 3536.62 1065.54 3537.62 947.531 3538.62 948.531 3539.62 903.53 3540.62 900.53 3540.62 1065.54 3541.62 909.53 3542.62 1064.54 3543.62 982.532 3544.62 989.533 3545.62 1047.53 3546.62 909.53 3546.62 940.531 3547.62 988.533 3548.62 975.532 3549.62 895.53 3550.62 989.533 3551.62 1065.54 3552.62 948.531 3552.62 687.523 3553.62 1042.53 3554.62 877.529 3555.62 910.53 3556.62 1065.54 3557.62 1065.54 3558.62 1065.54 3559.62 983.532 3559.62 988.533 3560.62 814.527 3561.62 1065.54 3562.62 958.532 3563.62 910.53 3564.62 904.53 3565.62 1065.54 3565.62 968.532 3566.62 969.532 3567.62 977.532 3568.62 948.531 3569.62 1062.54 3570.62 862.529 3571.62 1063.54 3571.62 819.527 3572.62 940.531 3573.62 1039.53 3574.62 902.53 3575.62 898.53 3576.62 1065.54 3577.62 882.529 3577.62 1065.54 3578.62 1065.54 3579.62 1062.54 3580.62 1065.54 3581.62 1065.54 3582.62 1065.54 3583.62 1065.54 3584.62 1065.54 3584.62 988.533 3585.62 1065.54 3586.62 988.533 3587.62 983.532 3588.62 986.533 3589.62 989.533 3590.62 910.53 3590.62 1065.54 3591.62 1065.54 3592.62 1064.54 3593.62 894.53 3594.62 946.531 3595.62 898.53 3596.62 883.529 3596.62 1065.54 3597.62 707.523 3598.62 880.529 3599.62 1065.54 3600.62 1065.54 3601.62 1065.54 3602.62 1065.54 3603.62 988.533 3603.62 1010.53 3604.62 1058.53 3605.62 943.531 3606.62 975.532 3607.62 943.531 3608.62 929.531 3609.62 1047.53 3609.62 906.53 3610.62 879.529 3611.62 1060.53 3612.62 1061.54 3613.62 1064.54 3614.62 1065.54 3615.62 1065.54 3615.62 1050.53 3616.62 902.53 3617.62 984.532 3618.62 946.531 3619.62 1054.53 3620.62 1057.53 3621.62 1065.54 3622.62 1065.54 3622.62 904.53 3623.62 901.53 3624.62 1065.54 3625.62 930.531 3626.62 928.531 3627.62 1065.54 3628.62 1065.54 3628.62 1065.54 3629.62 988.533 3630.62 988.533 3631.62 1065.54 3632.62 985.533 3633.62 1064.54 3634.62 986.533 3634.62 1065.54 3635.62 1065.54 3636.62 1065.54 3637.62 1057.53 3638.62 982.532 3639.62 984.532 3640.62 897.53 3641.62 1064.54 3641.62 986.533 3642.62 1064.54 3643.62 1065.54 3644.62 1065.54 3645.62 1065.54 3646.62 1065.54 3647.62 1065.54 3647.62 1065.54 3648.62 1055.53 3649.62 949.531 3650.62 947.531 3651.62 905.53 3652.62 903.53 3653.62 1058.53 3653.62 1058.53 3654.62 1065.54 3655.62 943.531 3656.62 904.53 3657.62 1065.54 3658.62 866.529 3659.62 1065.54 3660.62 1065.54 3660.62 1065.54 3661.62 1065.54 3662.62 1051.53 3663.62 946.531 3664.62 1065.54 3665.62 1065.54 3666.62 988.533 3666.62 988.533 3667.62 988.533 3668.62 988.533 3669.62 1065.54 3670.62 989.533 3671.62 1065.54 3672.62 1065.54 3672.62 984.532 3673.62 909.53 3674.62 948.531 3675.62 1052.53 3676.62 976.532 3677.62 902.53 3678.62 1065.54 3678.62 1065.54 3679.62 1065.54 3680.62 976.532 3681.62 1065.54 3682.62 843.528 3683.62 930.531 3684.62 988.533 3685.62 1065.54 3685.62 957.532 3686.62 942.531 3687.62 1065.54 3688.62 944.531 3689.62 862.529 3690.62 911.53 3691.62 1062.54 3691.62 905.53 3692.62 1033.53 3693.62 1061.54 3694.62 1065.54 3695.62 908.53 3696.62 981.532 3697.62 860.528 3697.62 909.53 3698.62 906.53 3699.62 944.531 3700.62 942.531 3701.62 1064.54 3702.62 672.522 3703.62 1065.54 3704.62 1065.54 3704.62 1065.54 3705.62 900.53 3706.62 946.531 3707.62 829.527 3708.62 947.531 3709.62 900.53 3710.62 1063.54 3710.62 987.533 3711.62 1065.54 3712.62 1065.54 3713.62 906.53 3714.62 949.531 3715.62 904.53 3716.62 1065.54 3716.62 903.53 3717.62 1065.54 3718.62 972.532 3719.62 1063.54 3720.62 1065.54 3721.62 982.532 3722.62 1064.54 3723.62 1055.53 3723.62 1065.54 3724.62 949.531 3725.62 1065.54 3726.62 947.531 3727.62 911.53 3728.62 934.531 3729.62 1065.54 3729.62 902.53 3730.62 1063.54 3731.62 1065.54 3732.62 1063.54 3733.62 987.533 3734.62 947.531 3735.62 988.533 3735.62 1064.54 3736.62 948.531 3737.62 1062.54 3738.62 1065.54 3739.62 1064.54 3740.62 1065.54 3741.62 1065.54 3742.62 946.531 3742.62 946.531 3743.62 1064.54 3744.62 988.533 3745.62 988.533 3746.62 1065.54 3747.62 939.531 3748.62 902.53 3748.62 1065.54 3749.62 976.532 3750.62 1065.54 3751.62 1065.54 3752.62 988.533 3753.62 1065.54 3754.62 949.531 3754.62 909.53 3755.62 910.53 3756.62 1065.54 3757.62 1065.54 3758.62 1065.54 3759.62 933.531 3760.62 1065.54 3761.62 1065.54 3761.62 1059.53 3762.62 883.529 3763.62 847.528 3764.62 1064.54 3765.62 985.533 3766.62 984.532 3767.62 946.531 3767.62 1065.54 3768.62 947.531 3769.62 972.532 3770.62 1064.54 3771.62 935.531 3772.62 905.53 3773.62 908.53 3773.62 989.533 3774.62 1065.54 3775.62 987.533 3776.62 1064.54 3777.62 1059.53 3778.62 908.53 3779.62 948.531 3779.62 948.531 3780.62 988.533 3781.62 987.533 3782.62 1065.54 3783.62 988.533 3784.62 1065.54 3785.62 1065.54 3786.62 1065.54 3786.62 864.529 3787.62 988.533 3788.62 948.531 3789.62 948.531 3790.62 906.53 3791.62 985.533 3792.62 1065.54 3792.62 1064.54 3793.62 1064.54 3794.62 989.533 3795.62 1065.54 3796.62 988.533 3797.62 1065.54 3798.62 987.533 3798.62 910.53 3799.62 988.533 3800.62 949.531 3801.62 949.531 3802.62 1065.54 3803.62 988.533 3804.62 852.528 3805.62 949.531 3805.62 988.533 3806.62 850.528 3807.62 949.531 3808.63 1065.54 3809.63 984.532 3810.63 903.53 3811.63 908.53 3811.63 947.531 3812.63 989.533 3813.63 939.531 3814.63 945.531 3815.63 1065.54 3816.63 885.529 3817.63 904.53 3817.63 1065.54 3818.63 904.53 3819.63 948.531 3820.63 945.531 3821.63 1065.54 3822.63 705.523 3823.63 1025.53 3824.63 1065.54 3824.63 1065.54 3825.63 989.533 3826.63 1060.53 3827.63 984.532 3828.63 694.523 3829.63 1065.54 3830.63 944.531 3830.63 1050.53 3831.63 1063.54 3832.63 948.531 3833.63 904.53 3834.63 903.53 3835.63 943.531 3836.63 949.531 3836.63 1063.54 3837.63 1065.54 3838.63 984.532 3839.63 945.531 3840.63 986.533 3841.63 947.531 3842.63 1065.54 3843.63 1065.54 3843.63 1065.54 3844.63 1065.54 3845.63 906.53 3846.63 910.53 3847.63 988.533 3848.63 1065.54 3849.63 873.529 3849.63 988.533 3850.63 1065.54 3851.63 1065.54 3852.63 909.53 3853.63 948.531 3854.63 910.53 3855.63 851.528 3855.63 873.529 3856.63 892.529 3857.63 848.528 3858.63 834.528 3859.63 892.529 3860.63 831.527 3861.63 897.53 3862.63 886.529 3862.63 902.53 3863.63 910.53 3864.63 900.53 3865.63 903.53 3866.63 1065.54 3867.63 1065.54 3868.63 989.533 3868.63 1065.54 3869.63 1065.54 3870.63 1064.54 3871.63 988.533 3872.63 948.531 3873.63 988.533 3874.63 910.53 3874.63 910.53 3875.63 910.53 3876.63 944.531 3877.63 946.531 3878.63 1065.54 3879.63 908.53 3880.63 845.528 3880.63 1065.54 3881.63 910.53 3882.63 949.531 3883.63 937.531 3884.63 1065.54 3885.63 906.53 3886.63 577.519 3887.63 948.531 3887.63 918.53 3888.63 988.533 3889.63 1065.54 3890.63 905.53 3891.63 983.532 3892.63 986.533 3893.63 943.531 3893.63 948.531 3894.63 527.518 3895.63 910.53 3896.63 910.53 3897.63 1063.54 3898.63 1065.54 3899.63 854.528 3899.63 910.53 3900.63 1063.54 3901.63 1064.54 3902.63 903.53 3903.63 1065.54 3904.63 1010.53 3905.63 910.53 3906.63 909.53 3906.63 909.53 3907.63 911.53 3908.63 987.533 3909.63 1065.54 3910.63 944.531 3911.63 987.533 3912.63 986.533 3912.63 985.533 3913.63 988.533 3914.63 1065.54 3915.63 1065.54 3916.63 1063.54 3917.63 947.531 3918.63 972.532 3918.63 971.532 3919.63 867.529 3920.63 1065.54 3921.63 642.521 3922.63 1062.54 3923.63 927.531 3924.63 935.531 3925.63 1065.54 3925.63 1064.54 3926.63 949.531 3927.63 1054.53 3928.63 948.531 3929.63 908.53 3930.63 932.531 3931.63 978.532 3931.63 1056.53 3932.63 1064.54 3933.63 1064.54 3934.63 987.533 3935.63 899.53 3936.63 1064.54 3937.63 910.53 3937.63 643.521 3938.63 945.531 3939.63 902.53 3940.63 1063.54 3941.63 988.533 3942.63 907.53 3943.63 527.5 3944.63 1065.54 3944.63 1037.53 3945.63 1064.54 3946.63 946.531 3947.63 1065.54 3948.63 910.53 3949.63 948.531 3950.63 1065.54 3950.63 987.533 3951.63 1065.54 3952.63 988.533 3953.63 987.533 3954.63 1064.54 3955.63 1065.54 3956.63 949.531 3956.63 947.531 3957.63 1031.53 3958.63 975.532 3959.63 906.53 3960.63 946.531 3961.63 946.531 3962.63 935.531 3962.63 942.531 3963.63 939.531 3964.63 1057.53 3965.63 945.531 3966.63 943.531 3967.63 937.531 3968.63 941.531 3969.63 939.531 3969.63 1064.54 3970.63 1065.54 3971.63 897.53 3972.63 904.53 3973.63 1065.54 3974.63 1065.54 3975.63 1065.54 3975.63 891.529 3976.63 1065.54 3977.63 895.53 3978.63 988.533 3979.63 1063.54 3980.63 945.531 3981.63 908.53 3981.63 981.532 3982.63 904.53 3983.63 1057.53 3984.63 906.53 3985.63 879.529 3986.63 1065.54 3987.63 896.53 3988.63 1062.54 3988.63 1065.54 3989.63 989.533 3990.63 1065.54 3991.63 908.53 3992.63 988.533 3993.63 948.531 3994.63 949.531 3994.63 988.533 3995.63 948.531 3996.63 946.531 3997.63 1065.54 3998.63 948.531 3999.63 988.533 4000.63 1065.54 4000.63 1064.54 4001.63 948.531 4002.63 1065.54 4003.63 1065.54 4004.63 1050.53 4005.63 941.531 4006.63 1065.54 4007.63 942.531 4007.63 948.531 4008.63 907.53 4009.63 1065.54 4010.63 1065.54 4011.63 1064.54 4012.63 906.53 4013.63 1064.54 4013.63 1065.54 4014.63 1065.54 4015.63 988.533 4016.63 1065.54 4017.63 982.532 4018.63 949.531 4019.63 949.531 4019.63 911.53 4020.63 1065.54 4021.63 910.53 4022.63 911.53 4023.63 911.53 4024.63 909.53 4025.63 588.52 4026.63 864.529 4026.63 948.531 4027.63 888.529 4028.63 1019.53 4029.63 1065.54 4030.63 947.531 4031.63 909.53 4032.63 948.531 4032.63 948.531 4033.63 948.531 4034.63 988.533 4035.63 909.53 4036.63 1065.54 4037.63 908.53 4038.63 910.53 4038.63 1065.54 4039.63 1065.54 4040.63 1065.54 4041.63 877.529 4042.63 884.529 4043.63 1064.54 4044.63 988.533 4045.63 1064.54 4045.63 1065.54 4046.63 1064.54 4047.63 928.531 4048.63 1065.54 4049.63 953.531 4050.63 950.531 4051.63 950.531 4051.63 953.531 4052.63 830.527 4053.63 865.529 4054.63 1001.53 4055.63 982.532 4056.63 868.529 4057.63 1003.53 4057.63 1063.54 4058.63 899.53 4059.63 904.53 4060.63 1060.53 4061.63 1060.53 4062.63 896.53 4063.63 952.531 4063.63 1064.54 4064.63 1065.54 4065.63 832.527 4066.63 1065.54 4067.63 948.531 4068.63 910.53 4069.63 1064.54 4070.63 910.53 4070.63 935.531 4071.63 1044.53 4072.63 1065.54 4073.63 948.531 4074.63 1065.54 4075.63 1065.54 4076.63 1065.54 4076.63 1065.54 4077.63 948.531 4078.63 1065.54 4079.63 949.531 4080.63 910.53 4081.63 1065.54 4082.63 1058.53 4082.63 948.531 4083.63 1058.53 4084.63 877.529 4085.63 932.531 4086.63 948.531 4087.63 1065.54 4088.63 1065.54 4089.63 988.533 4089.63 953.531 4090.63 1065.54 4091.63 1065.54 4092.63 952.531 4093.63 979.532 4094.63 949.531 4095.63 956.532 4095.63 1059.53 4096.63 942.531 4097.63 925.531 4098.63 1065.54 4099.63 1065.54 4100.63 1065.54 4101.63 1065.54 4101.63 970.532 4102.63 908.53 4103.63 911.53 4104.63 1043.53 4105.63 909.53 4106.63 933.531 4107.63 909.53 4108.63 905.53 4108.63 986.533 4109.64 948.531 4110.64 910.53 4111.64 949.531 4112.64 1065.54 4113.64 911.53 4114.64 988.533 4114.64 1065.54 4115.64 1065.54 4116.64 908.53 4117.64 988.533 4118.64 917.53 4119.64 910.53 4120.64 1065.54 4120.64 1065.54 4121.64 1065.54 4122.64 1065.54 4123.64 1065.54 4124.64 1065.54 4125.64 1065.54 4126.64 989.533 4127.64 886.529 4127.64 945.531 4128.64 948.531 4129.64 941.531 4130.64 887.529 4131.64 896.53 4132.64 1065.54 4133.64 1065.54 4133.64 1065.54 4134.64 949.531 4135.64 1065.54 4136.64 897.53 4137.64 1065.54 4138.64 988.533 4139.64 988.533 4139.64 1065.54 4140.64 910.53 4141.64 906.53 4142.64 927.531 4143.64 936.531 4144.64 925.531 4145.64 1031.53 4146.64 1031.53 4146.64 926.531 4147.64 875.529 4148.64 1065.54 4149.64 1065.54 4150.64 1060.53 4151.64 1062.54 4152.64 1065.54 4152.64 984.532 4153.64 937.531 4154.64 879.529 4155.64 897.53 4156.64 913.53 4157.64 851.528 4158.64 914.53 4158.64 1061.54 4159.64 1061.54 4160.64 1065.54 4161.64 981.532 4162.64 1059.53 4163.64 989.533 4164.64 929.531 4164.64 1065.54 4165.64 1065.54 4166.64 946.531 4167.64 1065.54 4168.64 1065.54 4169.64 949.531 4170.64 988.533 4171.64 949.531 4171.64 988.533 4172.64 988.533 4173.64 988.533 4174.64 911.53 4175.64 1063.54 4176.64 933.531 4177.64 1059.53 4177.64 927.531 4178.64 927.531 4179.64 926.531 4180.64 930.531 4181.64 1065.54 4182.64 981.532 4183.64 1065.54 4183.64 955.532 4184.64 1065.54 4185.64 947.531 4186.64 949.531 4187.64 948.531 4188.64 938.531 4189.64 869.529 4190.64 940.531 4190.64 901.53 4191.64 910.53 4192.64 1065.54 4193.64 1065.54 4194.64 1065.54 4195.64 988.533 4196.64 987.533 4196.64 1065.54 4197.64 1063.54 4198.64 1061.54 4199.64 1055.53 4200.64 1062.54 4201.64 1065.54 4202.64 877.529 4202.64 1065.54 4203.64 983.532 4204.64 896.53 4205.64 968.532 4206.64 975.532 4207.64 969.532 4208.64 966.532 4209.64 1065.54 4209.64 909.53 4210.64 901.53 4211.64 863.529 4212.64 905.53 4213.64 925.531 4214.64 1054.53 4215.64 980.532 4215.64 906.53 4216.64 1065.54 4217.64 747.525 4218.64 1064.54 4219.64 847.528 4220.64 1061.54 4221.64 1064.54 4221.64 878.529 4222.64 895.53 4223.64 1062.54 4224.64 855.528 4225.64 1061.54 4226.64 856.528 4227.64 865.529 4228.64 924.531 4228.64 1065.54 4229.64 1065.54 4230.64 1065.54 4231.64 873.529 4232.64 1065.54 4233.64 946.531 4234.64 911.53 4234.64 1050.53 4235.64 908.53 4236.64 1047.53 4237.64 1054.53 4238.64 908.53 4239.64 944.531 4240.64 1065.54 4240.64 988.533 4241.64 987.533 4242.64 986.533 4243.64 989.533 4244.64 806.527 4245.64 1065.54 4246.64 1056.53 4247.64 1060.53 4247.64 892.529 4248.64 898.53 4249.64 944.531 4250.64 936.531 4251.64 1024.53 4252.64 936.531 4253.64 917.53 4253.64 890.529 4254.64 917.53 4255.64 863.529 4256.64 1065.54 4257.64 1065.54 4258.64 1065.54 4259.64 1065.54 4259.64 1065.54 4260.64 1065.54 4261.64 946.531 4262.64 947.531 4263.64 1043.53 4264.64 913.53 4265.64 950.531 4265.64 916.53 4266.64 1065.54 4267.64 1065.54 4268.64 1064.54 4269.64 917.53 4270.64 968.532 4271.64 1065.54 4272.64 1065.54 4272.64 779.526 4273.64 1065.54 4274.64 1065.54 4275.64 1064.54 4276.64 1063.54 4277.64 895.53 4278.64 947.531 4278.64 1064.54 4279.64 948.531 4280.64 902.53 4281.64 1065.54 4282.64 985.533 4283.64 1065.54 4284.64 1065.54 4284.64 882.529 4285.64 1060.53 4286.64 940.531 4287.64 938.531 4288.64 938.531 4289.64 936.531 4290.64 1054.53 4291.64 1057.53 4291.64 978.532 4292.64 1062.54 4293.64 1065.54 4294.64 1064.54 4295.64 1065.54 4296.64 1065.54 4297.64 876.529 4297.64 986.533 4298.64 1052.53 4299.64 982.532 4300.64 946.531 4301.64 908.53 4302.64 908.53 4303.64 975.532 4303.64 1062.54 4304.64 975.532 4305.64 945.531 4306.64 969.532 4307.64 971.532 4308.64 936.531 4309.64 929.531 4310.64 950.531 4310.64 931.531 4311.64 1013.53 4312.64 944.531 4313.64 881.529 4314.64 1063.54 4315.64 1065.54 4316.64 1065.54 4316.64 944.531 4317.64 960.532 4318.64 966.532 4319.64 1033.53 4320.64 948.531 4321.64 962.532 4322.64 969.532 4322.64 1035.53 4323.64 968.532 4324.64 941.531 4325.64 949.531 4326.64 944.531 4327.64 950.531 4328.64 947.531 4329.64 947.531 4329.64 945.531 4330.64 603.52 4331.64 1064.54 4332.64 986.533 4333.64 1065.54 4334.64 987.533 4335.64 874.529 4335.64 877.529 4336.64 949.531 4337.64 940.531 4338.64 945.531 4339.64 965.532 4340.64 958.532 4341.64 1064.54 4341.64 895.53 4342.64 1061.54 4343.64 988.533 4344.64 988.533 4345.64 989.533 4346.64 946.531 4347.64 943.531 4348.64 985.533 4348.64 948.531 4349.64 1063.54 4350.64 1030.53 4351.64 906.53 4352.64 1057.53 4353.64 1065.54 4354.64 879.529 4354.64 922.53 4355.64 1065.54 4356.64 983.532 4357.64 985.533 4358.64 988.533 4359.64 986.533 4360.64 989.533 4360.64 1043.53 4361.64 1065.54 4362.64 906.53 4363.64 1065.54 4364.64 944.531 4365.64 878.529 4366.64 1057.53 4366.64 1050.53 4367.64 910.53 4368.64 1065.54 4369.64 1064.54 4370.64 1065.54 4371.64 1063.54 4372.64 1065.54 4373.64 812.527 4373.64 1065.54 4374.64 891.529 4375.64 892.529 4376.64 988.533 4377.64 1065.54 4378.64 995.533 4379.64 869.529 4379.64 1024.53 4380.64 847.528 4381.64 841.528 4382.64 1034.53 4383.64 1062.54 4384.64 897.53 4385.64 902.53 4385.64 984.532 4386.64 938.531 4387.64 1065.54 4388.64 1065.54 4389.64 1057.53 4390.64 906.53 4391.64 1032.53 4392.64 948.531 4392.64 949.531 4393.64 985.533 4394.64 1065.54 4395.64 868.529 4396.64 903.53 4397.64 1065.54 4398.64 1031.53 4398.64 951.531 4399.64 851.528 4400.64 1061.54 4401.64 1061.54 4402.64 903.53 4403.64 1062.54 4404.64 1061.54 4404.64 1059.53 4405.64 1061.54 4406.64 1062.54 4407.65 1061.54 4408.65 768.525 4409.65 863.529 4410.65 886.529 4411.65 948.531 4411.65 943.531 4412.65 882.529 4413.65 877.529 4414.65 852.528 4415.65 851.528 4416.65 841.528 4417.65 920.53 4417.65 921.53 4418.65 1065.54 4419.65 899.53 4420.65 1065.54 4421.65 988.533 4422.65 989.533 4423.65 909.53 4423.65 909.53 4424.65 907.53 4425.65 943.531 4426.65 988.533 4427.65 989.533 4428.65 800.526 4429.65 935.531 4430.65 1065.54 4430.65 1065.54 4431.65 1064.54 4432.65 904.53 4433.65 986.533 4434.65 1065.54 4435.65 988.533 4436.65 1065.54 4436.65 1063.54 4437.65 902.53 4438.65 940.531 4439.65 934.531 4440.65 886.529 4441.65 1058.53 4442.65 921.53 4442.65 1065.54 4443.65 902.53 4444.65 1064.54 4445.65 1063.54 4446.65 1062.54 4447.65 1065.54 4448.65 898.53 4449.65 1063.54 4449.65 902.53 4450.65 909.53 4451.65 979.532 4452.65 983.532 4453.65 925.531 4454.65 894.53 4455.65 936.531 4455.65 1060.53 4456.65 1061.54 4457.65 988.533 4458.65 988.533 4459.65 1065.54 4460.65 612.52 4461.65 898.53 4461.65 1065.54 4462.65 987.533 4463.65 738.524 4464.65 910.53 4465.65 1065.54 4466.65 988.533 4467.65 989.533 4467.65 910.53 4468.65 948.531 4469.65 988.533 4470.65 880.529 4471.65 988.533 4472.65 948.531 4473.65 1065.54 4474.65 949.531 4474.65 1065.54 4475.65 1051.53 4476.65 947.531 4477.65 948.531 4478.65 1016.53 4479.65 930.531 4480.65 1028.53 4480.65 942.531 4481.65 938.531 4482.65 1064.54 4483.65 1065.54 4484.65 1063.54 4485.65 982.532 4486.65 982.532 4486.65 907.53 4487.65 902.53 4488.65 1044.53 4489.65 1041.53 4490.65 883.529 4491.65 1041.53 4492.65 1061.54 4493.65 949.531 4493.65 882.529 4494.65 923.531 4495.65 867.529 4496.65 1063.54 4497.65 989.533 4498.65 988.533 4499.65 1052.53 4499.65 967.532 4500.65 884.529 4501.65 905.53 4502.65 904.53 4503.65 929.531 4504.65 933.531 4505.65 1065.54 4505.65 868.529 4506.65 982.532 4507.65 984.532 4508.65 982.532 4509.65 948.531 4510.65 1055.53 4511.65 970.532 4512.65 1065.54 4512.65 918.53 4513.65 920.53 4514.65 900.53 4515.65 1030.53 4516.65 907.53 4517.65 1063.54 4518.65 891.529 4518.65 925.531 4519.65 882.529 4520.65 982.532 4521.65 1065.54 4522.65 1065.54 4523.65 987.533 4524.65 987.533 4524.65 960.532 4525.65 986.533 4526.65 910.53 4527.65 946.531 4528.65 883.529 4529.65 916.53 4530.65 1032.53 4531.65 905.53 4531.65 878.529 4532.65 925.531 4533.65 908.53 4534.65 1065.54 4535.65 916.53 4536.65 1064.54 4537.65 1061.54 4537.65 1059.53 4538.65 1065.54 4539.65 1065.54 4540.65 970.532 4541.65 1065.54 4542.65 903.53 4543.65 939.531 4543.65 873.529 4544.65 886.529 4545.65 943.531 4546.65 891.529 4547.65 977.532 4548.65 877.529 4549.65 1065.54 4550.65 1065.54 4550.65 987.533 4551.65 982.532 4552.65 984.532 4553.65 930.531 4554.65 1064.54 4555.65 933.531 4556.65 934.531 4556.65 936.531 4557.65 943.531 4558.65 901.53 4559.65 1065.54 4560.65 1065.54 4561.65 1065.54 4562.65 988.533 4562.65 1064.54 4563.65 930.531 4564.65 1036.53 4565.65 944.531 4566.65 1029.53 4567.65 906.53 4568.65 908.53 4568.65 927.531 4569.65 854.528 4570.65 988.533 4571.65 1065.54 4572.65 1065.54 4573.65 1065.54 4574.65 1065.54 4575.65 1065.54 4575.65 988.533 4576.65 1065.54 4577.65 1036.53 4578.65 933.531 4579.65 877.529 4580.65 922.53 4581.65 1042.53 4581.65 934.531 4582.65 887.529 4583.65 878.529 4584.65 950.531 4585.65 832.527 4586.65 1065.54 4587.65 1065.54 4587.65 1065.54 4588.65 988.533 4589.65 989.533 4590.65 1043.53 4591.65 955.532 4592.65 930.531 4593.65 890.529 4594.65 888.529 4594.65 889.529 4595.65 965.532 4596.65 964.532 4597.65 889.529 4598.65 1061.54 4599.65 1065.54 4600.65 1063.54 4600.65 1065.54 4601.65 1065.54 4602.65 1063.54 4603.65 983.532 4604.65 987.533 4605.65 989.533 4606.65 949.531 4606.65 1062.54 4607.65 1062.54 4608.65 909.53 4609.65 801.526 4610.65 589.52 4611.65 987.533 4612.65 988.533 4613.65 1064.54 4613.65 1065.54 4614.65 909.53 4615.65 940.531 4616.65 1042.53 4617.65 935.531 4618.65 935.531 4619.65 1043.53 4619.65 927.531 4620.65 928.531 4621.65 1049.53 4622.65 1055.53 4623.65 1065.54 4624.65 929.531 4625.65 988.533 4625.65 985.533 4626.65 1065.54 4627.65 1050.53 4628.65 947.531 4629.65 889.529 4630.65 925.531 4631.65 942.531 4632.65 881.529 4632.65 943.531 4633.65 943.531 4634.65 1065.54 4635.65 1065.54 4636.65 881.529 4637.65 844.528 4638.65 845.528 4638.65 1065.54 4639.65 989.533 4640.65 908.53 4641.65 1024.53 4642.65 1025.53 4643.65 903.53 4644.65 1055.53 4644.65 882.529 4645.65 1058.53 4646.65 1059.53 4647.65 1062.54 4648.65 1065.54 4649.65 1065.54 4650.65 989.533 4651.65 982.532 4651.65 981.532 4652.65 979.532 4653.65 891.529 4654.65 934.531 4655.65 904.53 4656.65 1034.53 4657.65 1054.53 4657.65 1061.54 4658.65 981.532 4659.65 957.532 4660.65 984.532 4661.65 905.53 4662.65 944.531 4663.65 947.531 4663.65 940.531 4664.65 1064.54 4665.65 1044.53 4666.65 1058.53 4667.65 1044.53 4668.65 1063.54 4669.65 908.53 4669.65 1027.53 4670.65 1045.53 4671.65 951.531 4672.65 934.531 4673.65 919.53 4674.65 912.53 4675.65 903.53 4676.65 1051.53 4676.65 1052.53 4677.65 960.532 4678.65 960.532 4679.65 879.529 4680.65 1065.54 4681.65 1065.54 4682.65 1065.54 4682.65 1057.53 4683.65 791.526 4684.65 1057.53 4685.65 950.531 4686.65 888.529 4687.65 1065.54 4688.65 1065.54 4688.65 1062.54 4689.65 1063.54 4690.65 908.53 4691.65 987.533 4692.65 1061.54 4693.65 938.531 4694.65 907.53 4695.65 906.53 4695.65 897.53 4696.65 946.531 4697.65 946.531 4698.65 949.531 4699.65 948.531 4700.65 988.533 4701.65 1064.54 4701.65 1065.54 4702.65 1065.54 4703.65 1065.54 4704.65 1065.54 4705.65 1065.54 4706.65 949.531 4707.65 976.532 4707.65 946.531 4708.65 924.531 4709.65 987.533 4710.65 1065.54 4711.65 1047.53 4712.65 1065.54 4713.65 910.53 4714.65 908.53 4714.65 924.531 4715.65 888.529 4716.66 1065.54 4717.66 1065.54 4718.66 924.531 4719.66 1048.53 4720.66 893.53 4720.66 943.531 4721.66 1054.53 4722.66 1065.54 4723.66 889.529 4724.66 879.529 4725.66 963.532 4726.66 1065.54 4726.66 1065.54 4727.66 901.53 4728.66 936.531 4729.66 948.531 4730.66 910.53 4731.66 949.531 4732.66 910.53 4733.66 910.53 4733.66 948.531 4734.66 949.531 4735.66 988.533 4736.66 949.531 4737.66 1065.54 4738.66 1065.54 4739.66 1065.54 4739.66 949.531 4740.66 948.531 4741.66 903.53 4742.66 1065.54 4743.66 910.53 4744.66 947.531 4745.66 948.531 4745.66 1065.54 4746.66 1065.54 4747.66 1065.54 4748.66 988.533 4749.66 988.533 4750.66 1065.54 4751.66 1065.54 4751.66 1065.54 4752.66 988.533 4753.66 1064.54 4754.66 870.529 4755.66 1065.54 4756.66 1065.54 4757.66 1062.54 4758.66 1061.54 4758.66 989.533 4759.66 943.531 4760.66 910.53 4761.66 987.533 4762.66 910.53 4763.66 795.526 4764.66 1031.53 4764.66 864.529 4765.66 949.531 4766.66 1065.54 4767.66 1065.54 4768.66 1059.53 4769.66 948.531 4770.66 1065.54 4770.66 907.53 4771.66 1037.53 4772.66 940.531 4773.66 879.529 4774.66 1065.54 4775.66 937.531 4776.66 988.533 4777.66 989.533 4777.66 1064.54 4778.66 1065.54 4779.66 988.533 4780.66 988.533 4781.66 988.533 4782.66 937.531 4783.66 1065.54 4783.66 987.533 4784.66 1058.53 4785.66 904.53 4786.66 961.532 4787.66 960.532 4788.66 947.531 4789.66 913.53 4789.66 1065.54 4790.66 1054.53 4791.66 1053.53 4792.66 1053.53 4793.66 857.528 4794.66 1065.54 4795.66 943.531 4796.66 943.531 4796.66 947.531 4797.66 881.529 4798.66 904.53 4799.66 1011.53 4800.66 794.526 4801.66 830.527 4802.66 1036.53 4802.66 804.527 4803.66 1065.54 4804.66 1065.54 4805.66 1065.54 4806.66 891.529 4807.66 961.532 4808.66 971.532 4808.66 904.53 4809.66 942.531 4810.66 1065.54 4811.66 1065.54 4812.66 1063.54 4813.66 1065.54 4814.66 894.53 4815.66 978.532 4815.66 1065.54 4816.66 943.531 4817.66 939.531 4818.66 983.532 4819.66 943.531 4820.66 982.532 4821.66 1062.54 4821.66 988.533 4822.66 988.533 4823.66 988.533 4824.66 905.53 4825.66 949.531 4826.66 1037.53 4827.66 1065.54 4827.66 949.531 4828.66 1064.54 4829.66 1064.54 4830.66 846.528 4831.66 942.531 4832.66 1065.54 4833.66 858.528 4834.66 1052.53 4834.66 967.532 4835.66 943.531 4836.66 1018.53 4837.66 1061.54 4838.66 1047.53 4839.66 1044.53 4840.66 899.53 4840.66 862.529 4841.66 865.529 4842.66 1065.54 4843.66 986.533 4844.66 988.533 4845.66 910.53 4846.66 987.533 4846.66 1065.54 4847.66 1060.53 4848.66 1047.53 4849.66 1063.54 4850.66 1065.54 4851.66 933.531 4852.66 900.53 4852.66 1065.54 4853.66 1065.54 4854.66 1065.54 4855.66 1051.53 4856.66 887.529 4857.66 988.533 4858.66 1065.54 4859.66 939.531 4859.66 1065.54 4860.66 948.531 4861.66 957.532 4862.66 1029.53 4863.66 927.531 4864.66 921.53 4865.66 1062.54 4865.66 885.529 4866.66 850.528 4867.66 854.528 4868.66 1065.54 4869.66 1065.54 4870.66 1065.54 4871.66 947.531 4871.66 987.533 4872.66 948.531 4873.66 946.531 4874.66 1065.54 4875.66 892.529 4876.66 1033.53 4877.66 889.529 4878.66 1053.53 4878.66 880.529 4879.66 974.532 4880.66 873.529 4881.66 938.531 4882.66 934.531 4883.66 982.532 4884.66 1065.54 4884.66 1065.54 4885.66 1065.54 4886.66 904.53 4887.66 1065.54 4888.66 910.53 4889.66 1065.54 4890.66 987.533 4890.66 948.531 4891.66 988.533 4892.66 949.531 4893.66 949.531 4894.66 949.531 4895.66 1065.54 4896.66 1065.54 4897.66 1065.54 4897.66 1065.54 4898.66 910.53 4899.66 1063.54 4900.66 1065.54 4901.66 988.533 4902.66 977.532 4903.66 988.533 4903.66 1063.54 4904.66 1065.54 4905.66 908.53 4906.66 1054.53 4907.66 988.533 4908.66 910.53 4909.66 949.531 4909.66 988.533 4910.66 948.531 4911.66 988.533 4912.66 988.533 4913.66 948.531 4914.66 978.532 4915.66 948.531 4916.66 949.531 4916.66 981.532 4917.66 1053.53 4918.66 988.533 4919.66 909.53 4920.66 948.531 4921.66 967.532 4922.66 1065.54 4922.66 948.531 4923.66 1065.54 4924.66 1065.54 4925.66 1065.54 4926.66 944.531 4927.66 947.531 4928.66 944.531 4928.66 1054.53 4929.66 1065.54 4930.66 865.529 4931.66 1058.53 4932.66 915.53 4933.66 934.531 4934.66 1033.53 4935.66 913.53 4935.66 825.527 4936.66 911.53 4937.66 906.53 4938.66 1060.53 4939.66 907.53 4940.66 865.529 4941.66 931.531 4941.66 1063.54 4942.66 1062.54 4943.66 1065.54 4944.66 1054.53 4945.66 988.533 4946.66 910.53 4947.66 949.531 4947.66 988.533 4948.66 948.531 4949.66 988.533 4950.66 988.533 4951.66 948.531 4952.66 978.532 4953.66 948.531 4953.66 949.531 4954.66 981.532 4955.66 1053.53 4956.66 988.533 4957.66 909.53 4958.66 948.531 4959.66 967.532 4960.66 1065.54 4960.66 948.531 4961.66 1065.54 4962.66 1065.54 4963.66 1065.54 4964.66 944.531 4965.66 947.531 4966.66 944.531 4966.66 1054.53 4967.66 1065.54 4968.66 1060.53 4969.66 966.532 4970.66 1023.53 4971.66 1006.53 4972.66 991.533 4972.66 1023.53 4973.66 1041.53 4974.66 1006.53 4975.66 958.532 4976.66 999.533 4977.66 802.526 4978.66 893.53 4979.66 951.531 4979.66 907.53 4980.66 1007.53 4981.66 995.533 4982.66 927.531 4983.66 925.531 4984.66 897.53 4985.66 912.53 4985.66 783.526 4986.66 880.529 4987.66 944.531 4988.66 831.527 4989.66 980.532 4990.66 1034.53 4991.66 791.526 4991.66 784.526 4992.66 802.526 4993.66 922.53 4994.66 864.529 4995.66 975.532 4996.66 818.527 4997.66 920.53 4998.66 908.53 4998.66 858.528 4999.66 799.526 5000.66 1054.53 5001.66 988.533 5002.66 910.53 5003.66 949.531 5004.66 988.533 5004.66 948.531 5005.66 988.533 5006.66 988.533 5007.66 948.531 5008.66 978.532 5009.66 948.531 5010.66 949.531 5010.66 981.532 5011.66 1053.53 5012.67 988.533 5013.67 909.53 5014.67 948.531 5015.67 967.532 5016.67 1065.54 5017.67 948.531 5017.67 1065.54 5018.67 1065.54 5019.67 1065.54 5020.67 944.531 5021.67 947.531 5022.67 944.531 5023.67 1054.53 5023.67 1065.54 5024.67 1000.53 5025.67 831.527 5026.67 1018.53 5027.67 863.529 5028.67 804.527 5029.67 823.527 5029.67 959.532 5030.67 903.53 5031.67 986.533 5032.67 916.53 5033.67 937.531 5034.67 949.531 5035.67 826.527 5036.67 922.53 5036.67 817.527 5037.67 823.527 5038.67 944.531 5039.67 818.527 5040.67 820.527 5041.67 1008.53 5042.67 806.527 5042.67 862.529 5043.67 865.529 5044.67 1022.53 5045.67 856.528 5046.67 801.526 5047.67 799.526 5048.67 994.533 5048.67 1028.53 5049.67 845.528 5050.67 886.529 5051.67 844.528 5052.67 799.526 5053.67 908.53 5054.67 833.528 5054.67 1032.53 5055.67 890.529 5056.67 914.53 5057.67 947.531 5058.67 912.53 5059.67 1004.53 5060.67 1054.53 5061.67 988.533 5061.67 910.53 5062.67 949.531 5063.67 988.533 5064.67 948.531 5065.67 988.533 5066.67 988.533 5067.67 948.531 5067.67 978.532 5068.67 948.531 5069.67 949.531 5070.67 981.532 5071.67 1053.53 5072.67 988.533 5073.67 909.53 5073.67 948.531 5074.67 967.532 5075.67 1065.54 5076.67 948.531 5077.67 1065.54 5078.67 1065.54 5079.67 1065.54 5080.67 944.531 5080.67 947.531 5081.67 944.531 5082.67 1054.53 5083.67 1065.54 5084.67 999.533 5085.67 954.531 5086.67 965.532 5086.67 842.528 5087.67 781.526 5088.67 802.526 5089.67 898.53 5090.67 784.526 5091.67 1021.53 5092.67 910.53 5092.67 834.528 5093.67 880.529 5094.67 934.531 5095.67 888.529 5096.67 991.533 5097.67 1054.53 5098.67 988.533 5099.67 910.53 5099.67 949.531 5100.67 988.533 5101.67 948.531 5102.67 988.533 5103.67 988.533 5104.67 948.531 5105.67 978.532 5105.67 948.531 5106.67 949.531 5107.67 981.532 5108.67 1053.53 5109.67 988.533 5110.67 909.53 5111.67 948.531 5111.67 967.532 5112.67 1065.54 5113.67 948.531 5114.67 1065.54 5115.67 1065.54 5116.67 1065.54 5117.67 944.531 5118.67 947.531 5118.67 944.531 5119.67 1054.53 5120.67 1065.54 5121.67 927.531 5122.67 841.528 5123.67 918.53 5124.67 970.532 5124.67 905.53 5125.67 1009.53 5126.67 1011.53 5127.67 864.529 5128.67 861.528 5129.67 900.53 5130.67 940.531 5130.67 1028.53 5131.67 819.527 5132.67 932.531 5133.67 790.526 5134.67 980.532 5135.67 903.53 5136.67 1001.53 5137.67 982.532 5137.67 955.532 5138.5 826.527" stroke="#4472C4" stroke-width="3.4375" stroke-linecap="round" stroke-linejoin="round" stroke-miterlimit="10" fill="none"/></g><g clip-path="url(#clip6)"><text font-family="LM Roman 10,LM Roman 10_MSFontService,sans-serif" font-weight="700" font-size="64" transform="matrix(1 0 0 1 2630.79 1124)">0</text></g><g clip-path="url(#clip7)"><text font-family="LM Roman 10,LM Roman 10_MSFontService,sans-serif" font-weight="700" font-size="64" transform="matrix(1 0 0 1 2557 1059)">200</text></g><g clip-path="url(#clip8)"><text font-family="LM Roman 10,LM Roman 10_MSFontService,sans-serif" font-weight="700" font-size="64" transform="matrix(1 0 0 1 2557 994)">400</text></g><g clip-path="url(#clip9)"><text font-family="LM Roman 10,LM Roman 10_MSFontService,sans-serif" font-weight="700" font-size="64" transform="matrix(1 0 0 1 2557 929)">600</text></g><g clip-path="url(#clip10)"><text font-family="LM Roman 10,LM Roman 10_MSFontService,sans-serif" font-weight="700" font-size="64" transform="matrix(1 0 0 1 2557 865)">800</text></g><g clip-path="url(#clip11)"><text font-family="LM Roman 10,LM Roman 10_MSFontService,sans-serif" font-weight="700" font-size="64" transform="matrix(1 0 0 1 2520.1 800)">1000</text></g><g clip-path="url(#clip12)"><text font-family="LM Roman 10,LM Roman 10_MSFontService,sans-serif" font-weight="700" font-size="64" transform="matrix(1 0 0 1 2520.1 735)">1200</text></g><g clip-path="url(#clip13)"><text font-family="LM Roman 10,LM Roman 10_MSFontService,sans-serif" font-weight="700" font-size="64" transform="matrix(1 0 0 1 2520.1 670)">1400</text></g><g clip-path="url(#clip14)"><text font-family="LM Roman 10,LM Roman 10_MSFontService,sans-serif" font-weight="700" font-size="64" transform="matrix(1 0 0 1 2520.1 605)">1600</text></g><g clip-path="url(#clip15)"><text font-family="LM Roman 10,LM Roman 10_MSFontService,sans-serif" font-weight="700" font-size="64" transform="matrix(1 0 0 1 2520.1 540)">1800</text></g><g clip-path="url(#clip16)"><text font-family="LM Roman 10,LM Roman 10_MSFontService,sans-serif" font-weight="700" font-size="64" transform="matrix(1 0 0 1 2520.1 476)">2000</text></g><g clip-path="url(#clip17)"><text font-family="LM Roman 10,LM Roman 10_MSFontService,sans-serif" font-weight="700" font-size="50" transform="matrix(0.707107 -0.707107 0.707107 0.707107 2607.26 1328)">00:00:00</text></g><g clip-path="url(#clip18)"><text font-family="LM Roman 10,LM Roman 10_MSFontService,sans-serif" font-weight="700" font-size="50" transform="matrix(0.707107 -0.707107 0.707107 0.707107 2711.71 1328)">00:00:25</text></g><g clip-path="url(#clip19)"><text font-family="LM Roman 10,LM Roman 10_MSFontService,sans-serif" font-weight="700" font-size="50" transform="matrix(0.707107 -0.707107 0.707107 0.707107 2816.17 1328)">00:00:51</text></g><g clip-path="url(#clip20)"><text font-family="LM Roman 10,LM Roman 10_MSFontService,sans-serif" font-weight="700" font-size="50" transform="matrix(0.707107 -0.707107 0.707107 0.707107 2920.62 1328)">00:01:19</text></g><g clip-path="url(#clip21)"><text font-family="LM Roman 10,LM Roman 10_MSFontService,sans-serif" font-weight="700" font-size="50" transform="matrix(0.707107 -0.707107 0.707107 0.707107 3025.08 1328)">00:01:46</text></g><g clip-path="url(#clip22)"><text font-family="LM Roman 10,LM Roman 10_MSFontService,sans-serif" font-weight="700" font-size="50" transform="matrix(0.707107 -0.707107 0.707107 0.707107 3129.53 1328)">00:02:11</text></g><g clip-path="url(#clip23)"><text font-family="LM Roman 10,LM Roman 10_MSFontService,sans-serif" font-weight="700" font-size="50" transform="matrix(0.707107 -0.707107 0.707107 0.707107 3233.99 1328)">00:02:33</text></g><g clip-path="url(#clip24)"><text font-family="LM Roman 10,LM Roman 10_MSFontService,sans-serif" font-weight="700" font-size="50" transform="matrix(0.707107 -0.707107 0.707107 0.707107 3338.45 1328)">00:03:00</text></g><g clip-path="url(#clip25)"><text font-family="LM Roman 10,LM Roman 10_MSFontService,sans-serif" font-weight="700" font-size="50" transform="matrix(0.707107 -0.707107 0.707107 0.707107 3442.9 1328)">00:03:25</text></g><g clip-path="url(#clip26)"><text font-family="LM Roman 10,LM Roman 10_MSFontService,sans-serif" font-weight="700" font-size="50" transform="matrix(0.707107 -0.707107 0.707107 0.707107 3547.36 1328)">00:03:49</text></g><g clip-path="url(#clip27)"><text font-family="LM Roman 10,LM Roman 10_MSFontService,sans-serif" font-weight="700" font-size="50" transform="matrix(0.707107 -0.707107 0.707107 0.707107 3651.81 1328)">00:04:14</text></g><g clip-path="url(#clip28)"><text font-family="LM Roman 10,LM Roman 10_MSFontService,sans-serif" font-weight="700" font-size="50" transform="matrix(0.707107 -0.707107 0.707107 0.707107 3756.27 1328)">00:04:37</text></g><g clip-path="url(#clip29)"><text font-family="LM Roman 10,LM Roman 10_MSFontService,sans-serif" font-weight="700" font-size="50" transform="matrix(0.707107 -0.707107 0.707107 0.707107 3860.72 1328)">00:05:06</text></g><g clip-path="url(#clip30)"><text font-family="LM Roman 10,LM Roman 10_MSFontService,sans-serif" font-weight="700" font-size="50" transform="matrix(0.707107 -0.707107 0.707107 0.707107 3965.18 1328)">00:05:33</text></g><g clip-path="url(#clip31)"><text font-family="LM Roman 10,LM Roman 10_MSFontService,sans-serif" font-weight="700" font-size="50" transform="matrix(0.707107 -0.707107 0.707107 0.707107 4069.63 1328)">00:06:04</text></g><g clip-path="url(#clip32)"><text font-family="LM Roman 10,LM Roman 10_MSFontService,sans-serif" font-weight="700" font-size="50" transform="matrix(0.707107 -0.707107 0.707107 0.707107 4174.09 1328)">00:06:28</text></g><g clip-path="url(#clip33)"><text font-family="LM Roman 10,LM Roman 10_MSFontService,sans-serif" font-weight="700" font-size="50" transform="matrix(0.707107 -0.707107 0.707107 0.707107 4278.54 1328)">00:06:56</text></g><g clip-path="url(#clip34)"><text font-family="LM Roman 10,LM Roman 10_MSFontService,sans-serif" font-weight="700" font-size="50" transform="matrix(0.707107 -0.707107 0.707107 0.707107 4383 1328)">00:07:20</text></g><g clip-path="url(#clip35)"><text font-family="LM Roman 10,LM Roman 10_MSFontService,sans-serif" font-weight="700" font-size="50" transform="matrix(0.707107 -0.707107 0.707107 0.707107 4487.45 1328)">00:07:45</text></g><g clip-path="url(#clip36)"><text font-family="LM Roman 10,LM Roman 10_MSFontService,sans-serif" font-weight="700" font-size="50" transform="matrix(0.707107 -0.707107 0.707107 0.707107 4591.91 1328)">00:08:14</text></g><g clip-path="url(#clip37)"><text font-family="LM Roman 10,LM Roman 10_MSFontService,sans-serif" font-weight="700" font-size="50" transform="matrix(0.707107 -0.707107 0.707107 0.707107 4696.36 1328)">00:08:39</text></g><g clip-path="url(#clip38)"><text font-family="LM Roman 10,LM Roman 10_MSFontService,sans-serif" font-weight="700" font-size="50" transform="matrix(0.707107 -0.707107 0.707107 0.707107 4800.82 1328)">00:09:02</text></g><g clip-path="url(#clip39)"><text font-family="LM Roman 10,LM Roman 10_MSFontService,sans-serif" font-weight="700" font-size="50" transform="matrix(0.707107 -0.707107 0.707107 0.707107 4905.27 1328)">00:09:27</text></g><g clip-path="url(#clip40)"><text font-family="LM Roman 10,LM Roman 10_MSFontService,sans-serif" font-weight="400" font-size="64" transform="matrix(6.12323e-17 -1 1 6.12323e-17 2437 1162)">Czas przetwarzania (ms)</text></g><g clip-path="url(#clip41)"><text font-family="LM Roman 10,LM Roman 10_MSFontService,sans-serif" font-weight="400" font-size="64" transform="matrix(1 0 0 1 3602.67 1470)">Czas trwania ewaluacji</text></g><g clip-path="url(#clip42)"><text font-family="LM Roman 10,LM Roman 10_MSFontService,sans-serif" font-weight="400" font-size="73" transform="matrix(1 0 0 1 2921.88 255)">Interfejs API: C# .NET / Metoda HTTP: DELETE / </text></g><g clip-path="url(#clip43)"><text font-family="LM Roman 10,LM Roman 10_MSFontService,sans-serif" font-weight="400" font-size="73" transform="matrix(1 0 0 1 3521.33 359)">Platforma: Azure</text></g><g clip-path="url(#clip44)"><rect x="2769.5" y="466.5" width="421" height="122" stroke="#D9D9D9" stroke-width="3.4375" stroke-linejoin="round" stroke-miterlimit="10" fill="#FFFFFF"/></g><g clip-path="url(#clip45)"><path d="M2825.5 527.5 2913.5 527.501" stroke="#4472C4" stroke-width="3.4375" stroke-linecap="round" stroke-linejoin="round" stroke-miterlimit="10" fill="none" fill-rule="evenodd"/></g><g clip-path="url(#clip46)"><text font-family="LM Roman 10,LM Roman 10_MSFontService,sans-serif" font-weight="400" font-size="55" transform="matrix(1 0 0 1 2922.67 545)">DELETE</text></g></g></svg>