<svg width="2833" height="1362" xmlns="http://www.w3.org/2000/svg" xmlns:xlink="http://www.w3.org/1999/xlink" xml:space="preserve" overflow="hidden"><defs><clipPath id="clip0"><rect x="2329" y="138" width="2833" height="1362"/></clipPath><clipPath id="clip1"><rect x="2329" y="137" width="2832" height="1363"/></clipPath><clipPath id="clip2"><rect x="2329" y="137" width="2832" height="1363"/></clipPath><clipPath id="clip3"><rect x="2329" y="137" width="2832" height="1363"/></clipPath><clipPath id="clip4"><rect x="2329" y="137" width="2832" height="1363"/></clipPath><clipPath id="clip5"><rect x="2709" y="455" width="2355" height="652"/></clipPath><clipPath id="clip6"><rect x="2329" y="137" width="2832" height="1363"/></clipPath><clipPath id="clip7"><rect x="2329" y="137" width="2832" height="1363"/></clipPath><clipPath id="clip8"><rect x="2329" y="137" width="2832" height="1363"/></clipPath><clipPath id="clip9"><rect x="2329" y="137" width="2832" height="1363"/></clipPath><clipPath id="clip10"><rect x="2329" y="137" width="2832" height="1363"/></clipPath><clipPath id="clip11"><rect x="2329" y="137" width="2832" height="1363"/></clipPath><clipPath id="clip12"><rect x="2329" y="137" width="2832" height="1363"/></clipPath><clipPath id="clip13"><rect x="2329" y="137" width="2832" height="1363"/></clipPath><clipPath id="clip14"><rect x="2329" y="137" width="2832" height="1363"/></clipPath><clipPath id="clip15"><rect x="2329" y="137" width="2832" height="1363"/></clipPath><clipPath id="clip16"><rect x="2329" y="137" width="2832" height="1363"/></clipPath><clipPath id="clip17"><rect x="2329" y="137" width="2832" height="1363"/></clipPath><clipPath id="clip18"><rect x="2329" y="137" width="2832" height="1363"/></clipPath><clipPath id="clip19"><rect x="2329" y="137" width="2832" height="1363"/></clipPath><clipPath id="clip20"><rect x="2329" y="137" width="2832" height="1363"/></clipPath><clipPath id="clip21"><rect x="2329" y="137" width="2832" height="1363"/></clipPath><clipPath id="clip22"><rect x="2329" y="137" width="2832" height="1363"/></clipPath><clipPath id="clip23"><rect x="2329" y="137" width="2832" height="1363"/></clipPath><clipPath id="clip24"><rect x="2329" y="137" width="2832" height="1363"/></clipPath><clipPath id="clip25"><rect x="2329" y="137" width="2832" height="1363"/></clipPath><clipPath id="clip26"><rect x="2329" y="137" width="2832" height="1363"/></clipPath><clipPath id="clip27"><rect x="2329" y="137" width="2832" height="1363"/></clipPath><clipPath id="clip28"><rect x="2329" y="137" width="2832" height="1363"/></clipPath><clipPath id="clip29"><rect x="2329" y="137" width="2832" height="1363"/></clipPath><clipPath id="clip30"><rect x="2329" y="137" width="2832" height="1363"/></clipPath><clipPath id="clip31"><rect x="2329" y="137" width="2832" height="1363"/></clipPath><clipPath id="clip32"><rect x="2329" y="137" width="2832" height="1363"/></clipPath><clipPath id="clip33"><rect x="2329" y="137" width="2832" height="1363"/></clipPath><clipPath id="clip34"><rect x="2329" y="137" width="2832" height="1363"/></clipPath><clipPath id="clip35"><rect x="2329" y="137" width="2832" height="1363"/></clipPath><clipPath id="clip36"><rect x="2329" y="137" width="2832" height="1363"/></clipPath><clipPath id="clip37"><rect x="2329" y="137" width="2832" height="1363"/></clipPath><clipPath id="clip38"><rect x="2329" y="137" width="2832" height="1363"/></clipPath><clipPath id="clip39"><rect x="2329" y="137" width="2832" height="1363"/></clipPath><clipPath id="clip40"><rect x="2329" y="137" width="2832" height="1363"/></clipPath><clipPath id="clip41"><rect x="2329" y="137" width="2832" height="1363"/></clipPath><clipPath id="clip42"><rect x="2329" y="137" width="2832" height="1363"/></clipPath><clipPath id="clip43"><rect x="2329" y="137" width="2832" height="1363"/></clipPath><clipPath id="clip44"><rect x="2329" y="137" width="2832" height="1363"/></clipPath><clipPath id="clip45"><rect x="2329" y="137" width="2832" height="1363"/></clipPath><clipPath id="clip46"><rect x="2329" y="137" width="2832" height="1363"/></clipPath></defs><g clip-path="url(#clip0)" transform="translate(-2329 -138)"><rect x="2329" y="138" width="2833" height="1362" fill="#FFFFFF"/><g clip-path="url(#clip1)"><path d="M2709.5 1071.54 5061.5 1071.54M2709.5 1006.53 5061.5 1006.53M2709.5 941.531 5061.5 941.531M2709.5 876.529 5061.5 876.529M2709.5 811.527 5061.5 811.527M2709.5 747.525 5061.5 747.525M2709.5 682.523 5061.5 682.523M2709.5 617.52 5061.5 617.52M2709.5 552.518 5061.5 552.518M2709.5 487.516 5061.5 487.516" stroke="#F2F2F2" stroke-width="3.4375" stroke-linejoin="round" stroke-miterlimit="10" fill="none"/></g><g clip-path="url(#clip2)"><path d="M2709.5 1038.53 5061.5 1038.53M2709.5 973.532 5061.5 973.532M2709.5 909.53 5061.5 909.53M2709.5 844.528 5061.5 844.528M2709.5 779.526 5061.5 779.526M2709.5 714.524 5061.5 714.524M2709.5 649.521 5061.5 649.521M2709.5 584.519 5061.5 584.519M2709.5 520.517 5061.5 520.517M2709.5 455.5 5061.5 455.5" stroke="#D9D9D9" stroke-width="3.4375" stroke-linejoin="round" stroke-miterlimit="10" fill="none"/></g><g clip-path="url(#clip3)"><rect x="2709.5" y="455.5" width="2352" height="648" stroke="#D9D9D9" stroke-width="3.4375" stroke-linejoin="round" stroke-miterlimit="10" fill="none"/></g><g clip-path="url(#clip4)"><path d="M2709.5 1103.5 5061.5 1103.5" stroke="#D9D9D9" stroke-width="3.4375" stroke-linejoin="round" stroke-miterlimit="10" fill="none" fill-rule="evenodd"/></g><g clip-path="url(#clip5)"><path d="M2709.5 972.532 2710.59 1095.54 2711.59 1089.54 2711.59 910.53 2712.59 1052.53 2713.59 1088.54 2714.59 1090.54 2715.59 1091.54 2716.59 940.531 2717.59 937.531 2717.59 1049.53 2718.59 813.527 2719.59 856.528 2720.59 1046.53 2721.59 1093.54 2722.59 841.528 2722.59 1006.53 2723.59 1085.54 2724.59 823.527 2725.59 808.527 2726.59 935.531 2727.59 1083.54 2728.59 1048.53 2728.59 1040.53 2729.59 1091.54 2730.59 1089.54 2731.59 1089.54 2732.59 991.533 2733.59 1087.54 2733.59 1085.54 2734.59 1088.54 2735.59 1095.54 2736.59 1095.54 2737.59 1094.54 2738.59 997.533 2739.59 1005.53 2739.59 798.526 2740.59 1060.53 2741.59 1060.53 2742.59 1058.53 2743.59 1082.54 2744.59 800.526 2744.59 1075.54 2745.59 1032.53 2746.59 848.528 2747.59 1043.53 2748.59 1082.54 2749.59 1095.54 2749.59 982.532 2750.59 822.527 2751.59 1089.54 2752.59 1045.53 2753.59 899.53 2754.59 962.532 2755.59 1095.54 2755.59 1094.54 2756.59 1052.53 2757.59 865.529 2758.59 1086.54 2759.59 976.532 2760.59 1079.54 2760.59 846.528 2761.59 1072.54 2762.59 957.532 2763.59 1028.53 2764.59 1081.54 2765.59 812.527 2766.59 1021.53 2766.59 910.53 2767.59 941.531 2768.59 799.526 2769.59 797.526 2770.59 869.529 2771.59 996.533 2771.59 900.53 2772.59 1055.53 2773.59 868.529 2774.59 877.529 2775.59 1080.54 2776.59 802.526 2777.59 887.529 2777.59 882.529 2778.59 1086.54 2779.59 1080.54 2780.59 877.529 2781.59 1006.53 2782.59 818.527 2782.59 805.527 2783.59 1046.53 2784.59 797.526 2785.59 1094.54 2786.59 1093.54 2787.59 995.533 2788.59 1091.54 2788.59 1091.54 2789.59 1085.54 2790.59 1056.53 2791.59 814.527 2792.59 855.528 2793.59 976.532 2793.59 888.529 2794.59 825.527 2795.59 1051.53 2796.59 900.53 2797.59 1087.54 2798.59 1093.54 2799.59 948.531 2799.59 1051.53 2800.59 1051.53 2801.59 875.529 2802.59 1055.53 2803.59 1095.54 2804.59 1095.54 2804.59 879.529 2805.59 1094.54 2806.59 886.529 2807.59 1094.54 2808.59 1091.54 2809.59 929.531 2810.59 1093.54 2810.59 1095.54 2811.59 1089.54 2812.59 926.531 2813.59 819.527 2814.59 1054.53 2815.59 819.527 2815.59 1092.54 2816.59 1089.54 2817.59 1089.54 2818.59 1083.54 2819.59 1089.54 2820.59 1006.53 2821.59 1088.54 2821.59 1088.54 2822.59 971.532 2823.59 1030.53 2824.59 1089.54 2825.59 867.529 2826.59 1095.54 2826.59 1089.54 2827.59 1042.53 2828.59 1055.53 2829.59 1041.53 2830.59 1084.54 2831.59 1043.53 2831.59 827.527 2832.59 1049.53 2833.59 862.529 2834.59 1074.54 2835.59 1037.53 2836.59 804.527 2837.59 1087.54 2837.59 1087.54 2838.59 1092.54 2839.59 946.531 2840.59 993.533 2841.59 992.533 2842.59 1054.53 2842.59 1083.54 2843.59 1089.54 2844.59 930.531 2845.59 1094.54 2846.59 1094.54 2847.59 870.529 2848.59 907.53 2848.59 1092.54 2849.59 1091.54 2850.59 1086.54 2851.59 1079.54 2852.59 1089.54 2853.59 1089.54 2853.59 1049.53 2854.59 867.529 2855.59 1085.54 2856.59 1041.53 2857.59 1045.53 2858.59 1054.53 2859.59 854.528 2859.59 1002.53 2860.59 856.528 2861.59 908.53 2862.59 795.526 2863.59 829.527 2864.59 885.529 2864.59 1005.53 2865.59 1094.54 2866.59 942.531 2867.59 1095.54 2868.59 1093.54 2869.59 1087.54 2870.59 779.526 2870.59 1095.54 2871.59 1094.54 2872.59 1090.54 2873.59 924.531 2874.59 1083.54 2875.59 1080.54 2875.59 1078.54 2876.59 1079.54 2877.59 846.528 2878.59 818.527 2879.59 863.529 2880.59 781.526 2881.59 1034.53 2881.59 1086.54 2882.59 1076.54 2883.59 840.528 2884.59 1021.53 2885.59 1083.54 2886.59 1027.53 2886.59 923.53 2887.59 1092.54 2888.59 834.528 2889.59 1031.53 2890.59 1058.53 2891.6 1082.54 2892.6 855.528 2892.6 1046.53 2893.6 1083.54 2894.6 903.53 2895.6 1092.54 2896.6 1077.54 2897.6 1034.53 2897.6 1071.54 2898.6 954.531 2899.6 945.531 2900.6 1016.53 2901.6 1013.53 2902.6 1013.53 2903.6 1081.54 2903.6 1080.54 2904.6 855.528 2905.6 887.529 2906.6 991.533 2907.6 1028.53 2908.6 957.532 2908.6 879.529 2909.6 926.531 2910.6 1055.53 2911.6 1081.54 2912.6 1081.54 2913.6 1081.54 2913.6 999.533 2914.6 865.529 2915.6 1091.54 2916.6 1080.54 2917.6 811.527 2918.6 1080.54 2919.6 1088.54 2919.6 1086.54 2920.6 890.529 2921.6 842.528 2922.6 1089.54 2923.6 1086.54 2924.6 887.529 2924.6 861.528 2925.6 931.531 2926.6 1093.54 2927.6 1041.53 2928.6 1084.54 2929.6 1056.53 2930.6 823.527 2930.6 1077.54 2931.6 972.532 2932.6 834.528 2933.6 885.529 2934.6 1078.54 2935.6 1038.53 2935.6 904.53 2936.6 983.532 2937.6 953.531 2938.6 818.527 2939.6 1094.54 2940.6 830.527 2941.6 1061.54 2941.6 979.532 2942.6 845.528 2943.6 940.531 2944.6 1061.54 2945.6 1061.54 2946.6 1059.53 2946.6 1057.53 2947.6 1095.54 2948.6 1091.54 2949.6 1062.54 2950.6 1058.53 2951.6 916.53 2952.6 1060.53 2952.6 1050.53 2953.6 1095.54 2954.6 1089.54 2955.6 1054.53 2956.6 931.531 2957.6 1095.54 2957.6 1094.54 2958.6 808.527 2959.6 1057.53 2960.6 957.532 2961.6 1085.54 2962.6 1079.54 2963.6 884.529 2963.6 1078.54 2964.6 1073.54 2965.6 1048.53 2966.6 1092.54 2967.6 1090.54 2968.6 1091.54 2968.6 858.528 2969.6 1095.54 2970.6 1081.54 2971.6 905.53 2972.6 1034.53 2973.6 1089.54 2974.6 1081.54 2974.6 985.533 2975.6 1053.53 2976.6 1080.54 2977.6 920.53 2978.6 1088.54 2979.6 1040.53 2979.6 1095.54 2980.6 1094.54 2981.6 1039.53 2982.6 792.526 2983.6 998.533 2984.6 836.528 2985.6 1025.53 2985.6 898.53 2986.6 793.526 2987.6 970.532 2988.6 1082.54 2989.6 996.533 2990.6 1034.53 2990.6 1052.53 2991.6 1052.53 2992.6 933.531 2993.6 841.528 2994.6 847.528 2995.6 869.529 2995.6 1092.54 2996.6 946.531 2997.6 1093.54 2998.6 920.53 2999.6 1040.53 3000.6 796.526 3001.6 896.53 3001.6 1049.53 3002.6 928.531 3003.6 896.53 3004.6 984.532 3005.6 1051.53 3006.6 1076.54 3006.6 914.53 3007.6 1094.54 3008.6 1094.54 3009.6 1094.54 3010.6 902.53 3011.6 956.532 3012.6 1094.54 3012.6 942.531 3013.6 988.533 3014.6 889.529 3015.6 1058.53 3016.6 972.532 3017.6 1062.54 3017.6 886.529 3018.6 920.53 3019.6 1095.54 3020.6 1001.53 3021.6 795.526 3022.6 791.526 3023.6 1094.54 3023.6 1089.54 3024.6 1086.54 3025.6 1088.54 3026.6 1062.54 3027.6 1088.54 3028.6 1086.54 3028.6 1092.54 3029.6 929.531 3030.6 1090.54 3031.6 971.532 3032.6 847.528 3033.6 1086.54 3034.6 995.533 3034.6 1082.54 3035.6 1078.54 3036.6 1080.54 3037.6 1082.54 3038.6 826.527 3039.6 821.527 3039.6 1019.53 3040.6 1061.54 3041.6 788.526 3042.6 1091.54 3043.6 1056.53 3044.6 939.531 3045.6 947.531 3045.6 1078.54 3046.6 1091.54 3047.6 963.532 3048.6 1086.54 3049.6 864.529 3050.6 954.531 3050.6 1088.54 3051.6 1077.54 3052.6 1050.53 3053.6 961.532 3054.6 1072.54 3055.6 1083.54 3056.6 965.532 3056.6 939.531 3057.6 879.529 3058.6 1031.53 3059.6 1026.53 3060.6 1025.53 3061.6 980.532 3061.6 978.532 3062.6 1037.53 3063.6 996.533 3064.6 1088.54 3065.6 1082.54 3066.6 932.531 3067.6 923.53 3067.6 782.526 3068.6 820.527 3069.6 1078.54 3070.6 1083.54 3071.6 973.532 3072.6 1024.53 3072.6 1037.53 3073.6 1091.54 3074.6 792.526 3075.6 1087.54 3076.6 814.527 3077.6 860.528 3078.6 1092.54 3078.6 1049.53 3079.6 1048.53 3080.6 979.532 3081.6 967.532 3082.6 1088.54 3083.6 1091.54 3083.6 830.527 3084.6 1046.53 3085.6 870.529 3086.6 1039.53 3087.6 939.531 3088.6 1044.53 3088.6 994.533 3089.6 933.531 3090.6 988.533 3091.6 815.527 3092.6 1095.54 3093.6 1095.54 3094.6 1095.54 3094.6 788.526 3095.6 1056.53 3096.6 1094.54 3097.6 892.529 3098.6 841.528 3099.6 1094.54 3099.6 1001.53 3100.6 1094.54 3101.6 887.529 3102.6 1092.54 3103.6 970.532 3104.6 870.529 3105.6 1095.54 3105.6 1094.54 3106.6 1085.54 3107.6 1092.54 3108.6 810.527 3109.6 880.529 3110.6 1094.54 3110.6 1082.54 3111.6 991.533 3112.6 1094.54 3113.6 1054.53 3114.6 1058.53 3115.6 1055.53 3116.6 838.528 3116.6 1082.54 3117.6 1091.54 3118.6 785.526 3119.6 1088.54 3120.6 1085.54 3121.6 952.531 3121.6 1080.54 3122.6 1083.54 3123.6 1080.54 3124.6 817.527 3125.6 1082.54 3126.6 1051.53 3127.6 1070.54 3127.6 1077.54 3128.6 1027.53 3129.6 1090.54 3130.6 1029.53 3131.6 1089.54 3132.6 958.532 3132.6 1086.54 3133.6 1093.54 3134.6 859.528 3135.6 1092.54 3136.6 820.527 3137.6 1049.53 3138.6 1053.53 3138.6 1088.54 3139.6 1051.53 3140.6 1049.53 3141.6 897.53 3142.6 1044.53 3143.6 1004.53 3143.6 1062.54 3144.6 791.526 3145.6 927.531 3146.6 984.532 3147.6 1050.53 3148.6 1084.54 3149.6 1085.54 3149.6 1091.54 3150.6 1090.54 3151.6 1039.53 3152.6 1091.54 3153.6 786.526 3154.6 938.531 3154.6 1084.54 3155.6 1050.53 3156.6 1048.53 3157.6 1047.53 3158.6 1084.54 3159.6 1085.54 3160.6 1044.53 3160.6 867.529 3161.6 961.532 3162.6 985.533 3163.6 1045.53 3164.6 1086.54 3165.6 1078.54 3165.6 895.53 3166.6 926.531 3167.6 1036.53 3168.6 980.532 3169.6 1046.53 3170.6 945.531 3170.6 1051.53 3171.6 781.526 3172.6 955.532 3173.6 1095.54 3174.6 943.531 3175.6 1058.53 3176.6 1095.54 3176.6 1094.54 3177.6 1062.54 3178.6 1060.53 3179.6 820.527 3180.6 817.527 3181.6 940.531 3181.6 1094.54 3182.6 1095.54 3183.6 1002.53 3184.6 912.53 3185.6 1084.54 3186.6 1060.53 3187.6 1073.54 3187.6 1077.54 3188.6 1000.53 3189.6 793.526 3190.6 1094.54 3191.6 919.53 3192.6 1054.53 3192.6 1048.53 3193.6 906.53 3194.6 781.526 3195.6 987.533 3196.6 1095.54 3197.61 1095.54 3198.61 1094.54 3198.61 982.532 3199.61 799.526 3200.61 1082.54 3201.61 1058.53 3202.61 1057.53 3203.61 1046.53 3203.61 1002.53 3204.61 884.529 3205.61 1091.54 3206.61 988.533 3207.61 1087.54 3208.61 1080.54 3209.61 837.528 3209.61 809.527 3210.61 1075.54 3211.61 916.53 3212.61 1094.54 3213.61 1094.54 3214.61 902.53 3214.61 1001.53 3215.61 819.527 3216.61 972.532 3217.61 1049.53 3218.61 1087.54 3219.61 843.528 3220.61 1083.54 3220.61 889.529 3221.61 982.532 3222.61 1095.54 3223.61 1088.54 3224.61 1080.54 3225.61 1076.54 3225.61 818.527 3226.61 1075.54 3227.61 942.531 3228.61 1041.53 3229.61 933.531 3230.61 1085.54 3231.61 998.533 3231.61 1083.54 3232.61 1092.54 3233.61 991.533 3234.61 1081.54 3235.61 905.53 3236.61 1094.54 3236.61 808.527 3237.61 1091.54 3238.61 873.529 3239.61 909.53 3240.61 996.533 3241.61 1076.54 3242.61 1054.53 3242.61 916.53 3243.61 962.532 3244.61 937.531 3245.61 1042.53 3246.61 841.528 3247.61 906.53 3247.61 1051.53 3248.61 901.53 3249.61 1047.53 3250.61 782.526 3251.61 1063.54 3252.61 991.533 3252.61 975.532 3253.61 910.53 3254.61 978.532 3255.61 1003.53 3256.61 977.532 3257.61 1092.54 3258.61 865.529 3258.61 974.532 3259.61 820.527 3260.61 841.528 3261.61 1060.53 3262.61 993.533 3263.61 1093.54 3263.61 1095.54 3264.61 855.528 3265.61 1059.53 3266.61 1093.54 3267.61 871.529 3268.61 1058.53 3269.61 1060.53 3269.61 1094.54 3270.61 1091.54 3271.61 1090.54 3272.61 1063.54 3273.61 1060.53 3274.61 1095.54 3274.61 893.529 3275.61 1093.54 3276.61 966.532 3277.61 1045.53 3278.61 1092.54 3279.61 1094.54 3280.61 1060.53 3280.61 1058.53 3281.61 803.527 3282.61 899.53 3283.61 1095.54 3284.61 1053.53 3285.61 1095.54 3285.61 839.528 3286.61 1094.54 3287.61 1094.54 3288.61 1095.54 3289.61 1095.54 3290.61 971.532 3291.61 833.528 3291.61 964.532 3292.61 1095.54 3293.61 1095.54 3294.61 1094.54 3295.61 1089.54 3296.61 1094.54 3296.61 1061.54 3297.61 1095.54 3298.61 1090.54 3299.61 1051.53 3300.61 837.528 3301.61 1083.54 3302.61 1047.53 3302.61 1043.53 3303.61 1058.53 3304.61 1025.53 3305.61 1093.54 3306.61 1088.54 3307.61 1089.54 3307.61 795.526 3308.61 854.528 3309.61 1082.54 3310.61 979.532 3311.61 960.532 3312.61 896.53 3313.61 1041.53 3313.61 857.528 3314.61 1096.54 3315.61 956.532 3316.61 1095.54 3317.61 1059.53 3318.61 1060.53 3318.61 1060.53 3319.61 1056.53 3320.61 1077.54 3321.61 1082.54 3322.61 1079.54 3323.61 832.527 3324.61 876.529 3324.61 808.527 3325.61 1095.54 3326.61 1034.53 3327.61 1094.54 3328.61 1093.54 3329.61 932.531 3329.61 1064.54 3330.61 897.53 3331.61 894.53 3332.61 801.526 3333.61 1059.53 3334.61 889.529 3334.61 1095.54 3335.61 964.532 3336.61 908.53 3337.61 1095.54 3338.61 855.528 3339.61 829.527 3340.61 1094.54 3340.61 1088.54 3341.61 1094.54 3342.61 1095.54 3343.61 938.531 3344.61 889.529 3345.61 819.527 3345.61 858.528 3346.61 925.531 3347.61 1094.54 3348.61 904.53 3349.61 1095.54 3350.61 1095.54 3351.61 1094.54 3351.61 865.529 3352.61 891.529 3353.61 1095.54 3354.61 1063.54 3355.61 1094.54 3356.61 1051.53 3356.61 1087.54 3357.61 1062.54 3358.61 1094.54 3359.61 886.529 3360.61 1095.54 3361.61 1061.54 3362.61 788.526 3362.61 1091.54 3363.61 1058.53 3364.61 1087.54 3365.61 782.526 3366.61 1096.54 3367.61 996.533 3367.61 1057.53 3368.61 933.531 3369.61 862.529 3370.61 1095.54 3371.61 1095.54 3372.61 956.532 3373.61 1094.54 3373.61 951.531 3374.61 1095.54 3375.61 1095.54 3376.61 1094.54 3377.61 1093.54 3378.61 1056.53 3378.61 887.529 3379.61 870.529 3380.61 910.53 3381.61 1058.53 3382.61 1057.53 3383.61 1060.53 3384.61 1094.54 3384.61 1094.54 3385.61 897.53 3386.61 1095.54 3387.61 1092.54 3388.61 950.531 3389.61 1094.54 3389.61 897.53 3390.61 793.526 3391.61 1095.54 3392.61 1094.54 3393.61 1095.54 3394.61 1094.54 3395.61 1057.53 3395.61 1056.53 3396.61 1096.54 3397.61 1095.54 3398.61 787.526 3399.61 780.526 3400.61 835.528 3400.61 1093.54 3401.61 994.533 3402.61 1060.53 3403.61 789.526 3404.61 1054.53 3405.61 1096.54 3406.61 953.531 3406.61 1091.54 3407.61 1095.54 3408.61 1095.54 3409.61 1060.53 3410.61 1095.54 3411.61 1094.54 3411.61 829.527 3412.61 953.531 3413.61 1095.54 3414.61 1057.53 3415.61 955.532 3416.61 811.527 3417.61 1059.53 3417.61 823.527 3418.61 969.532 3419.61 830.527 3420.61 1059.53 3421.61 962.532 3422.61 915.53 3422.61 1095.54 3423.61 1060.53 3424.61 1094.54 3425.61 926.531 3426.61 1090.54 3427.61 975.532 3427.61 808.527 3428.61 1060.53 3429.61 1057.53 3430.61 1061.54 3431.61 1057.53 3432.61 889.529 3433.61 1094.54 3433.61 983.532 3434.61 1095.54 3435.61 1060.53 3436.61 793.526 3437.61 1094.54 3438.61 1085.54 3438.61 1094.54 3439.61 782.526 3440.61 1059.53 3441.61 781.526 3442.61 907.53 3443.61 1087.54 3444.61 1095.54 3444.61 976.532 3445.61 1088.54 3446.61 1088.54 3447.61 862.529 3448.61 820.527 3449.61 1089.54 3449.61 1001.53 3450.61 1088.54 3451.61 1083.54 3452.61 977.532 3453.61 817.527 3454.61 992.533 3455.61 819.527 3455.61 1070.54 3456.61 976.532 3457.61 990.533 3458.61 1057.53 3459.61 1054.53 3460.61 1051.53 3460.61 851.528 3461.61 1072.54 3462.61 1000.53 3463.61 840.528 3464.61 1088.54 3465.61 1093.54 3466.61 822.527 3466.61 1084.54 3467.61 1082.54 3468.61 1078.54 3469.61 965.532 3470.61 1047.53 3471.61 1035.53 3471.61 1089.54 3472.61 988.533 3473.61 1042.53 3474.61 1071.54 3475.61 1045.53 3476.61 858.528 3477.61 1037.53 3477.61 937.531 3478.61 1080.54 3479.61 1079.54 3480.61 993.533 3481.61 921.53 3482.61 906.53 3482.61 915.53 3483.61 935.531 3484.61 1022.53 3485.61 1085.54 3486.61 993.533 3487.61 1087.54 3488.61 1085.54 3488.61 883.529 3489.61 1088.54 3490.61 1040.53 3491.61 1083.54 3492.61 936.531 3493.61 1042.53 3493.61 1036.53 3494.61 1081.54 3495.61 956.532 3496.61 1080.54 3497.61 784.526 3498.61 953.531 3499.61 867.529 3499.61 840.528 3500.62 1094.54 3501.62 959.532 3502.62 969.532 3503.62 1095.54 3504.62 870.529 3504.62 1093.54 3505.62 986.533 3506.62 885.529 3507.62 821.527 3508.62 1093.54 3509.62 1083.54 3509.62 1062.54 3510.62 1081.54 3511.62 1053.53 3512.62 840.528 3513.62 1094.54 3514.62 1093.54 3515.62 1088.54 3515.62 1049.53 3516.62 829.527 3517.62 1094.54 3518.62 913.53 3519.62 1095.54 3520.62 915.53 3520.62 968.532 3521.62 1092.54 3522.62 1096.54 3523.62 794.526 3524.62 1088.54 3525.62 855.528 3526.62 971.532 3526.62 963.532 3527.62 1051.53 3528.62 1059.53 3529.62 872.529 3530.62 787.526 3531.62 1089.54 3531.62 837.528 3532.62 1056.53 3533.62 1087.54 3534.62 949.531 3535.62 1044.53 3536.62 839.528 3537.62 1080.54 3537.62 1048.53 3538.62 1051.53 3539.62 1096.54 3540.62 1093.54 3541.62 888.529 3542.62 874.529 3542.62 1089.54 3543.62 1087.54 3544.62 1084.54 3545.62 836.528 3546.62 1042.53 3547.62 1086.54 3548.62 890.529 3548.62 941.531 3549.62 984.532 3550.62 1038.53 3551.62 1043.53 3552.62 1090.54 3553.62 1090.54 3553.62 1038.53 3554.62 919.53 3555.62 952.531 3556.62 860.528 3557.62 1092.54 3558.62 1090.54 3559.62 1092.54 3559.62 1043.53 3560.62 902.53 3561.62 1090.54 3562.62 1089.54 3563.62 1095.54 3564.62 1050.53 3564.62 917.53 3565.62 1093.54 3566.62 1089.54 3567.62 1088.54 3568.62 902.53 3569.62 1043.53 3570.62 1083.54 3570.62 1082.54 3571.62 1051.53 3572.62 1050.53 3573.62 844.528 3574.62 819.527 3575.62 1061.54 3575.62 936.531 3576.62 1059.53 3577.62 1060.53 3578.62 1093.54 3579.62 1093.54 3580.62 1094.54 3581.62 967.532 3581.62 1059.53 3582.62 909.53 3583.62 1094.54 3584.62 1095.54 3585.62 1094.54 3586.62 1089.54 3586.62 1059.53 3587.62 1095.54 3588.62 1094.54 3589.62 987.533 3590.62 987.533 3591.62 1094.54 3591.62 900.53 3592.62 1060.53 3593.62 1091.54 3594.62 1062.54 3595.62 1060.53 3596.62 1089.54 3597.62 1059.53 3597.62 1095.54 3598.62 1093.54 3599.62 1054.53 3600.62 805.527 3601.62 821.527 3602.62 1081.54 3602.62 1058.53 3603.62 1093.54 3604.62 1092.54 3605.62 953.531 3606.62 833.528 3607.62 1052.53 3608.62 1055.53 3608.62 920.53 3609.62 1052.53 3610.62 1046.53 3611.62 981.532 3612.62 1095.54 3613.62 860.528 3613.62 952.531 3614.62 1089.54 3615.62 802.526 3616.62 1075.54 3617.62 1095.54 3618.62 1085.54 3619.62 1090.54 3619.62 962.532 3620.62 1093.54 3621.62 1048.53 3622.62 993.533 3623.62 1079.54 3624.62 1092.54 3624.62 1049.53 3625.62 903.53 3626.62 1093.54 3627.62 1044.53 3628.62 1090.54 3629.62 972.532 3630.62 983.532 3630.62 1084.54 3631.62 934.531 3632.62 945.531 3633.62 880.529 3634.62 1089.54 3635.62 1048.53 3635.62 1059.53 3636.62 924.531 3637.62 795.526 3638.62 925.531 3639.62 1095.54 3640.62 1063.54 3641.62 931.531 3641.62 1056.53 3642.62 1093.54 3643.62 918.53 3644.62 953.531 3645.62 944.531 3646.62 1060.53 3646.62 1094.54 3647.62 1092.54 3648.62 779.526 3649.62 939.531 3650.62 820.527 3651.62 1094.54 3652.62 1094.54 3652.62 1058.53 3653.62 856.528 3654.62 1094.54 3655.62 897.53 3656.62 837.528 3657.62 1059.53 3657.62 983.532 3658.62 1094.54 3659.62 1094.54 3660.62 1094.54 3661.62 1094.54 3662.62 1051.53 3663.62 1094.54 3663.62 994.533 3664.62 1044.53 3665.62 898.53 3666.62 975.532 3667.62 893.529 3668.62 925.531 3668.62 1058.53 3669.62 805.527 3670.62 1094.54 3671.62 1058.53 3672.62 1094.54 3673.62 912.53 3673.62 1059.53 3674.62 1059.53 3675.62 834.528 3676.62 1056.53 3677.62 1094.54 3678.62 961.532 3679.62 1058.53 3679.62 1089.54 3680.62 1095.54 3681.62 1005.53 3682.62 1091.54 3683.62 1094.54 3684.62 845.528 3684.62 1094.54 3685.62 901.53 3686.62 841.528 3687.62 1094.54 3688.62 1094.54 3689.62 853.528 3690.62 1058.53 3690.62 976.532 3691.62 825.527 3692.62 974.532 3693.62 1094.54 3694.62 1102.5 3695.62 1094.54 3695.62 931.531 3696.62 785.526 3697.62 1089.54 3698.62 967.532 3699.62 1094.54 3700.62 918.53 3701.62 1095.54 3701.62 897.53 3702.62 1052.53 3703.62 980.532 3704.62 293.51 3705.62 1051.53 3706.62 1093.54 3706.62 1094.54 3707.62 1056.53 3708.62 1094.54 3709.62 1094.54 3710.62 1095.54 3711.62 1084.54 3712.62 1059.53 3712.62 975.532 3713.62 833.528 3714.62 979.532 3715.62 1095.54 3716.62 1083.54 3717.62 1095.54 3717.62 1058.53 3718.62 1095.54 3719.62 1059.53 3720.62 1094.54 3721.62 784.526 3722.62 865.529 3723.62 1095.54 3723.62 1095.54 3724.62 989.533 3725.62 1095.54 3726.62 1061.54 3727.62 1094.54 3728.62 1063.54 3728.62 830.527 3729.62 1059.53 3730.62 1059.53 3731.62 888.529 3732.62 1095.54 3733.62 1059.53 3734.62 1092.54 3734.62 977.532 3735.62 1092.54 3736.62 1094.54 3737.62 1003.53 3738.62 871.529 3739.62 1060.53 3739.62 1095.54 3740.62 834.528 3741.62 822.527 3742.62 1058.53 3743.62 1096.54 3744.62 990.533 3745.62 1093.54 3745.62 1095.54 3746.62 813.527 3747.62 1095.54 3748.62 1095.54 3749.62 939.531 3750.62 1063.54 3750.62 913.53 3751.62 787.526 3752.62 979.532 3753.62 854.528 3754.62 1059.53 3755.62 806.527 3756.62 887.529 3756.62 1059.53 3757.62 878.529 3758.62 831.527 3759.62 1063.54 3760.62 794.526 3761.62 1088.54 3761.62 1062.54 3762.62 1094.54 3763.62 911.53 3764.62 1088.54 3765.62 880.529 3766.62 1095.54 3766.62 1059.53 3767.62 833.528 3768.62 1063.54 3769.62 1052.53 3770.62 1094.54 3771.62 1095.54 3772.62 978.532 3772.62 1059.53 3773.62 875.529 3774.62 935.531 3775.62 982.532 3776.62 995.533 3777.62 1095.54 3777.62 900.53 3778.62 959.532 3779.62 1095.54 3780.62 873.529 3781.62 1095.54 3782.62 1059.53 3783.62 949.531 3783.62 1062.54 3784.62 1095.54 3785.62 812.527 3786.62 878.529 3787.62 1095.54 3788.62 1094.54 3788.62 782.526 3789.62 1059.53 3790.62 1093.54 3791.62 1095.54 3792.62 1094.54 3793.62 1096.54 3794.62 865.529 3794.62 920.53 3795.62 195.507 3796.62 867.529 3797.62 1094.54 3798.62 913.53 3799.62 1094.54 3799.62 1095.54 3800.62 1094.54 3801.62 1096.54 3802.62 945.531 3803.62 1061.54 3804.62 901.53 3805.62 852.528 3805.62 1095.54 3806.62 1095.54 3807.62 941.531 3808.63 1095.54 3809.63 1003.53 3810.63 823.527 3810.63 789.526 3811.63 1093.54 3812.63 1094.54 3813.63 1084.54 3814.63 1095.54 3815.63 891.529 3816.63 1094.54 3816.63 912.53 3817.63 1064.54 3818.63 998.533 3819.63 891.529 3820.63 922.53 3821.63 1095.54 3821.63 871.529 3822.63 1095.54 3823.63 960.532 3824.63 910.53 3825.63 1063.54 3826.63 865.529 3827.63 1060.53 3827.63 860.528 3828.63 848.528 3829.63 1095.54 3830.63 1096.54 3831.63 1063.54 3832.63 1094.54 3832.63 1094.54 3833.63 1095.54 3834.63 1060.53 3835.63 1095.54 3836.63 1062.54 3837.63 933.531 3838.63 818.527 3838.63 840.528 3839.63 1094.54 3840.63 1095.54 3841.63 884.529 3842.63 1095.54 3843.63 1052.53 3843.63 1063.54 3844.63 1095.54 3845.63 1095.54 3846.63 1059.53 3847.63 1096.54 3848.63 853.528 3848.63 1095.54 3849.63 950.531 3850.63 792.526 3851.63 1096.54 3852.63 1061.54 3853.63 1060.53 3854.63 1094.54 3854.63 995.533 3855.63 868.529 3856.63 945.531 3857.63 1051.53 3858.63 960.532 3859.63 943.531 3859.63 1063.54 3860.63 946.531 3861.63 877.529 3862.63 794.526 3863.63 1095.54 3864.63 1060.53 3865.63 948.531 3865.63 1094.54 3866.63 937.531 3867.63 1095.54 3868.63 1095.54 3869.63 892.529 3870.63 1046.53 3870.63 1095.54 3871.63 1058.53 3872.63 797.526 3873.63 1096.54 3874.63 938.531 3875.63 1064.54 3876.63 1061.54 3876.63 1002.53 3877.63 1096.54 3878.63 903.53 3879.63 836.528 3880.63 917.53 3881.63 1062.54 3881.63 861.528 3882.63 826.527 3883.63 1095.54 3884.63 1062.54 3885.63 923.53 3886.63 1059.53 3887.63 908.53 3887.63 827.527 3888.63 1063.54 3889.63 1094.54 3890.63 788.526 3891.63 1060.53 3892.63 787.526 3892.63 840.528 3893.63 1096.54 3894.63 940.531 3895.63 868.529 3896.63 1059.53 3897.63 872.529 3898.63 1061.54 3898.63 1094.54 3899.63 873.529 3900.63 1094.54 3901.63 1058.53 3902.63 895.53 3903.63 1094.54 3903.63 1096.54 3904.63 960.532 3905.63 1060.53 3906.63 1095.54 3907.63 1090.54 3908.63 854.528 3909.63 924.531 3909.63 1094.54 3910.63 1095.54 3911.63 779.526 3912.63 1060.53 3913.63 1062.54 3914.63 1060.53 3914.63 1094.54 3915.63 936.531 3916.63 1034.53 3917.63 1094.54 3918.63 882.529 3919.63 1056.53 3920.63 1059.53 3920.63 1094.54 3921.63 927.531 3922.63 1094.54 3923.63 1094.54 3924.63 1059.53 3925.63 1092.54 3925.63 1094.54 3926.63 1059.53 3927.63 998.533 3928.63 1094.54 3929.63 889.529 3930.63 915.53 3930.63 926.531 3931.63 965.532 3932.63 174.506 3933.63 810.527 3934.63 1059.53 3935.63 796.526 3936.63 1077.54 3936.63 1094.54 3937.63 983.532 3938.63 1095.54 3939.63 976.532 3940.63 1094.54 3941.63 1059.53 3941.63 1094.54 3942.63 813.527 3943.63 1057.53 3944.63 785.526 3945.63 1093.54 3946.63 822.527 3947.63 1094.54 3947.63 902.53 3948.63 1095.54 3949.63 1094.54 3950.63 935.531 3951.63 1095.54 3952.63 888.529 3952.63 1074.54 3953.63 1094.54 3954.63 1094.54 3955.63 1058.53 3956.63 1093.54 3957.63 882.529 3958.63 1095.54 3958.63 994.533 3959.63 1074.54 3960.63 902.53 3961.63 1093.54 3962.63 853.528 3963.63 847.528 3963.63 1094.54 3964.63 797.526 3965.63 1094.54 3966.63 839.528 3967.63 1060.53 3968.63 1091.54 3969.63 1059.53 3969.63 1095.54 3970.63 1094.54 3971.63 1094.54 3972.63 1059.53 3973.63 1093.54 3974.63 911.53 3974.63 832.527 3975.63 1058.53 3976.63 854.528 3977.63 1004.53 3978.63 868.529 3979.63 1058.53 3980.63 1094.54 3980.63 1094.54 3981.63 1095.54 3982.63 877.529 3983.63 1095.54 3984.63 1058.53 3985.63 1060.53 3985.63 1064.54 3986.63 1094.54 3987.63 920.53 3988.63 947.531 3989.63 804.527 3990.63 795.526 3991.63 1063.54 3991.63 1059.53 3992.63 881.529 3993.63 1006.53 3994.63 944.531 3995.63 1094.54 3996.63 1095.54 3996.63 928.531 3997.63 1062.54 3998.63 1089.54 3999.63 1060.53 4000.63 1094.54 4001.63 787.526 4002.63 794.526 4002.63 783.526 4003.63 1094.54 4004.63 1051.53 4005.63 1095.54 4006.63 949.531 4007.63 1094.54 4007.63 1091.54 4008.63 1094.54 4009.63 173.506 4010.63 965.532 4011.63 1094.54 4012.63 1096.54 4012.63 1094.54 4013.63 1095.54 4014.63 1063.54 4015.63 1087.54 4016.63 1094.54 4017.63 1060.53 4018.63 1094.54 4018.63 961.532 4019.63 1058.53 4020.63 1094.54 4021.63 882.529 4022.63 1094.54 4023.63 1059.53 4023.63 805.527 4024.63 1094.54 4025.63 1095.54 4026.63 846.528 4027.63 1094.54 4028.63 866.529 4029.63 783.526 4029.63 887.529 4030.63 1092.54 4031.63 1059.53 4032.63 844.528 4033.63 1094.54 4034.63 816.527 4034.63 1094.54 4035.63 1055.53 4036.63 1061.54 4037.63 912.53 4038.63 1094.54 4039.63 976.532 4040.63 824.527 4040.63 1094.54 4041.63 1059.53 4042.63 951.531 4043.63 895.53 4044.63 1095.54 4045.63 1094.54 4045.63 985.533 4046.63 821.527 4047.63 1063.54 4048.63 1052.53 4049.63 1092.54 4050.63 909.53 4051.63 1094.54 4051.63 919.53 4052.63 1054.53 4053.63 1093.54 4054.63 1094.54 4055.63 1095.54 4056.63 1094.54 4056.63 1058.53 4057.63 983.532 4058.63 1093.54 4059.63 842.528 4060.63 1063.54 4061.63 883.529 4062.63 1060.53 4062.63 1060.53 4063.63 796.526 4064.63 836.528 4065.63 1059.53 4066.63 802.526 4067.63 1094.54 4067.63 1057.53 4068.63 1094.54 4069.63 1059.53 4070.63 1059.53 4071.63 921.53 4072.63 924.531 4073.63 1094.54 4073.63 1094.54 4074.63 898.53 4075.63 1094.54 4076.63 1059.53 4077.63 1059.53 4078.63 1059.53 4078.63 794.526 4079.63 998.533 4080.63 862.529 4081.63 1085.54 4082.63 1054.53 4083.63 841.528 4084.63 1051.53 4084.63 867.529 4085.63 870.529 4086.63 1095.54 4087.63 894.53 4088.63 167.506 4089.63 1095.54 4089.63 1039.53 4090.63 875.529 4091.63 1094.54 4092.63 1048.53 4093.63 822.527 4094.63 799.526 4095.63 1096.54 4095.63 944.531 4096.63 800.526 4097.63 914.53 4098.63 1059.53 4099.63 1006.53 4100.63 1065.54 4100.63 826.527 4101.63 1094.54 4102.63 1049.53 4103.63 1004.53 4104.63 1094.54 4105.63 1094.54 4105.63 1092.54 4106.63 1093.54 4107.63 809.527 4108.63 1095.54 4109.63 1094.54 4110.64 825.527 4111.64 1089.54 4111.64 919.53 4112.64 1062.54 4113.64 1078.54 4114.64 1081.54 4115.64 1096.54 4116.64 1095.54 4116.64 1051.53 4117.64 1095.54 4118.64 1083.54 4119.64 902.53 4120.64 971.532 4121.64 1059.53 4122.64 1093.54 4122.64 1057.53 4123.64 1094.54 4124.64 985.533 4125.64 812.527 4126.64 1063.54 4127.64 889.529 4127.64 1093.54 4128.64 1095.54 4129.64 800.526 4130.64 1059.53 4131.64 941.531 4132.64 994.533 4133.64 833.528 4133.64 946.531 4134.64 1062.54 4135.64 1090.54 4136.64 833.528 4137.64 1093.54 4138.64 1061.54 4138.64 1062.54 4139.64 165.506 4140.64 965.532 4141.64 1092.54 4142.64 1094.54 4143.64 1063.54 4144.64 1059.53 4144.64 1095.54 4145.64 861.528 4146.64 1094.54 4147.64 987.533 4148.64 1096.54 4149.64 1094.54 4149.64 961.532 4150.64 1095.54 4151.64 1095.54 4152.64 1094.54 4153.64 1094.54 4154.64 831.527 4155.64 1060.53 4155.64 870.529 4156.64 1095.54 4157.64 808.527 4158.64 1091.54 4159.64 1059.53 4160.64 164.506 4160.64 1095.54 4161.64 1095.54 4162.64 1095.54 4163.64 790.526 4164.64 1094.54 4165.64 845.528 4166.64 910.53 4166.64 1094.54 4167.64 1088.54 4168.64 1093.54 4169.64 953.531 4170.64 967.532 4171.64 1081.54 4171.64 1084.54 4172.64 1092.54 4173.64 907.53 4174.64 1042.53 4175.64 858.528 4176.64 858.528 4177.64 1042.53 4177.64 1084.54 4178.64 158.505 4179.64 880.529 4180.64 1081.54 4181.64 834.528 4182.64 1095.54 4182.64 1092.54 4183.64 1094.54 4184.64 1090.54 4185.64 823.527 4186.64 783.526 4187.64 927.531 4187.64 1050.53 4188.64 1052.53 4189.64 1049.53 4190.64 823.527 4191.64 1046.53 4192.64 877.529 4193.64 885.529 4193.64 1095.54 4194.64 873.529 4195.64 1041.53 4196.64 1087.54 4197.64 1037.53 4198.64 157.5 4198.64 1080.54 4199.64 1080.54 4200.64 1063.54 4201.64 994.533 4202.64 1028.53 4203.64 1093.54 4204.64 818.527 4204.64 1058.53 4205.64 903.53 4206.64 1051.53 4207.64 823.527 4208.64 938.531 4209.64 793.526 4209.64 968.532 4210.64 1094.54 4211.64 797.526 4212.64 893.529 4213.64 907.53 4214.64 866.529 4215.64 903.53 4215.64 1096.54 4216.64 1060.53 4217.64 799.526 4218.64 849.528 4219.64 1094.54 4220.64 1094.54 4220.64 842.528 4221.64 1094.54 4222.64 1092.54 4223.64 1061.54 4224.64 946.531 4225.64 1094.54 4226.64 1057.53 4226.64 1094.54 4227.64 1054.53 4228.64 1091.54 4229.64 1092.54 4230.64 1091.54 4231.64 1094.54 4231.64 1091.54 4232.64 870.529 4233.64 1091.54 4234.64 1090.54 4235.64 918.53 4236.64 1089.54 4237.64 1088.54 4237.64 844.528 4238.64 1093.54 4239.64 1089.54 4240.64 1058.53 4241.64 1054.53 4242.64 980.532 4242.64 1053.53 4243.64 1089.54 4244.64 1075.54 4245.64 1077.54 4246.64 1039.53 4247.64 1037.53 4248.64 987.533 4248.64 794.526 4249.64 1076.54 4250.64 941.531 4251.64 979.532 4252.64 1028.53 4253.64 1026.53 4253.64 1079.54 4254.64 1081.54 4255.64 940.531 4256.64 1095.54 4257.64 1094.54 4258.64 810.527 4259.64 869.529 4259.64 785.526 4260.64 790.526 4261.64 1090.54 4262.64 1094.54 4263.64 905.53 4264.64 1062.54 4264.64 863.529 4265.64 894.53 4266.64 1088.54 4267.64 909.53 4268.64 1052.53 4269.64 1052.53 4269.64 1095.54 4270.64 964.532 4271.64 985.533 4272.64 837.528 4273.64 811.527 4274.64 888.529 4275.64 1095.54 4275.64 912.53 4276.64 1064.54 4277.64 850.528 4278.64 1085.54 4279.64 1095.54 4280.64 864.529 4280.64 799.526 4281.64 809.527 4282.64 1094.54 4283.64 877.529 4284.64 1059.53 4285.64 833.528 4286.64 932.531 4286.64 1059.53 4287.64 891.529 4288.64 783.526 4289.64 1095.54 4290.64 1085.54 4291.64 1002.53 4291.64 1095.54 4292.64 1006.53 4293.64 1094.54 4294.64 1053.53 4295.64 1054.53 4296.64 1044.53 4297.64 1088.54 4297.64 1062.54 4298.64 1082.54 4299.64 1077.54 4300.64 1078.54 4301.64 899.53 4302.64 1076.54 4302.64 891.529 4303.64 996.533 4304.64 862.529 4305.64 1085.54 4306.64 1071.54 4307.64 1078.54 4308.64 898.53 4308.64 1044.53 4309.64 1079.54 4310.64 842.528 4311.64 1081.54 4312.64 1085.54 4313.64 1086.54 4313.64 900.53 4314.64 988.533 4315.64 1066.54 4316.64 1038.53 4317.64 1042.53 4318.64 1054.53 4319.64 993.533 4319.64 1036.53 4320.64 1072.54 4321.64 1038.53 4322.64 954.531 4323.64 825.527 4324.64 848.528 4324.64 898.53 4325.64 927.531 4326.64 866.529 4327.64 1068.54 4328.64 979.532 4329.64 1090.54 4330.64 1045.53 4330.64 1052.53 4331.64 789.526 4332.64 1094.54 4333.64 1094.54 4334.64 873.529 4335.64 1091.54 4335.64 818.527 4336.64 893.529 4337.64 952.531 4338.64 781.526 4339.64 926.531 4340.64 1095.54 4341.64 996.533 4341.64 1094.54 4342.64 984.532 4343.64 1087.54 4344.64 1086.54 4345.64 1065.54 4346.64 1080.54 4346.64 1062.54 4347.64 1062.54 4348.64 1079.54 4349.64 1060.53 4350.64 1079.54 4351.64 1061.54 4351.64 1060.53 4352.64 1058.53 4353.64 1073.54 4354.64 801.526 4355.64 1095.54 4356.64 1095.54 4357.64 1094.54 4357.64 1094.54 4358.64 1093.54 4359.64 1094.54 4360.64 804.527 4361.64 1091.54 4362.64 1095.54 4362.64 1060.53 4363.64 1081.54 4364.64 1086.54 4365.64 1085.54 4366.64 1083.54 4367.64 1087.54 4368.64 1082.54 4368.64 1052.53 4369.64 1001.53 4370.64 911.53 4371.64 1086.54 4372.64 1048.53 4373.64 840.528 4373.64 837.528 4374.64 847.528 4375.64 897.53 4376.64 1033.53 4377.64 793.526 4378.64 841.528 4379.64 1076.54 4379.64 1035.53 4380.64 811.527 4381.64 1079.54 4382.64 1075.54 4383.64 948.531 4384.64 937.531 4384.64 949.531 4385.64 901.53 4386.64 967.532 4387.64 926.531 4388.64 849.528 4389.64 1037.53 4390.64 1074.54 4390.64 855.528 4391.64 1088.54 4392.64 862.529 4393.64 1085.54 4394.64 1080.54 4395.64 1081.54 4395.64 1045.53 4396.64 937.531 4397.64 851.528 4398.64 1082.54 4399.64 1085.54 4400.64 1085.54 4401.64 1093.54 4401.64 1084.54 4402.64 925.531 4403.64 1093.54 4404.64 1043.53 4405.64 1054.53 4406.64 1077.54 4406.64 1085.54 4407.65 787.526 4408.65 1084.54 4409.65 909.53 4410.65 843.528 4411.65 1091.54 4412.65 871.529 4412.65 962.532 4413.65 1087.54 4414.65 934.531 4415.65 1037.53 4416.65 853.528 4417.65 1044.53 4417.65 1089.54 4418.65 1091.54 4419.65 1042.53 4420.65 1083.54 4421.65 1083.54 4422.65 1045.53 4423.65 1051.53 4423.65 1044.53 4424.65 1066.54 4425.65 958.532 4426.65 894.53 4427.65 1048.53 4428.65 942.531 4428.65 934.531 4429.65 1093.54 4430.65 1040.53 4431.65 879.529 4432.65 882.529 4433.65 946.531 4434.65 969.532 4434.65 951.531 4435.65 844.528 4436.65 1095.54 4437.65 1088.54 4438.65 1065.54 4439.65 1095.54 4439.65 1095.54 4440.65 933.531 4441.65 1093.54 4442.65 1059.53 4443.65 1053.53 4444.65 1090.54 4444.65 1092.54 4445.65 944.531 4446.65 798.526 4447.65 1088.54 4448.65 1087.54 4449.65 955.532 4450.65 1089.54 4450.65 1085.54 4451.65 1052.53 4452.65 1045.53 4453.65 825.527 4454.65 940.531 4455.65 831.527 4455.65 861.528 4456.65 865.529 4457.65 1089.54 4458.65 1090.54 4459.65 1084.54 4460.65 1085.54 4461.65 885.529 4461.65 820.527 4462.65 993.533 4463.65 937.531 4464.65 1036.53 4465.65 1043.53 4466.65 832.527 4466.65 1084.54 4467.65 1053.53 4468.65 1080.54 4469.65 1080.54 4470.65 974.532 4471.65 1084.54 4472.65 1076.54 4472.65 1080.54 4473.65 980.532 4474.65 1081.54 4475.65 802.526 4476.65 1032.53 4477.65 1096.54 4477.65 840.528 4478.65 1038.53 4479.65 1087.54 4480.65 1086.54 4481.65 1054.53 4482.65 1084.54 4483.65 881.529 4483.65 1053.53 4484.65 1085.54 4485.65 1090.54 4486.65 921.53 4487.65 1044.53 4488.65 1081.54 4488.65 1082.54 4489.65 901.53 4490.65 921.53 4491.65 1081.54 4492.65 1021.53 4493.65 1029.53 4494.65 1072.54 4494.65 1073.54 4495.65 1074.54 4496.65 1088.54 4497.65 917.53 4498.65 792.526 4499.65 993.533 4499.65 1023.53 4500.65 892.529 4501.65 939.531 4502.65 1009.53 4503.65 1005.53 4504.65 1042.53 4505.65 1080.54 4505.65 1080.54 4506.65 1042.53 4507.65 1079.54 4508.65 981.532 4509.65 941.531 4510.65 1038.53 4510.65 1040.53 4511.65 1045.53 4512.65 947.531 4513.65 1093.54 4514.65 946.531 4515.65 780.526 4516.65 1027.53 4516.65 850.528 4517.65 1094.54 4518.65 987.533 4519.65 1081.54 4520.65 957.532 4521.65 1095.54 4521.65 894.53 4522.65 1094.54 4523.65 1059.53 4524.65 1095.54 4525.65 1003.53 4526.65 1095.54 4526.65 833.528 4527.65 1093.54 4528.65 1077.54 4529.65 1078.54 4530.65 1059.53 4531.65 1093.54 4532.65 1092.54 4532.65 1090.54 4533.65 1089.54 4534.65 1089.54 4535.65 1090.54 4536.65 967.532 4537.65 999.533 4537.65 1054.53 4538.65 1089.54 4539.65 1084.54 4540.65 1083.54 4541.65 1081.54 4542.65 865.529 4543.65 1086.54 4543.65 1043.53 4544.65 1085.54 4545.65 1050.53 4546.65 830.527 4547.65 1048.53 4548.65 918.53 4548.65 1048.53 4549.65 959.532 4550.65 927.531 4551.65 951.531 4552.65 888.529 4553.65 1057.53 4554.65 901.53 4554.65 825.527 4555.65 793.526 4556.65 1040.53 4557.65 1094.54 4558.65 1095.54 4559.65 1096.54 4559.65 1086.54 4560.65 1031.53 4561.65 1094.54 4562.65 1058.53 4563.65 1058.53 4564.65 903.53 4565.65 1057.53 4565.65 794.526 4566.65 946.531 4567.65 1087.54 4568.65 959.532 4569.65 920.53 4570.65 900.53 4570.65 1056.53 4571.65 829.527 4572.65 905.53 4573.65 1096.54 4574.65 1094.54 4575.65 1094.54 4576.65 1094.54 4576.65 1096.54 4577.65 1095.54 4578.65 1096.54 4579.65 1055.53 4580.65 1094.54 4581.65 1095.54 4581.65 1096.54 4582.65 1090.54 4583.65 796.526 4584.65 958.532 4585.65 803.527 4586.65 1091.54 4587.65 968.532 4587.65 1001.53 4588.65 845.528 4589.65 1087.54 4590.65 1095.54 4591.65 1095.54 4592.65 1095.54 4592.65 1095.54 4593.65 1085.54 4594.65 1095.54 4595.65 1095.54 4596.65 878.529 4597.65 1053.53 4598.65 918.53 4598.65 897.53 4599.65 987.533 4600.65 797.526 4601.65 1091.54 4602.65 1050.53 4603.65 958.532 4603.65 981.532 4604.65 936.531 4605.65 934.531 4606.65 952.531 4607.65 1060.53 4608.65 1095.54 4608.65 1093.54 4609.65 1077.54 4610.65 1095.54 4611.65 1095.54 4612.65 1095.54 4613.65 1093.54 4614.65 929.531 4614.65 1056.53 4615.65 1055.53 4616.65 899.53 4617.65 806.527 4618.65 1095.54 4619.65 831.527 4619.65 844.528 4620.65 1057.53 4621.65 836.528 4622.65 1095.54 4623.65 1095.54 4624.65 1095.54 4625.65 1061.54 4625.65 1059.53 4626.65 1093.54 4627.65 1094.54 4628.65 917.53 4629.65 1094.54 4630.65 1095.54 4630.65 782.526 4631.65 887.529 4632.65 1092.54 4633.65 817.527 4634.65 952.531 4635.65 879.529 4636.65 1094.54 4636.65 1058.53 4637.65 812.527 4638.65 867.529 4639.65 875.529 4640.65 1095.54 4641.65 1095.54 4641.65 1095.54 4642.65 1095.54 4643.65 1090.54 4644.65 1056.53 4645.65 999.533 4646.65 842.528 4647.65 1060.53 4647.65 997.533 4648.65 1052.53 4649.65 907.53 4650.65 908.53 4651.65 947.531 4652.65 1061.54 4652.65 996.533 4653.65 1094.54 4654.65 1095.54 4655.65 1094.54 4656.65 842.528 4657.65 1094.54 4658.65 1095.54 4658.65 1095.54 4659.65 1059.53 4660.65 921.53 4661.65 1061.54 4662.65 941.531 4663.65 1060.53 4663.65 967.532 4664.65 873.529 4665.65 902.53 4666.65 1094.54 4667.65 1094.54 4668.65 1094.54 4669.65 1094.54 4669.65 1064.54 4670.65 1094.54 4671.65 847.528 4672.65 1052.53 4673.65 1004.53 4674.65 877.529 4674.65 1058.53 4675.65 1058.53 4676.65 843.528 4677.65 1094.54 4678.65 1057.53 4679.65 967.532 4680.65 876.529 4680.65 919.53 4681.65 802.526 4682.65 1003.53 4683.65 1093.54 4684.65 1095.54 4685.65 1095.54 4685.65 1095.54 4686.65 1095.54 4687.65 934.531 4688.65 1059.53 4689.65 1048.53 4690.65 1054.53 4690.65 947.531 4691.65 1051.53 4692.65 823.527 4693.65 905.53 4694.65 1046.53 4695.65 956.532 4696.65 1095.54 4696.65 1095.54 4697.65 1095.54 4698.65 811.527 4699.65 1095.54 4700.65 1095.54 4701.65 1095.54 4701.65 985.533 4702.65 904.53 4703.65 1060.53 4704.65 969.532 4705.65 818.527 4706.65 807.527 4707.65 1094.54 4707.65 1095.54 4708.65 1059.53 4709.65 881.529 4710.65 828.527 4711.65 931.531 4712.65 936.531 4712.65 847.528 4713.65 1094.54 4714.65 1094.54 4715.65 1040.53 4716.66 1094.54 4717.66 1094.54 4718.66 1095.54 4718.66 1059.53 4719.66 793.526 4720.66 936.531 4721.66 1062.54 4722.66 938.531 4723.66 1095.54 4723.66 1095.54 4724.66 1095.54 4725.66 1095.54 4726.66 899.53 4727.66 979.532 4728.66 1061.54 4729.66 920.53 4729.66 793.526 4730.66 1094.54 4731.66 1094.54 4732.66 1090.54 4733.66 1095.54 4734.66 1096.54 4734.66 1058.53 4735.66 1095.54 4736.66 1058.53 4737.66 1041.53 4738.66 804.527 4739.66 862.529 4740.66 1058.53 4740.66 937.531 4741.66 910.53 4742.66 1052.53 4743.66 1092.54 4744.66 1059.53 4745.66 1061.54 4745.66 1058.53 4746.66 1059.53 4747.66 1061.54 4748.66 1062.54 4749.66 907.53 4750.66 983.532 4751.66 960.532 4751.66 954.531 4752.66 1094.54 4753.66 836.528 4754.66 1095.54 4755.66 905.53 4756.66 1095.54 4756.66 1046.53 4757.66 1094.54 4758.66 1094.54 4759.66 1063.54 4760.66 909.53 4761.66 1094.54 4762.66 808.527 4762.66 838.528 4763.66 1096.54 4764.66 1060.53 4765.66 896.53 4766.66 1094.54 4767.66 912.53 4767.66 1094.54 4768.66 965.532 4769.66 837.528 4770.66 1094.54 4771.66 1095.54 4772.66 1060.53 4773.66 1095.54 4773.66 1095.54 4774.66 1093.54 4775.66 1095.54 4776.66 928.531 4777.66 903.53 4778.66 1061.54 4778.66 782.526 4779.66 1060.53 4780.66 1061.54 4781.66 902.53 4782.66 993.533 4783.66 896.53 4783.66 1060.53 4784.66 1086.54 4785.66 1095.54 4786.66 803.527 4787.66 1095.54 4788.66 1056.53 4789.66 1095.54 4789.66 910.53 4790.66 953.531 4791.66 838.528 4792.66 1061.54 4793.66 1094.54 4794.66 1060.53 4794.66 1087.54 4795.66 1095.54 4796.66 1092.54 4797.66 1095.54 4798.66 1061.54 4799.66 1095.54 4800.66 924.531 4800.66 834.528 4801.66 1095.54 4802.66 888.529 4803.66 1060.53 4804.66 912.53 4805.66 1059.53 4805.66 1059.53 4806.66 1059.53 4807.66 1062.54 4808.66 954.531 4809.66 1091.54 4810.66 1086.54 4811.66 820.527 4811.66 791.526 4812.66 1095.54 4813.66 1065.54 4814.66 1061.54 4815.66 993.533 4816.66 817.527 4816.66 1091.54 4817.66 1094.54 4818.66 1095.54 4819.66 1093.54 4820.66 849.528 4821.66 1095.54 4822.66 1095.54 4822.66 942.531 4823.66 1095.54 4824.66 802.526 4825.66 1043.53 4826.66 822.527 4827.66 997.533 4827.66 822.527 4828.66 911.53 4829.66 827.527 4830.66 934.531 4831.66 967.532 4832.66 822.527 4833.66 1095.54 4833.66 1056.53 4834.66 1094.54 4835.66 1061.54 4836.66 882.529 4837.66 1095.54 4838.66 785.526 4838.66 787.526 4839.66 1094.54 4840.66 1093.54 4841.66 1094.54 4842.66 1095.54 4843.66 1095.54 4844.66 815.527 4844.66 1065.54 4845.66 1059.53 4846.66 919.53 4847.66 969.532 4848.66 389.513 4849.66 1068.54 4849.66 1094.54 4850.66 882.529 4851.66 1000.53 4852.66 815.527 4853.66 869.529 4854.66 1059.53 4855.66 928.531 4855.66 1005.53 4856.66 1094.54 4857.66 886.529 4858.66 1094.54 4859.66 1094.54 4860.66 1095.54 4860.66 1094.54 4861.66 913.53 4862.66 1058.53 4863.66 1005.53 4864.66 1094.54 4865.66 910.53 4865.66 888.529 4866.66 1094.54 4867.66 1096.54 4868.66 1095.54 4869.66 933.531 4870.66 924.531 4871.66 984.532 4871.66 911.53 4872.66 1095.54 4873.66 1060.53 4874.66 1062.54 4875.66 1063.54 4876.66 817.527 4876.66 996.533 4877.66 787.526 4878.66 797.526 4879.66 1094.54 4880.66 1095.54 4881.66 1061.54 4882.66 1060.53 4882.66 1060.53 4883.66 911.53 4884.66 968.532 4885.66 847.528 4886.66 861.528 4887.66 805.527 4887.66 892.529 4888.66 1095.54 4889.66 1052.53 4890.66 1056.53 4891.66 1092.54 4892.66 935.531 4893.66 975.532 4893.66 1093.54 4894.66 829.527 4895.66 1094.54 4896.66 1095.54 4897.66 1095.54 4898.66 1095.54 4898.66 1094.54 4899.66 1095.54 4900.66 1095.54 4901.66 1050.53 4902.66 1057.53 4903.66 1054.53 4904.66 812.527 4904.66 1094.54 4905.66 1095.54 4906.66 1094.54 4907.66 1062.54 4908.66 1062.54 4909.66 1060.53 4909.66 868.529 4910.66 1060.53 4911.66 912.53 4912.66 923.53 4913.66 1053.53 4914.66 885.529 4915.66 834.528 4915.66 1095.54 4916.66 1050.53 4917.66 955.532 4918.66 1002.53 4919.66 1095.54 4920.66 1094.54 4920.66 881.529 4921.66 1095.54 4922.66 1095.54 4923.66 878.529 4924.66 956.532 4925.66 858.528 4926.66 1059.53 4926.66 1095.54 4927.66 962.532 4928.66 945.531 4929.66 935.531 4930.66 967.532 4931.66 1059.53 4931.66 838.528 4932.66 802.526 4933.66 1062.54 4934.66 1094.54 4935.66 1096.54 4936.66 1095.54 4937.66 1094.54 4937.66 1094.54 4938.66 1061.54 4939.66 1064.54 4940.66 953.531 4941.66 1076.54 4942.66 807.527 4942.66 993.533 4943.66 1096.54 4944.66 1060.53 4945.66 876.529 4946.66 1094.54 4947.66 1059.53 4947.66 969.532 4948.66 963.532 4949.66 1086.54 4950.66 794.526 4951.66 1049.53 4952.66 1095.54 4953.66 792.526 4953.66 1056.53 4954.66 809.527 4955.66 1094.54 4956.66 846.528 4957.66 1085.54 4958.66 1086.54 4958.66 1094.54 4959.66 794.526 4960.66 1086.54 4961.66 821.527 4962.66 805.527 4963.66 1051.53 4964.66 849.528 4964.66 1058.53 4965.66 828.527 4966.66 971.532 4967.66 855.528 4968.66 848.528 4969.66 1096.54 4969.66 928.531 4970.66 1094.54 4971.66 870.529 4972.66 801.526 4973.66 834.528 4974.66 963.532 4975.66 1094.54 4975.66 791.526 4976.66 948.531 4977.66 1041.53 4978.66 799.526 4979.66 1061.54 4980.66 1086.54 4980.66 1078.54 4981.66 1070.54 4982.66 820.527 4983.66 1095.54 4984.66 1094.54 4985.66 1094.54 4986.66 1088.54 4986.66 1095.54 4987.66 1094.54 4988.66 1061.54 4989.66 1045.53 4990.66 1045.53 4991.66 1045.53 4991.66 1067.54 4992.66 805.527 4993.66 877.529 4994.66 998.533 4995.66 1090.54 4996.66 881.529 4997.66 1015.53 4997.66 1090.54 4998.66 1094.54 4999.66 786.526 5000.66 1095.54 5001.66 898.53 5002.66 1055.53 5002.66 889.529 5003.66 934.531 5004.66 985.533 5005.66 1092.54 5006.66 1061.54 5007.66 1059.53 5008.66 827.527 5008.66 811.527 5009.66 865.529 5010.66 1094.54 5011.66 1094.54 5012.67 1093.54 5013.67 1092.54 5013.67 1095.54 5014.67 1095.54 5015.67 1095.54 5016.5 835.528" stroke="#4472C4" stroke-width="3.4375" stroke-linecap="round" stroke-linejoin="round" stroke-miterlimit="10" fill="none"/></g><g clip-path="url(#clip6)"><text font-family="LM Roman 10,LM Roman 10_MSFontService,sans-serif" font-weight="700" font-size="64" transform="matrix(1 0 0 1 2602.14 1124)">0</text></g><g clip-path="url(#clip7)"><text font-family="LM Roman 10,LM Roman 10_MSFontService,sans-serif" font-weight="700" font-size="64" transform="matrix(1 0 0 1 2528.35 1059)">200</text></g><g clip-path="url(#clip8)"><text font-family="LM Roman 10,LM Roman 10_MSFontService,sans-serif" font-weight="700" font-size="64" transform="matrix(1 0 0 1 2528.35 994)">400</text></g><g clip-path="url(#clip9)"><text font-family="LM Roman 10,LM Roman 10_MSFontService,sans-serif" font-weight="700" font-size="64" transform="matrix(1 0 0 1 2528.35 929)">600</text></g><g clip-path="url(#clip10)"><text font-family="LM Roman 10,LM Roman 10_MSFontService,sans-serif" font-weight="700" font-size="64" transform="matrix(1 0 0 1 2528.35 865)">800</text></g><g clip-path="url(#clip11)"><text font-family="LM Roman 10,LM Roman 10_MSFontService,sans-serif" font-weight="700" font-size="64" transform="matrix(1 0 0 1 2491.45 800)">1000</text></g><g clip-path="url(#clip12)"><text font-family="LM Roman 10,LM Roman 10_MSFontService,sans-serif" font-weight="700" font-size="64" transform="matrix(1 0 0 1 2491.45 735)">1200</text></g><g clip-path="url(#clip13)"><text font-family="LM Roman 10,LM Roman 10_MSFontService,sans-serif" font-weight="700" font-size="64" transform="matrix(1 0 0 1 2491.45 670)">1400</text></g><g clip-path="url(#clip14)"><text font-family="LM Roman 10,LM Roman 10_MSFontService,sans-serif" font-weight="700" font-size="64" transform="matrix(1 0 0 1 2491.45 605)">1600</text></g><g clip-path="url(#clip15)"><text font-family="LM Roman 10,LM Roman 10_MSFontService,sans-serif" font-weight="700" font-size="64" transform="matrix(1 0 0 1 2491.45 540)">1800</text></g><g clip-path="url(#clip16)"><text font-family="LM Roman 10,LM Roman 10_MSFontService,sans-serif" font-weight="700" font-size="64" transform="matrix(1 0 0 1 2491.45 476)">2000</text></g><g clip-path="url(#clip17)"><text font-family="LM Roman 10,LM Roman 10_MSFontService,sans-serif" font-weight="700" font-size="50" transform="matrix(0.707107 -0.707107 0.707107 0.707107 2578.6 1328)">00:00:00</text></g><g clip-path="url(#clip18)"><text font-family="LM Roman 10,LM Roman 10_MSFontService,sans-serif" font-weight="700" font-size="50" transform="matrix(0.707107 -0.707107 0.707107 0.707107 2679.21 1328)">00:00:26</text></g><g clip-path="url(#clip19)"><text font-family="LM Roman 10,LM Roman 10_MSFontService,sans-serif" font-weight="700" font-size="50" transform="matrix(0.707107 -0.707107 0.707107 0.707107 2779.81 1328)">00:00:49</text></g><g clip-path="url(#clip20)"><text font-family="LM Roman 10,LM Roman 10_MSFontService,sans-serif" font-weight="700" font-size="50" transform="matrix(0.707107 -0.707107 0.707107 0.707107 2880.42 1328)">00:01:19</text></g><g clip-path="url(#clip21)"><text font-family="LM Roman 10,LM Roman 10_MSFontService,sans-serif" font-weight="700" font-size="50" transform="matrix(0.707107 -0.707107 0.707107 0.707107 2981.02 1328)">00:01:45</text></g><g clip-path="url(#clip22)"><text font-family="LM Roman 10,LM Roman 10_MSFontService,sans-serif" font-weight="700" font-size="50" transform="matrix(0.707107 -0.707107 0.707107 0.707107 3081.63 1328)">00:02:13</text></g><g clip-path="url(#clip23)"><text font-family="LM Roman 10,LM Roman 10_MSFontService,sans-serif" font-weight="700" font-size="50" transform="matrix(0.707107 -0.707107 0.707107 0.707107 3182.23 1328)">00:02:40</text></g><g clip-path="url(#clip24)"><text font-family="LM Roman 10,LM Roman 10_MSFontService,sans-serif" font-weight="700" font-size="50" transform="matrix(0.707107 -0.707107 0.707107 0.707107 3282.83 1328)">00:03:01</text></g><g clip-path="url(#clip25)"><text font-family="LM Roman 10,LM Roman 10_MSFontService,sans-serif" font-weight="700" font-size="50" transform="matrix(0.707107 -0.707107 0.707107 0.707107 3383.44 1328)">00:03:25</text></g><g clip-path="url(#clip26)"><text font-family="LM Roman 10,LM Roman 10_MSFontService,sans-serif" font-weight="700" font-size="50" transform="matrix(0.707107 -0.707107 0.707107 0.707107 3484.04 1328)">00:03:54</text></g><g clip-path="url(#clip27)"><text font-family="LM Roman 10,LM Roman 10_MSFontService,sans-serif" font-weight="700" font-size="50" transform="matrix(0.707107 -0.707107 0.707107 0.707107 3584.65 1328)">00:04:20</text></g><g clip-path="url(#clip28)"><text font-family="LM Roman 10,LM Roman 10_MSFontService,sans-serif" font-weight="700" font-size="50" transform="matrix(0.707107 -0.707107 0.707107 0.707107 3685.25 1328)">00:04:47</text></g><g clip-path="url(#clip29)"><text font-family="LM Roman 10,LM Roman 10_MSFontService,sans-serif" font-weight="700" font-size="50" transform="matrix(0.707107 -0.707107 0.707107 0.707107 3785.86 1328)">00:05:16</text></g><g clip-path="url(#clip30)"><text font-family="LM Roman 10,LM Roman 10_MSFontService,sans-serif" font-weight="700" font-size="50" transform="matrix(0.707107 -0.707107 0.707107 0.707107 3886.46 1328)">00:05:42</text></g><g clip-path="url(#clip31)"><text font-family="LM Roman 10,LM Roman 10_MSFontService,sans-serif" font-weight="700" font-size="50" transform="matrix(0.707107 -0.707107 0.707107 0.707107 3987.07 1328)">00:06:07</text></g><g clip-path="url(#clip32)"><text font-family="LM Roman 10,LM Roman 10_MSFontService,sans-serif" font-weight="700" font-size="50" transform="matrix(0.707107 -0.707107 0.707107 0.707107 4087.67 1328)">00:06:34</text></g><g clip-path="url(#clip33)"><text font-family="LM Roman 10,LM Roman 10_MSFontService,sans-serif" font-weight="700" font-size="50" transform="matrix(0.707107 -0.707107 0.707107 0.707107 4188.27 1328)">00:06:58</text></g><g clip-path="url(#clip34)"><text font-family="LM Roman 10,LM Roman 10_MSFontService,sans-serif" font-weight="700" font-size="50" transform="matrix(0.707107 -0.707107 0.707107 0.707107 4288.88 1328)">00:07:27</text></g><g clip-path="url(#clip35)"><text font-family="LM Roman 10,LM Roman 10_MSFontService,sans-serif" font-weight="700" font-size="50" transform="matrix(0.707107 -0.707107 0.707107 0.707107 4389.48 1328)">00:07:54</text></g><g clip-path="url(#clip36)"><text font-family="LM Roman 10,LM Roman 10_MSFontService,sans-serif" font-weight="700" font-size="50" transform="matrix(0.707107 -0.707107 0.707107 0.707107 4490.09 1328)">00:08:18</text></g><g clip-path="url(#clip37)"><text font-family="LM Roman 10,LM Roman 10_MSFontService,sans-serif" font-weight="700" font-size="50" transform="matrix(0.707107 -0.707107 0.707107 0.707107 4590.69 1328)">00:08:45</text></g><g clip-path="url(#clip38)"><text font-family="LM Roman 10,LM Roman 10_MSFontService,sans-serif" font-weight="700" font-size="50" transform="matrix(0.707107 -0.707107 0.707107 0.707107 4691.3 1328)">00:09:13</text></g><g clip-path="url(#clip39)"><text font-family="LM Roman 10,LM Roman 10_MSFontService,sans-serif" font-weight="700" font-size="50" transform="matrix(0.707107 -0.707107 0.707107 0.707107 4791.9 1328)">00:09:36</text></g><g clip-path="url(#clip40)"><text font-family="LM Roman 10,LM Roman 10_MSFontService,sans-serif" font-weight="400" font-size="64" transform="matrix(6.12323e-17 -1 1 6.12323e-17 2408.36 1162)">Czas przetwarzania (ms)</text></g><g clip-path="url(#clip41)"><text font-family="LM Roman 10,LM Roman 10_MSFontService,sans-serif" font-weight="400" font-size="64" transform="matrix(1 0 0 1 3552.82 1470)">Czas trwania ewaluacji</text></g><g clip-path="url(#clip42)"><text font-family="LM Roman 10,LM Roman 10_MSFontService,sans-serif" font-weight="400" font-size="73" transform="matrix(1 0 0 1 2904.01 255)">Interfejs API: NodeJS / Metoda HTTP: DELETE / </text></g><g clip-path="url(#clip43)"><text font-family="LM Roman 10,LM Roman 10_MSFontService,sans-serif" font-weight="400" font-size="73" transform="matrix(1 0 0 1 3353.33 359)">Platforma: DigitalOcean</text></g><g clip-path="url(#clip44)"><rect x="2734.5" y="466.5" width="413" height="122" stroke="#D9D9D9" stroke-width="3.4375" stroke-linejoin="round" stroke-miterlimit="10" fill="#FFFFFF"/></g><g clip-path="url(#clip45)"><path d="M2786.5 527.5 2874.5 527.501" stroke="#4472C4" stroke-width="3.4375" stroke-linecap="round" stroke-linejoin="round" stroke-miterlimit="10" fill="none" fill-rule="evenodd"/></g><g clip-path="url(#clip46)"><text font-family="LM Roman 10,LM Roman 10_MSFontService,sans-serif" font-weight="400" font-size="55" transform="matrix(1 0 0 1 2883.37 545)">DELETE</text></g></g></svg>