<svg width="2833" height="1363" xmlns="http://www.w3.org/2000/svg" xmlns:xlink="http://www.w3.org/1999/xlink" xml:space="preserve" overflow="hidden"><defs><clipPath id="clip0"><rect x="2308" y="3094" width="2833" height="1363"/></clipPath><clipPath id="clip1"><rect x="2308" y="3093" width="2833" height="1363"/></clipPath><clipPath id="clip2"><rect x="2308" y="3093" width="2833" height="1363"/></clipPath><clipPath id="clip3"><rect x="2308" y="3093" width="2833" height="1363"/></clipPath><clipPath id="clip4"><rect x="2308" y="3093" width="2833" height="1363"/></clipPath><clipPath id="clip5"><rect x="2688" y="3411" width="2355" height="652"/></clipPath><clipPath id="clip6"><rect x="2308" y="3093" width="2833" height="1363"/></clipPath><clipPath id="clip7"><rect x="2308" y="3093" width="2833" height="1363"/></clipPath><clipPath id="clip8"><rect x="2308" y="3093" width="2833" height="1363"/></clipPath><clipPath id="clip9"><rect x="2308" y="3093" width="2833" height="1363"/></clipPath><clipPath id="clip10"><rect x="2308" y="3093" width="2833" height="1363"/></clipPath><clipPath id="clip11"><rect x="2308" y="3093" width="2833" height="1363"/></clipPath><clipPath id="clip12"><rect x="2308" y="3093" width="2833" height="1363"/></clipPath><clipPath id="clip13"><rect x="2308" y="3093" width="2833" height="1363"/></clipPath><clipPath id="clip14"><rect x="2308" y="3093" width="2833" height="1363"/></clipPath><clipPath id="clip15"><rect x="2308" y="3093" width="2833" height="1363"/></clipPath><clipPath id="clip16"><rect x="2308" y="3093" width="2833" height="1363"/></clipPath><clipPath id="clip17"><rect x="2308" y="3093" width="2833" height="1363"/></clipPath><clipPath id="clip18"><rect x="2308" y="3093" width="2833" height="1363"/></clipPath><clipPath id="clip19"><rect x="2308" y="3093" width="2833" height="1363"/></clipPath><clipPath id="clip20"><rect x="2308" y="3093" width="2833" height="1363"/></clipPath><clipPath id="clip21"><rect x="2308" y="3093" width="2833" height="1363"/></clipPath><clipPath id="clip22"><rect x="2308" y="3093" width="2833" height="1363"/></clipPath><clipPath id="clip23"><rect x="2308" y="3093" width="2833" height="1363"/></clipPath><clipPath id="clip24"><rect x="2308" y="3093" width="2833" height="1363"/></clipPath><clipPath id="clip25"><rect x="2308" y="3093" width="2833" height="1363"/></clipPath><clipPath id="clip26"><rect x="2308" y="3093" width="2833" height="1363"/></clipPath><clipPath id="clip27"><rect x="2308" y="3093" width="2833" height="1363"/></clipPath><clipPath id="clip28"><rect x="2308" y="3093" width="2833" height="1363"/></clipPath><clipPath id="clip29"><rect x="2308" y="3093" width="2833" height="1363"/></clipPath><clipPath id="clip30"><rect x="2308" y="3093" width="2833" height="1363"/></clipPath><clipPath id="clip31"><rect x="2308" y="3093" width="2833" height="1363"/></clipPath><clipPath id="clip32"><rect x="2308" y="3093" width="2833" height="1363"/></clipPath><clipPath id="clip33"><rect x="2308" y="3093" width="2833" height="1363"/></clipPath><clipPath id="clip34"><rect x="2308" y="3093" width="2833" height="1363"/></clipPath><clipPath id="clip35"><rect x="2308" y="3093" width="2833" height="1363"/></clipPath><clipPath id="clip36"><rect x="2308" y="3093" width="2833" height="1363"/></clipPath><clipPath id="clip37"><rect x="2308" y="3093" width="2833" height="1363"/></clipPath><clipPath id="clip38"><rect x="2308" y="3093" width="2833" height="1363"/></clipPath><clipPath id="clip39"><rect x="2308" y="3093" width="2833" height="1363"/></clipPath><clipPath id="clip40"><rect x="2308" y="3093" width="2833" height="1363"/></clipPath><clipPath id="clip41"><rect x="2308" y="3093" width="2833" height="1363"/></clipPath><clipPath id="clip42"><rect x="2308" y="3093" width="2833" height="1363"/></clipPath><clipPath id="clip43"><rect x="2308" y="3093" width="2833" height="1363"/></clipPath><clipPath id="clip44"><rect x="2308" y="3093" width="2833" height="1363"/></clipPath><clipPath id="clip45"><rect x="2308" y="3093" width="2833" height="1363"/></clipPath><clipPath id="clip46"><rect x="2308" y="3093" width="2833" height="1363"/></clipPath></defs><g clip-path="url(#clip0)" transform="translate(-2308 -3094)"><rect x="2309" y="3094" width="2832" height="1363" fill="#FFFFFF"/><g clip-path="url(#clip1)"><path d="M2688.5 4046.63 5040.5 4046.63M2688.5 4033.63 5040.5 4033.63M2688.5 4020.63 5040.5 4020.63M2688.5 4007.63 5040.5 4007.63M2688.5 3981.63 5040.5 3981.63M2688.5 3969.63 5040.5 3969.63M2688.5 3956.63 5040.5 3956.63M2688.5 3943.63 5040.5 3943.63M2688.5 3917.63 5040.5 3917.63M2688.5 3904.63 5040.5 3904.63M2688.5 3891.63 5040.5 3891.63M2688.5 3878.63 5040.5 3878.63M2688.5 3852.63 5040.5 3852.63M2688.5 3839.63 5040.5 3839.63M2688.5 3826.63 5040.5 3826.63M2688.5 3813.63 5040.5 3813.63M2688.5 3787.62 5040.5 3787.62M2688.5 3774.62 5040.5 3774.62M2688.5 3761.62 5040.5 3761.62M2688.5 3748.62 5040.5 3748.62M2688.5 3722.62 5040.5 3722.62M2688.5 3709.62 5040.5 3709.62M2688.5 3696.62 5040.5 3696.62M2688.5 3683.62 5040.5 3683.62M2688.5 3657.62 5040.5 3657.62M2688.5 3644.62 5040.5 3644.62M2688.5 3631.62 5040.5 3631.62M2688.5 3618.62 5040.5 3618.62M2688.5 3592.62 5040.5 3592.62M2688.5 3579.62 5040.5 3579.62M2688.5 3567.62 5040.5 3567.62M2688.5 3554.62 5040.5 3554.62M2688.5 3528.62 5040.5 3528.62M2688.5 3515.62 5040.5 3515.62M2688.5 3502.61 5040.5 3502.61M2688.5 3489.61 5040.5 3489.61M2688.5 3463.61 5040.5 3463.61M2688.5 3450.61 5040.5 3450.61M2688.5 3437.61 5040.5 3437.61M2688.5 3424.61 5040.5 3424.61" stroke="#F2F2F2" stroke-width="3.4375" stroke-linejoin="round" stroke-miterlimit="10" fill="none"/></g><g clip-path="url(#clip2)"><path d="M2688.5 3994.63 5040.5 3994.63M2688.5 3930.63 5040.5 3930.63M2688.5 3865.63 5040.5 3865.63M2688.5 3800.62 5040.5 3800.62M2688.5 3735.62 5040.5 3735.62M2688.5 3670.62 5040.5 3670.62M2688.5 3605.62 5040.5 3605.62M2688.5 3541.62 5040.5 3541.62M2688.5 3476.61 5040.5 3476.61M2688.5 3411.5 5040.5 3411.5" stroke="#D9D9D9" stroke-width="3.4375" stroke-linejoin="round" stroke-miterlimit="10" fill="none"/></g><g clip-path="url(#clip3)"><rect x="2688.5" y="3411.5" width="2352" height="648" stroke="#D9D9D9" stroke-width="3.4375" stroke-linejoin="round" stroke-miterlimit="10" fill="none"/></g><g clip-path="url(#clip4)"><path d="M2688.5 4059.5 5040.5 4059.5" stroke="#D9D9D9" stroke-width="3.4375" stroke-linejoin="round" stroke-miterlimit="10" fill="none" fill-rule="evenodd"/></g><g clip-path="url(#clip5)"><path d="M2688.5 4016.63 2689.59 3752.62 2690.59 3953.63 2691.59 3935.63 2692.59 3808.62 2693.59 4011.63 2693.59 3888.63 2694.59 4029.63 2695.59 4002.63 2696.59 3916.63 2697.59 4047.63 2698.59 3888.63 2698.59 4047.63 2699.59 4007.63 2700.59 4041.63 2701.59 3774.62 2702.59 3905.63 2703.59 4005.63 2704.59 3864.63 2704.59 4001.63 2705.59 4000.63 2706.59 4047.63 2707.59 3941.63 2708.59 3913.63 2709.59 4047.63 2709.59 3767.62 2710.59 4004.63 2711.59 4004.63 2712.59 4050.63 2713.59 3752.62 2714.59 4050.63 2714.59 3917.63 2715.59 3760.62 2716.59 4048.63 2717.59 4014.63 2718.59 3960.63 2719.59 4026.63 2720.59 3805.62 2720.59 3996.63 2721.59 3997.63 2722.59 4045.63 2723.59 3923.63 2724.59 4050.63 2725.59 3930.63 2725.59 4049.63 2726.59 4051.63 2727.59 3892.63 2728.59 3942.63 2729.59 3876.63 2730.59 3857.63 2731.59 4009.63 2731.59 4038.63 2732.59 4038.63 2733.59 3786.62 2734.59 3826.63 2735.59 3882.63 2736.59 3915.63 2736.59 3992.63 2737.59 4035.63 2738.59 4031.63 2739.59 3908.63 2740.59 3974.63 2741.59 4037.63 2742.59 4033.63 2742.59 4050.63 2743.59 4030.63 2744.59 4051.63 2745.59 3983.63 2746.59 3979.63 2747.59 4047.63 2747.59 4046.63 2748.59 4016.63 2749.59 4037.63 2750.59 4010.63 2751.59 4041.63 2752.59 4044.63 2753.59 3806.62 2753.59 4000.63 2754.59 3827.63 2755.59 4042.63 2756.59 3999.63 2757.59 4004.63 2758.59 4049.63 2758.59 4048.63 2759.59 3838.63 2760.59 4046.63 2761.59 3802.62 2762.59 4051.63 2763.59 3955.63 2764.59 4043.63 2764.59 4049.63 2765.59 3906.63 2766.59 4017.63 2767.59 4016.63 2768.59 3744.62 2769.59 4044.63 2769.59 4037.63 2770.59 4015.63 2771.59 4041.63 2772.59 4038.63 2773.59 4051.63 2774.59 4005.63 2775.59 3880.63 2775.59 4011.63 2776.59 4042.63 2777.59 3856.63 2778.59 4016.63 2779.59 4051.63 2780.59 3850.63 2780.59 3831.63 2781.59 4051.63 2782.59 3786.62 2783.59 4018.63 2784.59 4051.63 2785.59 4048.63 2786.59 4016.63 2786.59 4050.63 2787.59 4015.63 2788.59 4047.63 2789.59 4016.63 2790.59 4044.63 2791.59 4013.63 2791.59 4034.63 2792.59 4046.63 2793.59 4043.63 2794.59 3909.63 2795.59 4040.63 2796.59 3757.62 2796.59 4044.63 2797.59 4045.63 2798.59 3920.63 2799.59 4040.63 2800.59 4044.63 2801.59 3788.62 2802.59 4047.63 2802.59 4046.63 2803.59 3998.63 2804.59 4040.63 2805.59 4040.63 2806.59 4004.63 2807.59 3950.63 2807.59 3999.63 2808.59 3823.63 2809.59 3740.62 2810.59 4028.63 2811.59 4035.63 2812.59 4032.63 2813.59 3778.62 2813.59 4035.63 2814.59 3805.62 2815.59 3828.63 2816.59 4048.63 2817.59 4049.63 2818.59 3817.63 2818.59 3900.63 2819.59 4042.63 2820.59 4041.63 2821.59 4041.63 2822.59 4011.63 2823.59 3958.63 2824.59 3954.63 2824.59 4030.63 2825.59 4005.63 2826.59 4044.63 2827.59 4039.63 2828.59 4013.63 2829.59 4017.63 2829.59 3806.62 2830.59 3805.62 2831.59 3770.62 2832.59 3781.62 2833.59 3838.63 2834.59 4050.63 2835.59 3932.63 2835.59 3895.63 2836.59 3994.63 2837.59 3919.63 2838.59 4050.63 2839.59 4016.63 2840.59 4006.63 2840.59 3881.63 2841.59 3853.63 2842.59 4051.63 2843.59 4042.63 2844.59 4050.63 2845.59 4049.63 2846.59 4016.63 2846.59 4016.63 2847.59 4051.63 2848.59 4050.63 2849.59 4047.63 2850.59 4015.63 2851.59 4014.63 2851.59 4013.63 2852.59 4040.63 2853.59 3839.63 2854.59 3771.62 2855.59 3912.63 2856.59 3860.63 2857.59 3918.63 2857.59 3868.63 2858.59 3823.63 2859.59 4045.63 2860.59 3822.63 2861.59 4029.63 2862.59 3765.62 2862.59 4046.63 2863.59 4049.63 2864.59 3766.62 2865.59 3862.63 2866.59 4049.63 2867.59 3813.63 2868.59 3825.63 2868.59 3771.62 2869.59 3830.63 2870.59 4034.63 2871.59 3893.63 2872.59 3826.63 2873.59 3894.63 2873.59 4027.63 2874.59 4026.63 2875.59 3754.62 2876.59 3899.63 2877.59 4044.63 2878.59 3976.63 2878.59 4037.63 2879.59 3736.62 2880.59 4038.63 2881.59 3979.63 2882.59 3911.63 2883.59 4044.63 2884.59 3868.63 2884.59 3757.62 2885.59 3927.63 2886.59 4038.63 2887.59 4009.63 2888.59 4005.63 2889.59 3786.62 2889.59 4035.63 2890.59 3845.63 2891.59 3945.63 2892.6 3994.63 2893.6 3852.63 2894.6 3945.63 2895.6 3862.63 2895.6 3749.62 2896.6 3766.62 2897.6 4042.63 2898.6 3782.62 2899.6 4047.63 2900.6 3781.62 2900.6 4046.63 2901.6 3999.63 2902.6 4046.63 2903.6 3797.62 2904.6 4049.63 2905.6 4050.63 2906.6 4046.63 2906.6 3853.63 2907.6 3984.63 2908.6 3744.62 2909.6 4011.63 2910.6 4009.63 2911.6 3937.63 2911.6 3874.63 2912.6 4037.63 2913.6 4051.63 2914.6 3901.63 2915.6 3871.63 2916.6 4051.63 2917.6 3869.63 2917.6 4051.63 2918.6 4051.63 2919.6 4033.63 2920.6 4051.63 2921.6 4051.63 2922.6 4051.63 2922.6 4048.63 2923.6 3889.63 2924.6 4048.63 2925.6 4051.63 2926.6 4049.63 2927.6 3926.63 2928.6 4014.63 2928.6 3918.63 2929.6 4041.63 2930.6 4051.63 2931.6 4051.63 2932.6 4011.63 2933.6 4051.63 2933.6 3904.63 2934.6 3867.63 2935.6 3761.62 2936.6 4046.63 2937.6 4044.63 2938.6 4009.63 2939.6 3902.63 2939.6 3751.62 2940.6 4036.63 2941.6 4004.63 2942.6 3935.63 2943.6 3929.63 2944.6 3761.62 2944.6 4038.63 2945.6 3793.62 2946.6 3809.62 2947.6 3777.62 2948.6 4045.63 2949.6 4012.63 2950.6 4041.63 2950.6 3861.63 2951.6 4035.63 2952.6 4036.63 2953.6 4000.63 2954.6 4001.63 2955.6 3998.63 2955.6 3927.63 2956.6 4047.63 2957.6 3993.63 2958.6 4051.63 2959.6 3763.62 2960.6 3880.63 2961.6 3997.63 2961.6 3775.62 2962.6 3948.63 2963.6 4044.63 2964.6 4039.63 2965.6 4015.63 2966.6 4008.63 2966.6 4007.63 2967.6 3909.63 2968.6 4003.63 2969.6 4032.63 2970.6 4031.63 2971.6 4046.63 2971.6 3930.63 2972.6 3805.62 2973.6 3784.62 2974.6 3765.62 2975.6 4034.63 2976.6 4047.63 2977.6 4004.63 2977.6 3812.63 2978.6 3889.63 2979.6 4045.63 2980.6 3996.63 2981.6 4038.63 2982.6 4036.63 2982.6 3892.63 2983.6 3860.63 2984.6 3996.63 2985.6 3841.63 2986.6 4049.63 2987.6 3825.63 2988.6 4006.63 2988.6 4051.63 2989.6 3759.62 2990.6 3837.63 2991.6 4051.63 2992.6 4037.63 2993.6 3750.62 2993.6 4050.63 2994.6 3858.63 2995.6 4018.63 2996.6 4018.63 2997.6 4051.63 2998.6 4051.63 2999.6 4050.63 2999.6 3992.63 3000.6 3871.63 3001.6 4048.63 3002.6 4043.63 3003.6 4039.63 3004.6 4016.63 3004.6 4013.63 3005.6 3879.63 3006.6 4049.63 3007.6 4005.63 3008.6 4042.63 3009.6 4003.63 3010.6 4036.63 3010.6 4007.63 3011.6 3998.63 3012.6 4039.63 3013.6 4039.63 3014.6 3790.62 3015.6 3792.62 3015.6 3996.63 3016.6 3929.63 3017.6 4017.63 3018.6 3804.62 3019.6 4011.63 3020.6 3989.63 3021.6 3764.62 3021.6 3945.63 3022.6 4005.63 3023.6 3885.63 3024.6 3763.62 3025.6 3744.62 3026.6 4048.63 3026.6 3858.63 3027.6 3962.63 3028.6 3793.62 3029.6 3762.62 3030.6 3859.63 3031.6 3995.63 3032.6 3890.63 3032.6 3748.62 3033.6 4035.63 3034.6 4047.63 3035.6 3992.63 3036.6 4041.63 3037.6 3985.63 3037.6 3869.63 3038.6 4033.63 3039.6 3810.62 3040.6 4028.63 3041.6 4035.63 3042.6 3742.62 3043.6 3989.63 3043.6 3956.63 3044.6 4041.63 3045.6 3991.63 3046.6 3986.63 3047.6 3898.63 3048.6 4043.63 3048.6 4044.63 3049.6 4044.63 3050.6 4046.63 3051.6 4044.63 3052.6 3954.63 3053.6 3907.63 3053.6 3805.62 3054.6 4046.63 3055.6 4043.63 3056.6 3817.63 3057.6 3818.63 3058.6 4039.63 3059.6 3779.62 3059.6 4046.63 3060.6 3801.62 3061.6 3796.62 3062.6 4042.63 3063.6 3742.62 3064.6 3960.63 3064.6 4049.63 3065.6 4049.63 3066.6 3777.62 3067.6 4048.63 3068.6 3957.63 3069.6 4012.63 3070.6 4047.63 3070.6 3922.63 3071.6 3885.63 3072.6 4012.63 3073.6 3923.63 3074.6 3789.62 3075.6 3943.63 3075.6 3939.63 3076.6 4051.63 3077.6 4050.63 3078.6 3840.63 3079.6 4051.63 3080.6 4051.63 3081.6 4050.63 3081.6 4046.63 3082.6 4014.63 3083.6 3749.62 3084.6 3908.63 3085.6 4017.63 3086.6 4045.63 3086.6 4051.63 3087.6 4051.63 3088.6 3745.62 3089.6 4044.63 3090.6 3873.63 3091.6 3760.62 3092.6 3891.63 3092.6 4051.63 3093.6 3824.63 3094.6 3810.62 3095.6 3769.62 3096.6 3752.62 3097.6 3934.63 3097.6 4039.63 3098.6 3910.63 3099.6 4028.63 3100.6 3986.63 3101.6 4038.63 3102.6 3816.63 3103.6 4034.63 3103.6 4034.63 3104.6 4042.63 3105.6 3891.63 3106.6 3746.62 3107.6 3886.63 3108.6 4048.63 3108.6 4045.63 3109.6 4044.63 3110.6 3954.63 3111.6 4007.63 3112.6 4002.63 3113.6 4048.63 3114.6 4048.63 3114.6 3840.63 3115.6 4003.63 3116.6 3958.63 3117.6 3952.63 3118.6 4044.63 3119.6 4011.63 3119.6 3942.63 3120.6 4036.63 3121.6 3997.63 3122.6 3899.63 3123.6 4044.63 3124.6 3851.63 3125.6 3810.62 3125.6 3982.63 3126.6 4044.63 3127.6 4043.63 3128.6 3817.63 3129.6 3860.63 3130.6 3950.63 3130.6 3737.62 3131.6 4005.63 3132.6 3770.62 3133.6 3739.62 3134.6 4003.63 3135.6 4000.63 3135.6 4042.63 3136.6 3909.63 3137.6 3933.63 3138.6 3995.63 3139.6 3996.63 3140.6 4042.63 3141.6 3994.63 3141.6 4002.63 3142.6 4002.63 3143.6 3813.63 3144.6 3986.63 3145.6 3981.63 3146.6 3827.63 3146.6 3759.62 3147.6 4051.63 3148.6 4046.63 3149.6 3821.63 3150.6 4018.63 3151.6 3874.63 3152.6 3842.63 3152.6 3845.63 3153.6 3949.63 3154.6 3859.63 3155.6 3917.63 3156.6 4050.63 3157.6 4048.63 3157.6 4047.63 3158.6 4050.63 3159.6 4051.63 3160.6 4051.63 3161.6 3872.63 3162.6 3790.62 3163.6 4051.63 3163.6 4016.63 3164.6 4017.63 3165.6 4014.63 3166.6 4015.63 3167.6 4037.63 3168.6 4006.63 3168.6 4050.63 3169.6 4017.63 3170.6 4051.63 3171.6 4051.63 3172.6 3804.62 3173.6 4038.63 3174.6 4049.63 3174.6 4050.63 3175.6 3815.63 3176.6 4050.63 3177.6 4051.63 3178.6 4012.63 3179.6 4014.63 3179.6 3892.63 3180.6 3885.63 3181.6 3926.63 3182.6 3880.63 3183.6 3859.63 3184.6 4005.63 3185.6 3869.63 3185.6 3984.63 3186.6 4030.63 3187.6 3850.63 3188.6 3976.63 3189.6 3760.62 3190.6 3795.62 3190.6 3999.63 3191.6 3850.63 3192.6 3742.62 3193.6 3855.63 3194.6 4001.63 3195.6 4050.63 3196.6 4003.63 3196.6 4012.63 3197.6 4041.63 3198.61 4037.63 3199.61 4048.63 3200.61 4009.63 3201.61 3952.63 3201.61 3874.63 3202.61 4018.63 3203.61 4010.63 3204.61 3738.62 3205.61 4000.63 3206.61 4037.63 3207.61 4032.63 3207.61 3991.63 3208.61 4042.63 3209.61 3988.63 3210.61 3938.63 3211.61 3916.63 3212.61 3827.63 3212.61 4033.63 3213.61 4042.63 3214.61 3851.63 3215.61 4011.63 3216.61 3848.63 3217.61 4039.63 3218.61 4034.63 3218.61 4031.63 3219.61 4035.63 3220.61 3828.63 3221.61 4043.63 3222.61 3853.63 3223.61 3771.62 3223.61 4051.63 3224.61 3998.63 3225.61 3902.63 3226.61 4006.63 3227.61 4001.63 3228.61 4024.63 3228.61 3783.62 3229.61 4008.63 3230.61 4013.63 3231.61 3879.63 3232.61 3802.62 3233.61 3869.63 3234.61 3932.63 3234.61 4050.63 3235.61 4038.63 3236.61 4013.63 3237.61 3924.63 3238.61 3769.62 3239.61 4051.63 3239.61 4017.63 3240.61 4051.63 3241.61 4049.63 3242.61 4016.63 3243.61 4051.63 3244.61 4051.63 3245.61 4050.63 3245.61 3931.63 3246.61 3863.63 3247.61 4051.63 3248.61 3871.63 3249.61 4050.63 3250.61 4014.63 3250.61 4014.63 3251.61 3928.63 3252.61 3887.63 3253.61 4048.63 3254.61 4041.63 3255.61 4017.63 3256.61 4044.63 3256.61 4007.63 3257.61 4004.63 3258.61 4011.63 3259.61 4016.63 3260.61 3774.62 3261.61 4050.63 3261.61 3844.63 3262.61 3880.63 3263.61 3777.62 3264.61 3892.63 3265.61 3792.62 3266.61 4051.63 3267.61 4050.63 3267.61 3928.63 3268.61 4050.63 3269.61 3792.62 3270.61 3790.62 3271.61 4051.63 3272.61 4050.63 3272.61 4050.63 3273.61 4045.63 3274.61 3957.63 3275.61 4044.63 3276.61 4046.63 3277.61 4041.63 3278.61 4012.63 3278.61 3768.62 3279.61 4051.63 3280.61 3809.62 3281.61 3992.63 3282.61 3993.63 3283.61 3842.63 3283.61 3740.62 3284.61 3744.62 3285.61 3990.63 3286.61 3947.63 3287.61 3933.63 3288.61 4037.63 3289.61 3998.63 3289.61 3797.62 3290.61 3997.63 3291.61 3947.63 3292.61 4051.63 3293.61 3782.62 3294.61 4051.63 3294.61 4051.63 3295.61 4051.63 3296.61 4037.63 3297.61 3738.62 3298.61 4035.63 3299.61 4007.63 3300.61 3859.63 3300.61 4003.63 3301.61 3917.63 3302.61 4040.63 3303.61 3994.63 3304.61 4050.63 3305.61 3752.62 3305.61 4051.63 3306.61 4050.63 3307.61 3776.62 3308.61 4017.63 3309.61 3777.62 3310.61 3886.63 3310.61 3806.62 3311.61 4019.63 3312.61 4050.63 3313.61 4038.63 3314.61 4052.63 3315.61 3878.63 3316.61 3946.63 3316.61 3859.63 3317.61 4050.63 3318.61 3884.63 3319.61 4045.63 3320.61 4016.63 3321.61 3840.63 3321.61 4007.63 3322.61 4051.63 3323.61 3770.62 3324.61 4051.63 3325.61 4050.63 3326.61 4045.63 3327.61 4010.63 3327.61 4017.63 3328.61 3842.63 3329.61 4050.63 3330.61 3961.63 3331.61 3896.63 3332.61 3738.62 3332.61 4044.63 3333.61 4051.63 3334.61 4016.63 3335.61 3873.63 3336.61 4019.63 3337.61 4014.63 3338.61 3737.62 3338.61 4051.63 3339.61 4051.63 3340.61 3743.62 3341.61 4044.63 3342.61 3788.62 3343.61 3857.63 3343.61 4014.63 3344.61 3927.63 3345.61 3916.63 3346.61 4010.63 3347.61 4050.63 3348.61 3933.63 3349.61 4018.63 3349.61 3883.63 3350.61 3935.63 3351.61 4051.63 3352.61 4050.63 3353.61 3881.63 3354.61 4012.63 3354.61 4051.63 3355.61 4016.63 3356.61 3812.63 3357.61 4051.63 3358.61 3922.63 3359.61 4051.63 3360.61 3862.63 3360.61 3929.63 3361.61 3867.63 3362.61 3767.62 3363.61 4050.63 3364.61 3924.63 3365.61 4052.63 3365.61 4017.63 3366.61 4018.63 3367.61 4050.63 3368.61 4051.63 3369.61 3767.62 3370.61 3960.63 3371.61 4047.63 3371.61 3795.62 3372.61 3841.63 3373.61 4049.63 3374.61 4047.63 3375.61 4051.63 3376.61 4050.63 3376.61 3890.63 3377.61 3803.62 3378.61 3906.63 3379.61 3880.63 3380.61 4017.63 3381.61 4016.63 3382.61 3844.63 3382.61 4050.63 3383.61 3888.63 3384.61 3920.63 3385.61 3950.63 3386.61 3869.63 3387.61 4046.63 3387.61 3850.63 3388.61 3847.63 3389.61 4016.63 3390.61 4051.63 3391.61 3759.62 3392.61 4019.63 3392.61 4050.63 3393.61 4048.63 3394.61 4018.63 3395.61 3814.63 3396.61 3868.63 3397.61 4010.63 3398.61 3846.63 3398.61 3919.63 3399.61 3885.63 3400.61 3781.62 3401.61 3847.63 3402.61 4045.63 3403.61 4051.63 3403.61 3846.63 3404.61 4049.63 3405.61 4050.63 3406.61 3953.63 3407.61 3815.63 3408.61 4019.63 3409.61 3820.63 3409.61 3871.63 3410.61 3846.63 3411.61 3928.63 3412.61 3807.62 3413.61 4051.63 3414.61 4015.63 3414.61 3911.63 3415.61 3859.63 3416.61 4043.63 3417.61 4051.63 3418.61 4048.63 3419.61 3823.63 3420.61 4015.63 3420.61 4050.63 3421.61 4048.63 3422.61 4051.63 3423.61 3344.61 3424.61 4013.63 3425.61 3957.63 3425.61 4050.63 3426.61 4048.63 3427.61 4046.63 3428.61 3992.63 3429.61 4014.63 3430.61 3771.62 3431.61 4008.63 3431.61 4058.5 3432.61 3791.62 3433.61 3999.63 3434.61 3998.63 3435.61 3998.63 3436.61 3996.63 3436.61 4015.63 3437.61 4013.63 3438.61 3770.62 3439.61 4008.63 3440.61 3886.63 3441.61 3962.63 3442.61 3854.63 3442.61 3907.63 3443.61 4043.63 3444.61 4043.63 3445.61 3971.63 3446.61 4038.63 3447.61 3990.63 3447.61 3949.63 3448.61 3803.62 3449.61 3875.63 3450.61 3780.62 3451.61 3863.63 3452.61 3921.63 3453.61 3996.63 3453.61 4023.63 3454.61 4022.63 3455.61 3997.63 3456.61 3737.62 3457.61 4034.63 3458.61 3937.63 3458.61 4031.63 3459.61 3984.63 3460.61 3952.63 3461.61 3860.63 3462.61 4042.63 3463.61 4045.63 3464.61 3944.63 3464.61 3929.63 3465.61 4044.63 3466.61 3788.62 3467.61 4047.63 3468.61 4046.63 3469.61 3944.63 3469.61 4001.63 3470.61 3946.63 3471.61 3824.63 3472.61 4039.63 3473.61 3999.63 3474.61 3934.63 3474.61 4038.63 3475.61 3994.63 3476.61 3782.62 3477.61 4036.63 3478.61 4044.63 3479.61 3865.63 3480.61 3803.62 3480.61 4050.63 3481.61 3993.63 3482.61 4051.63 3483.61 4000.63 3484.61 4046.63 3485.61 4007.63 3485.61 4051.63 3486.61 4013.63 3487.61 3755.62 3488.61 3756.62 3489.61 4017.63 3490.61 3918.63 3491.61 3749.62 3491.61 4009.63 3492.61 3750.62 3493.61 4050.63 3494.61 3746.62 3495.61 4041.63 3496.61 4049.63 3496.61 3739.62 3497.61 4047.63 3498.61 3823.63 3499.61 3795.62 3500.61 3773.62 3501.62 4048.63 3502.62 3750.62 3502.62 4050.63 3503.62 4043.63 3504.62 4006.63 3505.62 4046.63 3506.62 3933.63 3507.62 3805.62 3507.62 4041.63 3508.62 4042.63 3509.62 3854.63 3510.62 4040.63 3511.62 3788.62 3512.62 3999.63 3513.62 3941.63 3513.62 4041.63 3514.62 4043.63 3515.62 4043.63 3516.62 4049.63 3517.62 4049.63 3518.62 3805.62 3518.62 4001.63 3519.62 3915.63 3520.62 3826.63 3521.62 3741.62 3522.62 3833.63 3523.62 4038.63 3524.62 3988.63 3524.62 3905.63 3525.62 3739.62 3526.62 3763.62 3527.62 3738.62 3528.62 4042.63 3529.62 3888.63 3529.62 3991.63 3530.62 4046.63 3531.62 4048.63 3532.62 3996.63 3533.62 4049.63 3534.62 4050.63 3535.62 4049.63 3535.62 3939.63 3536.62 4014.63 3537.62 4009.63 3538.62 4051.63 3539.62 3912.63 3540.62 3817.63 3540.62 4049.63 3541.62 4047.63 3542.62 4011.63 3543.62 3941.63 3544.62 3958.63 3545.62 4041.63 3546.62 3998.63 3546.62 4047.63 3547.62 3941.63 3548.62 4007.63 3549.62 4051.63 3550.62 3760.62 3551.62 3961.63 3551.62 3866.63 3552.62 3875.63 3553.62 4051.63 3554.62 3932.63 3555.62 4050.63 3556.62 4051.63 3557.62 4050.63 3557.62 3943.63 3558.62 3792.62 3559.62 4051.63 3560.62 3783.62 3561.62 4051.63 3562.62 4051.63 3562.62 3873.63 3563.62 3820.63 3564.62 4051.63 3565.62 4052.63 3566.62 3910.63 3567.62 4052.63 3567.62 4050.63 3568.62 4051.63 3569.62 3881.63 3570.62 4050.63 3571.62 3748.62 3572.62 4039.63 3573.62 4015.63 3573.62 4042.63 3574.62 3829.63 3575.62 3911.63 3576.62 3843.63 3577.62 3872.63 3578.62 3952.63 3578.62 3980.63 3579.62 3835.63 3580.62 3945.63 3581.62 4047.63 3582.62 4050.63 3583.62 4000.63 3584.62 3946.63 3584.62 4044.63 3585.62 3925.63 3586.62 4044.63 3587.62 3815.63 3588.62 3900.63 3589.62 3836.63 3589.62 3995.63 3590.62 3997.63 3591.62 3908.63 3592.62 4049.63 3593.62 4039.63 3594.62 4006.63 3595.62 4048.63 3595.62 3920.63 3596.62 3874.63 3597.62 3997.63 3598.62 3819.63 3599.62 3948.63 3600.62 4010.63 3600.62 4049.63 3601.62 4008.63 3602.62 4056.63 3603.62 3799.62 3604.62 3878.63 3605.62 4004.63 3606.62 4043.63 3606.62 3851.63 3607.62 4004.63 3608.62 3905.63 3609.62 4015.63 3610.62 4007.63 3611.62 4038.63 3611.62 4000.63 3612.62 3799.62 3613.62 3868.63 3614.62 3998.63 3615.62 3813.63 3616.62 3999.63 3617.62 3768.62 3617.62 3844.63 3618.62 4041.63 3619.62 4012.63 3620.62 3889.63 3621.62 3754.62 3622.62 3800.62 3622.62 4012.63 3623.62 4014.63 3624.62 4050.63 3625.62 3915.63 3626.62 3806.62 3627.62 4048.63 3628.62 4014.63 3628.62 4051.63 3629.62 4051.63 3630.62 4017.63 3631.62 3828.63 3632.62 3799.62 3633.62 4051.63 3633.62 4051.63 3634.62 3746.62 3635.62 4015.63 3636.62 3777.62 3637.62 3923.63 3638.62 3852.63 3639.62 4018.63 3639.62 3846.63 3640.62 3828.63 3641.62 4014.63 3642.62 4050.63 3643.62 4051.63 3644.62 3804.62 3644.62 4050.63 3645.62 3944.63 3646.62 4050.63 3647.62 3759.62 3648.62 4051.63 3649.62 4050.63 3649.62 3771.62 3650.62 4051.63 3651.62 4051.63 3652.62 4050.63 3653.62 3872.63 3654.62 4016.63 3655.62 4050.63 3655.62 3850.63 3656.62 3748.62 3657.62 3825.63 3658.62 3950.63 3659.62 4006.63 3660.62 3868.63 3660.62 3252.61 3661.62 4051.63 3662.62 4005.63 3663.62 4051.63 3664.62 3857.63 3665.62 3871.63 3666.62 4050.63 3666.62 3844.63 3667.62 4017.63 3668.62 3916.63 3669.62 3916.63 3670.62 4016.63 3671.62 4020.63 3671.62 4052.63 3672.62 4017.63 3673.62 4014.63 3674.62 3819.63 3675.62 4050.63 3676.62 4050.63 3677.62 3921.63 3677.62 4050.63 3678.62 4014.63 3679.62 4018.63 3680.62 3870.63 3681.62 4041.63 3682.62 3903.63 3682.62 4018.63 3683.62 4010.63 3684.62 4051.63 3685.62 3846.63 3686.62 4005.63 3687.62 4013.63 3688.62 3928.63 3688.62 3823.63 3689.62 4051.63 3690.62 3805.62 3691.62 4018.63 3692.62 3868.63 3693.62 4050.63 3693.62 4051.63 3694.62 3924.63 3695.62 4050.63 3696.62 3795.62 3697.62 4050.63 3698.62 3843.63 3699.62 3922.63 3699.62 3777.62 3700.62 4052.63 3701.62 4007.63 3702.62 3943.63 3703.62 4051.63 3704.62 3804.62 3704.62 4052.63 3705.62 4051.63 3706.62 4050.63 3707.62 3766.62 3708.62 3910.63 3709.62 4051.63 3710.62 3960.63 3710.62 3757.62 3711.62 3811.63 3712.62 4049.63 3713.62 3805.62 3714.62 4049.63 3715.62 3887.63 3715.62 4018.63 3716.62 3153.6 3717.62 3935.63 3718.62 4018.63 3719.62 3855.63 3720.62 4050.63 3721.62 4049.63 3721.62 4050.63 3722.62 4050.63 3723.62 4050.63 3724.62 3871.63 3725.62 3828.63 3726.62 3916.63 3726.62 4051.63 3727.62 4051.63 3728.62 4014.63 3729.62 4051.63 3730.62 4050.63 3731.62 4044.63 3731.62 4051.63 3732.62 4051.63 3733.62 3957.63 3734.62 3951.63 3735.62 4052.63 3736.62 4050.63 3737.62 3899.63 3737.62 4050.63 3738.62 3919.63 3739.62 4050.63 3740.62 4051.63 3741.62 3868.63 3742.62 3999.63 3742.62 4016.63 3743.62 4052.63 3744.62 4050.63 3745.62 4051.63 3746.62 3782.62 3747.62 4052.63 3748.62 4015.63 3748.62 4051.63 3749.62 4051.63 3750.62 4051.63 3751.62 4019.63 3752.62 4051.63 3753.62 3953.63 3753.62 4051.63 3754.62 4050.63 3755.62 4020.63 3756.62 4050.63 3757.62 3754.62 3758.62 4015.63 3759.62 3949.63 3759.62 3803.62 3760.62 4045.63 3761.62 3757.62 3762.62 3857.63 3763.62 3856.63 3764.62 3811.63 3764.62 4051.63 3765.62 4051.63 3766.62 4017.63 3767.62 3841.63 3768.62 3880.63 3769.62 3860.63 3770.62 4051.63 3770.62 3953.63 3771.62 4019.63 3772.62 4050.63 3773.62 4016.63 3774.62 3775.62 3775.62 4014.63 3775.62 4015.63 3776.62 4051.63 3777.62 4046.63 3778.62 4052.63 3779.62 4051.63 3780.62 3939.63 3781.62 4051.63 3781.62 4051.63 3782.62 3743.62 3783.62 3932.63 3784.62 3928.63 3785.62 3951.63 3786.62 3941.63 3786.62 4050.63 3787.62 4051.63 3788.62 4051.63 3789.62 4017.63 3790.62 4051.63 3791.62 3897.63 3792.62 3797.62 3792.62 4051.63 3793.62 4051.63 3794.62 4050.63 3795.62 4047.63 3796.62 4007.63 3797.62 3927.63 3797.62 4051.63 3798.62 4051.63 3799.62 4018.63 3800.62 4017.63 3801.62 4052.63 3802.62 4014.63 3803.62 3845.63 3803.62 4051.63 3804.62 4050.63 3805.62 4050.63 3806.62 4051.63 3807.62 3949.63 3808.62 4050.63 3808.62 3772.62 3809.63 4014.63 3810.63 4051.63 3811.63 3935.63 3812.63 4051.63 3813.63 3809.62 3813.63 4050.63 3814.63 4051.63 3815.63 4041.63 3816.63 4051.63 3817.63 3850.63 3818.63 3806.62 3819.63 3776.62 3819.63 4050.63 3820.63 4016.63 3821.63 4051.63 3822.63 4008.63 3823.63 3936.63 3824.63 4050.63 3824.63 4050.63 3825.63 4050.63 3826.63 3912.63 3827.63 4050.63 3828.63 3826.63 3829.63 3827.63 3830.63 3846.63 3830.63 4017.63 3831.63 3767.62 3832.63 4015.63 3833.63 4008.63 3834.63 4051.63 3835.63 3892.63 3835.63 4051.63 3836.63 3748.62 3837.63 3743.62 3838.63 4051.63 3839.63 4010.63 3840.63 4051.63 3841.63 3761.62 3841.63 3882.63 3842.63 4019.63 3843.63 3844.63 3844.63 3801.62 3845.63 4020.63 3846.63 3796.62 3846.63 4052.63 3847.63 3859.63 3848.63 4051.63 3849.63 3137.6 3850.63 4038.63 3851.63 3840.63 3852.63 4039.63 3852.63 3885.63 3853.63 4051.63 3854.63 3790.62 3855.63 3890.63 3856.63 4051.63 3857.63 3749.62 3857.63 3821.63 3858.63 4017.63 3859.63 4015.63 3860.63 4037.63 3861.63 4051.63 3862.63 3946.63 3863.63 3756.62 3863.63 3769.62 3864.63 4051.63 3865.63 3810.62 3866.63 3888.63 3867.63 3875.63 3868.63 4050.63 3868.63 4010.63 3869.63 4051.63 3870.63 4051.63 3871.63 4052.63 3872.63 4050.63 3873.63 4015.63 3874.63 4050.63 3874.63 4016.63 3875.63 3780.62 3876.63 4050.63 3877.63 4049.63 3878.63 4051.63 3879.63 3746.62 3879.63 3858.63 3880.63 4050.63 3881.63 3871.63 3882.63 4051.63 3883.63 4049.63 3884.63 4052.63 3885.63 3835.63 3885.63 3894.63 3886.63 3132.6 3887.63 3944.63 3888.63 4046.63 3889.63 4047.63 3890.63 4049.63 3890.63 4050.63 3891.63 4014.63 3892.63 3915.63 3893.63 3957.63 3894.63 4014.63 3895.63 4051.63 3896.63 3929.63 3896.63 4035.63 3897.63 4016.63 3898.63 4051.63 3899.63 3783.62 3900.63 4050.63 3901.63 3804.62 3901.63 3827.63 3902.63 3952.63 3903.63 4050.63 3904.63 3946.63 3905.63 3827.63 3906.63 4050.63 3906.63 3861.63 3907.63 4050.63 3908.63 3873.63 3909.63 3907.63 3910.63 4014.63 3911.63 4051.63 3912.63 4015.63 3912.63 4049.63 3913.63 4050.63 3914.63 4014.63 3915.63 3796.62 3916.63 4050.63 3917.63 3881.63 3917.63 4050.63 3918.63 3735.62 3919.63 4014.63 3920.63 4051.63 3921.63 3935.63 3922.63 3853.63 3923.63 4051.63 3923.63 3132.6 3924.63 3750.62 3925.63 3735.62 3926.63 3791.62 3927.63 3853.63 3928.63 3949.63 3928.63 3774.62 3929.63 4050.63 3930.63 4051.63 3931.63 3912.63 3932.63 3783.62 3933.63 3896.63 3934.63 4051.63 3934.63 3888.63 3935.63 4050.63 3936.63 4052.63 3937.63 4050.63 3938.63 3838.63 3939.63 4039.63 3939.63 4015.63 3940.63 4018.63 3941.63 3781.62 3942.63 4050.63 3943.63 3766.62 3944.63 4050.63 3945.63 4015.63 3945.63 3814.63 3946.63 4049.63 3947.63 4038.63 3948.63 4014.63 3949.63 3770.62 3950.63 3904.63 3950.63 4018.63 3951.63 4050.63 3952.63 4014.63 3953.63 4051.63 3954.63 4051.63 3955.63 4051.63 3956.63 4051.63 3956.63 3761.62 3957.63 4051.63 3958.63 3801.62 3959.63 4051.63 3960.63 4051.63 3961.63 4051.63 3961.63 3812.63 3962.63 3846.63 3963.63 4051.63 3964.63 4051.63 3965.63 4051.63 3966.63 4051.63 3967.63 3877.63 3967.63 4051.63 3968.63 4016.63 3969.63 4051.63 3970.63 4052.63 3971.63 3920.63 3972.63 4013.63 3972.63 4051.63 3973.63 3764.62 3974.63 3736.62 3975.63 4051.63 3976.63 3814.63 3977.63 3768.62 3978.63 3862.63 3978.63 4017.63 3979.63 4019.63 3980.63 4050.63 3981.63 4020.63 3982.63 3809.62 3983.63 4015.63 3983.63 4051.63 3984.63 3829.63 3985.63 3948.63 3986.63 4052.63 3987.63 3766.62 3988.63 3896.63 3988.63 4015.63 3989.63 3826.63 3990.63 4016.63 3991.63 3937.63 3992.63 4051.63 3993.63 4051.63 3994.63 3752.62 3994.63 4051.63 3995.63 3848.63 3996.63 4020.63 3997.63 4051.63 3998.63 3859.63 3999.63 4051.63 3999.63 4050.63 4000.63 4017.63 4001.63 3932.63 4002.63 3931.63 4003.63 3938.63 4004.63 3968.63 4005.63 4039.63 4005.63 4051.63 4006.63 3860.63 4007.63 3802.62 4008.63 4014.63 4009.63 4015.63 4010.63 4051.63 4010.63 3745.62 4011.63 3897.63 4012.63 4050.63 4013.63 3996.63 4014.63 4051.63 4015.63 4051.63 4016.63 4051.63 4016.63 4041.63 4017.63 4051.63 4018.63 4051.63 4019.63 3763.62 4020.63 4051.63 4021.63 4051.63 4021.63 3917.63 4022.63 4016.63 4023.63 3956.63 4024.63 3736.62 4025.63 4016.63 4026.63 3902.63 4027.63 3792.62 4027.63 4014.63 4028.63 4007.63 4029.63 4049.63 4030.63 4050.63 4031.63 3916.63 4032.63 3923.63 4032.63 4019.63 4033.63 4048.63 4034.63 4017.63 4035.63 3788.62 4036.63 4051.63 4037.63 4006.63 4038.63 3754.62 4038.63 3864.63 4039.63 3917.63 4040.63 3742.62 4041.63 4050.63 4042.63 3790.62 4043.63 4013.63 4043.63 4012.63 4044.63 4001.63 4045.63 4049.63 4046.63 3826.63 4047.63 4006.63 4048.63 3889.63 4049.63 4050.63 4049.63 4042.63 4050.63 3870.63 4051.63 4051.63 4052.63 3850.63 4053.63 3786.62 4054.63 4050.63 4054.63 3799.62 4055.63 4051.63 4056.63 4043.63 4057.63 4051.63 4058.63 4016.63 4059.63 3803.62 4060.63 3737.62 4060.63 4050.63 4061.63 3901.63 4062.63 3934.63 4063.63 3998.63 4064.63 3794.62 4065.63 3864.63 4065.63 3751.62 4066.63 3923.63 4067.63 3816.63 4068.63 3751.62 4069.63 4045.63 4070.63 4043.63 4070.63 3869.63 4071.63 3816.63 4072.63 3824.63 4073.63 4016.63 4074.63 3841.63 4075.63 3752.62 4076.63 3957.63 4076.63 3737.62 4077.63 3948.63 4078.63 3795.62 4079.63 4011.63 4080.63 4010.63 4081.63 3945.63 4081.63 3933.63 4082.63 4050.63 4083.63 4050.63 4084.63 4050.63 4085.63 4013.63 4086.63 3787.62 4087.63 3800.62 4087.63 3741.62 4088.63 4050.63 4089.63 4039.63 4090.63 3868.63 4091.63 3953.63 4092.63 4013.63 4092.63 4051.63 4093.63 3924.63 4094.63 3790.62 4095.63 3933.63 4096.63 4044.63 4097.63 3943.63 4098.63 3768.62 4098.63 4015.63 4099.63 4051.63 4100.63 3120.5 4101.63 4013.63 4102.63 4048.63 4103.63 3860.63 4103.63 3887.63 4104.63 3850.63 4105.63 3837.63 4106.63 4020.63 4107.63 4051.63 4108.63 3776.62 4109.63 3836.63 4109.63 4051.63 4110.63 4017.63 4111.64 4050.63 4112.64 3774.62 4113.64 3897.63 4114.64 4049.63 4114.64 4015.63 4115.64 3783.62 4116.64 3855.63 4117.64 3767.62 4118.64 4017.63 4119.64 4050.63 4120.64 3944.63 4120.64 4051.63 4121.64 4018.63 4122.64 4050.63 4123.64 4051.63 4124.64 3782.62 4125.64 3818.63 4125.64 3943.63 4126.64 3772.62 4127.64 3739.62 4128.64 4016.63 4129.64 4052.63 4130.64 3736.62 4131.64 4016.63 4131.64 4018.63 4132.64 4051.63 4133.64 3744.62 4134.64 4050.63 4135.64 4051.63 4136.64 4016.63 4136.64 3850.63 4137.64 4016.63 4138.64 4044.63 4139.64 4043.63 4140.64 4051.63 4141.64 3877.63 4142.64 4050.63 4142.64 4052.63 4143.64 3763.62 4144.64 4046.63 4145.64 3761.62 4146.64 3765.62 4147.64 3910.63 4147.64 3902.63 4148.64 4050.63 4149.64 3780.62 4150.64 4036.63 4151.64 4047.63 4152.64 4047.63 4152.64 4050.63 4153.64 4050.63 4154.64 4041.63 4155.64 4018.63 4156.64 4038.63 4157.64 4009.63 4158.64 4015.63 4158.64 4037.63 4159.64 3919.63 4160.64 3894.63 4161.64 3874.63 4162.64 4047.63 4163.64 3861.63 4163.64 4047.63 4164.64 4017.63 4165.64 4044.63 4166.64 3805.62 4167.64 3794.62 4168.64 4030.63 4169.64 4005.63 4169.64 4041.63 4170.64 4039.63 4171.64 4038.63 4172.64 3749.62 4173.64 3740.62 4174.64 4051.63 4174.64 3772.62 4175.64 3991.63 4176.64 3740.62 4177.64 4038.63 4178.64 3969.63 4179.64 3993.63 4180.64 4047.63 4180.64 3976.63 4181.64 3851.63 4182.64 4043.63 4183.64 4042.63 4184.64 4043.63 4185.64 4051.63 4185.64 4052.63 4186.64 3768.62 4187.64 3944.63 4188.64 3944.63 4189.64 4004.63 4190.64 3736.62 4191.64 4014.63 4191.64 3880.63 4192.64 3738.62 4193.64 4016.63 4194.64 4052.63 4195.64 3866.63 4196.64 4051.63 4196.64 3867.63 4197.64 4051.63 4198.64 4051.63 4199.64 4051.63 4200.64 4051.63 4201.64 4048.63 4202.64 4018.63 4202.64 4051.63 4203.64 4048.63 4204.64 3805.62 4205.64 4052.63 4206.64 3945.63 4207.64 4048.63 4207.64 3938.63 4208.64 4048.63 4209.64 3754.62 4210.64 4051.63 4211.64 3881.63 4212.64 4050.63 4213.64 3863.63 4213.64 3748.62 4214.64 4044.63 4215.64 4015.63 4216.64 3952.63 4217.64 3933.63 4218.64 3935.63 4218.64 4046.63 4219.64 3758.62 4220.64 3844.63 4221.64 4043.63 4222.64 4007.63 4223.64 3834.63 4224.64 4041.63 4224.64 3985.63 4225.64 4042.63 4226.64 4039.63 4227.64 3781.62 4228.64 3979.63 4229.64 3949.63 4229.64 3905.63 4230.64 4041.63 4231.64 3981.63 4232.64 4035.63 4233.64 3827.63 4234.64 4037.63 4235.64 3919.63 4235.64 4050.63 4236.64 4013.63 4237.64 3806.62 4238.64 3782.62 4239.64 4043.63 4240.64 3903.63 4240.64 4009.63 4241.64 4049.63 4242.64 4040.63 4243.64 3852.63 4244.64 4007.63 4245.64 4039.63 4245.64 4016.63 4246.64 3957.63 4247.64 4007.63 4248.64 3738.62 4249.64 4001.63 4250.64 4040.63 4251.64 3951.63 4251.64 3866.63 4252.64 4016.63 4253.64 3954.63 4254.64 3872.63 4255.64 3865.63 4256.64 3858.63 4256.64 4048.63 4257.64 4049.63 4258.64 4049.63 4259.64 4051.63 4260.64 4016.63 4261.64 4050.63 4262.64 4013.63 4262.64 4004.63 4263.64 4001.63 4264.64 4041.63 4265.64 3762.62 4266.64 4050.63 4267.64 3853.63 4267.64 4050.63 4268.64 4050.63 4269.64 4050.63 4270.64 4051.63 4271.64 4050.63 4272.64 4051.63 4273.64 4036.63 4273.64 4033.63 4274.64 4035.63 4275.64 3916.63 4276.64 4015.63 4277.64 3908.63 4278.64 4035.63 4278.64 4010.63 4279.64 3864.63 4280.64 3811.63 4281.64 3857.63 4282.64 3872.63 4283.64 4043.63 4284.64 4042.63 4284.64 3988.63 4285.64 3999.63 4286.64 3998.63 4287.64 4027.63 4288.64 4039.63 4289.64 3998.63 4289.64 4043.63 4290.64 3923.63 4291.64 3991.63 4292.64 3902.63 4293.64 3814.63 4294.64 3804.62 4295.64 3996.63 4295.64 3807.62 4296.64 3811.63 4297.64 3760.62 4298.64 3838.63 4299.64 4029.63 4300.64 4002.63 4300.64 4002.63 4301.64 4004.63 4302.64 3996.63 4303.64 4047.63 4304.64 3850.63 4305.64 3995.63 4306.64 3946.63 4306.64 3792.62 4307.64 3922.63 4308.64 4045.63 4309.64 3989.63 4310.64 4051.63 4311.64 4051.63 4311.64 3824.63 4312.64 4050.63 4313.64 4016.63 4314.64 4036.63 4315.64 3863.63 4316.64 3744.62 4317.64 3844.63 4317.64 3960.63 4318.64 4035.63 4319.64 3777.62 4320.64 4051.63 4321.64 4051.63 4322.64 3802.62 4322.64 3875.63 4323.64 4051.63 4324.64 4052.63 4325.64 4051.63 4326.64 3797.62 4327.64 3847.63 4327.64 3820.63 4328.64 3847.63 4329.64 3848.63 4330.64 3877.63 4331.64 3761.62 4332.64 3758.62 4333.64 4047.63 4333.64 4047.63 4334.64 4018.63 4335.64 4020.63 4336.64 4046.63 4337.64 4045.63 4338.64 3872.63 4338.64 3828.63 4339.64 3772.62 4340.64 3802.62 4341.64 3940.63 4342.64 3869.63 4343.64 4035.63 4344.64 4035.63 4344.64 4049.63 4345.64 4000.63 4346.64 4030.63 4347.64 3941.63 4348.64 3996.63 4349.64 4000.63 4349.64 3803.62 4350.64 4048.63 4351.64 4026.63 4352.64 4028.63 4353.64 4037.63 4354.64 4034.63 4355.64 3982.63 4355.64 4047.63 4356.64 4047.63 4357.64 4034.63 4358.64 4036.63 4359.64 3945.63 4360.64 4047.63 4360.64 4033.63 4361.64 3976.63 4362.64 3880.63 4363.64 3778.62 4364.64 3978.63 4365.64 4043.63 4366.64 4043.63 4366.64 3866.63 4367.64 3863.63 4368.64 4031.63 4369.64 3857.63 4370.64 3802.62 4371.64 3993.63 4371.64 3832.63 4372.64 4034.63 4373.64 3999.63 4374.64 3808.62 4375.64 4046.63 4376.64 3789.62 4377.64 4047.63 4377.64 4047.63 4378.64 3998.63 4379.64 3994.63 4380.64 4037.63 4381.64 4048.63 4382.64 3788.62 4382.64 4044.63 4383.64 4036.63 4384.64 4032.63 4385.64 3866.63 4386.64 3997.63 4387.64 3829.63 4388.64 3866.63 4388.64 3834.63 4389.64 4039.63 4390.64 4038.63 4391.64 4000.63 4392.64 3745.62 4393.64 4041.63 4393.64 4000.63 4394.64 3805.62 4395.64 4046.63 4396.64 4044.63 4397.64 3897.63 4398.64 3888.63 4399.64 4044.63 4399.64 3869.63 4400.64 3951.63 4401.64 3760.62 4402.64 3810.62 4403.64 3812.63 4404.64 4008.63 4404.64 3752.62 4405.64 4050.63 4406.64 4011.63 4407.64 3904.63 4408.65 4017.63 4409.65 3912.63 4409.65 4051.63 4410.65 4050.63 4411.65 4051.63 4412.65 4051.63 4413.65 4051.63 4414.65 4021.63 4415.65 4016.63 4415.65 4051.63 4416.65 4051.63 4417.65 3779.62 4418.65 3755.62 4419.65 3991.63 4420.65 4047.63 4420.65 4048.63 4421.65 4045.63 4422.65 4003.63 4423.65 4039.63 4424.65 4041.63 4425.65 3776.62 4426.65 3833.63 4426.65 4052.63 4427.65 3957.63 4428.65 4049.63 4429.65 3941.63 4430.65 4010.63 4431.65 4047.63 4431.65 4044.63 4432.65 4044.63 4433.65 4044.63 4434.65 4044.63 4435.65 3929.63 4436.65 3819.63 4437.65 4035.63 4437.65 3783.62 4438.65 3860.63 4439.65 3948.63 4440.65 4035.63 4441.65 4041.63 4442.65 4035.63 4442.65 4000.63 4443.65 4004.63 4444.65 3865.63 4445.65 3776.62 4446.65 4036.63 4447.65 3865.63 4448.65 3770.62 4448.65 4034.63 4449.65 4033.63 4450.65 3877.63 4451.65 3981.63 4452.65 3855.63 4453.65 3886.63 4453.65 3807.62 4454.65 4051.63 4455.65 4048.63 4456.65 3748.62 4457.65 3995.63 4458.65 3919.63 4459.65 4041.63 4459.65 3922.63 4460.65 3922.63 4461.65 4045.63 4462.65 4045.63 4463.65 3810.62 4464.65 3784.62 4464.65 4002.63 4465.65 3997.63 4466.65 3828.63 4467.65 3967.63 4468.65 3766.62 4469.65 3942.63 4470.65 4046.63 4470.65 4027.63 4471.65 4026.63 4472.65 4031.63 4473.65 3962.63 4474.65 4039.63 4475.65 4047.63 4475.65 3869.63 4476.65 4039.63 4477.65 3997.63 4478.65 4039.63 4479.65 4038.63 4480.65 4002.63 4481.65 3845.63 4481.65 4038.63 4482.65 3861.63 4483.65 3997.63 4484.65 4007.63 4485.65 4043.63 4486.65 3898.63 4486.65 3840.63 4487.65 3878.63 4488.65 3999.63 4489.65 3947.63 4490.65 3920.63 4491.65 4047.63 4491.65 3917.63 4492.65 3931.63 4493.65 4014.63 4494.65 3957.63 4495.65 3805.62 4496.65 4016.63 4497.65 3770.62 4497.65 4051.63 4498.65 4051.63 4499.65 4051.63 4500.65 4051.63 4501.65 4051.63 4502.65 4017.63 4502.65 4050.63 4503.65 4046.63 4504.65 3768.62 4505.65 4045.63 4506.65 4016.63 4507.65 4013.63 4508.65 4012.63 4508.65 4011.63 4509.65 3973.63 4510.65 3811.63 4511.65 4045.63 4512.65 3933.63 4513.65 4049.63 4513.65 3752.62 4514.65 3765.62 4515.65 3951.63 4516.65 3913.63 4517.65 3913.63 4518.65 4039.63 4519.65 3762.62 4519.65 4034.63 4520.65 3883.63 4521.65 4007.63 4522.65 4002.63 4523.65 3808.62 4524.65 4038.63 4524.65 4006.63 4525.65 3840.63 4526.65 3922.63 4527.65 3768.62 4528.65 4010.63 4529.65 3916.63 4530.65 4027.63 4530.65 4010.63 4531.65 3880.63 4532.65 4009.63 4533.65 3752.62 4534.65 3759.62 4535.65 3849.63 4535.65 4051.63 4536.65 4051.63 4537.65 4050.63 4538.65 4050.63 4539.65 4051.63 4540.65 4014.63 4541.65 3791.62 4541.65 3776.62 4542.65 4016.63 4543.65 3791.62 4544.65 3737.62 4545.65 3782.62 4546.65 4011.63 4546.65 3922.63 4547.65 3769.62 4548.65 4015.63 4549.65 4033.63 4550.65 3779.62 4551.65 3897.63 4552.65 4051.63 4552.65 4051.63 4553.65 4051.63 4554.65 4052.63 4555.65 4051.63 4556.65 4051.63 4557.65 3853.63 4557.65 4052.63 4558.65 4016.63 4559.65 4015.63 4560.65 3928.63 4561.65 3817.63 4562.65 3803.62 4563.65 4009.63 4563.65 4026.63 4564.65 3878.63 4565.65 3878.63 4566.65 3860.63 4567.65 4050.63 4568.65 3850.63 4568.65 4050.63 4569.65 4045.63 4570.65 4045.63 4571.65 3986.63 4572.65 4051.63 4573.65 4008.63 4574.65 4018.63 4574.65 3752.62 4575.65 3910.63 4576.65 3878.63 4577.65 3909.63 4578.65 4011.63 4579.65 3783.62 4579.65 3823.63 4580.65 4050.63 4581.65 3831.63 4582.65 3876.63 4583.65 3825.63 4584.65 3911.63 4584.65 3780.62 4585.65 4050.63 4586.65 3922.63 4587.65 4035.63 4588.65 4050.63 4589.65 3880.63 4590.65 4018.63 4590.65 4015.63 4591.65 4016.63 4592.65 3765.62 4593.65 3871.63 4594.65 3791.62 4595.65 3904.63 4595.65 3992.63 4596.65 3836.63 4597.65 4051.63 4598.65 4050.63 4599.65 4051.63 4600.65 4051.63 4601.65 4051.63 4601.65 4050.63 4602.65 4051.63 4603.65 4017.63 4604.65 4051.63 4605.65 4018.63 4606.65 3870.63 4606.65 3828.63 4607.65 3755.62 4608.65 3803.62 4609.65 4020.63 4610.65 3874.63 4611.65 4048.63 4612.65 4050.63 4612.65 4051.63 4613.65 4017.63 4614.65 3926.63 4615.65 4044.63 4616.65 4051.63 4617.65 4050.63 4617.65 4050.63 4618.65 4003.63 4619.65 4051.63 4620.65 4049.63 4621.65 3999.63 4622.65 3841.63 4623.65 4003.63 4623.65 4049.63 4624.65 4000.63 4625.65 3902.63 4626.65 3781.62 4627.65 3933.63 4628.65 4013.63 4628.65 3738.62 4629.65 3955.63 4630.65 4051.63 4631.65 3888.63 4632.65 4050.63 4633.65 4051.63 4634.65 4050.63 4634.65 4042.63 4635.65 4051.63 4636.65 4051.63 4637.65 4015.63 4638.65 4017.63 4639.65 3750.62 4639.65 3346.61 4640.65 4015.63 4641.65 3841.63 4642.65 3775.62 4643.65 4051.63 4644.65 4051.63 4645.65 4050.63 4645.65 4043.63 4646.65 4017.63 4647.65 4048.63 4648.65 4016.63 4649.65 4019.63 4650.65 4014.63 4650.65 3848.63 4651.65 3812.63 4652.65 4012.63 4653.65 4020.63 4654.65 3753.62 4655.65 3827.63 4656.65 3779.62 4656.65 4051.63 4657.65 4050.63 4658.65 4015.63 4659.65 3793.62 4660.65 4049.63 4661.65 4050.63 4661.65 4016.63 4662.65 3744.62 4663.65 4050.63 4664.65 4017.63 4665.65 4050.63 4666.65 3870.63 4666.65 4015.63 4667.65 3921.63 4668.65 3882.63 4669.65 3902.63 4670.65 3774.62 4671.65 4051.63 4672.65 3753.62 4672.65 3884.63 4673.65 4011.63 4674.65 3920.63 4675.65 4051.63 4676.65 4051.63 4677.65 4051.63 4677.65 3865.63 4678.65 3960.63 4679.65 4018.63 4680.65 4017.63 4681.65 4015.63 4682.65 3823.63 4683.65 3926.63 4683.65 3921.63 4684.65 4050.63 4685.65 4051.63 4686.65 4020.63 4687.65 4016.63 4688.65 4017.63 4688.65 3872.63 4689.65 3807.62 4690.65 3900.63 4691.65 4050.63 4692.65 4051.63 4693.65 4051.63 4694.65 4027.63 4694.65 4012.63 4695.65 4017.63 4696.65 3775.62 4697.65 4041.63 4698.65 4016.63 4699.65 4051.63 4699.65 3987.63 4700.65 4050.63 4701.65 4050.63 4702.65 4016.63 4703.65 4021.63 4704.65 4018.63 4705.65 3930.63 4705.65 3941.63 4706.65 3746.62 4707.65 3802.62 4708.65 4051.63 4709.65 4051.63 4710.65 3798.62 4710.65 3736.62 4711.65 3769.62 4712.65 3792.62 4713.65 4051.63 4714.65 4016.63 4715.65 3882.63 4716.65 3823.63 4716.65 3959.63 4717.66 3785.62 4718.66 4051.63 4719.66 4050.63 4720.66 4052.63 4721.66 4050.63 4721.66 4051.63 4722.66 3759.62 4723.66 4051.63 4724.66 3930.63 4725.66 3751.62 4726.66 4051.63 4727.66 3862.63 4727.66 3747.62 4728.66 4050.63 4729.66 4051.63 4730.66 4007.63 4731.66 3798.62 4732.66 4051.63 4732.66 4015.63 4733.66 4051.63 4734.66 4020.63 4735.66 4051.63 4736.66 4051.63 4737.66 4051.63 4738.66 4017.63 4738.66 3806.62 4739.66 3784.62 4740.66 4051.63 4741.66 3764.62 4742.66 3956.63 4743.66 4018.63 4743.66 4051.63 4744.66 4050.63 4745.66 4017.63 4746.66 4052.63 4747.66 4050.63 4748.66 4052.63 4748.66 4051.63 4749.66 4050.63 4750.66 4017.63 4751.66 4051.63 4752.66 4051.63 4753.66 4051.63 4754.66 3913.63 4754.66 4015.63 4755.66 3835.63 4756.66 3740.62 4757.66 3885.63 4758.66 3754.62 4759.66 3766.62 4759.66 4051.63 4760.66 4052.63 4761.66 4051.63 4762.66 4048.63 4763.66 4050.63 4764.66 3884.63 4765.66 3912.63 4765.66 3867.63 4766.66 4016.63 4767.66 4015.63 4768.66 3784.62 4769.66 3855.63 4770.66 3772.62 4770.66 4050.63 4771.66 3830.63 4772.66 4050.63 4773.66 4052.63 4774.66 4051.63 4775.66 4051.63 4776.66 4016.63 4776.66 3862.63 4777.66 3923.63 4778.66 3942.63 4779.66 4015.63 4780.66 3942.63 4781.66 4051.63 4781.66 4018.63 4782.66 4015.63 4783.66 3929.63 4784.66 3863.63 4785.66 3787.62 4786.66 3812.63 4787.66 3790.62 4787.66 4050.63 4788.66 4051.63 4789.66 4051.63 4790.66 4016.63 4791.66 4017.63 4792.66 3892.63 4792.66 3888.63 4793.66 3834.63 4794.66 4050.63 4795.66 4052.63 4796.66 4051.63 4797.66 4051.63 4798.66 4020.63 4798.66 4015.63 4799.66 4006.63 4800.66 4049.63 4801.66 3829.63 4802.66 4044.63 4803.66 4048.63 4803.66 4006.63 4804.66 3923.63 4805.66 4049.63 4806.66 4049.63 4807.66 4052.63 4808.66 4052.63 4809.66 4024.63 4809.66 4043.63 4810.66 4043.63 4811.66 3895.63 4812.66 4018.63 4813.66 3843.63 4814.66 4015.63 4814.66 3865.63 4815.66 4050.63 4816.66 4050.63 4817.66 4051.63 4818.66 4050.63 4819.66 4051.63 4820.66 4051.63 4820.66 4050.63 4821.66 3883.63 4822.66 4050.63 4823.66 3814.63 4824.66 3879.63 4825.66 4051.63 4825.66 4051.63 4826.66 4050.63 4827.66 4015.63 4828.66 4050.63 4829.66 4051.63 4830.66 4051.63 4830.66 4050.63 4831.66 3735.62 4832.66 4051.63 4833.66 3940.63 4834.66 4051.63 4835.66 3747.62 4836.66 4051.63 4836.66 4050.63 4837.66 4016.63 4838.66 4051.63 4839.66 4051.63 4840.66 4008.63 4841.66 3861.63 4841.66 3873.63 4842.66 4051.63 4843.66 3849.63 4844.66 4051.63 4845.66 4051.63 4846.66 3996.63 4847.66 4001.63 4847.66 4048.63 4848.66 3996.63 4849.66 3871.63 4850.66 4051.63 4851.66 4051.63 4852.66 3943.63 4852.66 3944.63 4853.66 3928.63 4854.66 3753.62 4855.66 4050.63 4856.66 4050.63 4857.66 4050.63 4858.66 4052.63 4858.66 4051.63 4859.66 4021.63 4860.66 3837.63 4861.66 3793.62 4862.66 3882.63 4863.66 3875.63 4863.66 3744.62 4864.66 3842.63 4865.66 4050.63 4866.66 4049.63 4867.66 4050.63 4868.66 4008.63 4869.66 4008.63 4869.66 3782.62 4870.66 3875.63 4871.66 3741.62 4872.66 3844.63 4873.66 3743.62 4874.66 4051.63 4874.66 4050.63 4875.66 4052.63 4876.66 3947.63 4877.66 4051.63 4878.66 3871.63 4879.66 4010.63 4880.66 4015.63 4880.66 4009.63 4881.66 3907.63 4882.66 4051.63 4883.66 4051.63 4884.66 4051.63 4885.66 4051.63 4885.66 4017.63 4886.66 4041.63 4887.66 3751.62 4888.66 3939.63 4889.66 3821.63 4890.66 4008.63 4891.66 3857.63 4891.66 3865.63 4892.66 4050.63 4893.66 3813.63 4894.66 4051.63 4895.66 4051.63 4896.66 3781.62 4896.66 3747.62 4897.66 4047.63 4898.66 4050.63 4899.66 4050.63 4900.66 4050.63 4901.66 4018.63 4902.66 4050.63 4902.66 3803.62 4903.66 3872.63 4904.66 3736.62 4905.66 4016.63 4906.66 3956.63 4907.66 4051.63 4907.66 3780.62 4908.66 3782.62 4909.66 3736.62 4910.66 4050.63 4911.66 4050.63 4912.66 4051.63 4913.66 4051.63 4913.66 4052.63 4914.66 4015.63 4915.66 4016.63 4916.66 3959.63 4917.66 3775.62 4918.66 3933.63 4918.66 3789.62 4919.66 4020.63 4920.66 3896.63 4921.66 4020.63 4922.66 4022.63 4923.66 4035.63 4923.66 3741.62 4924.66 4050.63 4925.66 4050.63 4926.66 4042.63 4927.66 4051.63 4928.66 4015.63 4929.66 3744.62 4929.66 4015.63 4930.66 4042.63 4931.66 3814.63 4932.66 3816.63 4933.66 3836.63 4934.66 4014.63 4934.66 3895.63 4935.66 3864.63 4936.66 4050.63 4937.66 4050.63 4938.66 3771.62 4939.66 4047.63 4940.66 4050.63 4940.66 4012.63 4941.66 3870.63 4942.66 4050.63 4943.66 4051.63 4944.66 4046.63 4945.66 3833.63 4945.66 4042.63 4946.66 3824.63 4947.66 4051.63 4948.66 3927.63 4949.66 4051.63 4950.66 3748.62 4951.66 3802.62 4951.66 3917.63 4952.66 3751.62 4953.66 3921.63 4954.66 3799.62 4955.66 3899.63 4956.66 3790.62 4956.66 3887.63 4957.66 4035.63 4958.66 4018.63 4959.66 3759.62 4960.66 4050.63 4961.66 4050.63 4962.66 4051.63 4962.66 4043.63 4963.66 4044.63 4964.66 4044.63 4965.66 4051.63 4966.66 3999.63 4967.66 4001.63 4967.66 4024.63 4968.66 4023.63 4969.66 3947.63 4970.66 3989.63 4971.66 4018.63 4972.66 3766.62 4973.66 3760.62 4973.66 4049.63 4974.66 4047.63 4975.66 3764.62 4976.66 3743.62 4977.66 3915.63 4978.66 3855.63 4978.66 4051.63 4979.66 4014.63 4980.66 3893.63 4981.66 4016.63 4982.66 3954.63 4983.66 3806.62 4984.66 3781.62 4984.66 4018.63 4985.66 4019.63 4986.66 3851.63 4987.66 3890.63 4988.66 3889.63 4989.66 3939.63 4989.66 4051.63 4990.66 4016.63 4991.66 4050.63 4992.66 3767.62 4993.66 4007.63 4994.66 3954.63 4995.66 3838.63 4996.5 4042.63" stroke="#5B9BD5" stroke-width="3.4375" stroke-linecap="round" stroke-linejoin="round" stroke-miterlimit="10" fill="none"/></g><g clip-path="url(#clip6)"><text font-family="LM Roman 10,LM Roman 10_MSFontService,sans-serif" font-weight="700" font-size="64" transform="matrix(1 0 0 1 2581.52 4080)">0</text></g><g clip-path="url(#clip7)"><text font-family="LM Roman 10,LM Roman 10_MSFontService,sans-serif" font-weight="700" font-size="64" transform="matrix(1 0 0 1 2507.72 4015)">200</text></g><g clip-path="url(#clip8)"><text font-family="LM Roman 10,LM Roman 10_MSFontService,sans-serif" font-weight="700" font-size="64" transform="matrix(1 0 0 1 2507.72 3951)">400</text></g><g clip-path="url(#clip9)"><text font-family="LM Roman 10,LM Roman 10_MSFontService,sans-serif" font-weight="700" font-size="64" transform="matrix(1 0 0 1 2507.72 3886)">600</text></g><g clip-path="url(#clip10)"><text font-family="LM Roman 10,LM Roman 10_MSFontService,sans-serif" font-weight="700" font-size="64" transform="matrix(1 0 0 1 2507.72 3821)">800</text></g><g clip-path="url(#clip11)"><text font-family="LM Roman 10,LM Roman 10_MSFontService,sans-serif" font-weight="700" font-size="64" transform="matrix(1 0 0 1 2470.83 3756)">1000</text></g><g clip-path="url(#clip12)"><text font-family="LM Roman 10,LM Roman 10_MSFontService,sans-serif" font-weight="700" font-size="64" transform="matrix(1 0 0 1 2470.83 3691)">1200</text></g><g clip-path="url(#clip13)"><text font-family="LM Roman 10,LM Roman 10_MSFontService,sans-serif" font-weight="700" font-size="64" transform="matrix(1 0 0 1 2470.83 3626)">1400</text></g><g clip-path="url(#clip14)"><text font-family="LM Roman 10,LM Roman 10_MSFontService,sans-serif" font-weight="700" font-size="64" transform="matrix(1 0 0 1 2470.83 3562)">1600</text></g><g clip-path="url(#clip15)"><text font-family="LM Roman 10,LM Roman 10_MSFontService,sans-serif" font-weight="700" font-size="64" transform="matrix(1 0 0 1 2470.83 3497)">1800</text></g><g clip-path="url(#clip16)"><text font-family="LM Roman 10,LM Roman 10_MSFontService,sans-serif" font-weight="700" font-size="64" transform="matrix(1 0 0 1 2470.83 3432)">2000</text></g><g clip-path="url(#clip17)"><text font-family="LM Roman 10,LM Roman 10_MSFontService,sans-serif" font-weight="700" font-size="50" transform="matrix(0.707107 -0.707107 0.707107 0.707107 2557.98 4284)">00:00:00</text></g><g clip-path="url(#clip18)"><text font-family="LM Roman 10,LM Roman 10_MSFontService,sans-serif" font-weight="700" font-size="50" transform="matrix(0.707107 -0.707107 0.707107 0.707107 2658.58 4284)">00:00:26</text></g><g clip-path="url(#clip19)"><text font-family="LM Roman 10,LM Roman 10_MSFontService,sans-serif" font-weight="700" font-size="50" transform="matrix(0.707107 -0.707107 0.707107 0.707107 2759.19 4284)">00:00:49</text></g><g clip-path="url(#clip20)"><text font-family="LM Roman 10,LM Roman 10_MSFontService,sans-serif" font-weight="700" font-size="50" transform="matrix(0.707107 -0.707107 0.707107 0.707107 2859.79 4284)">00:01:19</text></g><g clip-path="url(#clip21)"><text font-family="LM Roman 10,LM Roman 10_MSFontService,sans-serif" font-weight="700" font-size="50" transform="matrix(0.707107 -0.707107 0.707107 0.707107 2960.4 4284)">00:01:45</text></g><g clip-path="url(#clip22)"><text font-family="LM Roman 10,LM Roman 10_MSFontService,sans-serif" font-weight="700" font-size="50" transform="matrix(0.707107 -0.707107 0.707107 0.707107 3061 4284)">00:02:13</text></g><g clip-path="url(#clip23)"><text font-family="LM Roman 10,LM Roman 10_MSFontService,sans-serif" font-weight="700" font-size="50" transform="matrix(0.707107 -0.707107 0.707107 0.707107 3161.61 4284)">00:02:40</text></g><g clip-path="url(#clip24)"><text font-family="LM Roman 10,LM Roman 10_MSFontService,sans-serif" font-weight="700" font-size="50" transform="matrix(0.707107 -0.707107 0.707107 0.707107 3262.21 4284)">00:03:01</text></g><g clip-path="url(#clip25)"><text font-family="LM Roman 10,LM Roman 10_MSFontService,sans-serif" font-weight="700" font-size="50" transform="matrix(0.707107 -0.707107 0.707107 0.707107 3362.81 4284)">00:03:25</text></g><g clip-path="url(#clip26)"><text font-family="LM Roman 10,LM Roman 10_MSFontService,sans-serif" font-weight="700" font-size="50" transform="matrix(0.707107 -0.707107 0.707107 0.707107 3463.42 4284)">00:03:54</text></g><g clip-path="url(#clip27)"><text font-family="LM Roman 10,LM Roman 10_MSFontService,sans-serif" font-weight="700" font-size="50" transform="matrix(0.707107 -0.707107 0.707107 0.707107 3564.02 4284)">00:04:20</text></g><g clip-path="url(#clip28)"><text font-family="LM Roman 10,LM Roman 10_MSFontService,sans-serif" font-weight="700" font-size="50" transform="matrix(0.707107 -0.707107 0.707107 0.707107 3664.63 4284)">00:04:47</text></g><g clip-path="url(#clip29)"><text font-family="LM Roman 10,LM Roman 10_MSFontService,sans-serif" font-weight="700" font-size="50" transform="matrix(0.707107 -0.707107 0.707107 0.707107 3765.23 4284)">00:05:16</text></g><g clip-path="url(#clip30)"><text font-family="LM Roman 10,LM Roman 10_MSFontService,sans-serif" font-weight="700" font-size="50" transform="matrix(0.707107 -0.707107 0.707107 0.707107 3865.84 4284)">00:05:42</text></g><g clip-path="url(#clip31)"><text font-family="LM Roman 10,LM Roman 10_MSFontService,sans-serif" font-weight="700" font-size="50" transform="matrix(0.707107 -0.707107 0.707107 0.707107 3966.44 4284)">00:06:07</text></g><g clip-path="url(#clip32)"><text font-family="LM Roman 10,LM Roman 10_MSFontService,sans-serif" font-weight="700" font-size="50" transform="matrix(0.707107 -0.707107 0.707107 0.707107 4067.04 4284)">00:06:34</text></g><g clip-path="url(#clip33)"><text font-family="LM Roman 10,LM Roman 10_MSFontService,sans-serif" font-weight="700" font-size="50" transform="matrix(0.707107 -0.707107 0.707107 0.707107 4167.65 4284)">00:06:58</text></g><g clip-path="url(#clip34)"><text font-family="LM Roman 10,LM Roman 10_MSFontService,sans-serif" font-weight="700" font-size="50" transform="matrix(0.707107 -0.707107 0.707107 0.707107 4268.25 4284)">00:07:27</text></g><g clip-path="url(#clip35)"><text font-family="LM Roman 10,LM Roman 10_MSFontService,sans-serif" font-weight="700" font-size="50" transform="matrix(0.707107 -0.707107 0.707107 0.707107 4368.86 4284)">00:07:54</text></g><g clip-path="url(#clip36)"><text font-family="LM Roman 10,LM Roman 10_MSFontService,sans-serif" font-weight="700" font-size="50" transform="matrix(0.707107 -0.707107 0.707107 0.707107 4469.46 4284)">00:08:18</text></g><g clip-path="url(#clip37)"><text font-family="LM Roman 10,LM Roman 10_MSFontService,sans-serif" font-weight="700" font-size="50" transform="matrix(0.707107 -0.707107 0.707107 0.707107 4570.07 4284)">00:08:45</text></g><g clip-path="url(#clip38)"><text font-family="LM Roman 10,LM Roman 10_MSFontService,sans-serif" font-weight="700" font-size="50" transform="matrix(0.707107 -0.707107 0.707107 0.707107 4670.67 4284)">00:09:13</text></g><g clip-path="url(#clip39)"><text font-family="LM Roman 10,LM Roman 10_MSFontService,sans-serif" font-weight="700" font-size="50" transform="matrix(0.707107 -0.707107 0.707107 0.707107 4771.27 4284)">00:09:36</text></g><g clip-path="url(#clip40)"><text font-family="LM Roman 10,LM Roman 10_MSFontService,sans-serif" font-weight="400" font-size="64" transform="matrix(6.12323e-17 -1 1 6.12323e-17 2392.26 3974)">Czas przetwarzania (ms)</text></g><g clip-path="url(#clip41)"><text font-family="LM Roman 10,LM Roman 10_MSFontService,sans-serif" font-weight="400" font-size="64" transform="matrix(1 0 0 1 3545.02 4431)">Czas trwania ewaluacji</text></g><g clip-path="url(#clip42)"><text font-family="LM Roman 10,LM Roman 10_MSFontService,sans-serif" font-weight="400" font-size="73" transform="matrix(1 0 0 1 2956.75 3211)">Interfejs API: NodeJS / Metoda HTTP: PUT / </text></g><g clip-path="url(#clip43)"><text font-family="LM Roman 10,LM Roman 10_MSFontService,sans-serif" font-weight="400" font-size="73" transform="matrix(1 0 0 1 3332.72 3315)">Platforma: DigitalOcean</text></g><g clip-path="url(#clip44)"><rect x="2701.5" y="3417.5" width="256" height="105" stroke="#D9D9D9" stroke-width="3.4375" stroke-linejoin="round" stroke-miterlimit="10" fill="#FFFFFF"/></g><g clip-path="url(#clip45)"><path d="M2729.5 3469.5 2817.5 3469.5" stroke="#5B9BD5" stroke-width="3.4375" stroke-linecap="round" stroke-linejoin="round" stroke-miterlimit="10" fill="none" fill-rule="evenodd"/></g><g clip-path="url(#clip46)"><text font-family="LM Roman 10,LM Roman 10_MSFontService,sans-serif" font-weight="400" font-size="55" transform="matrix(1 0 0 1 2826.81 3487)">PUT</text></g></g></svg>