<svg width="3407" height="1702" xmlns="http://www.w3.org/2000/svg" xmlns:xlink="http://www.w3.org/1999/xlink" xml:space="preserve" overflow="hidden"><defs><clipPath id="clip0"><rect x="3159" y="234" width="3407" height="1702"/></clipPath><clipPath id="clip1"><rect x="3159" y="233" width="3406" height="1702"/></clipPath><clipPath id="clip2"><rect x="3159" y="233" width="3406" height="1702"/></clipPath><clipPath id="clip3"><rect x="3674" y="468" width="2601" height="1003"/></clipPath><clipPath id="clip4"><rect x="3674" y="468" width="2601" height="1003"/></clipPath><clipPath id="clip5"><rect x="3159" y="233" width="3406" height="1702"/></clipPath><clipPath id="clip6"><rect x="3159" y="233" width="3406" height="1702"/></clipPath><clipPath id="clip7"><rect x="3159" y="233" width="3406" height="1702"/></clipPath><clipPath id="clip8"><rect x="3159" y="233" width="3406" height="1702"/></clipPath><clipPath id="clip9"><rect x="3674" y="468" width="2601" height="1003"/></clipPath><clipPath id="clip10"><rect x="3674" y="468" width="2601" height="1003"/></clipPath><clipPath id="clip11"><rect x="3159" y="233" width="3406" height="1702"/></clipPath><clipPath id="clip12"><rect x="3159" y="233" width="3406" height="1702"/></clipPath><clipPath id="clip13"><rect x="3159" y="233" width="3406" height="1702"/></clipPath><clipPath id="clip14"><rect x="3159" y="233" width="3406" height="1702"/></clipPath><clipPath id="clip15"><rect x="3159" y="233" width="3406" height="1702"/></clipPath><clipPath id="clip16"><rect x="3159" y="233" width="3406" height="1702"/></clipPath><clipPath id="clip17"><rect x="3159" y="233" width="3406" height="1702"/></clipPath><clipPath id="clip18"><rect x="3159" y="233" width="3406" height="1702"/></clipPath><clipPath id="clip19"><rect x="3159" y="233" width="3406" height="1702"/></clipPath><clipPath id="clip20"><rect x="3159" y="233" width="3406" height="1702"/></clipPath><clipPath id="clip21"><rect x="3159" y="233" width="3406" height="1702"/></clipPath><clipPath id="clip22"><rect x="3159" y="233" width="3406" height="1702"/></clipPath><clipPath id="clip23"><rect x="3159" y="233" width="3406" height="1702"/></clipPath><clipPath id="clip24"><rect x="3159" y="233" width="3406" height="1702"/></clipPath><clipPath id="clip25"><rect x="3159" y="233" width="3406" height="1702"/></clipPath><clipPath id="clip26"><rect x="3159" y="233" width="3406" height="1702"/></clipPath><clipPath id="clip27"><rect x="3159" y="233" width="3406" height="1702"/></clipPath><clipPath id="clip28"><rect x="3159" y="233" width="3406" height="1702"/></clipPath><clipPath id="clip29"><rect x="3159" y="233" width="3406" height="1702"/></clipPath><clipPath id="clip30"><rect x="3159" y="233" width="3406" height="1702"/></clipPath><clipPath id="clip31"><rect x="3159" y="233" width="3406" height="1702"/></clipPath><clipPath id="clip32"><rect x="3159" y="233" width="3406" height="1702"/></clipPath><clipPath id="clip33"><rect x="3159" y="233" width="3406" height="1702"/></clipPath><clipPath id="clip34"><rect x="3159" y="233" width="3406" height="1702"/></clipPath><clipPath id="clip35"><rect x="3159" y="233" width="3406" height="1702"/></clipPath><clipPath id="clip36"><rect x="3159" y="233" width="3406" height="1702"/></clipPath><clipPath id="clip37"><rect x="3159" y="233" width="3406" height="1702"/></clipPath><clipPath id="clip38"><rect x="3159" y="233" width="3406" height="1702"/></clipPath><clipPath id="clip39"><rect x="3159" y="233" width="3406" height="1702"/></clipPath><clipPath id="clip40"><rect x="3159" y="233" width="3406" height="1702"/></clipPath><clipPath id="clip41"><rect x="3159" y="233" width="3406" height="1702"/></clipPath><clipPath id="clip42"><rect x="3159" y="233" width="3406" height="1702"/></clipPath><clipPath id="clip43"><rect x="3159" y="233" width="3406" height="1702"/></clipPath><clipPath id="clip44"><rect x="3159" y="233" width="3406" height="1702"/></clipPath><clipPath id="clip45"><rect x="3159" y="233" width="3406" height="1702"/></clipPath><clipPath id="clip46"><rect x="3159" y="233" width="3406" height="1702"/></clipPath><clipPath id="clip47"><rect x="3159" y="233" width="3406" height="1702"/></clipPath><clipPath id="clip48"><rect x="3159" y="233" width="3406" height="1702"/></clipPath><clipPath id="clip49"><rect x="3159" y="233" width="3406" height="1702"/></clipPath><clipPath id="clip50"><rect x="3159" y="233" width="3406" height="1702"/></clipPath><clipPath id="clip51"><rect x="3159" y="233" width="3406" height="1702"/></clipPath><clipPath id="clip52"><rect x="3159" y="233" width="3406" height="1702"/></clipPath><clipPath id="clip53"><rect x="3159" y="233" width="3406" height="1702"/></clipPath><clipPath id="clip54"><rect x="3159" y="233" width="3406" height="1702"/></clipPath><clipPath id="clip55"><rect x="3159" y="233" width="3406" height="1702"/></clipPath><clipPath id="clip56"><rect x="3159" y="233" width="3406" height="1702"/></clipPath><clipPath id="clip57"><rect x="3159" y="233" width="3406" height="1702"/></clipPath></defs><g clip-path="url(#clip0)" transform="translate(-3159 -234)"><rect x="3159" y="234" width="3407" height="1702" fill="#FFFFFF"/><g clip-path="url(#clip1)"><path d="M3674.5 1356.54 6271.5 1356.54M3674.5 1245.54 6271.5 1245.54M3674.5 1134.54 6271.5 1134.54M3674.5 1023.53 6271.5 1023.53M3674.5 912.53 6271.5 912.53M3674.5 801.526 6271.5 801.526M3674.5 690.523 6271.5 690.523M3674.5 579.519 6271.5 579.519M3674.5 468.5 6271.5 468.5" stroke="#D9D9D9" stroke-width="3.4375" stroke-linejoin="round" stroke-miterlimit="10" fill="none"/></g><g clip-path="url(#clip2)"><path d="M3717.62 468.5 3717.62 1467.5M3760.62 468.5 3760.62 1467.5M3804.62 468.5 3804.62 1467.5M3847.63 468.5 3847.63 1467.5M3890.63 468.5 3890.63 1467.5M3933.63 468.5 3933.63 1467.5M3977.63 468.5 3977.63 1467.5M4020.63 468.5 4020.63 1467.5M4063.63 468.5 4063.63 1467.5M4107.63 468.5 4107.63 1467.5M4150.64 468.5 4150.64 1467.5M4193.64 468.5 4193.64 1467.5M4236.64 468.5 4236.64 1467.5M4280.64 468.5 4280.64 1467.5M4323.64 468.5 4323.64 1467.5M4366.64 468.5 4366.64 1467.5M4410.64 468.5 4410.64 1467.5M4453.65 468.5 4453.65 1467.5M4496.65 468.5 4496.65 1467.5M4539.65 468.5 4539.65 1467.5M4583.65 468.5 4583.65 1467.5M4626.65 468.5 4626.65 1467.5M4669.65 468.5 4669.65 1467.5M4713.65 468.5 4713.65 1467.5M4756.66 468.5 4756.66 1467.5M4799.66 468.5 4799.66 1467.5M4843.66 468.5 4843.66 1467.5M4886.66 468.5 4886.66 1467.5M4929.66 468.5 4929.66 1467.5M4972.66 468.5 4972.66 1467.5M5016.66 468.5 5016.66 1467.5M5059.67 468.5 5059.67 1467.5M5102.67 468.5 5102.67 1467.5M5146.67 468.5 5146.67 1467.5M5189.67 468.5 5189.67 1467.5M5232.67 468.5 5232.67 1467.5M5275.67 468.5 5275.67 1467.5M5319.67 468.5 5319.67 1467.5M5362.68 468.5 5362.68 1467.5M5405.68 468.5 5405.68 1467.5M5449.68 468.5 5449.68 1467.5M5492.68 468.5 5492.68 1467.5M5535.68 468.5 5535.68 1467.5M5578.68 468.5 5578.68 1467.5M5622.68 468.5 5622.68 1467.5M5665.69 468.5 5665.69 1467.5M5708.69 468.5 5708.69 1467.5M5752.69 468.5 5752.69 1467.5M5795.69 468.5 5795.69 1467.5M5838.69 468.5 5838.69 1467.5M5881.69 468.5 5881.69 1467.5M5925.69 468.5 5925.69 1467.5M5968.7 468.5 5968.7 1467.5M6011.7 468.5 6011.7 1467.5M6055.7 468.5 6055.7 1467.5M6098.7 468.5 6098.7 1467.5M6141.7 468.5 6141.7 1467.5M6185.7 468.5 6185.7 1467.5M6228.7 468.5 6228.7 1467.5M6271.5 468.5 6271.5 1467.5" stroke="#D9D9D9" stroke-width="3.4375" stroke-linejoin="round" stroke-miterlimit="10" fill="none"/></g><g clip-path="url(#clip3)"><path d="M4813.16 1418.05 4830.16 1418.05 4830.16 1468 4813.16 1468ZM4856.16 1418.05 4873.16 1418.05 4873.16 1468 4856.16 1468ZM4899.16 1401.05 4917.16 1401.05 4917.16 1468 4899.16 1468ZM4943.16 1351.04 4960.16 1351.04 4960.16 1468 4943.16 1468ZM4986.16 1335.04 5003.16 1335.04 5003.16 1468 4986.16 1468ZM5029.17 1318.04 5046.17 1318.04 5046.17 1468 5029.17 1468ZM5072.17 1285.04 5090.17 1285.04 5090.17 1468 5072.17 1468ZM5116.17 1285.04 5133.17 1285.04 5133.17 1468 5116.17 1468ZM5159.17 1268.04 5176.17 1268.04 5176.17 1468 5159.17 1468ZM5202.17 1251.04 5220.17 1251.04 5220.17 1468 5202.17 1468ZM5246.17 1251.04 5263.17 1251.04 5263.17 1468 5246.17 1468ZM5289.17 1201.04 5306.17 1201.04 5306.17 1468 5289.17 1468ZM5332.17 1201.04 5350.18 1201.04 5350.18 1468 5332.17 1468ZM5375.18 1201.04 5393.18 1201.04 5393.18 1468 5375.18 1468ZM5419.18 1201.04 5436.18 1201.04 5436.18 1468 5419.18 1468ZM5462.18 1185.04 5479.18 1185.04 5479.18 1468 5462.18 1468ZM5505.18 1201.04 5523.18 1201.04 5523.18 1468 5505.18 1468ZM5549.18 1151.04 5566.18 1151.04 5566.18 1468 5549.18 1468ZM5592.18 1135.04 5609.18 1135.04 5609.18 1468 5592.18 1468ZM5635.18 1135.04 5653.19 1135.04 5653.19 1468 5635.18 1468ZM5679.19 1068.04 5696.19 1068.04 5696.19 1468 5679.19 1468ZM5722.19 1035.03 5739.19 1035.03 5739.19 1468 5722.19 1468ZM5765.19 968.032 5782.19 968.032 5782.19 1468 5765.19 1468ZM5808.19 1001.03 5826.19 1001.03 5826.19 1468 5808.19 1468ZM5852.19 918.03 5869.19 918.03 5869.19 1468 5852.19 1468ZM5895.19 918.03 5912.19 918.03 5912.19 1468 5895.19 1468ZM5938.19 918.03 5956.2 918.03 5956.2 1468 5938.19 1468ZM5982.2 918.03 5999.2 918.03 5999.2 1468 5982.2 1468ZM6025.2 885.029 6042.2 885.029 6042.2 1468 6025.2 1468ZM6068.2 851.028 6085.2 851.028 6085.2 1468 6068.2 1468ZM6111.2 918.03 6129.2 918.03 6129.2 1468 6111.2 1468ZM6155.2 835.027 6172.2 835.027 6172.2 1468 6155.2 1468ZM6198.2 818.027 6215.2 818.027 6215.2 1468 6198.2 1468ZM6241.21 768.025 6259.21 768.025 6259.21 1468 6241.21 1468Z" fill="#A6A6A6"/></g><g clip-path="url(#clip4)"><path d="M4163.14 1418.05 4181.14 1418.05 4181.14 1468 4163.14 1468ZM4207.14 1401.05 4224.14 1401.05 4224.14 1468 4207.14 1468ZM4250.14 1368.04 4267.14 1368.04 4267.14 1468 4250.14 1468ZM4293.14 1368.04 4311.14 1368.04 4311.14 1468 4293.14 1468ZM4336.14 1318.04 4354.14 1318.04 4354.14 1468 4336.14 1468ZM4380.14 1318.04 4397.14 1318.04 4397.14 1468 4380.14 1468ZM4423.15 1301.04 4440.15 1301.04 4440.15 1468 4423.15 1468ZM4466.15 1301.04 4484.15 1301.04 4484.15 1468 4466.15 1468ZM4510.15 1285.04 4527.15 1285.04 4527.15 1468 4510.15 1468ZM4553.15 1301.04 4570.15 1301.04 4570.15 1468 4553.15 1468ZM4596.15 1251.04 4614.15 1251.04 4614.15 1468 4596.15 1468ZM4640.15 1218.04 4657.15 1218.04 4657.15 1468 4640.15 1468ZM4683.15 1318.04 4700.15 1318.04 4700.15 1468 4683.15 1468ZM4726.16 1185.04 4743.16 1185.04 4743.16 1468 4726.16 1468ZM4769.16 1185.04 4787.16 1185.04 4787.16 1468 4769.16 1468ZM4813.16 1185.04 4830.16 1185.04 4830.16 1418.05 4813.16 1418.05ZM4856.16 1168.04 4873.16 1168.04 4873.16 1418.05 4856.16 1418.05ZM4899.16 1135.04 4917.16 1135.04 4917.16 1401.05 4899.16 1401.05ZM4943.16 1185.04 4960.16 1185.04 4960.16 1351.04 4943.16 1351.04ZM4986.16 1085.04 5003.16 1085.04 5003.16 1335.04 4986.16 1335.04ZM5029.17 1051.03 5046.17 1051.03 5046.17 1318.04 5029.17 1318.04ZM5072.17 1035.03 5090.17 1035.03 5090.17 1285.04 5072.17 1285.04ZM5116.17 1035.03 5133.17 1035.03 5133.17 1285.04 5116.17 1285.04ZM5159.17 951.031 5176.17 951.031 5176.17 1268.04 5159.17 1268.04ZM5202.17 1051.03 5220.17 1051.03 5220.17 1251.04 5202.17 1251.04ZM5246.17 868.028 5263.17 868.028 5263.17 1251.04 5246.17 1251.04ZM5289.17 851.028 5306.17 851.028 5306.17 1201.04 5289.17 1201.04ZM5332.17 835.027 5350.18 835.027 5350.18 1201.04 5332.17 1201.04ZM5375.18 835.027 5393.18 835.027 5393.18 1201.04 5375.18 1201.04ZM5419.18 785.026 5436.18 785.026 5436.18 1201.04 5419.18 1201.04ZM5462.18 785.026 5479.18 785.026 5479.18 1185.04 5462.18 1185.04ZM5505.18 668.022 5523.18 668.022 5523.18 1201.04 5505.18 1201.04ZM5549.18 751.025 5566.18 751.025 5566.18 1151.04 5549.18 1151.04ZM5592.18 685.022 5609.18 685.022 5609.18 1135.04 5592.18 1135.04ZM5635.18 668.022 5653.19 668.022 5653.19 1135.04 5635.18 1135.04ZM5679.19 668.022 5696.19 668.022 5696.19 1068.04 5679.19 1068.04ZM5722.19 851.028 5739.19 851.028 5739.19 1035.03 5722.19 1035.03ZM5765.19 668.022 5782.19 668.022 5782.19 968.032 5765.19 968.032ZM5808.19 635.021 5826.19 635.021 5826.19 1001.03 5808.19 1001.03ZM5852.19 635.021 5869.19 635.021 5869.19 918.03 5852.19 918.03ZM5895.19 601.02 5912.19 601.02 5912.19 918.03 5895.19 918.03ZM5938.19 601.02 5956.2 601.02 5956.2 918.03 5938.19 918.03ZM5982.2 668.022 5999.2 668.022 5999.2 918.03 5982.2 918.03ZM6025.2 585.019 6042.2 585.019 6042.2 885.029 6025.2 885.029ZM6068.2 568.019 6085.2 568.019 6085.2 851.028 6068.2 851.028ZM6111.2 551.018 6129.2 551.018 6129.2 918.03 6111.2 918.03ZM6155.2 601.02 6172.2 601.02 6172.2 835.027 6155.2 835.027ZM6198.2 551.018 6215.2 551.018 6215.2 818.027 6198.2 818.027ZM6241.21 535.018 6259.21 535.018 6259.21 768.025 6241.21 768.025Z" fill="#D9D9D9"/></g><g clip-path="url(#clip5)"><path d="M0 0 0.000360892 999" stroke="#BFBFBF" stroke-width="3.4375" stroke-linejoin="round" stroke-miterlimit="10" fill="none" fill-rule="evenodd" transform="matrix(1 0 0 -1 6271.5 1467.5)"/></g><g clip-path="url(#clip6)"><path d="M6271.5 1467.5 6302.5 1467.5M6271.5 1301.54 6302.5 1301.54M6271.5 1134.54 6302.5 1134.54M6271.5 968.532 6302.5 968.532M6271.5 801.526 6302.5 801.526M6271.5 634.521 6302.5 634.521M6271.5 468.5 6302.5 468.5" stroke="#BFBFBF" stroke-width="3.4375" stroke-linejoin="round" stroke-miterlimit="10" fill="none"/></g><g clip-path="url(#clip7)"><path d="M0 0 0.000360892 999" stroke="#BFBFBF" stroke-width="3.4375" stroke-linejoin="round" stroke-miterlimit="10" fill="none" fill-rule="evenodd" transform="matrix(1 0 0 -1 3674.5 1467.5)"/></g><g clip-path="url(#clip8)"><path d="M3674.5 1467.5 6271.5 1467.5" stroke="#BFBFBF" stroke-width="3.4375" stroke-linejoin="round" stroke-miterlimit="10" fill="none" fill-rule="evenodd"/></g><g clip-path="url(#clip9)"><path d="M3695.5 1456.5 3739.62 1449.55 3782.62 1429.55 3825.63 1398.55 3868.63 1396.55 3912.63 1382.55 3955.63 1379.55 3998.63 1378.55 4042.63 1371.55 4085.63 1357.54 4128.64 1352.54 4171.64 1347.54 4215.64 1339.54 4258.64 1328.54 4301.64 1299.54 4345.64 1273.54 4388.64 1271.54 4431.65 1269.54 4475.65 1255.54 4518.65 1238.54 4561.65 1235.54 4604.65 1232.54 4648.65 1213.54 4691.65 1207.54 4734.66 1191.54 4778.66 1190.54 4821.66 1182.54 4864.66 1170.54 4907.66 1160.54 4951.66 1157.54 4994.66 1154.54 5037.67 1148.54 5081.67 1143.54 5124.67 1141.54 5167.67 1136.54 5210.67 1126.54 5254.67 1121.54 5297.67 1118.54 5340.68 1109.54 5384.68 1100.54 5427.68 1097.54 5470.68 1092.54 5514.68 1088.54 5557.68 1078.54 5600.68 1077.54 5643.69 1069.54 5687.69 1065.54 5730.69 1058.53 5773.69 1038.53 5817.69 1035.53 5860.69 989.533 5903.69 952.531 5946.7 915.53 5990.7 876.529 6033.7 837.528 6076.7 827.527 6120.7 739.524 6163.7 681.523 6206.7 641.521 6250.5 537.5" stroke="#4472C4" stroke-width="6.875" stroke-linecap="round" stroke-linejoin="round" stroke-miterlimit="10" fill="none"/></g><g clip-path="url(#clip10)"><path d="M3695.5 1464.5 3739.62 1462.55 3782.62 1458.55 3825.63 1443.55 3868.63 1382.55 3912.63 1373.55 3955.63 1387.55 3998.63 1385.55 4042.63 1369.55 4085.63 1348.54 4128.64 1348.54 4171.64 1339.54 4215.64 1322.54 4258.64 1322.54 4301.64 1292.54 4345.64 1289.54 4388.64 1278.54 4431.65 1239.54 4475.65 1274.54 4518.65 1222.54 4561.65 1255.54 4604.65 1232.54 4648.65 1213.54 4691.65 1214.54 4734.66 1186.54 4778.66 1179.54 4821.66 1144.54 4864.66 1123.54 4907.66 1149.54 4951.66 1132.54 4994.66 1160.54 5037.67 1150.54 5081.67 1164.54 5124.67 1133.54 5167.67 1162.54 5210.67 1084.54 5254.67 1109.54 5297.67 1116.54 5340.68 1237.54 5384.68 1231.54 5427.68 1223.54 5470.68 1232.54 5514.68 1179.54 5557.68 1152.54 5600.68 1154.54 5643.69 1130.54 5687.69 1165.54 5730.69 1137.54 5773.69 1145.54 5817.69 1135.54 5860.69 1120.54 5903.69 1125.54 5946.7 1015.53 5990.7 963.532 6033.7 968.532 6076.7 951.531 6120.7 946.531 6163.7 877.5 6206.7 908.53 6250.5 883.529" stroke="#ED7D31" stroke-width="6.875" stroke-linecap="round" stroke-linejoin="round" stroke-miterlimit="10" fill="none"/></g><g clip-path="url(#clip11)"><text font-family="LM Roman 10,LM Roman 10_MSFontService,sans-serif" font-weight="700" font-size="83" transform="matrix(1 0 0 1 6361.89 1493)">0%</text></g><g clip-path="url(#clip12)"><text font-family="LM Roman 10,LM Roman 10_MSFontService,sans-serif" font-weight="700" font-size="83" transform="matrix(1 0 0 1 6361.89 1327)">10%</text></g><g clip-path="url(#clip13)"><text font-family="LM Roman 10,LM Roman 10_MSFontService,sans-serif" font-weight="700" font-size="83" transform="matrix(1 0 0 1 6361.89 1160)">20%</text></g><g clip-path="url(#clip14)"><text font-family="LM Roman 10,LM Roman 10_MSFontService,sans-serif" font-weight="700" font-size="83" transform="matrix(1 0 0 1 6361.89 993)">30%</text></g><g clip-path="url(#clip15)"><text font-family="LM Roman 10,LM Roman 10_MSFontService,sans-serif" font-weight="700" font-size="83" transform="matrix(1 0 0 1 6361.89 827)">40%</text></g><g clip-path="url(#clip16)"><text font-family="LM Roman 10,LM Roman 10_MSFontService,sans-serif" font-weight="700" font-size="83" transform="matrix(1 0 0 1 6361.89 660)">50%</text></g><g clip-path="url(#clip17)"><text font-family="LM Roman 10,LM Roman 10_MSFontService,sans-serif" font-weight="700" font-size="83" transform="matrix(1 0 0 1 6361.89 493)">60%</text></g><g clip-path="url(#clip18)"><text font-family="LM Roman 10,LM Roman 10_MSFontService,sans-serif" font-weight="700" font-size="83" transform="matrix(1 0 0 1 3536.75 1493)">0</text></g><g clip-path="url(#clip19)"><text font-family="LM Roman 10,LM Roman 10_MSFontService,sans-serif" font-weight="700" font-size="83" transform="matrix(1 0 0 1 3394.44 1382)">2000</text></g><g clip-path="url(#clip20)"><text font-family="LM Roman 10,LM Roman 10_MSFontService,sans-serif" font-weight="700" font-size="83" transform="matrix(1 0 0 1 3394.44 1271)">4000</text></g><g clip-path="url(#clip21)"><text font-family="LM Roman 10,LM Roman 10_MSFontService,sans-serif" font-weight="700" font-size="83" transform="matrix(1 0 0 1 3394.44 1160)">6000</text></g><g clip-path="url(#clip22)"><text font-family="LM Roman 10,LM Roman 10_MSFontService,sans-serif" font-weight="700" font-size="83" transform="matrix(1 0 0 1 3394.44 1049)">8000</text></g><g clip-path="url(#clip23)"><text font-family="LM Roman 10,LM Roman 10_MSFontService,sans-serif" font-weight="700" font-size="83" transform="matrix(1 0 0 1 3347 938)">10000</text></g><g clip-path="url(#clip24)"><text font-family="LM Roman 10,LM Roman 10_MSFontService,sans-serif" font-weight="700" font-size="83" transform="matrix(1 0 0 1 3347 827)">12000</text></g><g clip-path="url(#clip25)"><text font-family="LM Roman 10,LM Roman 10_MSFontService,sans-serif" font-weight="700" font-size="83" transform="matrix(1 0 0 1 3347 716)">14000</text></g><g clip-path="url(#clip26)"><text font-family="LM Roman 10,LM Roman 10_MSFontService,sans-serif" font-weight="700" font-size="83" transform="matrix(1 0 0 1 3347 604)">16000</text></g><g clip-path="url(#clip27)"><text font-family="LM Roman 10,LM Roman 10_MSFontService,sans-serif" font-weight="700" font-size="83" transform="matrix(1 0 0 1 3347 493)">18000</text></g><g clip-path="url(#clip28)"><text font-family="LM Roman 10,LM Roman 10_MSFontService,sans-serif" font-weight="700" font-size="83" transform="matrix(0.707107 -0.707107 0.707107 0.707107 3652.92 1663)">10</text></g><g clip-path="url(#clip29)"><text font-family="LM Roman 10,LM Roman 10_MSFontService,sans-serif" font-weight="700" font-size="83" transform="matrix(0.707107 -0.707107 0.707107 0.707107 3792.55 1697)">340</text></g><g clip-path="url(#clip30)"><text font-family="LM Roman 10,LM Roman 10_MSFontService,sans-serif" font-weight="700" font-size="83" transform="matrix(0.707107 -0.707107 0.707107 0.707107 3965.72 1697)">680</text></g><g clip-path="url(#clip31)"><text font-family="LM Roman 10,LM Roman 10_MSFontService,sans-serif" font-weight="700" font-size="83" transform="matrix(0.707107 -0.707107 0.707107 0.707107 4105.35 1730)">1020</text></g><g clip-path="url(#clip32)"><text font-family="LM Roman 10,LM Roman 10_MSFontService,sans-serif" font-weight="700" font-size="83" transform="matrix(0.707107 -0.707107 0.707107 0.707107 4278.52 1730)">1360</text></g><g clip-path="url(#clip33)"><text font-family="LM Roman 10,LM Roman 10_MSFontService,sans-serif" font-weight="700" font-size="83" transform="matrix(0.707107 -0.707107 0.707107 0.707107 4451.69 1730)">1700</text></g><g clip-path="url(#clip34)"><text font-family="LM Roman 10,LM Roman 10_MSFontService,sans-serif" font-weight="700" font-size="83" transform="matrix(0.707107 -0.707107 0.707107 0.707107 4624.86 1730)">2040</text></g><g clip-path="url(#clip35)"><text font-family="LM Roman 10,LM Roman 10_MSFontService,sans-serif" font-weight="700" font-size="83" transform="matrix(0.707107 -0.707107 0.707107 0.707107 4798.03 1730)">2380</text></g><g clip-path="url(#clip36)"><text font-family="LM Roman 10,LM Roman 10_MSFontService,sans-serif" font-weight="700" font-size="83" transform="matrix(0.707107 -0.707107 0.707107 0.707107 4971.21 1730)">2720</text></g><g clip-path="url(#clip37)"><text font-family="LM Roman 10,LM Roman 10_MSFontService,sans-serif" font-weight="700" font-size="83" transform="matrix(0.707107 -0.707107 0.707107 0.707107 5144.38 1730)">3060</text></g><g clip-path="url(#clip38)"><text font-family="LM Roman 10,LM Roman 10_MSFontService,sans-serif" font-weight="700" font-size="83" transform="matrix(0.707107 -0.707107 0.707107 0.707107 5317.55 1730)">3400</text></g><g clip-path="url(#clip39)"><text font-family="LM Roman 10,LM Roman 10_MSFontService,sans-serif" font-weight="700" font-size="83" transform="matrix(0.707107 -0.707107 0.707107 0.707107 5490.72 1730)">3740</text></g><g clip-path="url(#clip40)"><text font-family="LM Roman 10,LM Roman 10_MSFontService,sans-serif" font-weight="700" font-size="83" transform="matrix(0.707107 -0.707107 0.707107 0.707107 5663.89 1730)">4080</text></g><g clip-path="url(#clip41)"><text font-family="LM Roman 10,LM Roman 10_MSFontService,sans-serif" font-weight="700" font-size="83" transform="matrix(0.707107 -0.707107 0.707107 0.707107 5837.06 1730)">4420</text></g><g clip-path="url(#clip42)"><text font-family="LM Roman 10,LM Roman 10_MSFontService,sans-serif" font-weight="700" font-size="83" transform="matrix(0.707107 -0.707107 0.707107 0.707107 6010.23 1730)">4760</text></g><g clip-path="url(#clip43)"><text font-family="LM Roman 10,LM Roman 10_MSFontService,sans-serif" font-weight="400" font-size="83" transform="matrix(6.12323e-17 -1 1 6.12323e-17 3261.37 1585)">Średni czas odpowiedzi (ms)</text></g><g clip-path="url(#clip44)"><text font-family="LM Roman 10,LM Roman 10_MSFontService,sans-serif" font-weight="400" font-size="83" transform="matrix(1 0 0 1 4180.2 1905)">Liczba współbieżnie działających wątków</text></g><g clip-path="url(#clip45)"><text font-family="LM Roman 10,LM Roman 10_MSFontService,sans-serif" font-weight="700" font-size="78" transform="matrix(1 0 0 1 3555.23 356)">Interfejs API: </text></g><g clip-path="url(#clip46)"><text font-family="LM Roman 10,LM Roman 10_MSFontService,sans-serif" font-weight="400" font-size="78" transform="matrix(1 0 0 1 4127.92 356)">NodeJS API</text></g><g clip-path="url(#clip47)"><text font-family="LM Roman 10,LM Roman 10_MSFontService,sans-serif" font-weight="700" font-size="78" transform="matrix(1 0 0 1 4554.33 356)">. Punkt końcowy: </text></g><g clip-path="url(#clip48)"><text font-family="LM Roman 10,LM Roman 10_MSFontService,sans-serif" font-weight="400" font-size="78" transform="matrix(1 0 0 1 5270.09 356)">POST /API/PRODUCTS</text></g><g clip-path="url(#clip49)"><rect x="3690.5" y="483.5" width="1495" height="391" stroke="#BFBFBF" stroke-width="3.4375" stroke-linejoin="round" stroke-miterlimit="10" fill="#FFFFFF"/></g><g clip-path="url(#clip50)"><rect x="3727" y="510" width="88" height="44" fill="#D9D9D9"/></g><g clip-path="url(#clip51)"><text font-family="LM Roman 10,LM Roman 10_MSFontService,sans-serif" font-weight="400" font-size="69" transform="matrix(1 0 0 1 3824.74 553)">Procent niepoprawnych odpowiedzi</text></g><g clip-path="url(#clip52)"><rect x="3727" y="608" width="88" height="44" fill="#A6A6A6"/></g><g clip-path="url(#clip53)"><text font-family="LM Roman 10,LM Roman 10_MSFontService,sans-serif" font-weight="400" font-size="69" transform="matrix(1 0 0 1 3824.74 651)">Procent niepoprawnych odpowiedzi - CQRS</text></g><g clip-path="url(#clip54)"><path d="M3727.5 727.5 3815.5 727.5" stroke="#4472C4" stroke-width="6.875" stroke-linecap="round" stroke-linejoin="round" stroke-miterlimit="10" fill="none" fill-rule="evenodd"/></g><g clip-path="url(#clip55)"><text font-family="LM Roman 10,LM Roman 10_MSFontService,sans-serif" font-weight="400" font-size="69" transform="matrix(1 0 0 1 3824.74 749)">SQL Server</text></g><g clip-path="url(#clip56)"><path d="M3727.5 825.5 3815.5 825.5" stroke="#ED7D31" stroke-width="6.875" stroke-linecap="round" stroke-linejoin="round" stroke-miterlimit="10" fill="none" fill-rule="evenodd"/></g><g clip-path="url(#clip57)"><text font-family="LM Roman 10,LM Roman 10_MSFontService,sans-serif" font-weight="400" font-size="69" transform="matrix(1 0 0 1 3824.74 846)">SQL Server - CQRS</text></g></g></svg>