<svg width="3407" height="1702" xmlns="http://www.w3.org/2000/svg" xmlns:xlink="http://www.w3.org/1999/xlink" xml:space="preserve" overflow="hidden"><defs><clipPath id="clip0"><rect x="3159" y="234" width="3407" height="1702"/></clipPath><clipPath id="clip1"><rect x="3159" y="233" width="3406" height="1702"/></clipPath><clipPath id="clip2"><rect x="3159" y="233" width="3406" height="1702"/></clipPath><clipPath id="clip3"><rect x="3601" y="454" width="2732" height="1079"/></clipPath><clipPath id="clip4"><rect x="3601" y="454" width="2732" height="1079"/></clipPath><clipPath id="clip5"><rect x="3159" y="233" width="3406" height="1702"/></clipPath><clipPath id="clip6"><rect x="3159" y="233" width="3406" height="1702"/></clipPath><clipPath id="clip7"><rect x="3159" y="233" width="3406" height="1702"/></clipPath><clipPath id="clip8"><rect x="3159" y="233" width="3406" height="1702"/></clipPath><clipPath id="clip9"><rect x="3601" y="454" width="2732" height="1079"/></clipPath><clipPath id="clip10"><rect x="3601" y="454" width="2732" height="1079"/></clipPath><clipPath id="clip11"><rect x="3159" y="233" width="3406" height="1702"/></clipPath><clipPath id="clip12"><rect x="3159" y="233" width="3406" height="1702"/></clipPath><clipPath id="clip13"><rect x="3159" y="233" width="3406" height="1702"/></clipPath><clipPath id="clip14"><rect x="3159" y="233" width="3406" height="1702"/></clipPath><clipPath id="clip15"><rect x="3159" y="233" width="3406" height="1702"/></clipPath><clipPath id="clip16"><rect x="3159" y="233" width="3406" height="1702"/></clipPath><clipPath id="clip17"><rect x="3159" y="233" width="3406" height="1702"/></clipPath><clipPath id="clip18"><rect x="3159" y="233" width="3406" height="1702"/></clipPath><clipPath id="clip19"><rect x="3159" y="233" width="3406" height="1702"/></clipPath><clipPath id="clip20"><rect x="3159" y="233" width="3406" height="1702"/></clipPath><clipPath id="clip21"><rect x="3159" y="233" width="3406" height="1702"/></clipPath><clipPath id="clip22"><rect x="3159" y="233" width="3406" height="1702"/></clipPath><clipPath id="clip23"><rect x="3159" y="233" width="3406" height="1702"/></clipPath><clipPath id="clip24"><rect x="3159" y="233" width="3406" height="1702"/></clipPath><clipPath id="clip25"><rect x="3159" y="233" width="3406" height="1702"/></clipPath><clipPath id="clip26"><rect x="3159" y="233" width="3406" height="1702"/></clipPath><clipPath id="clip27"><rect x="3159" y="233" width="3406" height="1702"/></clipPath><clipPath id="clip28"><rect x="3159" y="233" width="3406" height="1702"/></clipPath><clipPath id="clip29"><rect x="3159" y="233" width="3406" height="1702"/></clipPath><clipPath id="clip30"><rect x="3159" y="233" width="3406" height="1702"/></clipPath><clipPath id="clip31"><rect x="3159" y="233" width="3406" height="1702"/></clipPath><clipPath id="clip32"><rect x="3159" y="233" width="3406" height="1702"/></clipPath><clipPath id="clip33"><rect x="3159" y="233" width="3406" height="1702"/></clipPath><clipPath id="clip34"><rect x="3159" y="233" width="3406" height="1702"/></clipPath><clipPath id="clip35"><rect x="3159" y="233" width="3406" height="1702"/></clipPath><clipPath id="clip36"><rect x="3159" y="233" width="3406" height="1702"/></clipPath><clipPath id="clip37"><rect x="3159" y="233" width="3406" height="1702"/></clipPath><clipPath id="clip38"><rect x="3159" y="233" width="3406" height="1702"/></clipPath><clipPath id="clip39"><rect x="3159" y="233" width="3406" height="1702"/></clipPath><clipPath id="clip40"><rect x="3159" y="233" width="3406" height="1702"/></clipPath><clipPath id="clip41"><rect x="3159" y="233" width="3406" height="1702"/></clipPath><clipPath id="clip42"><rect x="3159" y="233" width="3406" height="1702"/></clipPath><clipPath id="clip43"><rect x="3159" y="233" width="3406" height="1702"/></clipPath><clipPath id="clip44"><rect x="3159" y="233" width="3406" height="1702"/></clipPath><clipPath id="clip45"><rect x="3159" y="233" width="3406" height="1702"/></clipPath><clipPath id="clip46"><rect x="3159" y="233" width="3406" height="1702"/></clipPath><clipPath id="clip47"><rect x="3159" y="233" width="3406" height="1702"/></clipPath><clipPath id="clip48"><rect x="3159" y="233" width="3406" height="1702"/></clipPath><clipPath id="clip49"><rect x="3159" y="233" width="3406" height="1702"/></clipPath><clipPath id="clip50"><rect x="3159" y="233" width="3406" height="1702"/></clipPath><clipPath id="clip51"><rect x="3159" y="233" width="3406" height="1702"/></clipPath><clipPath id="clip52"><rect x="3159" y="233" width="3406" height="1702"/></clipPath><clipPath id="clip53"><rect x="3159" y="233" width="3406" height="1702"/></clipPath><clipPath id="clip54"><rect x="3159" y="233" width="3406" height="1702"/></clipPath><clipPath id="clip55"><rect x="3159" y="233" width="3406" height="1702"/></clipPath><clipPath id="clip56"><rect x="3159" y="233" width="3406" height="1702"/></clipPath><clipPath id="clip57"><rect x="3159" y="233" width="3406" height="1702"/></clipPath><clipPath id="clip58"><rect x="3159" y="233" width="3406" height="1702"/></clipPath><clipPath id="clip59"><rect x="3159" y="233" width="3406" height="1702"/></clipPath><clipPath id="clip60"><rect x="3159" y="233" width="3406" height="1702"/></clipPath><clipPath id="clip61"><rect x="3159" y="233" width="3406" height="1702"/></clipPath><clipPath id="clip62"><rect x="3159" y="233" width="3406" height="1702"/></clipPath></defs><g clip-path="url(#clip0)" transform="translate(-3159 -234)"><rect x="3159" y="234" width="3407" height="1702" fill="#FFFFFF"/><g clip-path="url(#clip1)"><path d="M3601.5 1410.55 6330.5 1410.55M3601.5 1291.54 6330.5 1291.54M3601.5 1171.54 6330.5 1171.54M3601.5 1052.53 6330.5 1052.53M3601.5 932.531 6330.5 932.531M3601.5 813.527 6330.5 813.527M3601.5 693.523 6330.5 693.523M3601.5 574.519 6330.5 574.519M3601.5 454.5 6330.5 454.5" stroke="#D9D9D9" stroke-width="3.4375" stroke-linejoin="round" stroke-miterlimit="10" fill="none"/></g><g clip-path="url(#clip2)"><path d="M3646.62 454.5 3646.62 1530.5M3692.62 454.5 3692.62 1530.5M3737.62 454.5 3737.62 1530.5M3783.62 454.5 3783.62 1530.5M3828.63 454.5 3828.63 1530.5M3874.63 454.5 3874.63 1530.5M3919.63 454.5 3919.63 1530.5M3965.63 454.5 3965.63 1530.5M4010.63 454.5 4010.63 1530.5M4056.63 454.5 4056.63 1530.5M4101.63 454.5 4101.63 1530.5M4147.64 454.5 4147.64 1530.5M4192.64 454.5 4192.64 1530.5M4238.64 454.5 4238.64 1530.5M4283.64 454.5 4283.64 1530.5M4329.64 454.5 4329.64 1530.5M4374.64 454.5 4374.64 1530.5M4420.65 454.5 4420.65 1530.5M4465.65 454.5 4465.65 1530.5M4511.65 454.5 4511.65 1530.5M4556.65 454.5 4556.65 1530.5M4602.65 454.5 4602.65 1530.5M4647.65 454.5 4647.65 1530.5M4692.65 454.5 4692.65 1530.5M4738.66 454.5 4738.66 1530.5M4783.66 454.5 4783.66 1530.5M4829.66 454.5 4829.66 1530.5M4874.66 454.5 4874.66 1530.5M4920.66 454.5 4920.66 1530.5M4965.66 454.5 4965.66 1530.5M5011.66 454.5 5011.66 1530.5M5056.67 454.5 5056.67 1530.5M5102.67 454.5 5102.67 1530.5M5147.67 454.5 5147.67 1530.5M5193.67 454.5 5193.67 1530.5M5238.67 454.5 5238.67 1530.5M5284.67 454.5 5284.67 1530.5M5329.67 454.5 5329.67 1530.5M5375.68 454.5 5375.68 1530.5M5420.68 454.5 5420.68 1530.5M5466.68 454.5 5466.68 1530.5M5511.68 454.5 5511.68 1530.5M5557.68 454.5 5557.68 1530.5M5602.68 454.5 5602.68 1530.5M5648.69 454.5 5648.69 1530.5M5693.69 454.5 5693.69 1530.5M5739.69 454.5 5739.69 1530.5M5784.69 454.5 5784.69 1530.5M5830.69 454.5 5830.69 1530.5M5875.69 454.5 5875.69 1530.5M5920.69 454.5 5920.69 1530.5M5966.7 454.5 5966.7 1530.5M6011.7 454.5 6011.7 1530.5M6057.7 454.5 6057.7 1530.5M6102.7 454.5 6102.7 1530.5M6148.7 454.5 6148.7 1530.5M6193.7 454.5 6193.7 1530.5M6239.71 454.5 6239.71 1530.5M6284.71 454.5 6284.71 1530.5M6330.5 454.5 6330.5 1530.5" stroke="#D9D9D9" stroke-width="3.4375" stroke-linejoin="round" stroke-miterlimit="10" fill="none"/></g><g clip-path="url(#clip3)"><path d="M4798.16 1476.05 4816.16 1476.05 4816.16 1530 4798.16 1530ZM4843.16 1476.05 4861.16 1476.05 4861.16 1530 4843.16 1530ZM4889.16 1458.05 4907.16 1458.05 4907.16 1530 4889.16 1530ZM4934.16 1405.05 4952.16 1405.05 4952.16 1530 4934.16 1530ZM4979.16 1387.05 4998.16 1387.05 4998.16 1530 4979.16 1530ZM5025.17 1369.04 5043.17 1369.04 5043.17 1530 5025.17 1530ZM5070.17 1333.04 5089.17 1333.04 5089.17 1530 5070.17 1530ZM5116.17 1333.04 5134.17 1333.04 5134.17 1530 5116.17 1530ZM5161.17 1315.04 5180.17 1315.04 5180.17 1530 5161.17 1530ZM5207.17 1297.04 5225.17 1297.04 5225.17 1530 5207.17 1530ZM5252.17 1297.04 5271.17 1297.04 5271.17 1530 5252.17 1530ZM5298.17 1243.04 5316.17 1243.04 5316.17 1530 5298.17 1530ZM5343.18 1243.04 5362.18 1243.04 5362.18 1530 5343.18 1530ZM5389.18 1243.04 5407.18 1243.04 5407.18 1530 5389.18 1530ZM5434.18 1243.04 5453.18 1243.04 5453.18 1530 5434.18 1530ZM5480.18 1225.04 5498.18 1225.04 5498.18 1530 5480.18 1530ZM5525.18 1243.04 5543.18 1243.04 5543.18 1530 5525.18 1530ZM5571.18 1190.04 5589.18 1190.04 5589.18 1530 5571.18 1530ZM5616.18 1172.04 5634.19 1172.04 5634.19 1530 5616.18 1530ZM5662.19 1172.04 5680.19 1172.04 5680.19 1530 5662.19 1530ZM5707.19 1100.04 5725.19 1100.04 5725.19 1530 5707.19 1530ZM5753.19 1064.03 5771.19 1064.03 5771.19 1530 5753.19 1530ZM5798.19 993.033 5816.19 993.033 5816.19 1530 5798.19 1530ZM5844.19 1028.03 5862.19 1028.03 5862.19 1530 5844.19 1530ZM5889.19 939.031 5907.19 939.031 5907.19 1530 5889.19 1530ZM5935.19 939.031 5953.2 939.031 5953.2 1530 5935.19 1530ZM5980.2 939.031 5998.2 939.031 5998.2 1530 5980.2 1530ZM6026.2 939.031 6044.2 939.031 6044.2 1530 6026.2 1530ZM6071.2 903.03 6089.2 903.03 6089.2 1530 6071.2 1530ZM6117.2 867.028 6135.2 867.028 6135.2 1530 6117.2 1530ZM6162.2 939.031 6180.2 939.031 6180.2 1530 6162.2 1530ZM6208.2 849.028 6226.2 849.028 6226.2 1530 6208.2 1530ZM6253.21 831.027 6271.21 831.027 6271.21 1530 6253.21 1530ZM6298.21 778.026 6317.21 778.026 6317.21 1530 6298.21 1530Z" fill="#A6A6A6"/></g><g clip-path="url(#clip4)"><path d="M4115.14 1476.05 4134.14 1476.05 4134.14 1530 4115.14 1530ZM4161.14 1458.05 4179.14 1458.05 4179.14 1530 4161.14 1530ZM4206.14 1423.05 4225.14 1423.05 4225.14 1530 4206.14 1530ZM4252.14 1423.05 4270.14 1423.05 4270.14 1530 4252.14 1530ZM4297.14 1369.04 4315.14 1369.04 4315.14 1530 4297.14 1530ZM4343.14 1369.04 4361.14 1369.04 4361.14 1530 4343.14 1530ZM4388.14 1351.04 4406.14 1351.04 4406.14 1530 4388.14 1530ZM4434.15 1351.04 4452.15 1351.04 4452.15 1530 4434.15 1530ZM4479.15 1333.04 4497.15 1333.04 4497.15 1530 4479.15 1530ZM4525.15 1351.04 4543.15 1351.04 4543.15 1530 4525.15 1530ZM4570.15 1297.04 4588.15 1297.04 4588.15 1530 4570.15 1530ZM4616.15 1261.04 4634.15 1261.04 4634.15 1530 4616.15 1530ZM4661.15 1369.04 4679.15 1369.04 4679.15 1530 4661.15 1530ZM4707.15 1225.04 4725.16 1225.04 4725.16 1530 4707.15 1530ZM4752.16 1225.04 4770.16 1225.04 4770.16 1530 4752.16 1530ZM4798.16 1225.04 4816.16 1225.04 4816.16 1476.05 4798.16 1476.05ZM4843.16 1208.04 4861.16 1208.04 4861.16 1476.05 4843.16 1476.05ZM4889.16 1172.04 4907.16 1172.04 4907.16 1458.05 4889.16 1458.05ZM4934.16 1225.04 4952.16 1225.04 4952.16 1405.05 4934.16 1405.05ZM4979.16 1118.04 4998.16 1118.04 4998.16 1387.05 4979.16 1387.05ZM5025.17 1082.04 5043.17 1082.04 5043.17 1369.04 5025.17 1369.04ZM5070.17 1064.03 5089.17 1064.03 5089.17 1333.04 5070.17 1333.04ZM5116.17 1064.03 5134.17 1064.03 5134.17 1333.04 5116.17 1333.04ZM5161.17 975.032 5180.17 975.032 5180.17 1315.04 5161.17 1315.04ZM5207.17 1082.04 5225.17 1082.04 5225.17 1297.04 5207.17 1297.04ZM5252.17 885.029 5271.17 885.029 5271.17 1297.04 5252.17 1297.04ZM5298.17 867.028 5316.17 867.028 5316.17 1243.04 5298.17 1243.04ZM5343.18 849.028 5362.18 849.028 5362.18 1243.04 5343.18 1243.04ZM5389.18 849.028 5407.18 849.028 5407.18 1243.04 5389.18 1243.04ZM5434.18 795.026 5453.18 795.026 5453.18 1243.04 5434.18 1243.04ZM5480.18 795.026 5498.18 795.026 5498.18 1225.04 5480.18 1225.04ZM5525.18 670.022 5543.18 670.022 5543.18 1243.04 5525.18 1243.04ZM5571.18 760.025 5589.18 760.025 5589.18 1190.04 5571.18 1190.04ZM5616.18 688.023 5634.19 688.023 5634.19 1172.04 5616.18 1172.04ZM5662.19 670.022 5680.19 670.022 5680.19 1172.04 5662.19 1172.04ZM5707.19 670.022 5725.19 670.022 5725.19 1100.04 5707.19 1100.04ZM5753.19 867.028 5771.19 867.028 5771.19 1064.03 5753.19 1064.03ZM5798.19 670.022 5816.19 670.022 5816.19 993.033 5798.19 993.033ZM5844.19 634.021 5862.19 634.021 5862.19 1028.03 5844.19 1028.03ZM5889.19 634.021 5907.19 634.021 5907.19 939.031 5889.19 939.031ZM5935.19 598.02 5953.2 598.02 5953.2 939.031 5935.19 939.031ZM5980.2 598.02 5998.2 598.02 5998.2 939.031 5980.2 939.031ZM6026.2 670.022 6044.2 670.022 6044.2 939.031 6026.2 939.031ZM6071.2 580.019 6089.2 580.019 6089.2 903.03 6071.2 903.03ZM6117.2 562.018 6135.2 562.018 6135.2 867.028 6117.2 867.028ZM6162.2 545.018 6180.2 545.018 6180.2 939.031 6162.2 939.031ZM6208.2 598.02 6226.2 598.02 6226.2 849.028 6208.2 849.028ZM6253.21 545.018 6271.21 545.018 6271.21 831.027 6253.21 831.027ZM6298.21 527.017 6317.21 527.017 6317.21 778.026 6298.21 778.026Z" fill="#D9D9D9"/></g><g clip-path="url(#clip5)"><path d="M0 0 0.000360892 1076" stroke="#BFBFBF" stroke-width="3.4375" stroke-linejoin="round" stroke-miterlimit="10" fill="none" fill-rule="evenodd" transform="matrix(1 0 0 -1 6330.5 1530.5)"/></g><g clip-path="url(#clip6)"><path d="M6330.5 1530.5 6354.5 1530.5M6330.5 1350.54 6354.5 1350.54M6330.5 1171.54 6354.5 1171.54M6330.5 992.533 6354.5 992.533M6330.5 813.527 6354.5 813.527M6330.5 634.521 6354.5 634.521M6330.5 454.5 6354.5 454.5" stroke="#BFBFBF" stroke-width="3.4375" stroke-linejoin="round" stroke-miterlimit="10" fill="none"/></g><g clip-path="url(#clip7)"><path d="M0 0 0.000360892 1076" stroke="#BFBFBF" stroke-width="3.4375" stroke-linejoin="round" stroke-miterlimit="10" fill="none" fill-rule="evenodd" transform="matrix(1 0 0 -1 3601.5 1530.5)"/></g><g clip-path="url(#clip8)"><path d="M3601.5 1530.5 6330.5 1530.5" stroke="#BFBFBF" stroke-width="3.4375" stroke-linejoin="round" stroke-miterlimit="10" fill="none" fill-rule="evenodd"/></g><g clip-path="url(#clip9)"><path d="M3624.5 1517.5 3669.62 1510.55 3715.62 1489.55 3760.62 1455.55 3806.62 1453.55 3851.63 1438.55 3897.63 1434.55 3942.63 1434.55 3987.63 1426.55 4033.63 1411.55 4078.63 1405.55 4124.64 1400.55 4169.64 1392.55 4215.64 1380.55 4260.64 1349.54 4306.64 1321.54 4351.64 1319.54 4397.64 1316.54 4442.65 1301.54 4488.65 1283.54 4533.65 1280.54 4579.65 1276.54 4624.65 1256.54 4670.65 1249.54 4715.65 1232.54 4761.66 1232.54 4806.66 1223.54 4852.66 1210.54 4897.66 1199.54 4943.66 1196.54 4988.66 1193.54 5034.67 1186.54 5079.67 1181.54 5125.67 1179.54 5170.67 1173.54 5216.67 1162.54 5261.67 1158.54 5306.67 1154.54 5352.68 1144.54 5397.68 1135.54 5443.68 1131.54 5488.68 1125.54 5534.68 1122.54 5579.68 1111.54 5625.68 1110.54 5670.69 1101.54 5716.69 1097.54 5761.69 1089.54 5807.69 1068.54 5852.69 1065.54 5898.69 1015.53 5943.7 976.532 5989.7 935.531 6034.7 894.53 6080.7 851.528 6125.7 841.528 6171.7 746.525 6216.7 684.523 6262.71 641.521 6307.5 529.5" stroke="#4472C4" stroke-width="6.875" stroke-linecap="round" stroke-linejoin="round" stroke-miterlimit="10" fill="none"/></g><g clip-path="url(#clip10)"><path d="M3624.5 1526.5 3669.62 1524.55 3715.62 1519.55 3760.62 1503.55 3806.62 1438.55 3851.63 1428.55 3897.63 1443.55 3942.63 1440.55 3987.63 1424.55 4033.63 1401.55 4078.63 1401.55 4124.64 1391.55 4169.64 1373.55 4215.64 1373.55 4260.64 1341.54 4306.64 1338.54 4351.64 1326.54 4397.64 1284.54 4442.65 1322.54 4488.65 1265.54 4533.65 1301.54 4579.65 1276.54 4624.65 1256.54 4670.65 1257.54 4715.65 1227.54 4761.66 1220.54 4806.66 1182.54 4852.66 1159.54 4897.66 1187.54 4943.66 1169.54 4988.66 1199.54 5034.67 1188.54 5079.67 1204.54 5125.67 1170.54 5170.67 1201.54 5216.67 1117.54 5261.67 1144.54 5306.67 1152.54 5352.68 1282.54 5397.68 1275.54 5443.68 1266.54 5488.68 1277.54 5534.68 1219.54 5579.68 1190.54 5625.68 1192.54 5670.69 1167.54 5716.69 1205.54 5761.69 1174.54 5807.69 1183.54 5852.69 1173.54 5898.69 1156.54 5943.7 1162.54 5989.7 1043.53 6034.7 988.533 6080.7 993.533 6125.7 975.532 6171.7 969.532 6216.7 895.5 6262.71 928.531 6307.5 901.53" stroke="#ED7D31" stroke-width="6.875" stroke-linecap="round" stroke-linejoin="round" stroke-miterlimit="10" fill="none"/></g><g clip-path="url(#clip11)"><text font-family="LM Roman 10,LM Roman 10_MSFontService,sans-serif" font-weight="700" font-size="64" transform="matrix(1 0 0 1 6400.55 1551)">0%</text></g><g clip-path="url(#clip12)"><text font-family="LM Roman 10,LM Roman 10_MSFontService,sans-serif" font-weight="700" font-size="64" transform="matrix(1 0 0 1 6400.55 1371)">10%</text></g><g clip-path="url(#clip13)"><text font-family="LM Roman 10,LM Roman 10_MSFontService,sans-serif" font-weight="700" font-size="64" transform="matrix(1 0 0 1 6400.55 1192)">20%</text></g><g clip-path="url(#clip14)"><text font-family="LM Roman 10,LM Roman 10_MSFontService,sans-serif" font-weight="700" font-size="64" transform="matrix(1 0 0 1 6400.55 1013)">30%</text></g><g clip-path="url(#clip15)"><text font-family="LM Roman 10,LM Roman 10_MSFontService,sans-serif" font-weight="700" font-size="64" transform="matrix(1 0 0 1 6400.55 834)">40%</text></g><g clip-path="url(#clip16)"><text font-family="LM Roman 10,LM Roman 10_MSFontService,sans-serif" font-weight="700" font-size="64" transform="matrix(1 0 0 1 6400.55 655)">50%</text></g><g clip-path="url(#clip17)"><text font-family="LM Roman 10,LM Roman 10_MSFontService,sans-serif" font-weight="700" font-size="64" transform="matrix(1 0 0 1 6400.55 475)">60%</text></g><g clip-path="url(#clip18)"><text font-family="LM Roman 10,LM Roman 10_MSFontService,sans-serif" font-weight="700" font-size="64" transform="matrix(1 0 0 1 3494.58 1551)">0</text></g><g clip-path="url(#clip19)"><text font-family="LM Roman 10,LM Roman 10_MSFontService,sans-serif" font-weight="700" font-size="64" transform="matrix(1 0 0 1 3383.9 1431)">2000</text></g><g clip-path="url(#clip20)"><text font-family="LM Roman 10,LM Roman 10_MSFontService,sans-serif" font-weight="700" font-size="64" transform="matrix(1 0 0 1 3383.9 1312)">4000</text></g><g clip-path="url(#clip21)"><text font-family="LM Roman 10,LM Roman 10_MSFontService,sans-serif" font-weight="700" font-size="64" transform="matrix(1 0 0 1 3383.9 1192)">6000</text></g><g clip-path="url(#clip22)"><text font-family="LM Roman 10,LM Roman 10_MSFontService,sans-serif" font-weight="700" font-size="64" transform="matrix(1 0 0 1 3383.9 1073)">8000</text></g><g clip-path="url(#clip23)"><text font-family="LM Roman 10,LM Roman 10_MSFontService,sans-serif" font-weight="700" font-size="64" transform="matrix(1 0 0 1 3347 953)">10000</text></g><g clip-path="url(#clip24)"><text font-family="LM Roman 10,LM Roman 10_MSFontService,sans-serif" font-weight="700" font-size="64" transform="matrix(1 0 0 1 3347 834)">12000</text></g><g clip-path="url(#clip25)"><text font-family="LM Roman 10,LM Roman 10_MSFontService,sans-serif" font-weight="700" font-size="64" transform="matrix(1 0 0 1 3347 714)">14000</text></g><g clip-path="url(#clip26)"><text font-family="LM Roman 10,LM Roman 10_MSFontService,sans-serif" font-weight="700" font-size="64" transform="matrix(1 0 0 1 3347 595)">16000</text></g><g clip-path="url(#clip27)"><text font-family="LM Roman 10,LM Roman 10_MSFontService,sans-serif" font-weight="700" font-size="64" transform="matrix(1 0 0 1 3347 475)">18000</text></g><g clip-path="url(#clip28)"><text font-family="LM Roman 10,LM Roman 10_MSFontService,sans-serif" font-weight="700" font-size="64" transform="matrix(0.707107 -0.707107 0.707107 0.707107 3591.31 1682)">10</text></g><g clip-path="url(#clip29)"><text font-family="LM Roman 10,LM Roman 10_MSFontService,sans-serif" font-weight="700" font-size="64" transform="matrix(0.707107 -0.707107 0.707107 0.707107 3701.67 1709)">255</text></g><g clip-path="url(#clip30)"><text font-family="LM Roman 10,LM Roman 10_MSFontService,sans-serif" font-weight="700" font-size="64" transform="matrix(0.707107 -0.707107 0.707107 0.707107 3838.12 1709)">510</text></g><g clip-path="url(#clip31)"><text font-family="LM Roman 10,LM Roman 10_MSFontService,sans-serif" font-weight="700" font-size="64" transform="matrix(0.707107 -0.707107 0.707107 0.707107 3974.57 1709)">765</text></g><g clip-path="url(#clip32)"><text font-family="LM Roman 10,LM Roman 10_MSFontService,sans-serif" font-weight="700" font-size="64" transform="matrix(0.707107 -0.707107 0.707107 0.707107 4084.93 1735)">1020</text></g><g clip-path="url(#clip33)"><text font-family="LM Roman 10,LM Roman 10_MSFontService,sans-serif" font-weight="700" font-size="64" transform="matrix(0.707107 -0.707107 0.707107 0.707107 4221.38 1735)">1275</text></g><g clip-path="url(#clip34)"><text font-family="LM Roman 10,LM Roman 10_MSFontService,sans-serif" font-weight="700" font-size="64" transform="matrix(0.707107 -0.707107 0.707107 0.707107 4357.83 1735)">1530</text></g><g clip-path="url(#clip35)"><text font-family="LM Roman 10,LM Roman 10_MSFontService,sans-serif" font-weight="700" font-size="64" transform="matrix(0.707107 -0.707107 0.707107 0.707107 4494.28 1735)">1785</text></g><g clip-path="url(#clip36)"><text font-family="LM Roman 10,LM Roman 10_MSFontService,sans-serif" font-weight="700" font-size="64" transform="matrix(0.707107 -0.707107 0.707107 0.707107 4630.73 1735)">2040</text></g><g clip-path="url(#clip37)"><text font-family="LM Roman 10,LM Roman 10_MSFontService,sans-serif" font-weight="700" font-size="64" transform="matrix(0.707107 -0.707107 0.707107 0.707107 4767.18 1735)">2295</text></g><g clip-path="url(#clip38)"><text font-family="LM Roman 10,LM Roman 10_MSFontService,sans-serif" font-weight="700" font-size="64" transform="matrix(0.707107 -0.707107 0.707107 0.707107 4903.63 1735)">2550</text></g><g clip-path="url(#clip39)"><text font-family="LM Roman 10,LM Roman 10_MSFontService,sans-serif" font-weight="700" font-size="64" transform="matrix(0.707107 -0.707107 0.707107 0.707107 5040.08 1735)">2805</text></g><g clip-path="url(#clip40)"><text font-family="LM Roman 10,LM Roman 10_MSFontService,sans-serif" font-weight="700" font-size="64" transform="matrix(0.707107 -0.707107 0.707107 0.707107 5176.53 1735)">3060</text></g><g clip-path="url(#clip41)"><text font-family="LM Roman 10,LM Roman 10_MSFontService,sans-serif" font-weight="700" font-size="64" transform="matrix(0.707107 -0.707107 0.707107 0.707107 5312.98 1735)">3315</text></g><g clip-path="url(#clip42)"><text font-family="LM Roman 10,LM Roman 10_MSFontService,sans-serif" font-weight="700" font-size="64" transform="matrix(0.707107 -0.707107 0.707107 0.707107 5449.42 1735)">3570</text></g><g clip-path="url(#clip43)"><text font-family="LM Roman 10,LM Roman 10_MSFontService,sans-serif" font-weight="700" font-size="64" transform="matrix(0.707107 -0.707107 0.707107 0.707107 5585.87 1735)">3825</text></g><g clip-path="url(#clip44)"><text font-family="LM Roman 10,LM Roman 10_MSFontService,sans-serif" font-weight="700" font-size="64" transform="matrix(0.707107 -0.707107 0.707107 0.707107 5722.32 1735)">4080</text></g><g clip-path="url(#clip45)"><text font-family="LM Roman 10,LM Roman 10_MSFontService,sans-serif" font-weight="700" font-size="64" transform="matrix(0.707107 -0.707107 0.707107 0.707107 5858.77 1735)">4335</text></g><g clip-path="url(#clip46)"><text font-family="LM Roman 10,LM Roman 10_MSFontService,sans-serif" font-weight="700" font-size="64" transform="matrix(0.707107 -0.707107 0.707107 0.707107 5995.22 1735)">4590</text></g><g clip-path="url(#clip47)"><text font-family="LM Roman 10,LM Roman 10_MSFontService,sans-serif" font-weight="700" font-size="64" transform="matrix(0.707107 -0.707107 0.707107 0.707107 6131.67 1735)">4845</text></g><g clip-path="url(#clip48)"><text font-family="LM Roman 10,LM Roman 10_MSFontService,sans-serif" font-weight="400" font-size="83" transform="matrix(6.12323e-17 -1 1 6.12323e-17 3261.37 1585)">Średni czas odpowiedzi (ms)</text></g><g clip-path="url(#clip49)"><text font-family="LM Roman 10,LM Roman 10_MSFontService,sans-serif" font-weight="400" font-size="83" transform="matrix(1 0 0 1 4180.2 1905)">Liczba współbieżnie działających wątków</text></g><g clip-path="url(#clip50)"><text font-family="LM Roman 10,LM Roman 10_MSFontService,sans-serif" font-weight="700" font-size="78" transform="matrix(1 0 0 1 3555.23 356)">Interfejs API: </text></g><g clip-path="url(#clip51)"><text font-family="LM Roman 10,LM Roman 10_MSFontService,sans-serif" font-weight="400" font-size="78" transform="matrix(1 0 0 1 4127.92 356)">NodeJS API</text></g><g clip-path="url(#clip52)"><text font-family="LM Roman 10,LM Roman 10_MSFontService,sans-serif" font-weight="700" font-size="78" transform="matrix(1 0 0 1 4554.33 356)">. Punkt końcowy: </text></g><g clip-path="url(#clip53)"><text font-family="LM Roman 10,LM Roman 10_MSFontService,sans-serif" font-weight="400" font-size="78" transform="matrix(1 0 0 1 5270.09 356)">POST /API/PRODUCTS</text></g><g clip-path="url(#clip54)"><rect x="3630.5" y="473.5" width="1110" height="419" stroke="#BFBFBF" stroke-width="3.4375" stroke-linejoin="round" stroke-miterlimit="10" fill="#FFFFFF"/></g><g clip-path="url(#clip55)"><rect x="3652" y="509" width="88" height="35.0001" fill="#D9D9D9"/></g><g clip-path="url(#clip56)"><text font-family="LM Roman 10,LM Roman 10_MSFontService,sans-serif" font-weight="400" font-size="55" transform="matrix(1 0 0 1 3749.43 544)">Procent niepoprawnych odpowiedzi</text></g><g clip-path="url(#clip57)"><rect x="3652" y="613" width="88" height="35.0001" fill="#A6A6A6"/></g><g clip-path="url(#clip58)"><text font-family="LM Roman 10,LM Roman 10_MSFontService,sans-serif" font-weight="400" font-size="50" transform="matrix(1 0 0 1 3749.43 647)">Procent niepoprawnych odpowiedzi - CQRS</text></g><g clip-path="url(#clip59)"><path d="M3652.5 735.5 3740.5 735.5" stroke="#4472C4" stroke-width="6.875" stroke-linecap="round" stroke-linejoin="round" stroke-miterlimit="10" fill="none" fill-rule="evenodd"/></g><g clip-path="url(#clip60)"><text font-family="LM Roman 10,LM Roman 10_MSFontService,sans-serif" font-weight="400" font-size="55" transform="matrix(1 0 0 1 3749.43 753)">SQL Server</text></g><g clip-path="url(#clip61)"><path d="M3652.5 840.5 3740.5 840.5" stroke="#ED7D31" stroke-width="6.875" stroke-linecap="round" stroke-linejoin="round" stroke-miterlimit="10" fill="none" fill-rule="evenodd"/></g><g clip-path="url(#clip62)"><text font-family="LM Roman 10,LM Roman 10_MSFontService,sans-serif" font-weight="400" font-size="55" transform="matrix(1 0 0 1 3749.43 858)">SQL Server - CQRS</text></g></g></svg>