<svg width="3482" height="1702" xmlns="http://www.w3.org/2000/svg" xmlns:xlink="http://www.w3.org/1999/xlink" xml:space="preserve" overflow="hidden"><defs><clipPath id="clip0"><rect x="2499" y="409" width="3482" height="1702"/></clipPath><clipPath id="clip1"><rect x="2499" y="409" width="3481" height="1702"/></clipPath><clipPath id="clip2"><rect x="2499" y="409" width="3481" height="1702"/></clipPath><clipPath id="clip3"><rect x="3014" y="649" width="2676" height="997"/></clipPath><clipPath id="clip4"><rect x="3014" y="649" width="2676" height="997"/></clipPath><clipPath id="clip5"><rect x="2499" y="409" width="3481" height="1702"/></clipPath><clipPath id="clip6"><rect x="2499" y="409" width="3481" height="1702"/></clipPath><clipPath id="clip7"><rect x="2499" y="409" width="3481" height="1702"/></clipPath><clipPath id="clip8"><rect x="2499" y="409" width="3481" height="1702"/></clipPath><clipPath id="clip9"><rect x="3014" y="649" width="2676" height="997"/></clipPath><clipPath id="clip10"><rect x="3014" y="649" width="2676" height="997"/></clipPath><clipPath id="clip11"><rect x="2499" y="409" width="3481" height="1702"/></clipPath><clipPath id="clip12"><rect x="2499" y="409" width="3481" height="1702"/></clipPath><clipPath id="clip13"><rect x="2499" y="409" width="3481" height="1702"/></clipPath><clipPath id="clip14"><rect x="2499" y="409" width="3481" height="1702"/></clipPath><clipPath id="clip15"><rect x="2499" y="409" width="3481" height="1702"/></clipPath><clipPath id="clip16"><rect x="2499" y="409" width="3481" height="1702"/></clipPath><clipPath id="clip17"><rect x="2499" y="409" width="3481" height="1702"/></clipPath><clipPath id="clip18"><rect x="2499" y="409" width="3481" height="1702"/></clipPath><clipPath id="clip19"><rect x="2499" y="409" width="3481" height="1702"/></clipPath><clipPath id="clip20"><rect x="2499" y="409" width="3481" height="1702"/></clipPath><clipPath id="clip21"><rect x="2499" y="409" width="3481" height="1702"/></clipPath><clipPath id="clip22"><rect x="2499" y="409" width="3481" height="1702"/></clipPath><clipPath id="clip23"><rect x="2499" y="409" width="3481" height="1702"/></clipPath><clipPath id="clip24"><rect x="2499" y="409" width="3481" height="1702"/></clipPath><clipPath id="clip25"><rect x="2499" y="409" width="3481" height="1702"/></clipPath><clipPath id="clip26"><rect x="2499" y="409" width="3481" height="1702"/></clipPath><clipPath id="clip27"><rect x="2499" y="409" width="3481" height="1702"/></clipPath><clipPath id="clip28"><rect x="2499" y="409" width="3481" height="1702"/></clipPath><clipPath id="clip29"><rect x="2499" y="409" width="3481" height="1702"/></clipPath><clipPath id="clip30"><rect x="2499" y="409" width="3481" height="1702"/></clipPath><clipPath id="clip31"><rect x="2499" y="409" width="3481" height="1702"/></clipPath><clipPath id="clip32"><rect x="2499" y="409" width="3481" height="1702"/></clipPath><clipPath id="clip33"><rect x="2499" y="409" width="3481" height="1702"/></clipPath><clipPath id="clip34"><rect x="2499" y="409" width="3481" height="1702"/></clipPath><clipPath id="clip35"><rect x="2499" y="409" width="3481" height="1702"/></clipPath><clipPath id="clip36"><rect x="2499" y="409" width="3481" height="1702"/></clipPath><clipPath id="clip37"><rect x="2499" y="409" width="3481" height="1702"/></clipPath><clipPath id="clip38"><rect x="2499" y="409" width="3481" height="1702"/></clipPath><clipPath id="clip39"><rect x="2499" y="409" width="3481" height="1702"/></clipPath><clipPath id="clip40"><rect x="2499" y="409" width="3481" height="1702"/></clipPath><clipPath id="clip41"><rect x="2499" y="409" width="3481" height="1702"/></clipPath><clipPath id="clip42"><rect x="2499" y="409" width="3481" height="1702"/></clipPath><clipPath id="clip43"><rect x="2499" y="409" width="3481" height="1702"/></clipPath><clipPath id="clip44"><rect x="2499" y="409" width="3481" height="1702"/></clipPath><clipPath id="clip45"><rect x="2499" y="409" width="3481" height="1702"/></clipPath><clipPath id="clip46"><rect x="2499" y="409" width="3481" height="1702"/></clipPath><clipPath id="clip47"><rect x="2499" y="409" width="3481" height="1702"/></clipPath><clipPath id="clip48"><rect x="2499" y="409" width="3481" height="1702"/></clipPath><clipPath id="clip49"><rect x="2499" y="409" width="3481" height="1702"/></clipPath><clipPath id="clip50"><rect x="2499" y="409" width="3481" height="1702"/></clipPath><clipPath id="clip51"><rect x="2499" y="409" width="3481" height="1702"/></clipPath><clipPath id="clip52"><rect x="2499" y="409" width="3481" height="1702"/></clipPath><clipPath id="clip53"><rect x="2499" y="409" width="3481" height="1702"/></clipPath><clipPath id="clip54"><rect x="2499" y="409" width="3481" height="1702"/></clipPath><clipPath id="clip55"><rect x="2499" y="409" width="3481" height="1702"/></clipPath><clipPath id="clip56"><rect x="2499" y="409" width="3481" height="1702"/></clipPath></defs><g clip-path="url(#clip0)" transform="translate(-2499 -409)"><rect x="2499" y="409" width="3482" height="1702" fill="#FFFFFF"/><g clip-path="url(#clip1)"><path d="M3014.5 1501.55 5687.5 1501.55M3014.5 1359.54 5687.5 1359.54M3014.5 1217.54 5687.5 1217.54M3014.5 1075.54 5687.5 1075.54M3014.5 933.531 5687.5 933.531M3014.5 791.526 5687.5 791.526M3014.5 649.5 5687.5 649.5" stroke="#D9D9D9" stroke-width="3.4375" stroke-linejoin="round" stroke-miterlimit="10" fill="none"/></g><g clip-path="url(#clip2)"><path d="M3058.6 649.5 3058.6 1643.5M3103.6 649.5 3103.6 1643.5M3147.6 649.5 3147.6 1643.5M3192.6 649.5 3192.6 1643.5M3236.61 649.5 3236.61 1643.5M3281.61 649.5 3281.61 1643.5M3325.61 649.5 3325.61 1643.5M3370.61 649.5 3370.61 1643.5M3415.61 649.5 3415.61 1643.5M3459.61 649.5 3459.61 1643.5M3504.61 649.5 3504.61 1643.5M3548.62 649.5 3548.62 1643.5M3593.62 649.5 3593.62 1643.5M3637.62 649.5 3637.62 1643.5M3682.62 649.5 3682.62 1643.5M3726.62 649.5 3726.62 1643.5M3771.62 649.5 3771.62 1643.5M3816.63 649.5 3816.63 1643.5M3860.63 649.5 3860.63 1643.5M3905.63 649.5 3905.63 1643.5M3949.63 649.5 3949.63 1643.5M3994.63 649.5 3994.63 1643.5M4038.63 649.5 4038.63 1643.5M4083.63 649.5 4083.63 1643.5M4127.64 649.5 4127.64 1643.5M4172.64 649.5 4172.64 1643.5M4216.64 649.5 4216.64 1643.5M4261.64 649.5 4261.64 1643.5M4306.64 649.5 4306.64 1643.5M4350.64 649.5 4350.64 1643.5M4395.64 649.5 4395.64 1643.5M4439.65 649.5 4439.65 1643.5M4484.65 649.5 4484.65 1643.5M4528.65 649.5 4528.65 1643.5M4573.65 649.5 4573.65 1643.5M4617.65 649.5 4617.65 1643.5M4662.65 649.5 4662.65 1643.5M4706.65 649.5 4706.65 1643.5M4751.66 649.5 4751.66 1643.5M4796.66 649.5 4796.66 1643.5M4840.66 649.5 4840.66 1643.5M4885.66 649.5 4885.66 1643.5M4929.66 649.5 4929.66 1643.5M4974.66 649.5 4974.66 1643.5M5018.67 649.5 5018.67 1643.5M5063.67 649.5 5063.67 1643.5M5107.67 649.5 5107.67 1643.5M5152.67 649.5 5152.67 1643.5M5196.67 649.5 5196.67 1643.5M5241.67 649.5 5241.67 1643.5M5286.67 649.5 5286.67 1643.5M5330.67 649.5 5330.67 1643.5M5375.68 649.5 5375.68 1643.5M5419.68 649.5 5419.68 1643.5M5464.68 649.5 5464.68 1643.5M5508.68 649.5 5508.68 1643.5M5553.68 649.5 5553.68 1643.5M5597.68 649.5 5597.68 1643.5M5642.69 649.5 5642.69 1643.5M5687.5 649.5 5687.5 1643.5" stroke="#D9D9D9" stroke-width="3.4375" stroke-linejoin="round" stroke-miterlimit="10" fill="none"/></g><g clip-path="url(#clip3)"><path d="M4141.14 1629.05 4159.14 1629.05 4159.14 1643 4141.14 1643ZM4186.14 1601.05 4204.14 1601.05 4204.14 1643 4186.14 1643ZM4230.14 1601.05 4248.14 1601.05 4248.14 1643 4230.14 1643ZM4275.14 1572.05 4293.14 1572.05 4293.14 1643 4275.14 1643ZM4319.14 1558.05 4337.14 1558.05 4337.14 1643 4319.14 1643ZM4364.14 1544.05 4382.14 1544.05 4382.14 1643 4364.14 1643ZM4408.14 1516.05 4426.15 1516.05 4426.15 1643 4408.14 1643ZM4453.15 1516.05 4471.15 1516.05 4471.15 1643 4453.15 1643ZM4498.15 1501.05 4515.15 1501.05 4515.15 1643 4498.15 1643ZM4542.15 1459.05 4560.15 1459.05 4560.15 1643 4542.15 1643ZM4587.15 1459.05 4604.15 1459.05 4604.15 1643 4587.15 1643ZM4631.15 1445.05 4649.15 1445.05 4649.15 1643 4631.15 1643ZM4676.15 1445.05 4694.15 1445.05 4694.15 1643 4676.15 1643ZM4720.15 1345.04 4738.16 1345.04 4738.16 1643 4720.15 1643ZM4765.16 1345.04 4783.16 1345.04 4783.16 1643 4765.16 1643ZM4809.16 1345.04 4827.16 1345.04 4827.16 1643 4809.16 1643ZM4854.16 1331.04 4872.16 1331.04 4872.16 1643 4854.16 1643ZM4899.16 1430.05 4916.16 1430.05 4916.16 1643 4899.16 1643ZM4943.16 1317.04 4961.16 1317.04 4961.16 1643 4943.16 1643ZM4988.16 1317.04 5005.16 1317.04 5005.16 1643 4988.16 1643ZM5032.17 1288.04 5050.17 1288.04 5050.17 1643 5032.17 1643ZM5077.17 1274.04 5095.17 1274.04 5095.17 1643 5077.17 1643ZM5121.17 1260.04 5139.17 1260.04 5139.17 1643 5121.17 1643ZM5166.17 1331.04 5184.17 1331.04 5184.17 1643 5166.17 1643ZM5210.17 1246.04 5228.17 1246.04 5228.17 1643 5210.17 1643ZM5255.17 1232.04 5273.17 1232.04 5273.17 1643 5255.17 1643ZM5299.17 1288.04 5317.17 1288.04 5317.17 1643 5299.17 1643ZM5344.18 1203.04 5362.18 1203.04 5362.18 1643 5344.18 1643ZM5389.18 1189.04 5406.18 1189.04 5406.18 1643 5389.18 1643ZM5433.18 1161.04 5451.18 1161.04 5451.18 1643 5433.18 1643ZM5478.18 1218.04 5495.18 1218.04 5495.18 1643 5478.18 1643ZM5522.18 1147.04 5540.18 1147.04 5540.18 1643 5522.18 1643ZM5567.18 1147.04 5585.18 1147.04 5585.18 1643 5567.18 1643ZM5611.18 1175.04 5629.18 1175.04 5629.18 1643 5611.18 1643ZM5656.19 1118.04 5674.19 1118.04 5674.19 1643 5656.19 1643Z" fill="#BFBFBF"/></g><g clip-path="url(#clip4)"><path d="M3428.11 1629.05 3446.11 1629.05 3446.11 1643 3428.11 1643ZM3473.11 1629.05 3491.11 1629.05 3491.11 1643 3473.11 1643ZM3518.12 1629.05 3535.12 1629.05 3535.12 1643 3518.12 1643ZM3562.12 1615.05 3580.12 1615.05 3580.12 1643 3562.12 1643ZM3607.12 1615.05 3624.12 1615.05 3624.12 1643 3607.12 1643ZM3651.12 1601.05 3669.12 1601.05 3669.12 1643 3651.12 1643ZM3696.12 1615.05 3714.12 1615.05 3714.12 1643 3696.12 1643ZM3740.12 1615.05 3758.12 1615.05 3758.12 1643 3740.12 1643ZM3785.12 1601.05 3803.12 1601.05 3803.12 1643 3785.12 1643ZM3829.13 1572.05 3847.13 1572.05 3847.13 1643 3829.13 1643ZM3874.13 1572.05 3892.13 1572.05 3892.13 1643 3874.13 1643ZM3918.13 1586.05 3936.13 1586.05 3936.13 1643 3918.13 1643ZM3963.13 1544.05 3981.13 1544.05 3981.13 1643 3963.13 1643ZM4008.13 1558.05 4025.13 1558.05 4025.13 1643 4008.13 1643ZM4052.13 1530.05 4070.13 1530.05 4070.13 1643 4052.13 1643ZM4097.13 1516.05 4114.13 1516.05 4114.13 1643 4097.13 1643ZM4141.14 1487.05 4159.14 1487.05 4159.14 1629.05 4141.14 1629.05ZM4186.14 1430.05 4204.14 1430.05 4204.14 1601.05 4186.14 1601.05ZM4230.14 1473.05 4248.14 1473.05 4248.14 1601.05 4230.14 1601.05ZM4275.14 1459.05 4293.14 1459.05 4293.14 1572.05 4275.14 1572.05ZM4319.14 1430.05 4337.14 1430.05 4337.14 1558.05 4319.14 1558.05ZM4364.14 1402.05 4382.14 1402.05 4382.14 1544.05 4364.14 1544.05ZM4408.14 1374.05 4426.15 1374.05 4426.15 1516.05 4408.14 1516.05ZM4453.15 1416.05 4471.15 1416.05 4471.15 1516.05 4453.15 1516.05ZM4498.15 1388.05 4515.15 1388.05 4515.15 1501.05 4498.15 1501.05ZM4542.15 1359.04 4560.15 1359.04 4560.15 1459.05 4542.15 1459.05ZM4587.15 1331.04 4604.15 1331.04 4604.15 1459.05 4587.15 1459.05ZM4631.15 1317.04 4649.15 1317.04 4649.15 1445.05 4631.15 1445.05ZM4676.15 1303.04 4694.15 1303.04 4694.15 1445.05 4676.15 1445.05ZM4720.15 1288.04 4738.16 1288.04 4738.16 1345.04 4720.15 1345.04ZM4765.16 1260.04 4783.16 1260.04 4783.16 1345.04 4765.16 1345.04ZM4809.16 1232.04 4827.16 1232.04 4827.16 1345.04 4809.16 1345.04ZM4854.16 1189.04 4872.16 1189.04 4872.16 1331.04 4854.16 1331.04ZM4899.16 1246.04 4916.16 1246.04 4916.16 1430.05 4899.16 1430.05ZM4943.16 1274.04 4961.16 1274.04 4961.16 1317.04 4943.16 1317.04ZM4988.16 1175.04 5005.16 1175.04 5005.16 1317.04 4988.16 1317.04ZM5032.17 1132.04 5050.17 1132.04 5050.17 1288.04 5032.17 1288.04ZM5077.17 1104.04 5095.17 1104.04 5095.17 1274.04 5077.17 1274.04ZM5121.17 1047.03 5139.17 1047.03 5139.17 1260.04 5121.17 1260.04ZM5166.17 976.032 5184.17 976.032 5184.17 1331.04 5166.17 1331.04ZM5210.17 948.031 5228.17 948.031 5228.17 1246.04 5210.17 1246.04ZM5255.17 934.031 5273.17 934.031 5273.17 1232.04 5255.17 1232.04ZM5299.17 905.03 5317.17 905.03 5317.17 1288.04 5299.17 1288.04ZM5344.18 891.029 5362.18 891.029 5362.18 1203.04 5344.18 1203.04ZM5389.18 877.029 5406.18 877.029 5406.18 1189.04 5389.18 1189.04ZM5433.18 863.028 5451.18 863.028 5451.18 1161.04 5433.18 1161.04ZM5478.18 849.028 5495.18 849.028 5495.18 1218.04 5478.18 1218.04ZM5522.18 834.027 5540.18 834.027 5540.18 1147.04 5522.18 1147.04ZM5567.18 792.026 5585.18 792.026 5585.18 1147.04 5567.18 1147.04ZM5611.18 778.026 5629.18 778.026 5629.18 1175.04 5611.18 1175.04ZM5656.19 763.025 5674.19 763.025 5674.19 1118.04 5656.19 1118.04Z" fill="#D9D9D9"/></g><g clip-path="url(#clip5)"><path d="M0 0 0.000360892 994" stroke="#BFBFBF" stroke-width="3.4375" stroke-linejoin="round" stroke-miterlimit="10" fill="none" fill-rule="evenodd" transform="matrix(1 0 0 -1 5687.5 1643.5)"/></g><g clip-path="url(#clip6)"><path d="M5687.5 1643.5 5718.5 1643.5M5687.5 1501.55 5718.5 1501.55M5687.5 1359.54 5718.5 1359.54M5687.5 1217.54 5718.5 1217.54M5687.5 1075.54 5718.5 1075.54M5687.5 933.531 5718.5 933.531M5687.5 791.526 5718.5 791.526M5687.5 649.5 5718.5 649.5" stroke="#BFBFBF" stroke-width="3.4375" stroke-linejoin="round" stroke-miterlimit="10" fill="none"/></g><g clip-path="url(#clip7)"><path d="M0 0 0.000360892 994" stroke="#BFBFBF" stroke-width="3.4375" stroke-linejoin="round" stroke-miterlimit="10" fill="none" fill-rule="evenodd" transform="matrix(1 0 0 -1 3014.5 1643.5)"/></g><g clip-path="url(#clip8)"><path d="M3014.5 1643.5 5687.5 1643.5" stroke="#BFBFBF" stroke-width="3.4375" stroke-linejoin="round" stroke-miterlimit="10" fill="none" fill-rule="evenodd"/></g><g clip-path="url(#clip9)"><path d="M3036.5 1632.5 3080.6 1619.55 3125.6 1609.55 3170.6 1607.55 3214.61 1598.55 3259.61 1592.55 3303.61 1586.55 3348.61 1585.55 3392.61 1577.55 3437.61 1564.55 3481.61 1550.55 3526.62 1548.55 3570.62 1541.55 3615.62 1538.55 3660.62 1537.55 3704.62 1531.55 3749.62 1529.55 3793.62 1523.55 3838.63 1520.55 3882.63 1518.55 3927.63 1516.55 3971.63 1512.55 4016.63 1506.55 4061.63 1505.55 4105.63 1503.55 4150.64 1502.55 4194.64 1502.55 4239.64 1497.55 4283.64 1495.55 4328.64 1493.55 4372.64 1483.55 4417.65 1482.55 4461.65 1481.55 4506.65 1481.55 4551.65 1480.55 4595.65 1476.55 4640.65 1468.55 4684.65 1462.55 4729.66 1460.55 4773.66 1454.55 4818.66 1454.55 4862.66 1451.55 4907.66 1441.55 4951.66 1434.55 4996.66 1429.55 5041.67 1427.55 5085.67 1426.55 5130.67 1417.55 5174.67 1415.55 5219.67 1369.55 5263.67 1319.54 5308.67 1272.54 5352.68 1164.54 5397.68 1113.54 5441.68 1006.53 5486.68 988.533 5531.68 872.529 5575.68 839.528 5620.68 736.524 5664.5 707.5" stroke="#4472C4" stroke-width="6.875" stroke-linecap="round" stroke-linejoin="round" stroke-miterlimit="10" fill="none"/></g><g clip-path="url(#clip10)"><path d="M3036.5 1633.5 3080.6 1628.55 3125.6 1628.55 3170.6 1616.55 3214.61 1615.55 3259.61 1614.55 3303.61 1608.55 3348.61 1607.55 3392.61 1604.55 3437.61 1609.55 3481.61 1598.55 3526.62 1595.55 3570.62 1590.55 3615.62 1588.55 3660.62 1588.55 3704.62 1585.55 3749.62 1582.55 3793.62 1575.55 3838.63 1574.55 3882.63 1558.55 3927.63 1563.55 3971.63 1558.55 4016.63 1556.55 4061.63 1549.55 4105.63 1540.55 4150.64 1536.55 4194.64 1520.55 4239.64 1517.55 4283.64 1511.55 4328.64 1500.55 4372.64 1497.55 4417.65 1491.55 4461.65 1481.55 4506.65 1480.55 4551.65 1474.55 4595.65 1474.55 4640.65 1468.55 4684.65 1467.55 4729.66 1467.55 4773.66 1463.55 4818.66 1437.55 4862.66 1435.55 4907.66 1431.55 4951.66 1413.55 4996.66 1409.55 5041.67 1400.55 5085.67 1396.55 5130.67 1393.55 5174.67 1356.54 5219.67 1344.54 5263.67 1320.54 5308.67 1313.54 5352.68 1302.54 5397.68 1286.54 5441.68 1278.54 5486.68 1267.54 5531.68 1257.54 5575.68 1231.54 5620.68 1209.54 5664.5 1203.5" stroke="#ED7D31" stroke-width="6.875" stroke-linecap="round" stroke-linejoin="round" stroke-miterlimit="10" fill="none"/></g><g clip-path="url(#clip11)"><text font-family="LM Roman 10,LM Roman 10_MSFontService,sans-serif" font-weight="700" font-size="83" transform="matrix(1 0 0 1 5777.25 1669)">0%</text></g><g clip-path="url(#clip12)"><text font-family="LM Roman 10,LM Roman 10_MSFontService,sans-serif" font-weight="700" font-size="83" transform="matrix(1 0 0 1 5777.25 1527)">10%</text></g><g clip-path="url(#clip13)"><text font-family="LM Roman 10,LM Roman 10_MSFontService,sans-serif" font-weight="700" font-size="83" transform="matrix(1 0 0 1 5777.25 1385)">20%</text></g><g clip-path="url(#clip14)"><text font-family="LM Roman 10,LM Roman 10_MSFontService,sans-serif" font-weight="700" font-size="83" transform="matrix(1 0 0 1 5777.25 1243)">30%</text></g><g clip-path="url(#clip15)"><text font-family="LM Roman 10,LM Roman 10_MSFontService,sans-serif" font-weight="700" font-size="83" transform="matrix(1 0 0 1 5777.25 1101)">40%</text></g><g clip-path="url(#clip16)"><text font-family="LM Roman 10,LM Roman 10_MSFontService,sans-serif" font-weight="700" font-size="83" transform="matrix(1 0 0 1 5777.25 959)">50%</text></g><g clip-path="url(#clip17)"><text font-family="LM Roman 10,LM Roman 10_MSFontService,sans-serif" font-weight="700" font-size="83" transform="matrix(1 0 0 1 5777.25 817)">60%</text></g><g clip-path="url(#clip18)"><text font-family="LM Roman 10,LM Roman 10_MSFontService,sans-serif" font-weight="700" font-size="83" transform="matrix(1 0 0 1 5777.25 675)">70%</text></g><g clip-path="url(#clip19)"><text font-family="LM Roman 10,LM Roman 10_MSFontService,sans-serif" font-weight="700" font-size="83" transform="matrix(1 0 0 1 2876.75 1669)">0</text></g><g clip-path="url(#clip20)"><text font-family="LM Roman 10,LM Roman 10_MSFontService,sans-serif" font-weight="700" font-size="83" transform="matrix(1 0 0 1 2734.44 1527)">2000</text></g><g clip-path="url(#clip21)"><text font-family="LM Roman 10,LM Roman 10_MSFontService,sans-serif" font-weight="700" font-size="83" transform="matrix(1 0 0 1 2734.44 1385)">4000</text></g><g clip-path="url(#clip22)"><text font-family="LM Roman 10,LM Roman 10_MSFontService,sans-serif" font-weight="700" font-size="83" transform="matrix(1 0 0 1 2734.44 1243)">6000</text></g><g clip-path="url(#clip23)"><text font-family="LM Roman 10,LM Roman 10_MSFontService,sans-serif" font-weight="700" font-size="83" transform="matrix(1 0 0 1 2734.44 1101)">8000</text></g><g clip-path="url(#clip24)"><text font-family="LM Roman 10,LM Roman 10_MSFontService,sans-serif" font-weight="700" font-size="83" transform="matrix(1 0 0 1 2687 959)">10000</text></g><g clip-path="url(#clip25)"><text font-family="LM Roman 10,LM Roman 10_MSFontService,sans-serif" font-weight="700" font-size="83" transform="matrix(1 0 0 1 2687 817)">12000</text></g><g clip-path="url(#clip26)"><text font-family="LM Roman 10,LM Roman 10_MSFontService,sans-serif" font-weight="700" font-size="83" transform="matrix(1 0 0 1 2687 675)">14000</text></g><g clip-path="url(#clip27)"><text font-family="LM Roman 10,LM Roman 10_MSFontService,sans-serif" font-weight="700" font-size="83" transform="matrix(0.707107 -0.707107 0.707107 0.707107 2993.55 1838)">10</text></g><g clip-path="url(#clip28)"><text font-family="LM Roman 10,LM Roman 10_MSFontService,sans-serif" font-weight="700" font-size="83" transform="matrix(0.707107 -0.707107 0.707107 0.707107 3138.2 1872)">340</text></g><g clip-path="url(#clip29)"><text font-family="LM Roman 10,LM Roman 10_MSFontService,sans-serif" font-weight="700" font-size="83" transform="matrix(0.707107 -0.707107 0.707107 0.707107 3316.4 1872)">680</text></g><g clip-path="url(#clip30)"><text font-family="LM Roman 10,LM Roman 10_MSFontService,sans-serif" font-weight="700" font-size="83" transform="matrix(0.707107 -0.707107 0.707107 0.707107 3461.05 1906)">1020</text></g><g clip-path="url(#clip31)"><text font-family="LM Roman 10,LM Roman 10_MSFontService,sans-serif" font-weight="700" font-size="83" transform="matrix(0.707107 -0.707107 0.707107 0.707107 3639.24 1906)">1360</text></g><g clip-path="url(#clip32)"><text font-family="LM Roman 10,LM Roman 10_MSFontService,sans-serif" font-weight="700" font-size="83" transform="matrix(0.707107 -0.707107 0.707107 0.707107 3817.44 1906)">1700</text></g><g clip-path="url(#clip33)"><text font-family="LM Roman 10,LM Roman 10_MSFontService,sans-serif" font-weight="700" font-size="83" transform="matrix(0.707107 -0.707107 0.707107 0.707107 3995.63 1906)">2040</text></g><g clip-path="url(#clip34)"><text font-family="LM Roman 10,LM Roman 10_MSFontService,sans-serif" font-weight="700" font-size="83" transform="matrix(0.707107 -0.707107 0.707107 0.707107 4173.83 1906)">2380</text></g><g clip-path="url(#clip35)"><text font-family="LM Roman 10,LM Roman 10_MSFontService,sans-serif" font-weight="700" font-size="83" transform="matrix(0.707107 -0.707107 0.707107 0.707107 4352.02 1906)">2720</text></g><g clip-path="url(#clip36)"><text font-family="LM Roman 10,LM Roman 10_MSFontService,sans-serif" font-weight="700" font-size="83" transform="matrix(0.707107 -0.707107 0.707107 0.707107 4530.22 1906)">3060</text></g><g clip-path="url(#clip37)"><text font-family="LM Roman 10,LM Roman 10_MSFontService,sans-serif" font-weight="700" font-size="83" transform="matrix(0.707107 -0.707107 0.707107 0.707107 4708.41 1906)">3400</text></g><g clip-path="url(#clip38)"><text font-family="LM Roman 10,LM Roman 10_MSFontService,sans-serif" font-weight="700" font-size="83" transform="matrix(0.707107 -0.707107 0.707107 0.707107 4886.61 1906)">3740</text></g><g clip-path="url(#clip39)"><text font-family="LM Roman 10,LM Roman 10_MSFontService,sans-serif" font-weight="700" font-size="83" transform="matrix(0.707107 -0.707107 0.707107 0.707107 5064.8 1906)">4080</text></g><g clip-path="url(#clip40)"><text font-family="LM Roman 10,LM Roman 10_MSFontService,sans-serif" font-weight="700" font-size="83" transform="matrix(0.707107 -0.707107 0.707107 0.707107 5243 1906)">4420</text></g><g clip-path="url(#clip41)"><text font-family="LM Roman 10,LM Roman 10_MSFontService,sans-serif" font-weight="700" font-size="83" transform="matrix(0.707107 -0.707107 0.707107 0.707107 5421.19 1906)">4760</text></g><g clip-path="url(#clip42)"><text font-family="LM Roman 10,LM Roman 10_MSFontService,sans-serif" font-weight="400" font-size="83" transform="matrix(6.12323e-17 -1 1 6.12323e-17 2603.97 1689)">Średni czas odpowiedzi (ms)</text></g><g clip-path="url(#clip43)"><text font-family="LM Roman 10,LM Roman 10_MSFontService,sans-serif" font-weight="400" font-size="83" transform="matrix(1 0 0 1 3509.26 2068)">Liczba współbieżnie działających wątków</text></g><g clip-path="url(#clip44)"><text font-family="LM Roman 10,LM Roman 10_MSFontService,sans-serif" font-weight="700" font-size="83" transform="matrix(1 0 0 1 2994.35 536)">Interfejs API: </text></g><g clip-path="url(#clip45)"><text font-family="LM Roman 10,LM Roman 10_MSFontService,sans-serif" font-weight="400" font-size="83" transform="matrix(1 0 0 1 3600.72 536)">NodeJS API</text></g><g clip-path="url(#clip46)"><text font-family="LM Roman 10,LM Roman 10_MSFontService,sans-serif" font-weight="700" font-size="83" transform="matrix(1 0 0 1 4052.27 536)">. Punkt końcowy: </text></g><g clip-path="url(#clip47)"><text font-family="LM Roman 10,LM Roman 10_MSFontService,sans-serif" font-weight="400" font-size="83" transform="matrix(1 0 0 1 4810.1 536)">GET /API/BILLS</text></g><g clip-path="url(#clip48)"><rect x="3028.5" y="669.5" width="1492" height="460" stroke="#BFBFBF" stroke-width="3.4375" stroke-linejoin="round" stroke-miterlimit="10" fill="#FFFFFF"/></g><g clip-path="url(#clip49)"><rect x="3064" y="705" width="88" height="44" fill="#D9D9D9"/></g><g clip-path="url(#clip50)"><text font-family="LM Roman 10,LM Roman 10_MSFontService,sans-serif" font-weight="400" font-size="69" transform="matrix(1 0 0 1 3161.5 748)">Procent niepoprawnych odpowiedzi</text></g><g clip-path="url(#clip51)"><rect x="3064" y="820" width="88" height="44" fill="#BFBFBF"/></g><g clip-path="url(#clip52)"><text font-family="LM Roman 10,LM Roman 10_MSFontService,sans-serif" font-weight="400" font-size="69" transform="matrix(1 0 0 1 3161.5 863)">Procent niepoprawnych odpowiedzi - CQRS</text></g><g clip-path="url(#clip53)"><path d="M3064.5 957.5 3152.5 957.5" stroke="#4472C4" stroke-width="6.875" stroke-linecap="round" stroke-linejoin="round" stroke-miterlimit="10" fill="none" fill-rule="evenodd"/></g><g clip-path="url(#clip54)"><text font-family="LM Roman 10,LM Roman 10_MSFontService,sans-serif" font-weight="400" font-size="69" transform="matrix(1 0 0 1 3161.5 978)">SQL Server</text></g><g clip-path="url(#clip55)"><path d="M3064.5 1071.5 3152.5 1071.5" stroke="#ED7D31" stroke-width="6.875" stroke-linecap="round" stroke-linejoin="round" stroke-miterlimit="10" fill="none" fill-rule="evenodd"/></g><g clip-path="url(#clip56)"><text font-family="LM Roman 10,LM Roman 10_MSFontService,sans-serif" font-weight="400" font-size="69" transform="matrix(1 0 0 1 3161.5 1093)">SQL Server - CQRS</text></g></g></svg>