<svg width="2833" height="1363" xmlns="http://www.w3.org/2000/svg" xmlns:xlink="http://www.w3.org/1999/xlink" xml:space="preserve" overflow="hidden"><defs><clipPath id="clip0"><rect x="5356" y="1581" width="2833" height="1363"/></clipPath><clipPath id="clip1"><rect x="5356" y="1581" width="2833" height="1363"/></clipPath><clipPath id="clip2"><rect x="5356" y="1581" width="2833" height="1363"/></clipPath><clipPath id="clip3"><rect x="5356" y="1581" width="2833" height="1363"/></clipPath><clipPath id="clip4"><rect x="5356" y="1581" width="2833" height="1363"/></clipPath><clipPath id="clip5"><rect x="5736" y="1899" width="2355" height="651"/></clipPath><clipPath id="clip6"><rect x="5356" y="1581" width="2833" height="1363"/></clipPath><clipPath id="clip7"><rect x="5356" y="1581" width="2833" height="1363"/></clipPath><clipPath id="clip8"><rect x="5356" y="1581" width="2833" height="1363"/></clipPath><clipPath id="clip9"><rect x="5356" y="1581" width="2833" height="1363"/></clipPath><clipPath id="clip10"><rect x="5356" y="1581" width="2833" height="1363"/></clipPath><clipPath id="clip11"><rect x="5356" y="1581" width="2833" height="1363"/></clipPath><clipPath id="clip12"><rect x="5356" y="1581" width="2833" height="1363"/></clipPath><clipPath id="clip13"><rect x="5356" y="1581" width="2833" height="1363"/></clipPath><clipPath id="clip14"><rect x="5356" y="1581" width="2833" height="1363"/></clipPath><clipPath id="clip15"><rect x="5356" y="1581" width="2833" height="1363"/></clipPath><clipPath id="clip16"><rect x="5356" y="1581" width="2833" height="1363"/></clipPath><clipPath id="clip17"><rect x="5356" y="1581" width="2833" height="1363"/></clipPath><clipPath id="clip18"><rect x="5356" y="1581" width="2833" height="1363"/></clipPath><clipPath id="clip19"><rect x="5356" y="1581" width="2833" height="1363"/></clipPath><clipPath id="clip20"><rect x="5356" y="1581" width="2833" height="1363"/></clipPath><clipPath id="clip21"><rect x="5356" y="1581" width="2833" height="1363"/></clipPath><clipPath id="clip22"><rect x="5356" y="1581" width="2833" height="1363"/></clipPath><clipPath id="clip23"><rect x="5356" y="1581" width="2833" height="1363"/></clipPath><clipPath id="clip24"><rect x="5356" y="1581" width="2833" height="1363"/></clipPath><clipPath id="clip25"><rect x="5356" y="1581" width="2833" height="1363"/></clipPath><clipPath id="clip26"><rect x="5356" y="1581" width="2833" height="1363"/></clipPath><clipPath id="clip27"><rect x="5356" y="1581" width="2833" height="1363"/></clipPath><clipPath id="clip28"><rect x="5356" y="1581" width="2833" height="1363"/></clipPath><clipPath id="clip29"><rect x="5356" y="1581" width="2833" height="1363"/></clipPath><clipPath id="clip30"><rect x="5356" y="1581" width="2833" height="1363"/></clipPath><clipPath id="clip31"><rect x="5356" y="1581" width="2833" height="1363"/></clipPath><clipPath id="clip32"><rect x="5356" y="1581" width="2833" height="1363"/></clipPath><clipPath id="clip33"><rect x="5356" y="1581" width="2833" height="1363"/></clipPath><clipPath id="clip34"><rect x="5356" y="1581" width="2833" height="1363"/></clipPath><clipPath id="clip35"><rect x="5356" y="1581" width="2833" height="1363"/></clipPath><clipPath id="clip36"><rect x="5356" y="1581" width="2833" height="1363"/></clipPath><clipPath id="clip37"><rect x="5356" y="1581" width="2833" height="1363"/></clipPath><clipPath id="clip38"><rect x="5356" y="1581" width="2833" height="1363"/></clipPath><clipPath id="clip39"><rect x="5356" y="1581" width="2833" height="1363"/></clipPath><clipPath id="clip40"><rect x="5356" y="1581" width="2833" height="1363"/></clipPath><clipPath id="clip41"><rect x="5356" y="1581" width="2833" height="1363"/></clipPath><clipPath id="clip42"><rect x="5356" y="1581" width="2833" height="1363"/></clipPath><clipPath id="clip43"><rect x="5356" y="1581" width="2833" height="1363"/></clipPath><clipPath id="clip44"><rect x="5356" y="1581" width="2833" height="1363"/></clipPath><clipPath id="clip45"><rect x="5356" y="1581" width="2833" height="1363"/></clipPath><clipPath id="clip46"><rect x="5356" y="1581" width="2833" height="1363"/></clipPath></defs><g clip-path="url(#clip0)" transform="translate(-5356 -1581)"><rect x="5357" y="1581" width="2832" height="1363" fill="#FFFFFF"/><g clip-path="url(#clip1)"><path d="M5736.5 2534.58 8088.5 2534.58M5736.5 2521.58 8088.5 2521.58M5736.5 2508.58 8088.5 2508.58M5736.5 2495.58 8088.5 2495.58M5736.5 2469.58 8088.5 2469.58M5736.5 2456.58 8088.5 2456.58M5736.5 2443.58 8088.5 2443.58M5736.5 2430.58 8088.5 2430.58M5736.5 2404.58 8088.5 2404.58M5736.5 2391.58 8088.5 2391.58M5736.5 2378.58 8088.5 2378.58M5736.5 2365.58 8088.5 2365.58M5736.5 2339.58 8088.5 2339.58M5736.5 2326.58 8088.5 2326.58M5736.5 2313.58 8088.5 2313.58M5736.5 2300.58 8088.5 2300.58M5736.5 2275.57 8088.5 2275.57M5736.5 2262.57 8088.5 2262.57M5736.5 2249.57 8088.5 2249.57M5736.5 2236.57 8088.5 2236.57M5736.5 2210.57 8088.5 2210.57M5736.5 2197.57 8088.5 2197.57M5736.5 2184.57 8088.5 2184.57M5736.5 2171.57 8088.5 2171.57M5736.5 2145.57 8088.5 2145.57M5736.5 2132.57 8088.5 2132.57M5736.5 2119.57 8088.5 2119.57M5736.5 2106.57 8088.5 2106.57M5736.5 2080.57 8088.5 2080.57M5736.5 2067.57 8088.5 2067.57M5736.5 2054.57 8088.5 2054.57M5736.5 2041.57 8088.5 2041.57M5736.5 2015.57 8088.5 2015.57M5736.5 2002.57 8088.5 2002.57M5736.5 1989.57 8088.5 1989.57M5736.5 1976.57 8088.5 1976.57M5736.5 1950.56 8088.5 1950.56M5736.5 1937.56 8088.5 1937.56M5736.5 1924.56 8088.5 1924.56M5736.5 1911.56 8088.5 1911.56" stroke="#F2F2F2" stroke-width="3.4375" stroke-linejoin="round" stroke-miterlimit="10" fill="none"/></g><g clip-path="url(#clip2)"><path d="M5736.5 2482.58 8088.5 2482.58M5736.5 2417.58 8088.5 2417.58M5736.5 2352.58 8088.5 2352.58M5736.5 2287.58 8088.5 2287.58M5736.5 2223.57 8088.5 2223.57M5736.5 2158.57 8088.5 2158.57M5736.5 2093.57 8088.5 2093.57M5736.5 2028.57 8088.5 2028.57M5736.5 1963.56 8088.5 1963.56M5736.5 1899.5 8088.5 1899.5" stroke="#D9D9D9" stroke-width="3.4375" stroke-linejoin="round" stroke-miterlimit="10" fill="none"/></g><g clip-path="url(#clip3)"><rect x="5736.5" y="1899.5" width="2352" height="648" stroke="#D9D9D9" stroke-width="3.4375" stroke-linejoin="round" stroke-miterlimit="10" fill="none"/></g><g clip-path="url(#clip4)"><path d="M5736.5 2547.5 8088.5 2547.5" stroke="#D9D9D9" stroke-width="3.4375" stroke-linejoin="round" stroke-miterlimit="10" fill="none" fill-rule="evenodd"/></g><g clip-path="url(#clip5)"><path d="M5736.5 2503.58 5737.69 2533.58 5738.69 2538.58 5739.69 2537.58 5739.69 2537.58 5740.69 2535.58 5741.69 2533.58 5742.69 2533.58 5743.69 2429.58 5744.69 2486.58 5745.69 2273.57 5745.69 2515.58 5746.69 2232.57 5747.69 2497.58 5748.69 2495.58 5749.69 2489.58 5750.69 2490.58 5750.69 2486.58 5751.69 2289.58 5752.69 2537.58 5753.69 2536.58 5754.69 2433.58 5755.69 2536.58 5756.69 2396.58 5756.69 2479.58 5757.69 2239.57 5758.69 2538.58 5759.69 2538.58 5760.69 2538.58 5761.69 2535.58 5761.69 2532.58 5762.69 2253.57 5763.69 2448.58 5764.69 2530.58 5765.69 2530.58 5766.69 2539.58 5767.69 2494.58 5767.69 2397.58 5768.69 2250.57 5769.69 2539.58 5770.69 2417.58 5771.69 2532.58 5772.69 2280.57 5772.69 2241.57 5773.69 2520.58 5774.69 2320.58 5775.69 2482.58 5776.69 2519.58 5777.69 2517.58 5778.69 2283.58 5778.69 2539.58 5779.69 2270.57 5780.69 2525.58 5781.69 2537.58 5782.69 2389.58 5783.69 2402.58 5783.69 2502.58 5784.69 2494.58 5785.69 2521.58 5786.69 2497.58 5787.69 2528.58 5788.69 2414.58 5789.69 2226.57 5789.69 2263.57 5790.69 2311.58 5791.69 2469.58 5792.69 2470.58 5793.69 2470.58 5794.69 2501.58 5794.69 2473.58 5795.69 2524.58 5796.69 2373.58 5797.69 2538.58 5798.69 2538.58 5799.69 2413.58 5800.69 2537.58 5800.69 2342.58 5801.69 2254.57 5802.69 2536.58 5803.69 2533.58 5804.69 2425.58 5805.69 2497.58 5805.69 2349.58 5806.69 2254.57 5807.69 2272.57 5808.69 2380.58 5809.69 2520.58 5810.69 2500.58 5810.69 2499.58 5811.69 2534.58 5812.69 2270.57 5813.69 2538.58 5814.69 2371.58 5815.69 2285.58 5816.69 2539.58 5816.69 2492.58 5817.69 2421.58 5818.69 2538.58 5819.69 2489.58 5820.69 2303.58 5821.69 2364.58 5821.69 2505.58 5822.69 2498.58 5823.69 2528.58 5824.69 2329.58 5825.69 2483.58 5826.69 2538.58 5827.69 2266.57 5827.69 2412.58 5828.69 2538.58 5829.69 2539.58 5830.69 2395.58 5831.69 2538.58 5832.69 2396.58 5832.69 2536.58 5833.69 2538.58 5834.69 2526.58 5835.69 2503.58 5836.69 2505.58 5837.69 2538.58 5838.69 2538.58 5838.69 2329.58 5839.69 2267.57 5840.69 2346.58 5841.69 2527.58 5842.69 2259.57 5843.69 2226.57 5843.69 2523.58 5844.69 2368.58 5845.69 2535.58 5846.69 2534.58 5847.69 2491.58 5848.69 2489.58 5849.69 2321.58 5849.69 2421.58 5850.69 2446.58 5851.69 2283.58 5852.69 2485.58 5853.69 2493.58 5854.69 2494.58 5854.69 2532.58 5855.69 2489.58 5856.69 2350.58 5857.69 2526.58 5858.69 2525.58 5859.69 2233.57 5860.69 2478.58 5860.69 2534.58 5861.69 2383.58 5862.69 2292.58 5863.69 2486.58 5864.69 2333.58 5865.69 2483.58 5865.69 2522.58 5866.69 2514.58 5867.69 2440.58 5868.69 2519.58 5869.69 2376.58 5870.69 2536.58 5871.69 2535.58 5871.69 2470.58 5872.69 2535.58 5873.69 2358.58 5874.69 2532.58 5875.69 2442.58 5876.69 2387.58 5876.69 2538.58 5877.69 2342.58 5878.69 2379.58 5879.69 2355.58 5880.69 2281.58 5881.69 2500.58 5882.69 2316.58 5882.69 2518.58 5883.69 2534.58 5884.69 2439.58 5885.69 2491.58 5886.69 2494.58 5887.69 2435.58 5887.69 2416.58 5888.69 2309.58 5889.69 2398.58 5890.69 2504.58 5891.69 2326.58 5892.69 2373.58 5893.69 2504.58 5893.69 2313.58 5894.69 2377.58 5895.69 2530.58 5896.69 2538.58 5897.69 2505.58 5898.69 2535.58 5898.69 2538.58 5899.69 2298.58 5900.69 2356.58 5901.69 2445.58 5902.69 2505.58 5903.69 2504.58 5903.69 2525.58 5904.69 2522.58 5905.69 2334.58 5906.69 2270.57 5907.69 2538.58 5908.69 2532.58 5909.69 2341.58 5909.69 2530.58 5910.69 2467.58 5911.69 2518.58 5912.69 2515.58 5913.69 2513.58 5914.69 2465.58 5914.69 2474.58 5915.69 2529.58 5916.69 2534.58 5917.69 2535.58 5918.69 2431.58 5919.69 1833.56 5920.69 2519.58 5920.69 2498.58 5921.69 2409.58 5922.69 2536.58 5923.69 2489.58 5924.69 2393.58 5925.69 2388.58 5925.69 2290.58 5926.69 2394.58 5927.69 2439.58 5928.69 2294.58 5929.69 2402.58 5930.69 2300.58 5931.69 2338.58 5931.69 2463.58 5932.69 2539.58 5933.69 2363.58 5934.69 2524.58 5935.69 2325.58 5936.69 2474.58 5936.69 2533.58 5937.69 2272.57 5938.69 2487.58 5939.69 2521.58 5940.7 2383.58 5941.7 2497.58 5942.7 2257.57 5942.7 2226.57 5943.7 2525.58 5944.7 2485.58 5945.7 2521.58 5946.7 2480.58 5947.7 2524.58 5947.7 2479.58 5948.7 2525.58 5949.7 2360.58 5950.7 2374.58 5951.7 2532.58 5952.7 2528.58 5953.7 2269.57 5953.7 2483.58 5954.7 2536.58 5955.7 2300.58 5956.7 2501.58 5957.7 2264.57 5958.7 2532.58 5958.7 2496.58 5959.7 2375.58 5960.7 2223.57 5961.7 2399.58 5962.7 2487.58 5963.7 2335.58 5964.7 2538.58 5964.7 2538.58 5965.7 2539.58 5966.7 2241.57 5967.7 2424.58 5968.7 2497.58 5969.7 2539.58 5969.7 2500.58 5970.7 2431.58 5971.7 2538.58 5972.7 2538.58 5973.7 2537.58 5974.7 2536.58 5975.7 2536.58 5975.7 2521.58 5976.7 2306.58 5977.7 2338.58 5978.7 2502.58 5979.7 2315.58 5980.7 2439.58 5980.7 2538.58 5981.7 2500.58 5982.7 2539.58 5983.7 2537.58 5984.7 2302.58 5985.7 2278.57 5985.7 2538.58 5986.7 2534.58 5987.7 2490.58 5988.7 2498.58 5989.7 2497.58 5990.7 2353.58 5991.7 2418.58 5991.7 2529.58 5992.7 2415.58 5993.7 2515.58 5994.7 2466.58 5995.7 2226.57 5996.7 2525.58 5996.7 2415.58 5997.7 2328.58 5998.7 2487.58 5999.7 2532.58 6000.7 2349.58 6001.7 2538.58 6002.7 2427.58 6002.7 2430.58 6003.7 2526.58 6004.7 2385.58 6005.7 2531.58 6006.7 2530.58 6007.7 2282.58 6007.7 2524.58 6008.7 2481.58 6009.7 2538.58 6010.7 2538.58 6011.7 2538.58 6012.7 2233.57 6013.7 2538.58 6013.7 2242.57 6014.7 2254.57 6015.7 2536.58 6016.7 2245.57 6017.7 2419.58 6018.7 2501.58 6018.7 2506.58 6019.7 2304.58 6020.7 2520.58 6021.7 2514.58 6022.7 2510.58 6023.7 2537.58 6024.7 2485.58 6024.7 2264.57 6025.7 2538.58 6026.7 2539.58 6027.7 2537.58 6028.7 2487.58 6029.7 2484.58 6029.7 2533.58 6030.7 2536.58 6031.7 2383.58 6032.7 2399.58 6033.7 2528.58 6034.7 2426.58 6035.7 2493.58 6035.7 2428.58 6036.7 2539.58 6037.7 2379.58 6038.7 2480.58 6039.7 2539.58 6040.7 2328.58 6040.7 2362.58 6041.7 2364.58 6042.7 2539.58 6043.7 2391.58 6044.7 2250.57 6045.7 2390.58 6046.7 2278.57 6046.7 2270.57 6047.7 2321.58 6048.7 2242.57 6049.7 2538.58 6050.7 2298.58 6051.7 2539.58 6051.7 2538.58 6052.7 2538.58 6053.7 2503.58 6054.7 2535.58 6055.7 2534.58 6056.7 2531.58 6057.7 2534.58 6057.7 2536.58 6058.7 2532.58 6059.7 2416.58 6060.7 2533.58 6061.7 2234.57 6062.7 2529.58 6062.7 2531.58 6063.7 2406.58 6064.7 2411.58 6065.7 2527.58 6066.7 2272.57 6067.7 2387.58 6067.7 2475.58 6068.7 2433.58 6069.7 2502.58 6070.7 2502.58 6071.7 2471.58 6072.7 2502.58 6073.7 2280.57 6073.7 2493.58 6074.7 2253.57 6075.7 2516.58 6076.7 2236.57 6077.7 2523.58 6078.7 2273.57 6078.7 2452.58 6079.7 2529.58 6080.7 2334.58 6081.7 2546.5 6082.7 2493.58 6083.7 2535.58 6084.7 2515.58 6084.7 2526.58 6085.7 2533.58 6086.7 2436.58 6087.7 2476.58 6088.7 2331.58 6089.7 2530.58 6089.7 2527.58 6090.7 2439.58 6091.7 2276.57 6092.7 2520.58 6093.7 2388.58 6094.7 2517.58 6095.7 2244.57 6095.7 2530.58 6096.7 2475.58 6097.7 2397.58 6098.7 2306.58 6099.7 2444.58 6100.7 2521.58 6100.7 2282.58 6101.7 2535.58 6102.7 2308.58 6103.7 2483.58 6104.7 2294.58 6105.7 2533.58 6106.7 2352.58 6106.7 2526.58 6107.7 2433.58 6108.7 2526.58 6109.7 2282.58 6110.7 2380.58 6111.7 2525.58 6111.7 2239.57 6112.7 2476.58 6113.7 2546.58 6114.7 2300.58 6115.7 2535.58 6116.7 2529.58 6117.7 2309.58 6117.7 2263.57 6118.7 2534.58 6119.7 2494.58 6120.7 2284.58 6121.7 2378.58 6122.7 2536.58 6122.7 2432.58 6123.7 2241.57 6124.7 2278.57 6125.7 2538.58 6126.7 2538.58 6127.7 2505.58 6128.7 2505.58 6128.7 2421.58 6129.7 2317.58 6130.7 2539.58 6131.7 2538.58 6132.7 2538.58 6133.7 2538.58 6133.7 2500.58 6134.7 2500.58 6135.7 2444.58 6136.7 2538.58 6137.7 2502.58 6138.7 2504.58 6139.7 2537.58 6139.7 2503.58 6140.7 2383.58 6141.7 2538.58 6142.7 2536.58 6143.7 2498.58 6144.7 2504.58 6144.7 2526.58 6145.7 2449.58 6146.7 2254.57 6147.7 2370.58 6148.7 2326.58 6149.7 2530.58 6149.7 2257.57 6150.7 2528.58 6151.7 2444.58 6152.7 2476.58 6153.7 2481.58 6154.7 2480.58 6155.7 2524.58 6155.7 2477.58 6156.7 2274.57 6157.7 2278.57 6158.7 2351.58 6159.7 2479.58 6160.7 2528.58 6160.7 2530.58 6161.7 2327.58 6162.7 2389.58 6163.7 2355.58 6164.7 2355.58 6165.7 2256.57 6166.7 2343.58 6166.7 2340.58 6167.7 2530.58 6168.7 2263.57 6169.7 2225.57 6170.7 2275.57 6171.7 2485.58 6171.7 2528.58 6172.7 2354.58 6173.7 2533.58 6174.7 2531.58 6175.7 2475.58 6176.7 2298.58 6177.7 2471.58 6177.7 2534.58 6178.7 2534.58 6179.7 2351.58 6180.7 2531.58 6181.7 2534.58 6182.7 2236.57 6182.7 2402.58 6183.7 2531.58 6184.7 2395.58 6185.7 2319.58 6186.7 2532.58 6187.7 2447.58 6188.7 2300.58 6188.7 2531.58 6189.7 2527.58 6190.7 2428.58 6191.7 2437.58 6192.7 2333.58 6193.7 2322.58 6193.7 2518.58 6194.7 2266.57 6195.7 2270.57 6196.7 2277.57 6197.7 2538.58 6198.7 2491.58 6199.7 2434.58 6199.7 2329.58 6200.7 2504.58 6201.7 2539.58 6202.7 2353.58 6203.7 2420.58 6204.7 2330.58 6204.7 2249.57 6205.7 2538.58 6206.7 2534.58 6207.7 2273.57 6208.7 2355.58 6209.7 2306.58 6210.7 2538.58 6210.7 2498.58 6211.7 2503.58 6212.7 2538.58 6213.7 2360.58 6214.7 2503.58 6215.7 2416.58 6215.7 2365.58 6216.7 2347.58 6217.7 2537.58 6218.7 2380.58 6219.7 2492.58 6220.7 2276.57 6221.7 2449.58 6221.7 2537.58 6222.7 2539.58 6223.7 2249.57 6224.7 2538.58 6225.7 2537.58 6226.7 2397.58 6226.7 2434.58 6227.7 2531.58 6228.7 2521.58 6229.7 2504.58 6230.7 2515.58 6231.7 2511.58 6232.7 2438.58 6232.7 2347.58 6233.7 2226.57 6234.7 2251.57 6235.7 2476.58 6236.7 2365.58 6237.71 2516.58 6237.71 2490.58 6238.71 2518.58 6239.71 2518.58 6240.71 2518.58 6241.71 2537.58 6242.71 2428.58 6242.71 2471.58 6243.71 2395.58 6244.71 2538.58 6245.71 2343.58 6246.71 2500.58 6247.71 2249.57 6248.71 2536.58 6248.71 2433.58 6249.71 2270.57 6250.71 2254.57 6251.71 2530.58 6252.71 2505.58 6253.71 2519.58 6253.71 2522.58 6254.71 2492.58 6255.71 2524.58 6256.71 2485.58 6257.71 2335.58 6258.71 2529.58 6259.71 2474.58 6259.71 2538.58 6260.71 2313.58 6261.71 2258.57 6262.71 2424.58 6263.71 2514.58 6264.71 2500.58 6264.71 2538.58 6265.71 2336.58 6266.71 2527.58 6267.71 2487.58 6268.71 2487.58 6269.71 2375.58 6270.71 2530.58 6270.71 2388.58 6271.71 2399.58 6272.71 2421.58 6273.71 2531.58 6274.71 2495.58 6275.71 2256.57 6275.71 2300.58 6276.71 2487.58 6277.71 2493.58 6278.71 2298.58 6279.71 2436.58 6280.71 2328.58 6281.71 2290.58 6281.71 2495.58 6282.71 2538.58 6283.71 2445.58 6284.71 2502.58 6285.71 2316.58 6286.71 2537.58 6286.71 2539.58 6287.71 2234.57 6288.71 2537.58 6289.71 2308.58 6290.71 2537.58 6291.71 2242.57 6292.71 2505.58 6292.71 2247.57 6293.71 2437.58 6294.71 2342.58 6295.71 2440.58 6296.71 2538.58 6297.71 2223.57 6297.71 2539.58 6298.71 2443.58 6299.71 2442.58 6300.71 2533.58 6301.71 2404.58 6302.71 2538.58 6303.71 2537.58 6303.71 2415.58 6304.71 2530.58 6305.71 2535.58 6306.71 2496.58 6307.71 2494.58 6308.71 2533.58 6308.71 2238.57 6309.71 2226.57 6310.71 2399.58 6311.71 2393.58 6312.71 2538.58 6313.71 2232.57 6314.71 2422.58 6314.71 2539.58 6315.71 2538.58 6316.71 2322.58 6317.71 2537.58 6318.71 2536.58 6319.71 2296.58 6319.71 2228.57 6320.71 2539.58 6321.71 2538.58 6322.71 2245.57 6323.71 2533.58 6324.71 2533.58 6324.71 2446.58 6325.71 2533.58 6326.71 2400.58 6327.71 2538.58 6328.71 2273.57 6329.71 2527.58 6330.71 2233.57 6330.71 2301.58 6331.71 2235.57 6332.71 2472.58 6333.71 2533.58 6334.71 2530.58 6335.71 2504.58 6335.71 2529.58 6336.71 2503.58 6337.71 2368.58 6338.71 2538.58 6339.71 2538.58 6340.71 2539.58 6341.71 2354.58 6341.71 2539.58 6342.71 2538.58 6343.71 2226.57 6344.71 2538.58 6345.71 2234.57 6346.71 2396.58 6346.71 2501.58 6347.71 2524.58 6348.71 2290.58 6349.71 2525.58 6350.71 2538.58 6351.71 2526.58 6352.71 2395.58 6352.71 2252.57 6353.71 2538.58 6354.71 2539.58 6355.71 2254.57 6356.71 2538.58 6357.71 2503.58 6357.71 2502.58 6358.71 2422.58 6359.71 2537.58 6360.71 2538.58 6361.71 2503.58 6362.71 2539.58 6363.71 2255.57 6363.71 2356.58 6364.71 2310.58 6365.71 2539.58 6366.71 2268.57 6367.71 2372.58 6368.71 2506.58 6368.71 2504.58 6369.71 2538.58 6370.71 2334.58 6371.71 2496.58 6372.71 2283.58 6373.71 2401.58 6374.71 2496.58 6374.71 2238.57 6375.71 2507.58 6376.71 2533.58 6377.71 2503.58 6378.71 2539.58 6379.71 2382.58 6379.71 2537.58 6380.71 2249.57 6381.71 2538.58 6382.71 2537.58 6383.71 2535.58 6384.71 2536.58 6385.71 2364.58 6385.71 2405.58 6386.71 2539.58 6387.71 2365.58 6388.71 2408.58 6389.71 2503.58 6390.71 2501.58 6390.71 2539.58 6391.71 2497.58 6392.71 2537.58 6393.71 2295.58 6394.71 2538.58 6395.71 2287.58 6396.71 2237.57 6396.71 2502.58 6397.71 2538.58 6398.71 2537.58 6399.71 2538.58 6400.71 2538.58 6401.71 2502.58 6401.71 2537.58 6402.71 2505.58 6403.71 2538.58 6404.71 2538.58 6405.71 2538.58 6406.71 2504.58 6406.71 2296.58 6407.71 2537.58 6408.71 2321.58 6409.71 2538.58 6410.71 2345.58 6411.71 2539.58 6412.71 2539.58 6412.71 2286.58 6413.71 2445.58 6414.71 2538.58 6415.71 2330.58 6416.71 2502.58 6417.71 2539.58 6417.71 2539.58 6418.71 2415.58 6419.71 2504.58 6420.71 2538.58 6421.71 2535.58 6422.71 2504.58 6423.71 2501.58 6423.71 2538.58 6424.71 2364.58 6425.71 2313.58 6426.71 2414.58 6427.71 2502.58 6428.71 2538.58 6428.71 2538.58 6429.71 2502.58 6430.71 2506.58 6431.71 2500.58 6432.71 2385.58 6433.71 2224.57 6434.71 2372.58 6434.71 2537.58 6435.71 2363.58 6436.71 2538.58 6437.71 2539.58 6438.71 2537.58 6439.71 2538.58 6439.71 2538.58 6440.71 2504.58 6441.71 2311.58 6442.71 2503.58 6443.71 2536.58 6444.71 2338.58 6445.71 2504.58 6445.71 2538.58 6446.71 2539.58 6447.71 2248.57 6448.71 2538.58 6449.71 2228.57 6450.71 2537.58 6450.71 2539.58 6451.71 2500.58 6452.71 2500.58 6453.71 2310.58 6454.71 2502.58 6455.71 2534.58 6456.71 2342.58 6456.71 2504.58 6457.71 2291.58 6458.71 2500.58 6459.71 2505.58 6460.71 2265.57 6461.71 2442.58 6461.71 2297.58 6462.71 2538.58 6463.71 2391.58 6464.71 2330.58 6465.71 2501.58 6466.71 2367.58 6467.71 2538.58 6467.71 2530.58 6468.71 2504.58 6469.71 2527.58 6470.71 2252.57 6471.71 2528.58 6472.71 2365.58 6472.71 2308.58 6473.71 2537.58 6474.71 2348.58 6475.71 2375.58 6476.71 2537.58 6477.71 2501.58 6478.71 2501.58 6478.71 2501.58 6479.71 2370.58 6480.71 2531.58 6481.71 2421.58 6482.71 2493.58 6483.71 2232.57 6483.71 2399.58 6484.71 2379.58 6485.71 2508.58 6486.71 2427.58 6487.71 2314.58 6488.71 2495.58 6488.71 2392.58 6489.71 2467.58 6490.71 2528.58 6491.71 2393.58 6492.71 2435.58 6493.71 2437.58 6494.71 2453.58 6494.71 2443.58 6495.71 2441.58 6496.71 2520.58 6497.71 2473.58 6498.71 2428.58 6499.71 2440.58 6499.71 2531.58 6500.71 2535.58 6501.71 2431.58 6502.71 2449.58 6503.71 2483.58 6504.71 2481.58 6505.71 2344.58 6505.71 2294.58 6506.71 2523.58 6507.71 2476.58 6508.71 2408.58 6509.71 2282.58 6510.71 2227.57 6510.71 2529.58 6511.71 2469.58 6512.71 2366.58 6513.71 2472.58 6514.71 2471.58 6515.71 2325.58 6516.71 2531.58 6516.71 2290.58 6517.71 2368.58 6518.71 2424.58 6519.71 2314.58 6520.71 2527.58 6521.71 2308.58 6521.71 2268.57 6522.71 2411.58 6523.71 2493.58 6524.71 2527.58 6525.71 2479.58 6526.71 2228.57 6527.71 2381.58 6527.71 2290.58 6528.71 2479.58 6529.71 2437.58 6530.71 2226.57 6531.71 2426.58 6532.71 2487.58 6532.71 2325.58 6533.71 2425.58 6534.71 2415.58 6535.71 2423.58 6536.71 2531.58 6537.71 2406.58 6538.71 2282.58 6538.71 2526.58 6539.71 2537.58 6540.71 2241.57 6541.71 2489.58 6542.71 2488.58 6543.71 2531.58 6543.71 2283.58 6544.71 2286.58 6545.71 2538.58 6546.71 2501.58 6547.71 2292.58 6548.71 2237.57 6549.71 2539.58 6549.71 2246.57 6550.71 2537.58 6551.72 2388.58 6552.72 2413.58 6553.72 2533.58 6554.72 2492.58 6554.72 2496.58 6555.72 2387.58 6556.72 2535.58 6557.72 2320.58 6558.72 2408.58 6559.72 2530.58 6560.72 2527.58 6560.72 2530.58 6561.72 2527.58 6562.72 2500.58 6563.72 2290.58 6564.72 2488.58 6565.72 2496.58 6565.72 2257.57 6566.72 2505.58 6567.72 2329.58 6568.72 2237.57 6569.72 2503.58 6570.72 2534.58 6571.72 2500.58 6571.72 2335.58 6572.72 2539.58 6573.72 2538.58 6574.72 2344.58 6575.72 2538.58 6576.72 2386.58 6576.72 2287.58 6577.72 2535.58 6578.72 2272.57 6579.72 2398.58 6580.72 2444.58 6581.72 2527.58 6581.72 2528.58 6582.72 2491.58 6583.72 2534.58 6584.72 2499.58 6585.72 2414.58 6586.72 2371.58 6587.72 2489.58 6587.72 2251.57 6588.72 2536.58 6589.72 2441.58 6590.72 2530.58 6591.72 2539.58 6592.72 2481.58 6592.72 2444.58 6593.72 2524.58 6594.72 2412.58 6595.72 2250.57 6596.72 2447.58 6597.72 2395.58 6598.72 2242.57 6598.72 2491.58 6599.72 2531.58 6600.72 2532.58 6601.72 2278.57 6602.72 2534.58 6603.72 2529.58 6603.72 2499.58 6604.72 2500.58 6605.72 2358.58 6606.72 2415.58 6607.72 2304.58 6608.72 2539.58 6609.72 2539.58 6609.72 2489.58 6610.72 2537.58 6611.72 2261.57 6612.72 2388.58 6613.72 2404.58 6614.72 2406.58 6614.72 2538.58 6615.72 2503.58 6616.72 2314.58 6617.72 2331.58 6618.72 2538.58 6619.72 2534.58 6620.72 2538.58 6620.72 2539.58 6621.72 2488.58 6622.72 2298.58 6623.72 2537.58 6624.72 2529.58 6625.72 2434.58 6625.72 2526.58 6626.72 2224.57 6627.72 2532.58 6628.72 2248.57 6629.72 2538.58 6630.72 2536.58 6631.72 2533.58 6631.72 2355.58 6632.72 2264.57 6633.72 2526.58 6634.72 2285.58 6635.72 2538.58 6636.72 2292.58 6636.72 2386.58 6637.72 2496.58 6638.72 2530.58 6639.72 2531.58 6640.72 2531.58 6641.72 2532.58 6642.72 2501.58 6642.72 2333.58 6643.72 2528.58 6644.72 2526.58 6645.72 2488.58 6646.72 2522.58 6647.72 2224.57 6647.72 2523.58 6648.72 2520.58 6649.72 2519.58 6650.72 2374.58 6651.72 2537.58 6652.72 2537.58 6653.72 2532.58 6653.72 2259.57 6654.72 2536.58 6655.72 2531.58 6656.72 2529.58 6657.72 2392.58 6658.72 2529.58 6658.72 2530.58 6659.72 2291.58 6660.72 2533.58 6661.72 2386.58 6662.72 2528.58 6663.72 2357.58 6663.72 2526.58 6664.72 2411.58 6665.72 2486.58 6666.72 2483.58 6667.72 2440.58 6668.72 2530.58 6669.72 2384.58 6669.72 2364.58 6670.72 2536.58 6671.72 2461.58 6672.72 2508.58 6673.72 2319.58 6674.72 2500.58 6674.72 2421.58 6675.72 2231.57 6676.72 2505.58 6677.72 2290.58 6678.72 2373.58 6679.72 2538.58 6680.72 1747.56 6680.72 2532.58 6681.72 2420.58 6682.72 2538.58 6683.72 2532.58 6684.72 2538.58 6685.72 2501.58 6685.72 2225.57 6686.72 2539.58 6687.72 2538.58 6688.72 2249.57 6689.72 2403.58 6690.72 2537.58 6691.72 2538.58 6691.72 2538.58 6692.72 2503.58 6693.72 2538.58 6694.72 2499.58 6695.72 2537.58 6696.72 2536.58 6696.72 2276.57 6697.72 2278.57 6698.72 2231.57 6699.72 2538.58 6700.72 2260.57 6701.72 2538.58 6702.72 2503.58 6702.72 2538.58 6703.72 2537.58 6704.72 2538.58 6705.72 2537.58 6706.72 2538.58 6707.72 2538.58 6707.72 2502.58 6708.72 2441.58 6709.72 2538.58 6710.72 2376.58 6711.72 2494.58 6712.72 2497.58 6713.72 2404.58 6713.72 2371.58 6714.72 2535.58 6715.72 2502.58 6716.72 2262.57 6717.72 2529.58 6718.72 2536.58 6718.72 2501.58 6719.72 2346.58 6720.72 2537.58 6721.72 2503.58 6722.72 2500.58 6723.72 2290.58 6724.72 2538.58 6724.72 2316.58 6725.72 2538.58 6726.72 2538.58 6727.72 2282.58 6728.72 2539.58 6729.72 2389.58 6729.72 2500.58 6730.72 2505.58 6731.72 2321.58 6732.72 2538.58 6733.72 2538.58 6734.72 2381.58 6735.72 2538.58 6735.72 2491.58 6736.72 2402.58 6737.72 2359.58 6738.72 2505.58 6739.72 2507.58 6740.72 2341.58 6740.72 2539.58 6741.72 2375.58 6742.72 2381.58 6743.72 2537.58 6744.72 2264.57 6745.72 2502.58 6745.72 2539.58 6746.72 2362.58 6747.72 2539.58 6748.72 2353.58 6749.72 2538.58 6750.72 2539.58 6751.72 2539.58 6751.72 2530.58 6752.72 2328.58 6753.72 2538.58 6754.72 2539.58 6755.72 2529.58 6756.72 2539.58 6756.72 2539.58 6757.72 2538.58 6758.72 2283.58 6759.72 2538.58 6760.72 2538.58 6761.72 2329.58 6762.72 2536.58 6762.72 2310.58 6763.72 2539.58 6764.72 2539.58 6765.72 2264.57 6766.72 2320.58 6767.72 2539.58 6767.72 2385.58 6768.72 2435.58 6769.72 2538.58 6770.72 2538.58 6771.72 2535.58 6772.72 2537.58 6773.72 2402.58 6773.72 2539.58 6774.72 2539.58 6775.72 2503.58 6776.72 2537.58 6777.72 2538.58 6778.72 2318.58 6778.72 2334.58 6779.72 2407.58 6780.72 2502.58 6781.72 2538.58 6782.72 2538.58 6783.72 2334.58 6784.72 2538.58 6784.72 2538.58 6785.72 2437.58 6786.72 2438.58 6787.72 2401.58 6788.72 2485.58 6789.72 2259.57 6789.72 2538.58 6790.72 2503.58 6791.72 2388.58 6792.72 2538.58 6793.72 2264.57 6794.72 2538.58 6795.72 2273.57 6795.72 2328.58 6796.72 2538.58 6797.72 2305.58 6798.72 2333.58 6799.72 2503.58 6800.72 2434.58 6800.72 2273.57 6801.72 2490.58 6802.72 2261.57 6803.72 2503.58 6804.72 2277.57 6805.72 2421.58 6806.72 2538.58 6806.72 2355.58 6807.72 2506.58 6808.72 2539.58 6809.72 2265.57 6810.72 2539.58 6811.72 2428.58 6811.72 2503.58 6812.72 2310.58 6813.72 2507.58 6814.72 2538.58 6815.72 2376.58 6816.72 2503.58 6817.72 2493.58 6817.72 2254.57 6818.72 2503.58 6819.72 2539.58 6820.72 2503.58 6821.72 2538.58 6822.72 2267.57 6822.72 2538.58 6823.72 2229.57 6824.72 2228.57 6825.72 2538.58 6826.72 2538.58 6827.72 2365.58 6827.72 2534.58 6828.72 2538.58 6829.72 2440.58 6830.72 2503.58 6831.72 2539.58 6832.72 2538.58 6833.72 2538.58 6833.72 2277.57 6834.72 2429.58 6835.72 2503.58 6836.72 2263.57 6837.72 2530.58 6838.72 2507.58 6838.72 2439.58 6839.72 2538.58 6840.72 2333.58 6841.72 2528.58 6842.72 2411.58 6843.72 2286.58 6844.72 2437.58 6844.72 2538.58 6845.72 2443.58 6846.72 2538.58 6847.72 2388.58 6848.72 2408.58 6849.72 2538.58 6849.72 2539.58 6850.73 2229.57 6851.73 2539.58 6852.73 2539.58 6853.73 2538.58 6854.73 2539.58 6855.73 2539.58 6855.73 2282.58 6856.73 2339.58 6857.73 2503.58 6858.73 2508.58 6859.73 2284.58 6860.73 2537.58 6860.73 2392.58 6861.73 2535.58 6862.73 2507.58 6863.73 2538.58 6864.73 2373.58 6865.73 2503.58 6866.73 2425.58 6866.73 2503.58 6867.73 2377.58 6868.73 2404.58 6869.73 2539.58 6870.73 2253.57 6871.73 2538.58 6871.73 2424.58 6872.73 2295.58 6873.73 2538.58 6874.73 2508.58 6875.73 2446.58 6876.73 2303.58 6877.73 2336.58 6877.73 2538.58 6878.73 2505.58 6879.73 2391.58 6880.73 2539.58 6881.73 2503.58 6882.73 2539.58 6882.73 2450.58 6883.73 2492.58 6884.73 2538.58 6885.73 2276.57 6886.73 2538.58 6887.73 2538.58 6888.73 2539.58 6888.73 2496.58 6889.73 2427.58 6890.73 2223.57 6891.73 2538.58 6892.73 2364.58 6893.73 2503.58 6893.73 2529.58 6894.73 2384.58 6895.73 2503.58 6896.73 2529.58 6897.73 2504.58 6898.73 2378.58 6899.73 2240.57 6899.73 2506.58 6900.73 2225.57 6901.73 2538.58 6902.73 2538.58 6903.73 2392.58 6904.73 2538.58 6904.73 2502.58 6905.73 2539.58 6906.73 2231.57 6907.73 2503.58 6908.73 2538.58 6909.73 2538.58 6910.73 2538.58 6910.73 2539.58 6911.73 2376.58 6912.73 2289.58 6913.73 2539.58 6914.73 2538.58 6915.73 2539.58 6915.73 2538.58 6916.73 2507.58 6917.73 2538.58 6918.73 2538.58 6919.73 2301.58 6920.73 2507.58 6920.73 2539.58 6921.73 2538.58 6922.73 2493.58 6923.73 2443.58 6924.73 2224.57 6925.73 2336.58 6926.73 2539.58 6926.73 2337.58 6927.73 2504.58 6928.73 2538.58 6929.73 2287.58 6930.73 2535.58 6931.73 2362.58 6931.73 2538.58 6932.73 2503.58 6933.73 2506.58 6934.73 2417.58 6935.73 2538.58 6936.73 2381.58 6937.73 2538.58 6937.73 2538.58 6938.73 2539.58 6939.73 2502.58 6940.73 2283.58 6941.73 2395.58 6942.73 2527.58 6942.73 2376.58 6943.73 2386.58 6944.73 2288.58 6945.73 2538.58 6946.73 2503.58 6947.73 2325.58 6948.73 2538.58 6948.73 2357.58 6949.73 2356.58 6950.73 2538.58 6951.73 2322.58 6952.73 2275.57 6953.73 2476.58 6953.73 2504.58 6954.73 2366.58 6955.73 2538.58 6956.73 2502.58 6957.73 2523.58 6958.73 2502.58 6959.73 2504.58 6959.73 2538.58 6960.73 2503.58 6961.73 2538.58 6962.73 2533.58 6963.73 2520.58 6964.73 2374.58 6964.73 2538.58 6965.73 2538.58 6966.73 2504.58 6967.73 2538.58 6968.73 2503.58 6969.73 2538.58 6970.73 2442.58 6970.73 2353.58 6971.73 2533.58 6972.73 2285.58 6973.73 2538.58 6974.73 2504.58 6975.73 2538.58 6975.73 2403.58 6976.73 2538.58 6977.73 2538.58 6978.73 2419.58 6979.73 2502.58 6980.73 2296.58 6981.73 2517.58 6981.73 2538.58 6982.73 2498.58 6983.73 2537.58 6984.73 2344.58 6985.73 2538.58 6986.73 2485.58 6986.73 2537.58 6987.73 2501.58 6988.73 2496.58 6989.73 2497.58 6990.73 2504.58 6991.73 2348.58 6992.73 2308.58 6992.73 2537.58 6993.73 2538.58 6994.73 2282.58 6995.73 2531.58 6996.73 1619.55 6997.73 2311.58 6997.73 2334.58 6998.73 2297.58 6999.73 2539.58 7000.73 2504.58 7001.73 2359.58 7002.73 2267.57 7002.73 2391.58 7003.73 2539.58 7004.73 2345.58 7005.73 2537.58 7006.73 2538.58 7007.73 2426.58 7008.73 2537.58 7008.73 2539.58 7009.73 2539.58 7010.73 2238.57 7011.73 2403.58 7012.73 2393.58 7013.73 2330.58 7013.73 2538.58 7014.73 2333.58 7015.73 2330.58 7016.73 1621.55 7017.73 2502.58 7018.73 2241.57 7019.73 2539.58 7019.73 2538.58 7020.73 2297.58 7021.73 2538.58 7022.73 2356.58 7023.73 2538.58 7024.73 2538.58 7024.73 2437.58 7025.73 2506.58 7026.73 2258.57 7027.73 2538.58 7028.73 2538.58 7029.73 2539.58 7030.73 2538.58 7030.73 2447.58 7031.73 2535.58 7032.73 2535.58 7033.73 2257.57 7034.73 2538.58 7035.73 2254.57 7035.73 2536.58 7036.73 2539.58 7037.73 2503.58 7038.73 2535.58 7039.73 2436.58 7040.73 2507.58 7041.73 2365.58 7041.73 2501.58 7042.73 2539.58 7043.73 2336.58 7044.73 2538.58 7045.73 2349.58 7046.73 2295.58 7046.73 2538.58 7047.73 2414.58 7048.73 2257.57 7049.73 2530.58 7050.73 2503.58 7051.73 2504.58 7052.73 2503.58 7052.73 2441.58 7053.73 2223.57 7054.73 2506.58 7055.73 2495.58 7056.73 2468.58 7057.73 2538.58 7057.73 2380.58 7058.73 2528.58 7059.73 2388.58 7060.73 2380.58 7061.73 2237.57 7062.73 2539.58 7063.73 2537.58 7063.73 2504.58 7064.73 2538.58 7065.73 2503.58 7066.73 2313.58 7067.73 2538.58 7068.73 2503.58 7068.73 2502.58 7069.73 2228.57 7070.73 2539.58 7071.73 2245.57 7072.73 2538.58 7073.73 2433.58 7074.73 2423.58 7074.73 2500.58 7075.73 2539.58 7076.73 2493.58 7077.73 2539.58 7078.73 2369.58 7079.73 2538.58 7079.73 2539.58 7080.73 2442.58 7081.73 2539.58 7082.73 2539.58 7083.73 2503.58 7084.73 2410.58 7084.73 2444.58 7085.73 2539.58 7086.73 2538.58 7087.73 2539.58 7088.73 2490.58 7089.73 2279.57 7090.73 2538.58 7090.73 2501.58 7091.73 2504.58 7092.73 2234.57 7093.73 2538.58 7094.73 2392.58 7095.73 2243.57 7095.73 2404.58 7096.73 2431.58 7097.73 2431.58 7098.73 2538.58 7099.73 2377.58 7100.73 2530.58 7101.73 2530.58 7101.73 2258.57 7102.73 2351.58 7103.73 2538.58 7104.73 2531.58 7105.73 2381.58 7106.73 2410.58 7106.73 2422.58 7107.73 2494.58 7108.73 2529.58 7109.73 2295.58 7110.73 2432.58 7111.73 2267.57 7112.73 2538.58 7112.73 2441.58 7113.73 2538.58 7114.73 2328.58 7115.73 2493.58 7116.73 2445.58 7117.73 2435.58 7117.73 2280.57 7118.73 2337.58 7119.73 2492.58 7120.73 2538.58 7121.73 2483.58 7122.73 2538.58 7123.73 2538.58 7123.73 2363.58 7124.73 2231.57 7125.73 2416.58 7126.73 2503.58 7127.73 2361.58 7128.73 2252.57 7128.73 2362.58 7129.73 2392.58 7130.73 2334.58 7131.73 2439.58 7132.73 2381.58 7133.73 2360.58 7134.73 2539.58 7134.73 2305.58 7135.73 2305.58 7136.73 2538.58 7137.73 2533.58 7138.73 2530.58 7139.73 2534.58 7139.73 2537.58 7140.73 2536.58 7141.73 2533.58 7142.73 2237.57 7143.73 2345.58 7144.73 2411.58 7145.73 2497.58 7145.73 2505.58 7146.73 2535.58 7147.73 2503.58 7148.73 2532.58 7149.73 2303.58 7150.73 2532.58 7150.73 2301.58 7151.73 2488.58 7152.73 2372.58 7153.73 2280.57 7154.73 2538.58 7155.73 2538.58 7156.73 2375.58 7156.73 2285.58 7157.73 2406.58 7158.73 2378.58 7159.74 2277.57 7160.74 2356.58 7161.74 2538.58 7161.74 2387.58 7162.74 2508.58 7163.74 2341.58 7164.74 2275.57 7165.74 2538.58 7166.74 2500.58 7166.74 2423.58 7167.74 2538.58 7168.74 2397.58 7169.74 2539.58 7170.74 2538.58 7171.74 2296.58 7172.74 2539.58 7172.74 2223.57 7173.74 2399.58 7174.74 2289.58 7175.74 2537.58 7176.74 2538.58 7177.74 2281.58 7177.74 2345.58 7178.74 2421.58 7179.74 2283.58 7180.74 2538.58 7181.74 2539.58 7182.74 2504.58 7183.74 2538.58 7183.74 2334.58 7184.74 2501.58 7185.74 2533.58 7186.74 2532.58 7187.74 2409.58 7188.74 2539.58 7188.74 2259.57 7189.74 2499.58 7190.74 2264.57 7191.74 2327.58 7192.74 2502.58 7193.74 2538.58 7194.74 2538.58 7194.74 2538.58 7195.74 2506.58 7196.74 2534.58 7197.74 2531.58 7198.74 2496.58 7199.74 2492.58 7199.74 2378.58 7200.74 2533.58 7201.74 2348.58 7202.74 2538.58 7203.74 2323.58 7204.74 2230.57 7205.74 2227.57 7205.74 2434.58 7206.74 2332.58 7207.74 2498.58 7208.74 2538.58 7209.74 2485.58 7210.74 2360.58 7210.74 2488.58 7211.74 2535.58 7212.74 2398.58 7213.74 2487.58 7214.74 2536.58 7215.74 2242.57 7216.74 2271.57 7216.74 2531.58 7217.74 2492.58 7218.74 2300.58 7219.74 2350.58 7220.74 2496.58 7221.74 2527.58 7221.74 2223.57 7222.74 2383.58 7223.74 2485.58 7224.74 2319.58 7225.74 2370.58 7226.74 2378.58 7227.74 2320.58 7227.74 2426.58 7228.74 2525.58 7229.74 2427.58 7230.74 2310.58 7231.74 2503.58 7232.74 2320.58 7232.74 2497.58 7233.74 2532.58 7234.74 2280.57 7235.74 2529.58 7236.74 2497.58 7237.74 2502.58 7238.74 2239.57 7238.74 2495.58 7239.74 2496.58 7240.74 2333.58 7241.74 2534.58 7242.74 2506.58 7243.74 2248.57 7243.74 2230.57 7244.74 2421.58 7245.74 2375.58 7246.74 2405.58 7247.74 2424.58 7248.74 2267.57 7249.74 2538.58 7249.74 2244.57 7250.74 2531.58 7251.74 2504.58 7252.74 2534.58 7253.74 2534.58 7254.74 2504.58 7254.74 2291.58 7255.74 2368.58 7256.74 2238.57 7257.74 2372.58 7258.74 2449.58 7259.74 2503.58 7259.74 2419.58 7260.74 2538.58 7261.74 1599.5 7262.74 2538.58 7263.74 2537.58 7264.74 2536.58 7265.74 2535.58 7265.74 2536.58 7266.74 2539.58 7267.74 2251.57 7268.74 2497.58 7269.74 2264.57 7270.74 2531.58 7270.74 2536.58 7271.74 2523.58 7272.74 2336.58 7273.74 2518.58 7274.74 2492.58 7275.74 2493.58 7276.74 2517.58 7276.74 2491.58 7277.74 2289.58 7278.74 2239.57 7279.74 2526.58 7280.74 2527.58 7281.74 2536.58 7281.74 2539.58 7282.74 2267.57 7283.74 2538.58 7284.74 2539.58 7285.74 2539.58 7286.74 2409.58 7287.74 2324.58 7287.74 2537.58 7288.74 2536.58 7289.74 2472.58 7290.74 2500.58 7291.74 2337.58 7292.74 2300.58 7292.74 2531.58 7293.74 2534.58 7294.74 2353.58 7295.74 2534.58 7296.74 2496.58 7297.74 2536.58 7298.74 2389.58 7298.74 2439.58 7299.74 2353.58 7300.74 2503.58 7301.74 2536.58 7302.74 2494.58 7303.74 2539.58 7303.74 2501.58 7304.74 2538.58 7305.74 2538.58 7306.74 2505.58 7307.74 2503.58 7308.74 2251.57 7309.74 2506.58 7309.74 2312.58 7310.74 2539.58 7311.74 2538.58 7312.74 2372.58 7313.74 2354.58 7314.74 2225.57 7314.74 2416.58 7315.74 2504.58 7316.74 2539.58 7317.74 2357.58 7318.74 2406.58 7319.74 2531.58 7320.74 2538.58 7320.74 2538.58 7321.74 2538.58 7322.74 2522.58 7323.74 2538.58 7324.74 2376.58 7325.74 2537.58 7325.74 2535.58 7326.74 2242.57 7327.74 2505.58 7328.74 2523.58 7329.74 2522.58 7330.74 2394.58 7331.74 2530.58 7331.74 2490.58 7332.74 2394.58 7333.74 2533.58 7334.74 2530.58 7335.74 2308.58 7336.74 2269.57 7336.74 2487.58 7337.74 2524.58 7338.74 2536.58 7339.74 2520.58 7340.74 2528.58 7341.74 2531.58 7341.74 2536.58 7342.74 2400.58 7343.74 2357.58 7344.74 2529.58 7345.74 2333.58 7346.74 2273.57 7347.74 2276.57 7347.74 2489.58 7348.74 2268.57 7349.74 2493.58 7350.74 2396.58 7351.74 2529.58 7352.74 2479.58 7352.74 2481.58 7353.74 2491.58 7354.74 2536.58 7355.74 2226.57 7356.74 2502.58 7357.74 2529.58 7358.74 2527.58 7358.74 2539.58 7359.74 2538.58 7360.74 2447.58 7361.74 2539.58 7362.74 2334.58 7363.74 2503.58 7363.74 2266.57 7364.74 2357.58 7365.74 2323.58 7366.74 2254.57 7367.74 2509.58 7368.74 2504.58 7369.74 2538.58 7369.74 2295.58 7370.74 2505.58 7371.74 2537.58 7372.74 2537.58 7373.74 2537.58 7374.74 2524.58 7374.74 2398.58 7375.74 2504.58 7376.74 2428.58 7377.74 2284.58 7378.74 2232.57 7379.74 2318.58 7380.74 2316.58 7380.74 2431.58 7381.74 2540.58 7382.74 2539.58 7383.74 2524.58 7384.74 2329.58 7385.74 2538.58 7385.74 2248.57 7386.74 2539.58 7387.74 2537.58 7388.74 2501.58 7389.74 2435.58 7390.74 2335.58 7391.74 2224.57 7391.74 2538.58 7392.74 2538.58 7393.74 2533.58 7394.74 2503.58 7395.74 2398.58 7396.74 2415.58 7396.74 2538.58 7397.74 2538.58 7398.74 2474.58 7399.74 2539.58 7400.74 2446.58 7401.74 2532.58 7402.74 2528.58 7402.74 2508.58 7403.74 2503.58 7404.74 2505.58 7405.74 2343.58 7406.74 2279.57 7407.74 2525.58 7407.74 2290.58 7408.74 2515.58 7409.74 2516.58 7410.74 2475.58 7411.74 2476.58 7412.74 2523.58 7413.74 2473.58 7413.74 2359.58 7414.74 2522.58 7415.74 2262.57 7416.74 2521.58 7417.74 2522.58 7418.74 2443.58 7418.74 2535.58 7419.74 2435.58 7420.74 2448.58 7421.74 2486.58 7422.74 2481.58 7423.74 2346.58 7423.74 2534.58 7424.74 2238.57 7425.74 2255.57 7426.74 2361.58 7427.74 2353.58 7428.74 2478.58 7429.74 2462.58 7429.74 2378.58 7430.74 2483.58 7431.74 2521.58 7432.74 2527.58 7433.74 2528.58 7434.74 2227.57 7434.74 2501.58 7435.74 2233.57 7436.74 2532.58 7437.74 2325.58 7438.74 2528.58 7439.74 2529.58 7440.74 2530.58 7440.74 2240.57 7441.74 2528.58 7442.74 2527.58 7443.74 2279.57 7444.74 2352.58 7445.74 2534.58 7445.74 2535.58 7446.74 2524.58 7447.74 2526.58 7448.74 2493.58 7449.74 2531.58 7450.74 2487.58 7451.74 2305.58 7451.74 2489.58 7452.74 2539.58 7453.74 2517.58 7454.74 2353.58 7455.74 2442.58 7456.74 2440.58 7456.74 2486.58 7457.75 2487.58 7458.75 2493.58 7459.75 2445.58 7460.75 2228.57 7461.75 2539.58 7462.75 2310.58 7462.75 2497.58 7463.75 2428.58 7464.75 2357.58 7465.75 2291.58 7466.75 2538.58 7467.75 2504.58 7467.75 2539.58 7468.75 2539.58 7469.75 2538.58 7470.75 2436.58 7471.75 2330.58 7472.75 2536.58 7473.75 2386.58 7473.75 2447.58 7474.75 2529.58 7475.75 2380.58 7476.75 2477.58 7477.75 2490.58 7478.75 2489.58 7478.75 2272.57 7479.75 2534.58 7480.75 2349.58 7481.75 2340.58 7482.75 2247.57 7483.75 2364.58 7484.75 2293.58 7484.75 2534.58 7485.75 2275.57 7486.75 2529.58 7487.75 2529.58 7488.75 2277.57 7489.75 2494.58 7489.75 2312.58 7490.75 2530.58 7491.75 2525.58 7492.75 2525.58 7493.75 2525.58 7494.75 2289.58 7495.75 2434.58 7495.75 2533.58 7496.75 2352.58 7497.75 2526.58 7498.75 2488.58 7499.75 2491.58 7500.75 2524.58 7500.75 2488.58 7501.75 2410.58 7502.75 2482.58 7503.75 2411.58 7504.75 2258.57 7505.75 2520.58 7505.75 2448.58 7506.75 2358.58 7507.75 2480.58 7508.75 2534.58 7509.75 2533.58 7510.75 2480.58 7511.75 2432.58 7511.75 2531.58 7512.75 2291.58 7513.75 2357.58 7514.75 2526.58 7515.75 2497.58 7516.75 2486.58 7516.75 2489.58 7517.75 2513.58 7518.75 2459.58 7519.75 2518.58 7520.75 2337.58 7521.75 2389.58 7522.75 2388.58 7522.75 2467.58 7523.75 2462.58 7524.75 2252.57 7525.75 2472.58 7526.75 2516.58 7527.75 2285.58 7527.75 2530.58 7528.75 2239.57 7529.75 2468.58 7530.75 2473.58 7531.75 2529.58 7532.75 2526.58 7533.75 2536.58 7533.75 2492.58 7534.75 2358.58 7535.75 2529.58 7536.75 2260.57 7537.75 2484.58 7538.75 2397.58 7538.75 2344.58 7539.75 2528.58 7540.75 2538.58 7541.75 2438.58 7542.75 2346.58 7543.75 2399.58 7544.75 2493.58 7544.75 2289.58 7545.75 2272.57 7546.75 2403.58 7547.75 2494.58 7548.75 2266.57 7549.75 2538.58 7549.75 2525.58 7550.75 2257.57 7551.75 2389.58 7552.75 2538.58 7553.75 2538.58 7554.75 2538.58 7555.75 2507.58 7555.75 2537.58 7556.75 2538.58 7557.75 2539.58 7558.75 2538.58 7559.75 2236.57 7560.75 2404.58 7560.75 2528.58 7561.75 2523.58 7562.75 2536.58 7563.75 2400.58 7564.75 2536.58 7565.75 2534.58 7566.75 2300.58 7566.75 2230.57 7567.75 2329.58 7568.75 2249.57 7569.75 2536.58 7570.75 2490.58 7571.75 2498.58 7571.75 2322.58 7572.75 2310.58 7573.75 2486.58 7574.75 2281.58 7575.75 2396.58 7576.75 2479.58 7577.75 2537.58 7577.75 2537.58 7578.75 2234.57 7579.75 2537.58 7580.75 2486.58 7581.75 2488.58 7582.75 2492.58 7582.75 2370.58 7583.75 2502.58 7584.75 2280.57 7585.75 2479.58 7586.75 2401.58 7587.75 2442.58 7588.75 2535.58 7588.75 2537.58 7589.75 2539.58 7590.75 2534.58 7591.75 2534.58 7592.75 2533.58 7593.75 2535.58 7593.75 2538.58 7594.75 2539.58 7595.75 2350.58 7596.75 2516.58 7597.75 2520.58 7598.75 2504.58 7598.75 2505.58 7599.75 2335.58 7600.75 2339.58 7601.75 2342.58 7602.75 2416.58 7603.75 2224.57 7604.75 2420.58 7604.75 2539.58 7605.75 2533.58 7606.75 2521.58 7607.75 2234.57 7608.75 2504.58 7609.75 2538.58 7609.75 2538.58 7610.75 2502.58 7611.75 2439.58 7612.75 2418.58 7613.75 2382.58 7614.75 2502.58 7615.75 2331.58 7615.75 2285.58 7616.75 2499.58 7617.75 2334.58 7618.75 2244.57 7619.75 2535.58 7620.75 2536.58 7620.75 2538.58 7621.75 2539.58 7622.75 2538.58 7623.75 2539.58 7624.75 2539.58 7625.75 2494.58 7626.75 2508.58 7626.75 2504.58 7627.75 2536.58 7628.75 2298.58 7629.75 2263.57 7630.75 2492.58 7631.75 2489.58 7631.75 2282.58 7632.75 2502.58 7633.75 2416.58 7634.75 2338.58 7635.75 2239.57 7636.75 2398.58 7637.75 2539.58 7637.75 2539.58 7638.75 2538.58 7639.75 2537.58 7640.75 2539.58 7641.75 2505.58 7642.75 2502.58 7642.75 2539.58 7643.75 2500.58 7644.75 2499.58 7645.75 2491.58 7646.75 2411.58 7647.75 2406.58 7648.75 2387.58 7648.75 2384.58 7649.75 2287.58 7650.75 2364.58 7651.75 2539.58 7652.75 2538.58 7653.75 2502.58 7653.75 2405.58 7654.75 2262.57 7655.75 2442.58 7656.75 2538.58 7657.75 2504.58 7658.75 2505.58 7659.75 2366.58 7659.75 2406.58 7660.75 2538.58 7661.75 2396.58 7662.75 2286.58 7663.75 2381.58 7664.75 2538.58 7664.75 2539.58 7665.75 2502.58 7666.75 2508.58 7667.75 2436.58 7668.75 2441.58 7669.75 2538.58 7670.75 2226.57 7670.75 2539.58 7671.75 2538.58 7672.75 2538.58 7673.75 2538.58 7674.75 2538.58 7675.75 2538.58 7675.75 2508.58 7676.75 2502.58 7677.75 2328.58 7678.75 2266.57 7679.75 2493.58 7680.75 2348.58 7680.75 2305.58 7681.75 2401.58 7682.75 2277.57 7683.75 2499.58 7684.75 2233.57 7685.75 2266.57 7686.75 2503.58 7686.75 2341.58 7687.75 2341.58 7688.75 2401.58 7689.75 2396.58 7690.75 2508.58 7691.75 2502.58 7691.75 2489.58 7692.75 2535.58 7693.75 2227.57 7694.75 2301.58 7695.75 2337.58 7696.75 2538.58 7697.75 2538.58 7697.75 2532.58 7698.75 2539.58 7699.75 2439.58 7700.75 2536.58 7701.75 2359.58 7702.75 2502.58 7702.75 2445.58 7703.75 2292.58 7704.75 2251.57 7705.75 2347.58 7706.75 2268.57 7707.75 2342.58 7708.75 2330.58 7708.75 2292.58 7709.75 2538.58 7710.75 2429.58 7711.75 2538.58 7712.75 2323.58 7713.75 2537.58 7713.75 2538.58 7714.75 2538.58 7715.75 2538.58 7716.75 2539.58 7717.75 2251.57 7718.75 2508.58 7719.75 2533.58 7719.75 2497.58 7720.75 2489.58 7721.75 2533.58 7722.75 2405.58 7723.75 2226.57 7724.75 2270.57 7724.75 2538.58 7725.75 2399.58 7726.75 2508.58 7727.75 2230.57 7728.75 2539.58 7729.75 2538.58 7730.75 2538.58 7730.75 2539.58 7731.75 2355.58 7732.75 2247.57 7733.75 2503.58 7734.75 2340.58 7735.75 2243.57 7735.75 2538.58 7736.75 2539.58 7737.75 2538.58 7738.75 2539.58 7739.75 2539.58 7740.75 2303.58 7741.75 2538.58 7741.75 2282.58 7742.75 2440.58 7743.75 2413.58 7744.75 2343.58 7745.75 2538.58 7746.75 2364.58 7746.75 2538.58 7747.75 2538.58 7748.75 2505.58 7749.75 2430.58 7750.75 2311.58 7751.75 2284.58 7752.75 2434.58 7752.75 2322.58 7753.75 2538.58 7754.75 2538.58 7755.75 2504.58 7756.75 2503.58 7757.75 2260.57 7757.75 2256.57 7758.75 2538.58 7759.75 2538.58 7760.75 2538.58 7761.75 2538.58 7762.75 2538.58 7762.75 2538.58 7763.75 2504.58 7764.75 2502.58 7765.75 2398.58 7766.75 2505.58 7767.75 2428.58 7768.75 2425.58 7768.75 2223.57 7769.75 2504.58 7770.75 2538.58 7771.75 2539.58 7772.75 2539.58 7773.76 2538.58 7773.76 2372.58 7774.76 2298.58 7775.76 2424.58 7776.76 2408.58 7777.76 2504.58 7778.76 2503.58 7779.76 2345.58 7779.76 2537.58 7780.76 2505.58 7781.76 2276.57 7782.76 2310.58 7783.76 2504.58 7784.76 2433.58 7784.76 2538.58 7785.76 2327.58 7786.76 2538.58 7787.76 2503.58 7788.76 2505.58 7789.76 2496.58 7790.76 2238.57 7790.76 2372.58 7791.76 2365.58 7792.76 2231.57 7793.76 2273.57 7794.76 2539.58 7795.76 2237.57 7795.76 2402.58 7796.76 2538.58 7797.76 2305.58 7798.76 2429.58 7799.76 2504.58 7800.76 2294.58 7801.76 2446.58 7801.76 2287.58 7802.76 2538.58 7803.76 2505.58 7804.76 2539.58 7805.76 2538.58 7806.76 2505.58 7806.76 2392.58 7807.76 2232.57 7808.76 2264.57 7809.76 2425.58 7810.76 2420.58 7811.76 2539.58 7812.76 2392.58 7812.76 2539.58 7813.76 2539.58 7814.76 2227.57 7815.76 2528.58 7816.76 2504.58 7817.76 2538.58 7817.76 2504.58 7818.76 2244.57 7819.76 2374.58 7820.76 2503.58 7821.76 2241.57 7822.76 2539.58 7823.76 2538.58 7823.76 2357.58 7824.76 2537.58 7825.76 2344.58 7826.76 2538.58 7827.76 2502.58 7828.76 2538.58 7828.76 2535.58 7829.76 2538.58 7830.76 2538.58 7831.76 2443.58 7832.76 2326.58 7833.76 2321.58 7834.76 2363.58 7834.76 2503.58 7835.76 2427.58 7836.76 2377.58 7837.76 2261.57 7838.76 2507.58 7839.76 2443.58 7839.76 2281.58 7840.76 2227.57 7841.76 2381.58 7842.76 2538.58 7843.76 2502.58 7844.76 2511.58 7844.76 2414.58 7845.76 2231.57 7846.76 2538.58 7847.76 2503.58 7848.76 2404.58 7849.76 2367.58 7850.76 2257.57 7850.76 2320.58 7851.76 2539.58 7852.76 2494.58 7853.76 2324.58 7854.76 2378.58 7855.76 2428.58 7855.76 2493.58 7856.76 2498.58 7857.76 2538.58 7858.76 2491.58 7859.76 2408.58 7860.76 2539.58 7861.76 2502.58 7861.76 2538.58 7862.76 2538.58 7863.76 2281.58 7864.76 2298.58 7865.76 2230.57 7866.76 2372.58 7866.76 2250.57 7867.76 2363.58 7868.76 2424.58 7869.76 2538.58 7870.76 2500.58 7871.76 2538.58 7872.76 2538.58 7872.76 2539.58 7873.76 2504.58 7874.76 2505.58 7875.76 2504.58 7876.76 2539.58 7877.76 2504.58 7877.76 2503.58 7878.76 2285.58 7879.76 2538.58 7880.76 2539.58 7881.76 2538.58 7882.76 2406.58 7883.76 2538.58 7883.76 2538.58 7884.76 2230.57 7885.76 2248.57 7886.76 2420.58 7887.76 2502.58 7888.76 2538.58 7888.76 2364.58 7889.76 2539.58 7890.76 2351.58 7891.76 2383.58 7892.76 2538.58 7893.76 2505.58 7894.76 2500.58 7894.76 2538.58 7895.76 2294.58 7896.76 2538.58 7897.76 2539.58 7898.76 2495.58 7899.76 2538.58 7899.76 2483.58 7900.76 2539.58 7901.76 2539.58 7902.76 2379.58 7903.76 2379.58 7904.76 2382.58 7905.76 2386.58 7905.76 2537.58 7906.76 2538.58 7907.76 2538.58 7908.76 2538.58 7909.76 2538.58 7910.76 2540.58 7910.76 2538.58 7911.76 2539.58 7912.76 2538.58 7913.76 2503.58 7914.76 2504.58 7915.76 2538.58 7916.76 2538.58 7916.76 2538.58 7917.76 2538.58 7918.76 2510.58 7919.76 2539.58 7920.76 2500.58 7921.76 2502.58 7921.76 2313.58 7922.76 2435.58 7923.76 2233.57 7924.76 2538.58 7925.76 2538.58 7926.76 2538.58 7927.76 2538.58 7927.76 2538.58 7928.76 2538.58 7929.76 2380.58 7930.76 2496.58 7931.76 2294.58 7932.76 2308.58 7932.76 2299.58 7933.76 2287.58 7934.76 2413.58 7935.76 2539.58 7936.76 2538.58 7937.76 2414.58 7937.76 2538.58 7938.76 2537.58 7939.76 2539.58 7940.76 2539.58 7941.76 2265.57 7942.76 2538.58 7943.76 2432.58 7943.76 2539.58 7944.76 2503.58 7945.76 2535.58 7946.76 2503.58 7947.76 2509.58 7948.76 2261.57 7948.76 2503.58 7949.76 2538.58 7950.76 2505.58 7951.76 2505.58 7952.76 2506.58 7953.76 2384.58 7954.76 2262.57 7954.76 2504.58 7955.76 2503.58 7956.76 2288.58 7957.76 2538.58 7958.76 2502.58 7959.76 2324.58 7959.76 2275.57 7960.76 2265.57 7961.76 2253.57 7962.76 2505.58 7963.76 2504.58 7964.76 2276.57 7965.76 2538.58 7965.76 2342.58 7966.76 2500.58 7967.76 2538.58 7968.76 2538.58 7969.76 2502.58 7970.76 2413.58 7970.76 2425.58 7971.76 2417.58 7972.76 2537.58 7973.76 2539.58 7974.76 2305.58 7975.76 2538.58 7976.76 2293.58 7976.76 2539.58 7977.76 2537.58 7978.76 2535.58 7979.76 2532.58 7980.76 2538.58 7981.76 2539.58 7981.76 2425.58 7982.76 2229.57 7983.76 2538.58 7984.76 2538.58 7985.76 2499.58 7986.76 2538.58 7987.76 2501.58 7987.76 2310.58 7988.76 2318.58 7989.76 2318.58 7990.76 2537.58 7991.76 2449.58 7992.76 2311.58 7992.76 2311.58 7993.76 2534.58 7994.76 2537.58 7995.76 2332.58 7996.76 2333.58 7997.76 2284.58 7998.76 2422.58 7998.76 2306.58 7999.76 2311.58 8000.76 2423.58 8001.76 2229.57 8002.76 2274.57 8003.76 2232.57 8003.76 2296.58 8004.76 2322.58 8005.76 2485.58 8006.76 2538.58 8007.76 2502.58 8008.76 2386.58 8009.76 2538.58 8009.76 2523.58 8010.76 2523.58 8011.76 2522.58 8012.76 2389.58 8013.76 2531.58 8014.76 2531.58 8014.76 2532.58 8015.76 2539.58 8016.76 2257.57 8017.76 2538.58 8018.76 2531.58 8019.76 2502.58 8019.76 2367.58 8020.76 2534.58 8021.76 2504.58 8022.76 2473.58 8023.76 2354.58 8024.76 2305.58 8025.76 2370.58 8025.76 2278.57 8026.76 2536.58 8027.76 2323.58 8028.76 2452.58 8029.76 2375.58 8030.76 2533.58 8030.76 2354.58 8031.76 2390.58 8032.76 2538.58 8033.76 2538.58 8034.76 2435.58 8035.76 2294.58 8036.76 2539.58 8036.76 2503.58 8037.76 2503.58 8038.76 2369.58 8039.76 2280.57 8040.76 2258.57 8041.76 2533.58 8041.76 2538.58 8042.76 2537.58 8043.5 2354.58" stroke="#70AD47" stroke-width="3.4375" stroke-linecap="round" stroke-linejoin="round" stroke-miterlimit="10" fill="none"/></g><g clip-path="url(#clip6)"><text font-family="LM Roman 10,LM Roman 10_MSFontService,sans-serif" font-weight="700" font-size="64" transform="matrix(1 0 0 1 5629.43 2568)">0</text></g><g clip-path="url(#clip7)"><text font-family="LM Roman 10,LM Roman 10_MSFontService,sans-serif" font-weight="700" font-size="64" transform="matrix(1 0 0 1 5555.64 2503)">200</text></g><g clip-path="url(#clip8)"><text font-family="LM Roman 10,LM Roman 10_MSFontService,sans-serif" font-weight="700" font-size="64" transform="matrix(1 0 0 1 5555.64 2438)">400</text></g><g clip-path="url(#clip9)"><text font-family="LM Roman 10,LM Roman 10_MSFontService,sans-serif" font-weight="700" font-size="64" transform="matrix(1 0 0 1 5555.64 2373)">600</text></g><g clip-path="url(#clip10)"><text font-family="LM Roman 10,LM Roman 10_MSFontService,sans-serif" font-weight="700" font-size="64" transform="matrix(1 0 0 1 5555.64 2308)">800</text></g><g clip-path="url(#clip11)"><text font-family="LM Roman 10,LM Roman 10_MSFontService,sans-serif" font-weight="700" font-size="64" transform="matrix(1 0 0 1 5518.75 2244)">1000</text></g><g clip-path="url(#clip12)"><text font-family="LM Roman 10,LM Roman 10_MSFontService,sans-serif" font-weight="700" font-size="64" transform="matrix(1 0 0 1 5518.75 2179)">1200</text></g><g clip-path="url(#clip13)"><text font-family="LM Roman 10,LM Roman 10_MSFontService,sans-serif" font-weight="700" font-size="64" transform="matrix(1 0 0 1 5518.75 2114)">1400</text></g><g clip-path="url(#clip14)"><text font-family="LM Roman 10,LM Roman 10_MSFontService,sans-serif" font-weight="700" font-size="64" transform="matrix(1 0 0 1 5518.75 2049)">1600</text></g><g clip-path="url(#clip15)"><text font-family="LM Roman 10,LM Roman 10_MSFontService,sans-serif" font-weight="700" font-size="64" transform="matrix(1 0 0 1 5518.75 1984)">1800</text></g><g clip-path="url(#clip16)"><text font-family="LM Roman 10,LM Roman 10_MSFontService,sans-serif" font-weight="700" font-size="64" transform="matrix(1 0 0 1 5518.75 1919)">2000</text></g><g clip-path="url(#clip17)"><text font-family="LM Roman 10,LM Roman 10_MSFontService,sans-serif" font-weight="700" font-size="50" transform="matrix(0.707107 -0.707107 0.707107 0.707107 5605.9 2772)">00:00:00</text></g><g clip-path="url(#clip18)"><text font-family="LM Roman 10,LM Roman 10_MSFontService,sans-serif" font-weight="700" font-size="50" transform="matrix(0.707107 -0.707107 0.707107 0.707107 5706.5 2772)">00:00:26</text></g><g clip-path="url(#clip19)"><text font-family="LM Roman 10,LM Roman 10_MSFontService,sans-serif" font-weight="700" font-size="50" transform="matrix(0.707107 -0.707107 0.707107 0.707107 5807.1 2772)">00:00:49</text></g><g clip-path="url(#clip20)"><text font-family="LM Roman 10,LM Roman 10_MSFontService,sans-serif" font-weight="700" font-size="50" transform="matrix(0.707107 -0.707107 0.707107 0.707107 5907.71 2772)">00:01:19</text></g><g clip-path="url(#clip21)"><text font-family="LM Roman 10,LM Roman 10_MSFontService,sans-serif" font-weight="700" font-size="50" transform="matrix(0.707107 -0.707107 0.707107 0.707107 6008.31 2772)">00:01:45</text></g><g clip-path="url(#clip22)"><text font-family="LM Roman 10,LM Roman 10_MSFontService,sans-serif" font-weight="700" font-size="50" transform="matrix(0.707107 -0.707107 0.707107 0.707107 6108.92 2772)">00:02:13</text></g><g clip-path="url(#clip23)"><text font-family="LM Roman 10,LM Roman 10_MSFontService,sans-serif" font-weight="700" font-size="50" transform="matrix(0.707107 -0.707107 0.707107 0.707107 6209.52 2772)">00:02:40</text></g><g clip-path="url(#clip24)"><text font-family="LM Roman 10,LM Roman 10_MSFontService,sans-serif" font-weight="700" font-size="50" transform="matrix(0.707107 -0.707107 0.707107 0.707107 6310.13 2772)">00:03:01</text></g><g clip-path="url(#clip25)"><text font-family="LM Roman 10,LM Roman 10_MSFontService,sans-serif" font-weight="700" font-size="50" transform="matrix(0.707107 -0.707107 0.707107 0.707107 6410.73 2772)">00:03:25</text></g><g clip-path="url(#clip26)"><text font-family="LM Roman 10,LM Roman 10_MSFontService,sans-serif" font-weight="700" font-size="50" transform="matrix(0.707107 -0.707107 0.707107 0.707107 6511.33 2772)">00:03:54</text></g><g clip-path="url(#clip27)"><text font-family="LM Roman 10,LM Roman 10_MSFontService,sans-serif" font-weight="700" font-size="50" transform="matrix(0.707107 -0.707107 0.707107 0.707107 6611.94 2772)">00:04:20</text></g><g clip-path="url(#clip28)"><text font-family="LM Roman 10,LM Roman 10_MSFontService,sans-serif" font-weight="700" font-size="50" transform="matrix(0.707107 -0.707107 0.707107 0.707107 6712.54 2772)">00:04:47</text></g><g clip-path="url(#clip29)"><text font-family="LM Roman 10,LM Roman 10_MSFontService,sans-serif" font-weight="700" font-size="50" transform="matrix(0.707107 -0.707107 0.707107 0.707107 6813.15 2772)">00:05:16</text></g><g clip-path="url(#clip30)"><text font-family="LM Roman 10,LM Roman 10_MSFontService,sans-serif" font-weight="700" font-size="50" transform="matrix(0.707107 -0.707107 0.707107 0.707107 6913.75 2772)">00:05:42</text></g><g clip-path="url(#clip31)"><text font-family="LM Roman 10,LM Roman 10_MSFontService,sans-serif" font-weight="700" font-size="50" transform="matrix(0.707107 -0.707107 0.707107 0.707107 7014.36 2772)">00:06:07</text></g><g clip-path="url(#clip32)"><text font-family="LM Roman 10,LM Roman 10_MSFontService,sans-serif" font-weight="700" font-size="50" transform="matrix(0.707107 -0.707107 0.707107 0.707107 7114.96 2772)">00:06:34</text></g><g clip-path="url(#clip33)"><text font-family="LM Roman 10,LM Roman 10_MSFontService,sans-serif" font-weight="700" font-size="50" transform="matrix(0.707107 -0.707107 0.707107 0.707107 7215.57 2772)">00:06:58</text></g><g clip-path="url(#clip34)"><text font-family="LM Roman 10,LM Roman 10_MSFontService,sans-serif" font-weight="700" font-size="50" transform="matrix(0.707107 -0.707107 0.707107 0.707107 7316.17 2772)">00:07:27</text></g><g clip-path="url(#clip35)"><text font-family="LM Roman 10,LM Roman 10_MSFontService,sans-serif" font-weight="700" font-size="50" transform="matrix(0.707107 -0.707107 0.707107 0.707107 7416.77 2772)">00:07:54</text></g><g clip-path="url(#clip36)"><text font-family="LM Roman 10,LM Roman 10_MSFontService,sans-serif" font-weight="700" font-size="50" transform="matrix(0.707107 -0.707107 0.707107 0.707107 7517.38 2772)">00:08:18</text></g><g clip-path="url(#clip37)"><text font-family="LM Roman 10,LM Roman 10_MSFontService,sans-serif" font-weight="700" font-size="50" transform="matrix(0.707107 -0.707107 0.707107 0.707107 7617.98 2772)">00:08:45</text></g><g clip-path="url(#clip38)"><text font-family="LM Roman 10,LM Roman 10_MSFontService,sans-serif" font-weight="700" font-size="50" transform="matrix(0.707107 -0.707107 0.707107 0.707107 7718.59 2772)">00:09:13</text></g><g clip-path="url(#clip39)"><text font-family="LM Roman 10,LM Roman 10_MSFontService,sans-serif" font-weight="700" font-size="50" transform="matrix(0.707107 -0.707107 0.707107 0.707107 7819.19 2772)">00:09:36</text></g><g clip-path="url(#clip40)"><text font-family="LM Roman 10,LM Roman 10_MSFontService,sans-serif" font-weight="400" font-size="64" transform="matrix(6.12323e-17 -1 1 6.12323e-17 5435.65 2546)">Czas przetwarzania (ms)</text></g><g clip-path="url(#clip41)"><text font-family="LM Roman 10,LM Roman 10_MSFontService,sans-serif" font-weight="400" font-size="64" transform="matrix(1 0 0 1 6592.94 2918)">Czas trwania ewaluacji</text></g><g clip-path="url(#clip42)"><text font-family="LM Roman 10,LM Roman 10_MSFontService,sans-serif" font-weight="400" font-size="73" transform="matrix(1 0 0 1 5983.25 1699)">Interfejs API: NodeJS / Metoda HTTP: POST / </text></g><g clip-path="url(#clip43)"><text font-family="LM Roman 10,LM Roman 10_MSFontService,sans-serif" font-weight="400" font-size="73" transform="matrix(1 0 0 1 6380.62 1803)">Platforma: DigitalOcean</text></g><g clip-path="url(#clip44)"><rect x="5744.5" y="1915.5" width="288" height="104" stroke="#D9D9D9" stroke-width="3.4375" stroke-linejoin="round" stroke-miterlimit="10" fill="#FFFFFF"/></g><g clip-path="url(#clip45)"><path d="M5772.5 1967.5 5860.5 1967.5" stroke="#70AD47" stroke-width="3.4375" stroke-linecap="round" stroke-linejoin="round" stroke-miterlimit="10" fill="none" fill-rule="evenodd"/></g><g clip-path="url(#clip46)"><text font-family="LM Roman 10,LM Roman 10_MSFontService,sans-serif" font-weight="400" font-size="55" transform="matrix(1 0 0 1 5870.2 1985)">POST</text></g></g></svg>