<svg width="2833" height="1362" xmlns="http://www.w3.org/2000/svg" xmlns:xlink="http://www.w3.org/1999/xlink" xml:space="preserve" overflow="hidden"><defs><clipPath id="clip0"><rect x="2329" y="138" width="2833" height="1362"/></clipPath><clipPath id="clip1"><rect x="2329" y="137" width="2832" height="1363"/></clipPath><clipPath id="clip2"><rect x="2329" y="137" width="2832" height="1363"/></clipPath><clipPath id="clip3"><rect x="2329" y="137" width="2832" height="1363"/></clipPath><clipPath id="clip4"><rect x="2329" y="137" width="2832" height="1363"/></clipPath><clipPath id="clip5"><rect x="2709" y="455" width="2355" height="652"/></clipPath><clipPath id="clip6"><rect x="2329" y="137" width="2832" height="1363"/></clipPath><clipPath id="clip7"><rect x="2329" y="137" width="2832" height="1363"/></clipPath><clipPath id="clip8"><rect x="2329" y="137" width="2832" height="1363"/></clipPath><clipPath id="clip9"><rect x="2329" y="137" width="2832" height="1363"/></clipPath><clipPath id="clip10"><rect x="2329" y="137" width="2832" height="1363"/></clipPath><clipPath id="clip11"><rect x="2329" y="137" width="2832" height="1363"/></clipPath><clipPath id="clip12"><rect x="2329" y="137" width="2832" height="1363"/></clipPath><clipPath id="clip13"><rect x="2329" y="137" width="2832" height="1363"/></clipPath><clipPath id="clip14"><rect x="2329" y="137" width="2832" height="1363"/></clipPath><clipPath id="clip15"><rect x="2329" y="137" width="2832" height="1363"/></clipPath><clipPath id="clip16"><rect x="2329" y="137" width="2832" height="1363"/></clipPath><clipPath id="clip17"><rect x="2329" y="137" width="2832" height="1363"/></clipPath><clipPath id="clip18"><rect x="2329" y="137" width="2832" height="1363"/></clipPath><clipPath id="clip19"><rect x="2329" y="137" width="2832" height="1363"/></clipPath><clipPath id="clip20"><rect x="2329" y="137" width="2832" height="1363"/></clipPath><clipPath id="clip21"><rect x="2329" y="137" width="2832" height="1363"/></clipPath><clipPath id="clip22"><rect x="2329" y="137" width="2832" height="1363"/></clipPath><clipPath id="clip23"><rect x="2329" y="137" width="2832" height="1363"/></clipPath><clipPath id="clip24"><rect x="2329" y="137" width="2832" height="1363"/></clipPath><clipPath id="clip25"><rect x="2329" y="137" width="2832" height="1363"/></clipPath><clipPath id="clip26"><rect x="2329" y="137" width="2832" height="1363"/></clipPath><clipPath id="clip27"><rect x="2329" y="137" width="2832" height="1363"/></clipPath><clipPath id="clip28"><rect x="2329" y="137" width="2832" height="1363"/></clipPath><clipPath id="clip29"><rect x="2329" y="137" width="2832" height="1363"/></clipPath><clipPath id="clip30"><rect x="2329" y="137" width="2832" height="1363"/></clipPath><clipPath id="clip31"><rect x="2329" y="137" width="2832" height="1363"/></clipPath><clipPath id="clip32"><rect x="2329" y="137" width="2832" height="1363"/></clipPath><clipPath id="clip33"><rect x="2329" y="137" width="2832" height="1363"/></clipPath><clipPath id="clip34"><rect x="2329" y="137" width="2832" height="1363"/></clipPath><clipPath id="clip35"><rect x="2329" y="137" width="2832" height="1363"/></clipPath><clipPath id="clip36"><rect x="2329" y="137" width="2832" height="1363"/></clipPath><clipPath id="clip37"><rect x="2329" y="137" width="2832" height="1363"/></clipPath><clipPath id="clip38"><rect x="2329" y="137" width="2832" height="1363"/></clipPath><clipPath id="clip39"><rect x="2329" y="137" width="2832" height="1363"/></clipPath><clipPath id="clip40"><rect x="2329" y="137" width="2832" height="1363"/></clipPath><clipPath id="clip41"><rect x="2329" y="137" width="2832" height="1363"/></clipPath><clipPath id="clip42"><rect x="2329" y="137" width="2832" height="1363"/></clipPath><clipPath id="clip43"><rect x="2329" y="137" width="2832" height="1363"/></clipPath><clipPath id="clip44"><rect x="2329" y="137" width="2832" height="1363"/></clipPath><clipPath id="clip45"><rect x="2329" y="137" width="2832" height="1363"/></clipPath><clipPath id="clip46"><rect x="2329" y="137" width="2832" height="1363"/></clipPath></defs><g clip-path="url(#clip0)" transform="translate(-2329 -138)"><rect x="2329" y="138" width="2833" height="1362" fill="#FFFFFF"/><g clip-path="url(#clip1)"><path d="M2709.5 1071.54 5061.5 1071.54M2709.5 1006.53 5061.5 1006.53M2709.5 941.531 5061.5 941.531M2709.5 876.529 5061.5 876.529M2709.5 811.527 5061.5 811.527M2709.5 747.525 5061.5 747.525M2709.5 682.523 5061.5 682.523M2709.5 617.52 5061.5 617.52M2709.5 552.518 5061.5 552.518M2709.5 487.516 5061.5 487.516" stroke="#F2F2F2" stroke-width="3.4375" stroke-linejoin="round" stroke-miterlimit="10" fill="none"/></g><g clip-path="url(#clip2)"><path d="M2709.5 1038.53 5061.5 1038.53M2709.5 973.532 5061.5 973.532M2709.5 909.53 5061.5 909.53M2709.5 844.528 5061.5 844.528M2709.5 779.526 5061.5 779.526M2709.5 714.524 5061.5 714.524M2709.5 649.521 5061.5 649.521M2709.5 584.519 5061.5 584.519M2709.5 520.517 5061.5 520.517M2709.5 455.5 5061.5 455.5" stroke="#D9D9D9" stroke-width="3.4375" stroke-linejoin="round" stroke-miterlimit="10" fill="none"/></g><g clip-path="url(#clip3)"><rect x="2709.5" y="455.5" width="2352" height="648" stroke="#D9D9D9" stroke-width="3.4375" stroke-linejoin="round" stroke-miterlimit="10" fill="none"/></g><g clip-path="url(#clip4)"><path d="M2709.5 1103.5 5061.5 1103.5" stroke="#D9D9D9" stroke-width="3.4375" stroke-linejoin="round" stroke-miterlimit="10" fill="none" fill-rule="evenodd"/></g><g clip-path="url(#clip5)"><path d="M2709.5 929.531 2710.59 1060.53 2711.59 1092.54 2711.59 820.527 2712.59 1068.54 2713.59 1095.54 2714.59 1027.53 2715.59 1056.53 2716.59 1087.54 2717.59 1094.54 2717.59 977.532 2718.59 1094.54 2719.59 1080.54 2720.59 975.532 2721.59 836.528 2722.59 952.531 2722.59 1094.54 2723.59 1095.54 2724.59 1094.54 2725.59 1009.53 2726.59 814.527 2727.59 1094.54 2728.59 1072.54 2728.59 1043.53 2729.59 1094.54 2730.59 840.528 2731.59 1095.54 2732.59 1058.53 2733.59 1094.54 2733.59 1065.54 2734.59 967.532 2735.59 902.53 2736.59 1095.54 2737.59 1095.54 2738.59 1082.54 2739.59 1061.54 2739.59 1057.53 2740.59 1095.54 2741.59 1095.54 2742.59 1095.54 2743.59 1051.53 2744.59 1090.54 2744.59 1054.53 2745.59 1057.53 2746.59 1092.54 2747.59 953.531 2748.59 948.531 2749.59 1095.54 2749.59 1035.53 2750.59 1052.53 2751.59 1060.53 2752.59 1094.54 2753.59 1094.54 2754.59 1013.53 2755.59 1095.54 2755.59 894.53 2756.59 1081.54 2757.59 1093.54 2758.59 1051.53 2759.59 924.531 2760.59 1094.54 2760.59 1091.54 2761.59 1087.54 2762.59 1061.54 2763.59 1074.54 2764.59 1051.53 2765.59 1089.54 2766.59 843.528 2766.59 1089.54 2767.59 853.528 2768.59 1045.53 2769.59 1095.54 2770.59 1030.53 2771.59 861.528 2771.59 1039.53 2772.59 1095.54 2773.59 1095.54 2774.59 1053.53 2775.59 1085.54 2776.59 917.53 2777.59 819.527 2777.59 1058.53 2778.59 858.528 2779.59 972.532 2780.59 954.531 2781.59 1091.54 2782.59 840.528 2782.59 958.532 2783.59 1059.53 2784.59 967.532 2785.59 1095.54 2786.59 1094.54 2787.59 1060.53 2788.59 827.527 2788.59 1089.54 2789.59 821.527 2790.59 1087.54 2791.59 844.528 2792.59 1082.54 2793.59 1094.54 2793.59 1093.54 2794.59 1032.53 2795.59 1060.53 2796.59 1086.54 2797.59 1065.54 2798.59 850.528 2799.59 1030.53 2799.59 1094.54 2800.59 1042.53 2801.59 1095.54 2802.59 1094.54 2803.59 1060.53 2804.59 1095.54 2804.59 1093.54 2805.59 1092.54 2806.59 1093.54 2807.59 909.53 2808.59 1067.54 2809.59 968.532 2810.59 958.532 2810.59 1095.54 2811.59 868.529 2812.59 1062.54 2813.59 863.529 2814.59 928.531 2815.59 1094.54 2815.59 1071.54 2816.59 1089.54 2817.59 1085.54 2818.59 1095.54 2819.59 1092.54 2820.59 1093.54 2821.59 1091.54 2821.59 1091.54 2822.59 1090.54 2823.59 1078.54 2824.59 1056.53 2825.59 1091.54 2826.59 1052.53 2826.59 1089.54 2827.59 1085.54 2828.59 839.528 2829.59 1035.53 2830.59 924.531 2831.59 1093.54 2831.59 1093.54 2832.59 1040.53 2833.59 1044.53 2834.59 1079.54 2835.59 1053.53 2836.59 1086.54 2837.59 1083.54 2837.59 1080.54 2838.59 854.528 2839.59 1024.53 2840.59 1089.54 2841.59 1085.54 2842.59 1045.53 2842.59 983.532 2843.59 1083.54 2844.59 1051.53 2845.59 1041.53 2846.59 1079.54 2847.59 928.531 2848.59 1034.53 2848.59 1073.54 2849.59 1077.54 2850.59 937.531 2851.59 927.531 2852.59 884.529 2853.59 930.531 2853.59 1030.53 2854.59 1056.53 2855.59 815.527 2856.59 1034.53 2857.59 1042.53 2858.59 1016.53 2859.59 982.532 2859.59 956.531 2860.59 1024.53 2861.59 915.53 2862.59 905.53 2863.59 1081.54 2864.59 1042.53 2864.59 1074.54 2865.59 1075.54 2866.59 1078.54 2867.59 982.532 2868.59 816.527 2869.59 948.531 2870.59 1039.53 2870.59 999.533 2871.59 1046.53 2872.59 1086.54 2873.59 1067.54 2874.59 1069.54 2875.59 1013.53 2875.59 1095.54 2876.59 1094.54 2877.59 1045.53 2878.59 1048.53 2879.59 1087.54 2880.59 1087.54 2881.59 1085.54 2881.59 1095.54 2882.59 1095.54 2883.59 902.53 2884.59 880.529 2885.59 811.527 2886.59 1057.53 2886.59 1009.53 2887.59 1080.54 2888.59 850.528 2889.59 959.532 2890.59 874.529 2891.6 1095.54 2892.6 1090.54 2892.6 1092.54 2893.6 823.527 2894.6 1095.54 2895.6 1083.54 2896.6 1056.53 2897.6 1090.54 2897.6 1042.53 2898.6 1070.54 2899.6 1092.54 2900.6 1087.54 2901.6 1050.53 2902.6 1057.53 2903.6 1046.53 2903.6 1075.54 2904.6 851.528 2905.6 1094.54 2906.6 1037.53 2907.6 956.531 2908.6 1037.53 2908.6 1047.53 2909.6 875.529 2910.6 1082.54 2911.6 1021.53 2912.6 945.531 2913.6 826.527 2913.6 1041.53 2914.6 889.529 2915.6 1040.53 2916.6 1045.53 2917.6 1080.54 2918.6 1054.53 2919.6 1078.54 2919.6 1045.53 2920.6 1077.54 2921.6 836.528 2922.6 1084.54 2923.6 1047.53 2924.6 1091.54 2924.6 1040.53 2925.6 1085.54 2926.6 1054.53 2927.6 1054.53 2928.6 1095.54 2929.6 896.53 2930.6 1008.53 2930.6 838.528 2931.6 853.528 2932.6 966.532 2933.6 1080.54 2934.6 1082.54 2935.6 1079.54 2935.6 868.529 2936.6 878.529 2937.6 911.53 2938.6 1079.54 2939.6 923.531 2940.6 954.531 2941.6 1039.53 2941.6 971.532 2942.6 1093.54 2943.6 1081.54 2944.6 1095.54 2945.6 1052.53 2946.6 1095.54 2946.6 913.53 2947.6 1095.54 2948.6 888.529 2949.6 1092.54 2950.6 1094.54 2951.6 1060.53 2952.6 1095.54 2952.6 1080.54 2953.6 1063.54 2954.6 825.527 2955.6 908.53 2956.6 1052.53 2957.6 1090.54 2957.6 1092.54 2958.6 1094.54 2959.6 1089.54 2960.6 1079.54 2961.6 1071.54 2962.6 1080.54 2963.6 964.532 2963.6 1094.54 2964.6 880.529 2965.6 1094.54 2966.6 848.528 2967.6 1092.54 2968.6 1092.54 2968.6 1053.53 2969.6 1088.54 2970.6 1075.54 2971.6 1088.54 2972.6 1091.54 2973.6 1087.54 2974.6 957.532 2974.6 1036.53 2975.6 1044.53 2976.6 860.528 2977.6 1051.53 2978.6 1065.54 2979.6 1067.54 2979.6 894.53 2980.6 1076.54 2981.6 1078.54 2982.6 977.532 2983.6 971.532 2984.6 1065.54 2985.6 1008.53 2985.6 1018.53 2986.6 1041.53 2987.6 1026.53 2988.6 913.53 2989.6 889.529 2990.6 1032.53 2990.6 894.53 2991.6 831.527 2992.6 1049.53 2993.6 1052.53 2994.6 1074.54 2995.6 914.53 2995.6 986.533 2996.6 1058.53 2997.6 1033.53 2998.6 1030.53 2999.6 1028.53 3000.6 1023.53 3001.6 1058.53 3001.6 1078.54 3002.6 995.533 3003.6 909.53 3004.6 1094.54 3005.6 1023.53 3006.6 1000.53 3006.6 1090.54 3007.6 898.53 3008.6 1059.53 3009.6 904.53 3010.6 1030.53 3011.6 1056.53 3012.6 1062.54 3012.6 1058.53 3013.6 1059.53 3014.6 978.532 3015.6 971.532 3016.6 908.53 3017.6 1090.54 3017.6 1038.53 3018.6 1094.54 3019.6 1047.53 3020.6 1048.53 3021.6 1009.53 3022.6 1034.53 3023.6 1063.54 3023.6 901.53 3024.6 1083.54 3025.6 860.528 3026.6 1002.53 3027.6 1062.54 3028.6 1060.53 3028.6 1094.54 3029.6 1095.54 3030.6 949.531 3031.6 1095.54 3032.6 1095.54 3033.6 872.529 3034.6 814.527 3034.6 1059.53 3035.6 1080.54 3036.6 1087.54 3037.6 1086.54 3038.6 1048.53 3039.6 1075.54 3039.6 1081.54 3040.6 888.529 3041.6 836.528 3042.6 1090.54 3043.6 1085.54 3044.6 902.53 3045.6 1036.53 3045.6 1076.54 3046.6 857.528 3047.6 1073.54 3048.6 1075.54 3049.6 855.528 3050.6 1080.54 3050.6 1077.54 3051.6 1031.53 3052.6 828.527 3053.6 1077.54 3054.6 1090.54 3055.6 1084.54 3056.6 1038.53 3056.6 956.531 3057.6 880.529 3058.6 988.533 3059.6 1085.54 3060.6 1036.53 3061.6 1086.54 3061.6 989.533 3062.6 881.529 3063.6 1038.53 3064.6 948.531 3065.6 903.53 3066.6 1039.53 3067.6 1077.54 3067.6 1076.54 3068.6 1083.54 3069.6 868.529 3070.6 1094.54 3071.6 900.53 3072.6 1095.54 3072.6 1095.54 3073.6 1090.54 3074.6 1089.54 3075.6 1085.54 3076.6 1005.53 3077.6 888.529 3078.6 823.527 3078.6 906.53 3079.6 883.529 3080.6 1052.53 3081.6 1095.54 3082.6 1095.54 3083.6 1056.53 3083.6 971.532 3084.6 1091.54 3085.6 912.53 3086.6 859.528 3087.6 840.528 3088.6 1095.54 3088.6 866.529 3089.6 1076.54 3090.6 1050.53 3091.6 1059.53 3092.6 1093.54 3093.6 965.532 3094.6 1002.53 3094.6 1095.54 3095.6 1095.54 3096.6 871.529 3097.6 1034.53 3098.6 1094.54 3099.6 1094.54 3099.6 839.528 3100.6 933.531 3101.6 1095.54 3102.6 1095.54 3103.6 1103.5 3104.6 1095.54 3105.6 877.529 3105.6 1069.54 3106.6 1090.54 3107.6 1092.54 3108.6 1061.54 3109.6 1033.53 3110.6 1095.54 3110.6 1088.54 3111.6 1092.54 3112.6 1092.54 3113.6 1057.53 3114.6 855.528 3115.6 1053.53 3116.6 1091.54 3116.6 987.533 3117.6 989.533 3118.6 1094.54 3119.6 1093.54 3120.6 1091.54 3121.6 1088.54 3121.6 1053.53 3122.6 823.527 3123.6 1025.53 3124.6 1094.54 3125.6 1058.53 3126.6 893.529 3127.6 860.528 3127.6 1093.54 3128.6 1093.54 3129.6 972.532 3130.6 902.53 3131.6 923.531 3132.6 1091.54 3132.6 852.528 3133.6 1059.53 3134.6 958.532 3135.6 1047.53 3136.6 953.531 3137.6 881.529 3138.6 1082.54 3138.6 1079.54 3139.6 1084.54 3140.6 978.532 3141.6 1081.54 3142.6 1076.54 3143.6 1078.54 3143.6 1034.53 3144.6 1029.53 3145.6 1084.54 3146.6 852.528 3147.6 1084.54 3148.6 853.528 3149.6 1095.54 3149.6 1085.54 3150.6 923.531 3151.6 881.529 3152.6 951.531 3153.6 890.529 3154.6 1060.53 3154.6 1057.53 3155.6 831.527 3156.6 1026.53 3157.6 1094.54 3158.6 1094.54 3159.6 1095.54 3160.6 1094.54 3160.6 980.532 3161.6 1086.54 3162.6 1041.53 3163.6 1048.53 3164.6 1054.53 3165.6 865.529 3165.6 952.531 3166.6 945.531 3167.6 811.527 3168.6 1078.54 3169.6 1083.54 3170.6 1058.53 3170.6 1094.54 3171.6 1086.54 3172.6 1095.54 3173.6 1094.54 3174.6 1095.54 3175.6 1063.54 3176.6 1092.54 3176.6 978.532 3177.6 1055.53 3178.6 1083.54 3179.6 993.533 3180.6 949.531 3181.6 1085.54 3181.6 831.527 3182.6 838.528 3183.6 840.528 3184.6 1095.54 3185.6 1095.54 3186.6 1095.54 3187.6 1095.54 3187.6 1095.54 3188.6 1062.54 3189.6 1088.54 3190.6 1003.53 3191.6 1094.54 3192.6 1045.53 3192.6 897.53 3193.6 1085.54 3194.6 1084.54 3195.6 1055.53 3196.6 823.527 3197.61 1023.53 3198.61 902.53 3198.61 1090.54 3199.61 1054.53 3200.61 837.528 3201.61 977.532 3202.61 980.532 3203.61 911.53 3203.61 1046.53 3204.61 1054.53 3205.61 1094.54 3206.61 877.529 3207.61 889.529 3208.61 1053.53 3209.61 1030.53 3209.61 1047.53 3210.61 1060.53 3211.61 874.529 3212.61 1094.54 3213.61 1054.53 3214.61 1094.54 3214.61 916.53 3215.61 1095.54 3216.61 1094.54 3217.61 1095.54 3218.61 1092.54 3219.61 1058.53 3220.61 1015.53 3220.61 1059.53 3221.61 1084.54 3222.61 983.532 3223.61 1094.54 3224.61 955.531 3225.61 1059.53 3225.61 927.531 3226.61 1018.53 3227.61 1062.54 3228.61 1061.54 3229.61 1060.53 3230.61 1058.53 3231.61 914.53 3231.61 882.529 3232.61 841.528 3233.61 1095.54 3234.61 1095.54 3235.61 1094.54 3236.61 1093.54 3236.61 1094.54 3237.61 1060.53 3238.61 989.533 3239.61 1095.54 3240.61 1095.54 3241.61 1055.53 3242.61 986.533 3242.61 1060.53 3243.61 1013.53 3244.61 1061.54 3245.61 959.532 3246.61 856.528 3247.61 985.532 3247.61 1094.54 3248.61 891.529 3249.61 1060.53 3250.61 1061.54 3251.61 1054.53 3252.61 857.528 3252.61 953.531 3253.61 1095.54 3254.61 1094.54 3255.61 1058.53 3256.61 1060.53 3257.61 1094.54 3258.61 1039.53 3258.61 1095.54 3259.61 1095.54 3260.61 811.527 3261.61 1095.54 3262.61 1058.53 3263.61 1094.54 3263.61 920.53 3264.61 1095.54 3265.61 1060.53 3266.61 1031.53 3267.61 986.533 3268.61 1092.54 3269.61 1095.54 3269.61 1024.53 3270.61 935.531 3271.61 1051.53 3272.61 937.531 3273.61 820.527 3274.61 1059.53 3274.61 1095.54 3275.61 1059.53 3276.61 1060.53 3277.61 979.532 3278.61 861.528 3279.61 944.531 3280.61 1094.54 3280.61 1095.54 3281.61 978.532 3282.61 942.531 3283.61 1066.54 3284.61 834.528 3285.61 917.53 3285.61 1055.53 3286.61 1061.54 3287.61 1063.54 3288.61 1061.54 3289.61 1081.54 3290.61 1094.54 3291.61 1094.54 3291.61 1095.54 3292.61 1094.54 3293.61 1095.54 3294.61 1095.54 3295.61 1061.54 3296.61 982.532 3296.61 887.529 3297.61 853.528 3298.61 985.532 3299.61 1094.54 3300.61 1082.54 3301.61 1095.54 3302.61 1058.53 3302.61 1095.54 3303.61 865.529 3304.61 864.529 3305.61 1095.54 3306.61 851.528 3307.61 1054.53 3307.61 1095.54 3308.61 1095.54 3309.61 1095.54 3310.61 1094.54 3311.61 1062.54 3312.61 1048.53 3313.61 1095.54 3313.61 1094.54 3314.61 989.533 3315.61 1095.54 3316.61 1095.54 3317.61 1062.54 3318.61 956.531 3318.61 1012.53 3319.61 897.53 3320.61 1094.54 3321.61 1094.54 3322.61 953.531 3323.61 965.532 3324.61 1095.54 3324.61 840.528 3325.61 1091.54 3326.61 1060.53 3327.61 1094.54 3328.61 937.531 3329.61 1094.54 3329.61 876.529 3330.61 1095.54 3331.61 1059.53 3332.61 1060.53 3333.61 1062.54 3334.61 1050.53 3334.61 982.532 3335.61 1035.53 3336.61 1049.53 3337.61 1095.54 3338.61 1094.54 3339.61 1062.54 3340.61 869.529 3340.61 899.53 3341.61 932.531 3342.61 1095.54 3343.61 981.532 3344.61 1095.54 3345.61 860.528 3345.61 1075.54 3346.61 818.527 3347.61 1095.54 3348.61 1094.54 3349.61 851.528 3350.61 1057.53 3351.61 1062.54 3351.61 1061.54 3352.61 1060.53 3353.61 884.529 3354.61 1035.53 3355.61 926.531 3356.61 1059.53 3356.61 1094.54 3357.61 1093.54 3358.61 913.53 3359.61 1094.54 3360.61 1095.54 3361.61 1095.54 3362.61 1095.54 3362.61 1095.54 3363.61 1061.54 3364.61 1065.54 3365.61 1094.54 3366.61 875.529 3367.61 876.529 3367.61 823.527 3368.61 1058.53 3369.61 927.531 3370.61 1055.53 3371.61 1094.54 3372.61 1094.54 3373.61 1094.54 3373.61 1094.54 3374.61 1095.54 3375.61 1095.54 3376.61 1091.54 3377.61 1054.53 3378.61 1051.53 3378.61 923.531 3379.61 1004.53 3380.61 1059.53 3381.61 956.531 3382.61 1010.53 3383.61 1095.54 3384.61 1094.54 3384.61 1095.54 3385.61 1095.54 3386.61 1074.54 3387.61 1048.53 3388.61 1045.53 3389.61 1061.54 3389.61 1093.54 3390.61 846.528 3391.61 1050.53 3392.61 1094.54 3393.61 1095.54 3394.61 1095.54 3395.61 1009.53 3395.61 1060.53 3396.61 1094.54 3397.61 1033.53 3398.61 1095.54 3399.61 1094.54 3400.61 1094.54 3400.61 1094.54 3401.61 849.528 3402.61 833.528 3403.61 1053.53 3404.61 967.532 3405.61 1093.54 3406.61 1094.54 3406.61 820.527 3407.61 1094.54 3408.61 1095.54 3409.61 1061.54 3410.61 1061.54 3411.61 1057.53 3411.61 1049.53 3412.61 1049.53 3413.61 935.531 3414.61 1057.53 3415.61 1064.54 3416.61 984.532 3417.61 1093.54 3417.61 1059.53 3418.61 1095.54 3419.61 1011.53 3420.61 1095.54 3421.61 1062.54 3422.61 1061.54 3422.61 1014.53 3423.61 1060.53 3424.61 1030.53 3425.61 833.528 3426.61 1061.54 3427.61 1059.53 3427.61 921.53 3428.61 1095.54 3429.61 1058.53 3430.61 1095.54 3431.61 1095.54 3432.61 1094.54 3433.61 1013.53 3433.61 1095.54 3434.61 1095.54 3435.61 883.529 3436.61 942.531 3437.61 1060.53 3438.61 824.527 3438.61 1095.54 3439.61 994.533 3440.61 1095.54 3441.61 1094.54 3442.61 1061.54 3443.61 966.532 3444.61 1095.54 3444.61 1095.54 3445.61 1084.54 3446.61 1095.54 3447.61 1095.54 3448.61 1095.54 3449.61 1062.54 3449.61 1093.54 3450.61 1061.54 3451.61 1059.53 3452.61 1055.53 3453.61 1063.54 3454.61 1061.54 3455.61 907.53 3455.61 1064.54 3456.61 1067.54 3457.61 873.529 3458.61 1094.54 3459.61 1095.54 3460.61 1003.53 3460.61 1059.53 3461.61 1062.54 3462.61 1095.54 3463.61 1062.54 3464.61 1094.54 3465.61 883.529 3466.61 936.531 3466.61 1062.54 3467.61 1094.54 3468.61 1062.54 3469.61 1059.53 3470.61 1015.53 3471.61 1058.53 3471.61 1095.54 3472.61 1062.54 3473.61 1054.53 3474.61 1038.53 3475.61 969.532 3476.61 1095.54 3477.61 1094.54 3477.61 1058.53 3478.61 947.531 3479.61 883.529 3480.61 937.531 3481.61 1006.53 3482.61 1088.54 3482.61 1078.54 3483.61 978.532 3484.61 1038.53 3485.61 920.53 3486.61 910.53 3487.61 818.527 3488.61 982.532 3488.61 1094.54 3489.61 1062.54 3490.61 1095.54 3491.61 971.532 3492.61 1094.54 3493.61 1086.54 3493.61 1032.53 3494.61 881.529 3495.61 1028.53 3496.61 959.532 3497.61 969.532 3498.61 1094.54 3499.61 964.532 3499.61 847.528 3500.62 982.532 3501.62 1094.54 3502.62 1060.53 3503.62 1089.54 3504.62 1094.54 3504.62 1062.54 3505.62 1081.54 3506.62 1095.54 3507.62 1095.54 3508.62 973.532 3509.62 813.527 3509.62 1088.54 3510.62 1023.53 3511.62 1094.54 3512.62 1019.53 3513.62 1061.54 3514.62 1095.54 3515.62 1095.54 3515.62 877.529 3516.62 1095.54 3517.62 980.532 3518.62 1050.53 3519.62 1053.53 3520.62 965.532 3520.62 1085.54 3521.62 1089.54 3522.62 1087.54 3523.62 982.532 3524.62 1095.54 3525.62 1083.54 3526.62 1079.54 3526.62 1086.54 3527.62 1039.53 3528.62 1079.54 3529.62 1078.54 3530.62 968.532 3531.62 1047.53 3531.62 1087.54 3532.62 870.529 3533.62 1036.53 3534.62 956.531 3535.62 1082.54 3536.62 1082.54 3537.62 1082.54 3537.62 1056.53 3538.62 846.528 3539.62 839.528 3540.62 1021.53 3541.62 868.529 3542.62 1027.53 3542.62 869.529 3543.62 945.531 3544.62 976.532 3545.62 923.531 3546.62 1095.54 3547.62 1061.54 3548.62 1090.54 3548.62 1095.54 3549.62 1095.54 3550.62 1094.54 3551.62 891.529 3552.62 822.527 3553.62 1095.54 3553.62 1091.54 3554.62 1061.54 3555.62 1085.54 3556.62 584.519 3557.62 1061.54 3558.62 1034.53 3559.62 1096.54 3559.62 1095.54 3560.62 873.529 3561.62 1061.54 3562.62 818.527 3563.62 1094.54 3564.62 1092.54 3564.62 854.528 3565.62 1029.53 3566.62 1091.54 3567.62 1060.53 3568.62 1013.53 3569.62 1078.54 3570.62 1055.53 3570.62 1057.53 3571.62 1086.54 3572.62 1084.54 3573.62 847.528 3574.62 1031.53 3575.62 956.531 3575.62 1090.54 3576.62 1094.54 3577.62 869.529 3578.62 952.531 3579.62 818.527 3580.62 1043.53 3581.62 1090.54 3581.62 1088.54 3582.62 885.529 3583.62 1084.54 3584.62 1081.54 3585.62 1009.53 3586.62 891.529 3586.62 1084.54 3587.62 986.533 3588.62 1034.53 3589.62 1077.54 3590.62 1032.53 3591.62 1076.54 3591.62 1034.53 3592.62 1077.54 3593.62 898.53 3594.62 1081.54 3595.62 975.532 3596.62 857.528 3597.62 1025.53 3597.62 1088.54 3598.62 965.532 3599.62 1083.54 3600.62 1086.54 3601.62 1083.54 3602.62 1084.54 3602.62 1036.53 3603.62 1027.53 3604.62 1087.54 3605.62 962.532 3606.62 1085.54 3607.62 1045.53 3608.62 826.527 3608.62 1076.54 3609.62 1033.53 3610.62 1090.54 3611.62 1031.53 3612.62 835.528 3613.62 843.528 3613.62 954.531 3614.62 1091.54 3615.62 1093.54 3616.62 875.529 3617.62 1087.54 3618.62 885.529 3619.62 891.529 3619.62 1080.54 3620.62 956.531 3621.62 1078.54 3622.62 1047.53 3623.62 1030.53 3624.62 1084.54 3624.62 1041.53 3625.62 1054.53 3626.62 1040.53 3627.62 1036.53 3628.62 885.529 3629.62 1083.54 3630.62 1083.54 3630.62 905.53 3631.62 881.529 3632.62 1094.54 3633.62 1030.53 3634.62 1035.53 3635.62 1048.53 3635.62 1091.54 3636.62 852.528 3637.62 1095.54 3638.62 1051.53 3639.62 1095.54 3640.62 1095.54 3641.62 1095.54 3641.62 898.53 3642.62 985.532 3643.62 1053.53 3644.62 1059.53 3645.62 1095.54 3646.62 1042.53 3646.62 1059.53 3647.62 1060.53 3648.62 1095.54 3649.62 1060.53 3650.62 1095.54 3651.62 1095.54 3652.62 1095.54 3652.62 1095.54 3653.62 1094.54 3654.62 1093.54 3655.62 1094.54 3656.62 856.528 3657.62 1063.54 3657.62 1032.53 3658.62 1095.54 3659.62 1029.53 3660.62 1035.53 3661.62 859.528 3662.62 829.527 3663.62 1035.53 3663.62 1079.54 3664.62 1063.54 3665.62 1027.53 3666.62 884.529 3667.62 1084.54 3668.62 1084.54 3668.62 1088.54 3669.62 1088.54 3670.62 852.528 3671.62 850.528 3672.62 1095.54 3673.62 982.532 3673.62 1054.53 3674.62 905.53 3675.62 1045.53 3676.62 1041.53 3677.62 1038.53 3678.62 888.529 3679.62 1071.54 3679.62 850.528 3680.62 1028.53 3681.62 1027.53 3682.62 965.532 3683.62 1023.53 3684.62 932.531 3684.62 1081.54 3685.62 1024.53 3686.62 946.531 3687.62 1079.54 3688.62 1080.54 3689.62 905.53 3690.62 1040.53 3690.62 830.527 3691.62 1087.54 3692.62 1095.54 3693.62 906.53 3694.62 1058.53 3695.62 1051.53 3695.62 1087.54 3696.62 1051.53 3697.62 1045.53 3698.62 1074.54 3699.62 996.533 3700.62 1079.54 3701.62 1084.54 3701.62 1045.53 3702.62 1089.54 3703.62 1031.53 3704.62 1095.54 3705.62 1042.53 3706.62 1095.54 3706.62 955.531 3707.62 1058.53 3708.62 1095.54 3709.62 877.529 3710.62 853.528 3711.62 1082.54 3712.62 1061.54 3712.62 1063.54 3713.62 828.527 3714.62 1062.54 3715.62 1062.54 3716.62 871.529 3717.62 851.528 3717.62 821.527 3718.62 1095.54 3719.62 978.532 3720.62 1060.53 3721.62 1061.54 3722.62 1095.54 3723.62 1095.54 3723.62 1057.53 3724.62 1062.54 3725.62 1095.54 3726.62 1095.54 3727.62 1095.54 3728.62 840.528 3728.62 1094.54 3729.62 895.53 3730.62 1095.54 3731.62 1094.54 3732.62 1082.54 3733.62 1025.53 3734.62 1052.53 3734.62 1095.54 3735.62 1094.54 3736.62 1095.54 3737.62 986.533 3738.62 1094.54 3739.62 1054.53 3739.62 1091.54 3740.62 1022.53 3741.62 1063.54 3742.62 1062.54 3743.62 905.53 3744.62 853.528 3745.62 1095.54 3745.62 1093.54 3746.62 1023.53 3747.62 1062.54 3748.62 1094.54 3749.62 850.528 3750.62 1013.53 3750.62 1095.54 3751.62 409.514 3752.62 1091.54 3753.62 1095.54 3754.62 1039.53 3755.62 1089.54 3756.62 1093.54 3756.62 1089.54 3757.62 1095.54 3758.62 1080.54 3759.62 1095.54 3760.62 997.533 3761.62 841.528 3761.62 901.53 3762.62 1063.54 3763.62 852.528 3764.62 1062.54 3765.62 1086.54 3766.62 1046.53 3766.62 1053.53 3767.62 1093.54 3768.62 1084.54 3769.62 1010.53 3770.62 827.527 3771.62 1058.53 3772.62 1061.54 3772.62 1094.54 3773.62 846.528 3774.62 1059.53 3775.62 1094.54 3776.62 914.53 3777.62 1095.54 3777.62 969.532 3778.62 920.53 3779.62 1061.54 3780.62 1095.54 3781.62 984.532 3782.62 1060.53 3783.62 1094.54 3783.62 1061.54 3784.62 958.532 3785.62 1094.54 3786.62 1095.54 3787.62 1095.54 3788.62 412.514 3788.62 1091.54 3789.62 1090.54 3790.62 1095.54 3791.62 1094.54 3792.62 991.533 3793.62 895.53 3794.62 1095.54 3794.62 954.531 3795.62 1059.53 3796.62 954.531 3797.62 834.528 3798.62 1094.54 3799.62 1094.54 3799.62 971.532 3800.62 1095.54 3801.62 928.531 3802.62 1094.54 3803.62 1094.54 3804.62 1042.53 3805.62 1095.54 3805.62 1095.54 3806.62 1060.53 3807.62 1095.54 3808.63 1095.54 3809.63 1032.53 3810.63 1094.54 3810.63 1060.53 3811.63 1094.54 3812.63 1010.53 3813.63 981.532 3814.63 1095.54 3815.63 1071.54 3816.63 1060.53 3816.63 1083.54 3817.63 1058.53 3818.63 1095.54 3819.63 914.53 3820.63 1057.53 3821.63 1056.53 3821.63 1060.53 3822.63 1095.54 3823.63 1094.54 3824.63 1060.53 3825.63 1058.53 3826.63 1058.53 3827.63 1095.54 3827.63 926.531 3828.63 1094.54 3829.63 826.527 3830.63 875.529 3831.63 1095.54 3832.63 979.532 3832.63 1095.54 3833.63 1095.54 3834.63 914.53 3835.63 1073.54 3836.63 1058.53 3837.63 877.529 3838.63 968.532 3838.63 1072.54 3839.63 1094.54 3840.63 906.53 3841.63 1094.54 3842.63 1094.54 3843.63 1058.53 3843.63 961.532 3844.63 1061.54 3845.63 1049.53 3846.63 977.532 3847.63 875.529 3848.63 1094.54 3848.63 1027.53 3849.63 1095.54 3850.63 1034.53 3851.63 1061.54 3852.63 916.53 3853.63 1095.54 3854.63 1094.54 3854.63 1060.53 3855.63 1095.54 3856.63 1094.54 3857.63 1061.54 3858.63 1058.53 3859.63 1095.54 3859.63 1094.54 3860.63 1085.54 3861.63 1094.54 3862.63 419.514 3863.63 876.529 3864.63 1061.54 3865.63 1095.54 3865.63 1095.54 3866.63 1031.53 3867.63 989.533 3868.63 961.532 3869.63 906.53 3870.63 924.531 3870.63 1094.54 3871.63 1059.53 3872.63 1059.53 3873.63 936.531 3874.63 969.532 3875.63 1094.54 3876.63 1095.54 3876.63 873.529 3877.63 866.529 3878.63 1095.54 3879.63 1095.54 3880.63 999.533 3881.63 404.5 3881.63 1000.53 3882.63 1035.53 3883.63 1095.54 3884.63 1060.53 3885.63 858.528 3886.63 827.527 3887.63 1095.54 3887.63 1036.53 3888.63 1095.54 3889.63 1060.53 3890.63 1094.54 3891.63 959.532 3892.63 1061.54 3892.63 1094.54 3893.63 1060.53 3894.63 890.529 3895.63 1023.53 3896.63 1095.54 3897.63 974.532 3898.63 1094.54 3898.63 418.514 3899.63 1005.53 3900.63 1059.53 3901.63 1060.53 3902.63 908.53 3903.63 1034.53 3903.63 1095.54 3904.63 1095.54 3905.63 834.528 3906.63 877.529 3907.63 1031.53 3908.63 1061.54 3909.63 902.53 3909.63 1095.54 3910.63 1074.54 3911.63 1094.54 3912.63 1095.54 3913.63 1030.53 3914.63 1094.54 3914.63 1095.54 3915.63 1058.53 3916.63 821.527 3917.63 1060.53 3918.63 1060.53 3919.63 419.514 3920.63 1095.54 3920.63 1059.53 3921.63 904.53 3922.63 994.533 3923.63 864.529 3924.63 1095.54 3925.63 1095.54 3925.63 821.527 3926.63 1095.54 3927.63 1074.54 3928.63 1083.54 3929.63 1095.54 3930.63 1095.54 3930.63 1058.53 3931.63 900.53 3932.63 841.528 3933.63 1085.54 3934.63 1095.54 3935.63 1072.54 3936.63 1062.54 3936.63 914.53 3937.63 976.532 3938.63 1085.54 3939.63 824.527 3940.63 1095.54 3941.63 1094.54 3941.63 1060.53 3942.63 1062.54 3943.63 924.531 3944.63 890.529 3945.63 874.529 3946.63 1061.54 3947.63 1055.53 3947.63 1095.54 3948.63 1095.54 3949.63 1062.54 3950.63 971.532 3951.63 928.531 3952.63 847.528 3952.63 1018.53 3953.63 1095.54 3954.63 864.529 3955.63 954.531 3956.63 1077.54 3957.63 1060.53 3958.63 1095.54 3958.63 872.529 3959.63 1060.53 3960.63 1094.54 3961.63 916.53 3962.63 1095.54 3963.63 1058.53 3963.63 1094.54 3964.63 1095.54 3965.63 1095.54 3966.63 1093.54 3967.63 1049.53 3968.63 1047.53 3969.63 971.532 3969.63 956.531 3970.63 906.53 3971.63 1059.53 3972.63 1094.54 3973.63 924.531 3974.63 1057.53 3974.63 1075.54 3975.63 889.529 3976.63 853.528 3977.63 968.532 3978.63 951.531 3979.63 1059.53 3980.63 1094.54 3980.63 885.529 3981.63 1060.53 3982.63 1025.53 3983.63 1092.54 3984.63 1094.54 3985.63 867.529 3985.63 1059.53 3986.63 1095.54 3987.63 1065.54 3988.63 843.528 3989.63 1094.54 3990.63 1095.54 3991.63 1095.54 3991.63 986.533 3992.63 1089.54 3993.63 1095.54 3994.63 1059.53 3995.63 841.528 3996.63 1089.54 3996.63 1094.54 3997.63 857.528 3998.63 991.533 3999.63 1058.53 4000.63 1088.54 4001.63 894.53 4002.63 813.527 4002.63 1095.54 4003.63 929.531 4004.63 1094.54 4005.63 837.528 4006.63 1094.54 4007.63 1094.54 4007.63 1095.54 4008.63 825.527 4009.63 1095.54 4010.63 1095.54 4011.63 983.532 4012.63 1095.54 4012.63 1095.54 4013.63 1056.53 4014.63 905.53 4015.63 1058.53 4016.63 1094.54 4017.63 865.529 4018.63 1057.53 4018.63 1031.53 4019.63 979.532 4020.63 1095.54 4021.63 1094.54 4022.63 1094.54 4023.63 1061.54 4023.63 911.53 4024.63 1094.54 4025.63 1095.54 4026.63 823.527 4027.63 1056.53 4028.63 1094.54 4029.63 1095.54 4029.63 1094.54 4030.63 1060.53 4031.63 1095.54 4032.63 954.531 4033.63 1094.54 4034.63 1061.54 4034.63 1094.54 4035.63 1055.53 4036.63 1056.53 4037.63 1094.54 4038.63 1062.54 4039.63 1095.54 4040.63 1069.54 4040.63 1095.54 4041.63 1062.54 4042.63 1060.53 4043.63 1095.54 4044.63 976.532 4045.63 1036.53 4045.63 1095.54 4046.63 998.533 4047.63 1095.54 4048.63 1071.54 4049.63 1094.54 4050.63 918.53 4051.63 1094.54 4051.63 1013.53 4052.63 1094.54 4053.63 1057.53 4054.63 820.527 4055.63 1095.54 4056.63 1060.53 4056.63 814.527 4057.63 899.53 4058.63 1095.54 4059.63 1059.53 4060.63 907.53 4061.63 1094.54 4062.63 1094.54 4062.63 1095.54 4063.63 1061.54 4064.63 991.533 4065.63 1094.54 4066.63 1031.53 4067.63 1051.53 4067.63 994.533 4068.63 1013.53 4069.63 1094.54 4070.63 1058.53 4071.63 942.531 4072.63 1058.53 4073.63 971.532 4073.63 877.529 4074.63 982.532 4075.63 1094.54 4076.63 1058.53 4077.63 1094.54 4078.63 1060.53 4078.63 1059.53 4079.63 1054.53 4080.63 819.527 4081.63 1095.54 4082.63 1061.54 4083.63 1088.54 4084.63 1094.54 4084.63 1095.54 4085.63 1090.54 4086.63 1060.53 4087.63 1095.54 4088.63 1064.54 4089.63 1094.54 4089.63 907.53 4090.63 1051.53 4091.63 971.532 4092.63 1094.54 4093.63 1060.53 4094.63 1087.54 4095.63 886.529 4095.63 1055.53 4096.63 1092.54 4097.63 1094.54 4098.63 1086.54 4099.63 853.528 4100.63 860.528 4100.63 1060.53 4101.63 869.529 4102.63 924.531 4103.63 1094.54 4104.63 1089.54 4105.63 981.532 4105.63 1065.54 4106.63 1094.54 4107.63 1087.54 4108.63 1095.54 4109.63 1095.54 4110.64 1094.54 4111.64 884.529 4111.64 845.528 4112.64 864.529 4113.64 842.528 4114.64 835.528 4115.64 832.527 4116.64 998.533 4116.64 1060.53 4117.64 1086.54 4118.64 1036.53 4119.64 905.53 4120.64 1095.54 4121.64 1095.54 4122.64 933.531 4122.64 1086.54 4123.64 1095.54 4124.64 1095.54 4125.64 880.529 4126.64 982.532 4127.64 1028.53 4127.64 1056.53 4128.64 1005.53 4129.64 982.532 4130.64 922.53 4131.64 951.531 4132.64 835.528 4133.64 933.531 4133.64 840.528 4134.64 1091.54 4135.64 1092.54 4136.64 1087.54 4137.64 1087.54 4138.64 1057.53 4138.64 1032.53 4139.64 832.527 4140.64 964.532 4141.64 1050.53 4142.64 1058.53 4143.64 1077.54 4144.64 1094.54 4144.64 1095.54 4145.64 1094.54 4146.64 1002.53 4147.64 942.531 4148.64 1095.54 4149.64 1094.54 4149.64 1095.54 4150.64 875.529 4151.64 1052.53 4152.64 995.533 4153.64 1060.53 4154.64 819.527 4155.64 1042.53 4155.64 1095.54 4156.64 1058.53 4157.64 1095.54 4158.64 1056.53 4159.64 1095.54 4160.64 867.529 4160.64 990.533 4161.64 1095.54 4162.64 1095.54 4163.64 1000.53 4164.64 1058.53 4165.64 1056.53 4166.64 1094.54 4166.64 1095.54 4167.64 1095.54 4168.64 828.527 4169.64 914.53 4170.64 1095.54 4171.64 1062.54 4171.64 1060.53 4172.64 965.532 4173.64 1095.54 4174.64 1095.54 4175.64 1095.54 4176.64 1094.54 4177.64 854.528 4177.64 1095.54 4178.64 896.53 4179.64 1095.54 4180.64 1094.54 4181.64 1012.53 4182.64 1055.53 4182.64 1088.54 4183.64 1094.54 4184.64 916.53 4185.64 914.53 4186.64 911.53 4187.64 996.533 4187.64 1042.53 4188.64 1036.53 4189.64 869.529 4190.64 1095.54 4191.64 887.529 4192.64 1057.53 4193.64 1014.53 4193.64 899.53 4194.64 841.528 4195.64 1062.54 4196.64 1095.54 4197.64 1095.54 4198.64 1095.54 4198.64 1095.54 4199.64 1095.54 4200.64 1083.54 4201.64 1095.54 4202.64 1095.54 4203.64 1071.54 4204.64 985.532 4204.64 993.533 4205.64 484.516 4206.64 866.529 4207.64 1061.54 4208.64 1063.54 4209.64 1060.53 4209.64 1067.54 4210.64 1006.53 4211.64 1033.53 4212.64 1074.54 4213.64 1046.53 4214.64 1052.53 4215.64 1049.53 4215.64 989.533 4216.64 1093.54 4217.64 877.529 4218.64 908.53 4219.64 1040.53 4220.64 894.53 4220.64 946.531 4221.64 998.533 4222.64 1093.54 4223.64 1095.54 4224.64 1063.54 4225.64 1094.54 4226.64 962.532 4226.64 1057.53 4227.64 1095.54 4228.64 965.532 4229.64 1094.54 4230.64 1095.54 4231.64 1094.54 4231.64 1089.54 4232.64 890.529 4233.64 1039.53 4234.64 996.533 4235.64 888.529 4236.64 884.529 4237.64 839.528 4237.64 853.528 4238.64 1095.54 4239.64 1094.54 4240.64 969.532 4241.64 1061.54 4242.64 1084.54 4242.64 1093.54 4243.64 1054.53 4244.64 1090.54 4245.64 887.529 4246.64 1089.54 4247.64 1083.54 4248.64 1076.54 4248.64 1079.54 4249.64 1078.54 4250.64 876.529 4251.64 1095.54 4252.64 868.529 4253.64 898.53 4253.64 1095.54 4254.64 1050.53 4255.64 1095.54 4256.64 1088.54 4257.64 1094.54 4258.64 1079.54 4259.64 1060.53 4259.64 1095.54 4260.64 1095.54 4261.64 1094.54 4262.64 1078.54 4263.64 1052.53 4264.64 1094.54 4264.64 918.53 4265.64 915.53 4266.64 934.531 4267.64 1059.53 4268.64 1059.53 4269.64 996.533 4269.64 922.53 4270.64 1046.53 4271.64 1094.54 4272.64 1080.54 4273.64 1091.54 4274.64 1089.54 4275.64 998.533 4275.64 1087.54 4276.64 1057.53 4277.64 1050.53 4278.64 1073.54 4279.64 1056.53 4280.64 1061.54 4280.64 1094.54 4281.64 936.531 4282.64 1095.54 4283.64 840.528 4284.64 895.53 4285.64 1094.54 4286.64 1095.54 4286.64 1077.54 4287.64 1095.54 4288.64 1094.54 4289.64 839.528 4290.64 944.531 4291.64 1062.54 4291.64 1094.54 4292.64 1061.54 4293.64 948.531 4294.64 1091.54 4295.64 860.528 4296.64 896.53 4297.64 1095.54 4297.64 1060.53 4298.64 1061.54 4299.64 1063.54 4300.64 1063.54 4301.64 906.53 4302.64 1091.54 4302.64 1095.54 4303.64 1062.54 4304.64 1090.54 4305.64 1095.54 4306.64 1061.54 4307.64 1095.54 4308.64 1095.54 4308.64 1092.54 4309.64 1092.54 4310.64 952.531 4311.64 1093.54 4312.64 1063.54 4313.64 1085.54 4313.64 1093.54 4314.64 1042.53 4315.64 1049.53 4316.64 1077.54 4317.64 952.531 4318.64 1045.53 4319.64 1083.54 4319.64 1041.53 4320.64 924.531 4321.64 1074.54 4322.64 1071.54 4323.64 1033.53 4324.64 1033.53 4324.64 934.531 4325.64 1085.54 4326.64 856.528 4327.64 1081.54 4328.64 1086.54 4329.64 1039.53 4330.64 881.529 4330.64 1083.54 4331.64 1038.53 4332.64 1090.54 4333.64 1084.54 4334.64 1089.54 4335.64 1079.54 4335.64 1080.54 4336.64 1053.53 4337.64 1048.53 4338.64 1059.53 4339.64 1059.53 4340.64 1085.54 4341.64 844.528 4341.64 1066.54 4342.64 998.533 4343.64 929.531 4344.64 830.527 4345.64 1060.53 4346.64 992.533 4346.64 939.531 4347.64 901.53 4348.64 1013.53 4349.64 1007.53 4350.64 1094.54 4351.64 854.528 4351.64 1055.53 4352.64 863.529 4353.64 916.53 4354.64 882.529 4355.64 1015.53 4356.64 1049.53 4357.64 1095.54 4357.64 842.528 4358.64 1042.53 4359.64 1094.54 4360.64 1095.54 4361.64 919.53 4362.64 1084.54 4362.64 1060.53 4363.64 973.532 4364.64 1095.54 4365.64 1094.54 4366.64 1050.53 4367.64 1070.54 4368.64 1089.54 4368.64 1088.54 4369.64 909.53 4370.64 1091.54 4371.64 884.529 4372.64 1044.53 4373.64 1087.54 4373.64 835.528 4374.64 1081.54 4375.64 1080.54 4376.64 865.529 4377.64 1077.54 4378.64 1091.54 4379.64 1084.54 4379.64 1081.54 4380.64 1041.53 4381.64 1079.54 4382.64 930.531 4383.64 1053.53 4384.64 1072.54 4384.64 1088.54 4385.64 1077.54 4386.64 1076.54 4387.64 1044.53 4388.64 1047.53 4389.64 1039.53 4390.64 861.528 4390.64 872.529 4391.64 1065.54 4392.64 927.531 4393.64 1071.54 4394.64 1004.53 4395.64 1077.54 4395.64 1083.54 4396.64 943.531 4397.64 1086.54 4398.64 1086.54 4399.64 1006.53 4400.64 1083.54 4401.64 1008.53 4401.64 1036.53 4402.64 1017.53 4403.64 913.53 4404.64 1050.53 4405.64 1086.54 4406.64 1083.54 4406.64 1089.54 4407.65 1007.53 4408.65 1045.53 4409.65 1095.54 4410.65 1047.53 4411.65 979.532 4412.65 922.53 4412.65 1083.54 4413.65 1087.54 4414.65 1083.54 4415.65 1082.54 4416.65 1083.54 4417.65 915.53 4417.65 1040.53 4418.65 1088.54 4419.65 1089.54 4420.65 1083.54 4421.65 921.53 4422.65 818.527 4423.65 1049.53 4423.65 1086.54 4424.65 1049.53 4425.65 1085.54 4426.65 1051.53 4427.65 1044.53 4428.65 1018.53 4428.65 1084.54 4429.65 1027.53 4430.65 1048.53 4431.65 932.531 4432.65 996.533 4433.65 1093.54 4434.65 881.529 4434.65 1011.53 4435.65 1091.54 4436.65 1062.54 4437.65 889.529 4438.65 814.527 4439.65 1095.54 4439.65 1095.54 4440.65 1093.54 4441.65 1060.53 4442.65 1058.53 4443.65 1091.54 4444.65 1061.54 4444.65 1094.54 4445.65 1095.54 4446.65 1095.54 4447.65 1086.54 4448.65 1061.54 4449.65 1057.53 4450.65 1059.53 4450.65 912.53 4451.65 1086.54 4452.65 1076.54 4453.65 835.528 4454.65 1085.54 4455.65 1092.54 4455.65 916.53 4456.65 1091.54 4457.65 1011.53 4458.65 1041.53 4459.65 1088.54 4460.65 1087.54 4461.65 1088.54 4461.65 1034.53 4462.65 1074.54 4463.65 1094.54 4464.65 1092.54 4465.65 1093.54 4466.65 1061.54 4466.65 1038.53 4467.65 852.528 4468.65 1053.53 4469.65 1059.53 4470.65 1081.54 4471.65 1083.54 4472.65 1007.53 4472.65 1042.53 4473.65 1040.53 4474.65 1071.54 4475.65 1082.54 4476.65 1081.54 4477.65 1081.54 4477.65 895.53 4478.65 1093.54 4479.65 1094.54 4480.65 1036.53 4481.65 937.531 4482.65 1095.54 4483.65 1073.54 4483.65 1090.54 4484.65 1087.54 4485.65 859.528 4486.65 1087.54 4487.65 1078.54 4488.65 1053.53 4488.65 954.531 4489.65 1076.54 4490.65 1077.54 4491.65 1066.54 4492.65 846.528 4493.65 1084.54 4494.65 971.532 4494.65 1047.53 4495.65 1085.54 4496.65 1088.54 4497.65 1080.54 4498.65 1082.54 4499.65 1087.54 4499.65 1091.54 4500.65 951.531 4501.65 1091.54 4502.65 924.531 4503.65 1091.54 4504.65 1052.53 4505.65 813.527 4505.65 983.532 4506.65 1050.53 4507.65 1088.54 4508.65 1038.53 4509.65 1031.53 4510.65 1037.53 4510.65 1070.54 4511.65 1039.53 4512.65 928.531 4513.65 1093.54 4514.65 918.53 4515.65 832.527 4516.65 1024.53 4516.65 1094.54 4517.65 1094.54 4518.65 835.528 4519.65 1082.54 4520.65 950.531 4521.65 1058.53 4521.65 824.527 4522.65 1090.54 4523.65 852.528 4524.65 1059.53 4525.65 895.53 4526.65 1095.54 4526.65 1017.53 4527.65 1095.54 4528.65 1078.54 4529.65 989.533 4530.65 1005.53 4531.65 1095.54 4532.65 1094.54 4532.65 1094.54 4533.65 1095.54 4534.65 1093.54 4535.65 1075.54 4536.65 1013.53 4537.65 823.527 4537.65 1093.54 4538.65 1039.53 4539.65 1094.54 4540.65 1094.54 4541.65 1094.54 4542.65 1011.53 4543.65 1006.53 4543.65 1094.54 4544.65 1010.53 4545.65 1058.53 4546.65 1065.54 4547.65 1060.53 4548.65 1084.54 4548.65 1091.54 4549.65 889.529 4550.65 1086.54 4551.65 1024.53 4552.65 1085.54 4553.65 1091.54 4554.65 827.527 4554.65 1092.54 4555.65 1006.53 4556.65 942.531 4557.65 1082.54 4558.65 1048.53 4559.65 1062.54 4559.65 1049.53 4560.65 1011.53 4561.65 1085.54 4562.65 861.528 4563.65 993.533 4564.65 1034.53 4565.65 852.528 4565.65 1046.53 4566.65 871.529 4567.65 941.531 4568.65 1084.54 4569.65 1081.54 4570.65 931.531 4570.65 1029.53 4571.65 838.528 4572.65 904.53 4573.65 821.527 4574.65 1082.54 4575.65 923.531 4576.65 1089.54 4576.65 1034.53 4577.65 1060.53 4578.65 1071.54 4579.65 846.528 4580.65 959.532 4581.65 957.532 4581.65 1025.53 4582.65 1080.54 4583.65 1091.54 4584.65 1085.54 4585.65 1033.53 4586.65 987.533 4587.65 1083.54 4587.65 1091.54 4588.65 1091.54 4589.65 1089.54 4590.65 1062.54 4591.65 1088.54 4592.65 1044.53 4592.65 901.53 4593.65 1046.53 4594.65 1089.54 4595.65 877.529 4596.65 1090.54 4597.65 1084.54 4598.65 1085.54 4598.65 1084.54 4599.65 1087.54 4600.65 1081.54 4601.65 1048.53 4602.65 1083.54 4603.65 1095.54 4603.65 1095.54 4604.65 915.53 4605.65 1042.53 4606.65 902.53 4607.65 1046.53 4608.65 1088.54 4608.65 1089.54 4609.65 980.532 4610.65 1062.54 4611.65 848.528 4612.65 1036.53 4613.65 1028.53 4614.65 953.531 4614.65 1028.53 4615.65 1094.54 4616.65 1094.54 4617.65 856.528 4618.65 1095.54 4619.65 816.527 4619.65 1094.54 4620.65 1042.53 4621.65 1060.53 4622.65 1032.53 4623.65 1039.53 4624.65 1057.53 4625.65 1088.54 4625.65 1055.53 4626.65 1085.54 4627.65 1095.54 4628.65 1092.54 4629.65 1094.54 4630.65 965.532 4630.65 1085.54 4631.65 1074.54 4632.65 859.528 4633.65 900.53 4634.65 927.531 4635.65 906.53 4636.65 991.533 4636.65 950.531 4637.65 1052.53 4638.65 1044.53 4639.65 966.532 4640.65 1084.54 4641.65 894.53 4641.65 1095.54 4642.65 1095.54 4643.65 829.527 4644.65 1095.54 4645.65 1094.54 4646.65 1095.54 4647.65 819.527 4647.65 1061.54 4648.65 1059.53 4649.65 1062.54 4650.65 950.531 4651.65 851.528 4652.65 992.533 4652.65 1086.54 4653.65 1062.54 4654.65 1030.53 4655.65 836.528 4656.65 1060.53 4657.65 1040.53 4658.65 823.527 4658.65 1095.54 4659.65 1094.54 4660.65 1095.54 4661.65 950.531 4662.65 1063.54 4663.65 1061.54 4663.65 837.528 4664.65 911.53 4665.65 1095.54 4666.65 1095.54 4667.65 1095.54 4668.65 1095.54 4669.65 1095.54 4669.65 1059.53 4670.65 1061.54 4671.65 974.532 4672.65 1059.53 4673.65 937.531 4674.65 906.53 4674.65 992.533 4675.65 1001.53 4676.65 835.528 4677.65 939.531 4678.65 870.529 4679.65 864.529 4680.65 1094.54 4680.65 1095.54 4681.65 1095.54 4682.65 967.532 4683.65 1095.54 4684.65 1058.53 4685.65 890.529 4685.65 1060.53 4686.65 1003.53 4687.65 1060.53 4688.65 855.528 4689.65 995.533 4690.65 1095.54 4690.65 842.528 4691.65 1095.54 4692.65 1095.54 4693.65 1094.54 4694.65 1094.54 4695.65 1060.53 4696.65 844.528 4696.65 1061.54 4697.65 890.529 4698.65 1058.53 4699.65 971.532 4700.65 939.531 4701.65 1059.53 4701.65 1095.54 4702.65 1094.54 4703.65 890.529 4704.65 1095.54 4705.65 916.53 4706.65 882.529 4707.65 1095.54 4707.65 1095.54 4708.65 1085.54 4709.65 848.528 4710.65 1055.53 4711.65 1062.54 4712.65 1095.54 4712.65 1029.53 4713.65 927.531 4714.65 1095.54 4715.65 1044.53 4716.66 1062.54 4717.66 1085.54 4718.66 1032.53 4718.66 1061.54 4719.66 853.528 4720.66 1094.54 4721.66 934.531 4722.66 1094.54 4723.66 1095.54 4723.66 1095.54 4724.66 1063.54 4725.66 1060.53 4726.66 818.527 4727.66 1095.54 4728.66 855.528 4729.66 834.528 4729.66 1027.53 4730.66 934.531 4731.66 974.532 4732.66 1060.53 4733.66 973.532 4734.66 1062.54 4734.66 888.529 4735.66 1094.54 4736.66 1095.54 4737.66 1062.54 4738.66 1071.54 4739.66 1094.54 4740.66 1095.54 4740.66 1095.54 4741.66 986.533 4742.66 1062.54 4743.66 898.53 4744.66 1060.53 4745.66 1059.53 4745.66 1062.54 4746.66 823.527 4747.66 1009.53 4748.66 840.528 4749.66 1093.54 4750.66 1083.54 4751.66 929.531 4751.66 1015.53 4752.66 1068.54 4753.66 1062.54 4754.66 1068.54 4755.66 1061.54 4756.66 1095.54 4756.66 1016.53 4757.66 937.531 4758.66 1020.53 4759.66 1095.54 4760.66 1056.53 4761.66 1046.53 4762.66 1095.54 4762.66 943.531 4763.66 858.528 4764.66 919.53 4765.66 950.531 4766.66 868.529 4767.66 1094.54 4767.66 1016.53 4768.66 1094.54 4769.66 1095.54 4770.66 1060.53 4771.66 1094.54 4772.66 1085.54 4773.66 912.53 4773.66 1041.53 4774.66 992.533 4775.66 1058.53 4776.66 945.531 4777.66 1061.54 4778.66 820.527 4778.66 1061.54 4779.66 866.529 4780.66 1095.54 4781.66 1095.54 4782.66 1058.53 4783.66 1086.54 4783.66 1095.54 4784.66 1083.54 4785.66 1094.54 4786.66 863.529 4787.66 1095.54 4788.66 1095.54 4789.66 1054.53 4789.66 1052.53 4790.66 1064.54 4791.66 1095.54 4792.66 833.528 4793.66 1009.53 4794.66 1094.54 4794.66 942.531 4795.66 1061.54 4796.66 1004.53 4797.66 1060.53 4798.66 1095.54 4799.66 1095.54 4800.66 1094.54 4800.66 832.527 4801.66 1095.54 4802.66 1094.54 4803.66 1059.53 4804.66 1073.54 4805.66 884.529 4805.66 1062.54 4806.66 1095.54 4807.66 1095.54 4808.66 1095.54 4809.66 871.529 4810.66 873.529 4811.66 1094.54 4811.66 812.527 4812.66 1056.53 4813.66 1059.53 4814.66 1059.53 4815.66 1095.54 4816.66 1094.54 4816.66 1095.54 4817.66 1060.53 4818.66 1063.54 4819.66 1095.54 4820.66 871.529 4821.66 1059.53 4822.66 1094.54 4822.66 1094.54 4823.66 831.527 4824.66 1080.54 4825.66 852.528 4826.66 912.53 4827.66 1061.54 4827.66 1058.53 4828.66 921.53 4829.66 1092.54 4830.66 977.532 4831.66 995.533 4832.66 913.53 4833.66 818.527 4833.66 884.529 4834.66 1090.54 4835.66 1094.54 4836.66 1086.54 4837.66 1090.54 4838.66 861.528 4838.66 1054.53 4839.66 1064.54 4840.66 916.53 4841.66 1060.53 4842.66 1094.54 4843.66 1059.53 4844.66 910.53 4844.66 1040.53 4845.66 1094.54 4846.66 1095.54 4847.66 1095.54 4848.66 1060.53 4849.66 1095.54 4849.66 1095.54 4850.66 823.527 4851.66 849.528 4852.66 1095.54 4853.66 1013.53 4854.66 1028.53 4855.66 1095.54 4855.66 1060.53 4856.66 1094.54 4857.66 1062.54 4858.66 1095.54 4859.66 1095.54 4860.66 1060.53 4860.66 1056.53 4861.66 1095.54 4862.66 1052.53 4863.66 975.532 4864.66 1029.53 4865.66 1095.54 4865.66 890.529 4866.66 874.529 4867.66 1095.54 4868.66 1058.53 4869.66 912.53 4870.66 1095.54 4871.66 1061.54 4871.66 860.528 4872.66 940.531 4873.66 1095.54 4874.66 1093.54 4875.66 1095.54 4876.66 1046.53 4876.66 1094.54 4877.66 1095.54 4878.66 1095.54 4879.66 877.529 4880.66 1081.54 4881.66 944.531 4882.66 1075.54 4882.66 1095.54 4883.66 1045.53 4884.66 1059.53 4885.66 909.53 4886.66 914.53 4887.66 989.533 4887.66 1056.53 4888.66 1095.54 4889.66 1095.54 4890.66 1062.54 4891.66 1061.54 4892.66 1095.54 4893.66 1095.54 4893.66 1094.54 4894.66 1094.54 4895.66 1094.54 4896.66 1003.53 4897.66 1071.54 4898.66 1063.54 4898.66 1082.54 4899.66 873.529 4900.66 1010.53 4901.66 924.531 4902.66 1062.54 4903.66 1053.53 4904.66 899.53 4904.66 929.531 4905.66 1095.54 4906.66 1088.54 4907.66 887.529 4908.66 1094.54 4909.66 1095.54 4909.66 1095.54 4910.66 1095.54 4911.66 1055.53 4912.66 862.528 4913.66 881.529 4914.66 1093.54 4915.66 1060.53 4915.66 1094.54 4916.66 1059.53 4917.66 1094.54 4918.66 972.532 4919.66 812.527 4920.66 958.532 4920.66 1058.53 4921.66 905.53 4922.66 1055.53 4923.66 934.531 4924.66 1060.53 4925.66 834.528 4926.66 1056.53 4926.66 1095.54 4927.66 979.532 4928.66 925.531 4929.66 1094.54 4930.66 1060.53 4931.66 1095.54 4931.66 1062.54 4932.66 916.53 4933.66 870.529 4934.66 1095.54 4935.66 1048.53 4936.66 1095.54 4937.66 1093.54 4937.66 1063.54 4938.66 899.53 4939.66 868.529 4940.66 1071.54 4941.66 1069.54 4942.66 1095.54 4942.66 1095.54 4943.66 1078.54 4944.66 1014.53 4945.66 947.531 4946.66 1061.54 4947.66 1060.53 4947.66 924.531 4948.66 1095.54 4949.66 831.527 4950.66 1091.54 4951.66 1095.54 4952.66 1052.53 4953.66 1095.54 4953.66 830.527 4954.66 903.53 4955.66 1059.53 4956.66 1082.54 4957.66 1055.53 4958.66 1095.54 4958.66 1038.53 4959.66 1061.54 4960.66 885.529 4961.66 984.532 4962.66 1062.54 4963.66 918.53 4964.66 1094.54 4964.66 852.528 4965.66 1095.54 4966.66 997.533 4967.66 1061.54 4968.66 985.532 4969.66 1007.53 4969.66 1059.53 4970.66 898.53 4971.66 1094.54 4972.66 1001.53 4973.66 1059.53 4974.66 1089.54 4975.66 1059.53 4975.66 1094.54 4976.66 899.53 4977.66 1094.54 4978.66 922.53 4979.66 1094.54 4980.66 865.529 4980.66 919.53 4981.66 1094.54 4982.66 1040.53 4983.66 1086.54 4984.66 1095.54 4985.66 1095.54 4986.66 1094.54 4986.66 897.53 4987.66 1094.54 4988.66 1059.53 4989.66 1034.53 4990.66 1095.54 4991.66 1094.54 4991.66 1055.53 4992.66 871.529 4993.66 1048.53 4994.66 868.529 4995.66 1060.53 4996.66 1059.53 4997.66 1092.54 4997.66 887.529 4998.66 1095.54 4999.66 1061.54 5000.66 998.533 5001.66 1103.54 5002.66 1095.54 5002.66 933.531 5003.66 972.532 5004.66 1094.54 5005.66 975.532 5006.66 1094.54 5007.66 1059.53 5008.66 982.532 5008.66 822.527 5009.66 1019.53 5010.66 1077.54 5011.66 1087.54 5012.67 992.533 5013.67 1094.54 5013.67 835.528 5014.67 1092.54 5015.67 1007.53 5016.67 1061.54 5017.67 965.532 5018.67 910.53 5019.67 1046.53 5019.67 922.53 5020.67 965.532 5021.67 938.531 5022.67 994.533 5023.67 914.53 5024.67 965.532 5024.67 1094.54 5025.67 856.528 5026.67 1090.54 5027.67 1087.54 5028.67 940.531 5029.67 1095.54 5029.67 1063.54 5030.67 1062.54 5031.67 824.527 5032.67 1013.53 5033.67 1094.54 5034.67 876.529 5035.67 845.528 5035.67 938.531 5036.67 1061.54 5037.67 1094.54 5038.67 1053.53 5039.67 1062.54 5040.67 1094.54 5040.67 1057.53 5041.67 1095.54 5042.67 1060.53 5043.67 1095.54 5044.67 1065.54 5045.67 1034.53 5046.67 1095.54 5046.67 1060.53 5047.67 1061.54 5048.67 1053.53 5049.67 1061.54 5050.67 1095.54 5051.67 1077.54 5051.67 865.529 5052.67 1095.54 5053.67 1036.53 5054.67 1095.54 5055.67 1060.53 5056.67 1057.53 5057.67 1061.54 5057.67 1095.54 5058.67 1095.54 5059.67 1094.54 5060.5 912.53" stroke="#4472C4" stroke-width="3.4375" stroke-linecap="round" stroke-linejoin="round" stroke-miterlimit="10" fill="none"/></g><g clip-path="url(#clip6)"><text font-family="LM Roman 10,LM Roman 10_MSFontService,sans-serif" font-weight="700" font-size="64" transform="matrix(1 0 0 1 2602.14 1124)">0</text></g><g clip-path="url(#clip7)"><text font-family="LM Roman 10,LM Roman 10_MSFontService,sans-serif" font-weight="700" font-size="64" transform="matrix(1 0 0 1 2528.35 1059)">200</text></g><g clip-path="url(#clip8)"><text font-family="LM Roman 10,LM Roman 10_MSFontService,sans-serif" font-weight="700" font-size="64" transform="matrix(1 0 0 1 2528.35 994)">400</text></g><g clip-path="url(#clip9)"><text font-family="LM Roman 10,LM Roman 10_MSFontService,sans-serif" font-weight="700" font-size="64" transform="matrix(1 0 0 1 2528.35 929)">600</text></g><g clip-path="url(#clip10)"><text font-family="LM Roman 10,LM Roman 10_MSFontService,sans-serif" font-weight="700" font-size="64" transform="matrix(1 0 0 1 2528.35 865)">800</text></g><g clip-path="url(#clip11)"><text font-family="LM Roman 10,LM Roman 10_MSFontService,sans-serif" font-weight="700" font-size="64" transform="matrix(1 0 0 1 2491.45 800)">1000</text></g><g clip-path="url(#clip12)"><text font-family="LM Roman 10,LM Roman 10_MSFontService,sans-serif" font-weight="700" font-size="64" transform="matrix(1 0 0 1 2491.45 735)">1200</text></g><g clip-path="url(#clip13)"><text font-family="LM Roman 10,LM Roman 10_MSFontService,sans-serif" font-weight="700" font-size="64" transform="matrix(1 0 0 1 2491.45 670)">1400</text></g><g clip-path="url(#clip14)"><text font-family="LM Roman 10,LM Roman 10_MSFontService,sans-serif" font-weight="700" font-size="64" transform="matrix(1 0 0 1 2491.45 605)">1600</text></g><g clip-path="url(#clip15)"><text font-family="LM Roman 10,LM Roman 10_MSFontService,sans-serif" font-weight="700" font-size="64" transform="matrix(1 0 0 1 2491.45 540)">1800</text></g><g clip-path="url(#clip16)"><text font-family="LM Roman 10,LM Roman 10_MSFontService,sans-serif" font-weight="700" font-size="64" transform="matrix(1 0 0 1 2491.45 476)">2000</text></g><g clip-path="url(#clip17)"><text font-family="LM Roman 10,LM Roman 10_MSFontService,sans-serif" font-weight="700" font-size="50" transform="matrix(0.707107 -0.707107 0.707107 0.707107 2578.6 1328)">00:00:00</text></g><g clip-path="url(#clip18)"><text font-family="LM Roman 10,LM Roman 10_MSFontService,sans-serif" font-weight="700" font-size="50" transform="matrix(0.707107 -0.707107 0.707107 0.707107 2680.9 1328)">00:00:25</text></g><g clip-path="url(#clip19)"><text font-family="LM Roman 10,LM Roman 10_MSFontService,sans-serif" font-weight="700" font-size="50" transform="matrix(0.707107 -0.707107 0.707107 0.707107 2783.19 1328)">00:00:51</text></g><g clip-path="url(#clip20)"><text font-family="LM Roman 10,LM Roman 10_MSFontService,sans-serif" font-weight="700" font-size="50" transform="matrix(0.707107 -0.707107 0.707107 0.707107 2885.49 1328)">00:01:19</text></g><g clip-path="url(#clip21)"><text font-family="LM Roman 10,LM Roman 10_MSFontService,sans-serif" font-weight="700" font-size="50" transform="matrix(0.707107 -0.707107 0.707107 0.707107 2987.79 1328)">00:01:46</text></g><g clip-path="url(#clip22)"><text font-family="LM Roman 10,LM Roman 10_MSFontService,sans-serif" font-weight="700" font-size="50" transform="matrix(0.707107 -0.707107 0.707107 0.707107 3090.08 1328)">00:02:11</text></g><g clip-path="url(#clip23)"><text font-family="LM Roman 10,LM Roman 10_MSFontService,sans-serif" font-weight="700" font-size="50" transform="matrix(0.707107 -0.707107 0.707107 0.707107 3192.38 1328)">00:02:33</text></g><g clip-path="url(#clip24)"><text font-family="LM Roman 10,LM Roman 10_MSFontService,sans-serif" font-weight="700" font-size="50" transform="matrix(0.707107 -0.707107 0.707107 0.707107 3294.67 1328)">00:03:00</text></g><g clip-path="url(#clip25)"><text font-family="LM Roman 10,LM Roman 10_MSFontService,sans-serif" font-weight="700" font-size="50" transform="matrix(0.707107 -0.707107 0.707107 0.707107 3396.97 1328)">00:03:25</text></g><g clip-path="url(#clip26)"><text font-family="LM Roman 10,LM Roman 10_MSFontService,sans-serif" font-weight="700" font-size="50" transform="matrix(0.707107 -0.707107 0.707107 0.707107 3499.26 1328)">00:03:49</text></g><g clip-path="url(#clip27)"><text font-family="LM Roman 10,LM Roman 10_MSFontService,sans-serif" font-weight="700" font-size="50" transform="matrix(0.707107 -0.707107 0.707107 0.707107 3601.56 1328)">00:04:14</text></g><g clip-path="url(#clip28)"><text font-family="LM Roman 10,LM Roman 10_MSFontService,sans-serif" font-weight="700" font-size="50" transform="matrix(0.707107 -0.707107 0.707107 0.707107 3703.85 1328)">00:04:37</text></g><g clip-path="url(#clip29)"><text font-family="LM Roman 10,LM Roman 10_MSFontService,sans-serif" font-weight="700" font-size="50" transform="matrix(0.707107 -0.707107 0.707107 0.707107 3806.15 1328)">00:05:06</text></g><g clip-path="url(#clip30)"><text font-family="LM Roman 10,LM Roman 10_MSFontService,sans-serif" font-weight="700" font-size="50" transform="matrix(0.707107 -0.707107 0.707107 0.707107 3908.44 1328)">00:05:33</text></g><g clip-path="url(#clip31)"><text font-family="LM Roman 10,LM Roman 10_MSFontService,sans-serif" font-weight="700" font-size="50" transform="matrix(0.707107 -0.707107 0.707107 0.707107 4010.74 1328)">00:06:04</text></g><g clip-path="url(#clip32)"><text font-family="LM Roman 10,LM Roman 10_MSFontService,sans-serif" font-weight="700" font-size="50" transform="matrix(0.707107 -0.707107 0.707107 0.707107 4113.03 1328)">00:06:28</text></g><g clip-path="url(#clip33)"><text font-family="LM Roman 10,LM Roman 10_MSFontService,sans-serif" font-weight="700" font-size="50" transform="matrix(0.707107 -0.707107 0.707107 0.707107 4215.33 1328)">00:06:56</text></g><g clip-path="url(#clip34)"><text font-family="LM Roman 10,LM Roman 10_MSFontService,sans-serif" font-weight="700" font-size="50" transform="matrix(0.707107 -0.707107 0.707107 0.707107 4317.62 1328)">00:07:20</text></g><g clip-path="url(#clip35)"><text font-family="LM Roman 10,LM Roman 10_MSFontService,sans-serif" font-weight="700" font-size="50" transform="matrix(0.707107 -0.707107 0.707107 0.707107 4419.92 1328)">00:07:45</text></g><g clip-path="url(#clip36)"><text font-family="LM Roman 10,LM Roman 10_MSFontService,sans-serif" font-weight="700" font-size="50" transform="matrix(0.707107 -0.707107 0.707107 0.707107 4522.21 1328)">00:08:14</text></g><g clip-path="url(#clip37)"><text font-family="LM Roman 10,LM Roman 10_MSFontService,sans-serif" font-weight="700" font-size="50" transform="matrix(0.707107 -0.707107 0.707107 0.707107 4624.51 1328)">00:08:39</text></g><g clip-path="url(#clip38)"><text font-family="LM Roman 10,LM Roman 10_MSFontService,sans-serif" font-weight="700" font-size="50" transform="matrix(0.707107 -0.707107 0.707107 0.707107 4726.8 1328)">00:09:02</text></g><g clip-path="url(#clip39)"><text font-family="LM Roman 10,LM Roman 10_MSFontService,sans-serif" font-weight="700" font-size="50" transform="matrix(0.707107 -0.707107 0.707107 0.707107 4829.1 1328)">00:09:27</text></g><g clip-path="url(#clip40)"><text font-family="LM Roman 10,LM Roman 10_MSFontService,sans-serif" font-weight="400" font-size="64" transform="matrix(6.12323e-17 -1 1 6.12323e-17 2408.36 1162)">Czas przetwarzania (ms)</text></g><g clip-path="url(#clip41)"><text font-family="LM Roman 10,LM Roman 10_MSFontService,sans-serif" font-weight="400" font-size="64" transform="matrix(1 0 0 1 3552.82 1470)">Czas trwania ewaluacji</text></g><g clip-path="url(#clip42)"><text font-family="LM Roman 10,LM Roman 10_MSFontService,sans-serif" font-weight="400" font-size="73" transform="matrix(1 0 0 1 2904.01 255)">Interfejs API: NodeJS / Metoda HTTP: DELETE / </text></g><g clip-path="url(#clip43)"><text font-family="LM Roman 10,LM Roman 10_MSFontService,sans-serif" font-weight="400" font-size="73" transform="matrix(1 0 0 1 3446.44 359)">Platforma: Heroku</text></g><g clip-path="url(#clip44)"><rect x="2734.5" y="466.5" width="413" height="122" stroke="#D9D9D9" stroke-width="3.4375" stroke-linejoin="round" stroke-miterlimit="10" fill="#FFFFFF"/></g><g clip-path="url(#clip45)"><path d="M2786.5 527.5 2874.5 527.501" stroke="#4472C4" stroke-width="3.4375" stroke-linecap="round" stroke-linejoin="round" stroke-miterlimit="10" fill="none" fill-rule="evenodd"/></g><g clip-path="url(#clip46)"><text font-family="LM Roman 10,LM Roman 10_MSFontService,sans-serif" font-weight="400" font-size="55" transform="matrix(1 0 0 1 2883.37 545)">DELETE</text></g></g></svg>