<svg width="3407" height="1702" xmlns="http://www.w3.org/2000/svg" xmlns:xlink="http://www.w3.org/1999/xlink" xml:space="preserve" overflow="hidden"><defs><clipPath id="clip0"><rect x="2499" y="409" width="3407" height="1702"/></clipPath><clipPath id="clip1"><rect x="2499" y="409" width="3406" height="1702"/></clipPath><clipPath id="clip2"><rect x="2499" y="409" width="3406" height="1702"/></clipPath><clipPath id="clip3"><rect x="2941" y="630" width="2732" height="1078"/></clipPath><clipPath id="clip4"><rect x="2941" y="630" width="2732" height="1078"/></clipPath><clipPath id="clip5"><rect x="2499" y="409" width="3406" height="1702"/></clipPath><clipPath id="clip6"><rect x="2499" y="409" width="3406" height="1702"/></clipPath><clipPath id="clip7"><rect x="2499" y="409" width="3406" height="1702"/></clipPath><clipPath id="clip8"><rect x="2499" y="409" width="3406" height="1702"/></clipPath><clipPath id="clip9"><rect x="2941" y="630" width="2732" height="1078"/></clipPath><clipPath id="clip10"><rect x="2941" y="630" width="2732" height="1078"/></clipPath><clipPath id="clip11"><rect x="2499" y="409" width="3406" height="1702"/></clipPath><clipPath id="clip12"><rect x="2499" y="409" width="3406" height="1702"/></clipPath><clipPath id="clip13"><rect x="2499" y="409" width="3406" height="1702"/></clipPath><clipPath id="clip14"><rect x="2499" y="409" width="3406" height="1702"/></clipPath><clipPath id="clip15"><rect x="2499" y="409" width="3406" height="1702"/></clipPath><clipPath id="clip16"><rect x="2499" y="409" width="3406" height="1702"/></clipPath><clipPath id="clip17"><rect x="2499" y="409" width="3406" height="1702"/></clipPath><clipPath id="clip18"><rect x="2499" y="409" width="3406" height="1702"/></clipPath><clipPath id="clip19"><rect x="2499" y="409" width="3406" height="1702"/></clipPath><clipPath id="clip20"><rect x="2499" y="409" width="3406" height="1702"/></clipPath><clipPath id="clip21"><rect x="2499" y="409" width="3406" height="1702"/></clipPath><clipPath id="clip22"><rect x="2499" y="409" width="3406" height="1702"/></clipPath><clipPath id="clip23"><rect x="2499" y="409" width="3406" height="1702"/></clipPath><clipPath id="clip24"><rect x="2499" y="409" width="3406" height="1702"/></clipPath><clipPath id="clip25"><rect x="2499" y="409" width="3406" height="1702"/></clipPath><clipPath id="clip26"><rect x="2499" y="409" width="3406" height="1702"/></clipPath><clipPath id="clip27"><rect x="2499" y="409" width="3406" height="1702"/></clipPath><clipPath id="clip28"><rect x="2499" y="409" width="3406" height="1702"/></clipPath><clipPath id="clip29"><rect x="2499" y="409" width="3406" height="1702"/></clipPath><clipPath id="clip30"><rect x="2499" y="409" width="3406" height="1702"/></clipPath><clipPath id="clip31"><rect x="2499" y="409" width="3406" height="1702"/></clipPath><clipPath id="clip32"><rect x="2499" y="409" width="3406" height="1702"/></clipPath><clipPath id="clip33"><rect x="2499" y="409" width="3406" height="1702"/></clipPath><clipPath id="clip34"><rect x="2499" y="409" width="3406" height="1702"/></clipPath><clipPath id="clip35"><rect x="2499" y="409" width="3406" height="1702"/></clipPath><clipPath id="clip36"><rect x="2499" y="409" width="3406" height="1702"/></clipPath><clipPath id="clip37"><rect x="2499" y="409" width="3406" height="1702"/></clipPath><clipPath id="clip38"><rect x="2499" y="409" width="3406" height="1702"/></clipPath><clipPath id="clip39"><rect x="2499" y="409" width="3406" height="1702"/></clipPath><clipPath id="clip40"><rect x="2499" y="409" width="3406" height="1702"/></clipPath><clipPath id="clip41"><rect x="2499" y="409" width="3406" height="1702"/></clipPath><clipPath id="clip42"><rect x="2499" y="409" width="3406" height="1702"/></clipPath><clipPath id="clip43"><rect x="2499" y="409" width="3406" height="1702"/></clipPath><clipPath id="clip44"><rect x="2499" y="409" width="3406" height="1702"/></clipPath><clipPath id="clip45"><rect x="2499" y="409" width="3406" height="1702"/></clipPath><clipPath id="clip46"><rect x="2499" y="409" width="3406" height="1702"/></clipPath><clipPath id="clip47"><rect x="2499" y="409" width="3406" height="1702"/></clipPath><clipPath id="clip48"><rect x="2499" y="409" width="3406" height="1702"/></clipPath><clipPath id="clip49"><rect x="2499" y="409" width="3406" height="1702"/></clipPath><clipPath id="clip50"><rect x="2499" y="409" width="3406" height="1702"/></clipPath><clipPath id="clip51"><rect x="2499" y="409" width="3406" height="1702"/></clipPath><clipPath id="clip52"><rect x="2499" y="409" width="3406" height="1702"/></clipPath><clipPath id="clip53"><rect x="2499" y="409" width="3406" height="1702"/></clipPath><clipPath id="clip54"><rect x="2499" y="409" width="3406" height="1702"/></clipPath><clipPath id="clip55"><rect x="2499" y="409" width="3406" height="1702"/></clipPath><clipPath id="clip56"><rect x="2499" y="409" width="3406" height="1702"/></clipPath><clipPath id="clip57"><rect x="2499" y="409" width="3406" height="1702"/></clipPath><clipPath id="clip58"><rect x="2499" y="409" width="3406" height="1702"/></clipPath><clipPath id="clip59"><rect x="2499" y="409" width="3406" height="1702"/></clipPath><clipPath id="clip60"><rect x="2499" y="409" width="3406" height="1702"/></clipPath><clipPath id="clip61"><rect x="2499" y="409" width="3406" height="1702"/></clipPath></defs><g clip-path="url(#clip0)" transform="translate(-2499 -409)"><rect x="2499" y="409" width="3407" height="1702" fill="#FFFFFF"/><g clip-path="url(#clip1)"><path d="M2941.5 1551.55 5670.5 1551.55M2941.5 1398.55 5670.5 1398.55M2941.5 1244.54 5670.5 1244.54M2941.5 1091.54 5670.5 1091.54M2941.5 937.531 5670.5 937.531M2941.5 783.526 5670.5 783.526M2941.5 630.5 5670.5 630.5" stroke="#D9D9D9" stroke-width="3.4375" stroke-linejoin="round" stroke-miterlimit="10" fill="none"/></g><g clip-path="url(#clip2)"><path d="M2986.6 630.5 2986.6 1705.5M3032.6 630.5 3032.6 1705.5M3077.6 630.5 3077.6 1705.5M3123.6 630.5 3123.6 1705.5M3168.6 630.5 3168.6 1705.5M3214.61 630.5 3214.61 1705.5M3259.61 630.5 3259.61 1705.5M3305.61 630.5 3305.61 1705.5M3350.61 630.5 3350.61 1705.5M3396.61 630.5 3396.61 1705.5M3441.61 630.5 3441.61 1705.5M3487.61 630.5 3487.61 1705.5M3532.62 630.5 3532.62 1705.5M3578.62 630.5 3578.62 1705.5M3623.62 630.5 3623.62 1705.5M3669.62 630.5 3669.62 1705.5M3714.62 630.5 3714.62 1705.5M3760.62 630.5 3760.62 1705.5M3805.62 630.5 3805.62 1705.5M3851.63 630.5 3851.63 1705.5M3896.63 630.5 3896.63 1705.5M3942.63 630.5 3942.63 1705.5M3987.63 630.5 3987.63 1705.5M4032.63 630.5 4032.63 1705.5M4078.63 630.5 4078.63 1705.5M4123.64 630.5 4123.64 1705.5M4169.64 630.5 4169.64 1705.5M4214.64 630.5 4214.64 1705.5M4260.64 630.5 4260.64 1705.5M4305.64 630.5 4305.64 1705.5M4351.64 630.5 4351.64 1705.5M4396.64 630.5 4396.64 1705.5M4442.65 630.5 4442.65 1705.5M4487.65 630.5 4487.65 1705.5M4533.65 630.5 4533.65 1705.5M4578.65 630.5 4578.65 1705.5M4624.65 630.5 4624.65 1705.5M4669.65 630.5 4669.65 1705.5M4715.65 630.5 4715.65 1705.5M4760.66 630.5 4760.66 1705.5M4806.66 630.5 4806.66 1705.5M4851.66 630.5 4851.66 1705.5M4897.66 630.5 4897.66 1705.5M4942.66 630.5 4942.66 1705.5M4988.66 630.5 4988.66 1705.5M5033.67 630.5 5033.67 1705.5M5079.67 630.5 5079.67 1705.5M5124.67 630.5 5124.67 1705.5M5170.67 630.5 5170.67 1705.5M5215.67 630.5 5215.67 1705.5M5260.67 630.5 5260.67 1705.5M5306.67 630.5 5306.67 1705.5M5351.68 630.5 5351.68 1705.5M5397.68 630.5 5397.68 1705.5M5442.68 630.5 5442.68 1705.5M5488.68 630.5 5488.68 1705.5M5533.68 630.5 5533.68 1705.5M5579.68 630.5 5579.68 1705.5M5624.68 630.5 5624.68 1705.5M5670.5 630.5 5670.5 1705.5" stroke="#D9D9D9" stroke-width="3.4375" stroke-linejoin="round" stroke-miterlimit="10" fill="none"/></g><g clip-path="url(#clip3)"><path d="M4092.13 1690.06 4110.13 1690.06 4110.13 1705 4092.13 1705ZM4138.14 1659.05 4156.14 1659.05 4156.14 1705 4138.14 1705ZM4183.14 1659.05 4201.14 1659.05 4201.14 1705 4183.14 1705ZM4229.14 1629.05 4247.14 1629.05 4247.14 1705 4229.14 1705ZM4274.14 1613.05 4292.14 1613.05 4292.14 1705 4274.14 1705ZM4320.14 1598.05 4338.14 1598.05 4338.14 1705 4320.14 1705ZM4365.14 1567.05 4383.14 1567.05 4383.14 1705 4365.14 1705ZM4410.14 1567.05 4429.15 1567.05 4429.15 1705 4410.14 1705ZM4456.15 1552.05 4474.15 1552.05 4474.15 1705 4456.15 1705ZM4501.15 1506.05 4520.15 1506.05 4520.15 1705 4501.15 1705ZM4547.15 1506.05 4565.15 1506.05 4565.15 1705 4547.15 1705ZM4592.15 1490.05 4611.15 1490.05 4611.15 1705 4592.15 1705ZM4638.15 1490.05 4656.15 1490.05 4656.15 1705 4638.15 1705ZM4683.15 1383.05 4702.15 1383.05 4702.15 1705 4683.15 1705ZM4729.16 1383.05 4747.16 1383.05 4747.16 1705 4729.16 1705ZM4774.16 1383.05 4793.16 1383.05 4793.16 1705 4774.16 1705ZM4820.16 1368.04 4838.16 1368.04 4838.16 1705 4820.16 1705ZM4865.16 1475.05 4883.16 1475.05 4883.16 1705 4865.16 1705ZM4911.16 1352.04 4929.16 1352.04 4929.16 1705 4911.16 1705ZM4956.16 1352.04 4974.16 1352.04 4974.16 1705 4956.16 1705ZM5002.16 1321.04 5020.17 1321.04 5020.17 1705 5002.16 1705ZM5047.17 1306.04 5065.17 1306.04 5065.17 1705 5047.17 1705ZM5093.17 1291.04 5111.17 1291.04 5111.17 1705 5093.17 1705ZM5138.17 1368.04 5156.17 1368.04 5156.17 1705 5138.17 1705ZM5184.17 1275.04 5202.17 1275.04 5202.17 1705 5184.17 1705ZM5229.17 1260.04 5247.17 1260.04 5247.17 1705 5229.17 1705ZM5275.17 1321.04 5293.17 1321.04 5293.17 1705 5275.17 1705ZM5320.17 1229.04 5338.18 1229.04 5338.18 1705 5320.17 1705ZM5366.18 1214.04 5384.18 1214.04 5384.18 1705 5366.18 1705ZM5411.18 1183.04 5429.18 1183.04 5429.18 1705 5411.18 1705ZM5457.18 1245.04 5475.18 1245.04 5475.18 1705 5457.18 1705ZM5502.18 1168.04 5520.18 1168.04 5520.18 1705 5502.18 1705ZM5548.18 1168.04 5566.18 1168.04 5566.18 1705 5548.18 1705ZM5593.18 1199.04 5611.18 1199.04 5611.18 1705 5593.18 1705ZM5638.19 1137.04 5657.19 1137.04 5657.19 1705 5638.19 1705Z" fill="#BFBFBF"/></g><g clip-path="url(#clip4)"><path d="M3364.11 1690.06 3383.11 1690.06 3383.11 1705 3364.11 1705ZM3410.11 1690.06 3428.11 1690.06 3428.11 1705 3410.11 1705ZM3455.11 1690.06 3474.11 1690.06 3474.11 1705 3455.11 1705ZM3501.11 1675.05 3519.12 1675.05 3519.12 1705 3501.11 1705ZM3546.12 1675.05 3565.12 1675.05 3565.12 1705 3546.12 1705ZM3592.12 1659.05 3610.12 1659.05 3610.12 1705 3592.12 1705ZM3637.12 1675.05 3655.12 1675.05 3655.12 1705 3637.12 1705ZM3683.12 1675.05 3701.12 1675.05 3701.12 1705 3683.12 1705ZM3728.12 1659.05 3746.12 1659.05 3746.12 1705 3728.12 1705ZM3774.12 1629.05 3792.12 1629.05 3792.12 1705 3774.12 1705ZM3819.13 1629.05 3837.13 1629.05 3837.13 1705 3819.13 1705ZM3865.13 1644.05 3883.13 1644.05 3883.13 1705 3865.13 1705ZM3910.13 1598.05 3928.13 1598.05 3928.13 1705 3910.13 1705ZM3956.13 1613.05 3974.13 1613.05 3974.13 1705 3956.13 1705ZM4001.13 1583.05 4019.13 1583.05 4019.13 1705 4001.13 1705ZM4047.13 1567.05 4065.13 1567.05 4065.13 1705 4047.13 1705ZM4092.13 1536.05 4110.13 1536.05 4110.13 1690.06 4092.13 1690.06ZM4138.14 1475.05 4156.14 1475.05 4156.14 1659.05 4138.14 1659.05ZM4183.14 1521.05 4201.14 1521.05 4201.14 1659.05 4183.14 1659.05ZM4229.14 1506.05 4247.14 1506.05 4247.14 1629.05 4229.14 1629.05ZM4274.14 1475.05 4292.14 1475.05 4292.14 1613.05 4274.14 1613.05ZM4320.14 1444.05 4338.14 1444.05 4338.14 1598.05 4320.14 1598.05ZM4365.14 1414.05 4383.14 1414.05 4383.14 1567.05 4365.14 1567.05ZM4410.14 1460.05 4429.15 1460.05 4429.15 1567.05 4410.14 1567.05ZM4456.15 1429.05 4474.15 1429.05 4474.15 1552.05 4456.15 1552.05ZM4501.15 1398.05 4520.15 1398.05 4520.15 1506.05 4501.15 1506.05ZM4547.15 1368.04 4565.15 1368.04 4565.15 1506.05 4547.15 1506.05ZM4592.15 1352.04 4611.15 1352.04 4611.15 1490.05 4592.15 1490.05ZM4638.15 1337.04 4656.15 1337.04 4656.15 1490.05 4638.15 1490.05ZM4683.15 1321.04 4702.15 1321.04 4702.15 1383.05 4683.15 1383.05ZM4729.16 1291.04 4747.16 1291.04 4747.16 1383.05 4729.16 1383.05ZM4774.16 1260.04 4793.16 1260.04 4793.16 1383.05 4774.16 1383.05ZM4820.16 1214.04 4838.16 1214.04 4838.16 1368.04 4820.16 1368.04ZM4865.16 1275.04 4883.16 1275.04 4883.16 1475.05 4865.16 1475.05ZM4911.16 1306.04 4929.16 1306.04 4929.16 1352.04 4911.16 1352.04ZM4956.16 1199.04 4974.16 1199.04 4974.16 1352.04 4956.16 1352.04ZM5002.16 1152.04 5020.17 1152.04 5020.17 1321.04 5002.16 1321.04ZM5047.17 1122.04 5065.17 1122.04 5065.17 1306.04 5047.17 1306.04ZM5093.17 1060.03 5111.17 1060.03 5111.17 1291.04 5093.17 1291.04ZM5138.17 984.032 5156.17 984.032 5156.17 1368.04 5138.17 1368.04ZM5184.17 953.031 5202.17 953.031 5202.17 1275.04 5184.17 1275.04ZM5229.17 937.031 5247.17 937.031 5247.17 1260.04 5229.17 1260.04ZM5275.17 907.03 5293.17 907.03 5293.17 1321.04 5275.17 1321.04ZM5320.17 891.029 5338.18 891.029 5338.18 1229.04 5320.17 1229.04ZM5366.18 876.029 5384.18 876.029 5384.18 1214.04 5366.18 1214.04ZM5411.18 861.028 5429.18 861.028 5429.18 1183.04 5411.18 1183.04ZM5457.18 845.028 5475.18 845.028 5475.18 1245.04 5457.18 1245.04ZM5502.18 830.027 5520.18 830.027 5520.18 1168.04 5502.18 1168.04ZM5548.18 784.026 5566.18 784.026 5566.18 1168.04 5548.18 1168.04ZM5593.18 769.025 5611.18 769.025 5611.18 1199.04 5593.18 1199.04ZM5638.19 753.025 5657.19 753.025 5657.19 1137.04 5638.19 1137.04Z" fill="#D9D9D9"/></g><g clip-path="url(#clip5)"><path d="M0 0 0.000360892 1075" stroke="#BFBFBF" stroke-width="3.4375" stroke-linejoin="round" stroke-miterlimit="10" fill="none" fill-rule="evenodd" transform="matrix(1 0 0 -1 5670.5 1705.5)"/></g><g clip-path="url(#clip6)"><path d="M5670.5 1705.5 5694.5 1705.5M5670.5 1551.55 5694.5 1551.55M5670.5 1398.55 5694.5 1398.55M5670.5 1244.54 5694.5 1244.54M5670.5 1091.54 5694.5 1091.54M5670.5 937.531 5694.5 937.531M5670.5 783.526 5694.5 783.526M5670.5 630.5 5694.5 630.5" stroke="#BFBFBF" stroke-width="3.4375" stroke-linejoin="round" stroke-miterlimit="10" fill="none"/></g><g clip-path="url(#clip7)"><path d="M0 0 0.000360892 1075" stroke="#BFBFBF" stroke-width="3.4375" stroke-linejoin="round" stroke-miterlimit="10" fill="none" fill-rule="evenodd" transform="matrix(1 0 0 -1 2941.5 1705.5)"/></g><g clip-path="url(#clip8)"><path d="M2941.5 1705.5 5670.5 1705.5" stroke="#BFBFBF" stroke-width="3.4375" stroke-linejoin="round" stroke-miterlimit="10" fill="none" fill-rule="evenodd"/></g><g clip-path="url(#clip9)"><path d="M2964.5 1693.5 3009.6 1680.56 3055.6 1669.55 3100.6 1666.55 3146.6 1656.55 3191.6 1649.55 3237.61 1643.55 3282.61 1643.55 3328.61 1633.55 3373.61 1620.55 3418.61 1604.55 3464.61 1603.55 3509.62 1594.55 3555.62 1591.55 3600.62 1591.55 3646.62 1584.55 3691.62 1581.55 3737.62 1575.55 3782.62 1572.55 3828.63 1570.55 3873.63 1568.55 3919.63 1564.55 3964.63 1557.55 4010.63 1555.55 4055.63 1554.55 4101.63 1552.55 4146.64 1552.55 4192.64 1547.55 4237.64 1545.55 4283.64 1543.55 4328.64 1532.55 4374.64 1531.55 4419.65 1530.55 4465.65 1530.55 4510.65 1528.55 4556.65 1524.55 4601.65 1516.55 4646.65 1510.55 4692.65 1508.55 4737.66 1500.55 4783.66 1500.55 4828.66 1497.55 4874.66 1487.55 4919.66 1479.55 4965.66 1474.55 5010.66 1471.55 5056.67 1470.55 5101.67 1461.55 5147.67 1458.55 5192.67 1408.55 5238.67 1354.54 5283.67 1303.54 5329.67 1187.54 5374.68 1131.54 5420.68 1016.53 5465.68 996.533 5511.68 870.529 5556.68 835.528 5602.68 723.524 5647.5 692.5" stroke="#4472C4" stroke-width="6.875" stroke-linecap="round" stroke-linejoin="round" stroke-miterlimit="10" fill="none"/></g><g clip-path="url(#clip10)"><path d="M2964.5 1694.5 3009.6 1689.56 3055.6 1689.56 3100.6 1676.56 3146.6 1675.56 3191.6 1674.56 3237.61 1667.55 3282.61 1667.55 3328.61 1663.55 3373.61 1669.55 3418.61 1657.55 3464.61 1654.55 3509.62 1648.55 3555.62 1646.55 3600.62 1645.55 3646.62 1643.55 3691.62 1639.55 3737.62 1631.55 3782.62 1630.55 3828.63 1613.55 3873.63 1619.55 3919.63 1614.55 3964.63 1611.55 4010.63 1604.55 4055.63 1594.55 4101.63 1589.55 4146.64 1572.55 4192.64 1569.55 4237.64 1562.55 4283.64 1550.55 4328.64 1547.55 4374.64 1540.55 4419.65 1530.55 4465.65 1529.55 4510.65 1523.55 4556.65 1522.55 4601.65 1516.55 4646.65 1515.55 4692.65 1514.55 4737.66 1510.55 4783.66 1482.55 4828.66 1481.55 4874.66 1476.55 4919.66 1456.55 4965.66 1452.55 5010.66 1442.55 5056.67 1438.55 5101.67 1434.55 5147.67 1394.55 5192.67 1381.55 5238.67 1356.54 5283.67 1348.54 5329.67 1337.54 5374.68 1319.54 5420.68 1310.54 5465.68 1298.54 5511.68 1288.54 5556.68 1259.54 5602.68 1235.54 5647.5 1229.5" stroke="#ED7D31" stroke-width="6.875" stroke-linecap="round" stroke-linejoin="round" stroke-miterlimit="10" fill="none"/></g><g clip-path="url(#clip11)"><text font-family="LM Roman 10,LM Roman 10_MSFontService,sans-serif" font-weight="700" font-size="64" transform="matrix(1 0 0 1 5740.55 1726)">0%</text></g><g clip-path="url(#clip12)"><text font-family="LM Roman 10,LM Roman 10_MSFontService,sans-serif" font-weight="700" font-size="64" transform="matrix(1 0 0 1 5740.55 1572)">10%</text></g><g clip-path="url(#clip13)"><text font-family="LM Roman 10,LM Roman 10_MSFontService,sans-serif" font-weight="700" font-size="64" transform="matrix(1 0 0 1 5740.55 1419)">20%</text></g><g clip-path="url(#clip14)"><text font-family="LM Roman 10,LM Roman 10_MSFontService,sans-serif" font-weight="700" font-size="64" transform="matrix(1 0 0 1 5740.55 1265)">30%</text></g><g clip-path="url(#clip15)"><text font-family="LM Roman 10,LM Roman 10_MSFontService,sans-serif" font-weight="700" font-size="64" transform="matrix(1 0 0 1 5740.55 1111)">40%</text></g><g clip-path="url(#clip16)"><text font-family="LM Roman 10,LM Roman 10_MSFontService,sans-serif" font-weight="700" font-size="64" transform="matrix(1 0 0 1 5740.55 958)">50%</text></g><g clip-path="url(#clip17)"><text font-family="LM Roman 10,LM Roman 10_MSFontService,sans-serif" font-weight="700" font-size="64" transform="matrix(1 0 0 1 5740.55 804)">60%</text></g><g clip-path="url(#clip18)"><text font-family="LM Roman 10,LM Roman 10_MSFontService,sans-serif" font-weight="700" font-size="64" transform="matrix(1 0 0 1 5740.55 651)">70%</text></g><g clip-path="url(#clip19)"><text font-family="LM Roman 10,LM Roman 10_MSFontService,sans-serif" font-weight="700" font-size="64" transform="matrix(1 0 0 1 2834.58 1726)">0</text></g><g clip-path="url(#clip20)"><text font-family="LM Roman 10,LM Roman 10_MSFontService,sans-serif" font-weight="700" font-size="64" transform="matrix(1 0 0 1 2723.9 1572)">2000</text></g><g clip-path="url(#clip21)"><text font-family="LM Roman 10,LM Roman 10_MSFontService,sans-serif" font-weight="700" font-size="64" transform="matrix(1 0 0 1 2723.9 1419)">4000</text></g><g clip-path="url(#clip22)"><text font-family="LM Roman 10,LM Roman 10_MSFontService,sans-serif" font-weight="700" font-size="64" transform="matrix(1 0 0 1 2723.9 1265)">6000</text></g><g clip-path="url(#clip23)"><text font-family="LM Roman 10,LM Roman 10_MSFontService,sans-serif" font-weight="700" font-size="64" transform="matrix(1 0 0 1 2723.9 1111)">8000</text></g><g clip-path="url(#clip24)"><text font-family="LM Roman 10,LM Roman 10_MSFontService,sans-serif" font-weight="700" font-size="64" transform="matrix(1 0 0 1 2687 958)">10000</text></g><g clip-path="url(#clip25)"><text font-family="LM Roman 10,LM Roman 10_MSFontService,sans-serif" font-weight="700" font-size="64" transform="matrix(1 0 0 1 2687 804)">12000</text></g><g clip-path="url(#clip26)"><text font-family="LM Roman 10,LM Roman 10_MSFontService,sans-serif" font-weight="700" font-size="64" transform="matrix(1 0 0 1 2687 651)">14000</text></g><g clip-path="url(#clip27)"><text font-family="LM Roman 10,LM Roman 10_MSFontService,sans-serif" font-weight="700" font-size="64" transform="matrix(0.707107 -0.707107 0.707107 0.707107 2931.31 1858)">10</text></g><g clip-path="url(#clip28)"><text font-family="LM Roman 10,LM Roman 10_MSFontService,sans-serif" font-weight="700" font-size="64" transform="matrix(0.707107 -0.707107 0.707107 0.707107 3041.67 1884)">255</text></g><g clip-path="url(#clip29)"><text font-family="LM Roman 10,LM Roman 10_MSFontService,sans-serif" font-weight="700" font-size="64" transform="matrix(0.707107 -0.707107 0.707107 0.707107 3178.12 1884)">510</text></g><g clip-path="url(#clip30)"><text font-family="LM Roman 10,LM Roman 10_MSFontService,sans-serif" font-weight="700" font-size="64" transform="matrix(0.707107 -0.707107 0.707107 0.707107 3314.57 1884)">765</text></g><g clip-path="url(#clip31)"><text font-family="LM Roman 10,LM Roman 10_MSFontService,sans-serif" font-weight="700" font-size="64" transform="matrix(0.707107 -0.707107 0.707107 0.707107 3424.93 1910)">1020</text></g><g clip-path="url(#clip32)"><text font-family="LM Roman 10,LM Roman 10_MSFontService,sans-serif" font-weight="700" font-size="64" transform="matrix(0.707107 -0.707107 0.707107 0.707107 3561.38 1910)">1275</text></g><g clip-path="url(#clip33)"><text font-family="LM Roman 10,LM Roman 10_MSFontService,sans-serif" font-weight="700" font-size="64" transform="matrix(0.707107 -0.707107 0.707107 0.707107 3697.83 1910)">1530</text></g><g clip-path="url(#clip34)"><text font-family="LM Roman 10,LM Roman 10_MSFontService,sans-serif" font-weight="700" font-size="64" transform="matrix(0.707107 -0.707107 0.707107 0.707107 3834.28 1910)">1785</text></g><g clip-path="url(#clip35)"><text font-family="LM Roman 10,LM Roman 10_MSFontService,sans-serif" font-weight="700" font-size="64" transform="matrix(0.707107 -0.707107 0.707107 0.707107 3970.73 1910)">2040</text></g><g clip-path="url(#clip36)"><text font-family="LM Roman 10,LM Roman 10_MSFontService,sans-serif" font-weight="700" font-size="64" transform="matrix(0.707107 -0.707107 0.707107 0.707107 4107.18 1910)">2295</text></g><g clip-path="url(#clip37)"><text font-family="LM Roman 10,LM Roman 10_MSFontService,sans-serif" font-weight="700" font-size="64" transform="matrix(0.707107 -0.707107 0.707107 0.707107 4243.63 1910)">2550</text></g><g clip-path="url(#clip38)"><text font-family="LM Roman 10,LM Roman 10_MSFontService,sans-serif" font-weight="700" font-size="64" transform="matrix(0.707107 -0.707107 0.707107 0.707107 4380.08 1910)">2805</text></g><g clip-path="url(#clip39)"><text font-family="LM Roman 10,LM Roman 10_MSFontService,sans-serif" font-weight="700" font-size="64" transform="matrix(0.707107 -0.707107 0.707107 0.707107 4516.53 1910)">3060</text></g><g clip-path="url(#clip40)"><text font-family="LM Roman 10,LM Roman 10_MSFontService,sans-serif" font-weight="700" font-size="64" transform="matrix(0.707107 -0.707107 0.707107 0.707107 4652.98 1910)">3315</text></g><g clip-path="url(#clip41)"><text font-family="LM Roman 10,LM Roman 10_MSFontService,sans-serif" font-weight="700" font-size="64" transform="matrix(0.707107 -0.707107 0.707107 0.707107 4789.42 1910)">3570</text></g><g clip-path="url(#clip42)"><text font-family="LM Roman 10,LM Roman 10_MSFontService,sans-serif" font-weight="700" font-size="64" transform="matrix(0.707107 -0.707107 0.707107 0.707107 4925.87 1910)">3825</text></g><g clip-path="url(#clip43)"><text font-family="LM Roman 10,LM Roman 10_MSFontService,sans-serif" font-weight="700" font-size="64" transform="matrix(0.707107 -0.707107 0.707107 0.707107 5062.32 1910)">4080</text></g><g clip-path="url(#clip44)"><text font-family="LM Roman 10,LM Roman 10_MSFontService,sans-serif" font-weight="700" font-size="64" transform="matrix(0.707107 -0.707107 0.707107 0.707107 5198.77 1910)">4335</text></g><g clip-path="url(#clip45)"><text font-family="LM Roman 10,LM Roman 10_MSFontService,sans-serif" font-weight="700" font-size="64" transform="matrix(0.707107 -0.707107 0.707107 0.707107 5335.22 1910)">4590</text></g><g clip-path="url(#clip46)"><text font-family="LM Roman 10,LM Roman 10_MSFontService,sans-serif" font-weight="700" font-size="64" transform="matrix(0.707107 -0.707107 0.707107 0.707107 5471.67 1910)">4845</text></g><g clip-path="url(#clip47)"><text font-family="LM Roman 10,LM Roman 10_MSFontService,sans-serif" font-weight="400" font-size="83" transform="matrix(6.12323e-17 -1 1 6.12323e-17 2603.86 1689)">Średni czas odpowiedzi (ms)</text></g><g clip-path="url(#clip48)"><text font-family="LM Roman 10,LM Roman 10_MSFontService,sans-serif" font-weight="400" font-size="83" transform="matrix(1 0 0 1 3487.7 2068)">Liczba współbieżnie działających wątków</text></g><g clip-path="url(#clip49)"><text font-family="LM Roman 10,LM Roman 10_MSFontService,sans-serif" font-weight="700" font-size="78" transform="matrix(1 0 0 1 3025.94 531)">Interfejs API: </text></g><g clip-path="url(#clip50)"><text font-family="LM Roman 10,LM Roman 10_MSFontService,sans-serif" font-weight="400" font-size="78" transform="matrix(1 0 0 1 3598.62 531)">NodeJS API</text></g><g clip-path="url(#clip51)"><text font-family="LM Roman 10,LM Roman 10_MSFontService,sans-serif" font-weight="700" font-size="78" transform="matrix(1 0 0 1 4025.03 531)">. Punkt końcowy: </text></g><g clip-path="url(#clip52)"><text font-family="LM Roman 10,LM Roman 10_MSFontService,sans-serif" font-weight="400" font-size="78" transform="matrix(1 0 0 1 4740.79 531)">GET /API/BILLS</text></g><g clip-path="url(#clip53)"><rect x="2954.5" y="642.5" width="1110" height="418" stroke="#BFBFBF" stroke-width="3.4375" stroke-linejoin="round" stroke-miterlimit="10" fill="#FFFFFF"/></g><g clip-path="url(#clip54)"><rect x="2976" y="677" width="88" height="35.0001" fill="#D9D9D9"/></g><g clip-path="url(#clip55)"><text font-family="LM Roman 10,LM Roman 10_MSFontService,sans-serif" font-weight="400" font-size="55" transform="matrix(1 0 0 1 3073.07 712)">Procent niepoprawnych odpowiedzi</text></g><g clip-path="url(#clip56)"><rect x="2976" y="782" width="88" height="35.0001" fill="#BFBFBF"/></g><g clip-path="url(#clip57)"><text font-family="LM Roman 10,LM Roman 10_MSFontService,sans-serif" font-weight="400" font-size="50" transform="matrix(1 0 0 1 3073.07 815)">Procent niepoprawnych odpowiedzi - CQRS</text></g><g clip-path="url(#clip58)"><path d="M2975.5 903.5 3063.5 903.5" stroke="#4472C4" stroke-width="6.875" stroke-linecap="round" stroke-linejoin="round" stroke-miterlimit="10" fill="none" fill-rule="evenodd"/></g><g clip-path="url(#clip59)"><text font-family="LM Roman 10,LM Roman 10_MSFontService,sans-serif" font-weight="400" font-size="55" transform="matrix(1 0 0 1 3073.07 921)">SQL Server</text></g><g clip-path="url(#clip60)"><path d="M2975.5 1008.5 3063.5 1008.5" stroke="#ED7D31" stroke-width="6.875" stroke-linecap="round" stroke-linejoin="round" stroke-miterlimit="10" fill="none" fill-rule="evenodd"/></g><g clip-path="url(#clip61)"><text font-family="LM Roman 10,LM Roman 10_MSFontService,sans-serif" font-weight="400" font-size="55" transform="matrix(1 0 0 1 3073.07 1026)">SQL Server - CQRS</text></g></g></svg>