<svg width="2833" height="1363" xmlns="http://www.w3.org/2000/svg" xmlns:xlink="http://www.w3.org/1999/xlink" xml:space="preserve" overflow="hidden"><defs><clipPath id="clip0"><rect x="2308" y="1581" width="2833" height="1363"/></clipPath><clipPath id="clip1"><rect x="2308" y="1581" width="2833" height="1363"/></clipPath><clipPath id="clip2"><rect x="2308" y="1581" width="2833" height="1363"/></clipPath><clipPath id="clip3"><rect x="2308" y="1581" width="2833" height="1363"/></clipPath><clipPath id="clip4"><rect x="2308" y="1581" width="2833" height="1363"/></clipPath><clipPath id="clip5"><rect x="2688" y="1899" width="2355" height="651"/></clipPath><clipPath id="clip6"><rect x="2308" y="1581" width="2833" height="1363"/></clipPath><clipPath id="clip7"><rect x="2308" y="1581" width="2833" height="1363"/></clipPath><clipPath id="clip8"><rect x="2308" y="1581" width="2833" height="1363"/></clipPath><clipPath id="clip9"><rect x="2308" y="1581" width="2833" height="1363"/></clipPath><clipPath id="clip10"><rect x="2308" y="1581" width="2833" height="1363"/></clipPath><clipPath id="clip11"><rect x="2308" y="1581" width="2833" height="1363"/></clipPath><clipPath id="clip12"><rect x="2308" y="1581" width="2833" height="1363"/></clipPath><clipPath id="clip13"><rect x="2308" y="1581" width="2833" height="1363"/></clipPath><clipPath id="clip14"><rect x="2308" y="1581" width="2833" height="1363"/></clipPath><clipPath id="clip15"><rect x="2308" y="1581" width="2833" height="1363"/></clipPath><clipPath id="clip16"><rect x="2308" y="1581" width="2833" height="1363"/></clipPath><clipPath id="clip17"><rect x="2308" y="1581" width="2833" height="1363"/></clipPath><clipPath id="clip18"><rect x="2308" y="1581" width="2833" height="1363"/></clipPath><clipPath id="clip19"><rect x="2308" y="1581" width="2833" height="1363"/></clipPath><clipPath id="clip20"><rect x="2308" y="1581" width="2833" height="1363"/></clipPath><clipPath id="clip21"><rect x="2308" y="1581" width="2833" height="1363"/></clipPath><clipPath id="clip22"><rect x="2308" y="1581" width="2833" height="1363"/></clipPath><clipPath id="clip23"><rect x="2308" y="1581" width="2833" height="1363"/></clipPath><clipPath id="clip24"><rect x="2308" y="1581" width="2833" height="1363"/></clipPath><clipPath id="clip25"><rect x="2308" y="1581" width="2833" height="1363"/></clipPath><clipPath id="clip26"><rect x="2308" y="1581" width="2833" height="1363"/></clipPath><clipPath id="clip27"><rect x="2308" y="1581" width="2833" height="1363"/></clipPath><clipPath id="clip28"><rect x="2308" y="1581" width="2833" height="1363"/></clipPath><clipPath id="clip29"><rect x="2308" y="1581" width="2833" height="1363"/></clipPath><clipPath id="clip30"><rect x="2308" y="1581" width="2833" height="1363"/></clipPath><clipPath id="clip31"><rect x="2308" y="1581" width="2833" height="1363"/></clipPath><clipPath id="clip32"><rect x="2308" y="1581" width="2833" height="1363"/></clipPath><clipPath id="clip33"><rect x="2308" y="1581" width="2833" height="1363"/></clipPath><clipPath id="clip34"><rect x="2308" y="1581" width="2833" height="1363"/></clipPath><clipPath id="clip35"><rect x="2308" y="1581" width="2833" height="1363"/></clipPath><clipPath id="clip36"><rect x="2308" y="1581" width="2833" height="1363"/></clipPath><clipPath id="clip37"><rect x="2308" y="1581" width="2833" height="1363"/></clipPath><clipPath id="clip38"><rect x="2308" y="1581" width="2833" height="1363"/></clipPath><clipPath id="clip39"><rect x="2308" y="1581" width="2833" height="1363"/></clipPath><clipPath id="clip40"><rect x="2308" y="1581" width="2833" height="1363"/></clipPath><clipPath id="clip41"><rect x="2308" y="1581" width="2833" height="1363"/></clipPath><clipPath id="clip42"><rect x="2308" y="1581" width="2833" height="1363"/></clipPath><clipPath id="clip43"><rect x="2308" y="1581" width="2833" height="1363"/></clipPath><clipPath id="clip44"><rect x="2308" y="1581" width="2833" height="1363"/></clipPath><clipPath id="clip45"><rect x="2308" y="1581" width="2833" height="1363"/></clipPath><clipPath id="clip46"><rect x="2308" y="1581" width="2833" height="1363"/></clipPath></defs><g clip-path="url(#clip0)" transform="translate(-2308 -1581)"><rect x="2309" y="1581" width="2832" height="1363" fill="#FFFFFF"/><g clip-path="url(#clip1)"><path d="M2688.5 2534.58 5040.5 2534.58M2688.5 2521.58 5040.5 2521.58M2688.5 2508.58 5040.5 2508.58M2688.5 2495.58 5040.5 2495.58M2688.5 2469.58 5040.5 2469.58M2688.5 2456.58 5040.5 2456.58M2688.5 2443.58 5040.5 2443.58M2688.5 2430.58 5040.5 2430.58M2688.5 2404.58 5040.5 2404.58M2688.5 2391.58 5040.5 2391.58M2688.5 2378.58 5040.5 2378.58M2688.5 2365.58 5040.5 2365.58M2688.5 2339.58 5040.5 2339.58M2688.5 2326.58 5040.5 2326.58M2688.5 2313.58 5040.5 2313.58M2688.5 2300.58 5040.5 2300.58M2688.5 2275.57 5040.5 2275.57M2688.5 2262.57 5040.5 2262.57M2688.5 2249.57 5040.5 2249.57M2688.5 2236.57 5040.5 2236.57M2688.5 2210.57 5040.5 2210.57M2688.5 2197.57 5040.5 2197.57M2688.5 2184.57 5040.5 2184.57M2688.5 2171.57 5040.5 2171.57M2688.5 2145.57 5040.5 2145.57M2688.5 2132.57 5040.5 2132.57M2688.5 2119.57 5040.5 2119.57M2688.5 2106.57 5040.5 2106.57M2688.5 2080.57 5040.5 2080.57M2688.5 2067.57 5040.5 2067.57M2688.5 2054.57 5040.5 2054.57M2688.5 2041.57 5040.5 2041.57M2688.5 2015.57 5040.5 2015.57M2688.5 2002.57 5040.5 2002.57M2688.5 1989.57 5040.5 1989.57M2688.5 1976.57 5040.5 1976.57M2688.5 1950.56 5040.5 1950.56M2688.5 1937.56 5040.5 1937.56M2688.5 1924.56 5040.5 1924.56M2688.5 1911.56 5040.5 1911.56" stroke="#F2F2F2" stroke-width="3.4375" stroke-linejoin="round" stroke-miterlimit="10" fill="none"/></g><g clip-path="url(#clip2)"><path d="M2688.5 2482.58 5040.5 2482.58M2688.5 2417.58 5040.5 2417.58M2688.5 2352.58 5040.5 2352.58M2688.5 2287.58 5040.5 2287.58M2688.5 2223.57 5040.5 2223.57M2688.5 2158.57 5040.5 2158.57M2688.5 2093.57 5040.5 2093.57M2688.5 2028.57 5040.5 2028.57M2688.5 1963.56 5040.5 1963.56M2688.5 1899.5 5040.5 1899.5" stroke="#D9D9D9" stroke-width="3.4375" stroke-linejoin="round" stroke-miterlimit="10" fill="none"/></g><g clip-path="url(#clip3)"><rect x="2688.5" y="1899.5" width="2352" height="648" stroke="#D9D9D9" stroke-width="3.4375" stroke-linejoin="round" stroke-miterlimit="10" fill="none"/></g><g clip-path="url(#clip4)"><path d="M2688.5 2547.5 5040.5 2547.5" stroke="#D9D9D9" stroke-width="3.4375" stroke-linejoin="round" stroke-miterlimit="10" fill="none" fill-rule="evenodd"/></g><g clip-path="url(#clip5)"><path d="M2688.5 2401.58 2689.59 2277.57 2690.59 2491.58 2691.59 2500.58 2692.59 2501.58 2693.59 2524.58 2693.59 2401.58 2694.59 2538.58 2695.59 2538.58 2696.59 2539.58 2697.59 2470.58 2698.59 2539.58 2698.59 2476.58 2699.59 2538.58 2700.59 2337.58 2701.59 2516.58 2702.59 2333.58 2703.59 2539.58 2704.59 2310.58 2704.59 2538.58 2705.59 2538.58 2706.59 2264.57 2707.59 2539.58 2708.59 2504.58 2709.59 2302.58 2709.59 2403.58 2710.59 2538.58 2711.59 2538.58 2712.59 2538.58 2713.59 2422.58 2714.59 2504.58 2714.59 2504.58 2715.59 2491.58 2716.59 2537.58 2717.59 2538.58 2718.59 2504.58 2719.59 2503.58 2720.59 2257.57 2720.59 2538.58 2721.59 2522.58 2722.59 2538.58 2723.59 2477.58 2724.59 2264.57 2725.59 2504.58 2725.59 2510.58 2726.59 2538.58 2727.59 2480.58 2728.59 2389.58 2729.59 2534.58 2730.59 2538.58 2731.59 2269.57 2731.59 2363.58 2732.59 2499.58 2733.59 2538.58 2734.59 2538.58 2735.59 2340.58 2736.59 2515.58 2736.59 2538.58 2737.59 2521.58 2738.59 2308.58 2739.59 2539.58 2740.59 2534.58 2741.59 2501.58 2742.59 2500.58 2742.59 2439.58 2743.59 2412.58 2744.59 2539.58 2745.59 2538.58 2746.59 2539.58 2747.59 2298.58 2747.59 2358.58 2748.59 2539.58 2749.59 2400.58 2750.59 2539.58 2751.59 2276.57 2752.59 2393.58 2753.59 2495.58 2753.59 2488.58 2754.59 2504.58 2755.59 2441.58 2756.59 2534.58 2757.59 2538.58 2758.59 2512.58 2758.59 2513.58 2759.59 2512.58 2760.59 2289.58 2761.59 2262.57 2762.59 2505.58 2763.59 2531.58 2764.59 2539.58 2764.59 2268.57 2765.59 2538.58 2766.59 2539.58 2767.59 2267.57 2768.59 2538.58 2769.59 2274.57 2769.59 2420.58 2770.59 2535.58 2771.59 2527.58 2772.59 2481.58 2773.59 2330.58 2774.59 2350.58 2775.59 2538.58 2775.59 2491.58 2776.59 2355.58 2777.59 2490.58 2778.59 2511.58 2779.59 2538.58 2780.59 2425.58 2780.59 2485.58 2781.59 2539.58 2782.59 2464.58 2783.59 2284.58 2784.59 2382.58 2785.59 2502.58 2786.59 2503.58 2786.59 2504.58 2787.59 2534.58 2788.59 2501.58 2789.59 2471.58 2790.59 2532.58 2791.59 2368.58 2791.59 2261.57 2792.59 2490.58 2793.59 2444.58 2794.59 2405.58 2795.59 2357.58 2796.59 2539.58 2796.59 2517.58 2797.59 2538.58 2798.59 2415.58 2799.59 2413.58 2800.59 2523.58 2801.59 2374.58 2802.59 2483.58 2802.59 2503.58 2803.59 2434.58 2804.59 2538.58 2805.59 2537.58 2806.59 2467.58 2807.59 2539.58 2807.59 2299.58 2808.59 2391.58 2809.59 2429.58 2810.59 2318.58 2811.59 2516.58 2812.59 2534.58 2813.59 2533.58 2813.59 2396.58 2814.59 2376.58 2815.59 2527.58 2816.59 2451.58 2817.59 2341.58 2818.59 2522.58 2818.59 2535.58 2819.59 2412.58 2820.59 2398.58 2821.59 2537.58 2822.59 2502.58 2823.59 2533.58 2824.59 2522.58 2824.59 2533.58 2825.59 2531.58 2826.59 2300.58 2827.59 2299.58 2828.59 2458.58 2829.59 2453.58 2829.59 2505.58 2830.59 2526.58 2831.59 2406.58 2832.59 2395.58 2833.59 2507.58 2834.59 2537.58 2835.59 2535.58 2835.59 2521.58 2836.59 2346.58 2837.59 2520.58 2838.59 2517.58 2839.59 2532.58 2840.59 2524.58 2840.59 2472.58 2841.59 2473.58 2842.59 2510.58 2843.59 2533.58 2844.59 2517.58 2845.59 2516.58 2846.59 2404.58 2846.59 2405.58 2847.59 2469.58 2848.59 2386.58 2849.59 2513.58 2850.59 2460.58 2851.59 2513.58 2851.59 2527.58 2852.59 2348.58 2853.59 2289.58 2854.59 2350.58 2855.59 2526.58 2856.59 2526.58 2857.59 2473.58 2857.59 2342.58 2858.59 2532.58 2859.59 2316.58 2860.59 2458.58 2861.59 2521.58 2862.59 2522.58 2862.59 2306.58 2863.59 2473.58 2864.59 2475.58 2865.59 2489.58 2866.59 2311.58 2867.59 2486.58 2868.59 2374.58 2868.59 2490.58 2869.59 2491.58 2870.59 2487.58 2871.59 2269.57 2872.59 2539.58 2873.59 2536.58 2873.59 2471.58 2874.59 2471.58 2875.59 2532.58 2876.59 2539.58 2877.59 2539.58 2878.59 2530.58 2878.59 2538.58 2879.59 2537.58 2880.59 2272.57 2881.59 2403.58 2882.59 2499.58 2883.59 2528.58 2884.59 2429.58 2884.59 2498.58 2885.59 2525.58 2886.59 2502.58 2887.59 2469.58 2888.59 2506.58 2889.59 2490.58 2889.59 2536.58 2890.59 2502.58 2891.59 2538.58 2892.6 2536.58 2893.6 2533.58 2894.6 2501.58 2895.6 2534.58 2895.6 2536.58 2896.6 2530.58 2897.6 2360.58 2898.6 2524.58 2899.6 2497.58 2900.6 2496.58 2900.6 2531.58 2901.6 2532.58 2902.6 2471.58 2903.6 2523.58 2904.6 2385.58 2905.6 2526.58 2906.6 2523.58 2906.6 2523.58 2907.6 2491.58 2908.6 2451.58 2909.6 2302.58 2910.6 2535.58 2911.6 2444.58 2911.6 2408.58 2912.6 2523.58 2913.6 2520.58 2914.6 2525.58 2915.6 2490.58 2916.6 2524.58 2917.6 2298.58 2917.6 2483.58 2918.6 2536.58 2919.6 2456.58 2920.6 2483.58 2921.6 2531.58 2922.6 2294.58 2922.6 2515.58 2923.6 2510.58 2924.6 2510.58 2925.6 2526.58 2926.6 2412.58 2927.6 2357.58 2928.6 2470.58 2928.6 2467.58 2929.6 2485.58 2930.6 2497.58 2931.6 2371.58 2932.6 2404.58 2933.6 2421.58 2933.6 2343.58 2934.6 2539.58 2935.6 2297.58 2936.6 2512.58 2937.6 2482.58 2938.6 2343.58 2939.6 2360.58 2939.6 2485.58 2940.6 2330.58 2941.6 2288.58 2942.6 2538.58 2943.6 2473.58 2944.6 2509.58 2944.6 2538.58 2945.6 2360.58 2946.6 2504.58 2947.6 2536.58 2948.6 2536.58 2949.6 2535.58 2950.6 2537.58 2950.6 2537.58 2951.6 2333.58 2952.6 2392.58 2953.6 2387.58 2954.6 2539.58 2955.6 2538.58 2955.6 2392.58 2956.6 2510.58 2957.6 2494.58 2958.6 2429.58 2959.6 2504.58 2960.6 2335.58 2961.6 2536.58 2961.6 2534.58 2962.6 2539.58 2963.6 2538.58 2964.6 2345.58 2965.6 2525.58 2966.6 2518.58 2966.6 2532.58 2967.6 2531.58 2968.6 2531.58 2969.6 2449.58 2970.6 2413.58 2971.6 2524.58 2971.6 2469.58 2972.6 2471.58 2973.6 2527.58 2974.6 2491.58 2975.6 2490.58 2976.6 2512.58 2977.6 2511.58 2977.6 2433.58 2978.6 2522.58 2979.6 2437.58 2980.6 2389.58 2981.6 2509.58 2982.6 2329.58 2982.6 2513.58 2983.6 2513.58 2984.6 2513.58 2985.6 2283.58 2986.6 2512.58 2987.6 2493.58 2988.6 2515.58 2988.6 2515.58 2989.6 2478.58 2990.6 2511.58 2991.6 2472.58 2992.6 2504.58 2993.6 2503.58 2993.6 2473.58 2994.6 2532.58 2995.6 2518.58 2996.6 2537.58 2997.6 2443.58 2998.6 2532.58 2999.6 2332.58 2999.6 2531.58 3000.6 2533.58 3001.6 2536.58 3002.6 2526.58 3003.6 2504.58 3004.6 2519.58 3004.6 2520.58 3005.6 2487.58 3006.6 2488.58 3007.6 2453.58 3008.6 2416.58 3009.6 2408.58 3010.6 2329.58 3010.6 2406.58 3011.6 2493.58 3012.6 2497.58 3013.6 2538.58 3014.6 2525.58 3015.6 2323.58 3015.6 2357.58 3016.6 2269.57 3017.6 2538.58 3018.6 2441.58 3019.6 2539.58 3020.6 2481.58 3021.6 2278.57 3021.6 2380.58 3022.6 2538.58 3023.6 2538.58 3024.6 2506.58 3025.6 2537.58 3026.6 2285.58 3026.6 2538.58 3027.6 2451.58 3028.6 2286.58 3029.6 2538.58 3030.6 2538.58 3031.6 2497.58 3032.6 2496.58 3032.6 2529.58 3033.6 2489.58 3034.6 2280.57 3035.6 2526.58 3036.6 2277.57 3037.6 2307.58 3037.6 2360.58 3038.6 2335.58 3039.6 2498.58 3040.6 2482.58 3041.6 2491.58 3042.6 2492.58 3043.6 2492.58 3043.6 2310.58 3044.6 2301.58 3045.6 2514.58 3046.6 2281.57 3047.6 2475.58 3048.6 2534.58 3048.6 2487.58 3049.6 2494.58 3050.6 2522.58 3051.6 2491.58 3052.6 2402.58 3053.6 2484.58 3053.6 2388.58 3054.6 2527.58 3055.6 2528.58 3056.6 2361.58 3057.6 2350.58 3058.6 2534.58 3059.6 2508.58 3059.6 2477.58 3060.6 2479.58 3061.6 2432.58 3062.6 2288.58 3063.6 2534.58 3064.6 2500.58 3064.6 2499.58 3065.6 2522.58 3066.6 2500.58 3067.6 2498.58 3068.6 2399.58 3069.6 2522.58 3070.6 2539.58 3070.6 2528.58 3071.6 2528.58 3072.6 2528.58 3073.6 2113.57 3074.6 2521.58 3075.6 2458.58 3075.6 2489.58 3076.6 2497.58 3077.6 2282.57 3078.6 2485.58 3079.6 2497.58 3080.6 2398.58 3081.6 2282.57 3081.6 2296.58 3082.6 2433.58 3083.6 2343.58 3084.6 2495.58 3085.6 2528.58 3086.6 2499.58 3086.6 2401.58 3087.6 2538.58 3088.6 2521.58 3089.6 2308.58 3090.6 2450.58 3091.6 2483.58 3092.6 2493.58 3092.6 2458.58 3093.6 2390.58 3094.6 2538.58 3095.6 2361.58 3096.6 2365.58 3097.6 2518.58 3097.6 2349.58 3098.6 2506.58 3099.6 2539.58 3100.6 2539.58 3101.6 2501.58 3102.6 2538.58 3103.6 2529.58 3103.6 2539.58 3104.6 2533.58 3105.6 2533.58 3106.6 2384.58 3107.6 2412.58 3108.6 2258.57 3108.6 2538.58 3109.6 2499.58 3110.6 2475.58 3111.6 2536.58 3112.6 2504.58 3113.6 2531.58 3114.6 2536.58 3114.6 2496.58 3115.6 2509.58 3116.6 2536.58 3117.6 2534.58 3118.6 2421.58 3119.6 2528.58 3119.6 2529.58 3120.6 2498.58 3121.6 2511.58 3122.6 2523.58 3123.6 2511.58 3124.6 2480.58 3125.6 2521.58 3125.6 2437.58 3126.6 2482.58 3127.6 2267.57 3128.6 2337.58 3129.6 2318.58 3130.6 2519.58 3130.6 2539.58 3131.6 2478.58 3132.6 2282.57 3133.6 2338.58 3134.6 2506.58 3135.6 2502.58 3135.6 2505.58 3136.6 2422.58 3137.6 2426.58 3138.6 2311.58 3139.6 2259.57 3140.6 2282.57 3141.6 2347.58 3141.6 2497.58 3142.6 2507.58 3143.6 2535.58 3144.6 2516.58 3145.6 2508.58 3146.6 2534.58 3146.6 2483.58 3147.6 2298.58 3148.6 2529.58 3149.6 2518.58 3150.6 2496.58 3151.6 2447.58 3152.6 2487.58 3152.6 2353.58 3153.6 2539.58 3154.6 2428.58 3155.6 2527.58 3156.6 2531.58 3157.6 2538.58 3157.6 2538.58 3158.6 2538.58 3159.6 2537.58 3160.6 2537.58 3161.6 2385.58 3162.6 2500.58 3163.6 2307.58 3163.6 2506.58 3164.6 2501.58 3165.6 2269.57 3166.6 2486.58 3167.6 2450.58 3168.6 2538.58 3168.6 2539.58 3169.6 2537.58 3170.6 2539.58 3171.6 2536.58 3172.6 2538.58 3173.6 2534.58 3174.6 2537.58 3174.6 2489.58 3175.6 2502.58 3176.6 2518.58 3177.6 2529.58 3178.6 2428.58 3179.6 2528.58 3179.6 2323.58 3180.6 2538.58 3181.6 2539.58 3182.6 2498.58 3183.6 2533.58 3184.6 2504.58 3185.6 2537.58 3185.6 2496.58 3186.6 2494.58 3187.6 2530.58 3188.6 2376.58 3189.6 2497.58 3190.6 2499.58 3190.6 2457.58 3191.6 2367.58 3192.6 2458.58 3193.6 2354.58 3194.6 2513.58 3195.6 2484.58 3196.6 2439.58 3196.6 2538.58 3197.6 2538.58 3198.61 2502.58 3199.61 2534.58 3200.61 2357.58 3201.61 2501.58 3201.61 2538.58 3202.61 2402.58 3203.61 2498.58 3204.61 2503.58 3205.61 2534.58 3206.61 2539.58 3207.61 2459.58 3207.61 2539.58 3208.61 2502.58 3209.61 2502.58 3210.61 2502.58 3211.61 2500.58 3212.61 2465.58 3212.61 2463.58 3213.61 2505.58 3214.61 2365.58 3215.61 2348.58 3216.61 2355.58 3217.61 2538.58 3218.61 2538.58 3218.61 2539.58 3219.61 2538.58 3220.61 2531.58 3221.61 2537.58 3222.61 2539.58 3223.61 2538.58 3223.61 2496.58 3224.61 2484.58 3225.61 2504.58 3226.61 2480.58 3227.61 2506.58 3228.61 2285.58 3228.61 2512.58 3229.61 2386.58 3230.61 2428.58 3231.61 2538.58 3232.61 2539.58 3233.61 2505.58 3234.61 2497.58 3234.61 2376.58 3235.61 2419.58 3236.61 2538.58 3237.61 2461.58 3238.61 2538.58 3239.61 2538.58 3239.61 2498.58 3240.61 2504.58 3241.61 2482.58 3242.61 2519.58 3243.61 2538.58 3244.61 2415.58 3245.61 2538.58 3245.61 2503.58 3246.61 2538.58 3247.61 2498.58 3248.61 2538.58 3249.61 2315.58 3250.61 2460.58 3250.61 2367.58 3251.61 2397.58 3252.61 2430.58 3253.61 2538.58 3254.61 2501.58 3255.61 2539.58 3256.61 2538.58 3256.61 2539.58 3257.61 2515.58 3258.61 2539.58 3259.61 2506.58 3260.61 2298.58 3261.61 2498.58 3261.61 2345.58 3262.61 2526.58 3263.61 2538.58 3264.61 2537.58 3265.61 2538.58 3266.61 2506.58 3267.61 2486.58 3267.61 2539.58 3268.61 2538.58 3269.61 2527.58 3270.61 2502.58 3271.61 2525.58 3272.61 2334.58 3272.61 2539.58 3273.61 2283.58 3274.61 2449.58 3275.61 2504.58 3276.61 2538.58 3277.61 2506.58 3278.61 2538.58 3278.61 2502.58 3279.61 2505.58 3280.61 2456.58 3281.61 2538.58 3282.61 2538.58 3283.61 2538.58 3283.61 2538.58 3284.61 2506.58 3285.61 2538.58 3286.61 2451.58 3287.61 2539.58 3288.61 2312.58 3289.61 2290.58 3289.61 2538.58 3290.61 2500.58 3291.61 2538.58 3292.61 2539.58 3293.61 2393.58 3294.61 2320.58 3294.61 2538.58 3295.61 2537.58 3296.61 2446.58 3297.61 2538.58 3298.61 2538.58 3299.61 2430.58 3300.61 2519.58 3300.61 2538.58 3301.61 2538.58 3302.61 2504.58 3303.61 2537.58 3304.61 2539.58 3305.61 2538.58 3305.61 2515.58 3306.61 2503.58 3307.61 2539.58 3308.61 2500.58 3309.61 2502.58 3310.61 2538.58 3310.61 2537.58 3311.61 2428.58 3312.61 2505.58 3313.61 2539.58 3314.61 2505.58 3315.61 2501.58 3316.61 2532.58 3316.61 2256.57 3317.61 2355.58 3318.61 2301.58 3319.61 2537.58 3320.61 2530.58 3321.61 2538.58 3321.61 2441.58 3322.61 2538.58 3323.61 2502.58 3324.61 2538.58 3325.61 2538.58 3326.61 2538.58 3327.61 2538.58 3327.61 2539.58 3328.61 2538.58 3329.61 2495.58 3330.61 2502.58 3331.61 2514.58 3332.61 2538.58 3332.61 2406.58 3333.61 2258.57 3334.61 2507.58 3335.61 2391.58 3336.61 2502.58 3337.61 2475.58 3338.61 2502.58 3338.61 2538.58 3339.61 2538.58 3340.61 2538.58 3341.61 2538.58 3342.61 2538.58 3343.61 2505.58 3343.61 2508.58 3344.61 2538.58 3345.61 2539.58 3346.61 2538.58 3347.61 2539.58 3348.61 2538.58 3349.61 2539.58 3349.61 2387.58 3350.61 2468.58 3351.61 2538.58 3352.61 2458.58 3353.61 2501.58 3354.61 2319.58 3354.61 2429.58 3355.61 2501.58 3356.61 2510.58 3357.61 2414.58 3358.61 2538.58 3359.61 2538.58 3360.61 2538.58 3360.61 2518.58 3361.61 2280.57 3362.61 2454.58 3363.61 2497.58 3364.61 2454.58 3365.61 2535.58 3365.61 2539.58 3366.61 2539.58 3367.61 2539.58 3368.61 2538.58 3369.61 2533.58 3370.61 2495.58 3371.61 2500.58 3371.61 2492.58 3372.61 2427.58 3373.61 2431.58 3374.61 2405.58 3375.61 2364.58 3376.61 2537.58 3376.61 2380.58 3377.61 2538.58 3378.61 2539.58 3379.61 2375.58 3380.61 2507.58 3381.61 2538.58 3382.61 2388.58 3382.61 2538.58 3383.61 2538.58 3384.61 2500.58 3385.61 2281.57 3386.61 2381.58 3387.61 2537.58 3387.61 2538.58 3388.61 2537.58 3389.61 2538.58 3390.61 2539.58 3391.61 2538.58 3392.61 2537.58 3392.61 2506.58 3393.61 2538.58 3394.61 2360.58 3395.61 2445.58 3396.61 2324.58 3397.61 2538.58 3398.61 2435.58 3398.61 2466.58 3399.61 2508.58 3400.61 2457.58 3401.61 2538.5 3402.61 2497.58 3403.61 2537.58 3403.61 2538.58 3404.61 2538.58 3405.61 2536.58 3406.61 2310.58 3407.61 2278.57 3408.61 2462.58 3409.61 2307.58 3409.61 2539.58 3410.61 2376.58 3411.61 2374.58 3412.61 2499.58 3413.61 2539.58 3414.61 2427.58 3414.61 2538.58 3415.61 2538.58 3416.61 2380.58 3417.61 2504.58 3418.61 2499.58 3419.61 2396.58 3420.61 2539.58 3420.61 2302.58 3421.61 2305.58 3422.61 2283.58 3423.61 2431.58 3424.61 2538.58 3425.61 2504.58 3425.61 2502.58 3426.61 2539.58 3427.61 2280.57 3428.61 2538.58 3429.61 2504.58 3430.61 2538.58 3431.61 2539.58 3431.61 2539.58 3432.61 2539.58 3433.61 2538.58 3434.61 2504.58 3435.61 2371.58 3436.61 2319.58 3436.61 2467.58 3437.61 2382.58 3438.61 2444.58 3439.61 2448.58 3440.61 2502.58 3441.61 2538.58 3442.61 2369.58 3442.61 2501.58 3443.61 2504.58 3444.61 2539.58 3445.61 2398.58 3446.61 2276.57 3447.61 2538.58 3447.61 2459.58 3448.61 2504.58 3449.61 2505.58 3450.61 2538.58 3451.61 2506.58 3452.61 2405.58 3453.61 2539.58 3453.61 2504.58 3454.61 2538.58 3455.61 2423.58 3456.61 2289.58 3457.61 2420.58 3458.61 2333.58 3458.61 2330.58 3459.61 2531.58 3460.61 2333.58 3461.61 2342.58 3462.61 2477.58 3463.61 2452.58 3464.61 2312.58 3464.61 2491.58 3465.61 2538.58 3466.61 2501.58 3467.61 2529.58 3468.61 2538.58 3469.61 2504.58 3469.61 2538.58 3470.61 2311.58 3471.61 2505.58 3472.61 2538.58 3473.61 2538.58 3474.61 2348.58 3474.61 2539.58 3475.61 2538.58 3476.61 2538.58 3477.61 2493.58 3478.61 2538.58 3479.61 2539.58 3480.61 2538.58 3480.61 2346.58 3481.61 2365.58 3482.61 2403.58 3483.61 2466.58 3484.61 2499.58 3485.61 2261.57 3485.61 2440.58 3486.61 2537.58 3487.61 2443.58 3488.61 2530.58 3489.61 2538.58 3490.61 2503.58 3491.61 2479.58 3491.61 2430.58 3492.61 2539.58 3493.61 2505.58 3494.61 2504.58 3495.61 2504.58 3496.61 2530.58 3496.61 2531.58 3497.61 2538.58 3498.61 2539.58 3499.61 2538.58 3500.61 2302.58 3501.62 2505.58 3502.62 2538.58 3502.62 2534.58 3503.62 2538.58 3504.62 2537.58 3505.62 2397.58 3506.62 2333.58 3507.62 2532.58 3507.62 2531.58 3508.62 2532.58 3509.62 2502.58 3510.62 2402.58 3511.62 2504.58 3512.62 2397.58 3513.62 2506.58 3513.62 2392.58 3514.62 2536.58 3515.62 2522.58 3516.62 2523.58 3517.62 2539.58 3518.62 2503.58 3518.62 2503.58 3519.62 2400.58 3520.62 2420.58 3521.62 2537.58 3522.62 2261.57 3523.62 2523.58 3524.62 2523.58 3524.62 2274.57 3525.62 2417.58 3526.62 2534.58 3527.62 2486.58 3528.62 2419.58 3529.62 2335.58 3529.62 2493.58 3530.62 2529.58 3531.62 2444.58 3532.62 2422.58 3533.62 2310.58 3534.62 2533.58 3535.62 2502.58 3535.62 2538.58 3536.62 2390.58 3537.62 2422.58 3538.62 2392.58 3539.62 2439.58 3540.62 2484.58 3540.62 2384.58 3541.62 2408.58 3542.62 2497.58 3543.62 2391.58 3544.62 2493.58 3545.62 2422.58 3546.62 2452.58 3546.62 2522.58 3547.62 2443.58 3548.62 2445.58 3549.62 2534.58 3550.62 2324.58 3551.62 2360.58 3551.62 2539.58 3552.62 2538.58 3553.62 2538.58 3554.62 2538.58 3555.62 2275.57 3556.62 2500.58 3557.62 2452.58 3557.62 2354.58 3558.62 2377.58 3559.62 2531.58 3560.62 2335.58 3561.62 2538.58 3562.62 2464.58 3562.62 2538.58 3563.62 2289.58 3564.62 2424.58 3565.62 2504.58 3566.62 2527.58 3567.62 2501.58 3567.62 2518.58 3568.62 2343.58 3569.62 2519.58 3570.62 2315.58 3571.62 2539.58 3572.62 2504.58 3573.62 2284.58 3573.62 2538.58 3574.62 2494.58 3575.62 2380.58 3576.62 2493.58 3577.62 2354.58 3578.62 2296.58 3578.62 2314.58 3579.62 2362.58 3580.62 2377.58 3581.62 2463.58 3582.62 2266.57 3583.62 2465.58 3584.62 2518.58 3584.62 2349.58 3585.62 2520.58 3586.62 2519.58 3587.62 2471.58 3588.62 2523.58 3589.62 2471.58 3589.62 2535.58 3590.62 2369.58 3591.62 2335.58 3592.62 2538.58 3593.62 2309.58 3594.62 2527.58 3595.62 2528.58 3595.62 2418.58 3596.62 2371.58 3597.62 2531.58 3598.62 2411.58 3599.62 2280.57 3600.62 2532.58 3600.62 2532.58 3601.62 2446.58 3602.62 2482.58 3603.62 2532.58 3604.62 2409.58 3605.62 2525.58 3606.62 2511.58 3606.62 2531.58 3607.62 2533.58 3608.62 2305.58 3609.62 2521.58 3610.62 2534.58 3611.62 2506.58 3611.62 2495.58 3612.62 2332.58 3613.62 2528.58 3614.62 2530.58 3615.62 2390.58 3616.62 2531.58 3617.62 2532.58 3617.62 2533.58 3618.62 2289.58 3619.62 2495.58 3620.62 2483.58 3621.62 2312.58 3622.62 2492.58 3622.62 2484.58 3623.62 2517.58 3624.62 2484.58 3625.62 2519.58 3626.62 2519.58 3627.62 2524.58 3628.62 2527.58 3628.62 2538.58 3629.62 2303.58 3630.62 2535.58 3631.62 2531.58 3632.62 2506.58 3633.62 2539.58 3633.62 2327.58 3634.62 2504.58 3635.62 2392.58 3636.62 2504.58 3637.62 2481.58 3638.62 2539.58 3639.62 2328.58 3639.62 2538.58 3640.62 2506.58 3641.62 2538.58 3642.62 2538.58 3643.62 2537.58 3644.62 2506.58 3644.62 2536.58 3645.62 2533.58 3646.62 1854.5 3647.62 2531.58 3648.62 2533.58 3649.62 2504.58 3649.62 2505.58 3650.62 2430.58 3651.62 2497.58 3652.62 2528.58 3653.62 2488.58 3654.62 2470.58 3655.62 2459.58 3655.62 2442.58 3656.62 2508.58 3657.62 2267.57 3658.62 2507.58 3659.62 2511.58 3660.62 2409.58 3660.62 2508.58 3661.62 2462.58 3662.62 2278.57 3663.62 2527.58 3664.62 2538.58 3665.62 2514.58 3666.62 2464.58 3666.62 2334.58 3667.62 2454.58 3668.62 2457.58 3669.62 2419.58 3670.62 2472.58 3671.62 2530.58 3671.62 2489.58 3672.62 2413.58 3673.62 2518.58 3674.62 2483.58 3675.62 2481.58 3676.62 2511.58 3677.62 2517.58 3677.62 2490.58 3678.62 2454.58 3679.62 2376.58 3680.62 2526.58 3681.62 2463.58 3682.62 2464.58 3682.62 2461.58 3683.62 2496.58 3684.62 2431.58 3685.62 2452.58 3686.62 2539.58 3687.62 2539.58 3688.62 2531.58 3688.62 2504.58 3689.62 2528.58 3690.62 2426.58 3691.62 2529.58 3692.62 2518.58 3693.62 2315.58 3693.62 2532.58 3694.62 2539.58 3695.62 2533.58 3696.62 2493.58 3697.62 2535.58 3698.62 2273.57 3699.62 2475.58 3699.62 2506.58 3700.62 2493.58 3701.62 2538.58 3702.62 2477.58 3703.62 2350.58 3704.62 2524.58 3704.62 2539.58 3705.62 2506.58 3706.62 2503.58 3707.62 2443.58 3708.62 2393.58 3709.62 2409.58 3710.62 2538.58 3710.62 2520.58 3711.62 2466.58 3712.62 2538.58 3713.62 2538.58 3714.62 2285.58 3715.62 2445.58 3715.62 2284.58 3716.62 2387.58 3717.62 2538.58 3718.62 2538.58 3719.62 2440.58 3720.62 2533.58 3721.62 2538.58 3721.62 2538.58 3722.62 2539.58 3723.62 2503.58 3724.62 2322.58 3725.62 2538.58 3726.62 2454.58 3726.62 2409.58 3727.62 2539.58 3728.62 2539.58 3729.62 2472.58 3730.62 2421.58 3731.62 2538.58 3731.62 2354.58 3732.62 2315.58 3733.62 2284.58 3734.62 2539.58 3735.62 2412.58 3736.62 2538.58 3737.62 2499.58 3737.62 2536.58 3738.62 2502.58 3739.62 2539.58 3740.62 2412.58 3741.62 2535.58 3742.62 2377.58 3742.62 2503.58 3743.62 2463.58 3744.62 2538.58 3745.62 2470.58 3746.62 2539.58 3747.62 2538.58 3748.62 2498.58 3748.62 2316.58 3749.62 2479.58 3750.62 2502.58 3751.62 2488.58 3752.62 2448.58 3753.62 2502.58 3753.62 2532.58 3754.62 2284.58 3755.62 2362.58 3756.62 2538.58 3757.62 2539.58 3758.62 2533.58 3759.62 2539.58 3759.62 2538.58 3760.62 2525.58 3761.62 2505.58 3762.62 2507.58 3763.62 2442.58 3764.62 2328.58 3764.62 2539.58 3765.62 2503.58 3766.62 2405.58 3767.62 2506.58 3768.62 2538.58 3769.62 2538.58 3770.62 2530.58 3770.62 2538.58 3771.62 2533.58 3772.62 2377.58 3773.62 2424.58 3774.62 2503.58 3775.62 2538.58 3775.62 2391.58 3776.62 2489.58 3777.62 2281.57 3778.62 2538.58 3779.62 2402.58 3780.62 2504.58 3781.62 2271.57 3781.62 2408.58 3782.62 2505.58 3783.62 2349.58 3784.62 2538.58 3785.62 2491.58 3786.62 2539.58 3786.62 2533.58 3787.62 2539.58 3788.62 2410.58 3789.62 2537.58 3790.62 2363.58 3791.62 2322.58 3792.62 2412.58 3792.62 2425.58 3793.62 2310.58 3794.62 2419.58 3795.62 2393.58 3796.62 2538.58 3797.62 2539.58 3797.62 2504.58 3798.62 2325.58 3799.62 2422.58 3800.62 2420.58 3801.62 2504.58 3802.62 2506.58 3803.62 2538.58 3803.62 2475.58 3804.62 2505.58 3805.62 2450.58 3806.62 2287.58 3807.62 2538.58 3808.62 2512.58 3808.62 2503.58 3809.63 2538.58 3810.63 2538.58 3811.63 2505.58 3812.63 2430.58 3813.63 2538.58 3813.63 2539.58 3814.63 2279.57 3815.63 2484.58 3816.63 2538.58 3817.63 2538.58 3818.63 2538.58 3819.63 2539.58 3819.63 2539.58 3820.63 2491.58 3821.63 2499.58 3822.63 2291.58 3823.63 2538.58 3824.63 2502.58 3824.63 2539.58 3825.63 2288.58 3826.63 2506.58 3827.63 2316.58 3828.63 2357.58 3829.63 2538.58 3830.63 2503.58 3830.63 2537.58 3831.63 2436.58 3832.63 2539.58 3833.63 2538.58 3834.63 2375.58 3835.63 2505.58 3835.63 2440.58 3836.63 2503.58 3837.63 2539.58 3838.63 2472.58 3839.63 2538.58 3840.63 2504.58 3841.63 2500.58 3841.63 2528.58 3842.63 2539.58 3843.63 2316.58 3844.63 2514.58 3845.63 2477.58 3846.63 2538.58 3846.63 2502.58 3847.63 2437.58 3848.63 2538.58 3849.63 2528.58 3850.63 2317.58 3851.63 2539.58 3852.63 2390.58 3852.63 2504.58 3853.63 2539.58 3854.63 2407.58 3855.63 2505.58 3856.63 2538.58 3857.63 2449.58 3857.63 2505.58 3858.63 2493.58 3859.63 2305.58 3860.63 2538.58 3861.63 2503.58 3862.63 2476.58 3863.63 2538.58 3863.63 2383.58 3864.63 2538.58 3865.63 2509.58 3866.63 2366.58 3867.63 2538.58 3868.63 2457.58 3868.63 2399.58 3869.63 2504.58 3870.63 2283.58 3871.63 2499.58 3872.63 2538.58 3873.63 2538.58 3874.63 2539.58 3874.63 2538.58 3875.63 2538.58 3876.63 2470.58 3877.63 2527.58 3878.63 2499.58 3879.63 2538.58 3879.63 2353.58 3880.63 2539.58 3881.63 2538.58 3882.63 2470.58 3883.63 2503.58 3884.63 2302.58 3885.63 2502.58 3885.63 2471.58 3886.63 2485.58 3887.63 2539.58 3888.63 2505.58 3889.63 2538.58 3890.63 2333.58 3890.63 2453.58 3891.63 2462.58 3892.63 2539.58 3893.63 2500.58 3894.63 2539.58 3895.63 2537.58 3896.63 2487.58 3896.63 2538.58 3897.63 2538.58 3898.63 2523.58 3899.63 2437.58 3900.63 2519.58 3901.63 2539.58 3901.63 2538.58 3902.63 2505.58 3903.63 2538.58 3904.63 2527.58 3905.63 2538.58 3906.63 2503.58 3906.63 2539.58 3907.63 2523.58 3908.63 2287.58 3909.63 2322.58 3910.63 2291.58 3911.63 2539.58 3912.63 2539.58 3912.63 2476.58 3913.63 2503.58 3914.63 2383.58 3915.63 2539.58 3916.63 2500.58 3917.63 2435.58 3917.63 2526.58 3918.63 2539.58 3919.63 2506.58 3920.63 2539.58 3921.63 2521.58 3922.63 2538.58 3923.63 2484.58 3923.63 2506.58 3924.63 2539.58 3925.63 2506.58 3926.63 2538.58 3927.63 2427.58 3928.63 2539.58 3928.63 2538.58 3929.63 2504.58 3930.63 2330.58 3931.63 2502.58 3932.63 2538.58 3933.63 2485.58 3934.63 2505.58 3934.63 2537.58 3935.63 2539.58 3936.63 2538.58 3937.63 2491.58 3938.63 2268.57 3939.63 2503.58 3939.63 2538.58 3940.63 2502.58 3941.63 2401.58 3942.63 2503.58 3943.63 2538.58 3944.63 2372.58 3945.63 2340.58 3945.63 2287.58 3946.63 2424.58 3947.63 2505.58 3948.63 2533.58 3949.63 2505.58 3950.63 2509.58 3950.63 2479.58 3951.63 2538.58 3952.63 2285.58 3953.63 2539.58 3954.63 2538.58 3955.63 2504.58 3956.63 2538.58 3956.63 2517.58 3957.63 2293.58 3958.63 2538.58 3959.63 2539.58 3960.63 2505.58 3961.63 2531.58 3961.63 2538.58 3962.63 2537.58 3963.63 2503.58 3964.63 2538.58 3965.63 2538.58 3966.63 2539.58 3967.63 2503.58 3967.63 2533.58 3968.63 2428.58 3969.63 2505.58 3970.63 2538.58 3971.63 2539.58 3972.63 2444.58 3972.63 2460.58 3973.63 2424.58 3974.63 2536.58 3975.63 2420.58 3976.63 2322.58 3977.63 2283.58 3978.63 2539.58 3978.63 2503.58 3979.63 2283.58 3980.63 2539.58 3981.63 2259.57 3982.63 2382.58 3983.63 2504.58 3983.63 2539.58 3984.63 2272.57 3985.63 2509.58 3986.63 1862.56 3987.63 2532.58 3988.63 2421.58 3988.63 2538.58 3989.63 2538.58 3990.63 2538.58 3991.63 2440.58 3992.63 2538.58 3993.63 2512.58 3994.63 2500.58 3994.63 2483.58 3995.63 2538.58 3996.63 2503.58 3997.63 2492.58 3998.63 2538.58 3999.63 2538.58 3999.63 2536.58 4000.63 2430.58 4001.63 2502.58 4002.63 2423.58 4003.63 2359.58 4004.63 2364.58 4005.63 2538.58 4005.63 2433.58 4006.63 2538.58 4007.63 2538.58 4008.63 2502.58 4009.63 2538.58 4010.63 2538.58 4010.63 2389.58 4011.63 2538.58 4012.63 2504.58 4013.63 2356.58 4014.63 2494.58 4015.63 2445.58 4016.63 2538.58 4016.63 1871.56 4017.63 2402.58 4018.63 2422.58 4019.63 2369.58 4020.63 2455.58 4021.63 2340.58 4021.63 2504.58 4022.63 2345.58 4023.63 2538.58 4024.63 2530.58 4025.63 2283.58 4026.63 2538.58 4027.63 2509.58 4027.63 2437.58 4028.63 2501.58 4029.63 2539.58 4030.63 2399.58 4031.63 2461.58 4032.63 2476.58 4032.63 2505.58 4033.63 2539.58 4034.63 2539.58 4035.63 2539.58 4036.63 2538.58 4037.63 2538.58 4038.63 2539.58 4038.63 1868.56 4039.63 2505.58 4040.63 2300.58 4041.63 2539.58 4042.63 2539.58 4043.63 2443.58 4043.63 2255.57 4044.63 2504.58 4045.63 2538.58 4046.63 2475.58 4047.63 2538.58 4048.63 2520.58 4049.63 2313.58 4049.63 2503.58 4050.63 2538.58 4051.63 2281.57 4052.63 2504.58 4053.63 2499.58 4054.63 2498.58 4054.63 2426.58 4055.63 2502.58 4056.63 2458.58 4057.63 2538.58 4058.63 2483.58 4059.63 2502.58 4060.63 2538.58 4060.63 2538.58 4061.63 2302.58 4062.63 2504.58 4063.63 2489.58 4064.63 2502.58 4065.63 2280.57 4065.63 2267.57 4066.63 2538.58 4067.63 2538.58 4068.63 2538.58 4069.63 2538.58 4070.63 2538.58 4070.63 2501.58 4071.63 2399.58 4072.63 2538.58 4073.63 2538.58 4074.63 2534.58 4075.63 1868.56 4076.63 2530.58 4076.63 2503.58 4077.63 2538.58 4078.63 2504.58 4079.63 2435.58 4080.63 2538.58 4081.63 2538.58 4081.63 2496.58 4082.63 2311.58 4083.63 2538.58 4084.63 2503.58 4085.63 2358.58 4086.63 2538.58 4087.63 2527.58 4087.63 2533.58 4088.63 2317.58 4089.63 2502.58 4090.63 2524.58 4091.63 2505.58 4092.63 2352.58 4092.63 2377.58 4093.63 2512.58 4094.63 2538.58 4095.63 2537.58 4096.63 2255.57 4097.63 2364.58 4098.63 2408.58 4098.63 2366.58 4099.63 2539.58 4100.63 2505.58 4101.63 2527.58 4102.63 2487.58 4103.63 2530.58 4103.63 2431.58 4104.63 2321.58 4105.63 2539.58 4106.63 2538.58 4107.63 2539.58 4108.63 2504.58 4109.63 2456.58 4109.63 2351.58 4110.63 2347.58 4111.64 2399.58 4112.64 2500.58 4113.64 2502.58 4114.64 2336.58 4114.64 2530.58 4115.64 2445.58 4116.64 2282.57 4117.64 2537.58 4118.64 2538.58 4119.64 2504.58 4120.64 2539.58 4120.64 2419.58 4121.64 2277.57 4122.64 2539.58 4123.64 2496.58 4124.64 2268.57 4125.64 2503.58 4125.64 2305.58 4126.64 2538.58 4127.64 2394.58 4128.64 2280.57 4129.64 2538.58 4130.64 2539.58 4131.64 2486.58 4131.64 2359.58 4132.64 2538.58 4133.64 2414.58 4134.64 2538.58 4135.64 2256.57 4136.64 2538.58 4136.64 2538.58 4137.64 2371.58 4138.64 2290.58 4139.64 2539.58 4140.64 2309.58 4141.64 2539.58 4142.64 2306.58 4142.64 2405.58 4143.64 2381.58 4144.64 2512.58 4145.64 2505.58 4146.64 2538.58 4147.64 2416.58 4147.64 2505.58 4148.64 2538.58 4149.64 2286.58 4150.64 2433.58 4151.64 2514.58 4152.64 2279.57 4152.64 2503.58 4153.64 2482.58 4154.64 2333.58 4155.64 2477.58 4156.64 2538.58 4157.64 2505.58 4158.64 2451.58 4158.64 2346.58 4159.64 2388.58 4160.64 2539.58 4161.64 2538.58 4162.64 2476.58 4163.64 2308.58 4163.64 2292.58 4164.64 2535.58 4165.64 2538.58 4166.64 2353.58 4167.64 2496.58 4168.64 2538.58 4169.64 2492.58 4169.64 2506.58 4170.64 2332.58 4171.64 2414.58 4172.64 2397.58 4173.64 2313.58 4174.64 2515.58 4174.64 2505.58 4175.64 2271.57 4176.64 2370.58 4177.64 2538.58 4178.64 2539.58 4179.64 2539.58 4180.64 2538.58 4180.64 2538.58 4181.64 2538.58 4182.64 2538.58 4183.64 2538.58 4184.64 2527.58 4185.64 2258.57 4185.64 2538.58 4186.64 2275.57 4187.64 2405.58 4188.64 2538.58 4189.64 2537.58 4190.64 2532.58 4191.64 2523.58 4191.64 2294.58 4192.64 2349.58 4193.64 2393.58 4194.64 2538.58 4195.64 2379.58 4196.64 2288.58 4196.64 2366.58 4197.64 2532.58 4198.64 2417.58 4199.64 2532.58 4200.64 2419.58 4201.64 2323.58 4202.64 2485.58 4202.64 2496.58 4203.64 2538.58 4204.64 2538.58 4205.64 2538.58 4206.64 2496.58 4207.64 2495.58 4207.64 2424.58 4208.64 2538.58 4209.64 2433.58 4210.64 2436.58 4211.64 2539.58 4212.64 2503.58 4213.64 2538.58 4213.64 2538.58 4214.64 2538.58 4215.64 2503.58 4216.64 2384.58 4217.64 2538.58 4218.64 2538.58 4218.64 2538.58 4219.64 2538.58 4220.64 2534.58 4221.64 2507.58 4222.64 2538.58 4223.64 2538.58 4224.64 2531.58 4224.64 2529.58 4225.64 2307.58 4226.64 2528.58 4227.64 2530.58 4228.64 2505.58 4229.64 2487.58 4229.64 2445.58 4230.64 2484.58 4231.64 2269.57 4232.64 2291.58 4233.64 2456.58 4234.64 2500.58 4235.64 2523.58 4235.64 2293.58 4236.64 2481.58 4237.64 2411.58 4238.64 2460.58 4239.64 2485.58 4240.64 2539.58 4240.64 2539.58 4241.64 2311.58 4242.64 2538.58 4243.64 2500.58 4244.64 2433.58 4245.64 2385.58 4245.64 2501.58 4246.64 2533.58 4247.64 2539.58 4248.64 2500.58 4249.64 2444.58 4250.64 2278.57 4251.64 2505.58 4251.64 2505.58 4252.64 2528.58 4253.64 2529.58 4254.64 2503.58 4255.64 2529.58 4256.64 2326.58 4256.64 2502.58 4257.64 2526.58 4258.64 2463.58 4259.64 2373.58 4260.64 2321.58 4261.64 2494.58 4262.64 2332.58 4262.64 2537.58 4263.64 2537.58 4264.64 2537.58 4265.64 2502.58 4266.64 2502.58 4267.64 2506.58 4267.64 2488.58 4268.64 2286.58 4269.64 2539.58 4270.64 2355.58 4271.64 2433.58 4272.64 2460.58 4273.64 2538.58 4273.64 2538.58 4274.64 2537.58 4275.64 2476.58 4276.64 2520.58 4277.64 2539.58 4278.64 2314.58 4278.64 2539.5 4279.64 2305.58 4280.64 2368.58 4281.64 2538.58 4282.64 2398.58 4283.64 2538.58 4284.64 2539.58 4284.64 2434.58 4285.64 2499.58 4286.64 2363.58 4287.64 2539.58 4288.64 2503.58 4289.64 2539.58 4289.64 2344.58 4290.64 2538.58 4291.64 2538.58 4292.64 2538.58 4293.64 2374.58 4294.64 2498.58 4295.64 2531.58 4295.64 2499.58 4296.64 2519.58 4297.64 2526.58 4298.64 2259.57 4299.64 2526.58 4300.64 2489.58 4300.64 2525.58 4301.64 2520.58 4302.64 2515.58 4303.64 2518.58 4304.64 2508.58 4305.64 2509.58 4306.64 2536.58 4306.64 2535.58 4307.64 2532.58 4308.64 2531.58 4309.64 2532.58 4310.64 2531.58 4311.64 2471.58 4311.64 2410.58 4312.64 2529.58 4313.64 2274.57 4314.64 2532.58 4315.64 2477.58 4316.64 2530.58 4317.64 2489.58 4317.64 2529.58 4318.64 2529.58 4319.64 2478.58 4320.64 2525.58 4321.64 2490.58 4322.64 2424.58 4322.64 2449.58 4323.64 2524.58 4324.64 2391.58 4325.64 2529.58 4326.64 2491.58 4327.64 2370.58 4327.64 2481.58 4328.64 2480.58 4329.64 2530.58 4330.64 2425.58 4331.64 2488.58 4332.64 2528.58 4333.64 2528.58 4333.64 2430.58 4334.64 2441.58 4335.64 2298.58 4336.64 2349.58 4337.64 2279.57 4338.64 2478.58 4338.64 2375.58 4339.64 2527.58 4340.64 2474.58 4341.64 2002.57 4342.64 2524.58 4343.64 2526.58 4344.64 2419.58 4344.64 2513.58 4345.64 2403.58 4346.64 2473.58 4347.64 2439.58 4348.64 2507.58 4349.64 2539.58 4349.64 2504.58 4350.64 2325.58 4351.64 2503.58 4352.64 2466.58 4353.64 2505.58 4354.64 2502.58 4355.64 2538.58 4355.64 2538.58 4356.64 2538.58 4357.64 2538.58 4358.64 2539.58 4359.64 2529.58 4360.64 2340.58 4360.64 2340.58 4361.64 2539.58 4362.64 2397.58 4363.64 2383.58 4364.64 2533.58 4365.64 2533.58 4366.64 2538.58 4366.64 2536.58 4367.64 2526.58 4368.64 2386.58 4369.64 2529.58 4370.64 2527.58 4371.64 2520.58 4371.64 2531.58 4372.64 2272.57 4373.64 2282.57 4374.64 2504.58 4375.64 2519.58 4376.64 2514.58 4377.64 2513.58 4377.64 2487.58 4378.64 2303.58 4379.64 2483.58 4380.64 2516.58 4381.64 2480.58 4382.64 2326.58 4382.64 2350.58 4383.64 2273.57 4384.64 2353.58 4385.64 2256.57 4386.64 2304.58 4387.64 2532.58 4388.64 2526.58 4388.64 2522.58 4389.64 2287.58 4390.64 2529.58 4391.64 2463.58 4392.64 2273.57 4393.64 2538.58 4393.64 2537.58 4394.64 2537.58 4395.64 2536.58 4396.64 2431.58 4397.64 2532.58 4398.64 2533.58 4399.64 2395.58 4399.64 2496.58 4400.64 2527.58 4401.64 2496.58 4402.64 2527.58 4403.64 2492.58 4404.64 2258.57 4404.64 2527.58 4405.64 2486.58 4406.64 2489.58 4407.64 2531.58 4408.65 2530.58 4409.65 2527.58 4409.65 2359.58 4410.65 2460.58 4411.65 2486.58 4412.65 2366.58 4413.65 2278.57 4414.65 2537.58 4415.65 2480.58 4415.65 2499.58 4416.65 2466.58 4417.65 2526.58 4418.65 2524.58 4419.65 2538.58 4420.65 2482.58 4420.65 2493.58 4421.65 2277.57 4422.65 2374.58 4423.65 2466.58 4424.65 2536.58 4425.65 2352.58 4426.65 2485.58 4426.65 2319.58 4427.65 2477.58 4428.65 2493.58 4429.65 2537.58 4430.65 2417.58 4431.65 2490.58 4431.65 2535.58 4432.65 2389.58 4433.65 2503.58 4434.65 2458.58 4435.65 2501.58 4436.65 2537.58 4437.65 2267.57 4437.65 2533.58 4438.65 2538.58 4439.65 2507.58 4440.65 2537.58 4441.65 2538.58 4442.65 2539.58 4442.65 2499.58 4443.65 2537.58 4444.65 2506.58 4445.65 2504.58 4446.65 2502.58 4447.65 2485.58 4448.65 2501.58 4448.65 2515.58 4449.65 2527.58 4450.65 2275.57 4451.65 2483.58 4452.65 2536.58 4453.65 2536.58 4453.65 2533.58 4454.65 2406.58 4455.65 2433.58 4456.65 2455.58 4457.65 2531.58 4458.65 2539.58 4459.65 2524.58 4459.65 2391.58 4460.65 2534.58 4461.65 2499.58 4462.65 2531.58 4463.65 2526.58 4464.65 2526.58 4464.65 2537.58 4465.65 2318.58 4466.65 2489.58 4467.65 2488.58 4468.65 2535.58 4469.65 2440.58 4470.65 2539.58 4470.65 2449.58 4471.65 2492.58 4472.65 2489.58 4473.65 2531.58 4474.65 2528.58 4475.65 2531.58 4475.65 2479.58 4476.65 2500.58 4477.65 2518.58 4478.65 2536.58 4479.65 2496.58 4480.65 2285.58 4481.65 2262.57 4481.65 2492.58 4482.65 2493.58 4483.65 2429.58 4484.65 2285.58 4485.65 2518.58 4486.65 2287.58 4486.65 2519.58 4487.65 2361.58 4488.65 2476.58 4489.65 2481.58 4490.65 2355.58 4491.65 2473.58 4491.65 2470.58 4492.65 2322.58 4493.65 2527.58 4494.65 2479.58 4495.65 2529.58 4496.65 2527.58 4497.65 2361.58 4497.65 2368.58 4498.65 2530.58 4499.65 2388.58 4500.65 2379.58 4501.65 2489.58 4502.65 2294.58 4502.65 2280.57 4503.65 2529.58 4504.65 2535.58 4505.65 2537.58 4506.65 2485.58 4507.65 2516.58 4508.65 2491.58 4508.65 2515.58 4509.65 2535.58 4510.65 2521.58 4511.65 2468.58 4512.65 2536.58 4513.65 2535.58 4513.65 2476.58 4514.65 2380.58 4515.65 2329.58 4516.65 2397.58 4517.65 2268.57 4518.65 2502.58 4519.65 2505.58 4519.65 2345.58 4520.65 2504.58 4521.65 2503.58 4522.65 2520.58 4523.65 2312.58 4524.65 2538.58 4524.65 2504.58 4525.65 2538.58 4526.65 2340.58 4527.65 2260.57 4528.65 2539.58 4529.65 2539.58 4530.65 2538.58 4530.65 2539.58 4531.65 2404.58 4532.65 2535.58 4533.65 2535.58 4534.65 2401.58 4535.65 2534.58 4535.65 2365.58 4536.65 2534.58 4537.65 2504.58 4538.65 2539.58 4539.65 2493.58 4540.65 2537.58 4541.65 2536.58 4541.65 2505.58 4542.65 2538.58 4543.65 2535.58 4544.65 2500.58 4545.65 2441.58 4546.65 2528.58 4546.65 2508.58 4547.65 2494.58 4548.65 2536.58 4549.65 2264.57 4550.65 2536.58 4551.65 2492.58 4552.65 2530.58 4552.65 2501.58 4553.65 2525.58 4554.65 2508.58 4555.65 2503.58 4556.65 2525.58 4557.65 2283.58 4557.65 2524.58 4558.65 2269.57 4559.65 2525.58 4560.65 2266.57 4561.65 2358.58 4562.65 2474.58 4563.65 2529.58 4563.65 2485.58 4564.65 2393.58 4565.65 2528.58 4566.65 2530.58 4567.65 2527.58 4568.65 2462.58 4568.65 2501.58 4569.65 2477.58 4570.65 2346.58 4571.65 2526.58 4572.65 2529.58 4573.65 2388.58 4574.65 2526.58 4574.65 2473.58 4575.65 2524.58 4576.65 2481.58 4577.65 2477.58 4578.65 2524.58 4579.65 2503.58 4579.65 2529.58 4580.65 2452.58 4581.65 2478.58 4582.65 2481.58 4583.65 2508.58 4584.65 2534.58 4584.65 2437.58 4585.65 2532.58 4586.65 2529.58 4587.65 2382.58 4588.65 2529.58 4589.65 2532.58 4590.65 2525.58 4590.65 2496.58 4591.65 2443.58 4592.65 2390.58 4593.65 2492.58 4594.65 2393.58 4595.65 2435.58 4595.65 2533.58 4596.65 2503.58 4597.65 2497.58 4598.65 2498.58 4599.65 2496.58 4600.65 2461.58 4601.65 2416.58 4601.65 2381.58 4602.65 2369.58 4603.65 2485.58 4604.65 2371.58 4605.65 2538.58 4606.65 2505.58 4606.65 2500.58 4607.65 2529.58 4608.65 2355.58 4609.65 2338.58 4610.65 2538.58 4611.65 2539.58 4612.65 2538.58 4612.65 2539.58 4613.65 2539.58 4614.65 2539.58 4615.65 2539.58 4616.65 2538.58 4617.65 2536.58 4617.65 2483.58 4618.65 2471.58 4619.65 2500.58 4620.65 2532.58 4621.65 2526.58 4622.65 2534.58 4623.65 2538.58 4623.65 2538.58 4624.65 2492.58 4625.65 2538.58 4626.65 2459.58 4627.65 2502.58 4628.65 2526.58 4628.65 2503.58 4629.65 2487.58 4630.65 2356.58 4631.65 2327.58 4632.65 2375.58 4633.65 2389.58 4634.65 2473.58 4634.65 2499.58 4635.65 2347.58 4636.65 2522.58 4637.65 2312.58 4638.65 2485.58 4639.65 2538.58 4639.65 2538.58 4640.65 2538.58 4641.65 2531.58 4642.65 2538.58 4643.65 2504.58 4644.65 2490.58 4645.65 2269.57 4645.65 2324.58 4646.65 2488.58 4647.65 2535.58 4648.65 2538.58 4649.65 2539.58 4650.65 2539.58 4650.65 2505.58 4651.65 2268.57 4652.65 2539.58 4653.65 2424.58 4654.65 2302.58 4655.65 2440.58 4656.65 2269.57 4656.65 2538.58 4657.65 2538.58 4658.65 2539.58 4659.65 2538.58 4660.65 2539.58 4661.65 2539.58 4661.65 2506.58 4662.65 2378.58 4663.65 2443.58 4664.65 2346.58 4665.65 2538.58 4666.65 2538.58 4666.65 2538.58 4667.65 2539.58 4668.65 2256.57 4669.65 2535.58 4670.65 2506.58 4671.65 2538.58 4672.65 2500.58 4672.65 2502.58 4673.65 2535.58 4674.65 2534.58 4675.65 2516.58 4676.65 2315.58 4677.65 2513.58 4677.65 2359.58 4678.65 2539.58 4679.65 2479.58 4680.65 2431.58 4681.65 2539.58 4682.65 2500.58 4683.65 2503.58 4683.65 2467.58 4684.65 2450.58 4685.65 2437.58 4686.65 2378.58 4687.65 2490.58 4688.65 2538.58 4688.65 2538.58 4689.65 2539.58 4690.65 2539.58 4691.65 2538.58 4692.65 2259.57 4693.65 2539.58 4694.65 2505.58 4694.65 2502.58 4695.65 2334.58 4696.65 2487.58 4697.65 2291.58 4698.65 2267.57 4699.65 2381.58 4699.65 2335.58 4700.65 2499.58 4701.65 2430.58 4702.65 2503.58 4703.65 2504.58 4704.65 2538.58 4705.65 2425.58 4705.65 2538.58 4706.65 2539.58 4707.65 2538.58 4708.65 2538.58 4709.65 2504.58 4710.65 2443.58 4710.65 2538.58 4711.65 2503.58 4712.65 2504.58 4713.65 2504.58 4714.65 2288.58 4715.65 2365.58 4716.65 2517.58 4716.65 2537.58 4717.66 2427.58 4718.66 2539.58 4719.66 2538.58 4720.66 2538.58 4721.66 2538.58 4721.66 2506.58 4722.66 2504.58 4723.66 2527.58 4724.66 2503.58 4725.66 2505.58 4726.66 2480.58 4727.66 2508.58 4727.66 2264.57 4728.66 2476.58 4729.66 2416.58 4730.66 2539.58 4731.66 2384.58 4732.66 2501.58 4732.66 2369.58 4733.66 2538.58 4734.66 2539.58 4735.66 2539.58 4736.66 2538.58 4737.66 2539.58 4738.66 2336.58 4738.66 2342.58 4739.66 2539.58 4740.66 2538.58 4741.66 2497.58 4742.66 2472.58 4743.66 2382.58 4743.66 2280.57 4744.66 2397.58 4745.66 2502.58 4746.66 2506.58 4747.66 2502.58 4748.66 2291.58 4748.66 2538.58 4749.66 2495.58 4750.66 2375.58 4751.66 2344.58 4752.66 2506.58 4753.66 2505.58 4754.66 2294.58 4754.66 2312.58 4755.66 2462.58 4756.66 2378.58 4757.66 2539.58 4758.66 2482.58 4759.66 2274.57 4759.66 2539.58 4760.66 2411.58 4761.66 2506.58 4762.66 2538.58 4763.66 2396.58 4764.66 2504.58 4765.66 2328.58 4765.66 2284.58 4766.66 2539.58 4767.66 2501.58 4768.66 2506.58 4769.66 2503.58 4770.66 2404.58 4770.66 2538.58 4771.66 2538.58 4772.66 2278.57 4773.66 2539.58 4774.66 2538.58 4775.66 2530.58 4776.66 2504.58 4776.66 2537.58 4777.66 2538.58 4778.66 2538.58 4779.66 2538.58 4780.66 2502.58 4781.66 2538.58 4781.66 2331.58 4782.66 2538.58 4783.66 2529.58 4784.66 2538.58 4785.66 2502.58 4786.66 2376.58 4787.66 2320.58 4787.66 2355.58 4788.66 2536.58 4789.66 2538.58 4790.66 2261.57 4791.66 2539.58 4792.66 2539.58 4792.66 2486.58 4793.66 2388.58 4794.66 2514.58 4795.66 2538.58 4796.66 2357.58 4797.66 2433.58 4798.66 2539.58 4798.66 2287.58 4799.66 2355.58 4800.66 2314.58 4801.66 2502.58 4802.66 2506.58 4803.66 2539.58 4803.66 2538.58 4804.66 2538.58 4805.66 2461.58 4806.66 2503.58 4807.66 2536.58 4808.66 2354.58 4809.66 2272.57 4809.66 2504.58 4810.66 2385.58 4811.66 2482.58 4812.66 2485.58 4813.66 2538.58 4814.66 2255.57 4814.66 2538.58 4815.66 2539.58 4816.66 2537.58 4817.66 2505.58 4818.66 2406.58 4819.66 2539.58 4820.66 2371.58 4820.66 2477.58 4821.66 2473.58 4822.66 2391.58 4823.66 2539.58 4824.66 2538.58 4825.66 2538.58 4825.66 2538.58 4826.66 2538.58 4827.66 2396.58 4828.66 2463.58 4829.66 2503.58 4830.66 2539.58 4830.66 2272.57 4831.66 2538.58 4832.66 2538.58 4833.66 2538.58 4834.66 2539.58 4835.66 2538.58 4836.66 2538.58 4836.66 2499.58 4837.66 2379.58 4838.66 2538.58 4839.66 2538.58 4840.66 2536.58 4841.66 2533.58 4841.66 2537.58 4842.66 2263.57 4843.66 2504.58 4844.66 2537.58 4845.66 2537.58 4846.66 2291.58 4847.66 2538.58 4847.66 2497.58 4848.66 2539.58 4849.66 2539.58 4850.66 2538.58 4851.66 2539.58 4852.66 2538.58 4852.66 2538.58 4853.66 2539.58 4854.66 2539.58 4855.66 2538.58 4856.66 2286.58 4857.66 2288.58 4858.66 2373.58 4858.66 2325.58 4859.66 2443.58 4860.66 2503.58 4861.66 2329.58 4862.66 2504.58 4863.66 2538.58 4863.66 2510.58 4864.66 2539.58 4865.66 2494.58 4866.66 2499.58 4867.66 2539.58 4868.66 2506.58 4869.66 2356.58 4869.66 2500.58 4870.66 2411.58 4871.66 2538.58 4872.66 2333.58 4873.66 2539.58 4874.66 2291.58 4874.66 2317.58 4875.66 2406.58 4876.66 2538.58 4877.66 2539.58 4878.66 2539.58 4879.66 2505.58 4880.66 2507.58 4880.66 2539.58 4881.66 2496.58 4882.66 2435.58 4883.66 2538.58 4884.66 2538.58 4885.66 2492.58 4885.66 2538.58 4886.66 2539.58 4887.66 2538.58 4888.66 2537.58 4889.66 2538.58 4890.66 2505.58 4891.66 2506.58 4891.66 2451.58 4892.66 2539.58 4893.66 2404.58 4894.66 2504.58 4895.66 2539.58 4896.66 2494.58 4896.66 2280.57 4897.66 2372.58 4898.66 2263.57 4899.66 2261.57 4900.66 2538.58 4901.66 2506.58 4902.66 2538.58 4902.66 2504.58 4903.66 2313.58 4904.66 2381.58 4905.66 2335.58 4906.66 2388.58 4907.66 2539.58 4907.66 2538.58 4908.66 2475.58 4909.66 2380.58 4910.66 2539.58 4911.66 2538.58 4912.66 2360.58 4913.66 2537.58 4913.66 2506.58 4914.66 2268.57 4915.66 2297.58 4916.66 2533.58 4917.66 2296.58 4918.66 2539.58 4918.66 2539.58 4919.66 2538.58 4920.66 2270.57 4921.66 2327.58 4922.66 2506.58 4923.66 2530.58 4923.66 2313.58 4924.66 2539.58 4925.66 2539.58 4926.66 2538.58 4927.66 2538.58 4928.66 2503.58 4929.66 2425.58 4929.66 2523.58 4930.66 2502.58 4931.66 2538.58 4932.66 2506.58 4933.66 2504.58 4934.66 2530.58 4934.66 2504.58 4935.66 2337.58 4936.66 2263.57 4937.66 2486.58 4938.66 2506.58 4939.66 2381.58 4940.66 2300.58 4940.66 2517.58 4941.66 2538.58 4942.66 2538.58 4943.66 2504.58 4944.66 2504.58 4945.66 2503.58 4945.66 2346.58 4946.66 2539.58 4947.66 2286.58 4948.66 2273.57 4949.66 2504.58 4950.66 2533.58 4951.66 2539.58 4951.66 2255.57 4952.66 2539.58 4953.66 2336.58 4954.66 2260.57 4955.66 2357.58 4956.66 2299.58 4956.66 2533.58 4957.66 2538.58 4958.66 2538.58 4959.66 2341.58 4960.66 2503.58 4961.66 2303.58 4962.66 2345.58 4962.66 2472.58 4963.66 2527.58 4964.66 2538.58 4965.66 2531.58 4966.66 2442.58 4967.66 2538.58 4967.66 2399.58 4968.66 2460.58 4969.66 2430.58 4970.66 2472.58 4971.66 2293.58 4972.66 2538.58 4973.66 2532.58 4973.66 2492.58 4974.66 2532.58 4975.66 2504.58 4976.66 2503.58 4977.66 2503.58 4978.66 2281.57 4978.66 2522.58 4979.66 2483.58 4980.66 2505.58 4981.66 2400.58 4982.66 2502.58 4983.66 2398.58 4984.66 2473.58 4984.66 2279.57 4985.66 2505.58 4986.66 2399.58 4987.66 2488.58 4988.66 2538.58 4989.66 2505.58 4989.66 2504.58 4990.66 2288.58 4991.66 2429.58 4992.66 2522.58 4993.66 2503.58 4994.66 2369.58 4995.66 2538.58 4995.66 2538.58 4996.66 2504.58 4997.66 2532.58 4998.66 2539.58 4999.66 2505.58 5000.66 2539.58 5000.66 2335.58 5001.66 2484.58 5002.66 2495.58 5003.66 2396.58 5004.66 2450.58 5005.66 2530.58 5005.66 2293.58 5006.66 2504.58 5007.66 2504.58 5008.66 2536.58 5009.66 2292.58 5010.66 2530.58 5011.66 2284.58 5011.66 2538.58 5012.66 2505.58 5013.67 2495.58 5014.67 2374.58 5015.67 2522.58 5016.67 2536.58 5016.67 2506.58 5017.67 2539.58 5018.67 2538.58 5019.67 2538.58 5020.67 2333.58 5021.67 2348.58 5022.67 2292.58 5022.67 2539.58 5023.67 2505.58 5024.67 2450.58 5025.67 2538.58 5026.67 2538.58 5027.67 2538.58 5027.67 2434.58 5028.67 2538.58 5029.67 2501.58 5030.67 2539.58 5031.67 2535.58 5032.67 2430.58 5033.67 2256.57 5033.67 2504.58 5034.67 2480.58 5035.67 2507.58 5036.67 2388.58 5037.67 2538.58 5038.67 2487.58 5038.67 2539.58 5039.5 2357.58" stroke="#ED7D31" stroke-width="3.4375" stroke-linecap="round" stroke-linejoin="round" stroke-miterlimit="10" fill="none"/></g><g clip-path="url(#clip6)"><text font-family="LM Roman 10,LM Roman 10_MSFontService,sans-serif" font-weight="700" font-size="64" transform="matrix(1 0 0 1 2581.52 2568)">0</text></g><g clip-path="url(#clip7)"><text font-family="LM Roman 10,LM Roman 10_MSFontService,sans-serif" font-weight="700" font-size="64" transform="matrix(1 0 0 1 2507.72 2503)">200</text></g><g clip-path="url(#clip8)"><text font-family="LM Roman 10,LM Roman 10_MSFontService,sans-serif" font-weight="700" font-size="64" transform="matrix(1 0 0 1 2507.72 2438)">400</text></g><g clip-path="url(#clip9)"><text font-family="LM Roman 10,LM Roman 10_MSFontService,sans-serif" font-weight="700" font-size="64" transform="matrix(1 0 0 1 2507.72 2373)">600</text></g><g clip-path="url(#clip10)"><text font-family="LM Roman 10,LM Roman 10_MSFontService,sans-serif" font-weight="700" font-size="64" transform="matrix(1 0 0 1 2507.72 2308)">800</text></g><g clip-path="url(#clip11)"><text font-family="LM Roman 10,LM Roman 10_MSFontService,sans-serif" font-weight="700" font-size="64" transform="matrix(1 0 0 1 2470.83 2244)">1000</text></g><g clip-path="url(#clip12)"><text font-family="LM Roman 10,LM Roman 10_MSFontService,sans-serif" font-weight="700" font-size="64" transform="matrix(1 0 0 1 2470.83 2179)">1200</text></g><g clip-path="url(#clip13)"><text font-family="LM Roman 10,LM Roman 10_MSFontService,sans-serif" font-weight="700" font-size="64" transform="matrix(1 0 0 1 2470.83 2114)">1400</text></g><g clip-path="url(#clip14)"><text font-family="LM Roman 10,LM Roman 10_MSFontService,sans-serif" font-weight="700" font-size="64" transform="matrix(1 0 0 1 2470.83 2049)">1600</text></g><g clip-path="url(#clip15)"><text font-family="LM Roman 10,LM Roman 10_MSFontService,sans-serif" font-weight="700" font-size="64" transform="matrix(1 0 0 1 2470.83 1984)">1800</text></g><g clip-path="url(#clip16)"><text font-family="LM Roman 10,LM Roman 10_MSFontService,sans-serif" font-weight="700" font-size="64" transform="matrix(1 0 0 1 2470.83 1919)">2000</text></g><g clip-path="url(#clip17)"><text font-family="LM Roman 10,LM Roman 10_MSFontService,sans-serif" font-weight="700" font-size="50" transform="matrix(0.707107 -0.707107 0.707107 0.707107 2557.98 2772)">00:00:00</text></g><g clip-path="url(#clip18)"><text font-family="LM Roman 10,LM Roman 10_MSFontService,sans-serif" font-weight="700" font-size="50" transform="matrix(0.707107 -0.707107 0.707107 0.707107 2660.27 2772)">00:00:25</text></g><g clip-path="url(#clip19)"><text font-family="LM Roman 10,LM Roman 10_MSFontService,sans-serif" font-weight="700" font-size="50" transform="matrix(0.707107 -0.707107 0.707107 0.707107 2762.57 2772)">00:00:51</text></g><g clip-path="url(#clip20)"><text font-family="LM Roman 10,LM Roman 10_MSFontService,sans-serif" font-weight="700" font-size="50" transform="matrix(0.707107 -0.707107 0.707107 0.707107 2864.86 2772)">00:01:19</text></g><g clip-path="url(#clip21)"><text font-family="LM Roman 10,LM Roman 10_MSFontService,sans-serif" font-weight="700" font-size="50" transform="matrix(0.707107 -0.707107 0.707107 0.707107 2967.16 2772)">00:01:46</text></g><g clip-path="url(#clip22)"><text font-family="LM Roman 10,LM Roman 10_MSFontService,sans-serif" font-weight="700" font-size="50" transform="matrix(0.707107 -0.707107 0.707107 0.707107 3069.46 2772)">00:02:11</text></g><g clip-path="url(#clip23)"><text font-family="LM Roman 10,LM Roman 10_MSFontService,sans-serif" font-weight="700" font-size="50" transform="matrix(0.707107 -0.707107 0.707107 0.707107 3171.75 2772)">00:02:33</text></g><g clip-path="url(#clip24)"><text font-family="LM Roman 10,LM Roman 10_MSFontService,sans-serif" font-weight="700" font-size="50" transform="matrix(0.707107 -0.707107 0.707107 0.707107 3274.05 2772)">00:03:00</text></g><g clip-path="url(#clip25)"><text font-family="LM Roman 10,LM Roman 10_MSFontService,sans-serif" font-weight="700" font-size="50" transform="matrix(0.707107 -0.707107 0.707107 0.707107 3376.34 2772)">00:03:25</text></g><g clip-path="url(#clip26)"><text font-family="LM Roman 10,LM Roman 10_MSFontService,sans-serif" font-weight="700" font-size="50" transform="matrix(0.707107 -0.707107 0.707107 0.707107 3478.64 2772)">00:03:49</text></g><g clip-path="url(#clip27)"><text font-family="LM Roman 10,LM Roman 10_MSFontService,sans-serif" font-weight="700" font-size="50" transform="matrix(0.707107 -0.707107 0.707107 0.707107 3580.93 2772)">00:04:14</text></g><g clip-path="url(#clip28)"><text font-family="LM Roman 10,LM Roman 10_MSFontService,sans-serif" font-weight="700" font-size="50" transform="matrix(0.707107 -0.707107 0.707107 0.707107 3683.23 2772)">00:04:37</text></g><g clip-path="url(#clip29)"><text font-family="LM Roman 10,LM Roman 10_MSFontService,sans-serif" font-weight="700" font-size="50" transform="matrix(0.707107 -0.707107 0.707107 0.707107 3785.52 2772)">00:05:06</text></g><g clip-path="url(#clip30)"><text font-family="LM Roman 10,LM Roman 10_MSFontService,sans-serif" font-weight="700" font-size="50" transform="matrix(0.707107 -0.707107 0.707107 0.707107 3887.82 2772)">00:05:33</text></g><g clip-path="url(#clip31)"><text font-family="LM Roman 10,LM Roman 10_MSFontService,sans-serif" font-weight="700" font-size="50" transform="matrix(0.707107 -0.707107 0.707107 0.707107 3990.11 2772)">00:06:04</text></g><g clip-path="url(#clip32)"><text font-family="LM Roman 10,LM Roman 10_MSFontService,sans-serif" font-weight="700" font-size="50" transform="matrix(0.707107 -0.707107 0.707107 0.707107 4092.41 2772)">00:06:28</text></g><g clip-path="url(#clip33)"><text font-family="LM Roman 10,LM Roman 10_MSFontService,sans-serif" font-weight="700" font-size="50" transform="matrix(0.707107 -0.707107 0.707107 0.707107 4194.7 2772)">00:06:56</text></g><g clip-path="url(#clip34)"><text font-family="LM Roman 10,LM Roman 10_MSFontService,sans-serif" font-weight="700" font-size="50" transform="matrix(0.707107 -0.707107 0.707107 0.707107 4297 2772)">00:07:20</text></g><g clip-path="url(#clip35)"><text font-family="LM Roman 10,LM Roman 10_MSFontService,sans-serif" font-weight="700" font-size="50" transform="matrix(0.707107 -0.707107 0.707107 0.707107 4399.29 2772)">00:07:45</text></g><g clip-path="url(#clip36)"><text font-family="LM Roman 10,LM Roman 10_MSFontService,sans-serif" font-weight="700" font-size="50" transform="matrix(0.707107 -0.707107 0.707107 0.707107 4501.59 2772)">00:08:14</text></g><g clip-path="url(#clip37)"><text font-family="LM Roman 10,LM Roman 10_MSFontService,sans-serif" font-weight="700" font-size="50" transform="matrix(0.707107 -0.707107 0.707107 0.707107 4603.88 2772)">00:08:39</text></g><g clip-path="url(#clip38)"><text font-family="LM Roman 10,LM Roman 10_MSFontService,sans-serif" font-weight="700" font-size="50" transform="matrix(0.707107 -0.707107 0.707107 0.707107 4706.18 2772)">00:09:02</text></g><g clip-path="url(#clip39)"><text font-family="LM Roman 10,LM Roman 10_MSFontService,sans-serif" font-weight="700" font-size="50" transform="matrix(0.707107 -0.707107 0.707107 0.707107 4808.47 2772)">00:09:27</text></g><g clip-path="url(#clip40)"><text font-family="LM Roman 10,LM Roman 10_MSFontService,sans-serif" font-weight="400" font-size="64" transform="matrix(6.12323e-17 -1 1 6.12323e-17 2392.26 2545)">Czas przetwarzania (ms)</text></g><g clip-path="url(#clip41)"><text font-family="LM Roman 10,LM Roman 10_MSFontService,sans-serif" font-weight="400" font-size="64" transform="matrix(1 0 0 1 3545.02 2918)">Czas trwania ewaluacji</text></g><g clip-path="url(#clip42)"><text font-family="LM Roman 10,LM Roman 10_MSFontService,sans-serif" font-weight="400" font-size="73" transform="matrix(1 0 0 1 2955.46 1699)">Interfejs API: NodeJS / Metoda HTTP: GET / </text></g><g clip-path="url(#clip43)"><text font-family="LM Roman 10,LM Roman 10_MSFontService,sans-serif" font-weight="400" font-size="73" transform="matrix(1 0 0 1 3425.83 1803)">Platforma: Heroku</text></g><g clip-path="url(#clip44)"><rect x="2714.5" y="1918.5" width="258" height="105" stroke="#D9D9D9" stroke-width="3.4375" stroke-linejoin="round" stroke-miterlimit="10" fill="#FFFFFF"/></g><g clip-path="url(#clip45)"><path d="M2743.5 1971.5 2831.5 1971.5" stroke="#ED7D31" stroke-width="3.4375" stroke-linecap="round" stroke-linejoin="round" stroke-miterlimit="10" fill="none" fill-rule="evenodd"/></g><g clip-path="url(#clip46)"><text font-family="LM Roman 10,LM Roman 10_MSFontService,sans-serif" font-weight="400" font-size="55" transform="matrix(1 0 0 1 2840.38 1989)">GET</text></g></g></svg>