<svg width="3407" height="1702" xmlns="http://www.w3.org/2000/svg" xmlns:xlink="http://www.w3.org/1999/xlink" xml:space="preserve" overflow="hidden"><defs><clipPath id="clip0"><rect x="1409" y="375" width="3407" height="1702"/></clipPath><clipPath id="clip1"><rect x="1409" y="374" width="3406" height="1702"/></clipPath><clipPath id="clip2"><rect x="1409" y="374" width="3406" height="1702"/></clipPath><clipPath id="clip3"><rect x="1851" y="595" width="2733" height="1079"/></clipPath><clipPath id="clip4"><rect x="1409" y="374" width="3406" height="1702"/></clipPath><clipPath id="clip5"><rect x="1409" y="374" width="3406" height="1702"/></clipPath><clipPath id="clip6"><rect x="1409" y="374" width="3406" height="1702"/></clipPath><clipPath id="clip7"><rect x="1409" y="374" width="3406" height="1702"/></clipPath><clipPath id="clip8"><rect x="1851" y="595" width="2733" height="1079"/></clipPath><clipPath id="clip9"><rect x="1409" y="374" width="3406" height="1702"/></clipPath><clipPath id="clip10"><rect x="1409" y="374" width="3406" height="1702"/></clipPath><clipPath id="clip11"><rect x="1409" y="374" width="3406" height="1702"/></clipPath><clipPath id="clip12"><rect x="1409" y="374" width="3406" height="1702"/></clipPath><clipPath id="clip13"><rect x="1409" y="374" width="3406" height="1702"/></clipPath><clipPath id="clip14"><rect x="1409" y="374" width="3406" height="1702"/></clipPath><clipPath id="clip15"><rect x="1409" y="374" width="3406" height="1702"/></clipPath><clipPath id="clip16"><rect x="1409" y="374" width="3406" height="1702"/></clipPath><clipPath id="clip17"><rect x="1409" y="374" width="3406" height="1702"/></clipPath><clipPath id="clip18"><rect x="1409" y="374" width="3406" height="1702"/></clipPath><clipPath id="clip19"><rect x="1409" y="374" width="3406" height="1702"/></clipPath><clipPath id="clip20"><rect x="1409" y="374" width="3406" height="1702"/></clipPath><clipPath id="clip21"><rect x="1409" y="374" width="3406" height="1702"/></clipPath><clipPath id="clip22"><rect x="1409" y="374" width="3406" height="1702"/></clipPath><clipPath id="clip23"><rect x="1409" y="374" width="3406" height="1702"/></clipPath><clipPath id="clip24"><rect x="1409" y="374" width="3406" height="1702"/></clipPath><clipPath id="clip25"><rect x="1409" y="374" width="3406" height="1702"/></clipPath><clipPath id="clip26"><rect x="1409" y="374" width="3406" height="1702"/></clipPath><clipPath id="clip27"><rect x="1409" y="374" width="3406" height="1702"/></clipPath><clipPath id="clip28"><rect x="1409" y="374" width="3406" height="1702"/></clipPath><clipPath id="clip29"><rect x="1409" y="374" width="3406" height="1702"/></clipPath><clipPath id="clip30"><rect x="1409" y="374" width="3406" height="1702"/></clipPath><clipPath id="clip31"><rect x="1409" y="374" width="3406" height="1702"/></clipPath><clipPath id="clip32"><rect x="1409" y="374" width="3406" height="1702"/></clipPath><clipPath id="clip33"><rect x="1409" y="374" width="3406" height="1702"/></clipPath><clipPath id="clip34"><rect x="1409" y="374" width="3406" height="1702"/></clipPath><clipPath id="clip35"><rect x="1409" y="374" width="3406" height="1702"/></clipPath><clipPath id="clip36"><rect x="1409" y="374" width="3406" height="1702"/></clipPath><clipPath id="clip37"><rect x="1409" y="374" width="3406" height="1702"/></clipPath><clipPath id="clip38"><rect x="1409" y="374" width="3406" height="1702"/></clipPath><clipPath id="clip39"><rect x="1409" y="374" width="3406" height="1702"/></clipPath><clipPath id="clip40"><rect x="1409" y="374" width="3406" height="1702"/></clipPath><clipPath id="clip41"><rect x="1409" y="374" width="3406" height="1702"/></clipPath><clipPath id="clip42"><rect x="1409" y="374" width="3406" height="1702"/></clipPath><clipPath id="clip43"><rect x="1409" y="374" width="3406" height="1702"/></clipPath><clipPath id="clip44"><rect x="1409" y="374" width="3406" height="1702"/></clipPath><clipPath id="clip45"><rect x="1409" y="374" width="3406" height="1702"/></clipPath><clipPath id="clip46"><rect x="1409" y="374" width="3406" height="1702"/></clipPath><clipPath id="clip47"><rect x="1409" y="374" width="3406" height="1702"/></clipPath><clipPath id="clip48"><rect x="1409" y="374" width="3406" height="1702"/></clipPath><clipPath id="clip49"><rect x="1409" y="374" width="3406" height="1702"/></clipPath><clipPath id="clip50"><rect x="1409" y="374" width="3406" height="1702"/></clipPath><clipPath id="clip51"><rect x="1409" y="374" width="3406" height="1702"/></clipPath><clipPath id="clip52"><rect x="1409" y="374" width="3406" height="1702"/></clipPath><clipPath id="clip53"><rect x="1409" y="374" width="3406" height="1702"/></clipPath><clipPath id="clip54"><rect x="1409" y="374" width="3406" height="1702"/></clipPath><clipPath id="clip55"><rect x="1409" y="374" width="3406" height="1702"/></clipPath></defs><g clip-path="url(#clip0)" transform="translate(-1409 -375)"><rect x="1409" y="375" width="3407" height="1702" fill="#FFFFFF"/><g clip-path="url(#clip1)"><path d="M1851.5 1517.55 4580.5 1517.55M1851.5 1363.54 4580.5 1363.54M1851.5 1210.54 4580.5 1210.54M1851.5 1056.53 4580.5 1056.53M1851.5 903.53 4580.5 903.53M1851.5 749.525 4580.5 749.525M1851.5 595.5 4580.5 595.5" stroke="#D9D9D9" stroke-width="3.4375" stroke-linejoin="round" stroke-miterlimit="10" fill="none"/></g><g clip-path="url(#clip2)"><path d="M1897.56 595.5 1897.56 1671.5M1942.56 595.5 1942.56 1671.5M1988.57 595.5 1988.57 1671.5M2033.57 595.5 2033.57 1671.5M2079.57 595.5 2079.57 1671.5M2124.57 595.5 2124.57 1671.5M2170.57 595.5 2170.57 1671.5M2215.57 595.5 2215.57 1671.5M2261.57 595.5 2261.57 1671.5M2306.58 595.5 2306.58 1671.5M2352.58 595.5 2352.58 1671.5M2397.58 595.5 2397.58 1671.5M2443.58 595.5 2443.58 1671.5M2488.58 595.5 2488.58 1671.5M2533.58 595.5 2533.58 1671.5M2579.58 595.5 2579.58 1671.5M2624.59 595.5 2624.59 1671.5M2670.59 595.5 2670.59 1671.5M2715.59 595.5 2715.59 1671.5M2761.59 595.5 2761.59 1671.5M2806.59 595.5 2806.59 1671.5M2852.59 595.5 2852.59 1671.5M2897.6 595.5 2897.6 1671.5M2943.6 595.5 2943.6 1671.5M2988.6 595.5 2988.6 1671.5M3034.6 595.5 3034.6 1671.5M3079.6 595.5 3079.6 1671.5M3125.6 595.5 3125.6 1671.5M3170.6 595.5 3170.6 1671.5M3216.61 595.5 3216.61 1671.5M3261.61 595.5 3261.61 1671.5M3307.61 595.5 3307.61 1671.5M3352.61 595.5 3352.61 1671.5M3398.61 595.5 3398.61 1671.5M3443.61 595.5 3443.61 1671.5M3489.61 595.5 3489.61 1671.5M3534.62 595.5 3534.62 1671.5M3580.62 595.5 3580.62 1671.5M3625.62 595.5 3625.62 1671.5M3671.62 595.5 3671.62 1671.5M3716.62 595.5 3716.62 1671.5M3762.62 595.5 3762.62 1671.5M3807.62 595.5 3807.62 1671.5M3852.63 595.5 3852.63 1671.5M3898.63 595.5 3898.63 1671.5M3943.63 595.5 3943.63 1671.5M3989.63 595.5 3989.63 1671.5M4034.63 595.5 4034.63 1671.5M4080.63 595.5 4080.63 1671.5M4125.64 595.5 4125.64 1671.5M4171.64 595.5 4171.64 1671.5M4216.64 595.5 4216.64 1671.5M4262.64 595.5 4262.64 1671.5M4307.64 595.5 4307.64 1671.5M4353.64 595.5 4353.64 1671.5M4398.64 595.5 4398.64 1671.5M4444.65 595.5 4444.65 1671.5M4489.65 595.5 4489.65 1671.5M4535.65 595.5 4535.65 1671.5M4580.5 595.5 4580.5 1671.5" stroke="#D9D9D9" stroke-width="3.4375" stroke-linejoin="round" stroke-miterlimit="10" fill="none"/></g><g clip-path="url(#clip3)"><path d="M2684.09 1625.05 2702.09 1625.05 2702.09 1671 2684.09 1671ZM2730.09 1610.05 2748.09 1610.05 2748.09 1671 2730.09 1671ZM2775.09 1594.05 2793.09 1594.05 2793.09 1671 2775.09 1671ZM2821.09 1579.05 2839.09 1579.05 2839.09 1671 2821.09 1671ZM2866.09 1594.05 2884.09 1594.05 2884.09 1671 2866.09 1671ZM2911.1 1579.05 2930.1 1579.05 2930.1 1671 2911.1 1671ZM2957.1 1564.05 2975.1 1564.05 2975.1 1671 2957.1 1671ZM3002.1 1564.05 3021.1 1564.05 3021.1 1671 3002.1 1671ZM3048.1 1548.05 3066.1 1548.05 3066.1 1671 3048.1 1671ZM3093.1 1533.05 3112.1 1533.05 3112.1 1671 3093.1 1671ZM3139.1 1579.05 3157.1 1579.05 3157.1 1671 3139.1 1671ZM3184.1 1502.05 3203.1 1502.05 3203.1 1671 3184.1 1671ZM3230.11 1471.05 3248.11 1471.05 3248.11 1671 3230.11 1671ZM3275.11 1441.05 3294.11 1441.05 3294.11 1671 3275.11 1671ZM3321.11 1425.05 3339.11 1425.05 3339.11 1671 3321.11 1671ZM3366.11 1379.05 3385.11 1379.05 3385.11 1671 3366.11 1671ZM3412.11 1425.05 3430.11 1425.05 3430.11 1671 3412.11 1671ZM3457.11 1395.05 3475.11 1395.05 3475.11 1671 3457.11 1671ZM3503.11 1333.04 3521.12 1333.04 3521.12 1671 3503.11 1671ZM3548.12 1364.04 3566.12 1364.04 3566.12 1671 3548.12 1671ZM3594.12 1302.04 3612.12 1302.04 3612.12 1671 3594.12 1671ZM3639.12 1318.04 3657.12 1318.04 3657.12 1671 3639.12 1671ZM3685.12 1272.04 3703.12 1272.04 3703.12 1671 3685.12 1671ZM3730.12 1195.04 3748.12 1195.04 3748.12 1671 3730.12 1671ZM3776.12 1164.04 3794.12 1164.04 3794.12 1671 3776.12 1671ZM3821.13 1149.04 3839.13 1149.04 3839.13 1671 3821.13 1671ZM3867.13 1118.04 3885.13 1118.04 3885.13 1671 3867.13 1671ZM3912.13 1072.04 3930.13 1072.04 3930.13 1671 3912.13 1671ZM3958.13 1026.03 3976.13 1026.03 3976.13 1671 3958.13 1671ZM4003.13 1011.03 4021.13 1011.03 4021.13 1671 4003.13 1671ZM4049.13 949.031 4067.13 949.031 4067.13 1671 4049.13 1671ZM4094.13 918.03 4112.13 918.03 4112.13 1671 4094.13 1671ZM4140.14 872.029 4158.14 872.029 4158.14 1671 4140.14 1671ZM4185.14 857.028 4203.14 857.028 4203.14 1671 4185.14 1671ZM4230.14 842.028 4249.14 842.028 4249.14 1671 4230.14 1671ZM4276.14 811.027 4294.14 811.027 4294.14 1671 4276.14 1671ZM4321.14 842.028 4340.14 842.028 4340.14 1671 4321.14 1671ZM4367.14 872.029 4385.14 872.029 4385.14 1671 4367.14 1671ZM4412.14 780.026 4431.15 780.026 4431.15 1671 4412.14 1671ZM4458.15 811.027 4476.15 811.027 4476.15 1671 4458.15 1671ZM4503.15 765.025 4522.15 765.025 4522.15 1671 4503.15 1671ZM4549.15 719.024 4567.15 719.024 4567.15 1671 4549.15 1671Z" fill="#D9D9D9"/></g><g clip-path="url(#clip4)"><path d="M0 0 0.000360892 1076" stroke="#BFBFBF" stroke-width="3.4375" stroke-linejoin="round" stroke-miterlimit="10" fill="none" fill-rule="evenodd" transform="matrix(1 0 0 -1 4580.5 1671.5)"/></g><g clip-path="url(#clip5)"><path d="M4580.5 1671.5 4605.5 1671.5M4580.5 1517.55 4605.5 1517.55M4580.5 1363.54 4605.5 1363.54M4580.5 1210.54 4605.5 1210.54M4580.5 1056.53 4605.5 1056.53M4580.5 903.53 4605.5 903.53M4580.5 749.525 4605.5 749.525M4580.5 595.5 4605.5 595.5" stroke="#BFBFBF" stroke-width="3.4375" stroke-linejoin="round" stroke-miterlimit="10" fill="none"/></g><g clip-path="url(#clip6)"><path d="M0 0 0.000360892 1076" stroke="#BFBFBF" stroke-width="3.4375" stroke-linejoin="round" stroke-miterlimit="10" fill="none" fill-rule="evenodd" transform="matrix(1 0 0 -1 1851.5 1671.5)"/></g><g clip-path="url(#clip7)"><path d="M1851.5 1671.5 4580.5 1671.5" stroke="#BFBFBF" stroke-width="3.4375" stroke-linejoin="round" stroke-miterlimit="10" fill="none" fill-rule="evenodd"/></g><g clip-path="url(#clip8)"><path d="M1874.5 1663.5 1919.56 1661.55 1965.56 1660.55 2010.57 1657.55 2056.57 1660.55 2101.57 1654.55 2147.57 1657.55 2192.57 1650.55 2238.57 1658.55 2283.58 1659.55 2329.58 1644.55 2374.58 1636.55 2420.58 1635.55 2465.58 1633.55 2511.58 1628.55 2556.58 1623.55 2602.59 1631.55 2647.59 1619.55 2693.59 1631.55 2738.59 1625.55 2784.59 1607.55 2829.59 1616.55 2875.59 1600.55 2920.6 1596.55 2966.6 1592.55 3011.6 1587.55 3057.6 1588.55 3102.6 1587.55 3148.6 1585.55 3193.6 1576.55 3238.61 1576.55 3284.61 1583.55 3329.61 1554.55 3375.61 1552.55 3420.61 1548.55 3466.61 1546.55 3511.62 1539.55 3557.62 1540.55 3602.62 1544.55 3648.62 1540.55 3693.62 1524.55 3739.62 1522.55 3784.62 1523.55 3830.63 1510.55 3875.63 1426.55 3921.63 1424.55 3966.63 1372.55 4012.63 1337.54 4057.63 1260.54 4103.63 1221.54 4148.64 1185.54 4194.64 1045.53 4239.64 1091.54 4285.64 875.529 4330.64 747.5 4376.64 1031.53 4421.65 976.532 4466.65 948.531 4512.65 935.531 4558.5 909.53" stroke="#4472C4" stroke-width="6.875" stroke-linecap="round" stroke-linejoin="round" stroke-miterlimit="10" fill="none"/></g><g clip-path="url(#clip9)"><text font-family="LM Roman 10,LM Roman 10_MSFontService,sans-serif" font-weight="700" font-size="64" transform="matrix(1 0 0 1 4650.86 1691)">0%</text></g><g clip-path="url(#clip10)"><text font-family="LM Roman 10,LM Roman 10_MSFontService,sans-serif" font-weight="700" font-size="64" transform="matrix(1 0 0 1 4650.86 1538)">10%</text></g><g clip-path="url(#clip11)"><text font-family="LM Roman 10,LM Roman 10_MSFontService,sans-serif" font-weight="700" font-size="64" transform="matrix(1 0 0 1 4650.86 1384)">20%</text></g><g clip-path="url(#clip12)"><text font-family="LM Roman 10,LM Roman 10_MSFontService,sans-serif" font-weight="700" font-size="64" transform="matrix(1 0 0 1 4650.86 1231)">30%</text></g><g clip-path="url(#clip13)"><text font-family="LM Roman 10,LM Roman 10_MSFontService,sans-serif" font-weight="700" font-size="64" transform="matrix(1 0 0 1 4650.86 1077)">40%</text></g><g clip-path="url(#clip14)"><text font-family="LM Roman 10,LM Roman 10_MSFontService,sans-serif" font-weight="700" font-size="64" transform="matrix(1 0 0 1 4650.86 923)">50%</text></g><g clip-path="url(#clip15)"><text font-family="LM Roman 10,LM Roman 10_MSFontService,sans-serif" font-weight="700" font-size="64" transform="matrix(1 0 0 1 4650.86 770)">60%</text></g><g clip-path="url(#clip16)"><text font-family="LM Roman 10,LM Roman 10_MSFontService,sans-serif" font-weight="700" font-size="64" transform="matrix(1 0 0 1 4650.86 616)">70%</text></g><g clip-path="url(#clip17)"><text font-family="LM Roman 10,LM Roman 10_MSFontService,sans-serif" font-weight="700" font-size="64" transform="matrix(1 0 0 1 1744.9 1691)">0</text></g><g clip-path="url(#clip18)"><text font-family="LM Roman 10,LM Roman 10_MSFontService,sans-serif" font-weight="700" font-size="64" transform="matrix(1 0 0 1 1634.21 1538)">2000</text></g><g clip-path="url(#clip19)"><text font-family="LM Roman 10,LM Roman 10_MSFontService,sans-serif" font-weight="700" font-size="64" transform="matrix(1 0 0 1 1634.21 1384)">4000</text></g><g clip-path="url(#clip20)"><text font-family="LM Roman 10,LM Roman 10_MSFontService,sans-serif" font-weight="700" font-size="64" transform="matrix(1 0 0 1 1634.21 1231)">6000</text></g><g clip-path="url(#clip21)"><text font-family="LM Roman 10,LM Roman 10_MSFontService,sans-serif" font-weight="700" font-size="64" transform="matrix(1 0 0 1 1634.21 1077)">8000</text></g><g clip-path="url(#clip22)"><text font-family="LM Roman 10,LM Roman 10_MSFontService,sans-serif" font-weight="700" font-size="64" transform="matrix(1 0 0 1 1597.31 923)">10000</text></g><g clip-path="url(#clip23)"><text font-family="LM Roman 10,LM Roman 10_MSFontService,sans-serif" font-weight="700" font-size="64" transform="matrix(1 0 0 1 1597.31 770)">12000</text></g><g clip-path="url(#clip24)"><text font-family="LM Roman 10,LM Roman 10_MSFontService,sans-serif" font-weight="700" font-size="64" transform="matrix(1 0 0 1 1597.31 616)">14000</text></g><g clip-path="url(#clip25)"><text font-family="LM Roman 10,LM Roman 10_MSFontService,sans-serif" font-weight="700" font-size="64" transform="matrix(0.707107 -0.707107 0.707107 0.707107 1841.62 1823)">10</text></g><g clip-path="url(#clip26)"><text font-family="LM Roman 10,LM Roman 10_MSFontService,sans-serif" font-weight="700" font-size="64" transform="matrix(0.707107 -0.707107 0.707107 0.707107 1951.98 1849)">255</text></g><g clip-path="url(#clip27)"><text font-family="LM Roman 10,LM Roman 10_MSFontService,sans-serif" font-weight="700" font-size="64" transform="matrix(0.707107 -0.707107 0.707107 0.707107 2088.43 1849)">510</text></g><g clip-path="url(#clip28)"><text font-family="LM Roman 10,LM Roman 10_MSFontService,sans-serif" font-weight="700" font-size="64" transform="matrix(0.707107 -0.707107 0.707107 0.707107 2224.88 1849)">765</text></g><g clip-path="url(#clip29)"><text font-family="LM Roman 10,LM Roman 10_MSFontService,sans-serif" font-weight="700" font-size="64" transform="matrix(0.707107 -0.707107 0.707107 0.707107 2335.24 1876)">1020</text></g><g clip-path="url(#clip30)"><text font-family="LM Roman 10,LM Roman 10_MSFontService,sans-serif" font-weight="700" font-size="64" transform="matrix(0.707107 -0.707107 0.707107 0.707107 2471.69 1876)">1275</text></g><g clip-path="url(#clip31)"><text font-family="LM Roman 10,LM Roman 10_MSFontService,sans-serif" font-weight="700" font-size="64" transform="matrix(0.707107 -0.707107 0.707107 0.707107 2608.14 1876)">1530</text></g><g clip-path="url(#clip32)"><text font-family="LM Roman 10,LM Roman 10_MSFontService,sans-serif" font-weight="700" font-size="64" transform="matrix(0.707107 -0.707107 0.707107 0.707107 2744.59 1876)">1785</text></g><g clip-path="url(#clip33)"><text font-family="LM Roman 10,LM Roman 10_MSFontService,sans-serif" font-weight="700" font-size="64" transform="matrix(0.707107 -0.707107 0.707107 0.707107 2881.04 1876)">2040</text></g><g clip-path="url(#clip34)"><text font-family="LM Roman 10,LM Roman 10_MSFontService,sans-serif" font-weight="700" font-size="64" transform="matrix(0.707107 -0.707107 0.707107 0.707107 3017.49 1876)">2295</text></g><g clip-path="url(#clip35)"><text font-family="LM Roman 10,LM Roman 10_MSFontService,sans-serif" font-weight="700" font-size="64" transform="matrix(0.707107 -0.707107 0.707107 0.707107 3153.94 1876)">2550</text></g><g clip-path="url(#clip36)"><text font-family="LM Roman 10,LM Roman 10_MSFontService,sans-serif" font-weight="700" font-size="64" transform="matrix(0.707107 -0.707107 0.707107 0.707107 3290.39 1876)">2805</text></g><g clip-path="url(#clip37)"><text font-family="LM Roman 10,LM Roman 10_MSFontService,sans-serif" font-weight="700" font-size="64" transform="matrix(0.707107 -0.707107 0.707107 0.707107 3426.84 1876)">3060</text></g><g clip-path="url(#clip38)"><text font-family="LM Roman 10,LM Roman 10_MSFontService,sans-serif" font-weight="700" font-size="64" transform="matrix(0.707107 -0.707107 0.707107 0.707107 3563.29 1876)">3315</text></g><g clip-path="url(#clip39)"><text font-family="LM Roman 10,LM Roman 10_MSFontService,sans-serif" font-weight="700" font-size="64" transform="matrix(0.707107 -0.707107 0.707107 0.707107 3699.74 1876)">3570</text></g><g clip-path="url(#clip40)"><text font-family="LM Roman 10,LM Roman 10_MSFontService,sans-serif" font-weight="700" font-size="64" transform="matrix(0.707107 -0.707107 0.707107 0.707107 3836.19 1876)">3825</text></g><g clip-path="url(#clip41)"><text font-family="LM Roman 10,LM Roman 10_MSFontService,sans-serif" font-weight="700" font-size="64" transform="matrix(0.707107 -0.707107 0.707107 0.707107 3972.64 1876)">4080</text></g><g clip-path="url(#clip42)"><text font-family="LM Roman 10,LM Roman 10_MSFontService,sans-serif" font-weight="700" font-size="64" transform="matrix(0.707107 -0.707107 0.707107 0.707107 4109.09 1876)">4335</text></g><g clip-path="url(#clip43)"><text font-family="LM Roman 10,LM Roman 10_MSFontService,sans-serif" font-weight="700" font-size="64" transform="matrix(0.707107 -0.707107 0.707107 0.707107 4245.54 1876)">4590</text></g><g clip-path="url(#clip44)"><text font-family="LM Roman 10,LM Roman 10_MSFontService,sans-serif" font-weight="700" font-size="64" transform="matrix(0.707107 -0.707107 0.707107 0.707107 4381.98 1876)">4845</text></g><g clip-path="url(#clip45)"><text font-family="LM Roman 10,LM Roman 10_MSFontService,sans-serif" font-weight="400" font-size="83" transform="matrix(6.12323e-17 -1 1 6.12323e-17 1516.27 1703)">Średni czas odpowiedzi (ms)</text></g><g clip-path="url(#clip46)"><text font-family="LM Roman 10,LM Roman 10_MSFontService,sans-serif" font-weight="400" font-size="83" transform="matrix(1 0 0 1 2425.93 2046)">Liczba współbieżnie działających wątków</text></g><g clip-path="url(#clip47)"><text font-family="LM Roman 10,LM Roman 10_MSFontService,sans-serif" font-weight="700" font-size="78" transform="matrix(1 0 0 1 1898.43 497)">Interfejs API: </text></g><g clip-path="url(#clip48)"><text font-family="LM Roman 10,LM Roman 10_MSFontService,sans-serif" font-weight="400" font-size="78" transform="matrix(1 0 0 1 2471.11 497)">C# .NET API</text></g><g clip-path="url(#clip49)"><text font-family="LM Roman 10,LM Roman 10_MSFontService,sans-serif" font-weight="700" font-size="78" transform="matrix(1 0 0 1 2973.17 497)">. Punkt końcowy: </text></g><g clip-path="url(#clip50)"><text font-family="LM Roman 10,LM Roman 10_MSFontService,sans-serif" font-weight="400" font-size="78" transform="matrix(1 0 0 1 3688.93 497)">GET /API/BILLS</text></g><g clip-path="url(#clip51)"><rect x="1867.5" y="614.5" width="1132" height="235" stroke="#BFBFBF" stroke-width="3.4375" stroke-linejoin="round" stroke-miterlimit="10" fill="#FFFFFF"/></g><g clip-path="url(#clip52)"><rect x="1889" y="653" width="88" height="40.9999" fill="#D9D9D9"/></g><g clip-path="url(#clip53)"><text font-family="LM Roman 10,LM Roman 10_MSFontService,sans-serif" font-weight="400" font-size="64" transform="matrix(1 0 0 1 1985.99 693)">Procent niepoprawnych odpowiedzi</text></g><g clip-path="url(#clip54)"><path d="M1888.5 791.5 1976.5 791.501" stroke="#4472C4" stroke-width="6.875" stroke-linecap="round" stroke-linejoin="round" stroke-miterlimit="10" fill="none" fill-rule="evenodd"/></g><g clip-path="url(#clip55)"><text font-family="LM Roman 10,LM Roman 10_MSFontService,sans-serif" font-weight="400" font-size="64" transform="matrix(1 0 0 1 1985.99 811)">SQL Server</text></g></g></svg>