<svg width="3407" height="1702" xmlns="http://www.w3.org/2000/svg" xmlns:xlink="http://www.w3.org/1999/xlink" xml:space="preserve" overflow="hidden"><defs><clipPath id="clip0"><rect x="2540" y="217" width="3407" height="1702"/></clipPath><clipPath id="clip1"><rect x="2540" y="216" width="3406" height="1702"/></clipPath><clipPath id="clip2"><rect x="2540" y="216" width="3406" height="1702"/></clipPath><clipPath id="clip3"><rect x="2540" y="216" width="3406" height="1702"/></clipPath><clipPath id="clip4"><rect x="2540" y="216" width="3406" height="1702"/></clipPath><clipPath id="clip5"><rect x="2982" y="437" width="2825" height="1156"/></clipPath><clipPath id="clip6"><rect x="2982" y="437" width="2825" height="1156"/></clipPath><clipPath id="clip7"><rect x="2982" y="437" width="2825" height="1156"/></clipPath><clipPath id="clip8"><rect x="2982" y="437" width="2825" height="1156"/></clipPath><clipPath id="clip9"><rect x="2982" y="437" width="2825" height="1156"/></clipPath><clipPath id="clip10"><rect x="2540" y="216" width="3406" height="1702"/></clipPath><clipPath id="clip11"><rect x="2540" y="216" width="3406" height="1702"/></clipPath><clipPath id="clip12"><rect x="2540" y="216" width="3406" height="1702"/></clipPath><clipPath id="clip13"><rect x="2540" y="216" width="3406" height="1702"/></clipPath><clipPath id="clip14"><rect x="2540" y="216" width="3406" height="1702"/></clipPath><clipPath id="clip15"><rect x="2540" y="216" width="3406" height="1702"/></clipPath><clipPath id="clip16"><rect x="2540" y="216" width="3406" height="1702"/></clipPath><clipPath id="clip17"><rect x="2540" y="216" width="3406" height="1702"/></clipPath><clipPath id="clip18"><rect x="2540" y="216" width="3406" height="1702"/></clipPath><clipPath id="clip19"><rect x="2540" y="216" width="3406" height="1702"/></clipPath><clipPath id="clip20"><rect x="2540" y="216" width="3406" height="1702"/></clipPath><clipPath id="clip21"><rect x="2540" y="216" width="3406" height="1702"/></clipPath><clipPath id="clip22"><rect x="2540" y="216" width="3406" height="1702"/></clipPath><clipPath id="clip23"><rect x="2540" y="216" width="3406" height="1702"/></clipPath><clipPath id="clip24"><rect x="2540" y="216" width="3406" height="1702"/></clipPath><clipPath id="clip25"><rect x="2540" y="216" width="3406" height="1702"/></clipPath><clipPath id="clip26"><rect x="2540" y="216" width="3406" height="1702"/></clipPath><clipPath id="clip27"><rect x="2540" y="216" width="3406" height="1702"/></clipPath><clipPath id="clip28"><rect x="2540" y="216" width="3406" height="1702"/></clipPath><clipPath id="clip29"><rect x="2540" y="216" width="3406" height="1702"/></clipPath><clipPath id="clip30"><rect x="2540" y="216" width="3406" height="1702"/></clipPath><clipPath id="clip31"><rect x="2540" y="216" width="3406" height="1702"/></clipPath><clipPath id="clip32"><rect x="2540" y="216" width="3406" height="1702"/></clipPath><clipPath id="clip33"><rect x="2540" y="216" width="3406" height="1702"/></clipPath><clipPath id="clip34"><rect x="2540" y="216" width="3406" height="1702"/></clipPath><clipPath id="clip35"><rect x="2540" y="216" width="3406" height="1702"/></clipPath><clipPath id="clip36"><rect x="2540" y="216" width="3406" height="1702"/></clipPath><clipPath id="clip37"><rect x="2540" y="216" width="3406" height="1702"/></clipPath><clipPath id="clip38"><rect x="2540" y="216" width="3406" height="1702"/></clipPath><clipPath id="clip39"><rect x="2540" y="216" width="3406" height="1702"/></clipPath><clipPath id="clip40"><rect x="2540" y="216" width="3406" height="1702"/></clipPath><clipPath id="clip41"><rect x="2540" y="216" width="3406" height="1702"/></clipPath><clipPath id="clip42"><rect x="2540" y="216" width="3406" height="1702"/></clipPath><clipPath id="clip43"><rect x="2540" y="216" width="3406" height="1702"/></clipPath><clipPath id="clip44"><rect x="2540" y="216" width="3406" height="1702"/></clipPath><clipPath id="clip45"><rect x="2540" y="216" width="3406" height="1702"/></clipPath><clipPath id="clip46"><rect x="2540" y="216" width="3406" height="1702"/></clipPath><clipPath id="clip47"><rect x="2540" y="216" width="3406" height="1702"/></clipPath><clipPath id="clip48"><rect x="2540" y="216" width="3406" height="1702"/></clipPath></defs><g clip-path="url(#clip0)" transform="translate(-2540 -217)"><rect x="2540" y="217" width="3407" height="1702" fill="#FFFFFF"/><g clip-path="url(#clip1)"><path d="M2982.5 1475.55 5804.5 1475.55M2982.5 1359.54 5804.5 1359.54M2982.5 1244.54 5804.5 1244.54M2982.5 1129.54 5804.5 1129.54M2982.5 1014.53 5804.5 1014.53M2982.5 898.53 5804.5 898.53M2982.5 783.526 5804.5 783.526M2982.5 668.522 5804.5 668.522M2982.5 553.518 5804.5 553.518M2982.5 437.5 5804.5 437.5" stroke="#D9D9D9" stroke-width="3.4375" stroke-linejoin="round" stroke-miterlimit="10" fill="none"/></g><g clip-path="url(#clip2)"><path d="M3264.61 437.5 3264.61 1590.5M3546.62 437.5 3546.62 1590.5M3829.63 437.5 3829.63 1590.5M4111.63 437.5 4111.63 1590.5M4393.64 437.5 4393.64 1590.5M4675.65 437.5 4675.65 1590.5M4957.66 437.5 4957.66 1590.5M5239.67 437.5 5239.67 1590.5M5521.68 437.5 5521.68 1590.5M5804.5 437.5 5804.5 1590.5" stroke="#D9D9D9" stroke-width="3.4375" stroke-linejoin="round" stroke-miterlimit="10" fill="none"/></g><g clip-path="url(#clip3)"><path d="M0 0 0.000360892 1153" stroke="#BFBFBF" stroke-width="3.4375" stroke-linejoin="round" stroke-miterlimit="10" fill="none" fill-rule="evenodd" transform="matrix(1 0 0 -1 2982.5 1590.5)"/></g><g clip-path="url(#clip4)"><path d="M2982.5 1590.5 5804.5 1590.5" stroke="#BFBFBF" stroke-width="3.4375" stroke-linejoin="round" stroke-miterlimit="10" fill="none" fill-rule="evenodd"/></g><g clip-path="url(#clip5)"><path d="M2988.5 1586.5 3031.6 1581.55 3078.6 1571.55 3126.6 1565.55 3174.6 1558.55 3222.61 1555.55 3270.61 1519.55 3318.61 1499.55 3366.61 1484.55 3414.61 1449.55 3462.61 1438.55 3510.62 1435.55 3558.62 1434.55 3606.62 1417.55 3654.62 1375.55 3702.62 1373.55 3750.62 1367.55 3798.62 1347.54 3846.63 1341.54 3893.63 1330.54 3941.63 1327.54 3989.63 1289.54 4037.63 1262.54 4085.63 1234.54 4133.64 1224.54 4181.64 1187.54 4229.64 1175.54 4277.64 1144.54 4325.64 1142.54 4373.64 1137.54 4421.65 1136.54 4469.65 1108.54 4517.65 1069.54 4565.65 1064.54 4613.65 1057.53 4661.65 968.532 4709.65 957.532 4757.66 947.531 4805.66 943.531 4853.66 896.53 4901.66 889.529 4949.66 879.529 4997.66 871.529 5045.67 859.528 5093.67 847.528 5140.67 816.527 5188.67 784.526 5236.67 772.526 5284.67 770.525 5332.67 770.525 5380.68 756.525 5428.68 753.525 5476.68 760.525 5524.68 742.525 5572.68 719.524 5620.68 725.524 5668.69 720.524 5716.69 712.524 5764.69 695.5 5804.5 752.525" stroke="#A5A5A5" stroke-width="6.875" stroke-linecap="round" stroke-linejoin="round" stroke-miterlimit="10" fill="none"/></g><g clip-path="url(#clip6)"><path d="M2988.5 1556.5 3031.6 1493.55 3078.6 1482.55 3126.6 1475.55 3174.6 1450.55 3222.61 1423.55 3270.61 1373.55 3318.61 1359.54 3366.61 1327.54 3414.61 1323.54 3462.61 1257.54 3510.62 1247.54 3558.62 1243.54 3606.62 1242.54 3654.62 1214.54 3702.62 1205.54 3750.62 1204.54 3798.62 1171.54 3846.63 1159.54 3893.63 1140.54 3941.63 1105.54 3989.63 1100.54 4037.63 1094.54 4085.63 1057.53 4133.64 1042.53 4181.64 1016.53 4229.64 1008.53 4277.64 957.532 4325.64 952.531 4373.64 943.531 4421.65 929.531 4469.65 925.531 4517.65 895.53 4565.65 892.529 4613.65 887.529 4661.65 854.528 4709.65 800.526 4757.66 792.526 4805.66 772.526 4853.66 770.525 4901.66 770.525 4949.66 769.525 4997.66 766.525 5045.67 761.525 5093.67 760.525 5140.67 760.525 5188.67 736.524 5236.67 731.524 5284.67 725.524 5332.67 719.524 5380.68 704.523 5428.68 693.523 5476.68 662.522 5524.68 651.522 5572.68 637.521 5620.68 623.521 5668.69 614.52 5716.69 613.52 5764.69 610.52 5804.5 603.5" stroke="#ED7D31" stroke-width="6.875" stroke-linecap="round" stroke-linejoin="round" stroke-miterlimit="10" fill="none"/></g><g clip-path="url(#clip7)"><path d="M2988.5 1525.5 3031.6 1523.55 3078.6 1482.55 3126.6 1470.55 3174.6 1457.55 3222.61 1455.55 3270.61 1444.55 3318.61 1403.55 3366.61 1389.55 3414.61 1384.55 3462.61 1369.55 3510.62 1357.54 3558.62 1345.54 3606.62 1341.54 3654.62 1333.54 3702.62 1319.54 3750.62 1319.54 3798.62 1312.54 3846.63 1281.54 3893.63 1263.54 3941.63 1248.54 3989.63 1246.54 4037.63 1226.54 4085.63 1215.54 4133.64 1180.54 4181.64 1144.54 4229.64 1126.54 4277.64 1123.54 4325.64 1114.54 4373.64 1111.54 4421.65 1104.54 4469.65 1091.54 4517.65 1090.54 4565.65 1077.54 4613.65 1070.54 4661.65 1015.53 4709.65 991.533 4757.66 983.532 4805.66 979.532 4853.66 955.531 4901.66 946.531 4949.66 946.531 4997.66 942.531 5045.67 917.53 5093.67 867.529 5140.67 855.528 5188.67 855.528 5236.67 837.528 5284.67 822.527 5332.67 788.526 5380.68 779.526 5428.68 768.525 5476.68 726.524 5524.68 694.523 5572.68 681.523 5620.68 630.521 5668.69 602.52 5716.69 577.519 5764.69 571.519 5804.5 562.5" stroke="#4472C4" stroke-width="6.875" stroke-linecap="round" stroke-linejoin="round" stroke-miterlimit="10" fill="none"/></g><g clip-path="url(#clip8)"><path d="M2988.5 1571.5 3031.6 1534.55 3078.6 1531.55 3126.6 1475.55 3174.6 1434.55 3222.61 1423.55 3270.61 1412.55 3318.61 1398.55 3366.61 1396.55 3414.61 1391.55 3462.61 1387.55 3510.62 1360.54 3558.62 1345.54 3606.62 1331.54 3654.62 1329.54 3702.62 1292.54 3750.62 1284.54 3798.62 1281.54 3846.63 1274.54 3893.63 1250.54 3941.63 1248.54 3989.63 1247.54 4037.63 1226.54 4085.63 1219.54 4133.64 1213.54 4181.64 1213.54 4229.64 1203.54 4277.64 1178.54 4325.64 1126.54 4373.64 1126.54 4421.65 1113.54 4469.65 1084.54 4517.65 1052.53 4565.65 1048.53 4613.65 1021.53 4661.65 1015.53 4709.65 990.533 4757.66 990.533 4805.66 976.532 4853.66 960.532 4901.66 949.531 4949.66 942.531 4997.66 935.531 5045.67 935.531 5093.67 909.53 5140.67 909.53 5188.67 893.53 5236.67 799.526 5284.67 729.524 5332.67 681.523 5380.68 668.522 5428.68 668.522 5476.68 646.521 5524.68 640.521 5572.68 629.521 5620.68 626.521 5668.69 612.52 5716.69 606.52 5764.69 593.52 5804.5 558.5" stroke="#FFC000" stroke-width="6.875" stroke-linecap="round" stroke-linejoin="round" stroke-miterlimit="10" fill="none"/></g><g clip-path="url(#clip9)"><path d="M2988.5 1582.5 3031.6 1580.55 3078.6 1579.55 3126.6 1575.55 3174.6 1578.55 3222.61 1570.55 3270.61 1576.55 3318.61 1562.55 3366.61 1574.55 3414.61 1576.55 3462.61 1553.55 3510.62 1543.55 3558.62 1540.55 3606.62 1538.55 3654.62 1531.55 3702.62 1524.55 3750.62 1535.55 3798.62 1517.55 3846.63 1535.55 3893.63 1524.55 3941.63 1499.55 3989.63 1513.55 4037.63 1489.55 4085.63 1483.55 4133.64 1487.55 4181.64 1491.55 4229.64 1498.55 4277.64 1490.55 4325.64 1502.55 4373.64 1473.55 4421.65 1489.55 4469.65 1484.55 4517.65 1440.55 4565.65 1437.55 4613.65 1445.55 4661.65 1442.55 4709.65 1438.55 4757.66 1423.55 4805.66 1436.55 4853.66 1424.55 4901.66 1410.55 4949.66 1409.55 4997.66 1411.55 5045.67 1387.55 5093.67 1350.54 5140.67 1322.54 5188.67 1261.54 5236.67 1229.54 5284.67 1002.53 5332.67 939.531 5380.68 905.53 5428.68 912.53 5476.68 928.531 5524.68 934.531 5572.68 948.531 5620.68 937.531 5668.69 922.53 5716.69 896.53 5764.69 879.5 5804.5 894.53" stroke="#5B9BD5" stroke-width="6.875" stroke-linecap="round" stroke-linejoin="round" stroke-miterlimit="10" fill="none"/></g><g clip-path="url(#clip10)"><text font-family="LM Roman 10,LM Roman 10_MSFontService,sans-serif" font-weight="700" font-size="64" transform="matrix(1 0 0 1 2875.83 1611)">0</text></g><g clip-path="url(#clip11)"><text font-family="LM Roman 10,LM Roman 10_MSFontService,sans-serif" font-weight="700" font-size="64" transform="matrix(1 0 0 1 2765.15 1496)">1000</text></g><g clip-path="url(#clip12)"><text font-family="LM Roman 10,LM Roman 10_MSFontService,sans-serif" font-weight="700" font-size="64" transform="matrix(1 0 0 1 2765.15 1380)">2000</text></g><g clip-path="url(#clip13)"><text font-family="LM Roman 10,LM Roman 10_MSFontService,sans-serif" font-weight="700" font-size="64" transform="matrix(1 0 0 1 2765.15 1265)">3000</text></g><g clip-path="url(#clip14)"><text font-family="LM Roman 10,LM Roman 10_MSFontService,sans-serif" font-weight="700" font-size="64" transform="matrix(1 0 0 1 2765.15 1150)">4000</text></g><g clip-path="url(#clip15)"><text font-family="LM Roman 10,LM Roman 10_MSFontService,sans-serif" font-weight="700" font-size="64" transform="matrix(1 0 0 1 2765.15 1034)">5000</text></g><g clip-path="url(#clip16)"><text font-family="LM Roman 10,LM Roman 10_MSFontService,sans-serif" font-weight="700" font-size="64" transform="matrix(1 0 0 1 2765.15 919)">6000</text></g><g clip-path="url(#clip17)"><text font-family="LM Roman 10,LM Roman 10_MSFontService,sans-serif" font-weight="700" font-size="64" transform="matrix(1 0 0 1 2765.15 804)">7000</text></g><g clip-path="url(#clip18)"><text font-family="LM Roman 10,LM Roman 10_MSFontService,sans-serif" font-weight="700" font-size="64" transform="matrix(1 0 0 1 2765.15 689)">8000</text></g><g clip-path="url(#clip19)"><text font-family="LM Roman 10,LM Roman 10_MSFontService,sans-serif" font-weight="700" font-size="64" transform="matrix(1 0 0 1 2765.15 573)">9000</text></g><g clip-path="url(#clip20)"><text font-family="LM Roman 10,LM Roman 10_MSFontService,sans-serif" font-weight="700" font-size="64" transform="matrix(1 0 0 1 2728.25 458)">10000</text></g><g clip-path="url(#clip21)"><text font-family="LM Roman 10,LM Roman 10_MSFontService,sans-serif" font-weight="700" font-size="64" transform="matrix(1 0 0 1 2964.32 1712)">0</text></g><g clip-path="url(#clip22)"><text font-family="LM Roman 10,LM Roman 10_MSFontService,sans-serif" font-weight="700" font-size="64" transform="matrix(1 0 0 1 3209.57 1712)">500</text></g><g clip-path="url(#clip23)"><text font-family="LM Roman 10,LM Roman 10_MSFontService,sans-serif" font-weight="700" font-size="64" transform="matrix(1 0 0 1 3454.82 1712)">1 000</text></g><g clip-path="url(#clip24)"><text font-family="LM Roman 10,LM Roman 10_MSFontService,sans-serif" font-weight="700" font-size="64" transform="matrix(1 0 0 1 3736.96 1712)">1 500</text></g><g clip-path="url(#clip25)"><text font-family="LM Roman 10,LM Roman 10_MSFontService,sans-serif" font-weight="700" font-size="64" transform="matrix(1 0 0 1 4019.1 1712)">2 000</text></g><g clip-path="url(#clip26)"><text font-family="LM Roman 10,LM Roman 10_MSFontService,sans-serif" font-weight="700" font-size="64" transform="matrix(1 0 0 1 4301.24 1712)">2 500</text></g><g clip-path="url(#clip27)"><text font-family="LM Roman 10,LM Roman 10_MSFontService,sans-serif" font-weight="700" font-size="64" transform="matrix(1 0 0 1 4583.38 1712)">3 000</text></g><g clip-path="url(#clip28)"><text font-family="LM Roman 10,LM Roman 10_MSFontService,sans-serif" font-weight="700" font-size="64" transform="matrix(1 0 0 1 4865.53 1712)">3 500</text></g><g clip-path="url(#clip29)"><text font-family="LM Roman 10,LM Roman 10_MSFontService,sans-serif" font-weight="700" font-size="64" transform="matrix(1 0 0 1 5147.67 1712)">4 000</text></g><g clip-path="url(#clip30)"><text font-family="LM Roman 10,LM Roman 10_MSFontService,sans-serif" font-weight="700" font-size="64" transform="matrix(1 0 0 1 5429.81 1712)">4 500</text></g><g clip-path="url(#clip31)"><text font-family="LM Roman 10,LM Roman 10_MSFontService,sans-serif" font-weight="700" font-size="64" transform="matrix(1 0 0 1 5711.95 1712)">5 000</text></g><g clip-path="url(#clip32)"><text font-family="LM Roman 10,LM Roman 10_MSFontService,sans-serif" font-weight="400" font-size="83" transform="matrix(6.12323e-17 -1 1 6.12323e-17 2647.2 1536)">Średni czas odpowiedzi (ms)</text></g><g clip-path="url(#clip33)"><text font-family="LM Roman 10,LM Roman 10_MSFontService,sans-serif" font-weight="400" font-size="83" transform="matrix(1 0 0 1 3634.78 1888)">Liczba współbieżnie działających wątków</text></g><g clip-path="url(#clip34)"><text font-family="LM Roman 10,LM Roman 10_MSFontService,sans-serif" font-weight="700" font-size="78" transform="matrix(1 0 0 1 2923.28 339)">Interfejs API: </text></g><g clip-path="url(#clip35)"><text font-family="LM Roman 10,LM Roman 10_MSFontService,sans-serif" font-weight="400" font-size="78" transform="matrix(1 0 0 1 3495.97 339)">C# .NET API</text></g><g clip-path="url(#clip36)"><text font-family="LM Roman 10,LM Roman 10_MSFontService,sans-serif" font-weight="700" font-size="78" transform="matrix(1 0 0 1 3998.03 339)">. Punkt końcowy: </text></g><g clip-path="url(#clip37)"><text font-family="LM Roman 10,LM Roman 10_MSFontService,sans-serif" font-weight="400" font-size="78" transform="matrix(1 0 0 1 4713.78 339)">GET /API/ORDER/:ID</text></g><g clip-path="url(#clip38)"><rect x="3002.5" y="452.5" width="532" height="466" stroke="#BFBFBF" stroke-width="3.4375" stroke-linejoin="round" stroke-miterlimit="10" fill="#FFFFFF"/></g><g clip-path="url(#clip39)"><path d="M3052.5 498.5 3140.5 498.5" stroke="#A5A5A5" stroke-width="6.875" stroke-linecap="round" stroke-linejoin="round" stroke-miterlimit="10" fill="none" fill-rule="evenodd"/></g><g clip-path="url(#clip40)"><text font-family="LM Roman 10,LM Roman 10_MSFontService,sans-serif" font-weight="400" font-size="64" transform="matrix(1 0 0 1 3149.72 519)">SQL Server</text></g><g clip-path="url(#clip41)"><path d="M3052.5 592.5 3140.5 592.5" stroke="#ED7D31" stroke-width="6.875" stroke-linecap="round" stroke-linejoin="round" stroke-miterlimit="10" fill="none" fill-rule="evenodd"/></g><g clip-path="url(#clip42)"><text font-family="LM Roman 10,LM Roman 10_MSFontService,sans-serif" font-weight="400" font-size="64" transform="matrix(1 0 0 1 3149.72 612)">MySQL</text></g><g clip-path="url(#clip43)"><path d="M3052.5 685.5 3140.5 685.5" stroke="#4472C4" stroke-width="6.875" stroke-linecap="round" stroke-linejoin="round" stroke-miterlimit="10" fill="none" fill-rule="evenodd"/></g><g clip-path="url(#clip44)"><text font-family="LM Roman 10,LM Roman 10_MSFontService,sans-serif" font-weight="400" font-size="64" transform="matrix(1 0 0 1 3149.72 705)">PostgreSQL</text></g><g clip-path="url(#clip45)"><path d="M3052.5 778.5 3140.5 778.5" stroke="#FFC000" stroke-width="6.875" stroke-linecap="round" stroke-linejoin="round" stroke-miterlimit="10" fill="none" fill-rule="evenodd"/></g><g clip-path="url(#clip46)"><text font-family="LM Roman 10,LM Roman 10_MSFontService,sans-serif" font-weight="400" font-size="64" transform="matrix(1 0 0 1 3149.72 799)">SQLite</text></g><g clip-path="url(#clip47)"><path d="M3052.5 872.5 3140.5 872.5" stroke="#5B9BD5" stroke-width="6.875" stroke-linecap="round" stroke-linejoin="round" stroke-miterlimit="10" fill="none" fill-rule="evenodd"/></g><g clip-path="url(#clip48)"><text font-family="LM Roman 10,LM Roman 10_MSFontService,sans-serif" font-weight="400" font-size="64" transform="matrix(1 0 0 1 3149.72 892)">MongoDB</text></g></g></svg>