<svg width="3407" height="1702" xmlns="http://www.w3.org/2000/svg" xmlns:xlink="http://www.w3.org/1999/xlink" xml:space="preserve" overflow="hidden"><defs><clipPath id="clip0"><rect x="2540" y="217" width="3407" height="1702"/></clipPath><clipPath id="clip1"><rect x="2540" y="216" width="3406" height="1702"/></clipPath><clipPath id="clip2"><rect x="2540" y="216" width="3406" height="1702"/></clipPath><clipPath id="clip3"><rect x="2540" y="216" width="3406" height="1702"/></clipPath><clipPath id="clip4"><rect x="2540" y="216" width="3406" height="1702"/></clipPath><clipPath id="clip5"><rect x="2945" y="437" width="2862" height="1156"/></clipPath><clipPath id="clip6"><rect x="2945" y="437" width="2862" height="1156"/></clipPath><clipPath id="clip7"><rect x="2945" y="437" width="2862" height="1156"/></clipPath><clipPath id="clip8"><rect x="2945" y="437" width="2862" height="1156"/></clipPath><clipPath id="clip9"><rect x="2945" y="437" width="2862" height="1156"/></clipPath><clipPath id="clip10"><rect x="2540" y="216" width="3406" height="1702"/></clipPath><clipPath id="clip11"><rect x="2540" y="216" width="3406" height="1702"/></clipPath><clipPath id="clip12"><rect x="2540" y="216" width="3406" height="1702"/></clipPath><clipPath id="clip13"><rect x="2540" y="216" width="3406" height="1702"/></clipPath><clipPath id="clip14"><rect x="2540" y="216" width="3406" height="1702"/></clipPath><clipPath id="clip15"><rect x="2540" y="216" width="3406" height="1702"/></clipPath><clipPath id="clip16"><rect x="2540" y="216" width="3406" height="1702"/></clipPath><clipPath id="clip17"><rect x="2540" y="216" width="3406" height="1702"/></clipPath><clipPath id="clip18"><rect x="2540" y="216" width="3406" height="1702"/></clipPath><clipPath id="clip19"><rect x="2540" y="216" width="3406" height="1702"/></clipPath><clipPath id="clip20"><rect x="2540" y="216" width="3406" height="1702"/></clipPath><clipPath id="clip21"><rect x="2540" y="216" width="3406" height="1702"/></clipPath><clipPath id="clip22"><rect x="2540" y="216" width="3406" height="1702"/></clipPath><clipPath id="clip23"><rect x="2540" y="216" width="3406" height="1702"/></clipPath><clipPath id="clip24"><rect x="2540" y="216" width="3406" height="1702"/></clipPath><clipPath id="clip25"><rect x="2540" y="216" width="3406" height="1702"/></clipPath><clipPath id="clip26"><rect x="2540" y="216" width="3406" height="1702"/></clipPath><clipPath id="clip27"><rect x="2540" y="216" width="3406" height="1702"/></clipPath><clipPath id="clip28"><rect x="2540" y="216" width="3406" height="1702"/></clipPath><clipPath id="clip29"><rect x="2540" y="216" width="3406" height="1702"/></clipPath><clipPath id="clip30"><rect x="2540" y="216" width="3406" height="1702"/></clipPath><clipPath id="clip31"><rect x="2540" y="216" width="3406" height="1702"/></clipPath><clipPath id="clip32"><rect x="2540" y="216" width="3406" height="1702"/></clipPath><clipPath id="clip33"><rect x="2540" y="216" width="3406" height="1702"/></clipPath><clipPath id="clip34"><rect x="2540" y="216" width="3406" height="1702"/></clipPath><clipPath id="clip35"><rect x="2540" y="216" width="3406" height="1702"/></clipPath><clipPath id="clip36"><rect x="2540" y="216" width="3406" height="1702"/></clipPath><clipPath id="clip37"><rect x="2540" y="216" width="3406" height="1702"/></clipPath><clipPath id="clip38"><rect x="2540" y="216" width="3406" height="1702"/></clipPath><clipPath id="clip39"><rect x="2540" y="216" width="3406" height="1702"/></clipPath><clipPath id="clip40"><rect x="2540" y="216" width="3406" height="1702"/></clipPath><clipPath id="clip41"><rect x="2540" y="216" width="3406" height="1702"/></clipPath><clipPath id="clip42"><rect x="2540" y="216" width="3406" height="1702"/></clipPath><clipPath id="clip43"><rect x="2540" y="216" width="3406" height="1702"/></clipPath><clipPath id="clip44"><rect x="2540" y="216" width="3406" height="1702"/></clipPath></defs><g clip-path="url(#clip0)" transform="translate(-2540 -217)"><rect x="2540" y="217" width="3407" height="1702" fill="#FFFFFF"/><g clip-path="url(#clip1)"><path d="M2945.5 1398.55 5804.5 1398.55M2945.5 1206.54 5804.5 1206.54M2945.5 1014.53 5804.5 1014.53M2945.5 822.527 5804.5 822.527M2945.5 629.521 5804.5 629.521M2945.5 437.5 5804.5 437.5" stroke="#D9D9D9" stroke-width="3.4375" stroke-linejoin="round" stroke-miterlimit="10" fill="none"/></g><g clip-path="url(#clip2)"><path d="M3231.61 437.5 3231.61 1590.5M3517.62 437.5 3517.62 1590.5M3803.62 437.5 3803.62 1590.5M4089.63 437.5 4089.63 1590.5M4374.64 437.5 4374.64 1590.5M4660.65 437.5 4660.65 1590.5M4946.66 437.5 4946.66 1590.5M5232.67 437.5 5232.67 1590.5M5518.68 437.5 5518.68 1590.5M5804.5 437.5 5804.5 1590.5" stroke="#D9D9D9" stroke-width="3.4375" stroke-linejoin="round" stroke-miterlimit="10" fill="none"/></g><g clip-path="url(#clip3)"><path d="M0 0 0.000360892 1153" stroke="#BFBFBF" stroke-width="3.4375" stroke-linejoin="round" stroke-miterlimit="10" fill="none" fill-rule="evenodd" transform="matrix(1 0 0 -1 2945.5 1590.5)"/></g><g clip-path="url(#clip4)"><path d="M2945.5 1590.5 5804.5 1590.5" stroke="#BFBFBF" stroke-width="3.4375" stroke-linejoin="round" stroke-miterlimit="10" fill="none" fill-rule="evenodd"/></g><g clip-path="url(#clip5)"><path d="M2951.5 1583.5 2994.6 1578.55 3042.6 1549.55 3091.6 1405.55 3140.6 1393.55 3188.6 1392.55 3237.61 1388.55 3285.61 1352.54 3334.61 1336.54 3383.61 1236.54 3431.61 1202.54 3480.61 1199.54 3528.62 1194.54 3577.62 1180.54 3626.62 1172.54 3674.62 1171.54 3723.62 1154.54 3771.62 1130.54 3820.63 1125.54 3868.63 1123.54 3917.63 1109.54 3966.63 1107.54 4014.63 1106.54 4063.63 1102.54 4111.64 1091.54 4160.64 1071.54 4209.64 1054.53 4257.64 1039.53 4306.64 1024.53 4354.64 1023.53 4403.64 1017.53 4452.65 1015.53 4500.65 1010.53 4549.65 995.533 4597.65 995.533 4646.65 983.532 4695.65 957.532 4743.66 955.531 4792.66 954.531 4840.66 952.531 4889.66 938.531 4937.66 938.531 4986.66 935.531 5035.67 931.531 5083.67 928.531 5132.67 928.531 5180.67 913.53 5229.67 898.53 5278.67 898.53 5326.67 895.53 5375.68 889.529 5423.68 881.529 5472.68 877.529 5521.68 872.529 5569.68 869.529 5618.68 867.529 5666.69 859.528 5715.69 853.528 5763.69 842.528 5804.5 827.5" stroke="#4472C4" stroke-width="6.875" stroke-linecap="round" stroke-linejoin="round" stroke-miterlimit="10" fill="none"/></g><g clip-path="url(#clip6)"><path d="M2951.5 1577.5 2994.6 1435.55 3042.6 1290.54 3091.6 1289.54 3140.6 1258.54 3188.6 1222.54 3237.61 1122.54 3285.61 1051.53 3334.61 1020.53 3383.61 989.533 3431.61 915.53 3480.61 906.53 3528.62 899.53 3577.62 897.53 3626.62 872.529 3674.62 868.529 3723.62 865.529 3771.62 845.528 3820.63 844.528 3868.63 843.528 3917.63 838.528 3966.63 813.527 4014.63 812.527 4063.63 806.527 4111.64 790.526 4160.64 789.526 4209.64 789.526 4257.64 788.526 4306.64 768.525 4354.64 766.525 4403.64 765.525 4452.65 759.525 4500.65 751.525 4549.65 744.525 4597.65 739.524 4646.65 720.524 4695.65 714.524 4743.66 712.524 4792.66 708.523 4840.66 696.523 4889.66 680.522 4937.66 673.522 4986.66 670.522 5035.67 669.522 5083.67 667.522 5132.67 665.522 5180.67 664.522 5229.67 661.522 5278.67 660.522 5326.67 652.522 5375.68 650.521 5423.68 648.521 5472.68 646.521 5521.68 646.521 5569.68 645.521 5618.68 643.521 5666.69 639.521 5715.69 638.521 5763.69 637.521 5804.5 631.5" stroke="#ED7D31" stroke-width="6.875" stroke-linecap="round" stroke-linejoin="round" stroke-miterlimit="10" fill="none"/></g><g clip-path="url(#clip7)"><path d="M2951.5 1573.5 2994.6 1557.55 3042.6 1557.55 3091.6 1533.55 3140.6 1523.55 3188.6 1515.55 3237.61 1493.55 3285.61 1491.55 3334.61 1484.55 3383.61 1475.55 3431.61 1447.55 3480.61 1441.55 3528.62 1439.55 3577.62 1436.55 3626.62 1412.55 3674.62 1397.55 3723.62 1393.55 3771.62 1390.55 3820.63 1385.55 3868.63 1362.54 3917.63 1362.54 3966.63 1360.54 4014.63 1344.54 4063.63 1333.54 4111.64 1328.54 4160.64 1300.54 4209.64 1281.54 4257.64 1261.54 4306.64 1261.54 4354.64 1256.54 4403.64 1253.54 4452.65 1249.54 4500.65 1241.54 4549.65 1216.54 4597.65 1209.54 4646.65 1171.54 4695.65 1159.54 4743.66 1056.53 4792.66 1019.53 4840.66 1018.53 4889.66 1017.53 4937.66 990.533 4986.66 978.532 5035.67 969.532 5083.67 959.532 5132.67 929.531 5180.67 892.529 5229.67 872.529 5278.67 865.529 5326.67 853.528 5375.68 831.527 5423.68 812.527 5472.68 794.526 5521.68 764.525 5569.68 753.525 5618.68 739.524 5666.69 710.523 5715.69 695.523 5763.69 678.522 5804.5 669.5" stroke="#5B9BD5" stroke-width="6.875" stroke-linecap="round" stroke-linejoin="round" stroke-miterlimit="10" fill="none"/></g><g clip-path="url(#clip8)"><path d="M2951.5 1588.5 2994.6 1577.55 3042.6 1555.55 3091.6 1555.55 3140.6 1547.55 3188.6 1547.55 3237.61 1527.55 3285.61 1492.55 3334.61 1460.55 3383.61 1448.55 3431.61 1438.55 3480.61 1434.55 3528.62 1363.54 3577.62 1354.54 3626.62 1341.54 3674.62 1307.54 3723.62 1166.54 3771.62 1137.54 3820.63 1136.54 3868.63 1115.54 3917.63 1098.54 3966.63 1071.54 4014.63 1050.53 4063.63 1015.53 4111.64 990.533 4160.64 984.532 4209.64 979.532 4257.64 927.531 4306.64 884.529 4354.64 864.529 4403.64 852.528 4452.65 847.528 4500.65 834.528 4549.65 823.527 4597.65 798.526 4646.65 787.526 4695.65 779.526 4743.66 755.525 4792.66 639.521 4840.66 593.52 4889.66 586.519 4937.66 571.519 4986.66 556.518 5035.67 550.518 5083.67 545.518 5132.67 556.518 5180.67 568.519 5229.67 536.5 5278.67 773.526 5326.67 766.525 5375.68 762.525 5423.68 754.525 5472.68 744.525 5521.68 734.524 5569.68 723.524 5618.68 728.524 5666.69 740.524 5715.69 749.525 5763.69 758.525 5804.5 764.525" stroke="#FFC000" stroke-width="6.875" stroke-linecap="round" stroke-linejoin="round" stroke-miterlimit="10" fill="none"/></g><g clip-path="url(#clip9)"><path d="M2951.5 1573.5 2994.6 1571.55 3042.6 1557.55 3091.6 1538.55 3140.6 1529.55 3188.6 1517.55 3237.61 1505.55 3285.61 1487.55 3334.61 1479.55 3383.61 1450.55 3431.61 1446.55 3480.61 1441.55 3528.62 1420.55 3577.62 1419.55 3626.62 1407.55 3674.62 1398.55 3723.62 1395.55 3771.62 1346.54 3820.63 1334.54 3868.63 1334.54 3917.63 1316.54 3966.63 1312.54 4014.63 1284.54 4063.63 1284.54 4111.64 1244.54 4160.64 1221.54 4209.64 1201.54 4257.64 1196.54 4306.64 1173.54 4354.64 1162.54 4403.64 1161.54 4452.65 1159.54 4500.65 1146.54 4549.65 1131.54 4597.65 1121.54 4646.65 1114.54 4695.65 1090.54 4743.66 1083.54 4792.66 1055.53 4840.66 1054.53 4889.66 1051.53 4937.66 1042.53 4986.66 1041.53 5035.67 1034.53 5083.67 1032.53 5132.67 1031.53 5180.67 1012.53 5229.67 996.533 5278.67 973.532 5326.67 963.532 5375.68 952.531 5423.68 935.531 5472.68 908.53 5521.68 898.53 5569.68 890.529 5618.68 887.529 5666.69 881.529 5715.69 879.529 5763.69 854.528 5804.5 849.5" stroke="#A5A5A5" stroke-width="6.875" stroke-linecap="round" stroke-linejoin="round" stroke-miterlimit="10" fill="none"/></g><g clip-path="url(#clip10)"><text font-family="LM Roman 10,LM Roman 10_MSFontService,sans-serif" font-weight="700" font-size="64" transform="matrix(1 0 0 1 2838.94 1611)">0</text></g><g clip-path="url(#clip11)"><text font-family="LM Roman 10,LM Roman 10_MSFontService,sans-serif" font-weight="700" font-size="64" transform="matrix(1 0 0 1 2728.25 1419)">1000</text></g><g clip-path="url(#clip12)"><text font-family="LM Roman 10,LM Roman 10_MSFontService,sans-serif" font-weight="700" font-size="64" transform="matrix(1 0 0 1 2728.25 1227)">2000</text></g><g clip-path="url(#clip13)"><text font-family="LM Roman 10,LM Roman 10_MSFontService,sans-serif" font-weight="700" font-size="64" transform="matrix(1 0 0 1 2728.25 1034)">3000</text></g><g clip-path="url(#clip14)"><text font-family="LM Roman 10,LM Roman 10_MSFontService,sans-serif" font-weight="700" font-size="64" transform="matrix(1 0 0 1 2728.25 842)">4000</text></g><g clip-path="url(#clip15)"><text font-family="LM Roman 10,LM Roman 10_MSFontService,sans-serif" font-weight="700" font-size="64" transform="matrix(1 0 0 1 2728.25 650)">5000</text></g><g clip-path="url(#clip16)"><text font-family="LM Roman 10,LM Roman 10_MSFontService,sans-serif" font-weight="700" font-size="64" transform="matrix(1 0 0 1 2728.25 458)">6000</text></g><g clip-path="url(#clip17)"><text font-family="LM Roman 10,LM Roman 10_MSFontService,sans-serif" font-weight="700" font-size="64" transform="matrix(1 0 0 1 2927.43 1712)">0</text></g><g clip-path="url(#clip18)"><text font-family="LM Roman 10,LM Roman 10_MSFontService,sans-serif" font-weight="700" font-size="64" transform="matrix(1 0 0 1 3176.36 1712)">500</text></g><g clip-path="url(#clip19)"><text font-family="LM Roman 10,LM Roman 10_MSFontService,sans-serif" font-weight="700" font-size="64" transform="matrix(1 0 0 1 3425.3 1712)">1 000</text></g><g clip-path="url(#clip20)"><text font-family="LM Roman 10,LM Roman 10_MSFontService,sans-serif" font-weight="700" font-size="64" transform="matrix(1 0 0 1 3711.13 1712)">1 500</text></g><g clip-path="url(#clip21)"><text font-family="LM Roman 10,LM Roman 10_MSFontService,sans-serif" font-weight="700" font-size="64" transform="matrix(1 0 0 1 3996.96 1712)">2 000</text></g><g clip-path="url(#clip22)"><text font-family="LM Roman 10,LM Roman 10_MSFontService,sans-serif" font-weight="700" font-size="64" transform="matrix(1 0 0 1 4282.79 1712)">2 500</text></g><g clip-path="url(#clip23)"><text font-family="LM Roman 10,LM Roman 10_MSFontService,sans-serif" font-weight="700" font-size="64" transform="matrix(1 0 0 1 4568.63 1712)">3 000</text></g><g clip-path="url(#clip24)"><text font-family="LM Roman 10,LM Roman 10_MSFontService,sans-serif" font-weight="700" font-size="64" transform="matrix(1 0 0 1 4854.46 1712)">3 500</text></g><g clip-path="url(#clip25)"><text font-family="LM Roman 10,LM Roman 10_MSFontService,sans-serif" font-weight="700" font-size="64" transform="matrix(1 0 0 1 5140.29 1712)">4 000</text></g><g clip-path="url(#clip26)"><text font-family="LM Roman 10,LM Roman 10_MSFontService,sans-serif" font-weight="700" font-size="64" transform="matrix(1 0 0 1 5426.12 1712)">4 500</text></g><g clip-path="url(#clip27)"><text font-family="LM Roman 10,LM Roman 10_MSFontService,sans-serif" font-weight="700" font-size="64" transform="matrix(1 0 0 1 5711.95 1712)">5 000</text></g><g clip-path="url(#clip28)"><text font-family="LM Roman 10,LM Roman 10_MSFontService,sans-serif" font-weight="400" font-size="83" transform="matrix(6.12323e-17 -1 1 6.12323e-17 2647.2 1545)">Średni czas odpowiedzi (ms)</text></g><g clip-path="url(#clip29)"><text font-family="LM Roman 10,LM Roman 10_MSFontService,sans-serif" font-weight="400" font-size="83" transform="matrix(1 0 0 1 3588.95 1888)">Liczba współbieżnie działających wątków</text></g><g clip-path="url(#clip30)"><text font-family="LM Roman 10,LM Roman 10_MSFontService,sans-serif" font-weight="700" font-size="78" transform="matrix(1 0 0 1 3057.75 339)">Interfejs API: </text></g><g clip-path="url(#clip31)"><text font-family="LM Roman 10,LM Roman 10_MSFontService,sans-serif" font-weight="400" font-size="78" transform="matrix(1 0 0 1 3630.43 339)">NodeJS API</text></g><g clip-path="url(#clip32)"><text font-family="LM Roman 10,LM Roman 10_MSFontService,sans-serif" font-weight="700" font-size="78" transform="matrix(1 0 0 1 4056.84 339)">. Punkt końcowy: </text></g><g clip-path="url(#clip33)"><text font-family="LM Roman 10,LM Roman 10_MSFontService,sans-serif" font-weight="400" font-size="78" transform="matrix(1 0 0 1 4772.6 339)">PUT /API/COURSES/:ID</text></g><g clip-path="url(#clip34)"><rect x="2964.5" y="450.5" width="536" height="467" stroke="#BFBFBF" stroke-width="3.4375" stroke-linejoin="round" stroke-miterlimit="10" fill="#FFFFFF"/></g><g clip-path="url(#clip35)"><path d="M3016.5 497.5 3104.5 497.5" stroke="#4472C4" stroke-width="6.875" stroke-linecap="round" stroke-linejoin="round" stroke-miterlimit="10" fill="none" fill-rule="evenodd"/></g><g clip-path="url(#clip36)"><text font-family="LM Roman 10,LM Roman 10_MSFontService,sans-serif" font-weight="400" font-size="64" transform="matrix(1 0 0 1 3113.95 517)">SQL Server</text></g><g clip-path="url(#clip37)"><path d="M3016.5 590.5 3104.5 590.5" stroke="#ED7D31" stroke-width="6.875" stroke-linecap="round" stroke-linejoin="round" stroke-miterlimit="10" fill="none" fill-rule="evenodd"/></g><g clip-path="url(#clip38)"><text font-family="LM Roman 10,LM Roman 10_MSFontService,sans-serif" font-weight="400" font-size="64" transform="matrix(1 0 0 1 3113.95 611)">MySQL</text></g><g clip-path="url(#clip39)"><path d="M3016.5 684.5 3104.5 684.5" stroke="#5B9BD5" stroke-width="6.875" stroke-linecap="round" stroke-linejoin="round" stroke-miterlimit="10" fill="none" fill-rule="evenodd"/></g><g clip-path="url(#clip40)"><text font-family="LM Roman 10,LM Roman 10_MSFontService,sans-serif" font-weight="400" font-size="64" transform="matrix(1 0 0 1 3113.95 704)">PostgreSQL</text></g><g clip-path="url(#clip41)"><path d="M3016.5 777.5 3104.5 777.5" stroke="#FFC000" stroke-width="6.875" stroke-linecap="round" stroke-linejoin="round" stroke-miterlimit="10" fill="none" fill-rule="evenodd"/></g><g clip-path="url(#clip42)"><text font-family="LM Roman 10,LM Roman 10_MSFontService,sans-serif" font-weight="400" font-size="64" transform="matrix(1 0 0 1 3113.95 797)">SQLite</text></g><g clip-path="url(#clip43)"><path d="M3016.5 870.5 3104.5 870.5" stroke="#A5A5A5" stroke-width="6.875" stroke-linecap="round" stroke-linejoin="round" stroke-miterlimit="10" fill="none" fill-rule="evenodd"/></g><g clip-path="url(#clip44)"><text font-family="LM Roman 10,LM Roman 10_MSFontService,sans-serif" font-weight="400" font-size="64" transform="matrix(1 0 0 1 3113.95 891)">MongoDB</text></g></g></svg>