<svg width="3407" height="1702" xmlns="http://www.w3.org/2000/svg" xmlns:xlink="http://www.w3.org/1999/xlink" xml:space="preserve" overflow="hidden"><defs><clipPath id="clip0"><rect x="2540" y="217" width="3407" height="1702"/></clipPath><clipPath id="clip1"><rect x="2540" y="216" width="3406" height="1702"/></clipPath><clipPath id="clip2"><rect x="2540" y="216" width="3406" height="1702"/></clipPath><clipPath id="clip3"><rect x="2540" y="216" width="3406" height="1702"/></clipPath><clipPath id="clip4"><rect x="2540" y="216" width="3406" height="1702"/></clipPath><clipPath id="clip5"><rect x="2982" y="437" width="2825" height="1156"/></clipPath><clipPath id="clip6"><rect x="2982" y="437" width="2825" height="1156"/></clipPath><clipPath id="clip7"><rect x="2982" y="437" width="2825" height="1156"/></clipPath><clipPath id="clip8"><rect x="2982" y="437" width="2825" height="1156"/></clipPath><clipPath id="clip9"><rect x="2982" y="437" width="2825" height="1156"/></clipPath><clipPath id="clip10"><rect x="2540" y="216" width="3406" height="1702"/></clipPath><clipPath id="clip11"><rect x="2540" y="216" width="3406" height="1702"/></clipPath><clipPath id="clip12"><rect x="2540" y="216" width="3406" height="1702"/></clipPath><clipPath id="clip13"><rect x="2540" y="216" width="3406" height="1702"/></clipPath><clipPath id="clip14"><rect x="2540" y="216" width="3406" height="1702"/></clipPath><clipPath id="clip15"><rect x="2540" y="216" width="3406" height="1702"/></clipPath><clipPath id="clip16"><rect x="2540" y="216" width="3406" height="1702"/></clipPath><clipPath id="clip17"><rect x="2540" y="216" width="3406" height="1702"/></clipPath><clipPath id="clip18"><rect x="2540" y="216" width="3406" height="1702"/></clipPath><clipPath id="clip19"><rect x="2540" y="216" width="3406" height="1702"/></clipPath><clipPath id="clip20"><rect x="2540" y="216" width="3406" height="1702"/></clipPath><clipPath id="clip21"><rect x="2540" y="216" width="3406" height="1702"/></clipPath><clipPath id="clip22"><rect x="2540" y="216" width="3406" height="1702"/></clipPath><clipPath id="clip23"><rect x="2540" y="216" width="3406" height="1702"/></clipPath><clipPath id="clip24"><rect x="2540" y="216" width="3406" height="1702"/></clipPath><clipPath id="clip25"><rect x="2540" y="216" width="3406" height="1702"/></clipPath><clipPath id="clip26"><rect x="2540" y="216" width="3406" height="1702"/></clipPath><clipPath id="clip27"><rect x="2540" y="216" width="3406" height="1702"/></clipPath><clipPath id="clip28"><rect x="2540" y="216" width="3406" height="1702"/></clipPath><clipPath id="clip29"><rect x="2540" y="216" width="3406" height="1702"/></clipPath><clipPath id="clip30"><rect x="2540" y="216" width="3406" height="1702"/></clipPath><clipPath id="clip31"><rect x="2540" y="216" width="3406" height="1702"/></clipPath><clipPath id="clip32"><rect x="2540" y="216" width="3406" height="1702"/></clipPath><clipPath id="clip33"><rect x="2540" y="216" width="3406" height="1702"/></clipPath><clipPath id="clip34"><rect x="2540" y="216" width="3406" height="1702"/></clipPath><clipPath id="clip35"><rect x="2540" y="216" width="3406" height="1702"/></clipPath><clipPath id="clip36"><rect x="2540" y="216" width="3406" height="1702"/></clipPath><clipPath id="clip37"><rect x="2540" y="216" width="3406" height="1702"/></clipPath><clipPath id="clip38"><rect x="2540" y="216" width="3406" height="1702"/></clipPath><clipPath id="clip39"><rect x="2540" y="216" width="3406" height="1702"/></clipPath><clipPath id="clip40"><rect x="2540" y="216" width="3406" height="1702"/></clipPath><clipPath id="clip41"><rect x="2540" y="216" width="3406" height="1702"/></clipPath><clipPath id="clip42"><rect x="2540" y="216" width="3406" height="1702"/></clipPath><clipPath id="clip43"><rect x="2540" y="216" width="3406" height="1702"/></clipPath></defs><g clip-path="url(#clip0)" transform="translate(-2540 -217)"><rect x="2540" y="217" width="3407" height="1702" fill="#FFFFFF"/><g clip-path="url(#clip1)"><path d="M2982.5 1359.54 5804.5 1359.54M2982.5 1129.54 5804.5 1129.54M2982.5 898.53 5804.5 898.53M2982.5 668.522 5804.5 668.522M2982.5 437.5 5804.5 437.5" stroke="#D9D9D9" stroke-width="3.4375" stroke-linejoin="round" stroke-miterlimit="10" fill="none"/></g><g clip-path="url(#clip2)"><path d="M3264.61 437.5 3264.61 1590.5M3546.62 437.5 3546.62 1590.5M3829.63 437.5 3829.63 1590.5M4111.63 437.5 4111.63 1590.5M4393.64 437.5 4393.64 1590.5M4675.65 437.5 4675.65 1590.5M4957.66 437.5 4957.66 1590.5M5239.67 437.5 5239.67 1590.5M5521.68 437.5 5521.68 1590.5M5804.5 437.5 5804.5 1590.5" stroke="#D9D9D9" stroke-width="3.4375" stroke-linejoin="round" stroke-miterlimit="10" fill="none"/></g><g clip-path="url(#clip3)"><path d="M0 0 0.000360892 1153" stroke="#BFBFBF" stroke-width="3.4375" stroke-linejoin="round" stroke-miterlimit="10" fill="none" fill-rule="evenodd" transform="matrix(1 0 0 -1 2982.5 1590.5)"/></g><g clip-path="url(#clip4)"><path d="M2982.5 1590.5 5804.5 1590.5" stroke="#BFBFBF" stroke-width="3.4375" stroke-linejoin="round" stroke-miterlimit="10" fill="none" fill-rule="evenodd"/></g><g clip-path="url(#clip5)"><path d="M2988.5 1580.5 3031.6 1575.55 3078.6 1558.55 3126.6 1532.55 3174.6 1531.55 3222.61 1519.55 3270.61 1516.55 3318.61 1516.55 3366.61 1510.55 3414.61 1498.55 3462.61 1494.55 3510.62 1490.55 3558.62 1484.55 3606.62 1474.55 3654.62 1450.55 3702.62 1429.55 3750.62 1427.55 3798.62 1425.55 3846.63 1414.55 3893.63 1399.55 3941.63 1397.55 3989.63 1394.55 4037.63 1379.55 4085.63 1374.55 4133.64 1360.54 4181.64 1360.54 4229.64 1353.54 4277.64 1343.54 4325.64 1335.54 4373.64 1332.54 4421.65 1330.54 4469.65 1325.54 4517.65 1321.54 4565.65 1319.54 4613.65 1315.54 4661.65 1306.54 4709.65 1303.54 4757.66 1300.54 4805.66 1293.54 4853.66 1285.54 4901.66 1283.54 4949.66 1278.54 4997.66 1275.54 5045.67 1267.54 5093.67 1266.54 5140.67 1259.54 5188.67 1256.54 5236.67 1250.54 5284.67 1234.54 5332.67 1231.54 5380.68 1193.54 5428.68 1162.54 5476.68 1131.54 5524.68 1099.54 5572.68 1066.54 5620.68 1058.53 5668.69 985.532 5716.69 937.531 5764.69 904.53 5804.5 818.5" stroke="#4472C4" stroke-width="6.875" stroke-linecap="round" stroke-linejoin="round" stroke-miterlimit="10" fill="none"/></g><g clip-path="url(#clip6)"><path d="M2988.5 1573.5 3031.6 1547.55 3078.6 1538.55 3126.6 1531.55 3174.6 1525.55 3222.61 1515.55 3270.61 1513.55 3318.61 1503.55 3366.61 1499.55 3414.61 1481.55 3462.61 1480.55 3510.62 1475.55 3558.62 1458.55 3606.62 1432.55 3654.62 1431.55 3702.62 1431.55 3750.62 1428.55 3798.62 1419.55 3846.63 1416.55 3893.63 1416.55 3941.63 1410.55 3989.63 1398.55 4037.63 1394.55 4085.63 1392.55 4133.64 1390.55 4181.64 1389.55 4229.64 1384.55 4277.64 1374.55 4325.64 1373.55 4373.64 1350.54 4421.65 1348.54 4469.65 1328.54 4517.65 1327.54 4565.65 1325.54 4613.65 1316.54 4661.65 1314.54 4709.65 1299.54 4757.66 1297.54 4805.66 1294.54 4853.66 1279.54 4901.66 1273.54 4949.66 1260.54 4997.66 1260.54 5045.67 1253.54 5093.67 1247.54 5140.67 1243.54 5188.67 1235.54 5236.67 1232.54 5284.67 1230.54 5332.67 1224.54 5380.68 1218.54 5428.68 1180.54 5476.68 1120.54 5524.68 1024.53 5572.68 1014.53 5620.68 987.533 5668.69 947.531 5716.69 837.528 5764.69 728.524 5804.5 673.5" stroke="#ED7D31" stroke-width="6.875" stroke-linecap="round" stroke-linejoin="round" stroke-miterlimit="10" fill="none"/></g><g clip-path="url(#clip7)"><path d="M2988.5 1578.5 3031.6 1577.55 3078.6 1553.55 3126.6 1540.55 3174.6 1535.55 3222.61 1532.55 3270.61 1529.55 3318.61 1528.55 3366.61 1524.55 3414.61 1519.55 3462.61 1496.55 3510.62 1496.55 3558.62 1492.55 3606.62 1489.55 3654.62 1484.55 3702.62 1474.55 3750.62 1469.55 3798.62 1461.55 3846.63 1459.55 3893.63 1451.55 3941.63 1450.55 3989.63 1443.55 4037.63 1434.55 4085.63 1422.55 4133.64 1417.55 4181.64 1412.55 4229.64 1393.55 4277.64 1390.55 4325.64 1385.55 4373.64 1377.55 4421.65 1373.55 4469.65 1367.55 4517.65 1365.54 4565.65 1359.54 4613.65 1352.54 4661.65 1349.54 4709.65 1345.54 4757.66 1330.54 4805.66 1323.54 4853.66 1320.54 4901.66 1320.54 4949.66 1288.54 4997.66 1271.54 5045.67 1266.54 5093.67 1263.54 5140.67 1261.54 5188.67 1260.54 5236.67 1255.54 5284.67 1246.54 5332.67 1246.54 5380.68 1211.54 5428.68 1193.54 5476.68 1145.54 5524.68 1052.53 5572.68 1066.54 5620.68 1083.54 5668.69 1003.53 5716.69 989.533 5764.69 972.532 5804.5 949.5" stroke="#A5A5A5" stroke-width="6.875" stroke-linecap="round" stroke-linejoin="round" stroke-miterlimit="10" fill="none"/></g><g clip-path="url(#clip8)"><path d="M2988.5 1585.5 3031.6 1579.55 3078.6 1535.55 3126.6 1523.55 3174.6 1521.55 3222.61 1503.55 3270.61 1499.55 3318.61 1494.55 3366.61 1488.55 3414.61 1455.55 3462.61 1418.55 3510.62 1402.55 3558.62 1399.55 3606.62 1383.55 3654.62 1347.54 3702.62 1329.54 3750.62 1326.54 3798.62 1319.54 3846.63 1311.54 3893.63 1297.54 3941.63 1313.54 3989.63 1307.54 4037.63 1291.54 4085.63 1265.54 4133.64 1263.54 4181.64 1251.54 4229.64 1249.54 4277.64 1248.54 4325.64 1242.54 4373.64 1231.54 4421.65 1227.54 4469.65 1222.54 4517.65 1222.54 4565.65 1216.54 4613.65 1207.54 4661.65 1206.54 4709.65 1183.54 4757.66 1181.54 4805.66 1161.54 4853.66 1160.54 4901.66 1158.54 4949.66 1146.54 4997.66 1132.54 5045.67 1130.54 5093.67 1127.54 5140.67 1111.54 5188.67 1106.54 5236.67 1093.54 5284.67 1093.54 5332.67 1086.54 5380.68 1080.54 5428.68 1075.54 5476.68 1067.54 5524.68 1065.54 5572.68 1062.54 5620.68 1057.53 5668.69 1054.53 5716.69 1034.53 5764.69 1001.53 5804.5 993.5" stroke="#FFC000" stroke-width="6.875" stroke-linecap="round" stroke-linejoin="round" stroke-miterlimit="10" fill="none"/></g><g clip-path="url(#clip9)"><path d="M2988.5 1584.5 3031.6 1576.55 3078.6 1572.55 3126.6 1568.55 3174.6 1557.55 3222.61 1550.55 3270.61 1548.55 3318.61 1541.55 3366.61 1535.55 3414.61 1534.55 3462.61 1534.55 3510.62 1531.55 3558.62 1517.55 3606.62 1510.55 3654.62 1503.55 3702.62 1501.55 3750.62 1498.55 3798.62 1495.55 3846.63 1488.55 3893.63 1483.55 3941.63 1482.55 3989.63 1480.55 4037.63 1475.55 4085.63 1469.55 4133.64 1468.55 4181.64 1465.55 4229.64 1457.55 4277.64 1454.55 4325.64 1450.55 4373.64 1447.55 4421.65 1442.55 4469.65 1440.55 4517.65 1434.55 4565.65 1433.55 4613.65 1414.55 4661.65 1399.55 4709.65 1396.55 4757.66 1394.55 4805.66 1388.55 4853.66 1384.55 4901.66 1383.55 4949.66 1380.55 4997.66 1374.55 5045.67 1368.55 5093.67 1367.55 5140.67 1362.54 5188.67 1359.54 5236.67 1358.54 5284.67 1356.54 5332.67 1351.54 5380.68 1347.54 5428.68 1329.54 5476.68 1322.54 5524.68 1318.54 5572.68 1317.54 5620.68 1315.54 5668.69 1315.54 5716.69 1311.54 5764.69 1305.54 5804.5 1304.5" stroke="#5B9BD5" stroke-width="6.875" stroke-linecap="round" stroke-linejoin="round" stroke-miterlimit="10" fill="none"/></g><g clip-path="url(#clip10)"><text font-family="LM Roman 10,LM Roman 10_MSFontService,sans-serif" font-weight="700" font-size="64" transform="matrix(1 0 0 1 2875.83 1611)">0</text></g><g clip-path="url(#clip11)"><text font-family="LM Roman 10,LM Roman 10_MSFontService,sans-serif" font-weight="700" font-size="64" transform="matrix(1 0 0 1 2765.15 1380)">5000</text></g><g clip-path="url(#clip12)"><text font-family="LM Roman 10,LM Roman 10_MSFontService,sans-serif" font-weight="700" font-size="64" transform="matrix(1 0 0 1 2728.25 1150)">10000</text></g><g clip-path="url(#clip13)"><text font-family="LM Roman 10,LM Roman 10_MSFontService,sans-serif" font-weight="700" font-size="64" transform="matrix(1 0 0 1 2728.25 919)">15000</text></g><g clip-path="url(#clip14)"><text font-family="LM Roman 10,LM Roman 10_MSFontService,sans-serif" font-weight="700" font-size="64" transform="matrix(1 0 0 1 2728.25 689)">20000</text></g><g clip-path="url(#clip15)"><text font-family="LM Roman 10,LM Roman 10_MSFontService,sans-serif" font-weight="700" font-size="64" transform="matrix(1 0 0 1 2728.25 458)">25000</text></g><g clip-path="url(#clip16)"><text font-family="LM Roman 10,LM Roman 10_MSFontService,sans-serif" font-weight="700" font-size="64" transform="matrix(1 0 0 1 2964.32 1712)">0</text></g><g clip-path="url(#clip17)"><text font-family="LM Roman 10,LM Roman 10_MSFontService,sans-serif" font-weight="700" font-size="64" transform="matrix(1 0 0 1 3209.57 1712)">500</text></g><g clip-path="url(#clip18)"><text font-family="LM Roman 10,LM Roman 10_MSFontService,sans-serif" font-weight="700" font-size="64" transform="matrix(1 0 0 1 3454.82 1712)">1 000</text></g><g clip-path="url(#clip19)"><text font-family="LM Roman 10,LM Roman 10_MSFontService,sans-serif" font-weight="700" font-size="64" transform="matrix(1 0 0 1 3736.96 1712)">1 500</text></g><g clip-path="url(#clip20)"><text font-family="LM Roman 10,LM Roman 10_MSFontService,sans-serif" font-weight="700" font-size="64" transform="matrix(1 0 0 1 4019.1 1712)">2 000</text></g><g clip-path="url(#clip21)"><text font-family="LM Roman 10,LM Roman 10_MSFontService,sans-serif" font-weight="700" font-size="64" transform="matrix(1 0 0 1 4301.24 1712)">2 500</text></g><g clip-path="url(#clip22)"><text font-family="LM Roman 10,LM Roman 10_MSFontService,sans-serif" font-weight="700" font-size="64" transform="matrix(1 0 0 1 4583.38 1712)">3 000</text></g><g clip-path="url(#clip23)"><text font-family="LM Roman 10,LM Roman 10_MSFontService,sans-serif" font-weight="700" font-size="64" transform="matrix(1 0 0 1 4865.53 1712)">3 500</text></g><g clip-path="url(#clip24)"><text font-family="LM Roman 10,LM Roman 10_MSFontService,sans-serif" font-weight="700" font-size="64" transform="matrix(1 0 0 1 5147.67 1712)">4 000</text></g><g clip-path="url(#clip25)"><text font-family="LM Roman 10,LM Roman 10_MSFontService,sans-serif" font-weight="700" font-size="64" transform="matrix(1 0 0 1 5429.81 1712)">4 500</text></g><g clip-path="url(#clip26)"><text font-family="LM Roman 10,LM Roman 10_MSFontService,sans-serif" font-weight="700" font-size="64" transform="matrix(1 0 0 1 5711.95 1712)">5 000</text></g><g clip-path="url(#clip27)"><text font-family="LM Roman 10,LM Roman 10_MSFontService,sans-serif" font-weight="400" font-size="83" transform="matrix(6.12323e-17 -1 1 6.12323e-17 2642.62 1568)">Średni czas odpowiedzi (ms)</text></g><g clip-path="url(#clip28)"><text font-family="LM Roman 10,LM Roman 10_MSFontService,sans-serif" font-weight="400" font-size="83" transform="matrix(1 0 0 1 3561.45 1888)">Liczba współbieżnie działających wątków</text></g><g clip-path="url(#clip29)"><text font-family="LM Roman 10,LM Roman 10_MSFontService,sans-serif" font-weight="700" font-size="78" transform="matrix(1 0 0 1 2936.48 339)">Interfejs API: </text></g><g clip-path="url(#clip30)"><text font-family="LM Roman 10,LM Roman 10_MSFontService,sans-serif" font-weight="400" font-size="78" transform="matrix(1 0 0 1 3509.17 339)">NodeJS API</text></g><g clip-path="url(#clip31)"><text font-family="LM Roman 10,LM Roman 10_MSFontService,sans-serif" font-weight="700" font-size="78" transform="matrix(1 0 0 1 3935.58 339)">. Punkt końcowy: </text></g><g clip-path="url(#clip32)"><text font-family="LM Roman 10,LM Roman 10_MSFontService,sans-serif" font-weight="400" font-size="78" transform="matrix(1 0 0 1 4651.34 339)">POST /API/PRODUCTS</text></g><g clip-path="url(#clip33)"><rect x="2989.5" y="447.5" width="549" height="480" stroke="#BFBFBF" stroke-width="3.4375" stroke-linejoin="round" stroke-miterlimit="10" fill="#FFFFFF"/></g><g clip-path="url(#clip34)"><path d="M3047.5 495.5 3135.5 495.5" stroke="#4472C4" stroke-width="6.875" stroke-linecap="round" stroke-linejoin="round" stroke-miterlimit="10" fill="none" fill-rule="evenodd"/></g><g clip-path="url(#clip35)"><text font-family="LM Roman 10,LM Roman 10_MSFontService,sans-serif" font-weight="400" font-size="64" transform="matrix(1 0 0 1 3145.14 515)">SQL Server</text></g><g clip-path="url(#clip36)"><path d="M3047.5 591.5 3135.5 591.5" stroke="#ED7D31" stroke-width="6.875" stroke-linecap="round" stroke-linejoin="round" stroke-miterlimit="10" fill="none" fill-rule="evenodd"/></g><g clip-path="url(#clip37)"><text font-family="LM Roman 10,LM Roman 10_MSFontService,sans-serif" font-weight="400" font-size="64" transform="matrix(1 0 0 1 3145.14 611)">MySQL</text></g><g clip-path="url(#clip38)"><path d="M3047.5 687.5 3135.5 687.5" stroke="#A5A5A5" stroke-width="6.875" stroke-linecap="round" stroke-linejoin="round" stroke-miterlimit="10" fill="none" fill-rule="evenodd"/></g><g clip-path="url(#clip39)"><text font-family="LM Roman 10,LM Roman 10_MSFontService,sans-serif" font-weight="400" font-size="64" transform="matrix(1 0 0 1 3145.14 708)">PostgreSQL</text></g><g clip-path="url(#clip40)"><path d="M3047.5 783.5 3135.5 783.5" stroke="#FFC000" stroke-width="6.875" stroke-linecap="round" stroke-linejoin="round" stroke-miterlimit="10" fill="none" fill-rule="evenodd"/></g><g clip-path="url(#clip41)"><text font-family="LM Roman 10,LM Roman 10_MSFontService,sans-serif" font-weight="400" font-size="64" transform="matrix(1 0 0 1 3145.14 804)">SQLite</text></g><g clip-path="url(#clip42)"><path d="M3047.5 879.5 3135.5 879.501" stroke="#5B9BD5" stroke-width="6.875" stroke-linecap="round" stroke-linejoin="round" stroke-miterlimit="10" fill="none" fill-rule="evenodd"/></g><g clip-path="url(#clip43)"><text font-family="LM Roman 10,LM Roman 10_MSFontService,sans-serif" font-weight="400" font-size="64" transform="matrix(1 0 0 1 3145.14 900)">MongoDB</text></g></g></svg>