<svg width="3407" height="1702" xmlns="http://www.w3.org/2000/svg" xmlns:xlink="http://www.w3.org/1999/xlink" xml:space="preserve" overflow="hidden"><defs><clipPath id="clip0"><rect x="2540" y="217" width="3407" height="1702"/></clipPath><clipPath id="clip1"><rect x="2540" y="216" width="3406" height="1702"/></clipPath><clipPath id="clip2"><rect x="2540" y="216" width="3406" height="1702"/></clipPath><clipPath id="clip3"><rect x="2540" y="216" width="3406" height="1702"/></clipPath><clipPath id="clip4"><rect x="2540" y="216" width="3406" height="1702"/></clipPath><clipPath id="clip5"><rect x="2982" y="437" width="2825" height="1156"/></clipPath><clipPath id="clip6"><rect x="2982" y="437" width="2825" height="1156"/></clipPath><clipPath id="clip7"><rect x="2982" y="437" width="2825" height="1156"/></clipPath><clipPath id="clip8"><rect x="2982" y="437" width="2825" height="1156"/></clipPath><clipPath id="clip9"><rect x="2982" y="437" width="2825" height="1156"/></clipPath><clipPath id="clip10"><rect x="2540" y="216" width="3406" height="1702"/></clipPath><clipPath id="clip11"><rect x="2540" y="216" width="3406" height="1702"/></clipPath><clipPath id="clip12"><rect x="2540" y="216" width="3406" height="1702"/></clipPath><clipPath id="clip13"><rect x="2540" y="216" width="3406" height="1702"/></clipPath><clipPath id="clip14"><rect x="2540" y="216" width="3406" height="1702"/></clipPath><clipPath id="clip15"><rect x="2540" y="216" width="3406" height="1702"/></clipPath><clipPath id="clip16"><rect x="2540" y="216" width="3406" height="1702"/></clipPath><clipPath id="clip17"><rect x="2540" y="216" width="3406" height="1702"/></clipPath><clipPath id="clip18"><rect x="2540" y="216" width="3406" height="1702"/></clipPath><clipPath id="clip19"><rect x="2540" y="216" width="3406" height="1702"/></clipPath><clipPath id="clip20"><rect x="2540" y="216" width="3406" height="1702"/></clipPath><clipPath id="clip21"><rect x="2540" y="216" width="3406" height="1702"/></clipPath><clipPath id="clip22"><rect x="2540" y="216" width="3406" height="1702"/></clipPath><clipPath id="clip23"><rect x="2540" y="216" width="3406" height="1702"/></clipPath><clipPath id="clip24"><rect x="2540" y="216" width="3406" height="1702"/></clipPath><clipPath id="clip25"><rect x="2540" y="216" width="3406" height="1702"/></clipPath><clipPath id="clip26"><rect x="2540" y="216" width="3406" height="1702"/></clipPath><clipPath id="clip27"><rect x="2540" y="216" width="3406" height="1702"/></clipPath><clipPath id="clip28"><rect x="2540" y="216" width="3406" height="1702"/></clipPath><clipPath id="clip29"><rect x="2540" y="216" width="3406" height="1702"/></clipPath><clipPath id="clip30"><rect x="2540" y="216" width="3406" height="1702"/></clipPath><clipPath id="clip31"><rect x="2540" y="216" width="3406" height="1702"/></clipPath><clipPath id="clip32"><rect x="2540" y="216" width="3406" height="1702"/></clipPath><clipPath id="clip33"><rect x="2540" y="216" width="3406" height="1702"/></clipPath><clipPath id="clip34"><rect x="2540" y="216" width="3406" height="1702"/></clipPath><clipPath id="clip35"><rect x="2540" y="216" width="3406" height="1702"/></clipPath><clipPath id="clip36"><rect x="2540" y="216" width="3406" height="1702"/></clipPath><clipPath id="clip37"><rect x="2540" y="216" width="3406" height="1702"/></clipPath><clipPath id="clip38"><rect x="2540" y="216" width="3406" height="1702"/></clipPath><clipPath id="clip39"><rect x="2540" y="216" width="3406" height="1702"/></clipPath><clipPath id="clip40"><rect x="2540" y="216" width="3406" height="1702"/></clipPath><clipPath id="clip41"><rect x="2540" y="216" width="3406" height="1702"/></clipPath><clipPath id="clip42"><rect x="2540" y="216" width="3406" height="1702"/></clipPath><clipPath id="clip43"><rect x="2540" y="216" width="3406" height="1702"/></clipPath><clipPath id="clip44"><rect x="2540" y="216" width="3406" height="1702"/></clipPath><clipPath id="clip45"><rect x="2540" y="216" width="3406" height="1702"/></clipPath></defs><g clip-path="url(#clip0)" transform="translate(-2540 -217)"><rect x="2540" y="217" width="3407" height="1702" fill="#FFFFFF"/><g clip-path="url(#clip1)"><path d="M2982.5 1425.55 5804.5 1425.55M2982.5 1261.54 5804.5 1261.54M2982.5 1096.54 5804.5 1096.54M2982.5 931.531 5804.5 931.531M2982.5 767.525 5804.5 767.525M2982.5 602.52 5804.5 602.52M2982.5 437.5 5804.5 437.5" stroke="#D9D9D9" stroke-width="3.4375" stroke-linejoin="round" stroke-miterlimit="10" fill="none"/></g><g clip-path="url(#clip2)"><path d="M3264.61 437.5 3264.61 1590.5M3546.62 437.5 3546.62 1590.5M3829.63 437.5 3829.63 1590.5M4111.63 437.5 4111.63 1590.5M4393.64 437.5 4393.64 1590.5M4675.65 437.5 4675.65 1590.5M4957.66 437.5 4957.66 1590.5M5239.67 437.5 5239.67 1590.5M5521.68 437.5 5521.68 1590.5M5804.5 437.5 5804.5 1590.5" stroke="#D9D9D9" stroke-width="3.4375" stroke-linejoin="round" stroke-miterlimit="10" fill="none"/></g><g clip-path="url(#clip3)"><path d="M0 0 0.000360892 1153" stroke="#BFBFBF" stroke-width="3.4375" stroke-linejoin="round" stroke-miterlimit="10" fill="none" fill-rule="evenodd" transform="matrix(1 0 0 -1 2982.5 1590.5)"/></g><g clip-path="url(#clip4)"><path d="M2982.5 1590.5 5804.5 1590.5" stroke="#BFBFBF" stroke-width="3.4375" stroke-linejoin="round" stroke-miterlimit="10" fill="none" fill-rule="evenodd"/></g><g clip-path="url(#clip5)"><path d="M2988.5 1580.5 3031.6 1576.55 3078.6 1569.55 3126.6 1551.55 3174.6 1550.55 3222.61 1523.55 3270.61 1499.55 3318.61 1486.55 3366.61 1470.55 3414.61 1447.55 3462.61 1441.55 3510.62 1438.55 3558.62 1436.55 3606.62 1428.55 3654.62 1422.55 3702.62 1421.55 3750.62 1403.55 3798.62 1396.55 3846.63 1391.55 3893.63 1370.55 3941.63 1367.55 3989.63 1363.54 4037.63 1353.54 4085.63 1352.54 4133.64 1344.54 4181.64 1321.54 4229.64 1301.54 4277.64 1280.54 4325.64 1277.54 4373.64 1266.54 4421.65 1258.54 4469.65 1248.54 4517.65 1232.54 4565.65 1232.54 4613.65 1222.54 4661.65 1214.54 4709.65 1191.54 4757.66 1167.54 4805.66 1143.54 4853.66 1141.54 4901.66 1140.54 4949.66 1123.54 4997.66 1122.54 5045.67 1116.54 5093.67 1110.54 5140.67 1105.54 5188.67 1099.54 5236.67 1083.54 5284.67 1049.53 5332.67 1037.53 5380.68 1019.53 5428.68 993.533 5476.68 983.532 5524.68 976.532 5572.68 970.532 5620.68 969.532 5668.69 954.531 5716.69 948.531 5764.69 945.531 5804.5 941.5" stroke="#4472C4" stroke-width="6.875" stroke-linecap="round" stroke-linejoin="round" stroke-miterlimit="10" fill="none"/></g><g clip-path="url(#clip6)"><path d="M2988.5 1582.5 3031.6 1577.55 3078.6 1570.55 3126.6 1569.55 3174.6 1567.55 3222.61 1549.55 3270.61 1537.55 3318.61 1532.55 3366.61 1522.55 3414.61 1509.55 3462.61 1506.55 3510.62 1499.55 3558.62 1497.55 3606.62 1491.55 3654.62 1483.55 3702.62 1464.55 3750.62 1457.55 3798.62 1453.55 3846.63 1413.55 3893.63 1408.55 3941.63 1399.55 3989.63 1399.55 4037.63 1395.55 4085.63 1386.55 4133.64 1380.55 4181.64 1376.55 4229.64 1356.54 4277.64 1344.54 4325.64 1341.54 4373.64 1334.54 4421.65 1080.54 4469.65 913.53 4517.65 896.53 4565.65 826.527 4613.65 781.5 4661.65 874.529 4709.65 926.531 4757.66 957.532 4805.66 982.532 4853.66 1029.53 4901.66 1065.54 4949.66 1054.53 4997.66 1081.54 5045.67 1081.54 5093.67 1081.54 5140.67 1075.54 5188.67 1068.54 5236.67 1060.53 5284.67 1084.54 5332.67 1111.54 5380.68 1110.54 5428.68 1100.54 5476.68 1097.54 5524.68 1095.54 5572.68 1090.54 5620.68 1076.54 5668.69 1066.54 5716.69 1056.53 5764.69 1056.53 5804.5 1056.53" stroke="#ED7D31" stroke-width="6.875" stroke-linecap="round" stroke-linejoin="round" stroke-miterlimit="10" fill="none"/></g><g clip-path="url(#clip7)"><path d="M2988.5 1583.5 3031.6 1555.55 3078.6 1539.55 3126.6 1481.55 3174.6 1465.55 3222.61 1455.55 3270.61 1395.55 3318.61 1392.55 3366.61 1385.55 3414.61 1357.54 3462.61 1356.54 3510.62 1349.54 3558.62 1348.54 3606.62 1346.54 3654.62 1337.54 3702.62 1336.54 3750.62 1327.54 3798.62 1324.54 3846.63 1320.54 3893.63 1313.54 3941.63 1286.54 3989.63 1276.54 4037.63 1273.54 4085.63 1244.54 4133.64 1190.54 4181.64 1173.54 4229.64 1161.54 4277.64 1160.54 4325.64 1140.54 4373.64 1116.54 4421.65 1105.54 4469.65 1102.54 4517.65 1100.54 4565.65 1099.54 4613.65 1065.54 4661.65 1057.53 4709.65 1048.53 4757.66 1032.53 4805.66 1028.53 4853.66 1018.53 4901.66 1017.53 4949.66 988.533 4997.66 963.532 5045.67 955.532 5093.67 939.531 5140.67 933.531 5188.67 931.531 5236.67 911.53 5284.67 908.53 5332.67 881.529 5380.68 870.529 5428.68 869.529 5476.68 860.528 5524.68 857.528 5572.68 837.528 5620.68 836.528 5668.69 807.527 5716.69 784.526 5764.69 783.526 5804.5 776.5" stroke="#A5A5A5" stroke-width="6.875" stroke-linecap="round" stroke-linejoin="round" stroke-miterlimit="10" fill="none"/></g><g clip-path="url(#clip8)"><path d="M2988.5 1581.5 3031.6 1571.55 3078.6 1493.55 3126.6 1471.55 3174.6 1466.55 3222.61 1434.55 3270.61 1427.55 3318.61 1419.55 3366.61 1408.55 3414.61 1349.54 3462.61 1283.54 3510.62 1254.54 3558.62 1249.54 3606.62 1221.54 3654.62 1157.54 3702.62 1124.54 3750.62 1118.54 3798.62 1106.54 3846.63 1092.54 3893.63 1067.54 3941.63 1095.54 3989.63 1085.54 4037.63 1056.53 4085.63 1010.53 4133.64 1007.53 4181.64 985.533 4229.64 981.532 4277.64 980.532 4325.64 969.532 4373.64 948.531 4421.65 941.531 4469.65 934.531 4517.65 933.531 4565.65 923.531 4613.65 906.53 4661.65 904.53 4709.65 863.529 4757.66 859.528 4805.66 824.527 4853.66 822.527 4901.66 818.527 4949.66 798.526 4997.66 772.526 5045.67 768.525 5093.67 763.525 5140.67 735.524 5188.67 726.524 5236.67 702.523 5284.67 702.523 5332.67 690.523 5380.68 679.523 5428.68 671.522 5476.68 657.522 5524.68 652.522 5572.68 648.521 5620.68 638.521 5668.69 632.521 5716.69 596.52 5764.69 538.518 5804.5 523.5" stroke="#FFC000" stroke-width="6.875" stroke-linecap="round" stroke-linejoin="round" stroke-miterlimit="10" fill="none"/></g><g clip-path="url(#clip9)"><path d="M2988.5 1582.5 3031.6 1581.55 3078.6 1576.55 3126.6 1569.55 3174.6 1547.55 3222.61 1529.55 3270.61 1509.55 3318.61 1467.55 3366.61 1463.55 3414.61 1455.55 3462.61 1443.55 3510.62 1439.55 3558.62 1429.55 3606.62 1422.55 3654.62 1372.55 3702.62 1362.54 3750.62 1347.54 3798.62 1330.54 3846.63 1329.54 3893.63 1326.54 3941.63 1312.54 3989.63 1297.54 4037.63 1281.54 4085.63 1276.54 4133.64 1264.54 4181.64 1246.54 4229.64 1223.54 4277.64 1207.54 4325.64 1197.54 4373.64 1196.54 4421.65 1175.54 4469.65 1160.54 4517.65 1135.54 4565.65 1108.54 4613.65 1107.54 4661.65 1105.54 4709.65 1100.54 4757.66 1067.54 4805.66 1044.53 4853.66 1042.53 4901.66 1039.53 4949.66 1026.53 4997.66 1009.53 5045.67 998.533 5093.67 989.533 5140.67 976.532 5188.67 975.532 5236.67 970.532 5284.67 967.532 5332.67 946.531 5380.68 927.531 5428.68 913.53 5476.68 859.528 5524.68 837.528 5572.68 835.528 5620.68 817.527 5668.69 814.527 5716.69 809.527 5764.69 790.526 5804.5 779.5" stroke="#5B9BD5" stroke-width="6.875" stroke-linecap="round" stroke-linejoin="round" stroke-miterlimit="10" fill="none"/></g><g clip-path="url(#clip10)"><text font-family="LM Roman 10,LM Roman 10_MSFontService,sans-serif" font-weight="700" font-size="64" transform="matrix(1 0 0 1 2875.83 1611)">0</text></g><g clip-path="url(#clip11)"><text font-family="LM Roman 10,LM Roman 10_MSFontService,sans-serif" font-weight="700" font-size="64" transform="matrix(1 0 0 1 2765.15 1446)">2000</text></g><g clip-path="url(#clip12)"><text font-family="LM Roman 10,LM Roman 10_MSFontService,sans-serif" font-weight="700" font-size="64" transform="matrix(1 0 0 1 2765.15 1281)">4000</text></g><g clip-path="url(#clip13)"><text font-family="LM Roman 10,LM Roman 10_MSFontService,sans-serif" font-weight="700" font-size="64" transform="matrix(1 0 0 1 2765.15 1117)">6000</text></g><g clip-path="url(#clip14)"><text font-family="LM Roman 10,LM Roman 10_MSFontService,sans-serif" font-weight="700" font-size="64" transform="matrix(1 0 0 1 2765.15 952)">8000</text></g><g clip-path="url(#clip15)"><text font-family="LM Roman 10,LM Roman 10_MSFontService,sans-serif" font-weight="700" font-size="64" transform="matrix(1 0 0 1 2728.25 787)">10000</text></g><g clip-path="url(#clip16)"><text font-family="LM Roman 10,LM Roman 10_MSFontService,sans-serif" font-weight="700" font-size="64" transform="matrix(1 0 0 1 2728.25 623)">12000</text></g><g clip-path="url(#clip17)"><text font-family="LM Roman 10,LM Roman 10_MSFontService,sans-serif" font-weight="700" font-size="64" transform="matrix(1 0 0 1 2728.25 458)">14000</text></g><g clip-path="url(#clip18)"><text font-family="LM Roman 10,LM Roman 10_MSFontService,sans-serif" font-weight="700" font-size="64" transform="matrix(1 0 0 1 2964.32 1712)">0</text></g><g clip-path="url(#clip19)"><text font-family="LM Roman 10,LM Roman 10_MSFontService,sans-serif" font-weight="700" font-size="64" transform="matrix(1 0 0 1 3209.57 1712)">500</text></g><g clip-path="url(#clip20)"><text font-family="LM Roman 10,LM Roman 10_MSFontService,sans-serif" font-weight="700" font-size="64" transform="matrix(1 0 0 1 3454.82 1712)">1 000</text></g><g clip-path="url(#clip21)"><text font-family="LM Roman 10,LM Roman 10_MSFontService,sans-serif" font-weight="700" font-size="64" transform="matrix(1 0 0 1 3736.96 1712)">1 500</text></g><g clip-path="url(#clip22)"><text font-family="LM Roman 10,LM Roman 10_MSFontService,sans-serif" font-weight="700" font-size="64" transform="matrix(1 0 0 1 4019.1 1712)">2 000</text></g><g clip-path="url(#clip23)"><text font-family="LM Roman 10,LM Roman 10_MSFontService,sans-serif" font-weight="700" font-size="64" transform="matrix(1 0 0 1 4301.24 1712)">2 500</text></g><g clip-path="url(#clip24)"><text font-family="LM Roman 10,LM Roman 10_MSFontService,sans-serif" font-weight="700" font-size="64" transform="matrix(1 0 0 1 4583.38 1712)">3 000</text></g><g clip-path="url(#clip25)"><text font-family="LM Roman 10,LM Roman 10_MSFontService,sans-serif" font-weight="700" font-size="64" transform="matrix(1 0 0 1 4865.53 1712)">3 500</text></g><g clip-path="url(#clip26)"><text font-family="LM Roman 10,LM Roman 10_MSFontService,sans-serif" font-weight="700" font-size="64" transform="matrix(1 0 0 1 5147.67 1712)">4 000</text></g><g clip-path="url(#clip27)"><text font-family="LM Roman 10,LM Roman 10_MSFontService,sans-serif" font-weight="700" font-size="64" transform="matrix(1 0 0 1 5429.81 1712)">4 500</text></g><g clip-path="url(#clip28)"><text font-family="LM Roman 10,LM Roman 10_MSFontService,sans-serif" font-weight="700" font-size="64" transform="matrix(1 0 0 1 5711.95 1712)">5 000</text></g><g clip-path="url(#clip29)"><text font-family="LM Roman 10,LM Roman 10_MSFontService,sans-serif" font-weight="400" font-size="83" transform="matrix(6.12323e-17 -1 1 6.12323e-17 2642.62 1522)">Średni czas odpowiedzi (ms)</text></g><g clip-path="url(#clip30)"><text font-family="LM Roman 10,LM Roman 10_MSFontService,sans-serif" font-weight="400" font-size="83" transform="matrix(1 0 0 1 3625.62 1888)">Liczba współbieżnie działających wątków</text></g><g clip-path="url(#clip31)"><text font-family="LM Roman 10,LM Roman 10_MSFontService,sans-serif" font-weight="700" font-size="78" transform="matrix(1 0 0 1 3058.62 339)">Interfejs API: </text></g><g clip-path="url(#clip32)"><text font-family="LM Roman 10,LM Roman 10_MSFontService,sans-serif" font-weight="400" font-size="78" transform="matrix(1 0 0 1 3631.3 339)">NodeJS API</text></g><g clip-path="url(#clip33)"><text font-family="LM Roman 10,LM Roman 10_MSFontService,sans-serif" font-weight="700" font-size="78" transform="matrix(1 0 0 1 4057.71 339)">. Punkt końcowy: </text></g><g clip-path="url(#clip34)"><text font-family="LM Roman 10,LM Roman 10_MSFontService,sans-serif" font-weight="400" font-size="78" transform="matrix(1 0 0 1 4773.47 339)">GET /API/ORDERS/:ID</text></g><g clip-path="url(#clip35)"><rect x="2989.5" y="452.5" width="540" height="466" stroke="#BFBFBF" stroke-width="3.4375" stroke-linejoin="round" stroke-miterlimit="10" fill="#FFFFFF"/></g><g clip-path="url(#clip36)"><path d="M3043.5 498.5 3131.5 498.5" stroke="#4472C4" stroke-width="6.875" stroke-linecap="round" stroke-linejoin="round" stroke-miterlimit="10" fill="none" fill-rule="evenodd"/></g><g clip-path="url(#clip37)"><text font-family="LM Roman 10,LM Roman 10_MSFontService,sans-serif" font-weight="400" font-size="64" transform="matrix(1 0 0 1 3140.56 519)">SQL Server</text></g><g clip-path="url(#clip38)"><path d="M3043.5 592.5 3131.5 592.5" stroke="#ED7D31" stroke-width="6.875" stroke-linecap="round" stroke-linejoin="round" stroke-miterlimit="10" fill="none" fill-rule="evenodd"/></g><g clip-path="url(#clip39)"><text font-family="LM Roman 10,LM Roman 10_MSFontService,sans-serif" font-weight="400" font-size="64" transform="matrix(1 0 0 1 3140.56 612)">MySQL</text></g><g clip-path="url(#clip40)"><path d="M3043.5 685.5 3131.5 685.5" stroke="#A5A5A5" stroke-width="6.875" stroke-linecap="round" stroke-linejoin="round" stroke-miterlimit="10" fill="none" fill-rule="evenodd"/></g><g clip-path="url(#clip41)"><text font-family="LM Roman 10,LM Roman 10_MSFontService,sans-serif" font-weight="400" font-size="64" transform="matrix(1 0 0 1 3140.56 705)">PostgreSQL</text></g><g clip-path="url(#clip42)"><path d="M3043.5 778.5 3131.5 778.5" stroke="#FFC000" stroke-width="6.875" stroke-linecap="round" stroke-linejoin="round" stroke-miterlimit="10" fill="none" fill-rule="evenodd"/></g><g clip-path="url(#clip43)"><text font-family="LM Roman 10,LM Roman 10_MSFontService,sans-serif" font-weight="400" font-size="64" transform="matrix(1 0 0 1 3140.56 799)">SQLite</text></g><g clip-path="url(#clip44)"><path d="M3043.5 872.5 3131.5 872.5" stroke="#5B9BD5" stroke-width="6.875" stroke-linecap="round" stroke-linejoin="round" stroke-miterlimit="10" fill="none" fill-rule="evenodd"/></g><g clip-path="url(#clip45)"><text font-family="LM Roman 10,LM Roman 10_MSFontService,sans-serif" font-weight="400" font-size="64" transform="matrix(1 0 0 1 3140.56 892)">MongoDB</text></g></g></svg>