<svg width="3407" height="1702" xmlns="http://www.w3.org/2000/svg" xmlns:xlink="http://www.w3.org/1999/xlink" xml:space="preserve" overflow="hidden"><defs><clipPath id="clip0"><rect x="2540" y="217" width="3407" height="1702"/></clipPath><clipPath id="clip1"><rect x="2540" y="216" width="3406" height="1702"/></clipPath><clipPath id="clip2"><rect x="2540" y="216" width="3406" height="1702"/></clipPath><clipPath id="clip3"><rect x="2540" y="216" width="3406" height="1702"/></clipPath><clipPath id="clip4"><rect x="2540" y="216" width="3406" height="1702"/></clipPath><clipPath id="clip5"><rect x="2982" y="437" width="2825" height="1156"/></clipPath><clipPath id="clip6"><rect x="2982" y="437" width="2825" height="1156"/></clipPath><clipPath id="clip7"><rect x="2982" y="437" width="2825" height="1156"/></clipPath><clipPath id="clip8"><rect x="2982" y="437" width="2825" height="1156"/></clipPath><clipPath id="clip9"><rect x="2982" y="437" width="2825" height="1156"/></clipPath><clipPath id="clip10"><rect x="2540" y="216" width="3406" height="1702"/></clipPath><clipPath id="clip11"><rect x="2540" y="216" width="3406" height="1702"/></clipPath><clipPath id="clip12"><rect x="2540" y="216" width="3406" height="1702"/></clipPath><clipPath id="clip13"><rect x="2540" y="216" width="3406" height="1702"/></clipPath><clipPath id="clip14"><rect x="2540" y="216" width="3406" height="1702"/></clipPath><clipPath id="clip15"><rect x="2540" y="216" width="3406" height="1702"/></clipPath><clipPath id="clip16"><rect x="2540" y="216" width="3406" height="1702"/></clipPath><clipPath id="clip17"><rect x="2540" y="216" width="3406" height="1702"/></clipPath><clipPath id="clip18"><rect x="2540" y="216" width="3406" height="1702"/></clipPath><clipPath id="clip19"><rect x="2540" y="216" width="3406" height="1702"/></clipPath><clipPath id="clip20"><rect x="2540" y="216" width="3406" height="1702"/></clipPath><clipPath id="clip21"><rect x="2540" y="216" width="3406" height="1702"/></clipPath><clipPath id="clip22"><rect x="2540" y="216" width="3406" height="1702"/></clipPath><clipPath id="clip23"><rect x="2540" y="216" width="3406" height="1702"/></clipPath><clipPath id="clip24"><rect x="2540" y="216" width="3406" height="1702"/></clipPath><clipPath id="clip25"><rect x="2540" y="216" width="3406" height="1702"/></clipPath><clipPath id="clip26"><rect x="2540" y="216" width="3406" height="1702"/></clipPath><clipPath id="clip27"><rect x="2540" y="216" width="3406" height="1702"/></clipPath><clipPath id="clip28"><rect x="2540" y="216" width="3406" height="1702"/></clipPath><clipPath id="clip29"><rect x="2540" y="216" width="3406" height="1702"/></clipPath><clipPath id="clip30"><rect x="2540" y="216" width="3406" height="1702"/></clipPath><clipPath id="clip31"><rect x="2540" y="216" width="3406" height="1702"/></clipPath><clipPath id="clip32"><rect x="2540" y="216" width="3406" height="1702"/></clipPath><clipPath id="clip33"><rect x="2540" y="216" width="3406" height="1702"/></clipPath><clipPath id="clip34"><rect x="2540" y="216" width="3406" height="1702"/></clipPath><clipPath id="clip35"><rect x="2540" y="216" width="3406" height="1702"/></clipPath><clipPath id="clip36"><rect x="2540" y="216" width="3406" height="1702"/></clipPath><clipPath id="clip37"><rect x="2540" y="216" width="3406" height="1702"/></clipPath><clipPath id="clip38"><rect x="2540" y="216" width="3406" height="1702"/></clipPath><clipPath id="clip39"><rect x="2540" y="216" width="3406" height="1702"/></clipPath><clipPath id="clip40"><rect x="2540" y="216" width="3406" height="1702"/></clipPath><clipPath id="clip41"><rect x="2540" y="216" width="3406" height="1702"/></clipPath><clipPath id="clip42"><rect x="2540" y="216" width="3406" height="1702"/></clipPath><clipPath id="clip43"><rect x="2540" y="216" width="3406" height="1702"/></clipPath><clipPath id="clip44"><rect x="2540" y="216" width="3406" height="1702"/></clipPath><clipPath id="clip45"><rect x="2540" y="216" width="3406" height="1702"/></clipPath></defs><g clip-path="url(#clip0)" transform="translate(-2540 -217)"><rect x="2540" y="217" width="3407" height="1702" fill="#FFFFFF"/><g clip-path="url(#clip1)"><path d="M2982.5 1425.55 5804.5 1425.55M2982.5 1261.54 5804.5 1261.54M2982.5 1096.54 5804.5 1096.54M2982.5 931.531 5804.5 931.531M2982.5 767.525 5804.5 767.525M2982.5 602.52 5804.5 602.52M2982.5 437.5 5804.5 437.5" stroke="#D9D9D9" stroke-width="3.4375" stroke-linejoin="round" stroke-miterlimit="10" fill="none"/></g><g clip-path="url(#clip2)"><path d="M3264.61 437.5 3264.61 1590.5M3546.62 437.5 3546.62 1590.5M3829.63 437.5 3829.63 1590.5M4111.63 437.5 4111.63 1590.5M4393.64 437.5 4393.64 1590.5M4675.65 437.5 4675.65 1590.5M4957.66 437.5 4957.66 1590.5M5239.67 437.5 5239.67 1590.5M5521.68 437.5 5521.68 1590.5M5804.5 437.5 5804.5 1590.5" stroke="#D9D9D9" stroke-width="3.4375" stroke-linejoin="round" stroke-miterlimit="10" fill="none"/></g><g clip-path="url(#clip3)"><path d="M0 0 0.000360892 1153" stroke="#BFBFBF" stroke-width="3.4375" stroke-linejoin="round" stroke-miterlimit="10" fill="none" fill-rule="evenodd" transform="matrix(1 0 0 -1 2982.5 1590.5)"/></g><g clip-path="url(#clip4)"><path d="M2982.5 1590.5 5804.5 1590.5" stroke="#BFBFBF" stroke-width="3.4375" stroke-linejoin="round" stroke-miterlimit="10" fill="none" fill-rule="evenodd"/></g><g clip-path="url(#clip5)"><path d="M2988.5 1577.5 3031.6 1563.55 3078.6 1551.55 3126.6 1549.55 3174.6 1538.55 3222.61 1531.55 3270.61 1524.55 3318.61 1523.55 3366.61 1513.55 3414.61 1498.55 3462.61 1482.55 3510.62 1480.55 3558.62 1471.55 3606.62 1468.55 3654.62 1467.55 3702.62 1461.55 3750.62 1457.55 3798.62 1451.55 3846.63 1448.55 3893.63 1445.55 3941.63 1443.55 3989.63 1439.55 4037.63 1431.55 4085.63 1430.55 4133.64 1428.55 4181.64 1426.55 4229.64 1426.55 4277.64 1421.55 4325.64 1419.55 4373.64 1417.55 4421.65 1404.55 4469.65 1403.55 4517.65 1403.55 4565.65 1402.55 4613.65 1401.55 4661.65 1396.55 4709.65 1388.55 4757.66 1381.55 4805.66 1378.55 4853.66 1371.55 4901.66 1370.55 4949.66 1367.55 4997.66 1356.54 5045.67 1348.54 5093.67 1342.54 5140.67 1339.54 5188.67 1338.54 5236.67 1328.54 5284.67 1325.54 5332.67 1321.54 5380.68 1214.54 5428.68 1159.54 5476.68 1034.53 5524.68 975.532 5572.68 851.528 5620.68 830.527 5668.69 695.523 5716.69 658.522 5764.69 537.518 5804.5 504.5" stroke="#4472C4" stroke-width="6.875" stroke-linecap="round" stroke-linejoin="round" stroke-miterlimit="10" fill="none"/></g><g clip-path="url(#clip6)"><path d="M2988.5 1560.5 3031.6 1559.55 3078.6 1542.55 3126.6 1534.55 3174.6 1530.55 3222.61 1530.55 3270.61 1528.55 3318.61 1524.55 3366.61 1522.55 3414.61 1512.55 3462.61 1509.55 3510.62 1497.55 3558.62 1496.55 3606.62 1494.55 3654.62 1485.55 3702.62 1485.55 3750.62 1473.55 3798.62 1470.55 3846.63 1458.55 3893.63 1456.55 3941.63 1454.55 3989.63 1452.55 4037.63 1448.55 4085.63 1446.55 4133.64 1442.55 4181.64 1441.55 4229.64 1437.55 4277.64 1434.55 4325.64 1427.55 4373.64 1420.55 4421.65 1417.55 4469.65 1404.55 4517.65 1404.55 4565.65 1398.55 4613.65 1394.55 4661.65 1386.55 4709.65 1365.54 4757.66 1364.54 4805.66 1363.54 4853.66 1358.54 4901.66 1357.54 4949.66 1355.54 4997.66 1349.54 5045.67 1340.54 5093.67 1335.54 5140.67 1334.54 5188.67 1331.54 5236.67 1321.54 5284.67 1320.54 5332.67 1314.54 5380.68 1307.54 5428.68 1300.54 5476.68 1246.54 5524.68 1206.54 5572.68 1120.54 5620.68 1035.53 5668.69 950.531 5716.69 866.529 5764.69 834.528 5804.5 817.5" stroke="#ED7D31" stroke-width="6.875" stroke-linecap="round" stroke-linejoin="round" stroke-miterlimit="10" fill="none"/></g><g clip-path="url(#clip7)"><path d="M2988.5 1589.5 3031.6 1572.55 3078.6 1571.55 3126.6 1563.55 3174.6 1550.55 3222.61 1550.55 3270.61 1504.55 3318.61 1504.55 3366.61 1500.55 3414.61 1494.55 3462.61 1493.55 3510.62 1486.55 3558.62 1482.55 3606.62 1471.55 3654.62 1451.55 3702.62 1442.55 3750.62 1441.55 3798.62 1439.55 3846.63 1437.55 3893.63 1434.55 3941.63 1433.55 3989.63 1424.55 4037.63 1420.55 4085.63 1408.55 4133.64 1405.55 4181.64 1399.55 4229.64 1396.55 4277.64 1392.55 4325.64 1391.55 4373.64 1389.55 4421.65 1388.55 4469.65 1383.55 4517.65 1377.55 4565.65 1377.55 4613.65 1372.55 4661.65 1371.55 4709.65 1366.55 4757.66 1352.54 4805.66 1347.54 4853.66 1336.54 4901.66 1334.54 4949.66 1334.54 4997.66 1332.54 5045.67 1328.54 5093.67 1327.54 5140.67 1325.54 5188.67 1324.54 5236.67 1321.54 5284.67 1319.54 5332.67 1301.54 5380.68 1292.54 5428.68 1292.54 5476.68 1208.54 5524.68 1206.54 5572.68 1139.54 5620.68 1079.54 5668.69 953.531 5716.69 904.53 5764.69 783.526 5804.5 692.5" stroke="#A5A5A5" stroke-width="6.875" stroke-linecap="round" stroke-linejoin="round" stroke-miterlimit="10" fill="none"/></g><g clip-path="url(#clip8)"><path d="M2988.5 1588.5 3031.6 1586.55 3078.6 1579.55 3126.6 1577.55 3174.6 1573.55 3222.61 1572.55 3270.61 1562.55 3318.61 1554.55 3366.61 1551.55 3414.61 1551.55 3462.61 1551.55 3510.62 1549.55 3558.62 1549.55 3606.62 1545.55 3654.62 1528.55 3702.62 1526.55 3750.62 1522.55 3798.62 1516.55 3846.63 1516.55 3893.63 1512.55 3941.63 1510.55 3989.63 1493.55 4037.63 1484.55 4085.63 1481.55 4133.64 1475.55 4181.64 1461.55 4229.64 1456.55 4277.64 1451.55 4325.64 1433.55 4373.64 1433.55 4421.65 1429.55 4469.65 1427.55 4517.65 1421.55 4565.65 1419.55 4613.65 1404.55 4661.65 1392.55 4709.65 1388.55 4757.66 1377.55 4805.66 1376.55 4853.66 1373.55 4901.66 1363.54 4949.66 1360.54 4997.66 1355.54 5045.67 1352.54 5093.67 1349.54 5140.67 1347.54 5188.67 1338.54 5236.67 1337.54 5284.67 1251.54 5332.67 1168.54 5380.68 1065.54 5428.68 987.533 5476.68 922.53 5524.68 872.529 5572.68 831.527 5620.68 784.526 5668.69 696.523 5716.69 611.52 5764.69 525.517 5804.5 524.5" stroke="#FFC000" stroke-width="6.875" stroke-linecap="round" stroke-linejoin="round" stroke-miterlimit="10" fill="none"/></g><g clip-path="url(#clip9)"><path d="M2988.5 1588.5 3031.6 1586.55 3078.6 1585.55 3126.6 1582.55 3174.6 1572.55 3222.61 1571.55 3270.61 1556.55 3318.61 1545.55 3366.61 1542.55 3414.61 1538.55 3462.61 1534.55 3510.62 1532.55 3558.62 1531.55 3606.62 1526.55 3654.62 1522.55 3702.62 1505.55 3750.62 1505.55 3798.62 1502.55 3846.63 1501.55 3893.63 1494.55 3941.63 1491.55 3989.63 1490.55 4037.63 1488.55 4085.63 1488.55 4133.64 1484.55 4181.64 1477.55 4229.64 1476.55 4277.64 1467.55 4325.64 1464.55 4373.64 1459.55 4421.65 1459.55 4469.65 1453.55 4517.65 1452.55 4565.65 1444.55 4613.65 1439.55 4661.65 1431.55 4709.65 1412.55 4757.66 1409.55 4805.66 1408.55 4853.66 1398.55 4901.66 1392.55 4949.66 1389.55 4997.66 1381.55 5045.67 1360.54 5093.67 1356.54 5140.67 1352.54 5188.67 1346.54 5236.67 1320.54 5284.67 1312.54 5332.67 1309.54 5380.68 1308.54 5428.68 1302.54 5476.68 1298.54 5524.68 1297.54 5572.68 1297.54 5620.68 1296.54 5668.69 1294.54 5716.69 1281.54 5764.69 1267.54 5804.5 1265.5" stroke="#5B9BD5" stroke-width="6.875" stroke-linecap="round" stroke-linejoin="round" stroke-miterlimit="10" fill="none"/></g><g clip-path="url(#clip10)"><text font-family="LM Roman 10,LM Roman 10_MSFontService,sans-serif" font-weight="700" font-size="64" transform="matrix(1 0 0 1 2875.83 1611)">0</text></g><g clip-path="url(#clip11)"><text font-family="LM Roman 10,LM Roman 10_MSFontService,sans-serif" font-weight="700" font-size="64" transform="matrix(1 0 0 1 2765.15 1446)">2000</text></g><g clip-path="url(#clip12)"><text font-family="LM Roman 10,LM Roman 10_MSFontService,sans-serif" font-weight="700" font-size="64" transform="matrix(1 0 0 1 2765.15 1281)">4000</text></g><g clip-path="url(#clip13)"><text font-family="LM Roman 10,LM Roman 10_MSFontService,sans-serif" font-weight="700" font-size="64" transform="matrix(1 0 0 1 2765.15 1117)">6000</text></g><g clip-path="url(#clip14)"><text font-family="LM Roman 10,LM Roman 10_MSFontService,sans-serif" font-weight="700" font-size="64" transform="matrix(1 0 0 1 2765.15 952)">8000</text></g><g clip-path="url(#clip15)"><text font-family="LM Roman 10,LM Roman 10_MSFontService,sans-serif" font-weight="700" font-size="64" transform="matrix(1 0 0 1 2728.25 787)">10000</text></g><g clip-path="url(#clip16)"><text font-family="LM Roman 10,LM Roman 10_MSFontService,sans-serif" font-weight="700" font-size="64" transform="matrix(1 0 0 1 2728.25 623)">12000</text></g><g clip-path="url(#clip17)"><text font-family="LM Roman 10,LM Roman 10_MSFontService,sans-serif" font-weight="700" font-size="64" transform="matrix(1 0 0 1 2728.25 458)">14000</text></g><g clip-path="url(#clip18)"><text font-family="LM Roman 10,LM Roman 10_MSFontService,sans-serif" font-weight="700" font-size="64" transform="matrix(1 0 0 1 2964.32 1712)">0</text></g><g clip-path="url(#clip19)"><text font-family="LM Roman 10,LM Roman 10_MSFontService,sans-serif" font-weight="700" font-size="64" transform="matrix(1 0 0 1 3209.57 1712)">500</text></g><g clip-path="url(#clip20)"><text font-family="LM Roman 10,LM Roman 10_MSFontService,sans-serif" font-weight="700" font-size="64" transform="matrix(1 0 0 1 3454.82 1712)">1 000</text></g><g clip-path="url(#clip21)"><text font-family="LM Roman 10,LM Roman 10_MSFontService,sans-serif" font-weight="700" font-size="64" transform="matrix(1 0 0 1 3736.96 1712)">1 500</text></g><g clip-path="url(#clip22)"><text font-family="LM Roman 10,LM Roman 10_MSFontService,sans-serif" font-weight="700" font-size="64" transform="matrix(1 0 0 1 4019.1 1712)">2 000</text></g><g clip-path="url(#clip23)"><text font-family="LM Roman 10,LM Roman 10_MSFontService,sans-serif" font-weight="700" font-size="64" transform="matrix(1 0 0 1 4301.24 1712)">2 500</text></g><g clip-path="url(#clip24)"><text font-family="LM Roman 10,LM Roman 10_MSFontService,sans-serif" font-weight="700" font-size="64" transform="matrix(1 0 0 1 4583.38 1712)">3 000</text></g><g clip-path="url(#clip25)"><text font-family="LM Roman 10,LM Roman 10_MSFontService,sans-serif" font-weight="700" font-size="64" transform="matrix(1 0 0 1 4865.53 1712)">3 500</text></g><g clip-path="url(#clip26)"><text font-family="LM Roman 10,LM Roman 10_MSFontService,sans-serif" font-weight="700" font-size="64" transform="matrix(1 0 0 1 5147.67 1712)">4 000</text></g><g clip-path="url(#clip27)"><text font-family="LM Roman 10,LM Roman 10_MSFontService,sans-serif" font-weight="700" font-size="64" transform="matrix(1 0 0 1 5429.81 1712)">4 500</text></g><g clip-path="url(#clip28)"><text font-family="LM Roman 10,LM Roman 10_MSFontService,sans-serif" font-weight="700" font-size="64" transform="matrix(1 0 0 1 5711.95 1712)">5 000</text></g><g clip-path="url(#clip29)"><text font-family="LM Roman 10,LM Roman 10_MSFontService,sans-serif" font-weight="400" font-size="83" transform="matrix(6.12323e-17 -1 1 6.12323e-17 2645.11 1496)">Średni czas odpowiedzi (ms)</text></g><g clip-path="url(#clip30)"><text font-family="LM Roman 10,LM Roman 10_MSFontService,sans-serif" font-weight="400" font-size="83" transform="matrix(1 0 0 1 3528.95 1876)">Liczba współbieżnie działających wątków</text></g><g clip-path="url(#clip31)"><text font-family="LM Roman 10,LM Roman 10_MSFontService,sans-serif" font-weight="700" font-size="78" transform="matrix(1 0 0 1 3067.19 339)">Interfejs API: </text></g><g clip-path="url(#clip32)"><text font-family="LM Roman 10,LM Roman 10_MSFontService,sans-serif" font-weight="400" font-size="78" transform="matrix(1 0 0 1 3639.87 339)">NodeJS API</text></g><g clip-path="url(#clip33)"><text font-family="LM Roman 10,LM Roman 10_MSFontService,sans-serif" font-weight="700" font-size="78" transform="matrix(1 0 0 1 4066.28 339)">. Punkt końcowy: </text></g><g clip-path="url(#clip34)"><text font-family="LM Roman 10,LM Roman 10_MSFontService,sans-serif" font-weight="400" font-size="78" transform="matrix(1 0 0 1 4782.04 339)">GET /API/BILLS</text></g><g clip-path="url(#clip35)"><rect x="2995.5" y="449.5" width="540" height="467" stroke="#BFBFBF" stroke-width="3.4375" stroke-linejoin="round" stroke-miterlimit="10" fill="#FFFFFF"/></g><g clip-path="url(#clip36)"><path d="M3049.5 496.5 3137.5 496.5" stroke="#4472C4" stroke-width="6.875" stroke-linecap="round" stroke-linejoin="round" stroke-miterlimit="10" fill="none" fill-rule="evenodd"/></g><g clip-path="url(#clip37)"><text font-family="LM Roman 10,LM Roman 10_MSFontService,sans-serif" font-weight="400" font-size="64" transform="matrix(1 0 0 1 3146.92 516)">SQL Server</text></g><g clip-path="url(#clip38)"><path d="M3049.5 589.5 3137.5 589.5" stroke="#ED7D31" stroke-width="6.875" stroke-linecap="round" stroke-linejoin="round" stroke-miterlimit="10" fill="none" fill-rule="evenodd"/></g><g clip-path="url(#clip39)"><text font-family="LM Roman 10,LM Roman 10_MSFontService,sans-serif" font-weight="400" font-size="64" transform="matrix(1 0 0 1 3146.92 609)">MySQL</text></g><g clip-path="url(#clip40)"><path d="M3049.5 682.5 3137.5 682.5" stroke="#A5A5A5" stroke-width="6.875" stroke-linecap="round" stroke-linejoin="round" stroke-miterlimit="10" fill="none" fill-rule="evenodd"/></g><g clip-path="url(#clip41)"><text font-family="LM Roman 10,LM Roman 10_MSFontService,sans-serif" font-weight="400" font-size="64" transform="matrix(1 0 0 1 3146.92 703)">PostgreSQL</text></g><g clip-path="url(#clip42)"><path d="M3049.5 776.5 3137.5 776.5" stroke="#FFC000" stroke-width="6.875" stroke-linecap="round" stroke-linejoin="round" stroke-miterlimit="10" fill="none" fill-rule="evenodd"/></g><g clip-path="url(#clip43)"><text font-family="LM Roman 10,LM Roman 10_MSFontService,sans-serif" font-weight="400" font-size="64" transform="matrix(1 0 0 1 3146.92 796)">SQLite</text></g><g clip-path="url(#clip44)"><path d="M3049.5 869.5 3137.5 869.5" stroke="#5B9BD5" stroke-width="6.875" stroke-linecap="round" stroke-linejoin="round" stroke-miterlimit="10" fill="none" fill-rule="evenodd"/></g><g clip-path="url(#clip45)"><text font-family="LM Roman 10,LM Roman 10_MSFontService,sans-serif" font-weight="400" font-size="64" transform="matrix(1 0 0 1 3146.92 889)">MongoDB</text></g></g></svg>