<svg width="3407" height="1702" xmlns="http://www.w3.org/2000/svg" xmlns:xlink="http://www.w3.org/1999/xlink" xml:space="preserve" overflow="hidden"><defs><clipPath id="clip0"><rect x="2540" y="217" width="3407" height="1702"/></clipPath><clipPath id="clip1"><rect x="2540" y="216" width="3406" height="1702"/></clipPath><clipPath id="clip2"><rect x="2540" y="216" width="3406" height="1702"/></clipPath><clipPath id="clip3"><rect x="2982" y="437" width="2733" height="1079"/></clipPath><clipPath id="clip4"><rect x="2540" y="216" width="3406" height="1702"/></clipPath><clipPath id="clip5"><rect x="2540" y="216" width="3406" height="1702"/></clipPath><clipPath id="clip6"><rect x="2540" y="216" width="3406" height="1702"/></clipPath><clipPath id="clip7"><rect x="2540" y="216" width="3406" height="1702"/></clipPath><clipPath id="clip8"><rect x="2982" y="437" width="2733" height="1079"/></clipPath><clipPath id="clip9"><rect x="2540" y="216" width="3406" height="1702"/></clipPath><clipPath id="clip10"><rect x="2540" y="216" width="3406" height="1702"/></clipPath><clipPath id="clip11"><rect x="2540" y="216" width="3406" height="1702"/></clipPath><clipPath id="clip12"><rect x="2540" y="216" width="3406" height="1702"/></clipPath><clipPath id="clip13"><rect x="2540" y="216" width="3406" height="1702"/></clipPath><clipPath id="clip14"><rect x="2540" y="216" width="3406" height="1702"/></clipPath><clipPath id="clip15"><rect x="2540" y="216" width="3406" height="1702"/></clipPath><clipPath id="clip16"><rect x="2540" y="216" width="3406" height="1702"/></clipPath><clipPath id="clip17"><rect x="2540" y="216" width="3406" height="1702"/></clipPath><clipPath id="clip18"><rect x="2540" y="216" width="3406" height="1702"/></clipPath><clipPath id="clip19"><rect x="2540" y="216" width="3406" height="1702"/></clipPath><clipPath id="clip20"><rect x="2540" y="216" width="3406" height="1702"/></clipPath><clipPath id="clip21"><rect x="2540" y="216" width="3406" height="1702"/></clipPath><clipPath id="clip22"><rect x="2540" y="216" width="3406" height="1702"/></clipPath><clipPath id="clip23"><rect x="2540" y="216" width="3406" height="1702"/></clipPath><clipPath id="clip24"><rect x="2540" y="216" width="3406" height="1702"/></clipPath><clipPath id="clip25"><rect x="2540" y="216" width="3406" height="1702"/></clipPath><clipPath id="clip26"><rect x="2540" y="216" width="3406" height="1702"/></clipPath><clipPath id="clip27"><rect x="2540" y="216" width="3406" height="1702"/></clipPath><clipPath id="clip28"><rect x="2540" y="216" width="3406" height="1702"/></clipPath><clipPath id="clip29"><rect x="2540" y="216" width="3406" height="1702"/></clipPath><clipPath id="clip30"><rect x="2540" y="216" width="3406" height="1702"/></clipPath><clipPath id="clip31"><rect x="2540" y="216" width="3406" height="1702"/></clipPath><clipPath id="clip32"><rect x="2540" y="216" width="3406" height="1702"/></clipPath><clipPath id="clip33"><rect x="2540" y="216" width="3406" height="1702"/></clipPath><clipPath id="clip34"><rect x="2540" y="216" width="3406" height="1702"/></clipPath><clipPath id="clip35"><rect x="2540" y="216" width="3406" height="1702"/></clipPath><clipPath id="clip36"><rect x="2540" y="216" width="3406" height="1702"/></clipPath><clipPath id="clip37"><rect x="2540" y="216" width="3406" height="1702"/></clipPath><clipPath id="clip38"><rect x="2540" y="216" width="3406" height="1702"/></clipPath><clipPath id="clip39"><rect x="2540" y="216" width="3406" height="1702"/></clipPath><clipPath id="clip40"><rect x="2540" y="216" width="3406" height="1702"/></clipPath><clipPath id="clip41"><rect x="2540" y="216" width="3406" height="1702"/></clipPath><clipPath id="clip42"><rect x="2540" y="216" width="3406" height="1702"/></clipPath><clipPath id="clip43"><rect x="2540" y="216" width="3406" height="1702"/></clipPath><clipPath id="clip44"><rect x="2540" y="216" width="3406" height="1702"/></clipPath><clipPath id="clip45"><rect x="2540" y="216" width="3406" height="1702"/></clipPath><clipPath id="clip46"><rect x="2540" y="216" width="3406" height="1702"/></clipPath><clipPath id="clip47"><rect x="2540" y="216" width="3406" height="1702"/></clipPath><clipPath id="clip48"><rect x="2540" y="216" width="3406" height="1702"/></clipPath><clipPath id="clip49"><rect x="2540" y="216" width="3406" height="1702"/></clipPath><clipPath id="clip50"><rect x="2540" y="216" width="3406" height="1702"/></clipPath><clipPath id="clip51"><rect x="2540" y="216" width="3406" height="1702"/></clipPath><clipPath id="clip52"><rect x="2540" y="216" width="3406" height="1702"/></clipPath><clipPath id="clip53"><rect x="2540" y="216" width="3406" height="1702"/></clipPath><clipPath id="clip54"><rect x="2540" y="216" width="3406" height="1702"/></clipPath><clipPath id="clip55"><rect x="2540" y="216" width="3406" height="1702"/></clipPath></defs><g clip-path="url(#clip0)" transform="translate(-2540 -217)"><rect x="2540" y="217" width="3407" height="1702" fill="#FFFFFF"/><g clip-path="url(#clip1)"><path d="M2982.5 1359.54 5711.5 1359.54M2982.5 1205.54 5711.5 1205.54M2982.5 1052.53 5711.5 1052.53M2982.5 898.53 5711.5 898.53M2982.5 744.525 5711.5 744.525M2982.5 591.52 5711.5 591.52M2982.5 437.5 5711.5 437.5" stroke="#D9D9D9" stroke-width="3.4375" stroke-linejoin="round" stroke-miterlimit="10" fill="none"/></g><g clip-path="url(#clip2)"><path d="M3028.6 437.5 3028.6 1512.5M3073.6 437.5 3073.6 1512.5M3119.6 437.5 3119.6 1512.5M3164.6 437.5 3164.6 1512.5M3210.61 437.5 3210.61 1512.5M3255.61 437.5 3255.61 1512.5M3301.61 437.5 3301.61 1512.5M3346.61 437.5 3346.61 1512.5M3392.61 437.5 3392.61 1512.5M3437.61 437.5 3437.61 1512.5M3482.61 437.5 3482.61 1512.5M3528.62 437.5 3528.62 1512.5M3573.62 437.5 3573.62 1512.5M3619.62 437.5 3619.62 1512.5M3664.62 437.5 3664.62 1512.5M3710.62 437.5 3710.62 1512.5M3755.62 437.5 3755.62 1512.5M3801.62 437.5 3801.62 1512.5M3846.63 437.5 3846.63 1512.5M3892.63 437.5 3892.63 1512.5M3937.63 437.5 3937.63 1512.5M3983.63 437.5 3983.63 1512.5M4028.63 437.5 4028.63 1512.5M4074.63 437.5 4074.63 1512.5M4119.64 437.5 4119.64 1512.5M4165.64 437.5 4165.64 1512.5M4210.64 437.5 4210.64 1512.5M4256.64 437.5 4256.64 1512.5M4301.64 437.5 4301.64 1512.5M4347.64 437.5 4347.64 1512.5M4392.64 437.5 4392.64 1512.5M4438.65 437.5 4438.65 1512.5M4483.65 437.5 4483.65 1512.5M4529.65 437.5 4529.65 1512.5M4574.65 437.5 4574.65 1512.5M4620.65 437.5 4620.65 1512.5M4665.65 437.5 4665.65 1512.5M4710.65 437.5 4710.65 1512.5M4756.66 437.5 4756.66 1512.5M4801.66 437.5 4801.66 1512.5M4847.66 437.5 4847.66 1512.5M4892.66 437.5 4892.66 1512.5M4938.66 437.5 4938.66 1512.5M4983.66 437.5 4983.66 1512.5M5029.67 437.5 5029.67 1512.5M5074.67 437.5 5074.67 1512.5M5120.67 437.5 5120.67 1512.5M5165.67 437.5 5165.67 1512.5M5211.67 437.5 5211.67 1512.5M5256.67 437.5 5256.67 1512.5M5302.67 437.5 5302.67 1512.5M5347.68 437.5 5347.68 1512.5M5393.68 437.5 5393.68 1512.5M5438.68 437.5 5438.68 1512.5M5484.68 437.5 5484.68 1512.5M5529.68 437.5 5529.68 1512.5M5575.68 437.5 5575.68 1512.5M5620.68 437.5 5620.68 1512.5M5666.69 437.5 5666.69 1512.5M5711.5 437.5 5711.5 1512.5" stroke="#D9D9D9" stroke-width="3.4375" stroke-linejoin="round" stroke-miterlimit="10" fill="none"/></g><g clip-path="url(#clip3)"><path d="M3406.11 1498.05 3424.11 1498.05 3424.11 1513 3406.11 1513ZM3451.11 1498.05 3469.11 1498.05 3469.11 1513 3451.11 1513ZM3497.11 1498.05 3515.12 1498.05 3515.12 1513 3497.11 1513ZM3542.12 1482.05 3560.12 1482.05 3560.12 1513 3542.12 1513ZM3588.12 1482.05 3606.12 1482.05 3606.12 1513 3588.12 1513ZM3633.12 1467.05 3651.12 1467.05 3651.12 1513 3633.12 1513ZM3679.12 1482.05 3697.12 1482.05 3697.12 1513 3679.12 1513ZM3724.12 1482.05 3742.12 1482.05 3742.12 1513 3724.12 1513ZM3770.12 1467.05 3788.12 1467.05 3788.12 1513 3770.12 1513ZM3815.12 1436.05 3833.13 1436.05 3833.13 1513 3815.12 1513ZM3860.13 1436.05 3879.13 1436.05 3879.13 1513 3860.13 1513ZM3906.13 1452.05 3924.13 1452.05 3924.13 1513 3906.13 1513ZM3951.13 1405.05 3970.13 1405.05 3970.13 1513 3951.13 1513ZM3997.13 1421.05 4015.13 1421.05 4015.13 1513 3997.13 1513ZM4042.13 1390.05 4061.13 1390.05 4061.13 1513 4042.13 1513ZM4088.13 1375.05 4106.13 1375.05 4106.13 1513 4088.13 1513ZM4133.14 1344.04 4152.14 1344.04 4152.14 1513 4133.14 1513ZM4179.14 1283.04 4197.14 1283.04 4197.14 1513 4179.14 1513ZM4224.14 1329.04 4243.14 1329.04 4243.14 1513 4224.14 1513ZM4270.14 1313.04 4288.14 1313.04 4288.14 1513 4270.14 1513ZM4315.14 1283.04 4333.14 1283.04 4333.14 1513 4315.14 1513ZM4361.14 1252.04 4379.14 1252.04 4379.14 1513 4361.14 1513ZM4406.14 1221.04 4424.15 1221.04 4424.15 1513 4406.14 1513ZM4452.15 1267.04 4470.15 1267.04 4470.15 1513 4452.15 1513ZM4497.15 1236.04 4515.15 1236.04 4515.15 1513 4497.15 1513ZM4543.15 1206.04 4561.15 1206.04 4561.15 1513 4543.15 1513ZM4588.15 1175.04 4606.15 1175.04 4606.15 1513 4588.15 1513ZM4634.15 1160.04 4652.15 1160.04 4652.15 1513 4634.15 1513ZM4679.15 1144.04 4697.15 1144.04 4697.15 1513 4679.15 1513ZM4725.15 1129.04 4743.16 1129.04 4743.16 1513 4725.15 1513ZM4770.16 1098.04 4788.16 1098.04 4788.16 1513 4770.16 1513ZM4816.16 1068.04 4834.16 1068.04 4834.16 1513 4816.16 1513ZM4861.16 1021.03 4879.16 1021.03 4879.16 1513 4861.16 1513ZM4907.16 1083.04 4925.16 1083.04 4925.16 1513 4907.16 1513ZM4952.16 1114.04 4970.16 1114.04 4970.16 1513 4952.16 1513ZM4998.16 1006.03 5016.16 1006.03 5016.16 1513 4998.16 1513ZM5043.17 960.031 5061.17 960.031 5061.17 1513 5043.17 1513ZM5088.17 929.031 5107.17 929.031 5107.17 1513 5088.17 1513ZM5134.17 868.028 5152.17 868.028 5152.17 1513 5134.17 1513ZM5179.17 791.026 5198.17 791.026 5198.17 1513 5179.17 1513ZM5225.17 760.025 5243.17 760.025 5243.17 1513 5225.17 1513ZM5270.17 745.024 5289.17 745.024 5289.17 1513 5270.17 1513ZM5316.17 714.023 5334.17 714.023 5334.17 1513 5316.17 1513ZM5361.18 699.023 5380.18 699.023 5380.18 1513 5361.18 1513ZM5407.18 684.022 5425.18 684.022 5425.18 1513 5407.18 1513ZM5452.18 668.022 5471.18 668.022 5471.18 1513 5452.18 1513ZM5498.18 653.021 5516.18 653.021 5516.18 1513 5498.18 1513ZM5543.18 637.021 5561.18 637.021 5561.18 1513 5543.18 1513ZM5589.18 591.019 5607.18 591.019 5607.18 1513 5589.18 1513ZM5634.18 576.019 5652.19 576.019 5652.19 1513 5634.18 1513ZM5680.19 561.018 5698.19 561.018 5698.19 1513 5680.19 1513Z" fill="#D9D9D9"/></g><g clip-path="url(#clip4)"><path d="M0 0 0.000360892 1075" stroke="#BFBFBF" stroke-width="3.4375" stroke-linejoin="round" stroke-miterlimit="10" fill="none" fill-rule="evenodd" transform="matrix(1 0 0 -1 5711.5 1512.5)"/></g><g clip-path="url(#clip5)"><path d="M5711.5 1512.5 5735.5 1512.5M5711.5 1359.54 5735.5 1359.54M5711.5 1205.54 5735.5 1205.54M5711.5 1052.53 5735.5 1052.53M5711.5 898.53 5735.5 898.53M5711.5 744.525 5735.5 744.525M5711.5 591.52 5735.5 591.52M5711.5 437.5 5735.5 437.5" stroke="#BFBFBF" stroke-width="3.4375" stroke-linejoin="round" stroke-miterlimit="10" fill="none"/></g><g clip-path="url(#clip6)"><path d="M0 0 0.000360892 1075" stroke="#BFBFBF" stroke-width="3.4375" stroke-linejoin="round" stroke-miterlimit="10" fill="none" fill-rule="evenodd" transform="matrix(1 0 0 -1 2982.5 1512.5)"/></g><g clip-path="url(#clip7)"><path d="M2982.5 1512.5 5711.5 1512.5" stroke="#BFBFBF" stroke-width="3.4375" stroke-linejoin="round" stroke-miterlimit="10" fill="none" fill-rule="evenodd"/></g><g clip-path="url(#clip8)"><path d="M3005.5 1501.5 3050.6 1487.55 3096.6 1476.55 3141.6 1474.55 3187.6 1464.55 3232.61 1457.55 3278.61 1451.55 3323.61 1450.55 3369.61 1441.55 3414.61 1427.55 3460.61 1412.55 3505.62 1410.55 3551.62 1402.55 3596.62 1399.55 3642.62 1398.55 3687.62 1392.55 3733.62 1389.55 3778.62 1382.55 3824.63 1380.55 3869.63 1377.55 3915.63 1375.55 3960.63 1371.55 4006.63 1364.54 4051.63 1363.54 4096.63 1361.54 4142.64 1360.54 4187.64 1360.54 4233.64 1355.54 4278.64 1353.54 4324.64 1351.54 4369.64 1339.54 4415.65 1338.54 4460.65 1338.54 4506.65 1337.54 4551.65 1336.54 4597.65 1332.54 4642.65 1324.54 4688.65 1317.54 4733.66 1315.54 4779.66 1308.54 4824.66 1308.54 4870.66 1305.54 4915.66 1294.54 4961.66 1287.54 5006.66 1281.54 5052.67 1279.54 5097.67 1278.54 5143.67 1268.54 5188.67 1265.54 5234.67 1216.54 5279.67 1162.54 5324.67 1111.54 5370.68 994.533 5415.68 939.531 5461.68 823.527 5506.68 804.527 5552.68 678.522 5597.68 643.521 5643.69 531.518 5689.5 500.5" stroke="#4472C4" stroke-width="6.875" stroke-linecap="round" stroke-linejoin="round" stroke-miterlimit="10" fill="none"/></g><g clip-path="url(#clip9)"><text font-family="LM Roman 10,LM Roman 10_MSFontService,sans-serif" font-weight="700" font-size="64" transform="matrix(1 0 0 1 5781.8 1533)">0%</text></g><g clip-path="url(#clip10)"><text font-family="LM Roman 10,LM Roman 10_MSFontService,sans-serif" font-weight="700" font-size="64" transform="matrix(1 0 0 1 5781.8 1380)">10%</text></g><g clip-path="url(#clip11)"><text font-family="LM Roman 10,LM Roman 10_MSFontService,sans-serif" font-weight="700" font-size="64" transform="matrix(1 0 0 1 5781.8 1226)">20%</text></g><g clip-path="url(#clip12)"><text font-family="LM Roman 10,LM Roman 10_MSFontService,sans-serif" font-weight="700" font-size="64" transform="matrix(1 0 0 1 5781.8 1073)">30%</text></g><g clip-path="url(#clip13)"><text font-family="LM Roman 10,LM Roman 10_MSFontService,sans-serif" font-weight="700" font-size="64" transform="matrix(1 0 0 1 5781.8 919)">40%</text></g><g clip-path="url(#clip14)"><text font-family="LM Roman 10,LM Roman 10_MSFontService,sans-serif" font-weight="700" font-size="64" transform="matrix(1 0 0 1 5781.8 765)">50%</text></g><g clip-path="url(#clip15)"><text font-family="LM Roman 10,LM Roman 10_MSFontService,sans-serif" font-weight="700" font-size="64" transform="matrix(1 0 0 1 5781.8 612)">60%</text></g><g clip-path="url(#clip16)"><text font-family="LM Roman 10,LM Roman 10_MSFontService,sans-serif" font-weight="700" font-size="64" transform="matrix(1 0 0 1 5781.8 458)">70%</text></g><g clip-path="url(#clip17)"><text font-family="LM Roman 10,LM Roman 10_MSFontService,sans-serif" font-weight="700" font-size="64" transform="matrix(1 0 0 1 2875.83 1533)">0</text></g><g clip-path="url(#clip18)"><text font-family="LM Roman 10,LM Roman 10_MSFontService,sans-serif" font-weight="700" font-size="64" transform="matrix(1 0 0 1 2765.15 1380)">2000</text></g><g clip-path="url(#clip19)"><text font-family="LM Roman 10,LM Roman 10_MSFontService,sans-serif" font-weight="700" font-size="64" transform="matrix(1 0 0 1 2765.15 1226)">4000</text></g><g clip-path="url(#clip20)"><text font-family="LM Roman 10,LM Roman 10_MSFontService,sans-serif" font-weight="700" font-size="64" transform="matrix(1 0 0 1 2765.15 1073)">6000</text></g><g clip-path="url(#clip21)"><text font-family="LM Roman 10,LM Roman 10_MSFontService,sans-serif" font-weight="700" font-size="64" transform="matrix(1 0 0 1 2765.15 919)">8000</text></g><g clip-path="url(#clip22)"><text font-family="LM Roman 10,LM Roman 10_MSFontService,sans-serif" font-weight="700" font-size="64" transform="matrix(1 0 0 1 2728.25 765)">10000</text></g><g clip-path="url(#clip23)"><text font-family="LM Roman 10,LM Roman 10_MSFontService,sans-serif" font-weight="700" font-size="64" transform="matrix(1 0 0 1 2728.25 612)">12000</text></g><g clip-path="url(#clip24)"><text font-family="LM Roman 10,LM Roman 10_MSFontService,sans-serif" font-weight="700" font-size="64" transform="matrix(1 0 0 1 2728.25 458)">14000</text></g><g clip-path="url(#clip25)"><text font-family="LM Roman 10,LM Roman 10_MSFontService,sans-serif" font-weight="700" font-size="64" transform="matrix(0.707107 -0.707107 0.707107 0.707107 2972.56 1665)">10</text></g><g clip-path="url(#clip26)"><text font-family="LM Roman 10,LM Roman 10_MSFontService,sans-serif" font-weight="700" font-size="64" transform="matrix(0.707107 -0.707107 0.707107 0.707107 3082.92 1691)">255</text></g><g clip-path="url(#clip27)"><text font-family="LM Roman 10,LM Roman 10_MSFontService,sans-serif" font-weight="700" font-size="64" transform="matrix(0.707107 -0.707107 0.707107 0.707107 3219.37 1691)">510</text></g><g clip-path="url(#clip28)"><text font-family="LM Roman 10,LM Roman 10_MSFontService,sans-serif" font-weight="700" font-size="64" transform="matrix(0.707107 -0.707107 0.707107 0.707107 3355.82 1691)">765</text></g><g clip-path="url(#clip29)"><text font-family="LM Roman 10,LM Roman 10_MSFontService,sans-serif" font-weight="700" font-size="64" transform="matrix(0.707107 -0.707107 0.707107 0.707107 3466.18 1717)">1020</text></g><g clip-path="url(#clip30)"><text font-family="LM Roman 10,LM Roman 10_MSFontService,sans-serif" font-weight="700" font-size="64" transform="matrix(0.707107 -0.707107 0.707107 0.707107 3602.63 1717)">1275</text></g><g clip-path="url(#clip31)"><text font-family="LM Roman 10,LM Roman 10_MSFontService,sans-serif" font-weight="700" font-size="64" transform="matrix(0.707107 -0.707107 0.707107 0.707107 3739.08 1717)">1530</text></g><g clip-path="url(#clip32)"><text font-family="LM Roman 10,LM Roman 10_MSFontService,sans-serif" font-weight="700" font-size="64" transform="matrix(0.707107 -0.707107 0.707107 0.707107 3875.53 1717)">1785</text></g><g clip-path="url(#clip33)"><text font-family="LM Roman 10,LM Roman 10_MSFontService,sans-serif" font-weight="700" font-size="64" transform="matrix(0.707107 -0.707107 0.707107 0.707107 4011.98 1717)">2040</text></g><g clip-path="url(#clip34)"><text font-family="LM Roman 10,LM Roman 10_MSFontService,sans-serif" font-weight="700" font-size="64" transform="matrix(0.707107 -0.707107 0.707107 0.707107 4148.43 1717)">2295</text></g><g clip-path="url(#clip35)"><text font-family="LM Roman 10,LM Roman 10_MSFontService,sans-serif" font-weight="700" font-size="64" transform="matrix(0.707107 -0.707107 0.707107 0.707107 4284.88 1717)">2550</text></g><g clip-path="url(#clip36)"><text font-family="LM Roman 10,LM Roman 10_MSFontService,sans-serif" font-weight="700" font-size="64" transform="matrix(0.707107 -0.707107 0.707107 0.707107 4421.33 1717)">2805</text></g><g clip-path="url(#clip37)"><text font-family="LM Roman 10,LM Roman 10_MSFontService,sans-serif" font-weight="700" font-size="64" transform="matrix(0.707107 -0.707107 0.707107 0.707107 4557.78 1717)">3060</text></g><g clip-path="url(#clip38)"><text font-family="LM Roman 10,LM Roman 10_MSFontService,sans-serif" font-weight="700" font-size="64" transform="matrix(0.707107 -0.707107 0.707107 0.707107 4694.23 1717)">3315</text></g><g clip-path="url(#clip39)"><text font-family="LM Roman 10,LM Roman 10_MSFontService,sans-serif" font-weight="700" font-size="64" transform="matrix(0.707107 -0.707107 0.707107 0.707107 4830.67 1717)">3570</text></g><g clip-path="url(#clip40)"><text font-family="LM Roman 10,LM Roman 10_MSFontService,sans-serif" font-weight="700" font-size="64" transform="matrix(0.707107 -0.707107 0.707107 0.707107 4967.12 1717)">3825</text></g><g clip-path="url(#clip41)"><text font-family="LM Roman 10,LM Roman 10_MSFontService,sans-serif" font-weight="700" font-size="64" transform="matrix(0.707107 -0.707107 0.707107 0.707107 5103.57 1717)">4080</text></g><g clip-path="url(#clip42)"><text font-family="LM Roman 10,LM Roman 10_MSFontService,sans-serif" font-weight="700" font-size="64" transform="matrix(0.707107 -0.707107 0.707107 0.707107 5240.02 1717)">4335</text></g><g clip-path="url(#clip43)"><text font-family="LM Roman 10,LM Roman 10_MSFontService,sans-serif" font-weight="700" font-size="64" transform="matrix(0.707107 -0.707107 0.707107 0.707107 5376.47 1717)">4590</text></g><g clip-path="url(#clip44)"><text font-family="LM Roman 10,LM Roman 10_MSFontService,sans-serif" font-weight="700" font-size="64" transform="matrix(0.707107 -0.707107 0.707107 0.707107 5512.92 1717)">4845</text></g><g clip-path="url(#clip45)"><text font-family="LM Roman 10,LM Roman 10_MSFontService,sans-serif" font-weight="400" font-size="83" transform="matrix(6.12323e-17 -1 1 6.12323e-17 2645.11 1496)">Średni czas odpowiedzi (ms)</text></g><g clip-path="url(#clip46)"><text font-family="LM Roman 10,LM Roman 10_MSFontService,sans-serif" font-weight="400" font-size="83" transform="matrix(1 0 0 1 3528.95 1876)">Liczba współbieżnie działających wątków</text></g><g clip-path="url(#clip47)"><text font-family="LM Roman 10,LM Roman 10_MSFontService,sans-serif" font-weight="700" font-size="78" transform="matrix(1 0 0 1 3067.19 339)">Interfejs API: </text></g><g clip-path="url(#clip48)"><text font-family="LM Roman 10,LM Roman 10_MSFontService,sans-serif" font-weight="400" font-size="78" transform="matrix(1 0 0 1 3639.87 339)">NodeJS API</text></g><g clip-path="url(#clip49)"><text font-family="LM Roman 10,LM Roman 10_MSFontService,sans-serif" font-weight="700" font-size="78" transform="matrix(1 0 0 1 4066.28 339)">. Punkt końcowy: </text></g><g clip-path="url(#clip50)"><text font-family="LM Roman 10,LM Roman 10_MSFontService,sans-serif" font-weight="400" font-size="78" transform="matrix(1 0 0 1 4782.04 339)">GET /API/BILLS</text></g><g clip-path="url(#clip51)"><rect x="2995.5" y="449.5" width="1132" height="235" stroke="#BFBFBF" stroke-width="3.4375" stroke-linejoin="round" stroke-miterlimit="10" fill="#FFFFFF"/></g><g clip-path="url(#clip52)"><rect x="3017" y="488" width="88" height="40.9999" fill="#D9D9D9"/></g><g clip-path="url(#clip53)"><text font-family="LM Roman 10,LM Roman 10_MSFontService,sans-serif" font-weight="400" font-size="64" transform="matrix(1 0 0 1 3114.32 528)">Procent niepoprawnych odpowiedzi</text></g><g clip-path="url(#clip54)"><path d="M3017.5 625.5 3105.5 625.5" stroke="#4472C4" stroke-width="6.875" stroke-linecap="round" stroke-linejoin="round" stroke-miterlimit="10" fill="none" fill-rule="evenodd"/></g><g clip-path="url(#clip55)"><text font-family="LM Roman 10,LM Roman 10_MSFontService,sans-serif" font-weight="400" font-size="64" transform="matrix(1 0 0 1 3114.32 646)">SQL Server</text></g></g></svg>