<svg width="3407" height="1702" xmlns="http://www.w3.org/2000/svg" xmlns:xlink="http://www.w3.org/1999/xlink" xml:space="preserve" overflow="hidden"><defs><clipPath id="clip0"><rect x="2540" y="217" width="3407" height="1702"/></clipPath><clipPath id="clip1"><rect x="2540" y="216" width="3406" height="1702"/></clipPath><clipPath id="clip2"><rect x="2540" y="216" width="3406" height="1702"/></clipPath><clipPath id="clip3"><rect x="2540" y="216" width="3406" height="1702"/></clipPath><clipPath id="clip4"><rect x="2540" y="216" width="3406" height="1702"/></clipPath><clipPath id="clip5"><rect x="2982" y="437" width="2825" height="1156"/></clipPath><clipPath id="clip6"><rect x="2982" y="437" width="2825" height="1156"/></clipPath><clipPath id="clip7"><rect x="2982" y="437" width="2825" height="1156"/></clipPath><clipPath id="clip8"><rect x="2982" y="437" width="2825" height="1156"/></clipPath><clipPath id="clip9"><rect x="2982" y="437" width="2825" height="1156"/></clipPath><clipPath id="clip10"><rect x="2540" y="216" width="3406" height="1702"/></clipPath><clipPath id="clip11"><rect x="2540" y="216" width="3406" height="1702"/></clipPath><clipPath id="clip12"><rect x="2540" y="216" width="3406" height="1702"/></clipPath><clipPath id="clip13"><rect x="2540" y="216" width="3406" height="1702"/></clipPath><clipPath id="clip14"><rect x="2540" y="216" width="3406" height="1702"/></clipPath><clipPath id="clip15"><rect x="2540" y="216" width="3406" height="1702"/></clipPath><clipPath id="clip16"><rect x="2540" y="216" width="3406" height="1702"/></clipPath><clipPath id="clip17"><rect x="2540" y="216" width="3406" height="1702"/></clipPath><clipPath id="clip18"><rect x="2540" y="216" width="3406" height="1702"/></clipPath><clipPath id="clip19"><rect x="2540" y="216" width="3406" height="1702"/></clipPath><clipPath id="clip20"><rect x="2540" y="216" width="3406" height="1702"/></clipPath><clipPath id="clip21"><rect x="2540" y="216" width="3406" height="1702"/></clipPath><clipPath id="clip22"><rect x="2540" y="216" width="3406" height="1702"/></clipPath><clipPath id="clip23"><rect x="2540" y="216" width="3406" height="1702"/></clipPath><clipPath id="clip24"><rect x="2540" y="216" width="3406" height="1702"/></clipPath><clipPath id="clip25"><rect x="2540" y="216" width="3406" height="1702"/></clipPath><clipPath id="clip26"><rect x="2540" y="216" width="3406" height="1702"/></clipPath><clipPath id="clip27"><rect x="2540" y="216" width="3406" height="1702"/></clipPath><clipPath id="clip28"><rect x="2540" y="216" width="3406" height="1702"/></clipPath><clipPath id="clip29"><rect x="2540" y="216" width="3406" height="1702"/></clipPath><clipPath id="clip30"><rect x="2540" y="216" width="3406" height="1702"/></clipPath><clipPath id="clip31"><rect x="2540" y="216" width="3406" height="1702"/></clipPath><clipPath id="clip32"><rect x="2540" y="216" width="3406" height="1702"/></clipPath><clipPath id="clip33"><rect x="2540" y="216" width="3406" height="1702"/></clipPath><clipPath id="clip34"><rect x="2540" y="216" width="3406" height="1702"/></clipPath><clipPath id="clip35"><rect x="2540" y="216" width="3406" height="1702"/></clipPath><clipPath id="clip36"><rect x="2540" y="216" width="3406" height="1702"/></clipPath><clipPath id="clip37"><rect x="2540" y="216" width="3406" height="1702"/></clipPath><clipPath id="clip38"><rect x="2540" y="216" width="3406" height="1702"/></clipPath><clipPath id="clip39"><rect x="2540" y="216" width="3406" height="1702"/></clipPath><clipPath id="clip40"><rect x="2540" y="216" width="3406" height="1702"/></clipPath><clipPath id="clip41"><rect x="2540" y="216" width="3406" height="1702"/></clipPath><clipPath id="clip42"><rect x="2540" y="216" width="3406" height="1702"/></clipPath><clipPath id="clip43"><rect x="2540" y="216" width="3406" height="1702"/></clipPath></defs><g clip-path="url(#clip0)" transform="translate(-2540 -217)"><rect x="2540" y="217" width="3407" height="1702" fill="#FFFFFF"/><g clip-path="url(#clip1)"><path d="M2982.5 1359.54 5804.5 1359.54M2982.5 1129.54 5804.5 1129.54M2982.5 898.53 5804.5 898.53M2982.5 668.522 5804.5 668.522M2982.5 437.5 5804.5 437.5" stroke="#D9D9D9" stroke-width="3.4375" stroke-linejoin="round" stroke-miterlimit="10" fill="none"/></g><g clip-path="url(#clip2)"><path d="M3264.61 437.5 3264.61 1590.5M3546.62 437.5 3546.62 1590.5M3829.63 437.5 3829.63 1590.5M4111.63 437.5 4111.63 1590.5M4393.64 437.5 4393.64 1590.5M4675.65 437.5 4675.65 1590.5M4957.66 437.5 4957.66 1590.5M5239.67 437.5 5239.67 1590.5M5521.68 437.5 5521.68 1590.5M5804.5 437.5 5804.5 1590.5" stroke="#D9D9D9" stroke-width="3.4375" stroke-linejoin="round" stroke-miterlimit="10" fill="none"/></g><g clip-path="url(#clip3)"><path d="M0 0 0.000360892 1153" stroke="#BFBFBF" stroke-width="3.4375" stroke-linejoin="round" stroke-miterlimit="10" fill="none" fill-rule="evenodd" transform="matrix(1 0 0 -1 2982.5 1590.5)"/></g><g clip-path="url(#clip4)"><path d="M2982.5 1590.5 5804.5 1590.5" stroke="#BFBFBF" stroke-width="3.4375" stroke-linejoin="round" stroke-miterlimit="10" fill="none" fill-rule="evenodd"/></g><g clip-path="url(#clip5)"><path d="M2988.5 1586.5 3031.6 1585.55 3078.6 1584.55 3126.6 1582.55 3174.6 1584.55 3222.61 1580.55 3270.61 1582.55 3318.61 1578.55 3366.61 1582.55 3414.61 1583.55 3462.61 1574.55 3510.62 1569.55 3558.62 1569.55 3606.62 1567.55 3654.62 1564.55 3702.62 1562.55 3750.62 1566.55 3798.62 1559.55 3846.63 1566.55 3893.63 1562.55 3941.63 1552.55 3989.63 1557.55 4037.63 1548.55 4085.63 1545.55 4133.64 1543.55 4181.64 1540.55 4229.64 1541.55 4277.64 1540.55 4325.64 1538.55 4373.64 1533.55 4421.65 1533.55 4469.65 1538.55 4517.65 1520.55 4565.65 1519.55 4613.65 1516.55 4661.65 1515.55 4709.65 1511.55 4757.66 1512.55 4805.66 1514.55 4853.66 1512.55 4901.66 1502.55 4949.66 1501.55 4997.66 1502.55 5045.67 1494.55 5093.67 1443.55 5140.67 1442.55 5188.67 1411.55 5236.67 1390.55 5284.67 1344.54 5332.67 1320.54 5380.68 1298.54 5428.68 1214.54 5476.68 1242.54 5524.68 1112.54 5572.68 1036.5 5620.68 1206.54 5668.69 1173.54 5716.69 1156.54 5764.69 1148.54 5804.5 1133.54" stroke="#4472C4" stroke-width="6.875" stroke-linecap="round" stroke-linejoin="round" stroke-miterlimit="10" fill="none"/></g><g clip-path="url(#clip6)"><path d="M2988.5 1585.5 3031.6 1579.55 3078.6 1571.55 3126.6 1573.55 3174.6 1573.55 3222.61 1564.55 3270.61 1572.55 3318.61 1566.55 3366.61 1563.55 3414.61 1571.55 3462.61 1567.55 3510.62 1566.55 3558.62 1561.55 3606.62 1551.55 3654.62 1556.55 3702.62 1542.55 3750.62 1556.55 3798.62 1541.55 3846.63 1561.55 3893.63 1551.55 3941.63 1542.55 3989.63 1551.55 4037.63 1543.55 4085.63 1535.55 4133.64 1536.55 4181.64 1522.55 4229.64 1523.55 4277.64 1519.55 4325.64 1524.55 4373.64 1531.55 4421.65 1529.55 4469.65 1523.55 4517.65 1514.55 4565.65 1508.55 4613.65 1504.55 4661.65 1500.55 4709.65 1492.55 4757.66 1503.55 4805.66 1491.55 4853.66 1496.55 4901.66 1499.55 4949.66 1484.55 4997.66 1486.55 5045.67 1480.55 5093.67 1441.55 5140.67 1434.55 5188.67 1403.55 5236.67 1373.55 5284.67 1341.54 5332.67 1317.54 5380.68 1285.54 5428.68 1289.54 5476.68 1226.54 5524.68 1185.54 5572.68 1177.5 5620.68 1200.54 5668.69 1195.54 5716.69 1202.54 5764.69 1207.54 5804.5 1210.54" stroke="#ED7D31" stroke-width="6.875" stroke-linecap="round" stroke-linejoin="round" stroke-miterlimit="10" fill="none"/></g><g clip-path="url(#clip7)"><path d="M2988.5 1585.5 3031.6 1579.55 3078.6 1573.55 3126.6 1570.55 3174.6 1568.55 3222.61 1568.55 3270.61 1565.55 3318.61 1560.55 3366.61 1549.55 3414.61 1554.55 3462.61 1546.55 3510.62 1545.55 3558.62 1534.55 3606.62 1539.55 3654.62 1545.55 3702.62 1534.55 3750.62 1537.55 3798.62 1515.55 3846.63 1549.55 3893.63 1534.55 3941.63 1507.55 3989.63 1537.55 4037.63 1538.55 4085.63 1499.55 4133.64 1500.55 4181.64 1510.55 4229.64 1478.55 4277.64 1462.55 4325.64 1469.55 4373.64 1453.55 4421.65 1452.55 4469.65 1429.55 4517.65 1408.55 4565.65 1411.55 4613.65 1421.55 4661.65 1416.55 4709.65 1409.55 4757.66 1418.55 4805.66 1406.55 4853.66 1397.55 4901.66 1365.54 4949.66 1324.54 4997.66 1314.54 5045.67 1280.54 5093.67 1273.54 5140.67 1289.54 5188.67 1310.54 5236.67 1277.54 5284.67 1249.54 5332.67 1152.54 5380.68 1023.53 5428.68 1010.53 5476.68 975.532 5524.68 968.532 5572.68 978.532 5620.68 928.531 5668.69 924.531 5716.69 926.531 5764.69 871.5 5804.5 885.529" stroke="#A5A5A5" stroke-width="6.875" stroke-linecap="round" stroke-linejoin="round" stroke-miterlimit="10" fill="none"/></g><g clip-path="url(#clip8)"><path d="M2988.5 1586.5 3031.6 1585.55 3078.6 1585.55 3126.6 1583.55 3174.6 1585.55 3222.61 1581.55 3270.61 1583.55 3318.61 1578.55 3366.61 1583.55 3414.61 1584.55 3462.61 1575.55 3510.62 1570.55 3558.62 1569.55 3606.62 1569.55 3654.62 1566.55 3702.62 1563.55 3750.62 1567.55 3798.62 1560.55 3846.63 1567.55 3893.63 1563.55 3941.63 1553.55 3989.63 1559.55 4037.63 1549.55 4085.63 1546.55 4133.64 1548.55 4181.64 1545.55 4229.64 1544.55 4277.64 1545.55 4325.64 1542.55 4373.64 1540.55 4421.65 1537.55 4469.65 1544.55 4517.65 1526.55 4565.65 1525.55 4613.65 1523.55 4661.65 1520.55 4709.65 1514.55 4757.66 1514.55 4805.66 1517.55 4853.66 1517.55 4901.66 1504.55 4949.66 1504.55 4997.66 1505.55 5045.67 1499.55 5093.67 1496.55 5140.67 1444.55 5188.67 1283.54 5236.67 1115.54 5284.67 955.532 5332.67 771.526 5380.68 681.523 5428.5 571.5" stroke="#FFC000" stroke-width="6.875" stroke-linecap="round" stroke-linejoin="round" stroke-miterlimit="10" fill="none"/></g><g clip-path="url(#clip9)"><path d="M2988.5 1587.5 3031.6 1586.55 3078.6 1585.55 3126.6 1584.55 3174.6 1585.55 3222.61 1582.55 3270.61 1584.55 3318.61 1579.55 3366.61 1584.55 3414.61 1584.55 3462.61 1575.55 3510.62 1571.55 3558.62 1570.55 3606.62 1569.55 3654.62 1566.55 3702.62 1563.55 3750.62 1568.55 3798.62 1561.55 3846.63 1568.55 3893.63 1564.55 3941.63 1554.55 3989.63 1559.55 4037.63 1549.55 4085.63 1547.55 4133.64 1549.55 4181.64 1550.55 4229.64 1553.55 4277.64 1550.55 4325.64 1555.55 4373.64 1543.55 4421.65 1549.55 4469.65 1547.55 4517.65 1530.55 4565.65 1529.55 4613.65 1532.55 4661.65 1531.55 4709.65 1529.55 4757.66 1523.55 4805.66 1528.55 4853.66 1524.55 4901.66 1518.55 4949.66 1518.55 4997.66 1519.55 5045.67 1509.55 5093.67 1494.55 5140.67 1363.54 5188.67 1449.55 5236.67 1446.55 5284.67 1355.54 5332.67 1329.54 5380.68 1316.54 5428.68 1224.54 5476.68 1256.54 5524.68 1221.54 5572.68 1233.54 5620.68 1224.54 5668.69 1186.5 5716.69 1221.54 5764.69 1209.54 5804.5 1193.54" stroke="#5B9BD5" stroke-width="6.875" stroke-linecap="round" stroke-linejoin="round" stroke-miterlimit="10" fill="none"/></g><g clip-path="url(#clip10)"><text font-family="LM Roman 10,LM Roman 10_MSFontService,sans-serif" font-weight="700" font-size="64" transform="matrix(1 0 0 1 2875.83 1611)">0</text></g><g clip-path="url(#clip11)"><text font-family="LM Roman 10,LM Roman 10_MSFontService,sans-serif" font-weight="700" font-size="64" transform="matrix(1 0 0 1 2765.15 1380)">5000</text></g><g clip-path="url(#clip12)"><text font-family="LM Roman 10,LM Roman 10_MSFontService,sans-serif" font-weight="700" font-size="64" transform="matrix(1 0 0 1 2728.25 1150)">10000</text></g><g clip-path="url(#clip13)"><text font-family="LM Roman 10,LM Roman 10_MSFontService,sans-serif" font-weight="700" font-size="64" transform="matrix(1 0 0 1 2728.25 919)">15000</text></g><g clip-path="url(#clip14)"><text font-family="LM Roman 10,LM Roman 10_MSFontService,sans-serif" font-weight="700" font-size="64" transform="matrix(1 0 0 1 2728.25 689)">20000</text></g><g clip-path="url(#clip15)"><text font-family="LM Roman 10,LM Roman 10_MSFontService,sans-serif" font-weight="700" font-size="64" transform="matrix(1 0 0 1 2728.25 458)">25000</text></g><g clip-path="url(#clip16)"><text font-family="LM Roman 10,LM Roman 10_MSFontService,sans-serif" font-weight="700" font-size="64" transform="matrix(1 0 0 1 2964.32 1712)">0</text></g><g clip-path="url(#clip17)"><text font-family="LM Roman 10,LM Roman 10_MSFontService,sans-serif" font-weight="700" font-size="64" transform="matrix(1 0 0 1 3209.57 1712)">500</text></g><g clip-path="url(#clip18)"><text font-family="LM Roman 10,LM Roman 10_MSFontService,sans-serif" font-weight="700" font-size="64" transform="matrix(1 0 0 1 3454.82 1712)">1 000</text></g><g clip-path="url(#clip19)"><text font-family="LM Roman 10,LM Roman 10_MSFontService,sans-serif" font-weight="700" font-size="64" transform="matrix(1 0 0 1 3736.96 1712)">1 500</text></g><g clip-path="url(#clip20)"><text font-family="LM Roman 10,LM Roman 10_MSFontService,sans-serif" font-weight="700" font-size="64" transform="matrix(1 0 0 1 4019.1 1712)">2 000</text></g><g clip-path="url(#clip21)"><text font-family="LM Roman 10,LM Roman 10_MSFontService,sans-serif" font-weight="700" font-size="64" transform="matrix(1 0 0 1 4301.24 1712)">2 500</text></g><g clip-path="url(#clip22)"><text font-family="LM Roman 10,LM Roman 10_MSFontService,sans-serif" font-weight="700" font-size="64" transform="matrix(1 0 0 1 4583.38 1712)">3 000</text></g><g clip-path="url(#clip23)"><text font-family="LM Roman 10,LM Roman 10_MSFontService,sans-serif" font-weight="700" font-size="64" transform="matrix(1 0 0 1 4865.53 1712)">3 500</text></g><g clip-path="url(#clip24)"><text font-family="LM Roman 10,LM Roman 10_MSFontService,sans-serif" font-weight="700" font-size="64" transform="matrix(1 0 0 1 5147.67 1712)">4 000</text></g><g clip-path="url(#clip25)"><text font-family="LM Roman 10,LM Roman 10_MSFontService,sans-serif" font-weight="700" font-size="64" transform="matrix(1 0 0 1 5429.81 1712)">4 500</text></g><g clip-path="url(#clip26)"><text font-family="LM Roman 10,LM Roman 10_MSFontService,sans-serif" font-weight="700" font-size="64" transform="matrix(1 0 0 1 5711.95 1712)">5 000</text></g><g clip-path="url(#clip27)"><text font-family="LM Roman 10,LM Roman 10_MSFontService,sans-serif" font-weight="400" font-size="83" transform="matrix(6.12323e-17 -1 1 6.12323e-17 2647.2 1545)">Średni czas odpowiedzi (ms)</text></g><g clip-path="url(#clip28)"><text font-family="LM Roman 10,LM Roman 10_MSFontService,sans-serif" font-weight="400" font-size="83" transform="matrix(1 0 0 1 3556.87 1888)">Liczba współbieżnie działających wątków</text></g><g clip-path="url(#clip29)"><text font-family="LM Roman 10,LM Roman 10_MSFontService,sans-serif" font-weight="700" font-size="78" transform="matrix(1 0 0 1 3029.36 339)">Interfejs API: </text></g><g clip-path="url(#clip30)"><text font-family="LM Roman 10,LM Roman 10_MSFontService,sans-serif" font-weight="400" font-size="78" transform="matrix(1 0 0 1 3602.05 339)">C# .NET API</text></g><g clip-path="url(#clip31)"><text font-family="LM Roman 10,LM Roman 10_MSFontService,sans-serif" font-weight="700" font-size="78" transform="matrix(1 0 0 1 4104.11 339)">. Punkt końcowy: </text></g><g clip-path="url(#clip32)"><text font-family="LM Roman 10,LM Roman 10_MSFontService,sans-serif" font-weight="400" font-size="78" transform="matrix(1 0 0 1 4819.87 339)">GET /API/BILLS</text></g><g clip-path="url(#clip33)"><rect x="2998.5" y="456.5" width="527" height="467" stroke="#BFBFBF" stroke-width="3.4375" stroke-linejoin="round" stroke-miterlimit="10" fill="#FFFFFF"/></g><g clip-path="url(#clip34)"><path d="M3045.5 503.5 3133.5 503.5" stroke="#4472C4" stroke-width="6.875" stroke-linecap="round" stroke-linejoin="round" stroke-miterlimit="10" fill="none" fill-rule="evenodd"/></g><g clip-path="url(#clip35)"><text font-family="LM Roman 10,LM Roman 10_MSFontService,sans-serif" font-weight="400" font-size="64" transform="matrix(1 0 0 1 3142.85 523)">SQL Server</text></g><g clip-path="url(#clip36)"><path d="M3045.5 596.5 3133.5 596.5" stroke="#ED7D31" stroke-width="6.875" stroke-linecap="round" stroke-linejoin="round" stroke-miterlimit="10" fill="none" fill-rule="evenodd"/></g><g clip-path="url(#clip37)"><text font-family="LM Roman 10,LM Roman 10_MSFontService,sans-serif" font-weight="400" font-size="64" transform="matrix(1 0 0 1 3142.85 617)">MySQL</text></g><g clip-path="url(#clip38)"><path d="M3045.5 690.5 3133.5 690.5" stroke="#A5A5A5" stroke-width="6.875" stroke-linecap="round" stroke-linejoin="round" stroke-miterlimit="10" fill="none" fill-rule="evenodd"/></g><g clip-path="url(#clip39)"><text font-family="LM Roman 10,LM Roman 10_MSFontService,sans-serif" font-weight="400" font-size="64" transform="matrix(1 0 0 1 3142.85 710)">PostgreSQL</text></g><g clip-path="url(#clip40)"><path d="M3045.5 783.5 3133.5 783.5" stroke="#FFC000" stroke-width="6.875" stroke-linecap="round" stroke-linejoin="round" stroke-miterlimit="10" fill="none" fill-rule="evenodd"/></g><g clip-path="url(#clip41)"><text font-family="LM Roman 10,LM Roman 10_MSFontService,sans-serif" font-weight="400" font-size="64" transform="matrix(1 0 0 1 3142.85 803)">SQLite</text></g><g clip-path="url(#clip42)"><path d="M3045.5 876.5 3133.5 876.5" stroke="#5B9BD5" stroke-width="6.875" stroke-linecap="round" stroke-linejoin="round" stroke-miterlimit="10" fill="none" fill-rule="evenodd"/></g><g clip-path="url(#clip43)"><text font-family="LM Roman 10,LM Roman 10_MSFontService,sans-serif" font-weight="400" font-size="64" transform="matrix(1 0 0 1 3142.85 896)">MongoDB</text></g></g></svg>