<svg width="3407" height="1702" xmlns="http://www.w3.org/2000/svg" xmlns:xlink="http://www.w3.org/1999/xlink" xml:space="preserve" overflow="hidden"><defs><clipPath id="clip0"><rect x="2904" y="241" width="3407" height="1702"/></clipPath><clipPath id="clip1"><rect x="2904" y="240" width="3407" height="1702"/></clipPath><clipPath id="clip2"><rect x="2904" y="240" width="3407" height="1702"/></clipPath><clipPath id="clip3"><rect x="2904" y="240" width="3407" height="1702"/></clipPath><clipPath id="clip4"><rect x="2904" y="240" width="3407" height="1702"/></clipPath><clipPath id="clip5"><rect x="3310" y="442" width="2862" height="1176"/></clipPath><clipPath id="clip6"><rect x="3310" y="442" width="2862" height="1176"/></clipPath><clipPath id="clip7"><rect x="3310" y="442" width="2862" height="1176"/></clipPath><clipPath id="clip8"><rect x="3310" y="442" width="2862" height="1176"/></clipPath><clipPath id="clip9"><rect x="3310" y="442" width="2862" height="1176"/></clipPath><clipPath id="clip10"><rect x="2904" y="240" width="3407" height="1702"/></clipPath><clipPath id="clip11"><rect x="2904" y="240" width="3407" height="1702"/></clipPath><clipPath id="clip12"><rect x="2904" y="240" width="3407" height="1702"/></clipPath><clipPath id="clip13"><rect x="2904" y="240" width="3407" height="1702"/></clipPath><clipPath id="clip14"><rect x="2904" y="240" width="3407" height="1702"/></clipPath><clipPath id="clip15"><rect x="2904" y="240" width="3407" height="1702"/></clipPath><clipPath id="clip16"><rect x="2904" y="240" width="3407" height="1702"/></clipPath><clipPath id="clip17"><rect x="2904" y="240" width="3407" height="1702"/></clipPath><clipPath id="clip18"><rect x="2904" y="240" width="3407" height="1702"/></clipPath><clipPath id="clip19"><rect x="2904" y="240" width="3407" height="1702"/></clipPath><clipPath id="clip20"><rect x="2904" y="240" width="3407" height="1702"/></clipPath><clipPath id="clip21"><rect x="2904" y="240" width="3407" height="1702"/></clipPath><clipPath id="clip22"><rect x="2904" y="240" width="3407" height="1702"/></clipPath><clipPath id="clip23"><rect x="2904" y="240" width="3407" height="1702"/></clipPath><clipPath id="clip24"><rect x="2904" y="240" width="3407" height="1702"/></clipPath><clipPath id="clip25"><rect x="2904" y="240" width="3407" height="1702"/></clipPath><clipPath id="clip26"><rect x="2904" y="240" width="3407" height="1702"/></clipPath><clipPath id="clip27"><rect x="2904" y="240" width="3407" height="1702"/></clipPath><clipPath id="clip28"><rect x="2904" y="240" width="3407" height="1702"/></clipPath><clipPath id="clip29"><rect x="2904" y="240" width="3407" height="1702"/></clipPath><clipPath id="clip30"><rect x="2904" y="240" width="3407" height="1702"/></clipPath><clipPath id="clip31"><rect x="2904" y="240" width="3407" height="1702"/></clipPath><clipPath id="clip32"><rect x="2904" y="240" width="3407" height="1702"/></clipPath><clipPath id="clip33"><rect x="2904" y="240" width="3407" height="1702"/></clipPath><clipPath id="clip34"><rect x="2904" y="240" width="3407" height="1702"/></clipPath><clipPath id="clip35"><rect x="2904" y="240" width="3407" height="1702"/></clipPath><clipPath id="clip36"><rect x="2904" y="240" width="3407" height="1702"/></clipPath><clipPath id="clip37"><rect x="2904" y="240" width="3407" height="1702"/></clipPath><clipPath id="clip38"><rect x="2904" y="240" width="3407" height="1702"/></clipPath><clipPath id="clip39"><rect x="2904" y="240" width="3407" height="1702"/></clipPath><clipPath id="clip40"><rect x="2904" y="240" width="3407" height="1702"/></clipPath><clipPath id="clip41"><rect x="2904" y="240" width="3407" height="1702"/></clipPath><clipPath id="clip42"><rect x="2904" y="240" width="3407" height="1702"/></clipPath><clipPath id="clip43"><rect x="2904" y="240" width="3407" height="1702"/></clipPath><clipPath id="clip44"><rect x="2904" y="240" width="3407" height="1702"/></clipPath><clipPath id="clip45"><rect x="2904" y="240" width="3407" height="1702"/></clipPath><clipPath id="clip46"><rect x="2904" y="240" width="3407" height="1702"/></clipPath></defs><g clip-path="url(#clip0)" transform="translate(-2904 -241)"><rect x="2905" y="241" width="3406" height="1702" fill="#FFFFFF"/><g clip-path="url(#clip1)"><path d="M3310.5 1467.55 6168.5 1467.55M3310.5 1321.54 6168.5 1321.54M3310.5 1174.54 6168.5 1174.54M3310.5 1028.53 6168.5 1028.53M3310.5 881.529 6168.5 881.529M3310.5 735.524 6168.5 735.524M3310.5 588.52 6168.5 588.52M3310.5 442.5 6168.5 442.5" stroke="#D9D9D9" stroke-width="3.4375" stroke-linejoin="round" stroke-miterlimit="10" fill="none"/></g><g clip-path="url(#clip2)"><path d="M3595.62 442.5 3595.62 1614.5M3881.63 442.5 3881.63 1614.5M4167.64 442.5 4167.64 1614.5M4453.65 442.5 4453.65 1614.5M4739.66 442.5 4739.66 1614.5M5025.67 442.5 5025.67 1614.5M5310.67 442.5 5310.67 1614.5M5596.68 442.5 5596.68 1614.5M5882.69 442.5 5882.69 1614.5M6168.5 442.5 6168.5 1614.5" stroke="#D9D9D9" stroke-width="3.4375" stroke-linejoin="round" stroke-miterlimit="10" fill="none"/></g><g clip-path="url(#clip3)"><path d="M0 0 0.000360892 1172" stroke="#BFBFBF" stroke-width="3.4375" stroke-linejoin="round" stroke-miterlimit="10" fill="none" fill-rule="evenodd" transform="matrix(1 0 0 -1 3310.5 1614.5)"/></g><g clip-path="url(#clip4)"><path d="M3310.5 1614.5 6168.5 1614.5" stroke="#BFBFBF" stroke-width="3.4375" stroke-linejoin="round" stroke-miterlimit="10" fill="none" fill-rule="evenodd"/></g><g clip-path="url(#clip5)"><path d="M3315.5 1608.5 3359.61 1587.55 3407.61 1587.55 3455.61 1580.55 3504.62 1580.55 3553.62 1561.55 3601.62 1556.55 3650.62 1569.55 3698.62 1543.55 3747.62 1553.55 3796.62 1547.55 3844.63 1545.55 3893.63 1542.55 3941.63 1533.55 3990.63 1526.55 4038.63 1523.55 4087.63 1523.55 4136.64 1497.55 4184.64 1500.55 4233.64 1495.55 4281.64 1479.55 4330.64 1449.55 4379.64 1416.55 4427.65 1341.54 4476.65 1305.54 4524.65 1166.54 4573.65 1145.54 4622.65 1128.54 4670.65 1096.54 4719.66 1095.54 4767.66 1080.54 4816.66 1070.54 4865.66 1054.53 4913.66 1011.53 4962.66 1006.53 5010.66 1002.53 5059.67 977.532 5107.67 975.532 5156.67 950.531 5205.67 934.531 5253.67 892.529 5302.67 862.528 5350.68 832.527 5399.68 828.527 5448.68 827.527 5496.68 824.527 5545.68 808.527 5593.68 807.527 5642.69 788.526 5691.69 778.526 5739.69 769.525 5788.69 766.525 5836.69 755.525 5885.69 731.524 5933.69 714.524 5982.7 674.522 6031.7 639.521 6079.7 636.521 6128.7 634.521 6168.5 618.5" stroke="#ED7D31" stroke-width="6.875" stroke-linecap="round" stroke-linejoin="round" stroke-miterlimit="10" fill="none"/></g><g clip-path="url(#clip6)"><path d="M3315.5 1602.5 3359.61 1592.55 3407.61 1588.55 3455.61 1574.55 3504.62 1584.55 3553.62 1577.55 3601.62 1570.55 3650.62 1555.55 3698.62 1553.55 3747.62 1545.55 3796.62 1529.55 3844.63 1527.55 3893.63 1523.55 3941.63 1519.55 3990.63 1513.55 4038.63 1510.55 4087.63 1507.55 4136.64 1506.55 4184.64 1494.55 4233.64 1491.55 4281.64 1493.55 4330.64 1489.55 4379.64 1483.55 4427.65 1479.55 4476.65 1433.55 4524.65 1150.54 4573.65 1044.53 4622.65 1043.53 4670.65 1037.53 4719.66 950.531 4767.66 892.529 4816.66 945.531 4865.66 879.529 4913.66 920.53 4962.66 886.529 5010.66 904.53 5059.67 882.529 5107.67 877.529 5156.67 860.528 5205.67 840.528 5253.67 843.528 5302.67 752.525 5350.68 806.527 5399.68 789.526 5448.68 719.524 5496.68 735.524 5545.68 728.524 5593.68 747.525 5642.69 703.523 5691.69 651.522 5739.69 662.522 5788.69 634.521 5836.69 665.522 5885.69 628.521 5933.69 596.52 5982.7 595.5 6031.7 602.52 6079.7 603.52 6128.7 598.52 6168.5 599.52" stroke="#A5A5A5" stroke-width="6.875" stroke-linecap="round" stroke-linejoin="round" stroke-miterlimit="10" fill="none"/></g><g clip-path="url(#clip7)"><path d="M3315.5 1589.5 3359.61 1566.55 3407.61 1537.55 3455.61 1509.55 3504.62 1508.55 3553.62 1507.55 3601.62 1487.55 3650.62 1447.55 3698.62 1433.55 3747.62 1423.55 3796.62 1417.55 3844.63 1392.55 3893.63 1388.55 3941.63 1385.55 3990.63 1364.54 4038.63 1359.54 4087.63 1357.54 4136.64 1314.54 4184.64 1303.54 4233.64 1296.54 4281.64 1287.54 4330.64 1261.54 4379.64 1242.54 4427.65 1214.54 4476.65 1169.54 4524.65 1150.54 4573.65 1150.54 4622.65 1124.54 4670.65 1086.54 4719.66 1070.54 4767.66 1051.53 4816.66 1027.53 4865.66 1026.53 4913.66 1023.53 4962.66 1016.53 5010.66 999.533 5059.67 948.531 5107.67 943.531 5156.67 936.531 5205.67 930.531 5253.67 891.529 5302.67 889.529 5350.68 857.528 5399.68 858.528 5448.68 847.528 5496.68 837.528 5545.68 818.527 5593.68 776.526 5642.69 763.525 5691.69 760.525 5739.69 756.525 5788.69 732.524 5836.69 725.524 5885.69 721.524 5933.69 712.524 5982.7 709.523 6031.7 685.523 6079.7 609.52 6128.7 599.52 6168.5 598.5" stroke="#4472C4" stroke-width="6.875" stroke-linecap="round" stroke-linejoin="round" stroke-miterlimit="10" fill="none"/></g><g clip-path="url(#clip8)"><path d="M3315.5 1611.5 3359.61 1611.55 3407.61 1609.55 3455.61 1593.55 3504.62 1590.55 3553.62 1551.55 3601.62 1545.55 3650.62 1535.55 3698.62 1527.55 3747.62 1505.55 3796.62 1499.55 3844.63 1476.55 3893.63 1469.55 3941.63 1461.55 3990.63 1457.55 4038.63 1443.55 4087.63 1423.55 4136.64 1421.55 4184.64 1382.55 4233.64 1317.54 4281.64 1280.54 4330.64 1232.54 4379.64 1225.54 4427.65 1200.54 4476.65 1177.54 4524.65 1146.54 4573.65 1083.54 4622.65 1079.54 4670.65 1016.53 4719.66 1111.54 4767.66 1107.54 4816.66 1104.54 4865.66 1086.54 4913.66 1082.54 4962.66 1068.54 5010.66 1064.54 5059.67 1059.53 5107.67 1057.53 5156.67 1043.53 5205.67 1038.53 5253.67 1020.53 5302.67 998.533 5350.68 925.531 5399.68 901.53 5448.68 870.529 5496.68 865.529 5545.68 862.529 5593.68 853.528 5642.69 847.528 5691.69 805.527 5739.69 787.526 5788.69 784.526 5836.69 780.5 5885.69 780.526 5933.69 791.526 5982.7 785.526 6031.7 789.526 6079.7 780.5 6128.7 784.526 6168.5 799.526" stroke="#FFC000" stroke-width="6.875" stroke-linecap="round" stroke-linejoin="round" stroke-miterlimit="10" fill="none"/></g><g clip-path="url(#clip9)"><path d="M3315.5 1609.5 3359.61 1591.55 3407.61 1565.55 3455.61 1552.55 3504.62 1542.55 3553.62 1528.55 3601.62 1509.55 3650.62 1508.55 3698.62 1502.55 3747.62 1474.55 3796.62 1375.55 3844.63 1413.55 3893.63 1353.54 3941.63 1390.55 3990.63 1383.55 4038.63 1308.54 4087.63 1326.54 4136.64 1292.54 4184.64 1220.54 4233.64 1285.54 4281.64 1243.54 4330.64 1188.54 4379.64 1209.54 4427.65 1147.54 4476.65 1204.54 4524.65 1115.54 4573.65 1111.54 4622.65 1104.54 4670.65 1044.53 4719.66 1022.53 4767.66 1075.54 4816.66 1052.53 4865.66 1026.53 4913.66 982.532 4962.66 958.532 5010.66 995.533 5059.67 948.531 5107.67 982.532 5156.67 981.532 5205.67 984.532 5253.67 918.53 5302.67 910.53 5350.68 890.529 5399.68 875.529 5448.68 847.528 5496.68 865.529 5545.68 807.527 5593.68 798.526 5642.69 835.528 5691.69 844.528 5739.69 814.527 5788.69 813.527 5836.69 800.526 5885.69 785.526 5933.69 766.525 5982.7 760.525 6031.7 760.525 6079.7 760.525 6128.7 754.525 6168.5 754.5" stroke="#5B9BD5" stroke-width="6.875" stroke-linecap="round" stroke-linejoin="round" stroke-miterlimit="10" fill="none"/></g><g clip-path="url(#clip10)"><text font-family="LM Roman 10,LM Roman 10_MSFontService,sans-serif" font-weight="700" font-size="64" transform="matrix(1 0 0 1 3203.31 1635)">0</text></g><g clip-path="url(#clip11)"><text font-family="LM Roman 10,LM Roman 10_MSFontService,sans-serif" font-weight="700" font-size="64" transform="matrix(1 0 0 1 3092.63 1488)">1000</text></g><g clip-path="url(#clip12)"><text font-family="LM Roman 10,LM Roman 10_MSFontService,sans-serif" font-weight="700" font-size="64" transform="matrix(1 0 0 1 3092.63 1342)">2000</text></g><g clip-path="url(#clip13)"><text font-family="LM Roman 10,LM Roman 10_MSFontService,sans-serif" font-weight="700" font-size="64" transform="matrix(1 0 0 1 3092.63 1195)">3000</text></g><g clip-path="url(#clip14)"><text font-family="LM Roman 10,LM Roman 10_MSFontService,sans-serif" font-weight="700" font-size="64" transform="matrix(1 0 0 1 3092.63 1049)">4000</text></g><g clip-path="url(#clip15)"><text font-family="LM Roman 10,LM Roman 10_MSFontService,sans-serif" font-weight="700" font-size="64" transform="matrix(1 0 0 1 3092.63 902)">5000</text></g><g clip-path="url(#clip16)"><text font-family="LM Roman 10,LM Roman 10_MSFontService,sans-serif" font-weight="700" font-size="64" transform="matrix(1 0 0 1 3092.63 756)">6000</text></g><g clip-path="url(#clip17)"><text font-family="LM Roman 10,LM Roman 10_MSFontService,sans-serif" font-weight="700" font-size="64" transform="matrix(1 0 0 1 3092.63 609)">7000</text></g><g clip-path="url(#clip18)"><text font-family="LM Roman 10,LM Roman 10_MSFontService,sans-serif" font-weight="700" font-size="64" transform="matrix(1 0 0 1 3092.63 463)">8000</text></g><g clip-path="url(#clip19)"><text font-family="LM Roman 10,LM Roman 10_MSFontService,sans-serif" font-weight="700" font-size="64" transform="matrix(1 0 0 1 3291.8 1736)">0</text></g><g clip-path="url(#clip20)"><text font-family="LM Roman 10,LM Roman 10_MSFontService,sans-serif" font-weight="700" font-size="64" transform="matrix(1 0 0 1 3540.74 1736)">500</text></g><g clip-path="url(#clip21)"><text font-family="LM Roman 10,LM Roman 10_MSFontService,sans-serif" font-weight="700" font-size="64" transform="matrix(1 0 0 1 3789.67 1736)">1 000</text></g><g clip-path="url(#clip22)"><text font-family="LM Roman 10,LM Roman 10_MSFontService,sans-serif" font-weight="700" font-size="64" transform="matrix(1 0 0 1 4075.51 1736)">1 500</text></g><g clip-path="url(#clip23)"><text font-family="LM Roman 10,LM Roman 10_MSFontService,sans-serif" font-weight="700" font-size="64" transform="matrix(1 0 0 1 4361.34 1736)">2 000</text></g><g clip-path="url(#clip24)"><text font-family="LM Roman 10,LM Roman 10_MSFontService,sans-serif" font-weight="700" font-size="64" transform="matrix(1 0 0 1 4647.17 1736)">2 500</text></g><g clip-path="url(#clip25)"><text font-family="LM Roman 10,LM Roman 10_MSFontService,sans-serif" font-weight="700" font-size="64" transform="matrix(1 0 0 1 4933 1736)">3 000</text></g><g clip-path="url(#clip26)"><text font-family="LM Roman 10,LM Roman 10_MSFontService,sans-serif" font-weight="700" font-size="64" transform="matrix(1 0 0 1 5218.83 1736)">3 500</text></g><g clip-path="url(#clip27)"><text font-family="LM Roman 10,LM Roman 10_MSFontService,sans-serif" font-weight="700" font-size="64" transform="matrix(1 0 0 1 5504.66 1736)">4 000</text></g><g clip-path="url(#clip28)"><text font-family="LM Roman 10,LM Roman 10_MSFontService,sans-serif" font-weight="700" font-size="64" transform="matrix(1 0 0 1 5790.5 1736)">4 500</text></g><g clip-path="url(#clip29)"><text font-family="LM Roman 10,LM Roman 10_MSFontService,sans-serif" font-weight="700" font-size="64" transform="matrix(1 0 0 1 6076.33 1736)">5 000</text></g><g clip-path="url(#clip30)"><text font-family="LM Roman 10,LM Roman 10_MSFontService,sans-serif" font-weight="400" font-size="83" transform="matrix(6.12323e-17 -1 1 6.12323e-17 3007 1592)">Średni czas odpowiedzi (ms)</text></g><g clip-path="url(#clip31)"><text font-family="LM Roman 10,LM Roman 10_MSFontService,sans-serif" font-weight="400" font-size="83" transform="matrix(1 0 0 1 3934.99 1912)">Liczba współbieżnie działających wątków</text></g><g clip-path="url(#clip32)"><text font-family="LM Roman 10,LM Roman 10_MSFontService,sans-serif" font-weight="700" font-size="64" transform="matrix(1 0 0 1 3437.37 366)">Interfejs API: </text></g><g clip-path="url(#clip33)"><text font-family="LM Roman 10,LM Roman 10_MSFontService,sans-serif" font-weight="400" font-size="64" transform="matrix(1 0 0 1 3909 366)">C# .NET API</text></g><g clip-path="url(#clip34)"><text font-family="LM Roman 10,LM Roman 10_MSFontService,sans-serif" font-weight="700" font-size="64" transform="matrix(1 0 0 1 4322.48 366)">. Punkt końcowy: </text></g><g clip-path="url(#clip35)"><text font-family="LM Roman 10,LM Roman 10_MSFontService,sans-serif" font-weight="400" font-size="64" transform="matrix(1 0 0 1 4911.9 366)">DELETE /API/RESERVATIONS/:ID</text></g><g clip-path="url(#clip36)"><rect x="3329.5" y="462.5" width="540" height="467" stroke="#BFBFBF" stroke-width="3.4375" stroke-linejoin="round" stroke-miterlimit="10" fill="#FFFFFF"/></g><g clip-path="url(#clip37)"><path d="M3383.5 509.5 3471.5 509.5" stroke="#ED7D31" stroke-width="6.875" stroke-linecap="round" stroke-linejoin="round" stroke-miterlimit="10" fill="none" fill-rule="evenodd"/></g><g clip-path="url(#clip38)"><text font-family="LM Roman 10,LM Roman 10_MSFontService,sans-serif" font-weight="400" font-size="64" transform="matrix(1 0 0 1 3480.57 529)">SQL Server</text></g><g clip-path="url(#clip39)"><path d="M3383.5 602.5 3471.5 602.5" stroke="#A5A5A5" stroke-width="6.875" stroke-linecap="round" stroke-linejoin="round" stroke-miterlimit="10" fill="none" fill-rule="evenodd"/></g><g clip-path="url(#clip40)"><text font-family="LM Roman 10,LM Roman 10_MSFontService,sans-serif" font-weight="400" font-size="64" transform="matrix(1 0 0 1 3480.57 622)">MySQL</text></g><g clip-path="url(#clip41)"><path d="M3383.5 695.5 3471.5 695.5" stroke="#4472C4" stroke-width="6.875" stroke-linecap="round" stroke-linejoin="round" stroke-miterlimit="10" fill="none" fill-rule="evenodd"/></g><g clip-path="url(#clip42)"><text font-family="LM Roman 10,LM Roman 10_MSFontService,sans-serif" font-weight="400" font-size="64" transform="matrix(1 0 0 1 3480.57 716)">SQLIte</text></g><g clip-path="url(#clip43)"><path d="M3383.5 789.5 3471.5 789.5" stroke="#FFC000" stroke-width="6.875" stroke-linecap="round" stroke-linejoin="round" stroke-miterlimit="10" fill="none" fill-rule="evenodd"/></g><g clip-path="url(#clip44)"><text font-family="LM Roman 10,LM Roman 10_MSFontService,sans-serif" font-weight="400" font-size="64" transform="matrix(1 0 0 1 3480.57 809)">PostgreSQL</text></g><g clip-path="url(#clip45)"><path d="M3383.5 882.5 3471.5 882.5" stroke="#5B9BD5" stroke-width="6.875" stroke-linecap="round" stroke-linejoin="round" stroke-miterlimit="10" fill="none" fill-rule="evenodd"/></g><g clip-path="url(#clip46)"><text font-family="LM Roman 10,LM Roman 10_MSFontService,sans-serif" font-weight="400" font-size="64" transform="matrix(1 0 0 1 3480.57 902)">MongoDB</text></g></g></svg>