<svg width="3407" height="1702" xmlns="http://www.w3.org/2000/svg" xmlns:xlink="http://www.w3.org/1999/xlink" xml:space="preserve" overflow="hidden"><defs><clipPath id="clip0"><rect x="2870" y="241" width="3407" height="1702"/></clipPath><clipPath id="clip1"><rect x="2870" y="240" width="3406" height="1702"/></clipPath><clipPath id="clip2"><rect x="2870" y="240" width="3406" height="1702"/></clipPath><clipPath id="clip3"><rect x="2870" y="240" width="3406" height="1702"/></clipPath><clipPath id="clip4"><rect x="2870" y="240" width="3406" height="1702"/></clipPath><clipPath id="clip5"><rect x="3312" y="458" width="2825" height="1160"/></clipPath><clipPath id="clip6"><rect x="3312" y="458" width="2825" height="1160"/></clipPath><clipPath id="clip7"><rect x="3312" y="458" width="2825" height="1160"/></clipPath><clipPath id="clip8"><rect x="3312" y="458" width="2825" height="1160"/></clipPath><clipPath id="clip9"><rect x="3312" y="458" width="2825" height="1160"/></clipPath><clipPath id="clip10"><rect x="2870" y="240" width="3406" height="1702"/></clipPath><clipPath id="clip11"><rect x="2870" y="240" width="3406" height="1702"/></clipPath><clipPath id="clip12"><rect x="2870" y="240" width="3406" height="1702"/></clipPath><clipPath id="clip13"><rect x="2870" y="240" width="3406" height="1702"/></clipPath><clipPath id="clip14"><rect x="2870" y="240" width="3406" height="1702"/></clipPath><clipPath id="clip15"><rect x="2870" y="240" width="3406" height="1702"/></clipPath><clipPath id="clip16"><rect x="2870" y="240" width="3406" height="1702"/></clipPath><clipPath id="clip17"><rect x="2870" y="240" width="3406" height="1702"/></clipPath><clipPath id="clip18"><rect x="2870" y="240" width="3406" height="1702"/></clipPath><clipPath id="clip19"><rect x="2870" y="240" width="3406" height="1702"/></clipPath><clipPath id="clip20"><rect x="2870" y="240" width="3406" height="1702"/></clipPath><clipPath id="clip21"><rect x="2870" y="240" width="3406" height="1702"/></clipPath><clipPath id="clip22"><rect x="2870" y="240" width="3406" height="1702"/></clipPath><clipPath id="clip23"><rect x="2870" y="240" width="3406" height="1702"/></clipPath><clipPath id="clip24"><rect x="2870" y="240" width="3406" height="1702"/></clipPath><clipPath id="clip25"><rect x="2870" y="240" width="3406" height="1702"/></clipPath><clipPath id="clip26"><rect x="2870" y="240" width="3406" height="1702"/></clipPath><clipPath id="clip27"><rect x="2870" y="240" width="3406" height="1702"/></clipPath><clipPath id="clip28"><rect x="2870" y="240" width="3406" height="1702"/></clipPath><clipPath id="clip29"><rect x="2870" y="240" width="3406" height="1702"/></clipPath><clipPath id="clip30"><rect x="2870" y="240" width="3406" height="1702"/></clipPath><clipPath id="clip31"><rect x="2870" y="240" width="3406" height="1702"/></clipPath><clipPath id="clip32"><rect x="2870" y="240" width="3406" height="1702"/></clipPath><clipPath id="clip33"><rect x="2870" y="240" width="3406" height="1702"/></clipPath><clipPath id="clip34"><rect x="2870" y="240" width="3406" height="1702"/></clipPath><clipPath id="clip35"><rect x="2870" y="240" width="3406" height="1702"/></clipPath><clipPath id="clip36"><rect x="2870" y="240" width="3406" height="1702"/></clipPath><clipPath id="clip37"><rect x="2870" y="240" width="3406" height="1702"/></clipPath><clipPath id="clip38"><rect x="2870" y="240" width="3406" height="1702"/></clipPath><clipPath id="clip39"><rect x="2870" y="240" width="3406" height="1702"/></clipPath><clipPath id="clip40"><rect x="2870" y="240" width="3406" height="1702"/></clipPath><clipPath id="clip41"><rect x="2870" y="240" width="3406" height="1702"/></clipPath><clipPath id="clip42"><rect x="2870" y="240" width="3406" height="1702"/></clipPath><clipPath id="clip43"><rect x="2870" y="240" width="3406" height="1702"/></clipPath><clipPath id="clip44"><rect x="2870" y="240" width="3406" height="1702"/></clipPath><clipPath id="clip45"><rect x="2870" y="240" width="3406" height="1702"/></clipPath></defs><g clip-path="url(#clip0)" transform="translate(-2870 -241)"><rect x="2870" y="241" width="3407" height="1702" fill="#FFFFFF"/><g clip-path="url(#clip1)"><path d="M3312.5 1449.55 6134.5 1449.55M3312.5 1284.54 6134.5 1284.54M3312.5 1119.54 6134.5 1119.54M3312.5 953.531 6134.5 953.531M3312.5 788.526 6134.5 788.526M3312.5 623.521 6134.5 623.521M3312.5 458.5 6134.5 458.5" stroke="#D9D9D9" stroke-width="3.4375" stroke-linejoin="round" stroke-miterlimit="10" fill="none"/></g><g clip-path="url(#clip2)"><path d="M3594.62 458.5 3594.62 1614.5M3876.63 458.5 3876.63 1614.5M4159.64 458.5 4159.64 1614.5M4441.65 458.5 4441.65 1614.5M4723.66 458.5 4723.66 1614.5M5005.66 458.5 5005.66 1614.5M5287.67 458.5 5287.67 1614.5M5569.68 458.5 5569.68 1614.5M5851.69 458.5 5851.69 1614.5M6134.5 458.5 6134.5 1614.5" stroke="#D9D9D9" stroke-width="3.4375" stroke-linejoin="round" stroke-miterlimit="10" fill="none"/></g><g clip-path="url(#clip3)"><path d="M0 0 0.000360892 1156" stroke="#BFBFBF" stroke-width="3.4375" stroke-linejoin="round" stroke-miterlimit="10" fill="none" fill-rule="evenodd" transform="matrix(1 0 0 -1 3312.5 1614.5)"/></g><g clip-path="url(#clip4)"><path d="M3312.5 1614.5 6134.5 1614.5" stroke="#BFBFBF" stroke-width="3.4375" stroke-linejoin="round" stroke-miterlimit="10" fill="none" fill-rule="evenodd"/></g><g clip-path="url(#clip5)"><path d="M3318.5 1589.5 3361.61 1567.55 3408.61 1564.55 3456.61 1553.55 3504.61 1550.55 3552.62 1520.55 3600.62 1505.55 3648.62 1498.55 3696.62 1487.55 3744.62 1478.55 3792.62 1475.55 3840.63 1468.55 3888.63 1462.55 3936.63 1414.55 3984.63 1405.55 4032.63 1385.55 4080.63 1286.54 4128.64 1282.54 4175.64 1258.54 4223.64 1255.54 4271.64 1249.54 4319.64 1231.54 4367.64 1201.54 4415.65 1172.54 4463.65 1171.54 4511.65 1170.54 4559.65 1147.54 4607.65 1137.54 4655.65 1118.54 4703.65 1105.54 4751.66 1087.54 4799.66 1086.54 4847.66 1084.54 4895.66 1072.54 4943.66 1068.54 4991.66 1063.54 5039.67 1060.53 5087.67 1054.53 5135.67 1048.53 5183.67 1042.53 5231.67 1039.53 5279.67 1016.53 5327.67 1016.53 5375.68 954.531 5423.68 946.531 5470.68 942.531 5518.68 936.531 5566.68 928.531 5614.68 919.53 5662.69 912.53 5710.69 888.529 5758.69 874.529 5806.69 873.529 5854.69 872.529 5902.69 867.529 5950.7 864.529 5998.7 859.528 6046.7 846.528 6094.7 818.527 6134.5 806.5" stroke="#ED7D31" stroke-width="6.875" stroke-linecap="round" stroke-linejoin="round" stroke-miterlimit="10" fill="none"/></g><g clip-path="url(#clip6)"><path d="M3318.5 1599.5 3361.61 1579.55 3408.61 1563.55 3456.61 1536.55 3504.61 1531.55 3552.62 1511.55 3600.62 1511.55 3648.62 1471.55 3696.62 1468.55 3744.62 1461.55 3792.62 1447.55 3840.63 1436.55 3888.63 1393.55 3936.63 1339.54 3984.63 1313.54 4032.63 1300.54 4080.63 1287.54 4128.64 1252.54 4175.64 1233.54 4223.64 1217.54 4271.64 1215.54 4319.64 1200.54 4367.64 1199.54 4415.65 1195.54 4463.65 1192.54 4511.65 1184.54 4559.65 1170.54 4607.65 1169.54 4655.65 1164.54 4703.65 1152.54 4751.66 1132.54 4799.66 1121.54 4847.66 1117.54 4895.66 1110.54 4943.66 1090.54 4991.66 1087.54 5039.67 1081.54 5087.67 1066.54 5135.67 1042.53 5183.67 1041.53 5231.67 1039.53 5279.67 1039.53 5327.67 1017.53 5375.68 1003.53 5423.68 990.533 5470.68 980.532 5518.68 943.531 5566.68 932.531 5614.68 921.53 5662.69 916.53 5710.69 903.53 5758.69 899.53 5806.69 898.53 5854.69 891.529 5902.69 884.529 5950.7 819.527 5998.7 818.527 6046.7 801.526 6094.7 800.526 6134.5 791.5" stroke="#A5A5A5" stroke-width="6.875" stroke-linecap="round" stroke-linejoin="round" stroke-miterlimit="10" fill="none"/></g><g clip-path="url(#clip7)"><path d="M3318.5 1608.5 3361.61 1601.55 3408.61 1595.55 3456.61 1592.55 3504.61 1573.55 3552.62 1567.55 3600.62 1546.55 3648.62 1545.55 3696.62 1542.55 3744.62 1542.55 3792.62 1518.55 3840.63 1512.55 3888.63 1507.55 3936.63 1500.55 3984.63 1483.55 4032.63 1478.55 4080.63 1477.55 4128.64 1467.55 4175.64 1461.55 4223.64 1453.55 4271.64 1445.55 4319.64 1445.55 4367.64 1441.55 4415.65 1440.55 4463.65 1418.55 4511.65 1418.55 4559.65 1413.55 4607.65 1411.55 4655.65 1404.55 4703.65 1389.55 4751.66 1380.55 4799.66 1380.55 4847.66 1363.54 4895.66 1353.54 4943.66 1341.54 4991.66 1340.54 5039.67 1321.54 5087.67 1317.54 5135.67 1316.54 5183.67 1316.54 5231.67 1299.54 5279.67 1295.54 5327.67 1289.54 5375.68 1117.54 5423.68 1109.54 5470.68 1022.53 5518.68 993.533 5566.68 982.532 5614.68 979.532 5662.69 813.527 5710.69 811.527 5758.69 710.523 5806.69 627.521 5854.69 616.52 5902.69 612.52 5950.7 600.52 5998.7 575.519 6046.7 573.519 6094.7 560.519 6134.5 545.5" stroke="#4472C4" stroke-width="6.875" stroke-linecap="round" stroke-linejoin="round" stroke-miterlimit="10" fill="none"/></g><g clip-path="url(#clip8)"><path d="M3318.5 1604.5 3361.61 1603.55 3408.61 1597.55 3456.61 1594.55 3504.61 1592.55 3552.62 1585.55 3600.62 1571.55 3648.62 1568.55 3696.62 1565.55 3744.62 1563.55 3792.62 1563.55 3840.63 1553.55 3888.63 1538.55 3936.63 1523.55 3984.63 1522.55 4032.63 1519.55 4080.63 1516.55 4128.64 1515.55 4175.64 1504.55 4223.64 1493.55 4271.64 1487.55 4319.64 1486.55 4367.64 1480.55 4415.65 1473.55 4463.65 1468.55 4511.65 1467.55 4559.65 1464.55 4607.65 1437.55 4655.65 1433.55 4703.65 1425.55 4751.66 1421.55 4799.66 1414.55 4847.66 1380.55 4895.66 1372.55 4943.66 1372.55 4991.66 1349.54 5039.67 1340.54 5087.67 1333.54 5135.67 1301.54 5183.67 1301.54 5231.67 1266.54 5279.67 1265.54 5327.67 1263.54 5375.68 1245.54 5423.68 1236.54 5470.68 1221.54 5518.68 1213.54 5566.68 1213.54 5614.68 1190.54 5662.69 1180.54 5710.69 1168.54 5758.69 1154.54 5806.69 1147.54 5854.69 1144.54 5902.69 1131.54 5950.7 1130.54 5998.7 1129.54 6046.7 1127.54 6094.7 1126.54 6134.5 1120.5" stroke="#FFC000" stroke-width="6.875" stroke-linecap="round" stroke-linejoin="round" stroke-miterlimit="10" fill="none"/></g><g clip-path="url(#clip9)"><path d="M3318.5 1606.5 3361.61 1589.55 3408.61 1581.55 3456.61 1579.55 3504.61 1546.55 3552.62 1511.55 3600.62 1496.55 3648.62 1464.55 3696.62 1433.55 3744.62 1376.55 3792.62 1336.54 3840.63 1335.54 3888.63 1333.54 3936.63 1329.54 3984.63 1314.54 4032.63 1310.54 4080.63 1306.54 4128.64 1297.54 4175.64 1294.54 4223.64 1276.54 4271.64 1263.54 4319.64 1257.54 4367.64 1252.54 4415.65 1242.54 4463.65 1239.54 4511.65 1229.54 4559.65 1212.54 4607.65 1205.54 4655.65 1199.54 4703.65 1193.54 4751.66 1183.54 4799.66 1170.54 4847.66 1161.54 4895.66 1145.54 4943.66 1139.54 4991.66 1105.54 5039.67 1082.54 5087.67 1076.54 5135.67 1073.54 5183.67 1067.54 5231.67 1064.54 5279.67 1063.54 5327.67 1060.53 5375.68 1055.53 5423.68 1054.53 5470.68 1014.53 5518.68 1008.53 5566.68 970.532 5614.68 954.531 5662.69 938.531 5710.69 920.53 5758.69 909.53 5806.69 889.529 5854.69 865.529 5902.69 857.528 5950.7 848.528 5998.7 843.528 6046.7 841.528 6094.7 795.526 6134.5 790.5" stroke="#5B9BD5" stroke-width="6.875" stroke-linecap="round" stroke-linejoin="round" stroke-miterlimit="10" fill="none"/></g><g clip-path="url(#clip10)"><text font-family="LM Roman 10,LM Roman 10_MSFontService,sans-serif" font-weight="700" font-size="64" transform="matrix(1 0 0 1 3205.83 1635)">0</text></g><g clip-path="url(#clip11)"><text font-family="LM Roman 10,LM Roman 10_MSFontService,sans-serif" font-weight="700" font-size="64" transform="matrix(1 0 0 1 3095.15 1470)">2000</text></g><g clip-path="url(#clip12)"><text font-family="LM Roman 10,LM Roman 10_MSFontService,sans-serif" font-weight="700" font-size="64" transform="matrix(1 0 0 1 3095.15 1305)">4000</text></g><g clip-path="url(#clip13)"><text font-family="LM Roman 10,LM Roman 10_MSFontService,sans-serif" font-weight="700" font-size="64" transform="matrix(1 0 0 1 3095.15 1139)">6000</text></g><g clip-path="url(#clip14)"><text font-family="LM Roman 10,LM Roman 10_MSFontService,sans-serif" font-weight="700" font-size="64" transform="matrix(1 0 0 1 3095.15 974)">8000</text></g><g clip-path="url(#clip15)"><text font-family="LM Roman 10,LM Roman 10_MSFontService,sans-serif" font-weight="700" font-size="64" transform="matrix(1 0 0 1 3058.25 809)">10000</text></g><g clip-path="url(#clip16)"><text font-family="LM Roman 10,LM Roman 10_MSFontService,sans-serif" font-weight="700" font-size="64" transform="matrix(1 0 0 1 3058.25 644)">12000</text></g><g clip-path="url(#clip17)"><text font-family="LM Roman 10,LM Roman 10_MSFontService,sans-serif" font-weight="700" font-size="64" transform="matrix(1 0 0 1 3058.25 479)">14000</text></g><g clip-path="url(#clip18)"><text font-family="LM Roman 10,LM Roman 10_MSFontService,sans-serif" font-weight="700" font-size="64" transform="matrix(1 0 0 1 3294.32 1736)">0</text></g><g clip-path="url(#clip19)"><text font-family="LM Roman 10,LM Roman 10_MSFontService,sans-serif" font-weight="700" font-size="64" transform="matrix(1 0 0 1 3539.57 1736)">500</text></g><g clip-path="url(#clip20)"><text font-family="LM Roman 10,LM Roman 10_MSFontService,sans-serif" font-weight="700" font-size="64" transform="matrix(1 0 0 1 3784.82 1736)">1 000</text></g><g clip-path="url(#clip21)"><text font-family="LM Roman 10,LM Roman 10_MSFontService,sans-serif" font-weight="700" font-size="64" transform="matrix(1 0 0 1 4066.96 1736)">1 500</text></g><g clip-path="url(#clip22)"><text font-family="LM Roman 10,LM Roman 10_MSFontService,sans-serif" font-weight="700" font-size="64" transform="matrix(1 0 0 1 4349.1 1736)">2 000</text></g><g clip-path="url(#clip23)"><text font-family="LM Roman 10,LM Roman 10_MSFontService,sans-serif" font-weight="700" font-size="64" transform="matrix(1 0 0 1 4631.24 1736)">2 500</text></g><g clip-path="url(#clip24)"><text font-family="LM Roman 10,LM Roman 10_MSFontService,sans-serif" font-weight="700" font-size="64" transform="matrix(1 0 0 1 4913.38 1736)">3 000</text></g><g clip-path="url(#clip25)"><text font-family="LM Roman 10,LM Roman 10_MSFontService,sans-serif" font-weight="700" font-size="64" transform="matrix(1 0 0 1 5195.53 1736)">3 500</text></g><g clip-path="url(#clip26)"><text font-family="LM Roman 10,LM Roman 10_MSFontService,sans-serif" font-weight="700" font-size="64" transform="matrix(1 0 0 1 5477.67 1736)">4 000</text></g><g clip-path="url(#clip27)"><text font-family="LM Roman 10,LM Roman 10_MSFontService,sans-serif" font-weight="700" font-size="64" transform="matrix(1 0 0 1 5759.81 1736)">4 500</text></g><g clip-path="url(#clip28)"><text font-family="LM Roman 10,LM Roman 10_MSFontService,sans-serif" font-weight="700" font-size="64" transform="matrix(1 0 0 1 6041.95 1736)">5 000</text></g><g clip-path="url(#clip29)"><text font-family="LM Roman 10,LM Roman 10_MSFontService,sans-serif" font-weight="400" font-size="83" transform="matrix(6.12323e-17 -1 1 6.12323e-17 2977.2 1569)">Średni czas odpowiedzi (ms)</text></g><g clip-path="url(#clip30)"><text font-family="LM Roman 10,LM Roman 10_MSFontService,sans-serif" font-weight="400" font-size="83" transform="matrix(1 0 0 1 3928.12 1912)">Liczba współbieżnie działających wątków</text></g><g clip-path="url(#clip31)"><text font-family="LM Roman 10,LM Roman 10_MSFontService,sans-serif" font-weight="700" font-size="76" transform="matrix(1 0 0 1 3389.91 361)">Interfejs API: </text></g><g clip-path="url(#clip32)"><text font-family="LM Roman 10,LM Roman 10_MSFontService,sans-serif" font-weight="400" font-size="76" transform="matrix(1 0 0 1 3945.75 361)">C# .NET API</text></g><g clip-path="url(#clip33)"><text font-family="LM Roman 10,LM Roman 10_MSFontService,sans-serif" font-weight="700" font-size="76" transform="matrix(1 0 0 1 4433.08 361)">. Punkt końcowy: </text></g><g clip-path="url(#clip34)"><text font-family="LM Roman 10,LM Roman 10_MSFontService,sans-serif" font-weight="400" font-size="76" transform="matrix(1 0 0 1 5127.8 361)">PUT /API/COURSES/:ID</text></g><g clip-path="url(#clip35)"><rect x="3322.5" y="476.5" width="536" height="489" stroke="#BFBFBF" stroke-width="3.4375" stroke-linejoin="round" stroke-miterlimit="10" fill="#FFFFFF"/></g><g clip-path="url(#clip36)"><path d="M3374.5 525.5 3462.5 525.5" stroke="#ED7D31" stroke-width="6.875" stroke-linecap="round" stroke-linejoin="round" stroke-miterlimit="10" fill="none" fill-rule="evenodd"/></g><g clip-path="url(#clip37)"><text font-family="LM Roman 10,LM Roman 10_MSFontService,sans-serif" font-weight="400" font-size="64" transform="matrix(1 0 0 1 3471.4 545)">SQL Server</text></g><g clip-path="url(#clip38)"><path d="M3374.5 623.5 3462.5 623.5" stroke="#A5A5A5" stroke-width="6.875" stroke-linecap="round" stroke-linejoin="round" stroke-miterlimit="10" fill="none" fill-rule="evenodd"/></g><g clip-path="url(#clip39)"><text font-family="LM Roman 10,LM Roman 10_MSFontService,sans-serif" font-weight="400" font-size="64" transform="matrix(1 0 0 1 3471.4 643)">MySQL</text></g><g clip-path="url(#clip40)"><path d="M3374.5 720.5 3462.5 720.5" stroke="#4472C4" stroke-width="6.875" stroke-linecap="round" stroke-linejoin="round" stroke-miterlimit="10" fill="none" fill-rule="evenodd"/></g><g clip-path="url(#clip41)"><text font-family="LM Roman 10,LM Roman 10_MSFontService,sans-serif" font-weight="400" font-size="64" transform="matrix(1 0 0 1 3471.4 741)">SQLIte</text></g><g clip-path="url(#clip42)"><path d="M3374.5 818.5 3462.5 818.5" stroke="#FFC000" stroke-width="6.875" stroke-linecap="round" stroke-linejoin="round" stroke-miterlimit="10" fill="none" fill-rule="evenodd"/></g><g clip-path="url(#clip43)"><text font-family="LM Roman 10,LM Roman 10_MSFontService,sans-serif" font-weight="400" font-size="64" transform="matrix(1 0 0 1 3471.4 839)">PostgreSQL</text></g><g clip-path="url(#clip44)"><path d="M3374.5 916.5 3462.5 916.5" stroke="#5B9BD5" stroke-width="6.875" stroke-linecap="round" stroke-linejoin="round" stroke-miterlimit="10" fill="none" fill-rule="evenodd"/></g><g clip-path="url(#clip45)"><text font-family="LM Roman 10,LM Roman 10_MSFontService,sans-serif" font-weight="400" font-size="64" transform="matrix(1 0 0 1 3471.4 937)">MongoDB</text></g></g></svg>