<svg width="3407" height="1702" xmlns="http://www.w3.org/2000/svg" xmlns:xlink="http://www.w3.org/1999/xlink" xml:space="preserve" overflow="hidden"><defs><clipPath id="clip0"><rect x="2540" y="217" width="3407" height="1702"/></clipPath><clipPath id="clip1"><rect x="2540" y="216" width="3406" height="1702"/></clipPath><clipPath id="clip2"><rect x="2540" y="216" width="3406" height="1702"/></clipPath><clipPath id="clip3"><rect x="2540" y="216" width="3406" height="1702"/></clipPath><clipPath id="clip4"><rect x="2540" y="216" width="3406" height="1702"/></clipPath><clipPath id="clip5"><rect x="2945" y="424" width="2862" height="1169"/></clipPath><clipPath id="clip6"><rect x="2945" y="424" width="2862" height="1169"/></clipPath><clipPath id="clip7"><rect x="2945" y="424" width="2862" height="1169"/></clipPath><clipPath id="clip8"><rect x="2945" y="424" width="2862" height="1169"/></clipPath><clipPath id="clip9"><rect x="2945" y="424" width="2862" height="1169"/></clipPath><clipPath id="clip10"><rect x="2540" y="216" width="3406" height="1702"/></clipPath><clipPath id="clip11"><rect x="2540" y="216" width="3406" height="1702"/></clipPath><clipPath id="clip12"><rect x="2540" y="216" width="3406" height="1702"/></clipPath><clipPath id="clip13"><rect x="2540" y="216" width="3406" height="1702"/></clipPath><clipPath id="clip14"><rect x="2540" y="216" width="3406" height="1702"/></clipPath><clipPath id="clip15"><rect x="2540" y="216" width="3406" height="1702"/></clipPath><clipPath id="clip16"><rect x="2540" y="216" width="3406" height="1702"/></clipPath><clipPath id="clip17"><rect x="2540" y="216" width="3406" height="1702"/></clipPath><clipPath id="clip18"><rect x="2540" y="216" width="3406" height="1702"/></clipPath><clipPath id="clip19"><rect x="2540" y="216" width="3406" height="1702"/></clipPath><clipPath id="clip20"><rect x="2540" y="216" width="3406" height="1702"/></clipPath><clipPath id="clip21"><rect x="2540" y="216" width="3406" height="1702"/></clipPath><clipPath id="clip22"><rect x="2540" y="216" width="3406" height="1702"/></clipPath><clipPath id="clip23"><rect x="2540" y="216" width="3406" height="1702"/></clipPath><clipPath id="clip24"><rect x="2540" y="216" width="3406" height="1702"/></clipPath><clipPath id="clip25"><rect x="2540" y="216" width="3406" height="1702"/></clipPath><clipPath id="clip26"><rect x="2540" y="216" width="3406" height="1702"/></clipPath><clipPath id="clip27"><rect x="2540" y="216" width="3406" height="1702"/></clipPath><clipPath id="clip28"><rect x="2540" y="216" width="3406" height="1702"/></clipPath><clipPath id="clip29"><rect x="2540" y="216" width="3406" height="1702"/></clipPath><clipPath id="clip30"><rect x="2540" y="216" width="3406" height="1702"/></clipPath><clipPath id="clip31"><rect x="2540" y="216" width="3406" height="1702"/></clipPath><clipPath id="clip32"><rect x="2540" y="216" width="3406" height="1702"/></clipPath><clipPath id="clip33"><rect x="2540" y="216" width="3406" height="1702"/></clipPath><clipPath id="clip34"><rect x="2540" y="216" width="3406" height="1702"/></clipPath><clipPath id="clip35"><rect x="2540" y="216" width="3406" height="1702"/></clipPath><clipPath id="clip36"><rect x="2540" y="216" width="3406" height="1702"/></clipPath><clipPath id="clip37"><rect x="2540" y="216" width="3406" height="1702"/></clipPath><clipPath id="clip38"><rect x="2540" y="216" width="3406" height="1702"/></clipPath><clipPath id="clip39"><rect x="2540" y="216" width="3406" height="1702"/></clipPath><clipPath id="clip40"><rect x="2540" y="216" width="3406" height="1702"/></clipPath><clipPath id="clip41"><rect x="2540" y="216" width="3406" height="1702"/></clipPath><clipPath id="clip42"><rect x="2540" y="216" width="3406" height="1702"/></clipPath><clipPath id="clip43"><rect x="2540" y="216" width="3406" height="1702"/></clipPath><clipPath id="clip44"><rect x="2540" y="216" width="3406" height="1702"/></clipPath></defs><g clip-path="url(#clip0)" transform="translate(-2540 -217)"><rect x="2540" y="217" width="3407" height="1702" fill="#FFFFFF"/><g clip-path="url(#clip1)"><path d="M2945.5 1396.55 5804.5 1396.55M2945.5 1201.54 5804.5 1201.54M2945.5 1007.53 5804.5 1007.53M2945.5 813.527 5804.5 813.527M2945.5 618.52 5804.5 618.52M2945.5 424.5 5804.5 424.5" stroke="#D9D9D9" stroke-width="3.4375" stroke-linejoin="round" stroke-miterlimit="10" fill="none"/></g><g clip-path="url(#clip2)"><path d="M3231.61 424.5 3231.61 1590.5M3517.62 424.5 3517.62 1590.5M3803.62 424.5 3803.62 1590.5M4089.63 424.5 4089.63 1590.5M4374.64 424.5 4374.64 1590.5M4660.65 424.5 4660.65 1590.5M4946.66 424.5 4946.66 1590.5M5232.67 424.5 5232.67 1590.5M5518.68 424.5 5518.68 1590.5M5804.5 424.5 5804.5 1590.5" stroke="#D9D9D9" stroke-width="3.4375" stroke-linejoin="round" stroke-miterlimit="10" fill="none"/></g><g clip-path="url(#clip3)"><path d="M0 0 0.000360892 1166" stroke="#BFBFBF" stroke-width="3.4375" stroke-linejoin="round" stroke-miterlimit="10" fill="none" fill-rule="evenodd" transform="matrix(1 0 0 -1 2945.5 1590.5)"/></g><g clip-path="url(#clip4)"><path d="M2945.5 1590.5 5804.5 1590.5" stroke="#BFBFBF" stroke-width="3.4375" stroke-linejoin="round" stroke-miterlimit="10" fill="none" fill-rule="evenodd"/></g><g clip-path="url(#clip5)"><path d="M2951.5 1586.5 2994.6 1572.55 3042.6 1556.55 3091.6 1543.55 3140.6 1523.55 3188.6 1510.55 3237.61 1489.55 3285.61 1487.55 3334.61 1433.55 3383.61 1419.55 3431.61 1417.55 3480.61 1406.55 3528.62 1375.55 3577.62 1375.55 3626.62 1357.54 3674.62 1357.54 3723.62 1351.54 3771.62 1347.54 3820.63 1334.54 3868.63 1324.54 3917.63 1320.54 3966.63 1303.54 4014.63 1298.54 4063.63 1267.54 4111.64 1266.54 4160.64 1266.54 4209.64 1235.54 4257.64 1229.54 4306.64 1210.54 4354.64 1203.54 4403.64 1183.54 4452.65 1169.54 4500.65 1164.54 4549.65 1163.54 4597.65 1154.54 4646.65 1153.54 4695.65 1152.54 4743.66 1145.54 4792.66 1129.54 4840.66 1122.54 4889.66 1095.54 4937.66 1093.54 4986.66 1087.54 5035.67 1073.54 5083.67 1072.54 5132.67 1061.54 5180.67 1041.53 5229.67 1027.53 5278.67 1021.53 5326.67 1010.53 5375.68 989.533 5423.68 956.532 5472.68 939.531 5521.68 926.531 5569.68 911.53 5618.68 908.53 5666.69 872.529 5715.69 860.528 5763.69 852.528 5804.5 832.5" stroke="#4472C4" stroke-width="6.875" stroke-linecap="round" stroke-linejoin="round" stroke-miterlimit="10" fill="none"/></g><g clip-path="url(#clip6)"><path d="M2951.5 1587.5 2994.6 1574.55 3042.6 1574.55 3091.6 1570.55 3140.6 1543.55 3188.6 1539.55 3237.61 1516.55 3285.61 1498.55 3334.61 1494.55 3383.61 1483.55 3431.61 1470.55 3480.61 1469.55 3528.62 1458.55 3577.62 1446.55 3626.62 1445.55 3674.62 1426.55 3723.62 1425.55 3771.62 1410.55 3820.63 1392.55 3868.63 1388.55 3917.63 1371.55 3966.63 1371.55 4014.63 1365.55 4063.63 1361.54 4111.64 1350.54 4160.64 1344.54 4209.64 1343.54 4257.64 1329.54 4306.64 1326.54 4354.64 1305.54 4403.64 1302.54 4452.65 1294.54 4500.65 1287.54 4549.65 1282.54 4597.65 1261.54 4646.65 1248.54 4695.65 1232.54 4743.66 1231.54 4792.66 1219.54 4840.66 1210.54 4889.66 1209.54 4937.66 1207.54 4986.66 1205.54 5035.67 1202.54 5083.67 1192.54 5132.67 1184.54 5180.67 1175.54 5229.67 1155.54 5278.67 1145.54 5326.67 1143.54 5375.68 1124.54 5423.68 1119.54 5472.68 1107.54 5521.68 1088.54 5569.68 1087.54 5618.68 1074.54 5666.69 1060.54 5715.69 1040.53 5763.69 1034.53 5804.5 1027.5" stroke="#ED7D31" stroke-width="6.875" stroke-linecap="round" stroke-linejoin="round" stroke-miterlimit="10" fill="none"/></g><g clip-path="url(#clip7)"><path d="M2951.5 1575.5 2994.6 1566.55 3042.6 1556.55 3091.6 1553.55 3140.6 1541.55 3188.6 1537.55 3237.61 1530.55 3285.61 1523.55 3334.61 1521.55 3383.61 1517.55 3431.61 1512.55 3480.61 1500.55 3528.62 1494.55 3577.62 1492.55 3626.62 1489.55 3674.62 1486.55 3723.62 1476.55 3771.62 1470.55 3820.63 1444.55 3868.63 1443.55 3917.63 1431.55 3966.63 1428.55 4014.63 1427.55 4063.63 1410.55 4111.64 1406.55 4160.64 1403.55 4209.64 1394.55 4257.64 1385.55 4306.64 1358.54 4354.64 1347.54 4403.64 1336.54 4452.65 1313.54 4500.65 1304.54 4549.65 1294.54 4597.65 1270.54 4646.65 1230.54 4695.65 1224.54 4743.66 1181.54 4792.66 1179.54 4840.66 1173.54 4889.66 1144.54 4937.66 1140.54 4986.66 1136.54 5035.67 1135.54 5083.67 1098.54 5132.67 1095.54 5180.67 1081.54 5229.67 1078.54 5278.67 1043.53 5326.67 1042.53 5375.68 1022.53 5423.68 979.532 5472.68 949.531 5521.68 942.531 5569.68 936.531 5618.68 928.531 5666.69 862.528 5715.69 757.525 5763.69 741.524 5804.5 730.5" stroke="#5B9BD5" stroke-width="6.875" stroke-linecap="round" stroke-linejoin="round" stroke-miterlimit="10" fill="none"/></g><g clip-path="url(#clip8)"><path d="M2951.5 1576.5 2994.6 1544.55 3042.6 1512.55 3091.6 1489.55 3140.6 1486.55 3188.6 1471.55 3237.61 1453.55 3285.61 1453.55 3334.61 1453.55 3383.61 1446.55 3431.61 1421.55 3480.61 1420.55 3528.62 1415.55 3577.62 1402.55 3626.62 1401.55 3674.62 1396.55 3723.62 1393.55 3771.62 1386.55 3820.63 1292.54 3868.63 1285.54 3917.63 1250.54 3966.63 1232.54 4014.63 1228.54 4063.63 1216.54 4111.64 1204.54 4160.64 1202.54 4209.64 1191.54 4257.64 1162.54 4306.64 1160.54 4354.64 1144.54 4403.64 1106.54 4452.65 1081.54 4500.65 1068.54 4549.65 1055.53 4597.65 1053.53 4646.65 1034.53 4695.65 1033.53 4743.66 1004.53 4792.66 996.533 4840.66 956.532 4889.66 954.531 4937.66 943.531 4986.66 897.53 5035.67 895.53 5083.67 893.53 5132.67 801.526 5180.67 764.525 5229.67 738.524 5278.67 725.524 5326.67 711.524 5375.68 693.523 5423.68 690.523 5472.68 687.523 5521.68 671.522 5569.68 667.522 5618.68 644.521 5666.69 622.521 5715.69 591.52 5763.69 590.52 5804.5 584.5" stroke="#FFC000" stroke-width="6.875" stroke-linecap="round" stroke-linejoin="round" stroke-miterlimit="10" fill="none"/></g><g clip-path="url(#clip9)"><path d="M2951.5 1586.5 2994.6 1583.55 3042.6 1578.55 3091.6 1578.55 3140.6 1571.55 3188.6 1567.55 3237.61 1565.55 3285.61 1549.55 3334.61 1549.55 3383.61 1548.55 3431.61 1546.55 3480.61 1526.55 3528.62 1526.55 3577.62 1525.55 3626.62 1502.55 3674.62 1489.55 3723.62 1480.55 3771.62 1479.55 3820.63 1478.55 3868.63 1477.55 3917.63 1446.55 3966.63 1443.55 4014.63 1432.55 4063.63 1414.55 4111.64 1400.55 4160.64 1377.55 4209.64 1369.55 4257.64 1368.55 4306.64 1351.54 4354.64 1349.54 4403.64 1338.54 4452.65 1323.54 4500.65 1292.54 4549.65 1288.54 4597.65 1282.54 4646.65 1281.54 4695.65 1267.54 4743.66 1264.54 4792.66 1263.54 4840.66 1262.54 4889.66 1255.54 4937.66 1251.54 4986.66 1246.54 5035.67 1232.54 5083.67 1229.54 5132.67 1221.54 5180.67 1213.54 5229.67 1197.54 5278.67 1192.54 5326.67 1190.54 5375.68 1161.54 5423.68 1144.54 5472.68 1133.54 5521.68 1122.54 5569.68 1113.54 5618.68 1109.54 5666.69 1088.54 5715.69 1074.54 5763.69 1038.53 5804.5 1000.5" stroke="#A5A5A5" stroke-width="6.875" stroke-linecap="round" stroke-linejoin="round" stroke-miterlimit="10" fill="none"/></g><g clip-path="url(#clip10)"><text font-family="LM Roman 10,LM Roman 10_MSFontService,sans-serif" font-weight="700" font-size="64" transform="matrix(1 0 0 1 2838.94 1611)">0</text></g><g clip-path="url(#clip11)"><text font-family="LM Roman 10,LM Roman 10_MSFontService,sans-serif" font-weight="700" font-size="64" transform="matrix(1 0 0 1 2728.25 1417)">1000</text></g><g clip-path="url(#clip12)"><text font-family="LM Roman 10,LM Roman 10_MSFontService,sans-serif" font-weight="700" font-size="64" transform="matrix(1 0 0 1 2728.25 1222)">2000</text></g><g clip-path="url(#clip13)"><text font-family="LM Roman 10,LM Roman 10_MSFontService,sans-serif" font-weight="700" font-size="64" transform="matrix(1 0 0 1 2728.25 1028)">3000</text></g><g clip-path="url(#clip14)"><text font-family="LM Roman 10,LM Roman 10_MSFontService,sans-serif" font-weight="700" font-size="64" transform="matrix(1 0 0 1 2728.25 834)">4000</text></g><g clip-path="url(#clip15)"><text font-family="LM Roman 10,LM Roman 10_MSFontService,sans-serif" font-weight="700" font-size="64" transform="matrix(1 0 0 1 2728.25 639)">5000</text></g><g clip-path="url(#clip16)"><text font-family="LM Roman 10,LM Roman 10_MSFontService,sans-serif" font-weight="700" font-size="64" transform="matrix(1 0 0 1 2728.25 445)">6000</text></g><g clip-path="url(#clip17)"><text font-family="LM Roman 10,LM Roman 10_MSFontService,sans-serif" font-weight="700" font-size="64" transform="matrix(1 0 0 1 2927.43 1712)">0</text></g><g clip-path="url(#clip18)"><text font-family="LM Roman 10,LM Roman 10_MSFontService,sans-serif" font-weight="700" font-size="64" transform="matrix(1 0 0 1 3176.36 1712)">500</text></g><g clip-path="url(#clip19)"><text font-family="LM Roman 10,LM Roman 10_MSFontService,sans-serif" font-weight="700" font-size="64" transform="matrix(1 0 0 1 3425.3 1712)">1 000</text></g><g clip-path="url(#clip20)"><text font-family="LM Roman 10,LM Roman 10_MSFontService,sans-serif" font-weight="700" font-size="64" transform="matrix(1 0 0 1 3711.13 1712)">1 500</text></g><g clip-path="url(#clip21)"><text font-family="LM Roman 10,LM Roman 10_MSFontService,sans-serif" font-weight="700" font-size="64" transform="matrix(1 0 0 1 3996.96 1712)">2 000</text></g><g clip-path="url(#clip22)"><text font-family="LM Roman 10,LM Roman 10_MSFontService,sans-serif" font-weight="700" font-size="64" transform="matrix(1 0 0 1 4282.79 1712)">2 500</text></g><g clip-path="url(#clip23)"><text font-family="LM Roman 10,LM Roman 10_MSFontService,sans-serif" font-weight="700" font-size="64" transform="matrix(1 0 0 1 4568.63 1712)">3 000</text></g><g clip-path="url(#clip24)"><text font-family="LM Roman 10,LM Roman 10_MSFontService,sans-serif" font-weight="700" font-size="64" transform="matrix(1 0 0 1 4854.46 1712)">3 500</text></g><g clip-path="url(#clip25)"><text font-family="LM Roman 10,LM Roman 10_MSFontService,sans-serif" font-weight="700" font-size="64" transform="matrix(1 0 0 1 5140.29 1712)">4 000</text></g><g clip-path="url(#clip26)"><text font-family="LM Roman 10,LM Roman 10_MSFontService,sans-serif" font-weight="700" font-size="64" transform="matrix(1 0 0 1 5426.12 1712)">4 500</text></g><g clip-path="url(#clip27)"><text font-family="LM Roman 10,LM Roman 10_MSFontService,sans-serif" font-weight="700" font-size="64" transform="matrix(1 0 0 1 5711.95 1712)">5 000</text></g><g clip-path="url(#clip28)"><text font-family="LM Roman 10,LM Roman 10_MSFontService,sans-serif" font-weight="400" font-size="83" transform="matrix(6.12323e-17 -1 1 6.12323e-17 2642.62 1518)">Średni czas odpowiedzi (ms)</text></g><g clip-path="url(#clip29)"><text font-family="LM Roman 10,LM Roman 10_MSFontService,sans-serif" font-weight="400" font-size="83" transform="matrix(1 0 0 1 3566.03 1888)">Liczba współbieżnie działających wątków</text></g><g clip-path="url(#clip30)"><text font-family="LM Roman 10,LM Roman 10_MSFontService,sans-serif" font-weight="700" font-size="69" transform="matrix(1 0 0 1 3014.91 329)">Interfejs API: </text></g><g clip-path="url(#clip31)"><text font-family="LM Roman 10,LM Roman 10_MSFontService,sans-serif" font-weight="400" font-size="69" transform="matrix(1 0 0 1 3520.23 329)">NodeJS API</text></g><g clip-path="url(#clip32)"><text font-family="LM Roman 10,LM Roman 10_MSFontService,sans-serif" font-weight="700" font-size="69" transform="matrix(1 0 0 1 3896.5 329)">. Punkt końcowy: </text></g><g clip-path="url(#clip33)"><text font-family="LM Roman 10,LM Roman 10_MSFontService,sans-serif" font-weight="400" font-size="69" transform="matrix(1 0 0 1 4528.03 329)">DELETE /API/RESERVATIONS/:ID</text></g><g clip-path="url(#clip34)"><rect x="2951.5" y="437.5" width="549" height="462" stroke="#BFBFBF" stroke-width="3.4375" stroke-linejoin="round" stroke-miterlimit="10" fill="#FFFFFF"/></g><g clip-path="url(#clip35)"><path d="M3009.5 483.5 3097.5 483.501" stroke="#4472C4" stroke-width="6.875" stroke-linecap="round" stroke-linejoin="round" stroke-miterlimit="10" fill="none" fill-rule="evenodd"/></g><g clip-path="url(#clip36)"><text font-family="LM Roman 10,LM Roman 10_MSFontService,sans-serif" font-weight="400" font-size="64" transform="matrix(1 0 0 1 3107.08 503)">SQL Server</text></g><g clip-path="url(#clip37)"><path d="M3009.5 575.5 3097.5 575.5" stroke="#ED7D31" stroke-width="6.875" stroke-linecap="round" stroke-linejoin="round" stroke-miterlimit="10" fill="none" fill-rule="evenodd"/></g><g clip-path="url(#clip38)"><text font-family="LM Roman 10,LM Roman 10_MSFontService,sans-serif" font-weight="400" font-size="64" transform="matrix(1 0 0 1 3107.08 596)">MySQL</text></g><g clip-path="url(#clip39)"><path d="M3009.5 668.5 3097.5 668.5" stroke="#5B9BD5" stroke-width="6.875" stroke-linecap="round" stroke-linejoin="round" stroke-miterlimit="10" fill="none" fill-rule="evenodd"/></g><g clip-path="url(#clip40)"><text font-family="LM Roman 10,LM Roman 10_MSFontService,sans-serif" font-weight="400" font-size="64" transform="matrix(1 0 0 1 3107.08 688)">PostgreSQL</text></g><g clip-path="url(#clip41)"><path d="M3009.5 760.5 3097.5 760.5" stroke="#FFC000" stroke-width="6.875" stroke-linecap="round" stroke-linejoin="round" stroke-miterlimit="10" fill="none" fill-rule="evenodd"/></g><g clip-path="url(#clip42)"><text font-family="LM Roman 10,LM Roman 10_MSFontService,sans-serif" font-weight="400" font-size="64" transform="matrix(1 0 0 1 3107.08 780)">SQLite</text></g><g clip-path="url(#clip43)"><path d="M3009.5 852.5 3097.5 852.5" stroke="#A5A5A5" stroke-width="6.875" stroke-linecap="round" stroke-linejoin="round" stroke-miterlimit="10" fill="none" fill-rule="evenodd"/></g><g clip-path="url(#clip44)"><text font-family="LM Roman 10,LM Roman 10_MSFontService,sans-serif" font-weight="400" font-size="64" transform="matrix(1 0 0 1 3107.08 873)">MongoDB</text></g></g></svg>